%TF.GenerationSoftware,KiCad,Pcbnew,7.0.11+dfsg-1build4*%
%TF.CreationDate,2026-06-08T00:43:09-05:00*%
%TF.ProjectId,,58585858-5858-4585-9858-585858585858,rev?*%
%TF.SameCoordinates,Original*%
%TF.FileFunction,Profile,NP*%
%FSLAX46Y46*%
G04 Gerber Fmt 4.6, Leading zero omitted, Abs format (unit mm)*
G04 Created by KiCad (PCBNEW 7.0.11+dfsg-1build4) date 2026-06-08 00:43:09*
%MOMM*%
%LPD*%
G01*
G04 APERTURE LIST*
%TA.AperFunction,Profile*%
%ADD10C,0.050000*%
%TD*%
G04 APERTURE END LIST*
D10*
X141621600Y-112053400D02*
X142971600Y-112053400D01*
X141621600Y-112053400D02*
X141621600Y-120103400D01*
X101421600Y-99003400D02*
X101421600Y-107053400D01*
X100071600Y-112053400D02*
X101421600Y-112053400D01*
X100071600Y-107053400D02*
X101421600Y-107053400D01*
X101421600Y-112053400D02*
X101421600Y-120103400D01*
X101421600Y-99003400D02*
X141621600Y-99003400D01*
X100071600Y-107053400D02*
X100071600Y-112053400D01*
X142971600Y-107053400D02*
X142971600Y-112053400D01*
X101421600Y-120103400D02*
X141621600Y-120103400D01*
X141621600Y-107053400D02*
X142971600Y-107053400D01*
X141621600Y-99003400D02*
X141621600Y-107053400D01*
X98721600Y-112053400D02*
X100071600Y-112053400D01*
X98721600Y-112053400D02*
X98721600Y-120103400D01*
X58521600Y-99003400D02*
X58521600Y-107053400D01*
X57171600Y-112053400D02*
X58521600Y-112053400D01*
X57171600Y-107053400D02*
X58521600Y-107053400D01*
X58521600Y-112053400D02*
X58521600Y-120103400D01*
X58521600Y-99003400D02*
X98721600Y-99003400D01*
X57171600Y-107053400D02*
X57171600Y-112053400D01*
X100071600Y-107053400D02*
X100071600Y-112053400D01*
X58521600Y-120103400D02*
X98721600Y-120103400D01*
X98721600Y-107053400D02*
X100071600Y-107053400D01*
X98721600Y-99003400D02*
X98721600Y-107053400D01*
X141621600Y-90953400D02*
X142971600Y-90953400D01*
X141621600Y-90953400D02*
X141621600Y-99003400D01*
X101421600Y-77903400D02*
X101421600Y-85953400D01*
X100071600Y-90953400D02*
X101421600Y-90953400D01*
X100071600Y-85953400D02*
X101421600Y-85953400D01*
X101421600Y-90953400D02*
X101421600Y-99003400D01*
X101421600Y-77903400D02*
X141621600Y-77903400D01*
X100071600Y-85953400D02*
X100071600Y-90953400D01*
X142971600Y-85953400D02*
X142971600Y-90953400D01*
X101421600Y-99003400D02*
X141621600Y-99003400D01*
X141621600Y-85953400D02*
X142971600Y-85953400D01*
X141621600Y-77903400D02*
X141621600Y-85953400D01*
X98721600Y-90953400D02*
X100071600Y-90953400D01*
X98721600Y-90953400D02*
X98721600Y-99003400D01*
X58521600Y-77903400D02*
X58521600Y-85953400D01*
X57171600Y-90953400D02*
X58521600Y-90953400D01*
X57171600Y-85953400D02*
X58521600Y-85953400D01*
X58521600Y-90953400D02*
X58521600Y-99003400D01*
X58521600Y-77903400D02*
X98721600Y-77903400D01*
X57171600Y-85953400D02*
X57171600Y-90953400D01*
X100071600Y-85953400D02*
X100071600Y-90953400D01*
X58521600Y-99003400D02*
X98721600Y-99003400D01*
X98721600Y-85953400D02*
X100071600Y-85953400D01*
X98721600Y-77903400D02*
X98721600Y-85953400D01*
X141621600Y-69853400D02*
X142971600Y-69853400D01*
X141621600Y-69853400D02*
X141621600Y-77903400D01*
X101421600Y-56803400D02*
X101421600Y-64853400D01*
X100071600Y-69853400D02*
X101421600Y-69853400D01*
X100071600Y-64853400D02*
X101421600Y-64853400D01*
X101421600Y-69853400D02*
X101421600Y-77903400D01*
X101421600Y-56803400D02*
X141621600Y-56803400D01*
X100071600Y-64853400D02*
X100071600Y-69853400D01*
X142971600Y-64853400D02*
X142971600Y-69853400D01*
X101421600Y-77903400D02*
X141621600Y-77903400D01*
X141621600Y-64853400D02*
X142971600Y-64853400D01*
X141621600Y-56803400D02*
X141621600Y-64853400D01*
X98721600Y-69853400D02*
X100071600Y-69853400D01*
X98721600Y-69853400D02*
X98721600Y-77903400D01*
X58521600Y-56803400D02*
X58521600Y-64853400D01*
X57171600Y-69853400D02*
X58521600Y-69853400D01*
X57171600Y-64853400D02*
X58521600Y-64853400D01*
X58521600Y-69853400D02*
X58521600Y-77903400D01*
X58521600Y-56803400D02*
X98721600Y-56803400D01*
X57171600Y-64853400D02*
X57171600Y-69853400D01*
X100071600Y-64853400D02*
X100071600Y-69853400D01*
X58521600Y-77903400D02*
X98721600Y-77903400D01*
X98721600Y-64853400D02*
X100071600Y-64853400D01*
X98721600Y-56803400D02*
X98721600Y-64853400D01*
X141621600Y-48753400D02*
X142971600Y-48753400D01*
X141621600Y-48753400D02*
X141621600Y-56803400D01*
X101421600Y-35703400D02*
X101421600Y-43753400D01*
X100071600Y-48753400D02*
X101421600Y-48753400D01*
X100071600Y-43753400D02*
X101421600Y-43753400D01*
X101421600Y-48753400D02*
X101421600Y-56803400D01*
X101421600Y-35703400D02*
X141621600Y-35703400D01*
X100071600Y-43753400D02*
X100071600Y-48753400D01*
X142971600Y-43753400D02*
X142971600Y-48753400D01*
X101421600Y-56803400D02*
X141621600Y-56803400D01*
X141621600Y-43753400D02*
X142971600Y-43753400D01*
X141621600Y-35703400D02*
X141621600Y-43753400D01*
X58521600Y-35703400D02*
X58521600Y-43753400D01*
X58521600Y-35703400D02*
X98721600Y-35703400D01*
X98721600Y-48753400D02*
X98721600Y-56803400D01*
X98721600Y-48753400D02*
X100071600Y-48753400D01*
X57171600Y-43753400D02*
X58521600Y-43753400D01*
X57171600Y-48753400D02*
X58521600Y-48753400D01*
X100071600Y-43753400D02*
X100071600Y-48753400D01*
X58521600Y-56803400D02*
X98721600Y-56803400D01*
X98721600Y-43753400D02*
X100071600Y-43753400D01*
X58521600Y-48753400D02*
X58521600Y-56803400D01*
X57171600Y-43753400D02*
X57171600Y-48753400D01*
X98721600Y-35703400D02*
X98721600Y-43753400D01*
M02*
