%TF.GenerationSoftware,KiCad,Pcbnew,7.0.11+dfsg-1build4*%
%TF.CreationDate,2026-06-08T00:43:09-05:00*%
%TF.ProjectId,,58585858-5858-4585-9858-585858585858,rev?*%
%TF.SameCoordinates,Original*%
%TF.FileFunction,Soldermask,Top*%
%TF.FilePolarity,Negative*%
%FSLAX46Y46*%
G04 Gerber Fmt 4.6, Leading zero omitted, Abs format (unit mm)*
G04 Created by KiCad (PCBNEW 7.0.11+dfsg-1build4) date 2026-06-08 00:43:09*
%MOMM*%
%LPD*%
G01*
G04 APERTURE LIST*
%ADD10R,2.400000X2.400000*%
%ADD11C,2.400000*%
%ADD12R,1.700000X1.700000*%
%ADD13O,1.700000X1.700000*%
G04 APERTURE END LIST*
D10*
%TO.C,J3*%
X110146600Y-112303400D03*
D11*
X108396600Y-100873400D03*
X113646600Y-112303400D03*
X111896600Y-100873400D03*
X117146600Y-112303400D03*
X115396600Y-100873400D03*
X120646600Y-112303400D03*
X118896600Y-100873400D03*
X124146600Y-112303400D03*
X122396600Y-100873400D03*
X127646600Y-112303400D03*
X125896600Y-100873400D03*
X131146600Y-112303400D03*
X129396600Y-100873400D03*
X134646600Y-112303400D03*
X132896600Y-100873400D03*
%TD*%
D12*
%TO.C,J2*%
X139851600Y-100663400D03*
D13*
X139851600Y-103203400D03*
X139851600Y-105743400D03*
X139851600Y-108283400D03*
X139851600Y-110823400D03*
X139851600Y-113363400D03*
X139851600Y-115903400D03*
X139851600Y-118443400D03*
%TD*%
D10*
%TO.C,J4*%
X109271600Y-104565800D03*
D11*
X112771600Y-104565800D03*
X116271600Y-104565800D03*
X119771600Y-104565800D03*
X123271600Y-104565800D03*
X126771600Y-104565800D03*
X130271600Y-104565800D03*
X133771600Y-104565800D03*
%TD*%
D12*
%TO.C,J1*%
X103191600Y-100663400D03*
D13*
X103191600Y-103203400D03*
X103191600Y-105743400D03*
X103191600Y-108283400D03*
X103191600Y-110823400D03*
X103191600Y-113363400D03*
X103191600Y-115903400D03*
X103191600Y-118443400D03*
%TD*%
D10*
%TO.C,J3*%
X67246600Y-112303400D03*
D11*
X65496600Y-100873400D03*
X70746600Y-112303400D03*
X68996600Y-100873400D03*
X74246600Y-112303400D03*
X72496600Y-100873400D03*
X77746600Y-112303400D03*
X75996600Y-100873400D03*
X81246600Y-112303400D03*
X79496600Y-100873400D03*
X84746600Y-112303400D03*
X82996600Y-100873400D03*
X88246600Y-112303400D03*
X86496600Y-100873400D03*
X91746600Y-112303400D03*
X89996600Y-100873400D03*
%TD*%
D12*
%TO.C,J2*%
X96951600Y-100663400D03*
D13*
X96951600Y-103203400D03*
X96951600Y-105743400D03*
X96951600Y-108283400D03*
X96951600Y-110823400D03*
X96951600Y-113363400D03*
X96951600Y-115903400D03*
X96951600Y-118443400D03*
%TD*%
D10*
%TO.C,J4*%
X66371600Y-104565800D03*
D11*
X69871600Y-104565800D03*
X73371600Y-104565800D03*
X76871600Y-104565800D03*
X80371600Y-104565800D03*
X83871600Y-104565800D03*
X87371600Y-104565800D03*
X90871600Y-104565800D03*
%TD*%
D12*
%TO.C,J1*%
X60291600Y-100663400D03*
D13*
X60291600Y-103203400D03*
X60291600Y-105743400D03*
X60291600Y-108283400D03*
X60291600Y-110823400D03*
X60291600Y-113363400D03*
X60291600Y-115903400D03*
X60291600Y-118443400D03*
%TD*%
D10*
%TO.C,J3*%
X110146600Y-91203400D03*
D11*
X108396600Y-79773400D03*
X113646600Y-91203400D03*
X111896600Y-79773400D03*
X117146600Y-91203400D03*
X115396600Y-79773400D03*
X120646600Y-91203400D03*
X118896600Y-79773400D03*
X124146600Y-91203400D03*
X122396600Y-79773400D03*
X127646600Y-91203400D03*
X125896600Y-79773400D03*
X131146600Y-91203400D03*
X129396600Y-79773400D03*
X134646600Y-91203400D03*
X132896600Y-79773400D03*
%TD*%
D12*
%TO.C,J2*%
X139851600Y-79563400D03*
D13*
X139851600Y-82103400D03*
X139851600Y-84643400D03*
X139851600Y-87183400D03*
X139851600Y-89723400D03*
X139851600Y-92263400D03*
X139851600Y-94803400D03*
X139851600Y-97343400D03*
%TD*%
D10*
%TO.C,J4*%
X109271600Y-83465800D03*
D11*
X112771600Y-83465800D03*
X116271600Y-83465800D03*
X119771600Y-83465800D03*
X123271600Y-83465800D03*
X126771600Y-83465800D03*
X130271600Y-83465800D03*
X133771600Y-83465800D03*
%TD*%
D12*
%TO.C,J1*%
X103191600Y-79563400D03*
D13*
X103191600Y-82103400D03*
X103191600Y-84643400D03*
X103191600Y-87183400D03*
X103191600Y-89723400D03*
X103191600Y-92263400D03*
X103191600Y-94803400D03*
X103191600Y-97343400D03*
%TD*%
D10*
%TO.C,J3*%
X67246600Y-91203400D03*
D11*
X65496600Y-79773400D03*
X70746600Y-91203400D03*
X68996600Y-79773400D03*
X74246600Y-91203400D03*
X72496600Y-79773400D03*
X77746600Y-91203400D03*
X75996600Y-79773400D03*
X81246600Y-91203400D03*
X79496600Y-79773400D03*
X84746600Y-91203400D03*
X82996600Y-79773400D03*
X88246600Y-91203400D03*
X86496600Y-79773400D03*
X91746600Y-91203400D03*
X89996600Y-79773400D03*
%TD*%
D12*
%TO.C,J2*%
X96951600Y-79563400D03*
D13*
X96951600Y-82103400D03*
X96951600Y-84643400D03*
X96951600Y-87183400D03*
X96951600Y-89723400D03*
X96951600Y-92263400D03*
X96951600Y-94803400D03*
X96951600Y-97343400D03*
%TD*%
D10*
%TO.C,J4*%
X66371600Y-83465800D03*
D11*
X69871600Y-83465800D03*
X73371600Y-83465800D03*
X76871600Y-83465800D03*
X80371600Y-83465800D03*
X83871600Y-83465800D03*
X87371600Y-83465800D03*
X90871600Y-83465800D03*
%TD*%
D12*
%TO.C,J1*%
X60291600Y-79563400D03*
D13*
X60291600Y-82103400D03*
X60291600Y-84643400D03*
X60291600Y-87183400D03*
X60291600Y-89723400D03*
X60291600Y-92263400D03*
X60291600Y-94803400D03*
X60291600Y-97343400D03*
%TD*%
D10*
%TO.C,J3*%
X110146600Y-70103400D03*
D11*
X108396600Y-58673400D03*
X113646600Y-70103400D03*
X111896600Y-58673400D03*
X117146600Y-70103400D03*
X115396600Y-58673400D03*
X120646600Y-70103400D03*
X118896600Y-58673400D03*
X124146600Y-70103400D03*
X122396600Y-58673400D03*
X127646600Y-70103400D03*
X125896600Y-58673400D03*
X131146600Y-70103400D03*
X129396600Y-58673400D03*
X134646600Y-70103400D03*
X132896600Y-58673400D03*
%TD*%
D12*
%TO.C,J2*%
X139851600Y-58463400D03*
D13*
X139851600Y-61003400D03*
X139851600Y-63543400D03*
X139851600Y-66083400D03*
X139851600Y-68623400D03*
X139851600Y-71163400D03*
X139851600Y-73703400D03*
X139851600Y-76243400D03*
%TD*%
D10*
%TO.C,J4*%
X109271600Y-62365800D03*
D11*
X112771600Y-62365800D03*
X116271600Y-62365800D03*
X119771600Y-62365800D03*
X123271600Y-62365800D03*
X126771600Y-62365800D03*
X130271600Y-62365800D03*
X133771600Y-62365800D03*
%TD*%
D12*
%TO.C,J1*%
X103191600Y-58463400D03*
D13*
X103191600Y-61003400D03*
X103191600Y-63543400D03*
X103191600Y-66083400D03*
X103191600Y-68623400D03*
X103191600Y-71163400D03*
X103191600Y-73703400D03*
X103191600Y-76243400D03*
%TD*%
D10*
%TO.C,J3*%
X67246600Y-70103400D03*
D11*
X65496600Y-58673400D03*
X70746600Y-70103400D03*
X68996600Y-58673400D03*
X74246600Y-70103400D03*
X72496600Y-58673400D03*
X77746600Y-70103400D03*
X75996600Y-58673400D03*
X81246600Y-70103400D03*
X79496600Y-58673400D03*
X84746600Y-70103400D03*
X82996600Y-58673400D03*
X88246600Y-70103400D03*
X86496600Y-58673400D03*
X91746600Y-70103400D03*
X89996600Y-58673400D03*
%TD*%
D12*
%TO.C,J2*%
X96951600Y-58463400D03*
D13*
X96951600Y-61003400D03*
X96951600Y-63543400D03*
X96951600Y-66083400D03*
X96951600Y-68623400D03*
X96951600Y-71163400D03*
X96951600Y-73703400D03*
X96951600Y-76243400D03*
%TD*%
D10*
%TO.C,J4*%
X66371600Y-62365800D03*
D11*
X69871600Y-62365800D03*
X73371600Y-62365800D03*
X76871600Y-62365800D03*
X80371600Y-62365800D03*
X83871600Y-62365800D03*
X87371600Y-62365800D03*
X90871600Y-62365800D03*
%TD*%
D12*
%TO.C,J1*%
X60291600Y-58463400D03*
D13*
X60291600Y-61003400D03*
X60291600Y-63543400D03*
X60291600Y-66083400D03*
X60291600Y-68623400D03*
X60291600Y-71163400D03*
X60291600Y-73703400D03*
X60291600Y-76243400D03*
%TD*%
D10*
%TO.C,J3*%
X110146600Y-49003400D03*
D11*
X108396600Y-37573400D03*
X113646600Y-49003400D03*
X111896600Y-37573400D03*
X117146600Y-49003400D03*
X115396600Y-37573400D03*
X120646600Y-49003400D03*
X118896600Y-37573400D03*
X124146600Y-49003400D03*
X122396600Y-37573400D03*
X127646600Y-49003400D03*
X125896600Y-37573400D03*
X131146600Y-49003400D03*
X129396600Y-37573400D03*
X134646600Y-49003400D03*
X132896600Y-37573400D03*
%TD*%
D12*
%TO.C,J2*%
X139851600Y-37363400D03*
D13*
X139851600Y-39903400D03*
X139851600Y-42443400D03*
X139851600Y-44983400D03*
X139851600Y-47523400D03*
X139851600Y-50063400D03*
X139851600Y-52603400D03*
X139851600Y-55143400D03*
%TD*%
D10*
%TO.C,J4*%
X109271600Y-41265800D03*
D11*
X112771600Y-41265800D03*
X116271600Y-41265800D03*
X119771600Y-41265800D03*
X123271600Y-41265800D03*
X126771600Y-41265800D03*
X130271600Y-41265800D03*
X133771600Y-41265800D03*
%TD*%
D12*
%TO.C,J1*%
X103191600Y-37363400D03*
D13*
X103191600Y-39903400D03*
X103191600Y-42443400D03*
X103191600Y-44983400D03*
X103191600Y-47523400D03*
X103191600Y-50063400D03*
X103191600Y-52603400D03*
X103191600Y-55143400D03*
%TD*%
D10*
%TO.C,J3*%
X67246600Y-49003400D03*
D11*
X65496600Y-37573400D03*
X70746600Y-49003400D03*
X68996600Y-37573400D03*
X74246600Y-49003400D03*
X72496600Y-37573400D03*
X77746600Y-49003400D03*
X75996600Y-37573400D03*
X81246600Y-49003400D03*
X79496600Y-37573400D03*
X84746600Y-49003400D03*
X82996600Y-37573400D03*
X88246600Y-49003400D03*
X86496600Y-37573400D03*
X91746600Y-49003400D03*
X89996600Y-37573400D03*
%TD*%
D12*
%TO.C,J2*%
X96951600Y-37363400D03*
D13*
X96951600Y-39903400D03*
X96951600Y-42443400D03*
X96951600Y-44983400D03*
X96951600Y-47523400D03*
X96951600Y-50063400D03*
X96951600Y-52603400D03*
X96951600Y-55143400D03*
%TD*%
D10*
%TO.C,J4*%
X66371600Y-41265800D03*
D11*
X69871600Y-41265800D03*
X73371600Y-41265800D03*
X76871600Y-41265800D03*
X80371600Y-41265800D03*
X83871600Y-41265800D03*
X87371600Y-41265800D03*
X90871600Y-41265800D03*
%TD*%
D12*
%TO.C,J1*%
X60291600Y-37363400D03*
D13*
X60291600Y-39903400D03*
X60291600Y-42443400D03*
X60291600Y-44983400D03*
X60291600Y-47523400D03*
X60291600Y-50063400D03*
X60291600Y-52603400D03*
X60291600Y-55143400D03*
%TD*%
M02*
