M48
; DRILL file {KiCad 7.0.11+dfsg-1build4} date lun 08 jun 2026 00:43:06
; FORMAT={-:-/ absolute / metric / decimal}
; #@! TF.CreationDate,2026-06-08T00:43:06-05:00
; #@! TF.GenerationSoftware,Kicad,Pcbnew,7.0.11+dfsg-1build4
; #@! TF.FileFunction,Plated,1,2,PTH
FMAT,2
METRIC
; #@! TA.AperFunction,Plated,PTH,ViaDrill
T1C0.300
; #@! TA.AperFunction,Plated,PTH,ComponentDrill
T2C1.000
; #@! TA.AperFunction,Plated,PTH,ComponentDrill
T3C1.200
%
G90
G05
T1
X62.505Y-49.089
X62.505Y-70.189
X62.505Y-91.289
X62.505Y-112.389
X62.607Y-51.68
X62.607Y-72.78
X62.607Y-93.88
X62.607Y-114.98
X63.034Y-45.883
X63.034Y-66.983
X63.034Y-88.083
X63.034Y-109.183
X88.871Y-44.383
X88.871Y-65.483
X88.871Y-86.583
X88.871Y-107.683
X94.332Y-41.063
X94.332Y-62.163
X94.332Y-83.263
X94.332Y-104.363
X94.662Y-45.583
X94.662Y-66.683
X94.662Y-87.783
X94.662Y-108.883
X105.405Y-49.089
X105.405Y-70.189
X105.405Y-91.289
X105.405Y-112.389
X105.507Y-51.68
X105.507Y-72.78
X105.507Y-93.88
X105.507Y-114.98
X105.934Y-45.883
X105.934Y-66.983
X105.934Y-88.083
X105.934Y-109.183
X131.771Y-44.383
X131.771Y-65.483
X131.771Y-86.583
X131.771Y-107.683
X137.232Y-41.063
X137.232Y-62.163
X137.232Y-83.263
X137.232Y-104.363
X137.562Y-45.583
X137.562Y-66.683
X137.562Y-87.783
X137.562Y-108.883
T2
X60.292Y-37.363
X60.292Y-39.903
X60.292Y-42.443
X60.292Y-44.983
X60.292Y-47.523
X60.292Y-50.063
X60.292Y-52.603
X60.292Y-55.143
X60.292Y-58.463
X60.292Y-61.003
X60.292Y-63.543
X60.292Y-66.083
X60.292Y-68.623
X60.292Y-71.163
X60.292Y-73.703
X60.292Y-76.243
X60.292Y-79.563
X60.292Y-82.103
X60.292Y-84.643
X60.292Y-87.183
X60.292Y-89.723
X60.292Y-92.263
X60.292Y-94.803
X60.292Y-97.343
X60.292Y-100.663
X60.292Y-103.203
X60.292Y-105.743
X60.292Y-108.283
X60.292Y-110.823
X60.292Y-113.363
X60.292Y-115.903
X60.292Y-118.443
X96.952Y-37.363
X96.952Y-39.903
X96.952Y-42.443
X96.952Y-44.983
X96.952Y-47.523
X96.952Y-50.063
X96.952Y-52.603
X96.952Y-55.143
X96.952Y-58.463
X96.952Y-61.003
X96.952Y-63.543
X96.952Y-66.083
X96.952Y-68.623
X96.952Y-71.163
X96.952Y-73.703
X96.952Y-76.243
X96.952Y-79.563
X96.952Y-82.103
X96.952Y-84.643
X96.952Y-87.183
X96.952Y-89.723
X96.952Y-92.263
X96.952Y-94.803
X96.952Y-97.343
X96.952Y-100.663
X96.952Y-103.203
X96.952Y-105.743
X96.952Y-108.283
X96.952Y-110.823
X96.952Y-113.363
X96.952Y-115.903
X96.952Y-118.443
X103.192Y-37.363
X103.192Y-39.903
X103.192Y-42.443
X103.192Y-44.983
X103.192Y-47.523
X103.192Y-50.063
X103.192Y-52.603
X103.192Y-55.143
X103.192Y-58.463
X103.192Y-61.003
X103.192Y-63.543
X103.192Y-66.083
X103.192Y-68.623
X103.192Y-71.163
X103.192Y-73.703
X103.192Y-76.243
X103.192Y-79.563
X103.192Y-82.103
X103.192Y-84.643
X103.192Y-87.183
X103.192Y-89.723
X103.192Y-92.263
X103.192Y-94.803
X103.192Y-97.343
X103.192Y-100.663
X103.192Y-103.203
X103.192Y-105.743
X103.192Y-108.283
X103.192Y-110.823
X103.192Y-113.363
X103.192Y-115.903
X103.192Y-118.443
X139.852Y-37.363
X139.852Y-39.903
X139.852Y-42.443
X139.852Y-44.983
X139.852Y-47.523
X139.852Y-50.063
X139.852Y-52.603
X139.852Y-55.143
X139.852Y-58.463
X139.852Y-61.003
X139.852Y-63.543
X139.852Y-66.083
X139.852Y-68.623
X139.852Y-71.163
X139.852Y-73.703
X139.852Y-76.243
X139.852Y-79.563
X139.852Y-82.103
X139.852Y-84.643
X139.852Y-87.183
X139.852Y-89.723
X139.852Y-92.263
X139.852Y-94.803
X139.852Y-97.343
X139.852Y-100.663
X139.852Y-103.203
X139.852Y-105.743
X139.852Y-108.283
X139.852Y-110.823
X139.852Y-113.363
X139.852Y-115.903
X139.852Y-118.443
T3
X65.497Y-37.573
X65.497Y-58.673
X65.497Y-79.773
X65.497Y-100.873
X66.372Y-41.266
X66.372Y-62.366
X66.372Y-83.466
X66.372Y-104.566
X67.247Y-49.003
X67.247Y-70.103
X67.247Y-91.203
X67.247Y-112.303
X68.997Y-37.573
X68.997Y-58.673
X68.997Y-79.773
X68.997Y-100.873
X69.872Y-41.266
X69.872Y-62.366
X69.872Y-83.466
X69.872Y-104.566
X70.747Y-49.003
X70.747Y-70.103
X70.747Y-91.203
X70.747Y-112.303
X72.497Y-37.573
X72.497Y-58.673
X72.497Y-79.773
X72.497Y-100.873
X73.372Y-41.266
X73.372Y-62.366
X73.372Y-83.466
X73.372Y-104.566
X74.247Y-49.003
X74.247Y-70.103
X74.247Y-91.203
X74.247Y-112.303
X75.997Y-37.573
X75.997Y-58.673
X75.997Y-79.773
X75.997Y-100.873
X76.872Y-41.266
X76.872Y-62.366
X76.872Y-83.466
X76.872Y-104.566
X77.747Y-49.003
X77.747Y-70.103
X77.747Y-91.203
X77.747Y-112.303
X79.497Y-37.573
X79.497Y-58.673
X79.497Y-79.773
X79.497Y-100.873
X80.372Y-41.266
X80.372Y-62.366
X80.372Y-83.466
X80.372Y-104.566
X81.247Y-49.003
X81.247Y-70.103
X81.247Y-91.203
X81.247Y-112.303
X82.997Y-37.573
X82.997Y-58.673
X82.997Y-79.773
X82.997Y-100.873
X83.872Y-41.266
X83.872Y-62.366
X83.872Y-83.466
X83.872Y-104.566
X84.747Y-49.003
X84.747Y-70.103
X84.747Y-91.203
X84.747Y-112.303
X86.497Y-37.573
X86.497Y-58.673
X86.497Y-79.773
X86.497Y-100.873
X87.372Y-41.266
X87.372Y-62.366
X87.372Y-83.466
X87.372Y-104.566
X88.247Y-49.003
X88.247Y-70.103
X88.247Y-91.203
X88.247Y-112.303
X89.997Y-37.573
X89.997Y-58.673
X89.997Y-79.773
X89.997Y-100.873
X90.872Y-41.266
X90.872Y-62.366
X90.872Y-83.466
X90.872Y-104.566
X91.747Y-49.003
X91.747Y-70.103
X91.747Y-91.203
X91.747Y-112.303
X108.397Y-37.573
X108.397Y-58.673
X108.397Y-79.773
X108.397Y-100.873
X109.272Y-41.266
X109.272Y-62.366
X109.272Y-83.466
X109.272Y-104.566
X110.147Y-49.003
X110.147Y-70.103
X110.147Y-91.203
X110.147Y-112.303
X111.897Y-37.573
X111.897Y-58.673
X111.897Y-79.773
X111.897Y-100.873
X112.772Y-41.266
X112.772Y-62.366
X112.772Y-83.466
X112.772Y-104.566
X113.647Y-49.003
X113.647Y-70.103
X113.647Y-91.203
X113.647Y-112.303
X115.397Y-37.573
X115.397Y-58.673
X115.397Y-79.773
X115.397Y-100.873
X116.272Y-41.266
X116.272Y-62.366
X116.272Y-83.466
X116.272Y-104.566
X117.147Y-49.003
X117.147Y-70.103
X117.147Y-91.203
X117.147Y-112.303
X118.897Y-37.573
X118.897Y-58.673
X118.897Y-79.773
X118.897Y-100.873
X119.772Y-41.266
X119.772Y-62.366
X119.772Y-83.466
X119.772Y-104.566
X120.647Y-49.003
X120.647Y-70.103
X120.647Y-91.203
X120.647Y-112.303
X122.397Y-37.573
X122.397Y-58.673
X122.397Y-79.773
X122.397Y-100.873
X123.272Y-41.266
X123.272Y-62.366
X123.272Y-83.466
X123.272Y-104.566
X124.147Y-49.003
X124.147Y-70.103
X124.147Y-91.203
X124.147Y-112.303
X125.897Y-37.573
X125.897Y-58.673
X125.897Y-79.773
X125.897Y-100.873
X126.772Y-41.266
X126.772Y-62.366
X126.772Y-83.466
X126.772Y-104.566
X127.647Y-49.003
X127.647Y-70.103
X127.647Y-91.203
X127.647Y-112.303
X129.397Y-37.573
X129.397Y-58.673
X129.397Y-79.773
X129.397Y-100.873
X130.272Y-41.266
X130.272Y-62.366
X130.272Y-83.466
X130.272Y-104.566
X131.147Y-49.003
X131.147Y-70.103
X131.147Y-91.203
X131.147Y-112.303
X132.897Y-37.573
X132.897Y-58.673
X132.897Y-79.773
X132.897Y-100.873
X133.772Y-41.266
X133.772Y-62.366
X133.772Y-83.466
X133.772Y-104.566
X134.647Y-49.003
X134.647Y-70.103
X134.647Y-91.203
X134.647Y-112.303
M30
