M48
; DRILL file {KiCad 7.0.11+dfsg-1build4} date mié 06 may 2026 21:10:50
; FORMAT={-:-/ absolute / metric / decimal}
; #@! TF.CreationDate,2026-05-06T21:10:50-05:00
; #@! TF.GenerationSoftware,Kicad,Pcbnew,7.0.11+dfsg-1build4
; #@! TF.FileFunction,Plated,1,2,PTH
FMAT,2
METRIC
; #@! TA.AperFunction,Plated,PTH,ViaDrill
T1C0.300
; #@! TA.AperFunction,Plated,PTH,ComponentDrill
T2C1.000
; #@! TA.AperFunction,Plated,PTH,ComponentDrill
T3C1.200
%
G90
G05
T1
X60.575Y-50.105
X60.575Y-56.458
X60.575Y-71.205
X60.575Y-77.558
X60.575Y-92.305
X60.575Y-98.658
X60.575Y-113.405
X60.575Y-119.758
X61.845Y-51.4
X61.845Y-57.09
X61.845Y-72.5
X61.845Y-78.19
X61.845Y-93.6
X61.845Y-99.29
X61.845Y-114.7
X61.845Y-120.39
X62.48Y-64.075
X62.48Y-85.175
X62.48Y-106.275
X62.48Y-127.375
X65.02Y-53.915
X65.02Y-75.015
X65.02Y-96.115
X65.02Y-117.215
X66.29Y-53.28
X66.29Y-74.38
X66.29Y-95.48
X66.29Y-116.58
X66.925Y-59.63
X66.925Y-80.73
X66.925Y-101.83
X66.925Y-122.93
X67.56Y-52.01
X67.56Y-73.11
X67.56Y-94.21
X67.56Y-115.31
X70.1Y-55.185
X70.1Y-76.285
X70.1Y-97.385
X70.1Y-118.485
X73.275Y-50.105
X73.275Y-53.915
X73.275Y-64.075
X73.275Y-71.205
X73.275Y-75.015
X73.275Y-85.175
X73.275Y-92.305
X73.275Y-96.115
X73.275Y-106.275
X73.275Y-113.405
X73.275Y-117.215
X73.275Y-127.375
X73.91Y-59.63
X73.91Y-80.73
X73.91Y-101.83
X73.91Y-122.93
X76.45Y-53.915
X76.45Y-75.015
X76.45Y-96.115
X76.45Y-117.215
X79.625Y-50.105
X79.625Y-71.205
X79.625Y-92.305
X79.625Y-113.405
X80.895Y-59.63
X80.895Y-80.73
X80.895Y-101.83
X80.895Y-122.93
X83.435Y-49.47
X83.435Y-50.74
X83.435Y-70.57
X83.435Y-71.84
X83.435Y-91.67
X83.435Y-92.94
X83.435Y-112.77
X83.435Y-114.04
X84.705Y-48.2
X84.705Y-64.075
X84.705Y-69.3
X84.705Y-85.175
X84.705Y-90.4
X84.705Y-106.275
X84.705Y-111.5
X84.705Y-127.375
X86.61Y-52.01
X86.61Y-73.11
X86.61Y-94.21
X86.61Y-115.31
X87.245Y-55.185
X87.245Y-76.285
X87.245Y-97.385
X87.245Y-118.485
X90.42Y-46.93
X90.42Y-68.03
X90.42Y-89.13
X90.42Y-110.23
X91.055Y-54.55
X91.055Y-75.65
X91.055Y-96.75
X91.055Y-117.85
X92.325Y-48.835
X92.325Y-69.935
X92.325Y-91.035
X92.325Y-112.135
X92.96Y-57.09
X92.96Y-78.19
X92.96Y-99.29
X92.96Y-120.39
X93.595Y-52.01
X93.595Y-73.11
X93.595Y-94.21
X93.595Y-115.31
X103.475Y-50.105
X103.475Y-56.458
X103.475Y-71.205
X103.475Y-77.558
X103.475Y-92.305
X103.475Y-98.658
X103.475Y-113.405
X103.475Y-119.758
X104.745Y-51.4
X104.745Y-57.09
X104.745Y-72.5
X104.745Y-78.19
X104.745Y-93.6
X104.745Y-99.29
X104.745Y-114.7
X104.745Y-120.39
X105.38Y-64.075
X105.38Y-85.175
X105.38Y-106.275
X105.38Y-127.375
X107.92Y-53.915
X107.92Y-75.015
X107.92Y-96.115
X107.92Y-117.215
X109.19Y-53.28
X109.19Y-74.38
X109.19Y-95.48
X109.19Y-116.58
X109.825Y-59.63
X109.825Y-80.73
X109.825Y-101.83
X109.825Y-122.93
X110.46Y-52.01
X110.46Y-73.11
X110.46Y-94.21
X110.46Y-115.31
X113.0Y-55.185
X113.0Y-76.285
X113.0Y-97.385
X113.0Y-118.485
X116.175Y-50.105
X116.175Y-53.915
X116.175Y-64.075
X116.175Y-71.205
X116.175Y-75.015
X116.175Y-85.175
X116.175Y-92.305
X116.175Y-96.115
X116.175Y-106.275
X116.175Y-113.405
X116.175Y-117.215
X116.175Y-127.375
X116.81Y-59.63
X116.81Y-80.73
X116.81Y-101.83
X116.81Y-122.93
X119.35Y-53.915
X119.35Y-75.015
X119.35Y-96.115
X119.35Y-117.215
X122.525Y-50.105
X122.525Y-71.205
X122.525Y-92.305
X122.525Y-113.405
X123.795Y-59.63
X123.795Y-80.73
X123.795Y-101.83
X123.795Y-122.93
X126.335Y-49.47
X126.335Y-50.74
X126.335Y-70.57
X126.335Y-71.84
X126.335Y-91.67
X126.335Y-92.94
X126.335Y-112.77
X126.335Y-114.04
X127.605Y-48.2
X127.605Y-64.075
X127.605Y-69.3
X127.605Y-85.175
X127.605Y-90.4
X127.605Y-106.275
X127.605Y-111.5
X127.605Y-127.375
X129.51Y-52.01
X129.51Y-73.11
X129.51Y-94.21
X129.51Y-115.31
X130.145Y-55.185
X130.145Y-76.285
X130.145Y-97.385
X130.145Y-118.485
X133.32Y-46.93
X133.32Y-68.03
X133.32Y-89.13
X133.32Y-110.23
X133.955Y-54.55
X133.955Y-75.65
X133.955Y-96.75
X133.955Y-117.85
X135.225Y-48.835
X135.225Y-69.935
X135.225Y-91.035
X135.225Y-112.135
X135.86Y-57.09
X135.86Y-78.19
X135.86Y-99.29
X135.86Y-120.39
X136.495Y-52.01
X136.495Y-73.11
X136.495Y-94.21
X136.495Y-115.31
T2
X58.035Y-45.72
X58.035Y-48.26
X58.035Y-50.8
X58.035Y-53.34
X58.035Y-55.88
X58.035Y-58.42
X58.035Y-60.96
X58.035Y-63.5
X58.035Y-66.82
X58.035Y-69.36
X58.035Y-71.9
X58.035Y-74.44
X58.035Y-76.98
X58.035Y-79.52
X58.035Y-82.06
X58.035Y-84.6
X58.035Y-87.92
X58.035Y-90.46
X58.035Y-93.0
X58.035Y-95.54
X58.035Y-98.08
X58.035Y-100.62
X58.035Y-103.16
X58.035Y-105.7
X58.035Y-109.02
X58.035Y-111.56
X58.035Y-114.1
X58.035Y-116.64
X58.035Y-119.18
X58.035Y-121.72
X58.035Y-124.26
X58.035Y-126.8
X95.195Y-45.72
X95.195Y-48.26
X95.195Y-50.8
X95.195Y-53.34
X95.195Y-55.88
X95.195Y-58.42
X95.195Y-60.96
X95.195Y-63.5
X95.195Y-66.82
X95.195Y-69.36
X95.195Y-71.9
X95.195Y-74.44
X95.195Y-76.98
X95.195Y-79.52
X95.195Y-82.06
X95.195Y-84.6
X95.195Y-87.92
X95.195Y-90.46
X95.195Y-93.0
X95.195Y-95.54
X95.195Y-98.08
X95.195Y-100.62
X95.195Y-103.16
X95.195Y-105.7
X95.195Y-109.02
X95.195Y-111.56
X95.195Y-114.1
X95.195Y-116.64
X95.195Y-119.18
X95.195Y-121.72
X95.195Y-124.26
X95.195Y-126.8
X100.935Y-45.72
X100.935Y-48.26
X100.935Y-50.8
X100.935Y-53.34
X100.935Y-55.88
X100.935Y-58.42
X100.935Y-60.96
X100.935Y-63.5
X100.935Y-66.82
X100.935Y-69.36
X100.935Y-71.9
X100.935Y-74.44
X100.935Y-76.98
X100.935Y-79.52
X100.935Y-82.06
X100.935Y-84.6
X100.935Y-87.92
X100.935Y-90.46
X100.935Y-93.0
X100.935Y-95.54
X100.935Y-98.08
X100.935Y-100.62
X100.935Y-103.16
X100.935Y-105.7
X100.935Y-109.02
X100.935Y-111.56
X100.935Y-114.1
X100.935Y-116.64
X100.935Y-119.18
X100.935Y-121.72
X100.935Y-124.26
X100.935Y-126.8
X138.095Y-45.72
X138.095Y-48.26
X138.095Y-50.8
X138.095Y-53.34
X138.095Y-55.88
X138.095Y-58.42
X138.095Y-60.96
X138.095Y-63.5
X138.095Y-66.82
X138.095Y-69.36
X138.095Y-71.9
X138.095Y-74.44
X138.095Y-76.98
X138.095Y-79.52
X138.095Y-82.06
X138.095Y-84.6
X138.095Y-87.92
X138.095Y-90.46
X138.095Y-93.0
X138.095Y-95.54
X138.095Y-98.08
X138.095Y-100.62
X138.095Y-103.16
X138.095Y-105.7
X138.095Y-109.02
X138.095Y-111.56
X138.095Y-114.1
X138.095Y-116.64
X138.095Y-119.18
X138.095Y-121.72
X138.095Y-124.26
X138.095Y-126.8
T3
X63.49Y-45.93
X63.49Y-67.03
X63.49Y-88.13
X63.49Y-109.23
X65.24Y-57.36
X65.24Y-78.46
X65.24Y-99.56
X65.24Y-120.66
X66.99Y-45.93
X66.99Y-67.03
X66.99Y-88.13
X66.99Y-109.23
X68.74Y-57.36
X68.74Y-78.46
X68.74Y-99.56
X68.74Y-120.66
X70.49Y-45.93
X70.49Y-67.03
X70.49Y-88.13
X70.49Y-109.23
X72.24Y-57.36
X72.24Y-78.46
X72.24Y-99.56
X72.24Y-120.66
X73.99Y-45.93
X73.99Y-67.03
X73.99Y-88.13
X73.99Y-109.23
X75.74Y-57.36
X75.74Y-78.46
X75.74Y-99.56
X75.74Y-120.66
X77.49Y-45.93
X77.49Y-67.03
X77.49Y-88.13
X77.49Y-109.23
X79.24Y-57.36
X79.24Y-78.46
X79.24Y-99.56
X79.24Y-120.66
X80.99Y-45.93
X80.99Y-67.03
X80.99Y-88.13
X80.99Y-109.23
X82.74Y-57.36
X82.74Y-78.46
X82.74Y-99.56
X82.74Y-120.66
X84.49Y-45.93
X84.49Y-67.03
X84.49Y-88.13
X84.49Y-109.23
X86.24Y-57.36
X86.24Y-78.46
X86.24Y-99.56
X86.24Y-120.66
X87.99Y-45.93
X87.99Y-67.03
X87.99Y-88.13
X87.99Y-109.23
X89.74Y-57.36
X89.74Y-78.46
X89.74Y-99.56
X89.74Y-120.66
X106.39Y-45.93
X106.39Y-67.03
X106.39Y-88.13
X106.39Y-109.23
X108.14Y-57.36
X108.14Y-78.46
X108.14Y-99.56
X108.14Y-120.66
X109.89Y-45.93
X109.89Y-67.03
X109.89Y-88.13
X109.89Y-109.23
X111.64Y-57.36
X111.64Y-78.46
X111.64Y-99.56
X111.64Y-120.66
X113.39Y-45.93
X113.39Y-67.03
X113.39Y-88.13
X113.39Y-109.23
X115.14Y-57.36
X115.14Y-78.46
X115.14Y-99.56
X115.14Y-120.66
X116.89Y-45.93
X116.89Y-67.03
X116.89Y-88.13
X116.89Y-109.23
X118.64Y-57.36
X118.64Y-78.46
X118.64Y-99.56
X118.64Y-120.66
X120.39Y-45.93
X120.39Y-67.03
X120.39Y-88.13
X120.39Y-109.23
X122.14Y-57.36
X122.14Y-78.46
X122.14Y-99.56
X122.14Y-120.66
X123.89Y-45.93
X123.89Y-67.03
X123.89Y-88.13
X123.89Y-109.23
X125.64Y-57.36
X125.64Y-78.46
X125.64Y-99.56
X125.64Y-120.66
X127.39Y-45.93
X127.39Y-67.03
X127.39Y-88.13
X127.39Y-109.23
X129.14Y-57.36
X129.14Y-78.46
X129.14Y-99.56
X129.14Y-120.66
X130.89Y-45.93
X130.89Y-67.03
X130.89Y-88.13
X130.89Y-109.23
X132.64Y-57.36
X132.64Y-78.46
X132.64Y-99.56
X132.64Y-120.66
M30
