%TF.GenerationSoftware,KiCad,Pcbnew,7.0.11+dfsg-1build4*%
%TF.CreationDate,2026-05-06T20:51:08-05:00*%
%TF.ProjectId,panel-mount-oled-display-connector-board,70616e65-6c2d-46d6-9f75-6e742d6f6c65,rev?*%
%TF.SameCoordinates,Original*%
%TF.FileFunction,Legend,Top*%
%TF.FilePolarity,Positive*%
%FSLAX46Y46*%
G04 Gerber Fmt 4.6, Leading zero omitted, Abs format (unit mm)*
G04 Created by KiCad (PCBNEW 7.0.11+dfsg-1build4) date 2026-05-06 20:51:08*
%MOMM*%
%LPD*%
G01*
G04 APERTURE LIST*
%ADD10C,0.150000*%
%ADD11C,0.120000*%
G04 APERTURE END LIST*
D10*
X131351533Y-120734649D02*
X130651533Y-120734649D01*
X130651533Y-120734649D02*
X130651533Y-120567982D01*
X130651533Y-120567982D02*
X130684866Y-120467982D01*
X130684866Y-120467982D02*
X130751533Y-120401316D01*
X130751533Y-120401316D02*
X130818200Y-120367982D01*
X130818200Y-120367982D02*
X130951533Y-120334649D01*
X130951533Y-120334649D02*
X131051533Y-120334649D01*
X131051533Y-120334649D02*
X131184866Y-120367982D01*
X131184866Y-120367982D02*
X131251533Y-120401316D01*
X131251533Y-120401316D02*
X131318200Y-120467982D01*
X131318200Y-120467982D02*
X131351533Y-120567982D01*
X131351533Y-120567982D02*
X131351533Y-120734649D01*
X130718200Y-120067982D02*
X130684866Y-120034649D01*
X130684866Y-120034649D02*
X130651533Y-119967982D01*
X130651533Y-119967982D02*
X130651533Y-119801316D01*
X130651533Y-119801316D02*
X130684866Y-119734649D01*
X130684866Y-119734649D02*
X130718200Y-119701316D01*
X130718200Y-119701316D02*
X130784866Y-119667982D01*
X130784866Y-119667982D02*
X130851533Y-119667982D01*
X130851533Y-119667982D02*
X130951533Y-119701316D01*
X130951533Y-119701316D02*
X131351533Y-120101316D01*
X131351533Y-120101316D02*
X131351533Y-119667982D01*
X131351533Y-119367982D02*
X130651533Y-119367982D01*
X131351533Y-118967982D02*
X130951533Y-119267982D01*
X130651533Y-118967982D02*
X131051533Y-119367982D01*
X122773200Y-119267982D02*
X122806533Y-119167982D01*
X122806533Y-119167982D02*
X122806533Y-119001316D01*
X122806533Y-119001316D02*
X122773200Y-118934649D01*
X122773200Y-118934649D02*
X122739866Y-118901316D01*
X122739866Y-118901316D02*
X122673200Y-118867982D01*
X122673200Y-118867982D02*
X122606533Y-118867982D01*
X122606533Y-118867982D02*
X122539866Y-118901316D01*
X122539866Y-118901316D02*
X122506533Y-118934649D01*
X122506533Y-118934649D02*
X122473200Y-119001316D01*
X122473200Y-119001316D02*
X122439866Y-119134649D01*
X122439866Y-119134649D02*
X122406533Y-119201316D01*
X122406533Y-119201316D02*
X122373200Y-119234649D01*
X122373200Y-119234649D02*
X122306533Y-119267982D01*
X122306533Y-119267982D02*
X122239866Y-119267982D01*
X122239866Y-119267982D02*
X122173200Y-119234649D01*
X122173200Y-119234649D02*
X122139866Y-119201316D01*
X122139866Y-119201316D02*
X122106533Y-119134649D01*
X122106533Y-119134649D02*
X122106533Y-118967982D01*
X122106533Y-118967982D02*
X122139866Y-118867982D01*
X122806533Y-118567982D02*
X122106533Y-118567982D01*
X122106533Y-118567982D02*
X122106533Y-118401315D01*
X122106533Y-118401315D02*
X122139866Y-118301315D01*
X122139866Y-118301315D02*
X122206533Y-118234649D01*
X122206533Y-118234649D02*
X122273200Y-118201315D01*
X122273200Y-118201315D02*
X122406533Y-118167982D01*
X122406533Y-118167982D02*
X122506533Y-118167982D01*
X122506533Y-118167982D02*
X122639866Y-118201315D01*
X122639866Y-118201315D02*
X122706533Y-118234649D01*
X122706533Y-118234649D02*
X122773200Y-118301315D01*
X122773200Y-118301315D02*
X122806533Y-118401315D01*
X122806533Y-118401315D02*
X122806533Y-118567982D01*
X122606533Y-117901315D02*
X122606533Y-117567982D01*
X122806533Y-117967982D02*
X122106533Y-117734649D01*
X122106533Y-117734649D02*
X122806533Y-117501315D01*
X110396533Y-120734649D02*
X109696533Y-120734649D01*
X109696533Y-120734649D02*
X109696533Y-120567982D01*
X109696533Y-120567982D02*
X109729866Y-120467982D01*
X109729866Y-120467982D02*
X109796533Y-120401316D01*
X109796533Y-120401316D02*
X109863200Y-120367982D01*
X109863200Y-120367982D02*
X109996533Y-120334649D01*
X109996533Y-120334649D02*
X110096533Y-120334649D01*
X110096533Y-120334649D02*
X110229866Y-120367982D01*
X110229866Y-120367982D02*
X110296533Y-120401316D01*
X110296533Y-120401316D02*
X110363200Y-120467982D01*
X110363200Y-120467982D02*
X110396533Y-120567982D01*
X110396533Y-120567982D02*
X110396533Y-120734649D01*
X109696533Y-119734649D02*
X109696533Y-119867982D01*
X109696533Y-119867982D02*
X109729866Y-119934649D01*
X109729866Y-119934649D02*
X109763200Y-119967982D01*
X109763200Y-119967982D02*
X109863200Y-120034649D01*
X109863200Y-120034649D02*
X109996533Y-120067982D01*
X109996533Y-120067982D02*
X110263200Y-120067982D01*
X110263200Y-120067982D02*
X110329866Y-120034649D01*
X110329866Y-120034649D02*
X110363200Y-120001316D01*
X110363200Y-120001316D02*
X110396533Y-119934649D01*
X110396533Y-119934649D02*
X110396533Y-119801316D01*
X110396533Y-119801316D02*
X110363200Y-119734649D01*
X110363200Y-119734649D02*
X110329866Y-119701316D01*
X110329866Y-119701316D02*
X110263200Y-119667982D01*
X110263200Y-119667982D02*
X110096533Y-119667982D01*
X110096533Y-119667982D02*
X110029866Y-119701316D01*
X110029866Y-119701316D02*
X109996533Y-119734649D01*
X109996533Y-119734649D02*
X109963200Y-119801316D01*
X109963200Y-119801316D02*
X109963200Y-119934649D01*
X109963200Y-119934649D02*
X109996533Y-120001316D01*
X109996533Y-120001316D02*
X110029866Y-120034649D01*
X110029866Y-120034649D02*
X110096533Y-120067982D01*
X110396533Y-119367982D02*
X109696533Y-119367982D01*
X110396533Y-118967982D02*
X109996533Y-119267982D01*
X109696533Y-118967982D02*
X110096533Y-119367982D01*
X133256533Y-119234649D02*
X132556533Y-119234649D01*
X132556533Y-119234649D02*
X132556533Y-119067982D01*
X132556533Y-119067982D02*
X132589866Y-118967982D01*
X132589866Y-118967982D02*
X132656533Y-118901316D01*
X132656533Y-118901316D02*
X132723200Y-118867982D01*
X132723200Y-118867982D02*
X132856533Y-118834649D01*
X132856533Y-118834649D02*
X132956533Y-118834649D01*
X132956533Y-118834649D02*
X133089866Y-118867982D01*
X133089866Y-118867982D02*
X133156533Y-118901316D01*
X133156533Y-118901316D02*
X133223200Y-118967982D01*
X133223200Y-118967982D02*
X133256533Y-119067982D01*
X133256533Y-119067982D02*
X133256533Y-119234649D01*
X133256533Y-118167982D02*
X133256533Y-118567982D01*
X133256533Y-118367982D02*
X132556533Y-118367982D01*
X132556533Y-118367982D02*
X132656533Y-118434649D01*
X132656533Y-118434649D02*
X132723200Y-118501316D01*
X132723200Y-118501316D02*
X132756533Y-118567982D01*
X133056533Y-117901315D02*
X133056533Y-117567982D01*
X133256533Y-117967982D02*
X132556533Y-117734649D01*
X132556533Y-117734649D02*
X133256533Y-117501315D01*
X135161533Y-120734649D02*
X134461533Y-120734649D01*
X134461533Y-120734649D02*
X134461533Y-120567982D01*
X134461533Y-120567982D02*
X134494866Y-120467982D01*
X134494866Y-120467982D02*
X134561533Y-120401316D01*
X134561533Y-120401316D02*
X134628200Y-120367982D01*
X134628200Y-120367982D02*
X134761533Y-120334649D01*
X134761533Y-120334649D02*
X134861533Y-120334649D01*
X134861533Y-120334649D02*
X134994866Y-120367982D01*
X134994866Y-120367982D02*
X135061533Y-120401316D01*
X135061533Y-120401316D02*
X135128200Y-120467982D01*
X135128200Y-120467982D02*
X135161533Y-120567982D01*
X135161533Y-120567982D02*
X135161533Y-120734649D01*
X135161533Y-119667982D02*
X135161533Y-120067982D01*
X135161533Y-119867982D02*
X134461533Y-119867982D01*
X134461533Y-119867982D02*
X134561533Y-119934649D01*
X134561533Y-119934649D02*
X134628200Y-120001316D01*
X134628200Y-120001316D02*
X134661533Y-120067982D01*
X135161533Y-119367982D02*
X134461533Y-119367982D01*
X135161533Y-118967982D02*
X134761533Y-119267982D01*
X134461533Y-118967982D02*
X134861533Y-119367982D01*
X117381533Y-120734649D02*
X116681533Y-120734649D01*
X116681533Y-120734649D02*
X116681533Y-120567982D01*
X116681533Y-120567982D02*
X116714866Y-120467982D01*
X116714866Y-120467982D02*
X116781533Y-120401316D01*
X116781533Y-120401316D02*
X116848200Y-120367982D01*
X116848200Y-120367982D02*
X116981533Y-120334649D01*
X116981533Y-120334649D02*
X117081533Y-120334649D01*
X117081533Y-120334649D02*
X117214866Y-120367982D01*
X117214866Y-120367982D02*
X117281533Y-120401316D01*
X117281533Y-120401316D02*
X117348200Y-120467982D01*
X117348200Y-120467982D02*
X117381533Y-120567982D01*
X117381533Y-120567982D02*
X117381533Y-120734649D01*
X116914866Y-119734649D02*
X117381533Y-119734649D01*
X116648200Y-119901316D02*
X117148200Y-120067982D01*
X117148200Y-120067982D02*
X117148200Y-119634649D01*
X117381533Y-119367982D02*
X116681533Y-119367982D01*
X117381533Y-118967982D02*
X116981533Y-119267982D01*
X116681533Y-118967982D02*
X117081533Y-119367982D01*
X119253200Y-119267982D02*
X119286533Y-119167982D01*
X119286533Y-119167982D02*
X119286533Y-119001316D01*
X119286533Y-119001316D02*
X119253200Y-118934649D01*
X119253200Y-118934649D02*
X119219866Y-118901316D01*
X119219866Y-118901316D02*
X119153200Y-118867982D01*
X119153200Y-118867982D02*
X119086533Y-118867982D01*
X119086533Y-118867982D02*
X119019866Y-118901316D01*
X119019866Y-118901316D02*
X118986533Y-118934649D01*
X118986533Y-118934649D02*
X118953200Y-119001316D01*
X118953200Y-119001316D02*
X118919866Y-119134649D01*
X118919866Y-119134649D02*
X118886533Y-119201316D01*
X118886533Y-119201316D02*
X118853200Y-119234649D01*
X118853200Y-119234649D02*
X118786533Y-119267982D01*
X118786533Y-119267982D02*
X118719866Y-119267982D01*
X118719866Y-119267982D02*
X118653200Y-119234649D01*
X118653200Y-119234649D02*
X118619866Y-119201316D01*
X118619866Y-119201316D02*
X118586533Y-119134649D01*
X118586533Y-119134649D02*
X118586533Y-118967982D01*
X118586533Y-118967982D02*
X118619866Y-118867982D01*
X119219866Y-118167982D02*
X119253200Y-118201315D01*
X119253200Y-118201315D02*
X119286533Y-118301315D01*
X119286533Y-118301315D02*
X119286533Y-118367982D01*
X119286533Y-118367982D02*
X119253200Y-118467982D01*
X119253200Y-118467982D02*
X119186533Y-118534649D01*
X119186533Y-118534649D02*
X119119866Y-118567982D01*
X119119866Y-118567982D02*
X118986533Y-118601315D01*
X118986533Y-118601315D02*
X118886533Y-118601315D01*
X118886533Y-118601315D02*
X118753200Y-118567982D01*
X118753200Y-118567982D02*
X118686533Y-118534649D01*
X118686533Y-118534649D02*
X118619866Y-118467982D01*
X118619866Y-118467982D02*
X118586533Y-118367982D01*
X118586533Y-118367982D02*
X118586533Y-118301315D01*
X118586533Y-118301315D02*
X118619866Y-118201315D01*
X118619866Y-118201315D02*
X118653200Y-118167982D01*
X119286533Y-117534649D02*
X119286533Y-117867982D01*
X119286533Y-117867982D02*
X118586533Y-117867982D01*
X111666533Y-119234649D02*
X110966533Y-119234649D01*
X110966533Y-119234649D02*
X110966533Y-119067982D01*
X110966533Y-119067982D02*
X110999866Y-118967982D01*
X110999866Y-118967982D02*
X111066533Y-118901316D01*
X111066533Y-118901316D02*
X111133200Y-118867982D01*
X111133200Y-118867982D02*
X111266533Y-118834649D01*
X111266533Y-118834649D02*
X111366533Y-118834649D01*
X111366533Y-118834649D02*
X111499866Y-118867982D01*
X111499866Y-118867982D02*
X111566533Y-118901316D01*
X111566533Y-118901316D02*
X111633200Y-118967982D01*
X111633200Y-118967982D02*
X111666533Y-119067982D01*
X111666533Y-119067982D02*
X111666533Y-119234649D01*
X110966533Y-118201316D02*
X110966533Y-118534649D01*
X110966533Y-118534649D02*
X111299866Y-118567982D01*
X111299866Y-118567982D02*
X111266533Y-118534649D01*
X111266533Y-118534649D02*
X111233200Y-118467982D01*
X111233200Y-118467982D02*
X111233200Y-118301316D01*
X111233200Y-118301316D02*
X111266533Y-118234649D01*
X111266533Y-118234649D02*
X111299866Y-118201316D01*
X111299866Y-118201316D02*
X111366533Y-118167982D01*
X111366533Y-118167982D02*
X111533200Y-118167982D01*
X111533200Y-118167982D02*
X111599866Y-118201316D01*
X111599866Y-118201316D02*
X111633200Y-118234649D01*
X111633200Y-118234649D02*
X111666533Y-118301316D01*
X111666533Y-118301316D02*
X111666533Y-118467982D01*
X111666533Y-118467982D02*
X111633200Y-118534649D01*
X111633200Y-118534649D02*
X111599866Y-118567982D01*
X111466533Y-117901315D02*
X111466533Y-117567982D01*
X111666533Y-117967982D02*
X110966533Y-117734649D01*
X110966533Y-117734649D02*
X111666533Y-117501315D01*
X128176533Y-120734649D02*
X127476533Y-120734649D01*
X127476533Y-120734649D02*
X127476533Y-120567982D01*
X127476533Y-120567982D02*
X127509866Y-120467982D01*
X127509866Y-120467982D02*
X127576533Y-120401316D01*
X127576533Y-120401316D02*
X127643200Y-120367982D01*
X127643200Y-120367982D02*
X127776533Y-120334649D01*
X127776533Y-120334649D02*
X127876533Y-120334649D01*
X127876533Y-120334649D02*
X128009866Y-120367982D01*
X128009866Y-120367982D02*
X128076533Y-120401316D01*
X128076533Y-120401316D02*
X128143200Y-120467982D01*
X128143200Y-120467982D02*
X128176533Y-120567982D01*
X128176533Y-120567982D02*
X128176533Y-120734649D01*
X127476533Y-120101316D02*
X127476533Y-119667982D01*
X127476533Y-119667982D02*
X127743200Y-119901316D01*
X127743200Y-119901316D02*
X127743200Y-119801316D01*
X127743200Y-119801316D02*
X127776533Y-119734649D01*
X127776533Y-119734649D02*
X127809866Y-119701316D01*
X127809866Y-119701316D02*
X127876533Y-119667982D01*
X127876533Y-119667982D02*
X128043200Y-119667982D01*
X128043200Y-119667982D02*
X128109866Y-119701316D01*
X128109866Y-119701316D02*
X128143200Y-119734649D01*
X128143200Y-119734649D02*
X128176533Y-119801316D01*
X128176533Y-119801316D02*
X128176533Y-120001316D01*
X128176533Y-120001316D02*
X128143200Y-120067982D01*
X128143200Y-120067982D02*
X128109866Y-120101316D01*
X128176533Y-119367982D02*
X127476533Y-119367982D01*
X128176533Y-118967982D02*
X127776533Y-119267982D01*
X127476533Y-118967982D02*
X127876533Y-119367982D01*
X115476533Y-119234649D02*
X114776533Y-119234649D01*
X114776533Y-119234649D02*
X114776533Y-119067982D01*
X114776533Y-119067982D02*
X114809866Y-118967982D01*
X114809866Y-118967982D02*
X114876533Y-118901316D01*
X114876533Y-118901316D02*
X114943200Y-118867982D01*
X114943200Y-118867982D02*
X115076533Y-118834649D01*
X115076533Y-118834649D02*
X115176533Y-118834649D01*
X115176533Y-118834649D02*
X115309866Y-118867982D01*
X115309866Y-118867982D02*
X115376533Y-118901316D01*
X115376533Y-118901316D02*
X115443200Y-118967982D01*
X115443200Y-118967982D02*
X115476533Y-119067982D01*
X115476533Y-119067982D02*
X115476533Y-119234649D01*
X115009866Y-118234649D02*
X115476533Y-118234649D01*
X114743200Y-118401316D02*
X115243200Y-118567982D01*
X115243200Y-118567982D02*
X115243200Y-118134649D01*
X115276533Y-117901315D02*
X115276533Y-117567982D01*
X115476533Y-117967982D02*
X114776533Y-117734649D01*
X114776533Y-117734649D02*
X115476533Y-117501315D01*
X108491533Y-119234649D02*
X107791533Y-119234649D01*
X107791533Y-119234649D02*
X107791533Y-119067982D01*
X107791533Y-119067982D02*
X107824866Y-118967982D01*
X107824866Y-118967982D02*
X107891533Y-118901316D01*
X107891533Y-118901316D02*
X107958200Y-118867982D01*
X107958200Y-118867982D02*
X108091533Y-118834649D01*
X108091533Y-118834649D02*
X108191533Y-118834649D01*
X108191533Y-118834649D02*
X108324866Y-118867982D01*
X108324866Y-118867982D02*
X108391533Y-118901316D01*
X108391533Y-118901316D02*
X108458200Y-118967982D01*
X108458200Y-118967982D02*
X108491533Y-119067982D01*
X108491533Y-119067982D02*
X108491533Y-119234649D01*
X107791533Y-118234649D02*
X107791533Y-118367982D01*
X107791533Y-118367982D02*
X107824866Y-118434649D01*
X107824866Y-118434649D02*
X107858200Y-118467982D01*
X107858200Y-118467982D02*
X107958200Y-118534649D01*
X107958200Y-118534649D02*
X108091533Y-118567982D01*
X108091533Y-118567982D02*
X108358200Y-118567982D01*
X108358200Y-118567982D02*
X108424866Y-118534649D01*
X108424866Y-118534649D02*
X108458200Y-118501316D01*
X108458200Y-118501316D02*
X108491533Y-118434649D01*
X108491533Y-118434649D02*
X108491533Y-118301316D01*
X108491533Y-118301316D02*
X108458200Y-118234649D01*
X108458200Y-118234649D02*
X108424866Y-118201316D01*
X108424866Y-118201316D02*
X108358200Y-118167982D01*
X108358200Y-118167982D02*
X108191533Y-118167982D01*
X108191533Y-118167982D02*
X108124866Y-118201316D01*
X108124866Y-118201316D02*
X108091533Y-118234649D01*
X108091533Y-118234649D02*
X108058200Y-118301316D01*
X108058200Y-118301316D02*
X108058200Y-118434649D01*
X108058200Y-118434649D02*
X108091533Y-118501316D01*
X108091533Y-118501316D02*
X108124866Y-118534649D01*
X108124866Y-118534649D02*
X108191533Y-118567982D01*
X108291533Y-117901315D02*
X108291533Y-117567982D01*
X108491533Y-117967982D02*
X107791533Y-117734649D01*
X107791533Y-117734649D02*
X108491533Y-117501315D01*
X123699866Y-120367982D02*
X123666533Y-120434649D01*
X123666533Y-120434649D02*
X123666533Y-120534649D01*
X123666533Y-120534649D02*
X123699866Y-120634649D01*
X123699866Y-120634649D02*
X123766533Y-120701316D01*
X123766533Y-120701316D02*
X123833200Y-120734649D01*
X123833200Y-120734649D02*
X123966533Y-120767982D01*
X123966533Y-120767982D02*
X124066533Y-120767982D01*
X124066533Y-120767982D02*
X124199866Y-120734649D01*
X124199866Y-120734649D02*
X124266533Y-120701316D01*
X124266533Y-120701316D02*
X124333200Y-120634649D01*
X124333200Y-120634649D02*
X124366533Y-120534649D01*
X124366533Y-120534649D02*
X124366533Y-120467982D01*
X124366533Y-120467982D02*
X124333200Y-120367982D01*
X124333200Y-120367982D02*
X124299866Y-120334649D01*
X124299866Y-120334649D02*
X124066533Y-120334649D01*
X124066533Y-120334649D02*
X124066533Y-120467982D01*
X124366533Y-120034649D02*
X123666533Y-120034649D01*
X123666533Y-120034649D02*
X124366533Y-119634649D01*
X124366533Y-119634649D02*
X123666533Y-119634649D01*
X124366533Y-119301316D02*
X123666533Y-119301316D01*
X123666533Y-119301316D02*
X123666533Y-119134649D01*
X123666533Y-119134649D02*
X123699866Y-119034649D01*
X123699866Y-119034649D02*
X123766533Y-118967983D01*
X123766533Y-118967983D02*
X123833200Y-118934649D01*
X123833200Y-118934649D02*
X123966533Y-118901316D01*
X123966533Y-118901316D02*
X124066533Y-118901316D01*
X124066533Y-118901316D02*
X124199866Y-118934649D01*
X124199866Y-118934649D02*
X124266533Y-118967983D01*
X124266533Y-118967983D02*
X124333200Y-119034649D01*
X124333200Y-119034649D02*
X124366533Y-119134649D01*
X124366533Y-119134649D02*
X124366533Y-119301316D01*
X113571533Y-120734649D02*
X112871533Y-120734649D01*
X112871533Y-120734649D02*
X112871533Y-120567982D01*
X112871533Y-120567982D02*
X112904866Y-120467982D01*
X112904866Y-120467982D02*
X112971533Y-120401316D01*
X112971533Y-120401316D02*
X113038200Y-120367982D01*
X113038200Y-120367982D02*
X113171533Y-120334649D01*
X113171533Y-120334649D02*
X113271533Y-120334649D01*
X113271533Y-120334649D02*
X113404866Y-120367982D01*
X113404866Y-120367982D02*
X113471533Y-120401316D01*
X113471533Y-120401316D02*
X113538200Y-120467982D01*
X113538200Y-120467982D02*
X113571533Y-120567982D01*
X113571533Y-120567982D02*
X113571533Y-120734649D01*
X112871533Y-119701316D02*
X112871533Y-120034649D01*
X112871533Y-120034649D02*
X113204866Y-120067982D01*
X113204866Y-120067982D02*
X113171533Y-120034649D01*
X113171533Y-120034649D02*
X113138200Y-119967982D01*
X113138200Y-119967982D02*
X113138200Y-119801316D01*
X113138200Y-119801316D02*
X113171533Y-119734649D01*
X113171533Y-119734649D02*
X113204866Y-119701316D01*
X113204866Y-119701316D02*
X113271533Y-119667982D01*
X113271533Y-119667982D02*
X113438200Y-119667982D01*
X113438200Y-119667982D02*
X113504866Y-119701316D01*
X113504866Y-119701316D02*
X113538200Y-119734649D01*
X113538200Y-119734649D02*
X113571533Y-119801316D01*
X113571533Y-119801316D02*
X113571533Y-119967982D01*
X113571533Y-119967982D02*
X113538200Y-120034649D01*
X113538200Y-120034649D02*
X113504866Y-120067982D01*
X113571533Y-119367982D02*
X112871533Y-119367982D01*
X113571533Y-118967982D02*
X113171533Y-119267982D01*
X112871533Y-118967982D02*
X113271533Y-119367982D01*
X105556533Y-120384649D02*
X104856533Y-120384649D01*
X104856533Y-120384649D02*
X104856533Y-120117982D01*
X104856533Y-120117982D02*
X104889866Y-120051316D01*
X104889866Y-120051316D02*
X104923200Y-120017982D01*
X104923200Y-120017982D02*
X104989866Y-119984649D01*
X104989866Y-119984649D02*
X105089866Y-119984649D01*
X105089866Y-119984649D02*
X105156533Y-120017982D01*
X105156533Y-120017982D02*
X105189866Y-120051316D01*
X105189866Y-120051316D02*
X105223200Y-120117982D01*
X105223200Y-120117982D02*
X105223200Y-120384649D01*
X105356533Y-119717982D02*
X105356533Y-119384649D01*
X105556533Y-119784649D02*
X104856533Y-119551316D01*
X104856533Y-119551316D02*
X105556533Y-119317982D01*
X105556533Y-119084649D02*
X104856533Y-119084649D01*
X104856533Y-119084649D02*
X105556533Y-118684649D01*
X105556533Y-118684649D02*
X104856533Y-118684649D01*
X105189866Y-118351316D02*
X105189866Y-118117983D01*
X105556533Y-118017983D02*
X105556533Y-118351316D01*
X105556533Y-118351316D02*
X104856533Y-118351316D01*
X104856533Y-118351316D02*
X104856533Y-118017983D01*
X105556533Y-117384650D02*
X105556533Y-117717983D01*
X105556533Y-117717983D02*
X104856533Y-117717983D01*
X105289866Y-117151316D02*
X105289866Y-116617983D01*
X105556533Y-116284649D02*
X104856533Y-116284649D01*
X104856533Y-116284649D02*
X105356533Y-116051316D01*
X105356533Y-116051316D02*
X104856533Y-115817982D01*
X104856533Y-115817982D02*
X105556533Y-115817982D01*
X104856533Y-115351316D02*
X104856533Y-115217982D01*
X104856533Y-115217982D02*
X104889866Y-115151316D01*
X104889866Y-115151316D02*
X104956533Y-115084649D01*
X104956533Y-115084649D02*
X105089866Y-115051316D01*
X105089866Y-115051316D02*
X105323200Y-115051316D01*
X105323200Y-115051316D02*
X105456533Y-115084649D01*
X105456533Y-115084649D02*
X105523200Y-115151316D01*
X105523200Y-115151316D02*
X105556533Y-115217982D01*
X105556533Y-115217982D02*
X105556533Y-115351316D01*
X105556533Y-115351316D02*
X105523200Y-115417982D01*
X105523200Y-115417982D02*
X105456533Y-115484649D01*
X105456533Y-115484649D02*
X105323200Y-115517982D01*
X105323200Y-115517982D02*
X105089866Y-115517982D01*
X105089866Y-115517982D02*
X104956533Y-115484649D01*
X104956533Y-115484649D02*
X104889866Y-115417982D01*
X104889866Y-115417982D02*
X104856533Y-115351316D01*
X104856533Y-114751316D02*
X105423200Y-114751316D01*
X105423200Y-114751316D02*
X105489866Y-114717983D01*
X105489866Y-114717983D02*
X105523200Y-114684649D01*
X105523200Y-114684649D02*
X105556533Y-114617983D01*
X105556533Y-114617983D02*
X105556533Y-114484649D01*
X105556533Y-114484649D02*
X105523200Y-114417983D01*
X105523200Y-114417983D02*
X105489866Y-114384649D01*
X105489866Y-114384649D02*
X105423200Y-114351316D01*
X105423200Y-114351316D02*
X104856533Y-114351316D01*
X105556533Y-114017983D02*
X104856533Y-114017983D01*
X104856533Y-114017983D02*
X105556533Y-113617983D01*
X105556533Y-113617983D02*
X104856533Y-113617983D01*
X104856533Y-113384650D02*
X104856533Y-112984650D01*
X105556533Y-113184650D02*
X104856533Y-113184650D01*
X105289866Y-112751317D02*
X105289866Y-112217984D01*
X104856533Y-111751317D02*
X104856533Y-111617983D01*
X104856533Y-111617983D02*
X104889866Y-111551317D01*
X104889866Y-111551317D02*
X104956533Y-111484650D01*
X104956533Y-111484650D02*
X105089866Y-111451317D01*
X105089866Y-111451317D02*
X105323200Y-111451317D01*
X105323200Y-111451317D02*
X105456533Y-111484650D01*
X105456533Y-111484650D02*
X105523200Y-111551317D01*
X105523200Y-111551317D02*
X105556533Y-111617983D01*
X105556533Y-111617983D02*
X105556533Y-111751317D01*
X105556533Y-111751317D02*
X105523200Y-111817983D01*
X105523200Y-111817983D02*
X105456533Y-111884650D01*
X105456533Y-111884650D02*
X105323200Y-111917983D01*
X105323200Y-111917983D02*
X105089866Y-111917983D01*
X105089866Y-111917983D02*
X104956533Y-111884650D01*
X104956533Y-111884650D02*
X104889866Y-111817983D01*
X104889866Y-111817983D02*
X104856533Y-111751317D01*
X105556533Y-110817984D02*
X105556533Y-111151317D01*
X105556533Y-111151317D02*
X104856533Y-111151317D01*
X105189866Y-110584650D02*
X105189866Y-110351317D01*
X105556533Y-110251317D02*
X105556533Y-110584650D01*
X105556533Y-110584650D02*
X104856533Y-110584650D01*
X104856533Y-110584650D02*
X104856533Y-110251317D01*
X105556533Y-109951317D02*
X104856533Y-109951317D01*
X104856533Y-109951317D02*
X104856533Y-109784650D01*
X104856533Y-109784650D02*
X104889866Y-109684650D01*
X104889866Y-109684650D02*
X104956533Y-109617984D01*
X104956533Y-109617984D02*
X105023200Y-109584650D01*
X105023200Y-109584650D02*
X105156533Y-109551317D01*
X105156533Y-109551317D02*
X105256533Y-109551317D01*
X105256533Y-109551317D02*
X105389866Y-109584650D01*
X105389866Y-109584650D02*
X105456533Y-109617984D01*
X105456533Y-109617984D02*
X105523200Y-109684650D01*
X105523200Y-109684650D02*
X105556533Y-109784650D01*
X105556533Y-109784650D02*
X105556533Y-109951317D01*
X120206533Y-120834649D02*
X120906533Y-120601316D01*
X120906533Y-120601316D02*
X120206533Y-120367982D01*
X120839866Y-119734649D02*
X120873200Y-119767982D01*
X120873200Y-119767982D02*
X120906533Y-119867982D01*
X120906533Y-119867982D02*
X120906533Y-119934649D01*
X120906533Y-119934649D02*
X120873200Y-120034649D01*
X120873200Y-120034649D02*
X120806533Y-120101316D01*
X120806533Y-120101316D02*
X120739866Y-120134649D01*
X120739866Y-120134649D02*
X120606533Y-120167982D01*
X120606533Y-120167982D02*
X120506533Y-120167982D01*
X120506533Y-120167982D02*
X120373200Y-120134649D01*
X120373200Y-120134649D02*
X120306533Y-120101316D01*
X120306533Y-120101316D02*
X120239866Y-120034649D01*
X120239866Y-120034649D02*
X120206533Y-119934649D01*
X120206533Y-119934649D02*
X120206533Y-119867982D01*
X120206533Y-119867982D02*
X120239866Y-119767982D01*
X120239866Y-119767982D02*
X120273200Y-119734649D01*
X120839866Y-119034649D02*
X120873200Y-119067982D01*
X120873200Y-119067982D02*
X120906533Y-119167982D01*
X120906533Y-119167982D02*
X120906533Y-119234649D01*
X120906533Y-119234649D02*
X120873200Y-119334649D01*
X120873200Y-119334649D02*
X120806533Y-119401316D01*
X120806533Y-119401316D02*
X120739866Y-119434649D01*
X120739866Y-119434649D02*
X120606533Y-119467982D01*
X120606533Y-119467982D02*
X120506533Y-119467982D01*
X120506533Y-119467982D02*
X120373200Y-119434649D01*
X120373200Y-119434649D02*
X120306533Y-119401316D01*
X120306533Y-119401316D02*
X120239866Y-119334649D01*
X120239866Y-119334649D02*
X120206533Y-119234649D01*
X120206533Y-119234649D02*
X120206533Y-119167982D01*
X120206533Y-119167982D02*
X120239866Y-119067982D01*
X120239866Y-119067982D02*
X120273200Y-119034649D01*
X126271533Y-119234649D02*
X125571533Y-119234649D01*
X125571533Y-119234649D02*
X125571533Y-119067982D01*
X125571533Y-119067982D02*
X125604866Y-118967982D01*
X125604866Y-118967982D02*
X125671533Y-118901316D01*
X125671533Y-118901316D02*
X125738200Y-118867982D01*
X125738200Y-118867982D02*
X125871533Y-118834649D01*
X125871533Y-118834649D02*
X125971533Y-118834649D01*
X125971533Y-118834649D02*
X126104866Y-118867982D01*
X126104866Y-118867982D02*
X126171533Y-118901316D01*
X126171533Y-118901316D02*
X126238200Y-118967982D01*
X126238200Y-118967982D02*
X126271533Y-119067982D01*
X126271533Y-119067982D02*
X126271533Y-119234649D01*
X125571533Y-118601316D02*
X125571533Y-118167982D01*
X125571533Y-118167982D02*
X125838200Y-118401316D01*
X125838200Y-118401316D02*
X125838200Y-118301316D01*
X125838200Y-118301316D02*
X125871533Y-118234649D01*
X125871533Y-118234649D02*
X125904866Y-118201316D01*
X125904866Y-118201316D02*
X125971533Y-118167982D01*
X125971533Y-118167982D02*
X126138200Y-118167982D01*
X126138200Y-118167982D02*
X126204866Y-118201316D01*
X126204866Y-118201316D02*
X126238200Y-118234649D01*
X126238200Y-118234649D02*
X126271533Y-118301316D01*
X126271533Y-118301316D02*
X126271533Y-118501316D01*
X126271533Y-118501316D02*
X126238200Y-118567982D01*
X126238200Y-118567982D02*
X126204866Y-118601316D01*
X126071533Y-117901315D02*
X126071533Y-117567982D01*
X126271533Y-117967982D02*
X125571533Y-117734649D01*
X125571533Y-117734649D02*
X126271533Y-117501315D01*
X136507866Y-107919649D02*
X136541200Y-107952982D01*
X136541200Y-107952982D02*
X136574533Y-108052982D01*
X136574533Y-108052982D02*
X136574533Y-108119649D01*
X136574533Y-108119649D02*
X136541200Y-108219649D01*
X136541200Y-108219649D02*
X136474533Y-108286316D01*
X136474533Y-108286316D02*
X136407866Y-108319649D01*
X136407866Y-108319649D02*
X136274533Y-108352982D01*
X136274533Y-108352982D02*
X136174533Y-108352982D01*
X136174533Y-108352982D02*
X136041200Y-108319649D01*
X136041200Y-108319649D02*
X135974533Y-108286316D01*
X135974533Y-108286316D02*
X135907866Y-108219649D01*
X135907866Y-108219649D02*
X135874533Y-108119649D01*
X135874533Y-108119649D02*
X135874533Y-108052982D01*
X135874533Y-108052982D02*
X135907866Y-107952982D01*
X135907866Y-107952982D02*
X135941200Y-107919649D01*
X135874533Y-107486316D02*
X135874533Y-107352982D01*
X135874533Y-107352982D02*
X135907866Y-107286316D01*
X135907866Y-107286316D02*
X135974533Y-107219649D01*
X135974533Y-107219649D02*
X136107866Y-107186316D01*
X136107866Y-107186316D02*
X136341200Y-107186316D01*
X136341200Y-107186316D02*
X136474533Y-107219649D01*
X136474533Y-107219649D02*
X136541200Y-107286316D01*
X136541200Y-107286316D02*
X136574533Y-107352982D01*
X136574533Y-107352982D02*
X136574533Y-107486316D01*
X136574533Y-107486316D02*
X136541200Y-107552982D01*
X136541200Y-107552982D02*
X136474533Y-107619649D01*
X136474533Y-107619649D02*
X136341200Y-107652982D01*
X136341200Y-107652982D02*
X136107866Y-107652982D01*
X136107866Y-107652982D02*
X135974533Y-107619649D01*
X135974533Y-107619649D02*
X135907866Y-107552982D01*
X135907866Y-107552982D02*
X135874533Y-107486316D01*
X136574533Y-106886316D02*
X135874533Y-106886316D01*
X135874533Y-106886316D02*
X136574533Y-106486316D01*
X136574533Y-106486316D02*
X135874533Y-106486316D01*
X136574533Y-106152983D02*
X135874533Y-106152983D01*
X135874533Y-106152983D02*
X136574533Y-105752983D01*
X136574533Y-105752983D02*
X135874533Y-105752983D01*
X136207866Y-105419650D02*
X136207866Y-105186317D01*
X136574533Y-105086317D02*
X136574533Y-105419650D01*
X136574533Y-105419650D02*
X135874533Y-105419650D01*
X135874533Y-105419650D02*
X135874533Y-105086317D01*
X136507866Y-104386317D02*
X136541200Y-104419650D01*
X136541200Y-104419650D02*
X136574533Y-104519650D01*
X136574533Y-104519650D02*
X136574533Y-104586317D01*
X136574533Y-104586317D02*
X136541200Y-104686317D01*
X136541200Y-104686317D02*
X136474533Y-104752984D01*
X136474533Y-104752984D02*
X136407866Y-104786317D01*
X136407866Y-104786317D02*
X136274533Y-104819650D01*
X136274533Y-104819650D02*
X136174533Y-104819650D01*
X136174533Y-104819650D02*
X136041200Y-104786317D01*
X136041200Y-104786317D02*
X135974533Y-104752984D01*
X135974533Y-104752984D02*
X135907866Y-104686317D01*
X135907866Y-104686317D02*
X135874533Y-104586317D01*
X135874533Y-104586317D02*
X135874533Y-104519650D01*
X135874533Y-104519650D02*
X135907866Y-104419650D01*
X135907866Y-104419650D02*
X135941200Y-104386317D01*
X135874533Y-104186317D02*
X135874533Y-103786317D01*
X136574533Y-103986317D02*
X135874533Y-103986317D01*
X135874533Y-103419651D02*
X135874533Y-103286317D01*
X135874533Y-103286317D02*
X135907866Y-103219651D01*
X135907866Y-103219651D02*
X135974533Y-103152984D01*
X135974533Y-103152984D02*
X136107866Y-103119651D01*
X136107866Y-103119651D02*
X136341200Y-103119651D01*
X136341200Y-103119651D02*
X136474533Y-103152984D01*
X136474533Y-103152984D02*
X136541200Y-103219651D01*
X136541200Y-103219651D02*
X136574533Y-103286317D01*
X136574533Y-103286317D02*
X136574533Y-103419651D01*
X136574533Y-103419651D02*
X136541200Y-103486317D01*
X136541200Y-103486317D02*
X136474533Y-103552984D01*
X136474533Y-103552984D02*
X136341200Y-103586317D01*
X136341200Y-103586317D02*
X136107866Y-103586317D01*
X136107866Y-103586317D02*
X135974533Y-103552984D01*
X135974533Y-103552984D02*
X135907866Y-103486317D01*
X135907866Y-103486317D02*
X135874533Y-103419651D01*
X136574533Y-102419651D02*
X136241200Y-102652984D01*
X136574533Y-102819651D02*
X135874533Y-102819651D01*
X135874533Y-102819651D02*
X135874533Y-102552984D01*
X135874533Y-102552984D02*
X135907866Y-102486318D01*
X135907866Y-102486318D02*
X135941200Y-102452984D01*
X135941200Y-102452984D02*
X136007866Y-102419651D01*
X136007866Y-102419651D02*
X136107866Y-102419651D01*
X136107866Y-102419651D02*
X136174533Y-102452984D01*
X136174533Y-102452984D02*
X136207866Y-102486318D01*
X136207866Y-102486318D02*
X136241200Y-102552984D01*
X136241200Y-102552984D02*
X136241200Y-102819651D01*
X137334866Y-108086316D02*
X137368200Y-107986316D01*
X137368200Y-107986316D02*
X137401533Y-107952982D01*
X137401533Y-107952982D02*
X137468200Y-107919649D01*
X137468200Y-107919649D02*
X137568200Y-107919649D01*
X137568200Y-107919649D02*
X137634866Y-107952982D01*
X137634866Y-107952982D02*
X137668200Y-107986316D01*
X137668200Y-107986316D02*
X137701533Y-108052982D01*
X137701533Y-108052982D02*
X137701533Y-108319649D01*
X137701533Y-108319649D02*
X137001533Y-108319649D01*
X137001533Y-108319649D02*
X137001533Y-108086316D01*
X137001533Y-108086316D02*
X137034866Y-108019649D01*
X137034866Y-108019649D02*
X137068200Y-107986316D01*
X137068200Y-107986316D02*
X137134866Y-107952982D01*
X137134866Y-107952982D02*
X137201533Y-107952982D01*
X137201533Y-107952982D02*
X137268200Y-107986316D01*
X137268200Y-107986316D02*
X137301533Y-108019649D01*
X137301533Y-108019649D02*
X137334866Y-108086316D01*
X137334866Y-108086316D02*
X137334866Y-108319649D01*
X137001533Y-107486316D02*
X137001533Y-107352982D01*
X137001533Y-107352982D02*
X137034866Y-107286316D01*
X137034866Y-107286316D02*
X137101533Y-107219649D01*
X137101533Y-107219649D02*
X137234866Y-107186316D01*
X137234866Y-107186316D02*
X137468200Y-107186316D01*
X137468200Y-107186316D02*
X137601533Y-107219649D01*
X137601533Y-107219649D02*
X137668200Y-107286316D01*
X137668200Y-107286316D02*
X137701533Y-107352982D01*
X137701533Y-107352982D02*
X137701533Y-107486316D01*
X137701533Y-107486316D02*
X137668200Y-107552982D01*
X137668200Y-107552982D02*
X137601533Y-107619649D01*
X137601533Y-107619649D02*
X137468200Y-107652982D01*
X137468200Y-107652982D02*
X137234866Y-107652982D01*
X137234866Y-107652982D02*
X137101533Y-107619649D01*
X137101533Y-107619649D02*
X137034866Y-107552982D01*
X137034866Y-107552982D02*
X137001533Y-107486316D01*
X137501533Y-106919649D02*
X137501533Y-106586316D01*
X137701533Y-106986316D02*
X137001533Y-106752983D01*
X137001533Y-106752983D02*
X137701533Y-106519649D01*
X137701533Y-105886316D02*
X137368200Y-106119649D01*
X137701533Y-106286316D02*
X137001533Y-106286316D01*
X137001533Y-106286316D02*
X137001533Y-106019649D01*
X137001533Y-106019649D02*
X137034866Y-105952983D01*
X137034866Y-105952983D02*
X137068200Y-105919649D01*
X137068200Y-105919649D02*
X137134866Y-105886316D01*
X137134866Y-105886316D02*
X137234866Y-105886316D01*
X137234866Y-105886316D02*
X137301533Y-105919649D01*
X137301533Y-105919649D02*
X137334866Y-105952983D01*
X137334866Y-105952983D02*
X137368200Y-106019649D01*
X137368200Y-106019649D02*
X137368200Y-106286316D01*
X137701533Y-105586316D02*
X137001533Y-105586316D01*
X137001533Y-105586316D02*
X137001533Y-105419649D01*
X137001533Y-105419649D02*
X137034866Y-105319649D01*
X137034866Y-105319649D02*
X137101533Y-105252983D01*
X137101533Y-105252983D02*
X137168200Y-105219649D01*
X137168200Y-105219649D02*
X137301533Y-105186316D01*
X137301533Y-105186316D02*
X137401533Y-105186316D01*
X137401533Y-105186316D02*
X137534866Y-105219649D01*
X137534866Y-105219649D02*
X137601533Y-105252983D01*
X137601533Y-105252983D02*
X137668200Y-105319649D01*
X137668200Y-105319649D02*
X137701533Y-105419649D01*
X137701533Y-105419649D02*
X137701533Y-105586316D01*
X130081533Y-119234649D02*
X129381533Y-119234649D01*
X129381533Y-119234649D02*
X129381533Y-119067982D01*
X129381533Y-119067982D02*
X129414866Y-118967982D01*
X129414866Y-118967982D02*
X129481533Y-118901316D01*
X129481533Y-118901316D02*
X129548200Y-118867982D01*
X129548200Y-118867982D02*
X129681533Y-118834649D01*
X129681533Y-118834649D02*
X129781533Y-118834649D01*
X129781533Y-118834649D02*
X129914866Y-118867982D01*
X129914866Y-118867982D02*
X129981533Y-118901316D01*
X129981533Y-118901316D02*
X130048200Y-118967982D01*
X130048200Y-118967982D02*
X130081533Y-119067982D01*
X130081533Y-119067982D02*
X130081533Y-119234649D01*
X129448200Y-118567982D02*
X129414866Y-118534649D01*
X129414866Y-118534649D02*
X129381533Y-118467982D01*
X129381533Y-118467982D02*
X129381533Y-118301316D01*
X129381533Y-118301316D02*
X129414866Y-118234649D01*
X129414866Y-118234649D02*
X129448200Y-118201316D01*
X129448200Y-118201316D02*
X129514866Y-118167982D01*
X129514866Y-118167982D02*
X129581533Y-118167982D01*
X129581533Y-118167982D02*
X129681533Y-118201316D01*
X129681533Y-118201316D02*
X130081533Y-118601316D01*
X130081533Y-118601316D02*
X130081533Y-118167982D01*
X129881533Y-117901315D02*
X129881533Y-117567982D01*
X130081533Y-117967982D02*
X129381533Y-117734649D01*
X129381533Y-117734649D02*
X130081533Y-117501315D01*
X104866666Y-100419819D02*
X104866666Y-101134104D01*
X104866666Y-101134104D02*
X104819047Y-101276961D01*
X104819047Y-101276961D02*
X104723809Y-101372200D01*
X104723809Y-101372200D02*
X104580952Y-101419819D01*
X104580952Y-101419819D02*
X104485714Y-101419819D01*
X105866666Y-101419819D02*
X105295238Y-101419819D01*
X105580952Y-101419819D02*
X105580952Y-100419819D01*
X105580952Y-100419819D02*
X105485714Y-100562676D01*
X105485714Y-100562676D02*
X105390476Y-100657914D01*
X105390476Y-100657914D02*
X105295238Y-100705533D01*
X122221666Y-109309819D02*
X122221666Y-110024104D01*
X122221666Y-110024104D02*
X122174047Y-110166961D01*
X122174047Y-110166961D02*
X122078809Y-110262200D01*
X122078809Y-110262200D02*
X121935952Y-110309819D01*
X121935952Y-110309819D02*
X121840714Y-110309819D01*
X122602619Y-109309819D02*
X123221666Y-109309819D01*
X123221666Y-109309819D02*
X122888333Y-109690771D01*
X122888333Y-109690771D02*
X123031190Y-109690771D01*
X123031190Y-109690771D02*
X123126428Y-109738390D01*
X123126428Y-109738390D02*
X123174047Y-109786009D01*
X123174047Y-109786009D02*
X123221666Y-109881247D01*
X123221666Y-109881247D02*
X123221666Y-110119342D01*
X123221666Y-110119342D02*
X123174047Y-110214580D01*
X123174047Y-110214580D02*
X123126428Y-110262200D01*
X123126428Y-110262200D02*
X123031190Y-110309819D01*
X123031190Y-110309819D02*
X122745476Y-110309819D01*
X122745476Y-110309819D02*
X122650238Y-110262200D01*
X122650238Y-110262200D02*
X122602619Y-110214580D01*
X136826666Y-100419819D02*
X136826666Y-101134104D01*
X136826666Y-101134104D02*
X136779047Y-101276961D01*
X136779047Y-101276961D02*
X136683809Y-101372200D01*
X136683809Y-101372200D02*
X136540952Y-101419819D01*
X136540952Y-101419819D02*
X136445714Y-101419819D01*
X137255238Y-100515057D02*
X137302857Y-100467438D01*
X137302857Y-100467438D02*
X137398095Y-100419819D01*
X137398095Y-100419819D02*
X137636190Y-100419819D01*
X137636190Y-100419819D02*
X137731428Y-100467438D01*
X137731428Y-100467438D02*
X137779047Y-100515057D01*
X137779047Y-100515057D02*
X137826666Y-100610295D01*
X137826666Y-100610295D02*
X137826666Y-100705533D01*
X137826666Y-100705533D02*
X137779047Y-100848390D01*
X137779047Y-100848390D02*
X137207619Y-101419819D01*
X137207619Y-101419819D02*
X137826666Y-101419819D01*
D11*
%TO.C,J1*%
X101540000Y-100330000D02*
X102870000Y-100330000D01*
X101540000Y-101660000D02*
X101540000Y-100330000D01*
X101540000Y-102930000D02*
X101540000Y-120770000D01*
X101540000Y-102930000D02*
X104200000Y-102930000D01*
X101540000Y-120770000D02*
X104200000Y-120770000D01*
X104200000Y-102930000D02*
X104200000Y-120770000D01*
%TO.C,J3*%
X136130000Y-113300000D02*
G75*
G03*
X133020000Y-113300000I-1555000J0D01*
G01*
X133020000Y-113300000D02*
G75*
G03*
X136130000Y-113300000I1555000J0D01*
G01*
X132630000Y-113300000D02*
G75*
G03*
X129520000Y-113300000I-1555000J0D01*
G01*
X129520000Y-113300000D02*
G75*
G03*
X132630000Y-113300000I1555000J0D01*
G01*
X129130000Y-113300000D02*
G75*
G03*
X126020000Y-113300000I-1555000J0D01*
G01*
X126020000Y-113300000D02*
G75*
G03*
X129130000Y-113300000I1555000J0D01*
G01*
X125630000Y-113300000D02*
G75*
G03*
X122520000Y-113300000I-1555000J0D01*
G01*
X122520000Y-113300000D02*
G75*
G03*
X125630000Y-113300000I1555000J0D01*
G01*
X122130000Y-113300000D02*
G75*
G03*
X119020000Y-113300000I-1555000J0D01*
G01*
X119020000Y-113300000D02*
G75*
G03*
X122130000Y-113300000I1555000J0D01*
G01*
X118630000Y-113300000D02*
G75*
G03*
X115520000Y-113300000I-1555000J0D01*
G01*
X115520000Y-113300000D02*
G75*
G03*
X118630000Y-113300000I1555000J0D01*
G01*
X115130000Y-113300000D02*
G75*
G03*
X112020000Y-113300000I-1555000J0D01*
G01*
X112020000Y-113300000D02*
G75*
G03*
X115130000Y-113300000I1555000J0D01*
G01*
X111507000Y-113908000D02*
G75*
G03*
X111507109Y-112692258I-1432003J607999D01*
G01*
X110075000Y-114854999D02*
G75*
G03*
X110682587Y-114731384I0J1554999D01*
G01*
X109467000Y-114731999D02*
G75*
G03*
X110102011Y-114855492I607998J1431987D01*
G01*
X110683000Y-111868000D02*
G75*
G03*
X109467258Y-111867891I-608000J-1432000D01*
G01*
X108643000Y-112692000D02*
G75*
G03*
X108642891Y-113907742I1432000J-608000D01*
G01*
X136735000Y-109440000D02*
X136735000Y-116960000D01*
X134635000Y-109440000D02*
X136735000Y-109440000D01*
X134635000Y-100340000D02*
X134635000Y-109440000D01*
X107915000Y-116960000D02*
X136735000Y-116960000D01*
X107915000Y-115400000D02*
X136735000Y-115400000D01*
X107915000Y-109560000D02*
X107915000Y-116960000D01*
X107675000Y-117200000D02*
X109175000Y-117200000D01*
X107675000Y-115460000D02*
X107675000Y-117200000D01*
X106115000Y-109560000D02*
X107915000Y-109560000D01*
X106115000Y-100340000D02*
X134635000Y-100340000D01*
X106115000Y-100340000D02*
X106115000Y-109560000D01*
%TO.C,J2*%
X138700000Y-100330000D02*
X140030000Y-100330000D01*
X138700000Y-101660000D02*
X138700000Y-100330000D01*
X138700000Y-102930000D02*
X138700000Y-120770000D01*
X138700000Y-102930000D02*
X141360000Y-102930000D01*
X138700000Y-120770000D02*
X141360000Y-120770000D01*
X141360000Y-102930000D02*
X141360000Y-120770000D01*
%TD*%
M02*
