M48
; DRILL file {KiCad 7.0.11+dfsg-1build4} date mié 06 may 2026 20:51:05
; FORMAT={-:-/ absolute / metric / decimal}
; #@! TF.CreationDate,2026-05-06T20:51:05-05:00
; #@! TF.GenerationSoftware,Kicad,Pcbnew,7.0.11+dfsg-1build4
; #@! TF.FileFunction,Plated,1,2,PTH
FMAT,2
METRIC
; #@! TA.AperFunction,Plated,PTH,ViaDrill
T1C0.300
; #@! TA.AperFunction,Plated,PTH,ComponentDrill
T2C1.000
; #@! TA.AperFunction,Plated,PTH,ComponentDrill
T3C1.200
%
G90
G05
T1
X105.41Y-106.045
X105.41Y-112.398
X106.68Y-107.34
X106.68Y-113.03
X107.315Y-120.015
X109.855Y-109.855
X111.125Y-109.22
X111.76Y-115.57
X112.395Y-107.95
X114.935Y-111.125
X118.11Y-106.045
X118.11Y-109.855
X118.11Y-120.015
X118.745Y-115.57
X121.285Y-109.855
X124.46Y-106.045
X125.73Y-115.57
X128.27Y-105.41
X128.27Y-106.68
X129.54Y-104.14
X129.54Y-120.015
X131.445Y-107.95
X132.08Y-111.125
X135.255Y-102.87
X135.89Y-110.49
X137.16Y-104.775
X137.795Y-113.03
X138.43Y-107.95
T2
X102.87Y-101.66
X102.87Y-104.2
X102.87Y-106.74
X102.87Y-109.28
X102.87Y-111.82
X102.87Y-114.36
X102.87Y-116.9
X102.87Y-119.44
X140.03Y-101.66
X140.03Y-104.2
X140.03Y-106.74
X140.03Y-109.28
X140.03Y-111.82
X140.03Y-114.36
X140.03Y-116.9
X140.03Y-119.44
T3
X108.325Y-101.87
X110.075Y-113.3
X111.825Y-101.87
X113.575Y-113.3
X115.325Y-101.87
X117.075Y-113.3
X118.825Y-101.87
X120.575Y-113.3
X122.325Y-101.87
X124.075Y-113.3
X125.825Y-101.87
X127.575Y-113.3
X129.325Y-101.87
X131.075Y-113.3
X132.825Y-101.87
X134.575Y-113.3
M30
