%TF.GenerationSoftware,KiCad,Pcbnew,7.0.11+dfsg-1build4*%
%TF.CreationDate,2026-05-06T20:51:07-05:00*%
%TF.ProjectId,panel-mount-oled-display-connector-board,70616e65-6c2d-46d6-9f75-6e742d6f6c65,rev?*%
%TF.SameCoordinates,Original*%
%TF.FileFunction,Copper,L1,Top*%
%TF.FilePolarity,Positive*%
%FSLAX46Y46*%
G04 Gerber Fmt 4.6, Leading zero omitted, Abs format (unit mm)*
G04 Created by KiCad (PCBNEW 7.0.11+dfsg-1build4) date 2026-05-06 20:51:07*
%MOMM*%
%LPD*%
G01*
G04 APERTURE LIST*
%TA.AperFunction,ComponentPad*%
%ADD10R,1.700000X1.700000*%
%TD*%
%TA.AperFunction,ComponentPad*%
%ADD11O,1.700000X1.700000*%
%TD*%
%TA.AperFunction,ComponentPad*%
%ADD12C,2.400000*%
%TD*%
%TA.AperFunction,ComponentPad*%
%ADD13R,2.400000X2.400000*%
%TD*%
%TA.AperFunction,ViaPad*%
%ADD14C,0.600000*%
%TD*%
%TA.AperFunction,Conductor*%
%ADD15C,0.200000*%
%TD*%
G04 APERTURE END LIST*
D10*
%TO.P,J1,1,Pin_1*%
%TO.N,/D4K*%
X102870000Y-101660000D03*
D11*
%TO.P,J1,2,Pin_2*%
%TO.N,/D4A*%
X102870000Y-104200000D03*
%TO.P,J1,3,Pin_3*%
%TO.N,/VCC*%
X102870000Y-106740000D03*
%TO.P,J1,4,Pin_4*%
%TO.N,/SCL*%
X102870000Y-109280000D03*
%TO.P,J1,5,Pin_5*%
%TO.N,/D5K*%
X102870000Y-111820000D03*
%TO.P,J1,6,Pin_6*%
%TO.N,/D5A*%
X102870000Y-114360000D03*
%TO.P,J1,7,Pin_7*%
%TO.N,/D6K*%
X102870000Y-116900000D03*
%TO.P,J1,8,Pin_8*%
%TO.N,/D6A*%
X102870000Y-119440000D03*
%TD*%
D12*
%TO.P,J3,16,Pin_16*%
%TO.N,/D1A*%
X132825000Y-101870000D03*
%TO.P,J3,15,Pin_15*%
%TO.N,/D1K*%
X134575000Y-113300000D03*
%TO.P,J3,14,Pin_14*%
%TO.N,/D2A*%
X129325000Y-101870000D03*
%TO.P,J3,13,Pin_13*%
%TO.N,/D2K*%
X131075000Y-113300000D03*
%TO.P,J3,12,Pin_12*%
%TO.N,/D3A*%
X125825000Y-101870000D03*
%TO.P,J3,11,Pin_11*%
%TO.N,/D3K*%
X127575000Y-113300000D03*
%TO.P,J3,10,Pin_10*%
%TO.N,/SDA*%
X122325000Y-101870000D03*
%TO.P,J3,9,Pin_9*%
%TO.N,GND*%
X124075000Y-113300000D03*
%TO.P,J3,8,Pin_8*%
%TO.N,/SCL*%
X118825000Y-101870000D03*
%TO.P,J3,7,Pin_7*%
%TO.N,/VCC*%
X120575000Y-113300000D03*
%TO.P,J3,6,Pin_6*%
%TO.N,/D4A*%
X115325000Y-101870000D03*
%TO.P,J3,5,Pin_5*%
%TO.N,/D4K*%
X117075000Y-113300000D03*
%TO.P,J3,4,Pin_4*%
%TO.N,/D5A*%
X111825000Y-101870000D03*
%TO.P,J3,3,Pin_3*%
%TO.N,/D5K*%
X113575000Y-113300000D03*
%TO.P,J3,2,Pin_2*%
%TO.N,/D6A*%
X108325000Y-101870000D03*
D13*
%TO.P,J3,1,Pin_1*%
%TO.N,/D6K*%
X110075000Y-113300000D03*
%TD*%
D10*
%TO.P,J2,1,Pin_1*%
%TO.N,/D1K*%
X140030000Y-101660000D03*
D11*
%TO.P,J2,2,Pin_2*%
%TO.N,/D1A*%
X140030000Y-104200000D03*
%TO.P,J2,3,Pin_3*%
%TO.N,GND*%
X140030000Y-106740000D03*
%TO.P,J2,4,Pin_4*%
%TO.N,/SDA*%
X140030000Y-109280000D03*
%TO.P,J2,5,Pin_5*%
%TO.N,/D2K*%
X140030000Y-111820000D03*
%TO.P,J2,6,Pin_6*%
%TO.N,/D2A*%
X140030000Y-114360000D03*
%TO.P,J2,7,Pin_7*%
%TO.N,/D3K*%
X140030000Y-116900000D03*
%TO.P,J2,8,Pin_8*%
%TO.N,/D3A*%
X140030000Y-119440000D03*
%TD*%
D14*
%TO.N,GND*%
X129540000Y-104140000D03*
X135890000Y-110490000D03*
X137795000Y-113030000D03*
X138430000Y-107950000D03*
X137160000Y-104775000D03*
X132080000Y-111125000D03*
X131445000Y-107950000D03*
X118110000Y-109855000D03*
X112395000Y-107950000D03*
X114935000Y-111125000D03*
X109855000Y-109855000D03*
X135255000Y-102870000D03*
X128270000Y-105410000D03*
X121285000Y-109855000D03*
X124460000Y-106045000D03*
X118110000Y-106045000D03*
X125730000Y-115570000D03*
X118745000Y-115570000D03*
X111760000Y-115570000D03*
X129540000Y-120015000D03*
X118110000Y-120015000D03*
X107315000Y-120015000D03*
X128270000Y-106680000D03*
%TO.N,/SCL*%
X105410000Y-106045000D03*
%TO.N,/D4K*%
X111125000Y-109220000D03*
X106680000Y-107340000D03*
%TO.N,/D6A*%
X105410000Y-112398100D03*
X106680000Y-113030000D03*
%TD*%
D15*
%TO.N,/SDA*%
X129735000Y-109280000D02*
X122325000Y-101870000D01*
X140030000Y-109280000D02*
X129735000Y-109280000D01*
%TO.N,/D5K*%
X102870000Y-111820000D02*
X104021900Y-111820000D01*
X104021900Y-111820000D02*
X104716900Y-111125000D01*
X104716900Y-111125000D02*
X113030000Y-111125000D01*
X113030000Y-111125000D02*
X113575000Y-111670000D01*
X113575000Y-111670000D02*
X113575000Y-113300000D01*
%TO.N,GND*%
X140030000Y-106740000D02*
X128330000Y-106740000D01*
X128330000Y-106740000D02*
X128270000Y-106680000D01*
%TO.N,/SCL*%
X105410000Y-106045000D02*
X105985000Y-105470000D01*
X105985000Y-105470000D02*
X115225000Y-105470000D01*
%TO.N,/D4K*%
X108560000Y-109220000D02*
X111125000Y-109220000D01*
X106680000Y-107340000D02*
X108560000Y-109220000D01*
%TO.N,/D6A*%
X106041900Y-113030000D02*
X105410000Y-112398100D01*
X106680000Y-113030000D02*
X106041900Y-113030000D01*
%TO.N,/VCC*%
X120575000Y-113300000D02*
X120575000Y-111050000D01*
X120575000Y-111050000D02*
X116265000Y-106740000D01*
X116265000Y-106740000D02*
X102870000Y-106740000D01*
%TO.N,/D3K*%
X127575000Y-113300000D02*
X127575000Y-115510000D01*
X127575000Y-115510000D02*
X128965000Y-116900000D01*
X128965000Y-116900000D02*
X140030000Y-116900000D01*
%TO.N,/D6K*%
X107621900Y-113300000D02*
X104021900Y-116900000D01*
X110075000Y-113300000D02*
X107621900Y-113300000D01*
X102870000Y-116900000D02*
X104021900Y-116900000D01*
%TO.N,/D4A*%
X112995000Y-104200000D02*
X102870000Y-104200000D01*
X115325000Y-101870000D02*
X112995000Y-104200000D01*
%TO.N,/D2K*%
X132623600Y-111751400D02*
X131075000Y-113300000D01*
X138809500Y-111751400D02*
X132623600Y-111751400D01*
X138878100Y-111820000D02*
X138809500Y-111751400D01*
X140030000Y-111820000D02*
X138878100Y-111820000D01*
%TO.N,/D1A*%
X136548100Y-101870000D02*
X138878100Y-104200000D01*
X132825000Y-101870000D02*
X136548100Y-101870000D01*
X140030000Y-104200000D02*
X138878100Y-104200000D01*
%TO.N,/SCL*%
X118825000Y-101870000D02*
X115225000Y-105470000D01*
%TD*%
%TA.AperFunction,Conductor*%
%TO.N,GND*%
G36*
X123550901Y-113602588D02*
G01*
X123647075Y-113727925D01*
X123772412Y-113824099D01*
X123865779Y-113862772D01*
X123061813Y-114666738D01*
X123222616Y-114776371D01*
X123222624Y-114776376D01*
X123452176Y-114886921D01*
X123452174Y-114886921D01*
X123695652Y-114962024D01*
X123695658Y-114962026D01*
X123947595Y-114999999D01*
X123947604Y-115000000D01*
X124202396Y-115000000D01*
X124202404Y-114999999D01*
X124454341Y-114962026D01*
X124454347Y-114962024D01*
X124697824Y-114886921D01*
X124927376Y-114776376D01*
X124927377Y-114776375D01*
X125088185Y-114666738D01*
X124284220Y-113862772D01*
X124377588Y-113824099D01*
X124502925Y-113727925D01*
X124599099Y-113602589D01*
X124637773Y-113509220D01*
X125441544Y-114312992D01*
X125441546Y-114312991D01*
X125483544Y-114260330D01*
X125610941Y-114039671D01*
X125704026Y-113802494D01*
X125705400Y-113798044D01*
X125706574Y-113798406D01*
X125737945Y-113742300D01*
X125799601Y-113709432D01*
X125869239Y-113715115D01*
X125924750Y-113757545D01*
X125943420Y-113798412D01*
X125944122Y-113798196D01*
X125945490Y-113802630D01*
X125945492Y-113802637D01*
X126038607Y-114039888D01*
X126166041Y-114260612D01*
X126324950Y-114459877D01*
X126511783Y-114633232D01*
X126722366Y-114776805D01*
X126722369Y-114776806D01*
X126722370Y-114776807D01*
X126904302Y-114864421D01*
X126956161Y-114911243D01*
X126974500Y-114976141D01*
X126974500Y-115462512D01*
X126973439Y-115478697D01*
X126969318Y-115509998D01*
X126969318Y-115510000D01*
X126974500Y-115549360D01*
X126974500Y-115549361D01*
X126989955Y-115666760D01*
X126989956Y-115666762D01*
X127050464Y-115812841D01*
X127087806Y-115861506D01*
X127146719Y-115938283D01*
X127171769Y-115957504D01*
X127183964Y-115968199D01*
X128506799Y-117291034D01*
X128517493Y-117303228D01*
X128536717Y-117328281D01*
X128536718Y-117328282D01*
X128582826Y-117363661D01*
X128582827Y-117363663D01*
X128643700Y-117410371D01*
X128662159Y-117424536D01*
X128662161Y-117424536D01*
X128662163Y-117424538D01*
X128735198Y-117454790D01*
X128808238Y-117485044D01*
X128886619Y-117495363D01*
X128964999Y-117505682D01*
X128965000Y-117505682D01*
X128996302Y-117501560D01*
X129012487Y-117500500D01*
X138740909Y-117500500D01*
X138807948Y-117520185D01*
X138853292Y-117572097D01*
X138855965Y-117577830D01*
X138855966Y-117577831D01*
X138991501Y-117771395D01*
X138991506Y-117771402D01*
X139158597Y-117938493D01*
X139158603Y-117938498D01*
X139344158Y-118068425D01*
X139387783Y-118123002D01*
X139394977Y-118192500D01*
X139363454Y-118254855D01*
X139344158Y-118271575D01*
X139158597Y-118401505D01*
X138991505Y-118568597D01*
X138855965Y-118762169D01*
X138855964Y-118762171D01*
X138756098Y-118976335D01*
X138756094Y-118976344D01*
X138694938Y-119204586D01*
X138694936Y-119204596D01*
X138674341Y-119439999D01*
X138674341Y-119440000D01*
X138694936Y-119675403D01*
X138694938Y-119675413D01*
X138756094Y-119903655D01*
X138756096Y-119903659D01*
X138756097Y-119903663D01*
X138760500Y-119913105D01*
X138855965Y-120117830D01*
X138855967Y-120117834D01*
X138991501Y-120311395D01*
X138991506Y-120311402D01*
X139067923Y-120387819D01*
X139101408Y-120449142D01*
X139096424Y-120518834D01*
X139054552Y-120574767D01*
X138989088Y-120599184D01*
X138980242Y-120599500D01*
X103919758Y-120599500D01*
X103852719Y-120579815D01*
X103806964Y-120527011D01*
X103797020Y-120457853D01*
X103826045Y-120394297D01*
X103832077Y-120387819D01*
X103908495Y-120311401D01*
X104044035Y-120117830D01*
X104143903Y-119903663D01*
X104205063Y-119675408D01*
X104225659Y-119440000D01*
X104205063Y-119204592D01*
X104143903Y-118976337D01*
X104044035Y-118762171D01*
X103950066Y-118627968D01*
X103908494Y-118568597D01*
X103741402Y-118401506D01*
X103741396Y-118401501D01*
X103555842Y-118271575D01*
X103512217Y-118216998D01*
X103505023Y-118147500D01*
X103536546Y-118085145D01*
X103555842Y-118068425D01*
X103578026Y-118052891D01*
X103741401Y-117938495D01*
X103908495Y-117771401D01*
X104044035Y-117577830D01*
X104052576Y-117559512D01*
X104098746Y-117507074D01*
X104148768Y-117488979D01*
X104178662Y-117485044D01*
X104324741Y-117424536D01*
X104404072Y-117363663D01*
X104450182Y-117328282D01*
X104469410Y-117303222D01*
X104480089Y-117291044D01*
X107834316Y-113936819D01*
X107895639Y-113903334D01*
X107921997Y-113900500D01*
X108250501Y-113900500D01*
X108317540Y-113920185D01*
X108363295Y-113972989D01*
X108374501Y-114024500D01*
X108374501Y-114547876D01*
X108380908Y-114607483D01*
X108431202Y-114742328D01*
X108431206Y-114742335D01*
X108517452Y-114857544D01*
X108517455Y-114857547D01*
X108632664Y-114943793D01*
X108632671Y-114943797D01*
X108767517Y-114994091D01*
X108767516Y-114994091D01*
X108774444Y-114994835D01*
X108827127Y-115000500D01*
X111322872Y-115000499D01*
X111382483Y-114994091D01*
X111517331Y-114943796D01*
X111632546Y-114857546D01*
X111718796Y-114742331D01*
X111769091Y-114607483D01*
X111775500Y-114547873D01*
X111775499Y-114024854D01*
X111795183Y-113957818D01*
X111847987Y-113912063D01*
X111917146Y-113902119D01*
X111980702Y-113931144D01*
X112014927Y-113979553D01*
X112038607Y-114039888D01*
X112166041Y-114260612D01*
X112324950Y-114459877D01*
X112511783Y-114633232D01*
X112722366Y-114776805D01*
X112722371Y-114776807D01*
X112722372Y-114776808D01*
X112722373Y-114776809D01*
X112839274Y-114833105D01*
X112951992Y-114887387D01*
X112951993Y-114887387D01*
X112951996Y-114887389D01*
X113195542Y-114962513D01*
X113447565Y-115000500D01*
X113702435Y-115000500D01*
X113954458Y-114962513D01*
X114198004Y-114887389D01*
X114427634Y-114776805D01*
X114638217Y-114633232D01*
X114825050Y-114459877D01*
X114983959Y-114260612D01*
X115111393Y-114039888D01*
X115204508Y-113802637D01*
X115204510Y-113802624D01*
X115205878Y-113798196D01*
X115207324Y-113798642D01*
X115238213Y-113743412D01*
X115299873Y-113710552D01*
X115369510Y-113716243D01*
X115425016Y-113758680D01*
X115443192Y-113798482D01*
X115444122Y-113798196D01*
X115445490Y-113802630D01*
X115445492Y-113802637D01*
X115538607Y-114039888D01*
X115666041Y-114260612D01*
X115824950Y-114459877D01*
X116011783Y-114633232D01*
X116222366Y-114776805D01*
X116222371Y-114776807D01*
X116222372Y-114776808D01*
X116222373Y-114776809D01*
X116339274Y-114833105D01*
X116451992Y-114887387D01*
X116451993Y-114887387D01*
X116451996Y-114887389D01*
X116695542Y-114962513D01*
X116947565Y-115000500D01*
X117202435Y-115000500D01*
X117454458Y-114962513D01*
X117698004Y-114887389D01*
X117927634Y-114776805D01*
X118138217Y-114633232D01*
X118325050Y-114459877D01*
X118483959Y-114260612D01*
X118611393Y-114039888D01*
X118704508Y-113802637D01*
X118704510Y-113802624D01*
X118705878Y-113798196D01*
X118707324Y-113798642D01*
X118738213Y-113743412D01*
X118799873Y-113710552D01*
X118869510Y-113716243D01*
X118925016Y-113758680D01*
X118943192Y-113798482D01*
X118944122Y-113798196D01*
X118945490Y-113802630D01*
X118945492Y-113802637D01*
X119038607Y-114039888D01*
X119166041Y-114260612D01*
X119324950Y-114459877D01*
X119511783Y-114633232D01*
X119722366Y-114776805D01*
X119722371Y-114776807D01*
X119722372Y-114776808D01*
X119722373Y-114776809D01*
X119839274Y-114833105D01*
X119951992Y-114887387D01*
X119951993Y-114887387D01*
X119951996Y-114887389D01*
X120195542Y-114962513D01*
X120447565Y-115000500D01*
X120702435Y-115000500D01*
X120954458Y-114962513D01*
X121198004Y-114887389D01*
X121427634Y-114776805D01*
X121638217Y-114633232D01*
X121825050Y-114459877D01*
X121983959Y-114260612D01*
X122111393Y-114039888D01*
X122204508Y-113802637D01*
X122204510Y-113802624D01*
X122205878Y-113798196D01*
X122207008Y-113798544D01*
X122238464Y-113742295D01*
X122300121Y-113709430D01*
X122369759Y-113715117D01*
X122425268Y-113757551D01*
X122443868Y-113798269D01*
X122444600Y-113798044D01*
X122445973Y-113802494D01*
X122539058Y-114039671D01*
X122539057Y-114039671D01*
X122666454Y-114260327D01*
X122666461Y-114260338D01*
X122708452Y-114312991D01*
X122708453Y-114312992D01*
X123512226Y-113509219D01*
X123550901Y-113602588D01*
G37*
%TD.AperFunction*%
%TA.AperFunction,Conductor*%
G36*
X138615824Y-112361338D02*
G01*
X138721338Y-112405044D01*
X138751225Y-112408978D01*
X138815121Y-112437243D01*
X138847423Y-112479512D01*
X138855964Y-112497829D01*
X138855965Y-112497831D01*
X138915150Y-112582355D01*
X138989329Y-112688294D01*
X138991501Y-112691395D01*
X138991506Y-112691402D01*
X139158597Y-112858493D01*
X139158603Y-112858498D01*
X139344158Y-112988425D01*
X139387783Y-113043002D01*
X139394977Y-113112500D01*
X139363454Y-113174855D01*
X139344158Y-113191575D01*
X139158597Y-113321505D01*
X138991505Y-113488597D01*
X138855965Y-113682169D01*
X138855964Y-113682171D01*
X138756098Y-113896335D01*
X138756094Y-113896344D01*
X138694938Y-114124586D01*
X138694936Y-114124596D01*
X138674341Y-114359999D01*
X138674341Y-114360000D01*
X138694936Y-114595403D01*
X138694938Y-114595413D01*
X138756094Y-114823655D01*
X138756096Y-114823659D01*
X138756097Y-114823663D01*
X138812115Y-114943793D01*
X138855965Y-115037830D01*
X138855967Y-115037834D01*
X138991501Y-115231395D01*
X138991506Y-115231402D01*
X139158597Y-115398493D01*
X139158603Y-115398498D01*
X139344158Y-115528425D01*
X139387783Y-115583002D01*
X139394977Y-115652500D01*
X139363454Y-115714855D01*
X139344158Y-115731575D01*
X139158597Y-115861505D01*
X138991506Y-116028596D01*
X138855965Y-116222170D01*
X138855962Y-116222175D01*
X138853289Y-116227909D01*
X138807115Y-116280346D01*
X138740909Y-116299500D01*
X129265097Y-116299500D01*
X129198058Y-116279815D01*
X129177416Y-116263181D01*
X128211819Y-115297584D01*
X128178334Y-115236261D01*
X128175500Y-115209903D01*
X128175500Y-114976141D01*
X128195185Y-114909102D01*
X128245698Y-114864421D01*
X128330349Y-114823655D01*
X128427634Y-114776805D01*
X128638217Y-114633232D01*
X128825050Y-114459877D01*
X128983959Y-114260612D01*
X129111393Y-114039888D01*
X129204508Y-113802637D01*
X129204510Y-113802624D01*
X129205878Y-113798196D01*
X129207324Y-113798642D01*
X129238213Y-113743412D01*
X129299873Y-113710552D01*
X129369510Y-113716243D01*
X129425016Y-113758680D01*
X129443192Y-113798482D01*
X129444122Y-113798196D01*
X129445490Y-113802630D01*
X129445492Y-113802637D01*
X129538607Y-114039888D01*
X129666041Y-114260612D01*
X129824950Y-114459877D01*
X130011783Y-114633232D01*
X130222366Y-114776805D01*
X130222371Y-114776807D01*
X130222372Y-114776808D01*
X130222373Y-114776809D01*
X130339274Y-114833105D01*
X130451992Y-114887387D01*
X130451993Y-114887387D01*
X130451996Y-114887389D01*
X130695542Y-114962513D01*
X130947565Y-115000500D01*
X131202435Y-115000500D01*
X131454458Y-114962513D01*
X131698004Y-114887389D01*
X131927634Y-114776805D01*
X132138217Y-114633232D01*
X132325050Y-114459877D01*
X132483959Y-114260612D01*
X132611393Y-114039888D01*
X132704508Y-113802637D01*
X132704510Y-113802624D01*
X132705878Y-113798196D01*
X132707324Y-113798642D01*
X132738213Y-113743412D01*
X132799873Y-113710552D01*
X132869510Y-113716243D01*
X132925016Y-113758680D01*
X132943192Y-113798482D01*
X132944122Y-113798196D01*
X132945490Y-113802630D01*
X132945492Y-113802637D01*
X133038607Y-114039888D01*
X133166041Y-114260612D01*
X133324950Y-114459877D01*
X133511783Y-114633232D01*
X133722366Y-114776805D01*
X133722371Y-114776807D01*
X133722372Y-114776808D01*
X133722373Y-114776809D01*
X133839274Y-114833105D01*
X133951992Y-114887387D01*
X133951993Y-114887387D01*
X133951996Y-114887389D01*
X134195542Y-114962513D01*
X134447565Y-115000500D01*
X134702435Y-115000500D01*
X134954458Y-114962513D01*
X135198004Y-114887389D01*
X135427634Y-114776805D01*
X135638217Y-114633232D01*
X135825050Y-114459877D01*
X135983959Y-114260612D01*
X136111393Y-114039888D01*
X136204508Y-113802637D01*
X136261222Y-113554157D01*
X136270284Y-113433228D01*
X136280268Y-113300004D01*
X136280268Y-113299995D01*
X136261222Y-113045845D01*
X136260573Y-113043002D01*
X136204508Y-112797363D01*
X136111393Y-112560112D01*
X136098568Y-112537899D01*
X136082096Y-112470000D01*
X136104948Y-112403973D01*
X136159870Y-112360783D01*
X136205956Y-112351900D01*
X138568372Y-112351900D01*
X138615824Y-112361338D01*
G37*
%TD.AperFunction*%
%TA.AperFunction,Conductor*%
G36*
X120619510Y-102286243D02*
G01*
X120675016Y-102328680D01*
X120693192Y-102368482D01*
X120694122Y-102368196D01*
X120695490Y-102372630D01*
X120695492Y-102372637D01*
X120768196Y-102557883D01*
X120788608Y-102609890D01*
X120799888Y-102629427D01*
X120916041Y-102830612D01*
X121074950Y-103029877D01*
X121261783Y-103203232D01*
X121472366Y-103346805D01*
X121472371Y-103346807D01*
X121472372Y-103346808D01*
X121472373Y-103346809D01*
X121570984Y-103394297D01*
X121701992Y-103457387D01*
X121701993Y-103457387D01*
X121701996Y-103457389D01*
X121945542Y-103532513D01*
X122197565Y-103570500D01*
X122452435Y-103570500D01*
X122704458Y-103532513D01*
X122948004Y-103457389D01*
X122948021Y-103457380D01*
X122952330Y-103455691D01*
X122952877Y-103457085D01*
X123015360Y-103446777D01*
X123079502Y-103474480D01*
X123087937Y-103482172D01*
X126219764Y-106614000D01*
X129276803Y-109671039D01*
X129287497Y-109683233D01*
X129306718Y-109708282D01*
X129324937Y-109722262D01*
X129334983Y-109729970D01*
X129335003Y-109729987D01*
X129432157Y-109804535D01*
X129432158Y-109804535D01*
X129432159Y-109804536D01*
X129578238Y-109865044D01*
X129656619Y-109875363D01*
X129734999Y-109885682D01*
X129735000Y-109885682D01*
X129766302Y-109881560D01*
X129782487Y-109880500D01*
X138740909Y-109880500D01*
X138807948Y-109900185D01*
X138853292Y-109952097D01*
X138855965Y-109957830D01*
X138889252Y-110005369D01*
X138991501Y-110151395D01*
X138991506Y-110151402D01*
X139158597Y-110318493D01*
X139158603Y-110318498D01*
X139344158Y-110448425D01*
X139387783Y-110503002D01*
X139394977Y-110572500D01*
X139363454Y-110634855D01*
X139344158Y-110651575D01*
X139158597Y-110781505D01*
X138991508Y-110948594D01*
X138889242Y-111094646D01*
X138834665Y-111138270D01*
X138803855Y-111146461D01*
X138795657Y-111147540D01*
X138778195Y-111149839D01*
X138762013Y-111150900D01*
X132671087Y-111150900D01*
X132654902Y-111149839D01*
X132623600Y-111145718D01*
X132584239Y-111150900D01*
X132466839Y-111166355D01*
X132466837Y-111166356D01*
X132320757Y-111226864D01*
X132195318Y-111323116D01*
X132176089Y-111348175D01*
X132165398Y-111360365D01*
X131837937Y-111687826D01*
X131776614Y-111721311D01*
X131706922Y-111716327D01*
X131700523Y-111713600D01*
X131698008Y-111712612D01*
X131454466Y-111637489D01*
X131454462Y-111637488D01*
X131454458Y-111637487D01*
X131333231Y-111619214D01*
X131202440Y-111599500D01*
X131202435Y-111599500D01*
X130947565Y-111599500D01*
X130947559Y-111599500D01*
X130790609Y-111623157D01*
X130695542Y-111637487D01*
X130695539Y-111637488D01*
X130695533Y-111637489D01*
X130451992Y-111712612D01*
X130222373Y-111823190D01*
X130222372Y-111823191D01*
X130011782Y-111966768D01*
X129824952Y-112140121D01*
X129824950Y-112140123D01*
X129666041Y-112339388D01*
X129538608Y-112560109D01*
X129445492Y-112797362D01*
X129444122Y-112801804D01*
X129442677Y-112801358D01*
X129411780Y-112856593D01*
X129350117Y-112889449D01*
X129280480Y-112883752D01*
X129224978Y-112841311D01*
X129206805Y-112801517D01*
X129205878Y-112801804D01*
X129204509Y-112797369D01*
X129204508Y-112797363D01*
X129111393Y-112560112D01*
X128983959Y-112339388D01*
X128825050Y-112140123D01*
X128638217Y-111966768D01*
X128427634Y-111823195D01*
X128427628Y-111823192D01*
X128427627Y-111823191D01*
X128427626Y-111823190D01*
X128198006Y-111712612D01*
X128198008Y-111712612D01*
X127954466Y-111637489D01*
X127954462Y-111637488D01*
X127954458Y-111637487D01*
X127833231Y-111619214D01*
X127702440Y-111599500D01*
X127702435Y-111599500D01*
X127447565Y-111599500D01*
X127447559Y-111599500D01*
X127290609Y-111623157D01*
X127195542Y-111637487D01*
X127195539Y-111637488D01*
X127195533Y-111637489D01*
X126951992Y-111712612D01*
X126722373Y-111823190D01*
X126722372Y-111823191D01*
X126511782Y-111966768D01*
X126324952Y-112140121D01*
X126324950Y-112140123D01*
X126166041Y-112339388D01*
X126038608Y-112560109D01*
X125945492Y-112797362D01*
X125944122Y-112801804D01*
X125942999Y-112801457D01*
X125911509Y-112857730D01*
X125849841Y-112890576D01*
X125780205Y-112884868D01*
X125724709Y-112842418D01*
X125706134Y-112801729D01*
X125705400Y-112801956D01*
X125704026Y-112797505D01*
X125610941Y-112560328D01*
X125610942Y-112560328D01*
X125483545Y-112339672D01*
X125441545Y-112287006D01*
X124637772Y-113090779D01*
X124599099Y-112997412D01*
X124502925Y-112872075D01*
X124377588Y-112775901D01*
X124284219Y-112737226D01*
X125088185Y-111933260D01*
X124927384Y-111823628D01*
X124927376Y-111823623D01*
X124697823Y-111713078D01*
X124697825Y-111713078D01*
X124454347Y-111637975D01*
X124454341Y-111637973D01*
X124202404Y-111600000D01*
X123947595Y-111600000D01*
X123695658Y-111637973D01*
X123695652Y-111637975D01*
X123452175Y-111713078D01*
X123222622Y-111823625D01*
X123222609Y-111823632D01*
X123061813Y-111933259D01*
X123865780Y-112737226D01*
X123772412Y-112775901D01*
X123647075Y-112872075D01*
X123550901Y-112997411D01*
X123512226Y-113090780D01*
X122708452Y-112287006D01*
X122666457Y-112339667D01*
X122539058Y-112560328D01*
X122445973Y-112797505D01*
X122444600Y-112801956D01*
X122443432Y-112801595D01*
X122412026Y-112857726D01*
X122350360Y-112890575D01*
X122280724Y-112884871D01*
X122225226Y-112842423D01*
X122206581Y-112801587D01*
X122205878Y-112801804D01*
X122204509Y-112797369D01*
X122204508Y-112797363D01*
X122111393Y-112560112D01*
X121983959Y-112339388D01*
X121825050Y-112140123D01*
X121638217Y-111966768D01*
X121427634Y-111823195D01*
X121427631Y-111823194D01*
X121427629Y-111823192D01*
X121245698Y-111735579D01*
X121193839Y-111688757D01*
X121175500Y-111623859D01*
X121175500Y-111097487D01*
X121176561Y-111081301D01*
X121180682Y-111049999D01*
X121180682Y-111049998D01*
X121160044Y-110893239D01*
X121160044Y-110893238D01*
X121099536Y-110747159D01*
X121099535Y-110747158D01*
X121099535Y-110747157D01*
X121024987Y-110650003D01*
X121024970Y-110649983D01*
X121003281Y-110621717D01*
X120978233Y-110602497D01*
X120966039Y-110591803D01*
X116723199Y-106348964D01*
X116712504Y-106336769D01*
X116693283Y-106311719D01*
X116693282Y-106311718D01*
X116567841Y-106215464D01*
X116421762Y-106154956D01*
X116421760Y-106154955D01*
X116304361Y-106139500D01*
X116265000Y-106134318D01*
X116233697Y-106138439D01*
X116217513Y-106139500D01*
X115704213Y-106139500D01*
X115637174Y-106119815D01*
X115591419Y-106067011D01*
X115581475Y-105997853D01*
X115610500Y-105934297D01*
X115628727Y-105917124D01*
X115639649Y-105908742D01*
X115653282Y-105898282D01*
X115672509Y-105873223D01*
X115683190Y-105861043D01*
X118062062Y-103482171D01*
X118123383Y-103448688D01*
X118193075Y-103453672D01*
X118199471Y-103456397D01*
X118201991Y-103457387D01*
X118201993Y-103457387D01*
X118201996Y-103457389D01*
X118445542Y-103532513D01*
X118697565Y-103570500D01*
X118952435Y-103570500D01*
X119204458Y-103532513D01*
X119448004Y-103457389D01*
X119652429Y-103358943D01*
X119677626Y-103346809D01*
X119677626Y-103346808D01*
X119677634Y-103346805D01*
X119888217Y-103203232D01*
X120075050Y-103029877D01*
X120233959Y-102830612D01*
X120361393Y-102609888D01*
X120454508Y-102372637D01*
X120454510Y-102372624D01*
X120455878Y-102368196D01*
X120457324Y-102368642D01*
X120488213Y-102313412D01*
X120549873Y-102280552D01*
X120619510Y-102286243D01*
G37*
%TD.AperFunction*%
%TA.AperFunction,Conductor*%
G36*
X105830717Y-107360185D02*
G01*
X105876472Y-107412989D01*
X105886898Y-107450617D01*
X105894630Y-107519249D01*
X105954210Y-107689521D01*
X105954211Y-107689522D01*
X106050184Y-107842262D01*
X106177738Y-107969816D01*
X106330478Y-108065789D01*
X106500745Y-108125368D01*
X106587669Y-108135161D01*
X106652080Y-108162226D01*
X106661465Y-108170700D01*
X108101803Y-109611039D01*
X108112497Y-109623233D01*
X108131717Y-109648281D01*
X108159983Y-109669970D01*
X108160003Y-109669987D01*
X108257157Y-109744535D01*
X108257158Y-109744535D01*
X108257159Y-109744536D01*
X108403238Y-109805044D01*
X108481619Y-109815363D01*
X108559999Y-109825682D01*
X108560000Y-109825682D01*
X108591302Y-109821560D01*
X108607487Y-109820500D01*
X110542588Y-109820500D01*
X110609627Y-109840185D01*
X110619903Y-109847555D01*
X110622736Y-109849814D01*
X110622738Y-109849816D01*
X110775478Y-109945789D01*
X110809901Y-109957834D01*
X110945745Y-110005368D01*
X110945750Y-110005369D01*
X111124996Y-110025565D01*
X111125000Y-110025565D01*
X111125004Y-110025565D01*
X111304249Y-110005369D01*
X111304252Y-110005368D01*
X111304255Y-110005368D01*
X111474522Y-109945789D01*
X111627262Y-109849816D01*
X111754816Y-109722262D01*
X111850789Y-109569522D01*
X111910368Y-109399255D01*
X111930565Y-109220000D01*
X111910801Y-109044592D01*
X111910369Y-109040750D01*
X111910368Y-109040745D01*
X111850788Y-108870476D01*
X111754815Y-108717737D01*
X111627262Y-108590184D01*
X111474523Y-108494211D01*
X111304254Y-108434631D01*
X111304249Y-108434630D01*
X111125004Y-108414435D01*
X111124996Y-108414435D01*
X110945750Y-108434630D01*
X110945745Y-108434631D01*
X110775476Y-108494211D01*
X110622736Y-108590185D01*
X110619903Y-108592445D01*
X110617724Y-108593334D01*
X110616842Y-108593889D01*
X110616744Y-108593734D01*
X110555217Y-108618855D01*
X110542588Y-108619500D01*
X108860098Y-108619500D01*
X108793059Y-108599815D01*
X108772417Y-108583181D01*
X108283785Y-108094549D01*
X107741415Y-107552180D01*
X107707931Y-107490858D01*
X107712915Y-107421166D01*
X107754787Y-107365233D01*
X107820251Y-107340816D01*
X107829097Y-107340500D01*
X115964903Y-107340500D01*
X116031942Y-107360185D01*
X116052584Y-107376819D01*
X119938181Y-111262416D01*
X119971666Y-111323739D01*
X119974500Y-111350097D01*
X119974500Y-111623859D01*
X119954815Y-111690898D01*
X119904302Y-111735579D01*
X119722370Y-111823192D01*
X119511782Y-111966768D01*
X119324952Y-112140121D01*
X119324950Y-112140123D01*
X119166041Y-112339388D01*
X119038608Y-112560109D01*
X118945492Y-112797362D01*
X118944122Y-112801804D01*
X118942677Y-112801358D01*
X118911780Y-112856593D01*
X118850117Y-112889449D01*
X118780480Y-112883752D01*
X118724978Y-112841311D01*
X118706805Y-112801517D01*
X118705878Y-112801804D01*
X118704509Y-112797369D01*
X118704508Y-112797363D01*
X118611393Y-112560112D01*
X118483959Y-112339388D01*
X118325050Y-112140123D01*
X118138217Y-111966768D01*
X117927634Y-111823195D01*
X117927628Y-111823192D01*
X117927627Y-111823191D01*
X117927626Y-111823190D01*
X117698006Y-111712612D01*
X117698008Y-111712612D01*
X117454466Y-111637489D01*
X117454462Y-111637488D01*
X117454458Y-111637487D01*
X117333231Y-111619214D01*
X117202440Y-111599500D01*
X117202435Y-111599500D01*
X116947565Y-111599500D01*
X116947559Y-111599500D01*
X116790609Y-111623157D01*
X116695542Y-111637487D01*
X116695539Y-111637488D01*
X116695533Y-111637489D01*
X116451992Y-111712612D01*
X116222373Y-111823190D01*
X116222372Y-111823191D01*
X116011782Y-111966768D01*
X115824952Y-112140121D01*
X115824950Y-112140123D01*
X115666041Y-112339388D01*
X115538608Y-112560109D01*
X115445492Y-112797362D01*
X115444122Y-112801804D01*
X115442677Y-112801358D01*
X115411780Y-112856593D01*
X115350117Y-112889449D01*
X115280480Y-112883752D01*
X115224978Y-112841311D01*
X115206805Y-112801517D01*
X115205878Y-112801804D01*
X115204509Y-112797369D01*
X115204508Y-112797363D01*
X115111393Y-112560112D01*
X114983959Y-112339388D01*
X114825050Y-112140123D01*
X114638217Y-111966768D01*
X114427634Y-111823195D01*
X114427631Y-111823194D01*
X114427629Y-111823192D01*
X114245887Y-111735670D01*
X114194028Y-111688848D01*
X114176750Y-111640135D01*
X114176465Y-111637973D01*
X114160044Y-111513238D01*
X114099536Y-111367159D01*
X114065742Y-111323118D01*
X114003282Y-111241718D01*
X113983924Y-111226864D01*
X113978228Y-111222493D01*
X113966034Y-111211799D01*
X113488199Y-110733964D01*
X113477504Y-110721769D01*
X113458283Y-110696719D01*
X113401586Y-110653214D01*
X113332841Y-110600464D01*
X113325808Y-110597551D01*
X113186762Y-110539956D01*
X113186760Y-110539955D01*
X113030001Y-110519318D01*
X113030000Y-110519318D01*
X112998697Y-110523439D01*
X112982513Y-110524500D01*
X104764387Y-110524500D01*
X104748202Y-110523439D01*
X104716900Y-110519318D01*
X104716899Y-110519318D01*
X104560139Y-110539955D01*
X104560137Y-110539956D01*
X104414057Y-110600464D01*
X104288618Y-110696716D01*
X104269389Y-110721775D01*
X104258698Y-110733965D01*
X104063961Y-110928702D01*
X104002638Y-110962187D01*
X103932946Y-110957203D01*
X103888599Y-110928703D01*
X103853133Y-110893237D01*
X103741401Y-110781505D01*
X103741397Y-110781502D01*
X103741396Y-110781501D01*
X103555842Y-110651575D01*
X103512217Y-110596998D01*
X103505023Y-110527500D01*
X103536546Y-110465145D01*
X103555842Y-110448425D01*
X103578026Y-110432891D01*
X103741401Y-110318495D01*
X103908495Y-110151401D01*
X104044035Y-109957830D01*
X104143903Y-109743663D01*
X104205063Y-109515408D01*
X104225659Y-109280000D01*
X104205063Y-109044592D01*
X104143903Y-108816337D01*
X104044035Y-108602171D01*
X104044034Y-108602169D01*
X103908494Y-108408597D01*
X103741402Y-108241506D01*
X103741396Y-108241501D01*
X103555842Y-108111575D01*
X103512217Y-108056998D01*
X103505023Y-107987500D01*
X103536546Y-107925145D01*
X103555842Y-107908425D01*
X103650332Y-107842262D01*
X103741401Y-107778495D01*
X103908495Y-107611401D01*
X104044035Y-107417830D01*
X104046707Y-107412097D01*
X104092878Y-107359658D01*
X104159091Y-107340500D01*
X105763678Y-107340500D01*
X105830717Y-107360185D01*
G37*
%TD.AperFunction*%
%TA.AperFunction,Conductor*%
G36*
X131119510Y-102286243D02*
G01*
X131175016Y-102328680D01*
X131193192Y-102368482D01*
X131194122Y-102368196D01*
X131195490Y-102372630D01*
X131195492Y-102372637D01*
X131268196Y-102557883D01*
X131288608Y-102609890D01*
X131299888Y-102629427D01*
X131416041Y-102830612D01*
X131574950Y-103029877D01*
X131761783Y-103203232D01*
X131972366Y-103346805D01*
X131972371Y-103346807D01*
X131972372Y-103346808D01*
X131972373Y-103346809D01*
X132070984Y-103394297D01*
X132201992Y-103457387D01*
X132201993Y-103457387D01*
X132201996Y-103457389D01*
X132445542Y-103532513D01*
X132697565Y-103570500D01*
X132952435Y-103570500D01*
X133204458Y-103532513D01*
X133448004Y-103457389D01*
X133652429Y-103358943D01*
X133677626Y-103346809D01*
X133677626Y-103346808D01*
X133677634Y-103346805D01*
X133888217Y-103203232D01*
X134075050Y-103029877D01*
X134233959Y-102830612D01*
X134361393Y-102609888D01*
X134385212Y-102549197D01*
X134428028Y-102493984D01*
X134493897Y-102470683D01*
X134500640Y-102470500D01*
X136248003Y-102470500D01*
X136315042Y-102490185D01*
X136335684Y-102506819D01*
X138419899Y-104591034D01*
X138430593Y-104603228D01*
X138449818Y-104628282D01*
X138495926Y-104663661D01*
X138495927Y-104663663D01*
X138556800Y-104710371D01*
X138575259Y-104724536D01*
X138575261Y-104724536D01*
X138575263Y-104724538D01*
X138648298Y-104754790D01*
X138721338Y-104785044D01*
X138751225Y-104788978D01*
X138815121Y-104817243D01*
X138847423Y-104859512D01*
X138855964Y-104877829D01*
X138855965Y-104877831D01*
X138991501Y-105071395D01*
X138991506Y-105071402D01*
X139158597Y-105238493D01*
X139158603Y-105238498D01*
X139344594Y-105368730D01*
X139388219Y-105423307D01*
X139395413Y-105492805D01*
X139363890Y-105555160D01*
X139344595Y-105571880D01*
X139158922Y-105701890D01*
X139158920Y-105701891D01*
X138991891Y-105868920D01*
X138991886Y-105868926D01*
X138856400Y-106062420D01*
X138856399Y-106062422D01*
X138756570Y-106276507D01*
X138756567Y-106276513D01*
X138699364Y-106489999D01*
X138699364Y-106490000D01*
X139596314Y-106490000D01*
X139570507Y-106530156D01*
X139530000Y-106668111D01*
X139530000Y-106811889D01*
X139570507Y-106949844D01*
X139596314Y-106990000D01*
X138699364Y-106990000D01*
X138756567Y-107203486D01*
X138756570Y-107203492D01*
X138856399Y-107417578D01*
X138991894Y-107611082D01*
X139158917Y-107778105D01*
X139344595Y-107908119D01*
X139388219Y-107962696D01*
X139395412Y-108032195D01*
X139363890Y-108094549D01*
X139344595Y-108111269D01*
X139158594Y-108241508D01*
X138991506Y-108408596D01*
X138855965Y-108602170D01*
X138855962Y-108602175D01*
X138853289Y-108607909D01*
X138807115Y-108660346D01*
X138740909Y-108679500D01*
X130035098Y-108679500D01*
X129968059Y-108659815D01*
X129947417Y-108643181D01*
X127424051Y-106119815D01*
X124868607Y-103564372D01*
X124835123Y-103503050D01*
X124840107Y-103433358D01*
X124881979Y-103377425D01*
X124947443Y-103353008D01*
X125010089Y-103364971D01*
X125201996Y-103457389D01*
X125445542Y-103532513D01*
X125697565Y-103570500D01*
X125952435Y-103570500D01*
X126204458Y-103532513D01*
X126448004Y-103457389D01*
X126652429Y-103358943D01*
X126677626Y-103346809D01*
X126677626Y-103346808D01*
X126677634Y-103346805D01*
X126888217Y-103203232D01*
X127075050Y-103029877D01*
X127233959Y-102830612D01*
X127361393Y-102609888D01*
X127454508Y-102372637D01*
X127454510Y-102372624D01*
X127455878Y-102368196D01*
X127457324Y-102368642D01*
X127488213Y-102313412D01*
X127549873Y-102280552D01*
X127619510Y-102286243D01*
X127675016Y-102328680D01*
X127693192Y-102368482D01*
X127694122Y-102368196D01*
X127695490Y-102372630D01*
X127695492Y-102372637D01*
X127768196Y-102557883D01*
X127788608Y-102609890D01*
X127799888Y-102629427D01*
X127916041Y-102830612D01*
X128074950Y-103029877D01*
X128261783Y-103203232D01*
X128472366Y-103346805D01*
X128472371Y-103346807D01*
X128472372Y-103346808D01*
X128472373Y-103346809D01*
X128570984Y-103394297D01*
X128701992Y-103457387D01*
X128701993Y-103457387D01*
X128701996Y-103457389D01*
X128945542Y-103532513D01*
X129197565Y-103570500D01*
X129452435Y-103570500D01*
X129704458Y-103532513D01*
X129948004Y-103457389D01*
X130152429Y-103358943D01*
X130177626Y-103346809D01*
X130177626Y-103346808D01*
X130177634Y-103346805D01*
X130388217Y-103203232D01*
X130575050Y-103029877D01*
X130733959Y-102830612D01*
X130861393Y-102609888D01*
X130954508Y-102372637D01*
X130954510Y-102372624D01*
X130955878Y-102368196D01*
X130957324Y-102368642D01*
X130988213Y-102313412D01*
X131049873Y-102280552D01*
X131119510Y-102286243D01*
G37*
%TD.AperFunction*%
%TD*%
M02*
