M48
; DRILL file {KiCad 7.0.11+dfsg-1build4} date lun 08 jun 2026 00:17:47
; FORMAT={-:-/ absolute / metric / decimal}
; #@! TF.CreationDate,2026-06-08T00:17:47-05:00
; #@! TF.GenerationSoftware,Kicad,Pcbnew,7.0.11+dfsg-1build4
; #@! TF.FileFunction,Plated,1,2,PTH
FMAT,2
METRIC
; #@! TA.AperFunction,Plated,PTH,ViaDrill
T1C0.300
; #@! TA.AperFunction,Plated,PTH,ComponentDrill
T2C1.000
; #@! TA.AperFunction,Plated,PTH,ComponentDrill
T3C1.200
%
G90
G05
T1
X105.334Y-113.386
X105.435Y-115.976
X105.862Y-110.18
X131.699Y-108.68
X137.16Y-105.359
X137.49Y-109.88
T2
X103.12Y-101.66
X103.12Y-104.2
X103.12Y-106.74
X103.12Y-109.28
X103.12Y-111.82
X103.12Y-114.36
X103.12Y-116.9
X103.12Y-119.44
X139.78Y-101.66
X139.78Y-104.2
X139.78Y-106.74
X139.78Y-109.28
X139.78Y-111.82
X139.78Y-114.36
X139.78Y-116.9
X139.78Y-119.44
T3
X108.325Y-101.87
X109.2Y-105.562
X110.075Y-113.3
X111.825Y-101.87
X112.7Y-105.562
X113.575Y-113.3
X115.325Y-101.87
X116.2Y-105.562
X117.075Y-113.3
X118.825Y-101.87
X119.7Y-105.562
X120.575Y-113.3
X122.325Y-101.87
X123.2Y-105.562
X124.075Y-113.3
X125.825Y-101.87
X126.7Y-105.562
X127.575Y-113.3
X129.325Y-101.87
X130.2Y-105.562
X131.075Y-113.3
X132.825Y-101.87
X133.7Y-105.562
X134.575Y-113.3
M30
