%TF.GenerationSoftware,KiCad,Pcbnew,7.0.11+dfsg-1build4*%
%TF.CreationDate,2026-05-06T20:51:07-05:00*%
%TF.ProjectId,panel-mount-oled-display-connector-board,70616e65-6c2d-46d6-9f75-6e742d6f6c65,rev?*%
%TF.SameCoordinates,Original*%
%TF.FileFunction,Copper,L2,Bot*%
%TF.FilePolarity,Positive*%
%FSLAX46Y46*%
G04 Gerber Fmt 4.6, Leading zero omitted, Abs format (unit mm)*
G04 Created by KiCad (PCBNEW 7.0.11+dfsg-1build4) date 2026-05-06 20:51:07*
%MOMM*%
%LPD*%
G01*
G04 APERTURE LIST*
%TA.AperFunction,ComponentPad*%
%ADD10R,1.700000X1.700000*%
%TD*%
%TA.AperFunction,ComponentPad*%
%ADD11O,1.700000X1.700000*%
%TD*%
%TA.AperFunction,ComponentPad*%
%ADD12C,2.400000*%
%TD*%
%TA.AperFunction,ComponentPad*%
%ADD13R,2.400000X2.400000*%
%TD*%
%TA.AperFunction,ViaPad*%
%ADD14C,0.600000*%
%TD*%
%TA.AperFunction,Conductor*%
%ADD15C,0.200000*%
%TD*%
G04 APERTURE END LIST*
D10*
%TO.P,J1,1,Pin_1*%
%TO.N,/D4K*%
X102870000Y-101660000D03*
D11*
%TO.P,J1,2,Pin_2*%
%TO.N,/D4A*%
X102870000Y-104200000D03*
%TO.P,J1,3,Pin_3*%
%TO.N,/VCC*%
X102870000Y-106740000D03*
%TO.P,J1,4,Pin_4*%
%TO.N,/SCL*%
X102870000Y-109280000D03*
%TO.P,J1,5,Pin_5*%
%TO.N,/D5K*%
X102870000Y-111820000D03*
%TO.P,J1,6,Pin_6*%
%TO.N,/D5A*%
X102870000Y-114360000D03*
%TO.P,J1,7,Pin_7*%
%TO.N,/D6K*%
X102870000Y-116900000D03*
%TO.P,J1,8,Pin_8*%
%TO.N,/D6A*%
X102870000Y-119440000D03*
%TD*%
D12*
%TO.P,J3,16,Pin_16*%
%TO.N,/D1A*%
X132825000Y-101870000D03*
%TO.P,J3,15,Pin_15*%
%TO.N,/D1K*%
X134575000Y-113300000D03*
%TO.P,J3,14,Pin_14*%
%TO.N,/D2A*%
X129325000Y-101870000D03*
%TO.P,J3,13,Pin_13*%
%TO.N,/D2K*%
X131075000Y-113300000D03*
%TO.P,J3,12,Pin_12*%
%TO.N,/D3A*%
X125825000Y-101870000D03*
%TO.P,J3,11,Pin_11*%
%TO.N,/D3K*%
X127575000Y-113300000D03*
%TO.P,J3,10,Pin_10*%
%TO.N,/SDA*%
X122325000Y-101870000D03*
%TO.P,J3,9,Pin_9*%
%TO.N,GND*%
X124075000Y-113300000D03*
%TO.P,J3,8,Pin_8*%
%TO.N,/SCL*%
X118825000Y-101870000D03*
%TO.P,J3,7,Pin_7*%
%TO.N,/VCC*%
X120575000Y-113300000D03*
%TO.P,J3,6,Pin_6*%
%TO.N,/D4A*%
X115325000Y-101870000D03*
%TO.P,J3,5,Pin_5*%
%TO.N,/D4K*%
X117075000Y-113300000D03*
%TO.P,J3,4,Pin_4*%
%TO.N,/D5A*%
X111825000Y-101870000D03*
%TO.P,J3,3,Pin_3*%
%TO.N,/D5K*%
X113575000Y-113300000D03*
%TO.P,J3,2,Pin_2*%
%TO.N,/D6A*%
X108325000Y-101870000D03*
D13*
%TO.P,J3,1,Pin_1*%
%TO.N,/D6K*%
X110075000Y-113300000D03*
%TD*%
D10*
%TO.P,J2,1,Pin_1*%
%TO.N,/D1K*%
X140030000Y-101660000D03*
D11*
%TO.P,J2,2,Pin_2*%
%TO.N,/D1A*%
X140030000Y-104200000D03*
%TO.P,J2,3,Pin_3*%
%TO.N,GND*%
X140030000Y-106740000D03*
%TO.P,J2,4,Pin_4*%
%TO.N,/SDA*%
X140030000Y-109280000D03*
%TO.P,J2,5,Pin_5*%
%TO.N,/D2K*%
X140030000Y-111820000D03*
%TO.P,J2,6,Pin_6*%
%TO.N,/D2A*%
X140030000Y-114360000D03*
%TO.P,J2,7,Pin_7*%
%TO.N,/D3K*%
X140030000Y-116900000D03*
%TO.P,J2,8,Pin_8*%
%TO.N,/D3A*%
X140030000Y-119440000D03*
%TD*%
D14*
%TO.N,GND*%
X129540000Y-104140000D03*
X135890000Y-110490000D03*
X137795000Y-113030000D03*
X138430000Y-107950000D03*
X137160000Y-104775000D03*
X132080000Y-111125000D03*
X131445000Y-107950000D03*
X118110000Y-109855000D03*
X112395000Y-107950000D03*
X114935000Y-111125000D03*
X109855000Y-109855000D03*
X135255000Y-102870000D03*
X128270000Y-105410000D03*
X121285000Y-109855000D03*
X124460000Y-106045000D03*
X118110000Y-106045000D03*
X125730000Y-115570000D03*
X118745000Y-115570000D03*
X111760000Y-115570000D03*
X129540000Y-120015000D03*
X118110000Y-120015000D03*
X107315000Y-120015000D03*
X128270000Y-106680000D03*
%TO.N,/SCL*%
X105410000Y-106045000D03*
%TO.N,/D4K*%
X111125000Y-109220000D03*
X106680000Y-107340000D03*
%TO.N,/D6A*%
X105410000Y-112398100D03*
X106680000Y-113030000D03*
%TD*%
D15*
%TO.N,/D2A*%
X140030000Y-114360000D02*
X138878100Y-114360000D01*
X132825000Y-115680000D02*
X132825000Y-105370000D01*
X138878100Y-114360000D02*
X137033100Y-116205000D01*
X133350000Y-116205000D02*
X132825000Y-115680000D01*
X137033100Y-116205000D02*
X133350000Y-116205000D01*
X132825000Y-105370000D02*
X129325000Y-101870000D01*
%TO.N,/D4K*%
X111125000Y-109220000D02*
X114935000Y-109220000D01*
X114935000Y-109220000D02*
X117075000Y-111360000D01*
X117075000Y-111360000D02*
X117075000Y-113300000D01*
%TO.N,GND*%
X124075000Y-113300000D02*
X124075000Y-110875000D01*
X124075000Y-110875000D02*
X128270000Y-106680000D01*
%TO.N,/SCL*%
X104775000Y-106680000D02*
X105410000Y-106045000D01*
X102870000Y-109280000D02*
X104080000Y-109280000D01*
X104775000Y-108585000D02*
X104775000Y-106680000D01*
X104080000Y-109280000D02*
X104775000Y-108585000D01*
%TO.N,/D4K*%
X104200000Y-101660000D02*
X106045000Y-103505000D01*
X104021900Y-101660000D02*
X104200000Y-101660000D01*
X106045000Y-103505000D02*
X106680000Y-104140000D01*
X106680000Y-104140000D02*
X106680000Y-107340000D01*
%TO.N,/D6A*%
X105350000Y-119440000D02*
X106680000Y-118110000D01*
X102870000Y-119440000D02*
X105350000Y-119440000D01*
X106680000Y-118110000D02*
X106680000Y-113030000D01*
X105410000Y-112398100D02*
X105410000Y-110490000D01*
X105410000Y-110490000D02*
X108325000Y-107575000D01*
%TO.N,/D1K*%
X140030000Y-101660000D02*
X139970000Y-101600000D01*
X139970000Y-101600000D02*
X138430000Y-101600000D01*
X138430000Y-101600000D02*
X134575000Y-105455000D01*
X134575000Y-105455000D02*
X134575000Y-113300000D01*
%TO.N,/D3A*%
X125825000Y-101870000D02*
X129325100Y-105370100D01*
X129325100Y-105370100D02*
X129325100Y-115355100D01*
X129325100Y-115355100D02*
X133410000Y-119440000D01*
X133410000Y-119440000D02*
X140030000Y-119440000D01*
%TO.N,/D6A*%
X108325000Y-101870000D02*
X108325000Y-107575000D01*
%TO.N,/D5A*%
X111825000Y-101870000D02*
X111825000Y-106615000D01*
X106045000Y-112395000D02*
X106045000Y-113208100D01*
X111825000Y-106615000D02*
X106045000Y-112395000D01*
X106045000Y-113208100D02*
X104893100Y-114360000D01*
X104893100Y-114360000D02*
X102870000Y-114360000D01*
%TO.N,/D4K*%
X102870000Y-101660000D02*
X104021900Y-101660000D01*
%TD*%
%TA.AperFunction,Conductor*%
%TO.N,GND*%
G36*
X110243041Y-109148706D02*
G01*
X110298974Y-109190578D01*
X110322927Y-109251004D01*
X110339630Y-109399250D01*
X110339631Y-109399254D01*
X110399211Y-109569523D01*
X110470661Y-109683234D01*
X110495184Y-109722262D01*
X110622738Y-109849816D01*
X110775478Y-109945789D01*
X110809901Y-109957834D01*
X110945745Y-110005368D01*
X110945750Y-110005369D01*
X111124996Y-110025565D01*
X111125000Y-110025565D01*
X111125004Y-110025565D01*
X111304249Y-110005369D01*
X111304252Y-110005368D01*
X111304255Y-110005368D01*
X111474522Y-109945789D01*
X111627262Y-109849816D01*
X111627267Y-109849810D01*
X111630097Y-109847555D01*
X111632275Y-109846665D01*
X111633158Y-109846111D01*
X111633255Y-109846265D01*
X111694783Y-109821145D01*
X111707412Y-109820500D01*
X114634903Y-109820500D01*
X114701942Y-109840185D01*
X114722584Y-109856819D01*
X116413722Y-111547957D01*
X116447207Y-111609280D01*
X116442223Y-111678972D01*
X116400351Y-111734905D01*
X116379843Y-111747358D01*
X116222370Y-111823192D01*
X116011782Y-111966768D01*
X115824952Y-112140121D01*
X115824950Y-112140123D01*
X115666041Y-112339388D01*
X115538608Y-112560109D01*
X115445492Y-112797362D01*
X115444122Y-112801804D01*
X115442677Y-112801358D01*
X115411780Y-112856593D01*
X115350117Y-112889449D01*
X115280480Y-112883752D01*
X115224978Y-112841311D01*
X115206805Y-112801517D01*
X115205878Y-112801804D01*
X115204509Y-112797369D01*
X115204508Y-112797363D01*
X115111393Y-112560112D01*
X114983959Y-112339388D01*
X114825050Y-112140123D01*
X114638217Y-111966768D01*
X114427634Y-111823195D01*
X114427628Y-111823192D01*
X114427627Y-111823191D01*
X114427626Y-111823190D01*
X114198006Y-111712612D01*
X114198008Y-111712612D01*
X113954466Y-111637489D01*
X113954462Y-111637488D01*
X113954458Y-111637487D01*
X113833231Y-111619214D01*
X113702440Y-111599500D01*
X113702435Y-111599500D01*
X113447565Y-111599500D01*
X113447559Y-111599500D01*
X113290609Y-111623157D01*
X113195542Y-111637487D01*
X113195539Y-111637488D01*
X113195533Y-111637489D01*
X112951992Y-111712612D01*
X112722373Y-111823190D01*
X112722372Y-111823191D01*
X112511782Y-111966768D01*
X112324952Y-112140121D01*
X112324950Y-112140123D01*
X112166041Y-112339388D01*
X112038608Y-112560109D01*
X112014927Y-112620447D01*
X111972110Y-112675661D01*
X111906240Y-112698961D01*
X111838230Y-112682950D01*
X111789672Y-112632711D01*
X111775499Y-112575144D01*
X111775499Y-112052129D01*
X111775498Y-112052123D01*
X111775497Y-112052116D01*
X111769091Y-111992517D01*
X111759487Y-111966768D01*
X111718797Y-111857671D01*
X111718793Y-111857664D01*
X111632547Y-111742455D01*
X111632544Y-111742452D01*
X111517335Y-111656206D01*
X111517328Y-111656202D01*
X111382482Y-111605908D01*
X111382483Y-111605908D01*
X111322883Y-111599501D01*
X111322881Y-111599500D01*
X111322873Y-111599500D01*
X111322864Y-111599500D01*
X108827129Y-111599500D01*
X108827123Y-111599501D01*
X108767516Y-111605908D01*
X108632671Y-111656202D01*
X108632664Y-111656206D01*
X108517455Y-111742452D01*
X108517452Y-111742455D01*
X108431206Y-111857664D01*
X108431202Y-111857671D01*
X108380908Y-111992517D01*
X108374501Y-112052116D01*
X108374501Y-112052123D01*
X108374500Y-112052135D01*
X108374500Y-114547870D01*
X108374501Y-114547876D01*
X108380908Y-114607483D01*
X108431202Y-114742328D01*
X108431206Y-114742335D01*
X108517452Y-114857544D01*
X108517454Y-114857546D01*
X108632664Y-114943793D01*
X108632671Y-114943797D01*
X108767517Y-114994091D01*
X108767516Y-114994091D01*
X108774444Y-114994835D01*
X108827127Y-115000500D01*
X111322872Y-115000499D01*
X111382483Y-114994091D01*
X111517331Y-114943796D01*
X111632546Y-114857546D01*
X111718796Y-114742331D01*
X111769091Y-114607483D01*
X111775500Y-114547873D01*
X111775499Y-114024854D01*
X111795183Y-113957818D01*
X111847987Y-113912063D01*
X111917146Y-113902119D01*
X111980702Y-113931144D01*
X112014927Y-113979553D01*
X112038607Y-114039888D01*
X112166041Y-114260612D01*
X112324950Y-114459877D01*
X112511783Y-114633232D01*
X112722366Y-114776805D01*
X112722371Y-114776807D01*
X112722372Y-114776808D01*
X112722373Y-114776809D01*
X112839274Y-114833105D01*
X112951992Y-114887387D01*
X112951993Y-114887387D01*
X112951996Y-114887389D01*
X113195542Y-114962513D01*
X113447565Y-115000500D01*
X113702435Y-115000500D01*
X113954458Y-114962513D01*
X114198004Y-114887389D01*
X114427634Y-114776805D01*
X114638217Y-114633232D01*
X114825050Y-114459877D01*
X114983959Y-114260612D01*
X115111393Y-114039888D01*
X115204508Y-113802637D01*
X115204510Y-113802624D01*
X115205878Y-113798196D01*
X115207324Y-113798642D01*
X115238213Y-113743412D01*
X115299873Y-113710552D01*
X115369510Y-113716243D01*
X115425016Y-113758680D01*
X115443192Y-113798482D01*
X115444122Y-113798196D01*
X115445490Y-113802630D01*
X115445492Y-113802637D01*
X115538607Y-114039888D01*
X115666041Y-114260612D01*
X115824950Y-114459877D01*
X116011783Y-114633232D01*
X116222366Y-114776805D01*
X116222371Y-114776807D01*
X116222372Y-114776808D01*
X116222373Y-114776809D01*
X116339274Y-114833105D01*
X116451992Y-114887387D01*
X116451993Y-114887387D01*
X116451996Y-114887389D01*
X116695542Y-114962513D01*
X116947565Y-115000500D01*
X117202435Y-115000500D01*
X117454458Y-114962513D01*
X117698004Y-114887389D01*
X117927634Y-114776805D01*
X118138217Y-114633232D01*
X118325050Y-114459877D01*
X118483959Y-114260612D01*
X118611393Y-114039888D01*
X118704508Y-113802637D01*
X118704510Y-113802624D01*
X118705878Y-113798196D01*
X118707324Y-113798642D01*
X118738213Y-113743412D01*
X118799873Y-113710552D01*
X118869510Y-113716243D01*
X118925016Y-113758680D01*
X118943192Y-113798482D01*
X118944122Y-113798196D01*
X118945490Y-113802630D01*
X118945492Y-113802637D01*
X119038607Y-114039888D01*
X119166041Y-114260612D01*
X119324950Y-114459877D01*
X119511783Y-114633232D01*
X119722366Y-114776805D01*
X119722371Y-114776807D01*
X119722372Y-114776808D01*
X119722373Y-114776809D01*
X119839274Y-114833105D01*
X119951992Y-114887387D01*
X119951993Y-114887387D01*
X119951996Y-114887389D01*
X120195542Y-114962513D01*
X120447565Y-115000500D01*
X120702435Y-115000500D01*
X120954458Y-114962513D01*
X121198004Y-114887389D01*
X121427634Y-114776805D01*
X121638217Y-114633232D01*
X121825050Y-114459877D01*
X121983959Y-114260612D01*
X122111393Y-114039888D01*
X122204508Y-113802637D01*
X122204510Y-113802624D01*
X122205878Y-113798196D01*
X122207008Y-113798544D01*
X122238464Y-113742295D01*
X122300121Y-113709430D01*
X122369759Y-113715117D01*
X122425268Y-113757551D01*
X122443868Y-113798269D01*
X122444600Y-113798044D01*
X122445973Y-113802494D01*
X122539058Y-114039671D01*
X122539057Y-114039671D01*
X122666454Y-114260327D01*
X122666461Y-114260338D01*
X122708452Y-114312991D01*
X122708453Y-114312992D01*
X123512226Y-113509219D01*
X123550901Y-113602588D01*
X123647075Y-113727925D01*
X123772412Y-113824099D01*
X123865779Y-113862772D01*
X123061813Y-114666738D01*
X123222616Y-114776371D01*
X123222624Y-114776376D01*
X123452176Y-114886921D01*
X123452174Y-114886921D01*
X123695652Y-114962024D01*
X123695658Y-114962026D01*
X123947595Y-114999999D01*
X123947604Y-115000000D01*
X124202396Y-115000000D01*
X124202404Y-114999999D01*
X124454341Y-114962026D01*
X124454347Y-114962024D01*
X124697824Y-114886921D01*
X124927376Y-114776376D01*
X124927377Y-114776375D01*
X125088185Y-114666738D01*
X124284220Y-113862772D01*
X124377588Y-113824099D01*
X124502925Y-113727925D01*
X124599099Y-113602589D01*
X124637773Y-113509220D01*
X125441544Y-114312992D01*
X125441546Y-114312991D01*
X125483544Y-114260330D01*
X125610941Y-114039671D01*
X125704026Y-113802494D01*
X125705400Y-113798044D01*
X125706574Y-113798406D01*
X125737945Y-113742300D01*
X125799601Y-113709432D01*
X125869239Y-113715115D01*
X125924750Y-113757545D01*
X125943420Y-113798412D01*
X125944122Y-113798196D01*
X125945490Y-113802630D01*
X125945492Y-113802637D01*
X126038607Y-114039888D01*
X126166041Y-114260612D01*
X126324950Y-114459877D01*
X126511783Y-114633232D01*
X126722366Y-114776805D01*
X126722371Y-114776807D01*
X126722372Y-114776808D01*
X126722373Y-114776809D01*
X126839274Y-114833105D01*
X126951992Y-114887387D01*
X126951993Y-114887387D01*
X126951996Y-114887389D01*
X127195542Y-114962513D01*
X127447565Y-115000500D01*
X127702435Y-115000500D01*
X127954458Y-114962513D01*
X128198004Y-114887389D01*
X128427634Y-114776805D01*
X128530751Y-114706501D01*
X128597228Y-114685002D01*
X128664778Y-114702856D01*
X128711952Y-114754396D01*
X128724600Y-114808956D01*
X128724600Y-115307612D01*
X128723539Y-115323797D01*
X128719418Y-115355098D01*
X128719418Y-115355100D01*
X128724600Y-115394460D01*
X128724600Y-115394461D01*
X128740055Y-115511860D01*
X128740056Y-115511862D01*
X128800564Y-115657941D01*
X128896818Y-115783382D01*
X128896819Y-115783383D01*
X128921869Y-115802604D01*
X128934064Y-115813299D01*
X132951799Y-119831034D01*
X132962493Y-119843228D01*
X132981718Y-119868282D01*
X133027826Y-119903661D01*
X133027827Y-119903663D01*
X133088700Y-119950371D01*
X133107159Y-119964536D01*
X133107161Y-119964536D01*
X133107163Y-119964538D01*
X133180198Y-119994790D01*
X133253238Y-120025044D01*
X133331619Y-120035363D01*
X133409999Y-120045682D01*
X133410000Y-120045682D01*
X133441302Y-120041560D01*
X133457487Y-120040500D01*
X138740909Y-120040500D01*
X138807948Y-120060185D01*
X138853292Y-120112097D01*
X138855965Y-120117830D01*
X138855966Y-120117831D01*
X138991501Y-120311395D01*
X138991506Y-120311402D01*
X139067923Y-120387819D01*
X139101408Y-120449142D01*
X139096424Y-120518834D01*
X139054552Y-120574767D01*
X138989088Y-120599184D01*
X138980242Y-120599500D01*
X103919758Y-120599500D01*
X103852719Y-120579815D01*
X103806964Y-120527011D01*
X103797020Y-120457853D01*
X103826045Y-120394297D01*
X103832077Y-120387819D01*
X103908495Y-120311401D01*
X104044035Y-120117830D01*
X104046707Y-120112097D01*
X104092878Y-120059658D01*
X104159091Y-120040500D01*
X105302513Y-120040500D01*
X105318697Y-120041560D01*
X105350000Y-120045682D01*
X105350001Y-120045682D01*
X105402254Y-120038802D01*
X105506762Y-120025044D01*
X105652841Y-119964536D01*
X105732172Y-119903663D01*
X105778282Y-119868282D01*
X105797509Y-119843223D01*
X105808190Y-119831043D01*
X107071043Y-118568190D01*
X107083223Y-118557509D01*
X107108282Y-118538282D01*
X107204536Y-118412841D01*
X107265044Y-118266762D01*
X107280500Y-118149361D01*
X107285682Y-118110000D01*
X107281561Y-118078697D01*
X107280500Y-118062512D01*
X107280500Y-113612412D01*
X107300185Y-113545373D01*
X107307555Y-113535097D01*
X107309810Y-113532267D01*
X107309816Y-113532262D01*
X107405789Y-113379522D01*
X107465368Y-113209255D01*
X107468576Y-113180785D01*
X107485565Y-113030003D01*
X107485565Y-113029996D01*
X107465369Y-112850750D01*
X107465368Y-112850745D01*
X107448243Y-112801804D01*
X107405789Y-112680478D01*
X107402762Y-112675661D01*
X107339603Y-112575144D01*
X107309816Y-112527738D01*
X107182262Y-112400184D01*
X107182259Y-112400181D01*
X107133852Y-112369766D01*
X107087560Y-112317432D01*
X107076911Y-112248378D01*
X107105286Y-112184530D01*
X107112130Y-112177103D01*
X110112028Y-109177205D01*
X110173349Y-109143722D01*
X110243041Y-109148706D01*
G37*
%TD.AperFunction*%
%TA.AperFunction,Conductor*%
G36*
X138598835Y-102382914D02*
G01*
X138654768Y-102424786D01*
X138679185Y-102490250D01*
X138679501Y-102499096D01*
X138679501Y-102557876D01*
X138685908Y-102617483D01*
X138736202Y-102752328D01*
X138736206Y-102752335D01*
X138822452Y-102867544D01*
X138822455Y-102867547D01*
X138937664Y-102953793D01*
X138937671Y-102953797D01*
X139069081Y-103002810D01*
X139125015Y-103044681D01*
X139149432Y-103110145D01*
X139134580Y-103178418D01*
X139113430Y-103206673D01*
X138991503Y-103328600D01*
X138855965Y-103522169D01*
X138855964Y-103522171D01*
X138756098Y-103736335D01*
X138756094Y-103736344D01*
X138694938Y-103964586D01*
X138694936Y-103964596D01*
X138674341Y-104199999D01*
X138674341Y-104200000D01*
X138694936Y-104435403D01*
X138694938Y-104435413D01*
X138756094Y-104663655D01*
X138756096Y-104663659D01*
X138756097Y-104663663D01*
X138760500Y-104673105D01*
X138855965Y-104877830D01*
X138855967Y-104877834D01*
X138960215Y-105026715D01*
X138991505Y-105071401D01*
X139158599Y-105238495D01*
X139336330Y-105362944D01*
X139344594Y-105368730D01*
X139388219Y-105423307D01*
X139395413Y-105492805D01*
X139363890Y-105555160D01*
X139344595Y-105571880D01*
X139158922Y-105701890D01*
X139158920Y-105701891D01*
X138991891Y-105868920D01*
X138991886Y-105868926D01*
X138856400Y-106062420D01*
X138856399Y-106062422D01*
X138756570Y-106276507D01*
X138756567Y-106276513D01*
X138699364Y-106489999D01*
X138699364Y-106490000D01*
X139596314Y-106490000D01*
X139570507Y-106530156D01*
X139530000Y-106668111D01*
X139530000Y-106811889D01*
X139570507Y-106949844D01*
X139596314Y-106990000D01*
X138699364Y-106990000D01*
X138756567Y-107203486D01*
X138756570Y-107203492D01*
X138856399Y-107417578D01*
X138991894Y-107611082D01*
X139158917Y-107778105D01*
X139344595Y-107908119D01*
X139388219Y-107962696D01*
X139395412Y-108032195D01*
X139363890Y-108094549D01*
X139344595Y-108111269D01*
X139158594Y-108241508D01*
X138991505Y-108408597D01*
X138855965Y-108602169D01*
X138855964Y-108602171D01*
X138756098Y-108816335D01*
X138756094Y-108816344D01*
X138694938Y-109044586D01*
X138694936Y-109044596D01*
X138674341Y-109279999D01*
X138674341Y-109280000D01*
X138694936Y-109515403D01*
X138694938Y-109515413D01*
X138756094Y-109743655D01*
X138756096Y-109743659D01*
X138756097Y-109743663D01*
X138822322Y-109885682D01*
X138855965Y-109957830D01*
X138855967Y-109957834D01*
X138991501Y-110151395D01*
X138991506Y-110151402D01*
X139158597Y-110318493D01*
X139158603Y-110318498D01*
X139344158Y-110448425D01*
X139387783Y-110503002D01*
X139394977Y-110572500D01*
X139363454Y-110634855D01*
X139344158Y-110651575D01*
X139158597Y-110781505D01*
X138991505Y-110948597D01*
X138855965Y-111142169D01*
X138855964Y-111142171D01*
X138756098Y-111356335D01*
X138756094Y-111356344D01*
X138694938Y-111584586D01*
X138694936Y-111584596D01*
X138674341Y-111819999D01*
X138674341Y-111820000D01*
X138694936Y-112055403D01*
X138694938Y-112055413D01*
X138756094Y-112283655D01*
X138756096Y-112283659D01*
X138756097Y-112283663D01*
X138810432Y-112400184D01*
X138855965Y-112497830D01*
X138855967Y-112497834D01*
X138930870Y-112604805D01*
X138975016Y-112667853D01*
X138991501Y-112691395D01*
X138991506Y-112691402D01*
X139158597Y-112858493D01*
X139158603Y-112858498D01*
X139344158Y-112988425D01*
X139387783Y-113043002D01*
X139394977Y-113112500D01*
X139363454Y-113174855D01*
X139344158Y-113191575D01*
X139158597Y-113321505D01*
X138991505Y-113488597D01*
X138855965Y-113682169D01*
X138855964Y-113682171D01*
X138847421Y-113700491D01*
X138801246Y-113752928D01*
X138751230Y-113771020D01*
X138721338Y-113774956D01*
X138575260Y-113835463D01*
X138449814Y-113931721D01*
X138430595Y-113956769D01*
X138419900Y-113968964D01*
X136820684Y-115568181D01*
X136759361Y-115601666D01*
X136733003Y-115604500D01*
X133650097Y-115604500D01*
X133583058Y-115584815D01*
X133562416Y-115568181D01*
X133461819Y-115467584D01*
X133428334Y-115406261D01*
X133425500Y-115379903D01*
X133425500Y-114809024D01*
X133445185Y-114741985D01*
X133497989Y-114696230D01*
X133567147Y-114686286D01*
X133619351Y-114706570D01*
X133722366Y-114776805D01*
X133722368Y-114776806D01*
X133722373Y-114776809D01*
X133839274Y-114833105D01*
X133951992Y-114887387D01*
X133951993Y-114887387D01*
X133951996Y-114887389D01*
X134195542Y-114962513D01*
X134447565Y-115000500D01*
X134702435Y-115000500D01*
X134954458Y-114962513D01*
X135198004Y-114887389D01*
X135427634Y-114776805D01*
X135638217Y-114633232D01*
X135825050Y-114459877D01*
X135983959Y-114260612D01*
X136111393Y-114039888D01*
X136204508Y-113802637D01*
X136261222Y-113554157D01*
X136269384Y-113445232D01*
X136280268Y-113300004D01*
X136280268Y-113299995D01*
X136261222Y-113045845D01*
X136260573Y-113043002D01*
X136204508Y-112797363D01*
X136111393Y-112560112D01*
X135983959Y-112339388D01*
X135825050Y-112140123D01*
X135638217Y-111966768D01*
X135427634Y-111823195D01*
X135427630Y-111823193D01*
X135427629Y-111823192D01*
X135245698Y-111735579D01*
X135193839Y-111688757D01*
X135175500Y-111623859D01*
X135175500Y-105755097D01*
X135195185Y-105688058D01*
X135211819Y-105667416D01*
X138467820Y-102411415D01*
X138529143Y-102377930D01*
X138598835Y-102382914D01*
G37*
%TD.AperFunction*%
%TA.AperFunction,Conductor*%
G36*
X124119510Y-102286243D02*
G01*
X124175016Y-102328680D01*
X124193192Y-102368482D01*
X124194122Y-102368196D01*
X124195492Y-102372637D01*
X124288607Y-102609888D01*
X124416041Y-102830612D01*
X124574950Y-103029877D01*
X124761783Y-103203232D01*
X124972366Y-103346805D01*
X124972371Y-103346807D01*
X124972372Y-103346808D01*
X124972373Y-103346809D01*
X125094328Y-103405538D01*
X125201992Y-103457387D01*
X125201993Y-103457387D01*
X125201996Y-103457389D01*
X125445542Y-103532513D01*
X125697565Y-103570500D01*
X125952435Y-103570500D01*
X126204458Y-103532513D01*
X126448004Y-103457389D01*
X126448021Y-103457380D01*
X126452330Y-103455691D01*
X126452877Y-103457085D01*
X126515360Y-103446777D01*
X126579502Y-103474480D01*
X126587938Y-103482173D01*
X128688281Y-105582516D01*
X128721766Y-105643839D01*
X128724600Y-105670197D01*
X128724600Y-111791043D01*
X128704915Y-111858082D01*
X128652111Y-111903837D01*
X128582953Y-111913781D01*
X128530749Y-111893497D01*
X128427634Y-111823195D01*
X128427626Y-111823190D01*
X128198006Y-111712612D01*
X128198008Y-111712612D01*
X127954466Y-111637489D01*
X127954462Y-111637488D01*
X127954458Y-111637487D01*
X127833231Y-111619214D01*
X127702440Y-111599500D01*
X127702435Y-111599500D01*
X127447565Y-111599500D01*
X127447559Y-111599500D01*
X127290609Y-111623157D01*
X127195542Y-111637487D01*
X127195539Y-111637488D01*
X127195533Y-111637489D01*
X126951992Y-111712612D01*
X126722373Y-111823190D01*
X126722372Y-111823191D01*
X126511782Y-111966768D01*
X126324952Y-112140121D01*
X126324950Y-112140123D01*
X126166041Y-112339388D01*
X126038608Y-112560109D01*
X125945492Y-112797362D01*
X125944122Y-112801804D01*
X125942999Y-112801457D01*
X125911509Y-112857730D01*
X125849841Y-112890576D01*
X125780205Y-112884868D01*
X125724709Y-112842418D01*
X125706134Y-112801729D01*
X125705400Y-112801956D01*
X125704026Y-112797505D01*
X125610941Y-112560328D01*
X125610942Y-112560328D01*
X125483545Y-112339672D01*
X125441545Y-112287006D01*
X124637772Y-113090779D01*
X124599099Y-112997412D01*
X124502925Y-112872075D01*
X124377588Y-112775901D01*
X124284219Y-112737226D01*
X125088185Y-111933260D01*
X124927384Y-111823628D01*
X124927376Y-111823623D01*
X124697823Y-111713078D01*
X124697825Y-111713078D01*
X124454347Y-111637975D01*
X124454341Y-111637973D01*
X124202404Y-111600000D01*
X123947595Y-111600000D01*
X123695658Y-111637973D01*
X123695652Y-111637975D01*
X123452175Y-111713078D01*
X123222622Y-111823625D01*
X123222609Y-111823632D01*
X123061813Y-111933259D01*
X123865780Y-112737226D01*
X123772412Y-112775901D01*
X123647075Y-112872075D01*
X123550901Y-112997411D01*
X123512226Y-113090780D01*
X122708452Y-112287006D01*
X122666457Y-112339667D01*
X122539058Y-112560328D01*
X122445973Y-112797505D01*
X122444600Y-112801956D01*
X122443432Y-112801595D01*
X122412026Y-112857726D01*
X122350360Y-112890575D01*
X122280724Y-112884871D01*
X122225226Y-112842423D01*
X122206581Y-112801587D01*
X122205878Y-112801804D01*
X122204509Y-112797369D01*
X122204508Y-112797363D01*
X122111393Y-112560112D01*
X121983959Y-112339388D01*
X121825050Y-112140123D01*
X121638217Y-111966768D01*
X121427634Y-111823195D01*
X121427628Y-111823192D01*
X121427627Y-111823191D01*
X121427626Y-111823190D01*
X121198006Y-111712612D01*
X121198008Y-111712612D01*
X120954466Y-111637489D01*
X120954462Y-111637488D01*
X120954458Y-111637487D01*
X120833231Y-111619214D01*
X120702440Y-111599500D01*
X120702435Y-111599500D01*
X120447565Y-111599500D01*
X120447559Y-111599500D01*
X120290609Y-111623157D01*
X120195542Y-111637487D01*
X120195539Y-111637488D01*
X120195533Y-111637489D01*
X119951992Y-111712612D01*
X119722373Y-111823190D01*
X119722372Y-111823191D01*
X119511782Y-111966768D01*
X119324952Y-112140121D01*
X119324950Y-112140123D01*
X119166041Y-112339388D01*
X119038608Y-112560109D01*
X118945492Y-112797362D01*
X118944122Y-112801804D01*
X118942677Y-112801358D01*
X118911780Y-112856593D01*
X118850117Y-112889449D01*
X118780480Y-112883752D01*
X118724978Y-112841311D01*
X118706805Y-112801517D01*
X118705878Y-112801804D01*
X118704509Y-112797369D01*
X118704508Y-112797363D01*
X118611393Y-112560112D01*
X118483959Y-112339388D01*
X118325050Y-112140123D01*
X118138217Y-111966768D01*
X117927634Y-111823195D01*
X117927630Y-111823193D01*
X117927629Y-111823192D01*
X117745698Y-111735579D01*
X117693839Y-111688757D01*
X117675500Y-111623859D01*
X117675500Y-111407487D01*
X117676561Y-111391301D01*
X117680682Y-111359999D01*
X117680682Y-111359998D01*
X117660044Y-111203239D01*
X117660042Y-111203234D01*
X117599538Y-111057163D01*
X117599535Y-111057158D01*
X117527451Y-110963216D01*
X117527450Y-110963215D01*
X117513761Y-110945375D01*
X117503281Y-110931716D01*
X117478229Y-110912494D01*
X117466034Y-110901799D01*
X115393199Y-108828964D01*
X115382504Y-108816769D01*
X115363283Y-108791719D01*
X115363282Y-108791718D01*
X115237841Y-108695464D01*
X115091762Y-108634956D01*
X115091760Y-108634955D01*
X114935001Y-108614318D01*
X114935000Y-108614318D01*
X114903697Y-108618439D01*
X114887513Y-108619500D01*
X111707412Y-108619500D01*
X111640373Y-108599815D01*
X111630097Y-108592445D01*
X111627263Y-108590185D01*
X111627262Y-108590184D01*
X111556368Y-108545638D01*
X111474523Y-108494211D01*
X111304254Y-108434631D01*
X111304250Y-108434630D01*
X111156004Y-108417927D01*
X111091590Y-108390860D01*
X111052035Y-108333265D01*
X111049898Y-108263428D01*
X111082205Y-108207028D01*
X112216043Y-107073190D01*
X112228223Y-107062509D01*
X112253282Y-107043282D01*
X112349536Y-106917841D01*
X112410044Y-106771762D01*
X112425500Y-106654361D01*
X112430682Y-106615000D01*
X112430550Y-106614000D01*
X112426561Y-106583697D01*
X112425500Y-106567512D01*
X112425500Y-103546141D01*
X112445185Y-103479102D01*
X112495698Y-103434421D01*
X112612807Y-103378024D01*
X112677634Y-103346805D01*
X112888217Y-103203232D01*
X113075050Y-103029877D01*
X113233959Y-102830612D01*
X113361393Y-102609888D01*
X113454508Y-102372637D01*
X113454510Y-102372624D01*
X113455878Y-102368196D01*
X113457324Y-102368642D01*
X113488213Y-102313412D01*
X113549873Y-102280552D01*
X113619510Y-102286243D01*
X113675016Y-102328680D01*
X113693192Y-102368482D01*
X113694122Y-102368196D01*
X113695492Y-102372637D01*
X113788607Y-102609888D01*
X113916041Y-102830612D01*
X114074950Y-103029877D01*
X114261783Y-103203232D01*
X114472366Y-103346805D01*
X114472371Y-103346807D01*
X114472372Y-103346808D01*
X114472373Y-103346809D01*
X114594328Y-103405538D01*
X114701992Y-103457387D01*
X114701993Y-103457387D01*
X114701996Y-103457389D01*
X114945542Y-103532513D01*
X115197565Y-103570500D01*
X115452435Y-103570500D01*
X115704458Y-103532513D01*
X115948004Y-103457389D01*
X116152429Y-103358943D01*
X116177626Y-103346809D01*
X116177626Y-103346808D01*
X116177634Y-103346805D01*
X116388217Y-103203232D01*
X116575050Y-103029877D01*
X116733959Y-102830612D01*
X116861393Y-102609888D01*
X116954508Y-102372637D01*
X116954510Y-102372624D01*
X116955878Y-102368196D01*
X116957324Y-102368642D01*
X116988213Y-102313412D01*
X117049873Y-102280552D01*
X117119510Y-102286243D01*
X117175016Y-102328680D01*
X117193192Y-102368482D01*
X117194122Y-102368196D01*
X117195492Y-102372637D01*
X117288607Y-102609888D01*
X117416041Y-102830612D01*
X117574950Y-103029877D01*
X117761783Y-103203232D01*
X117972366Y-103346805D01*
X117972371Y-103346807D01*
X117972372Y-103346808D01*
X117972373Y-103346809D01*
X118094328Y-103405538D01*
X118201992Y-103457387D01*
X118201993Y-103457387D01*
X118201996Y-103457389D01*
X118445542Y-103532513D01*
X118697565Y-103570500D01*
X118952435Y-103570500D01*
X119204458Y-103532513D01*
X119448004Y-103457389D01*
X119652429Y-103358943D01*
X119677626Y-103346809D01*
X119677626Y-103346808D01*
X119677634Y-103346805D01*
X119888217Y-103203232D01*
X120075050Y-103029877D01*
X120233959Y-102830612D01*
X120361393Y-102609888D01*
X120454508Y-102372637D01*
X120454510Y-102372624D01*
X120455878Y-102368196D01*
X120457324Y-102368642D01*
X120488213Y-102313412D01*
X120549873Y-102280552D01*
X120619510Y-102286243D01*
X120675016Y-102328680D01*
X120693192Y-102368482D01*
X120694122Y-102368196D01*
X120695492Y-102372637D01*
X120788607Y-102609888D01*
X120916041Y-102830612D01*
X121074950Y-103029877D01*
X121261783Y-103203232D01*
X121472366Y-103346805D01*
X121472371Y-103346807D01*
X121472372Y-103346808D01*
X121472373Y-103346809D01*
X121594328Y-103405538D01*
X121701992Y-103457387D01*
X121701993Y-103457387D01*
X121701996Y-103457389D01*
X121945542Y-103532513D01*
X122197565Y-103570500D01*
X122452435Y-103570500D01*
X122704458Y-103532513D01*
X122948004Y-103457389D01*
X123152429Y-103358943D01*
X123177626Y-103346809D01*
X123177626Y-103346808D01*
X123177634Y-103346805D01*
X123388217Y-103203232D01*
X123575050Y-103029877D01*
X123733959Y-102830612D01*
X123861393Y-102609888D01*
X123954508Y-102372637D01*
X123954510Y-102372624D01*
X123955878Y-102368196D01*
X123957324Y-102368642D01*
X123988213Y-102313412D01*
X124049873Y-102280552D01*
X124119510Y-102286243D01*
G37*
%TD.AperFunction*%
%TA.AperFunction,Conductor*%
G36*
X138649702Y-100520185D02*
G01*
X138695457Y-100572989D01*
X138705401Y-100642147D01*
X138698845Y-100667833D01*
X138685908Y-100702517D01*
X138679501Y-100762116D01*
X138679501Y-100762123D01*
X138679500Y-100762135D01*
X138679500Y-100875500D01*
X138659815Y-100942539D01*
X138607011Y-100988294D01*
X138555500Y-100999500D01*
X138477487Y-100999500D01*
X138461302Y-100998439D01*
X138430000Y-100994318D01*
X138390639Y-100999500D01*
X138273239Y-101014955D01*
X138273237Y-101014956D01*
X138127157Y-101075464D01*
X138001718Y-101171716D01*
X137982489Y-101196775D01*
X137971798Y-101208965D01*
X134183965Y-104996798D01*
X134171775Y-105007489D01*
X134146720Y-105026715D01*
X134146718Y-105026718D01*
X134071949Y-105124159D01*
X134063808Y-105134769D01*
X134050463Y-105152160D01*
X133989956Y-105298237D01*
X133989955Y-105298239D01*
X133969318Y-105454998D01*
X133969318Y-105454999D01*
X133973439Y-105486301D01*
X133974500Y-105502487D01*
X133974500Y-111623859D01*
X133954815Y-111690898D01*
X133904302Y-111735579D01*
X133722369Y-111823193D01*
X133722365Y-111823195D01*
X133619351Y-111893429D01*
X133552872Y-111914929D01*
X133485322Y-111897075D01*
X133438148Y-111845535D01*
X133425500Y-111790975D01*
X133425500Y-105417487D01*
X133426561Y-105401301D01*
X133430682Y-105370000D01*
X133430682Y-105369998D01*
X133413493Y-105239435D01*
X133410044Y-105213238D01*
X133349536Y-105067159D01*
X133349535Y-105067158D01*
X133349535Y-105067157D01*
X133274987Y-104970003D01*
X133274970Y-104969983D01*
X133253358Y-104941818D01*
X133253282Y-104941718D01*
X133228233Y-104922497D01*
X133216039Y-104911803D01*
X131868610Y-103564374D01*
X131835125Y-103503051D01*
X131840109Y-103433359D01*
X131881981Y-103377426D01*
X131947445Y-103353009D01*
X132010091Y-103364972D01*
X132201996Y-103457389D01*
X132445542Y-103532513D01*
X132697565Y-103570500D01*
X132952435Y-103570500D01*
X133204458Y-103532513D01*
X133448004Y-103457389D01*
X133652429Y-103358943D01*
X133677626Y-103346809D01*
X133677626Y-103346808D01*
X133677634Y-103346805D01*
X133888217Y-103203232D01*
X134075050Y-103029877D01*
X134233959Y-102830612D01*
X134361393Y-102609888D01*
X134454508Y-102372637D01*
X134511222Y-102124157D01*
X134530268Y-101870000D01*
X134511222Y-101615843D01*
X134454508Y-101367363D01*
X134361393Y-101130112D01*
X134233959Y-100909388D01*
X134075050Y-100710123D01*
X134075048Y-100710121D01*
X134075044Y-100710116D01*
X134073859Y-100708839D01*
X134073581Y-100708282D01*
X134072157Y-100706496D01*
X134072539Y-100706191D01*
X134042691Y-100646306D01*
X134050280Y-100576850D01*
X134094214Y-100522522D01*
X134160547Y-100500572D01*
X134164759Y-100500500D01*
X138582663Y-100500500D01*
X138649702Y-100520185D01*
G37*
%TD.AperFunction*%
%TA.AperFunction,Conductor*%
G36*
X128510089Y-103364971D02*
G01*
X128701996Y-103457389D01*
X128945542Y-103532513D01*
X129197565Y-103570500D01*
X129452435Y-103570500D01*
X129704458Y-103532513D01*
X129948004Y-103457389D01*
X129948021Y-103457380D01*
X129952330Y-103455691D01*
X129952877Y-103457085D01*
X130015360Y-103446777D01*
X130079502Y-103474480D01*
X130087938Y-103482173D01*
X132188181Y-105582416D01*
X132221666Y-105643739D01*
X132224500Y-105670097D01*
X132224500Y-111790975D01*
X132204815Y-111858014D01*
X132152011Y-111903769D01*
X132082853Y-111913713D01*
X132030649Y-111893429D01*
X131927634Y-111823195D01*
X131927626Y-111823190D01*
X131698006Y-111712612D01*
X131698008Y-111712612D01*
X131454466Y-111637489D01*
X131454462Y-111637488D01*
X131454458Y-111637487D01*
X131333231Y-111619214D01*
X131202440Y-111599500D01*
X131202435Y-111599500D01*
X130947565Y-111599500D01*
X130947559Y-111599500D01*
X130790609Y-111623157D01*
X130695542Y-111637487D01*
X130695539Y-111637488D01*
X130695533Y-111637489D01*
X130451992Y-111712612D01*
X130222373Y-111823190D01*
X130222365Y-111823195D01*
X130119451Y-111893361D01*
X130052972Y-111914861D01*
X129985422Y-111897007D01*
X129938248Y-111845467D01*
X129925600Y-111790907D01*
X129925600Y-105417587D01*
X129926661Y-105401401D01*
X129930782Y-105370100D01*
X129930782Y-105370098D01*
X129910144Y-105213339D01*
X129910142Y-105213334D01*
X129910102Y-105213238D01*
X129851352Y-105071401D01*
X129849638Y-105067263D01*
X129849635Y-105067258D01*
X129777551Y-104973316D01*
X129777550Y-104973315D01*
X129763861Y-104955475D01*
X129753381Y-104941816D01*
X129728329Y-104922594D01*
X129716134Y-104911899D01*
X128368608Y-103564373D01*
X128335123Y-103503050D01*
X128340107Y-103433358D01*
X128381979Y-103377425D01*
X128447443Y-103353008D01*
X128510089Y-103364971D01*
G37*
%TD.AperFunction*%
%TD*%
M02*
