%TF.GenerationSoftware,KiCad,Pcbnew,7.0.11+dfsg-1build4*%
%TF.CreationDate,2026-05-06T20:51:08-05:00*%
%TF.ProjectId,panel-mount-oled-display-connector-board,70616e65-6c2d-46d6-9f75-6e742d6f6c65,rev?*%
%TF.SameCoordinates,Original*%
%TF.FileFunction,Legend,Bot*%
%TF.FilePolarity,Positive*%
%FSLAX46Y46*%
G04 Gerber Fmt 4.6, Leading zero omitted, Abs format (unit mm)*
G04 Created by KiCad (PCBNEW 7.0.11+dfsg-1build4) date 2026-05-06 20:51:08*
%MOMM*%
%LPD*%
G01*
G04 APERTURE LIST*
%ADD10C,0.150000*%
G04 APERTURE END LIST*
D10*
X138799649Y-119921533D02*
X138799649Y-119221533D01*
X138799649Y-119221533D02*
X138632982Y-119221533D01*
X138632982Y-119221533D02*
X138532982Y-119254866D01*
X138532982Y-119254866D02*
X138466316Y-119321533D01*
X138466316Y-119321533D02*
X138432982Y-119388200D01*
X138432982Y-119388200D02*
X138399649Y-119521533D01*
X138399649Y-119521533D02*
X138399649Y-119621533D01*
X138399649Y-119621533D02*
X138432982Y-119754866D01*
X138432982Y-119754866D02*
X138466316Y-119821533D01*
X138466316Y-119821533D02*
X138532982Y-119888200D01*
X138532982Y-119888200D02*
X138632982Y-119921533D01*
X138632982Y-119921533D02*
X138799649Y-119921533D01*
X138166316Y-119221533D02*
X137732982Y-119221533D01*
X137732982Y-119221533D02*
X137966316Y-119488200D01*
X137966316Y-119488200D02*
X137866316Y-119488200D01*
X137866316Y-119488200D02*
X137799649Y-119521533D01*
X137799649Y-119521533D02*
X137766316Y-119554866D01*
X137766316Y-119554866D02*
X137732982Y-119621533D01*
X137732982Y-119621533D02*
X137732982Y-119788200D01*
X137732982Y-119788200D02*
X137766316Y-119854866D01*
X137766316Y-119854866D02*
X137799649Y-119888200D01*
X137799649Y-119888200D02*
X137866316Y-119921533D01*
X137866316Y-119921533D02*
X138066316Y-119921533D01*
X138066316Y-119921533D02*
X138132982Y-119888200D01*
X138132982Y-119888200D02*
X138166316Y-119854866D01*
X137466315Y-119721533D02*
X137132982Y-119721533D01*
X137532982Y-119921533D02*
X137299649Y-119221533D01*
X137299649Y-119221533D02*
X137066315Y-119921533D01*
X138799649Y-117381533D02*
X138799649Y-116681533D01*
X138799649Y-116681533D02*
X138632982Y-116681533D01*
X138632982Y-116681533D02*
X138532982Y-116714866D01*
X138532982Y-116714866D02*
X138466316Y-116781533D01*
X138466316Y-116781533D02*
X138432982Y-116848200D01*
X138432982Y-116848200D02*
X138399649Y-116981533D01*
X138399649Y-116981533D02*
X138399649Y-117081533D01*
X138399649Y-117081533D02*
X138432982Y-117214866D01*
X138432982Y-117214866D02*
X138466316Y-117281533D01*
X138466316Y-117281533D02*
X138532982Y-117348200D01*
X138532982Y-117348200D02*
X138632982Y-117381533D01*
X138632982Y-117381533D02*
X138799649Y-117381533D01*
X138166316Y-116681533D02*
X137732982Y-116681533D01*
X137732982Y-116681533D02*
X137966316Y-116948200D01*
X137966316Y-116948200D02*
X137866316Y-116948200D01*
X137866316Y-116948200D02*
X137799649Y-116981533D01*
X137799649Y-116981533D02*
X137766316Y-117014866D01*
X137766316Y-117014866D02*
X137732982Y-117081533D01*
X137732982Y-117081533D02*
X137732982Y-117248200D01*
X137732982Y-117248200D02*
X137766316Y-117314866D01*
X137766316Y-117314866D02*
X137799649Y-117348200D01*
X137799649Y-117348200D02*
X137866316Y-117381533D01*
X137866316Y-117381533D02*
X138066316Y-117381533D01*
X138066316Y-117381533D02*
X138132982Y-117348200D01*
X138132982Y-117348200D02*
X138166316Y-117314866D01*
X137432982Y-117381533D02*
X137432982Y-116681533D01*
X137032982Y-117381533D02*
X137332982Y-116981533D01*
X137032982Y-116681533D02*
X137432982Y-117081533D01*
X138799649Y-114841533D02*
X138799649Y-114141533D01*
X138799649Y-114141533D02*
X138632982Y-114141533D01*
X138632982Y-114141533D02*
X138532982Y-114174866D01*
X138532982Y-114174866D02*
X138466316Y-114241533D01*
X138466316Y-114241533D02*
X138432982Y-114308200D01*
X138432982Y-114308200D02*
X138399649Y-114441533D01*
X138399649Y-114441533D02*
X138399649Y-114541533D01*
X138399649Y-114541533D02*
X138432982Y-114674866D01*
X138432982Y-114674866D02*
X138466316Y-114741533D01*
X138466316Y-114741533D02*
X138532982Y-114808200D01*
X138532982Y-114808200D02*
X138632982Y-114841533D01*
X138632982Y-114841533D02*
X138799649Y-114841533D01*
X138132982Y-114208200D02*
X138099649Y-114174866D01*
X138099649Y-114174866D02*
X138032982Y-114141533D01*
X138032982Y-114141533D02*
X137866316Y-114141533D01*
X137866316Y-114141533D02*
X137799649Y-114174866D01*
X137799649Y-114174866D02*
X137766316Y-114208200D01*
X137766316Y-114208200D02*
X137732982Y-114274866D01*
X137732982Y-114274866D02*
X137732982Y-114341533D01*
X137732982Y-114341533D02*
X137766316Y-114441533D01*
X137766316Y-114441533D02*
X138166316Y-114841533D01*
X138166316Y-114841533D02*
X137732982Y-114841533D01*
X137466315Y-114641533D02*
X137132982Y-114641533D01*
X137532982Y-114841533D02*
X137299649Y-114141533D01*
X137299649Y-114141533D02*
X137066315Y-114841533D01*
X138799649Y-112301533D02*
X138799649Y-111601533D01*
X138799649Y-111601533D02*
X138632982Y-111601533D01*
X138632982Y-111601533D02*
X138532982Y-111634866D01*
X138532982Y-111634866D02*
X138466316Y-111701533D01*
X138466316Y-111701533D02*
X138432982Y-111768200D01*
X138432982Y-111768200D02*
X138399649Y-111901533D01*
X138399649Y-111901533D02*
X138399649Y-112001533D01*
X138399649Y-112001533D02*
X138432982Y-112134866D01*
X138432982Y-112134866D02*
X138466316Y-112201533D01*
X138466316Y-112201533D02*
X138532982Y-112268200D01*
X138532982Y-112268200D02*
X138632982Y-112301533D01*
X138632982Y-112301533D02*
X138799649Y-112301533D01*
X138132982Y-111668200D02*
X138099649Y-111634866D01*
X138099649Y-111634866D02*
X138032982Y-111601533D01*
X138032982Y-111601533D02*
X137866316Y-111601533D01*
X137866316Y-111601533D02*
X137799649Y-111634866D01*
X137799649Y-111634866D02*
X137766316Y-111668200D01*
X137766316Y-111668200D02*
X137732982Y-111734866D01*
X137732982Y-111734866D02*
X137732982Y-111801533D01*
X137732982Y-111801533D02*
X137766316Y-111901533D01*
X137766316Y-111901533D02*
X138166316Y-112301533D01*
X138166316Y-112301533D02*
X137732982Y-112301533D01*
X137432982Y-112301533D02*
X137432982Y-111601533D01*
X137032982Y-112301533D02*
X137332982Y-111901533D01*
X137032982Y-111601533D02*
X137432982Y-112001533D01*
X138832982Y-109728200D02*
X138732982Y-109761533D01*
X138732982Y-109761533D02*
X138566316Y-109761533D01*
X138566316Y-109761533D02*
X138499649Y-109728200D01*
X138499649Y-109728200D02*
X138466316Y-109694866D01*
X138466316Y-109694866D02*
X138432982Y-109628200D01*
X138432982Y-109628200D02*
X138432982Y-109561533D01*
X138432982Y-109561533D02*
X138466316Y-109494866D01*
X138466316Y-109494866D02*
X138499649Y-109461533D01*
X138499649Y-109461533D02*
X138566316Y-109428200D01*
X138566316Y-109428200D02*
X138699649Y-109394866D01*
X138699649Y-109394866D02*
X138766316Y-109361533D01*
X138766316Y-109361533D02*
X138799649Y-109328200D01*
X138799649Y-109328200D02*
X138832982Y-109261533D01*
X138832982Y-109261533D02*
X138832982Y-109194866D01*
X138832982Y-109194866D02*
X138799649Y-109128200D01*
X138799649Y-109128200D02*
X138766316Y-109094866D01*
X138766316Y-109094866D02*
X138699649Y-109061533D01*
X138699649Y-109061533D02*
X138532982Y-109061533D01*
X138532982Y-109061533D02*
X138432982Y-109094866D01*
X138132982Y-109761533D02*
X138132982Y-109061533D01*
X138132982Y-109061533D02*
X137966315Y-109061533D01*
X137966315Y-109061533D02*
X137866315Y-109094866D01*
X137866315Y-109094866D02*
X137799649Y-109161533D01*
X137799649Y-109161533D02*
X137766315Y-109228200D01*
X137766315Y-109228200D02*
X137732982Y-109361533D01*
X137732982Y-109361533D02*
X137732982Y-109461533D01*
X137732982Y-109461533D02*
X137766315Y-109594866D01*
X137766315Y-109594866D02*
X137799649Y-109661533D01*
X137799649Y-109661533D02*
X137866315Y-109728200D01*
X137866315Y-109728200D02*
X137966315Y-109761533D01*
X137966315Y-109761533D02*
X138132982Y-109761533D01*
X137466315Y-109561533D02*
X137132982Y-109561533D01*
X137532982Y-109761533D02*
X137299649Y-109061533D01*
X137299649Y-109061533D02*
X137066315Y-109761533D01*
X138432982Y-106554866D02*
X138499649Y-106521533D01*
X138499649Y-106521533D02*
X138599649Y-106521533D01*
X138599649Y-106521533D02*
X138699649Y-106554866D01*
X138699649Y-106554866D02*
X138766316Y-106621533D01*
X138766316Y-106621533D02*
X138799649Y-106688200D01*
X138799649Y-106688200D02*
X138832982Y-106821533D01*
X138832982Y-106821533D02*
X138832982Y-106921533D01*
X138832982Y-106921533D02*
X138799649Y-107054866D01*
X138799649Y-107054866D02*
X138766316Y-107121533D01*
X138766316Y-107121533D02*
X138699649Y-107188200D01*
X138699649Y-107188200D02*
X138599649Y-107221533D01*
X138599649Y-107221533D02*
X138532982Y-107221533D01*
X138532982Y-107221533D02*
X138432982Y-107188200D01*
X138432982Y-107188200D02*
X138399649Y-107154866D01*
X138399649Y-107154866D02*
X138399649Y-106921533D01*
X138399649Y-106921533D02*
X138532982Y-106921533D01*
X138099649Y-107221533D02*
X138099649Y-106521533D01*
X138099649Y-106521533D02*
X137699649Y-107221533D01*
X137699649Y-107221533D02*
X137699649Y-106521533D01*
X137366316Y-107221533D02*
X137366316Y-106521533D01*
X137366316Y-106521533D02*
X137199649Y-106521533D01*
X137199649Y-106521533D02*
X137099649Y-106554866D01*
X137099649Y-106554866D02*
X137032983Y-106621533D01*
X137032983Y-106621533D02*
X136999649Y-106688200D01*
X136999649Y-106688200D02*
X136966316Y-106821533D01*
X136966316Y-106821533D02*
X136966316Y-106921533D01*
X136966316Y-106921533D02*
X136999649Y-107054866D01*
X136999649Y-107054866D02*
X137032983Y-107121533D01*
X137032983Y-107121533D02*
X137099649Y-107188200D01*
X137099649Y-107188200D02*
X137199649Y-107221533D01*
X137199649Y-107221533D02*
X137366316Y-107221533D01*
X138799649Y-104681533D02*
X138799649Y-103981533D01*
X138799649Y-103981533D02*
X138632982Y-103981533D01*
X138632982Y-103981533D02*
X138532982Y-104014866D01*
X138532982Y-104014866D02*
X138466316Y-104081533D01*
X138466316Y-104081533D02*
X138432982Y-104148200D01*
X138432982Y-104148200D02*
X138399649Y-104281533D01*
X138399649Y-104281533D02*
X138399649Y-104381533D01*
X138399649Y-104381533D02*
X138432982Y-104514866D01*
X138432982Y-104514866D02*
X138466316Y-104581533D01*
X138466316Y-104581533D02*
X138532982Y-104648200D01*
X138532982Y-104648200D02*
X138632982Y-104681533D01*
X138632982Y-104681533D02*
X138799649Y-104681533D01*
X137732982Y-104681533D02*
X138132982Y-104681533D01*
X137932982Y-104681533D02*
X137932982Y-103981533D01*
X137932982Y-103981533D02*
X137999649Y-104081533D01*
X137999649Y-104081533D02*
X138066316Y-104148200D01*
X138066316Y-104148200D02*
X138132982Y-104181533D01*
X137466315Y-104481533D02*
X137132982Y-104481533D01*
X137532982Y-104681533D02*
X137299649Y-103981533D01*
X137299649Y-103981533D02*
X137066315Y-104681533D01*
X138799649Y-102141533D02*
X138799649Y-101441533D01*
X138799649Y-101441533D02*
X138632982Y-101441533D01*
X138632982Y-101441533D02*
X138532982Y-101474866D01*
X138532982Y-101474866D02*
X138466316Y-101541533D01*
X138466316Y-101541533D02*
X138432982Y-101608200D01*
X138432982Y-101608200D02*
X138399649Y-101741533D01*
X138399649Y-101741533D02*
X138399649Y-101841533D01*
X138399649Y-101841533D02*
X138432982Y-101974866D01*
X138432982Y-101974866D02*
X138466316Y-102041533D01*
X138466316Y-102041533D02*
X138532982Y-102108200D01*
X138532982Y-102108200D02*
X138632982Y-102141533D01*
X138632982Y-102141533D02*
X138799649Y-102141533D01*
X137732982Y-102141533D02*
X138132982Y-102141533D01*
X137932982Y-102141533D02*
X137932982Y-101441533D01*
X137932982Y-101441533D02*
X137999649Y-101541533D01*
X137999649Y-101541533D02*
X138066316Y-101608200D01*
X138066316Y-101608200D02*
X138132982Y-101641533D01*
X137432982Y-102141533D02*
X137432982Y-101441533D01*
X137032982Y-102141533D02*
X137332982Y-101741533D01*
X137032982Y-101441533D02*
X137432982Y-101841533D01*
X105779649Y-119921533D02*
X105779649Y-119221533D01*
X105779649Y-119221533D02*
X105612982Y-119221533D01*
X105612982Y-119221533D02*
X105512982Y-119254866D01*
X105512982Y-119254866D02*
X105446316Y-119321533D01*
X105446316Y-119321533D02*
X105412982Y-119388200D01*
X105412982Y-119388200D02*
X105379649Y-119521533D01*
X105379649Y-119521533D02*
X105379649Y-119621533D01*
X105379649Y-119621533D02*
X105412982Y-119754866D01*
X105412982Y-119754866D02*
X105446316Y-119821533D01*
X105446316Y-119821533D02*
X105512982Y-119888200D01*
X105512982Y-119888200D02*
X105612982Y-119921533D01*
X105612982Y-119921533D02*
X105779649Y-119921533D01*
X104779649Y-119221533D02*
X104912982Y-119221533D01*
X104912982Y-119221533D02*
X104979649Y-119254866D01*
X104979649Y-119254866D02*
X105012982Y-119288200D01*
X105012982Y-119288200D02*
X105079649Y-119388200D01*
X105079649Y-119388200D02*
X105112982Y-119521533D01*
X105112982Y-119521533D02*
X105112982Y-119788200D01*
X105112982Y-119788200D02*
X105079649Y-119854866D01*
X105079649Y-119854866D02*
X105046316Y-119888200D01*
X105046316Y-119888200D02*
X104979649Y-119921533D01*
X104979649Y-119921533D02*
X104846316Y-119921533D01*
X104846316Y-119921533D02*
X104779649Y-119888200D01*
X104779649Y-119888200D02*
X104746316Y-119854866D01*
X104746316Y-119854866D02*
X104712982Y-119788200D01*
X104712982Y-119788200D02*
X104712982Y-119621533D01*
X104712982Y-119621533D02*
X104746316Y-119554866D01*
X104746316Y-119554866D02*
X104779649Y-119521533D01*
X104779649Y-119521533D02*
X104846316Y-119488200D01*
X104846316Y-119488200D02*
X104979649Y-119488200D01*
X104979649Y-119488200D02*
X105046316Y-119521533D01*
X105046316Y-119521533D02*
X105079649Y-119554866D01*
X105079649Y-119554866D02*
X105112982Y-119621533D01*
X104446315Y-119721533D02*
X104112982Y-119721533D01*
X104512982Y-119921533D02*
X104279649Y-119221533D01*
X104279649Y-119221533D02*
X104046315Y-119921533D01*
X105779649Y-117381533D02*
X105779649Y-116681533D01*
X105779649Y-116681533D02*
X105612982Y-116681533D01*
X105612982Y-116681533D02*
X105512982Y-116714866D01*
X105512982Y-116714866D02*
X105446316Y-116781533D01*
X105446316Y-116781533D02*
X105412982Y-116848200D01*
X105412982Y-116848200D02*
X105379649Y-116981533D01*
X105379649Y-116981533D02*
X105379649Y-117081533D01*
X105379649Y-117081533D02*
X105412982Y-117214866D01*
X105412982Y-117214866D02*
X105446316Y-117281533D01*
X105446316Y-117281533D02*
X105512982Y-117348200D01*
X105512982Y-117348200D02*
X105612982Y-117381533D01*
X105612982Y-117381533D02*
X105779649Y-117381533D01*
X104779649Y-116681533D02*
X104912982Y-116681533D01*
X104912982Y-116681533D02*
X104979649Y-116714866D01*
X104979649Y-116714866D02*
X105012982Y-116748200D01*
X105012982Y-116748200D02*
X105079649Y-116848200D01*
X105079649Y-116848200D02*
X105112982Y-116981533D01*
X105112982Y-116981533D02*
X105112982Y-117248200D01*
X105112982Y-117248200D02*
X105079649Y-117314866D01*
X105079649Y-117314866D02*
X105046316Y-117348200D01*
X105046316Y-117348200D02*
X104979649Y-117381533D01*
X104979649Y-117381533D02*
X104846316Y-117381533D01*
X104846316Y-117381533D02*
X104779649Y-117348200D01*
X104779649Y-117348200D02*
X104746316Y-117314866D01*
X104746316Y-117314866D02*
X104712982Y-117248200D01*
X104712982Y-117248200D02*
X104712982Y-117081533D01*
X104712982Y-117081533D02*
X104746316Y-117014866D01*
X104746316Y-117014866D02*
X104779649Y-116981533D01*
X104779649Y-116981533D02*
X104846316Y-116948200D01*
X104846316Y-116948200D02*
X104979649Y-116948200D01*
X104979649Y-116948200D02*
X105046316Y-116981533D01*
X105046316Y-116981533D02*
X105079649Y-117014866D01*
X105079649Y-117014866D02*
X105112982Y-117081533D01*
X104412982Y-117381533D02*
X104412982Y-116681533D01*
X104012982Y-117381533D02*
X104312982Y-116981533D01*
X104012982Y-116681533D02*
X104412982Y-117081533D01*
X105779649Y-114841533D02*
X105779649Y-114141533D01*
X105779649Y-114141533D02*
X105612982Y-114141533D01*
X105612982Y-114141533D02*
X105512982Y-114174866D01*
X105512982Y-114174866D02*
X105446316Y-114241533D01*
X105446316Y-114241533D02*
X105412982Y-114308200D01*
X105412982Y-114308200D02*
X105379649Y-114441533D01*
X105379649Y-114441533D02*
X105379649Y-114541533D01*
X105379649Y-114541533D02*
X105412982Y-114674866D01*
X105412982Y-114674866D02*
X105446316Y-114741533D01*
X105446316Y-114741533D02*
X105512982Y-114808200D01*
X105512982Y-114808200D02*
X105612982Y-114841533D01*
X105612982Y-114841533D02*
X105779649Y-114841533D01*
X104746316Y-114141533D02*
X105079649Y-114141533D01*
X105079649Y-114141533D02*
X105112982Y-114474866D01*
X105112982Y-114474866D02*
X105079649Y-114441533D01*
X105079649Y-114441533D02*
X105012982Y-114408200D01*
X105012982Y-114408200D02*
X104846316Y-114408200D01*
X104846316Y-114408200D02*
X104779649Y-114441533D01*
X104779649Y-114441533D02*
X104746316Y-114474866D01*
X104746316Y-114474866D02*
X104712982Y-114541533D01*
X104712982Y-114541533D02*
X104712982Y-114708200D01*
X104712982Y-114708200D02*
X104746316Y-114774866D01*
X104746316Y-114774866D02*
X104779649Y-114808200D01*
X104779649Y-114808200D02*
X104846316Y-114841533D01*
X104846316Y-114841533D02*
X105012982Y-114841533D01*
X105012982Y-114841533D02*
X105079649Y-114808200D01*
X105079649Y-114808200D02*
X105112982Y-114774866D01*
X104446315Y-114641533D02*
X104112982Y-114641533D01*
X104512982Y-114841533D02*
X104279649Y-114141533D01*
X104279649Y-114141533D02*
X104046315Y-114841533D01*
X105779649Y-112301533D02*
X105779649Y-111601533D01*
X105779649Y-111601533D02*
X105612982Y-111601533D01*
X105612982Y-111601533D02*
X105512982Y-111634866D01*
X105512982Y-111634866D02*
X105446316Y-111701533D01*
X105446316Y-111701533D02*
X105412982Y-111768200D01*
X105412982Y-111768200D02*
X105379649Y-111901533D01*
X105379649Y-111901533D02*
X105379649Y-112001533D01*
X105379649Y-112001533D02*
X105412982Y-112134866D01*
X105412982Y-112134866D02*
X105446316Y-112201533D01*
X105446316Y-112201533D02*
X105512982Y-112268200D01*
X105512982Y-112268200D02*
X105612982Y-112301533D01*
X105612982Y-112301533D02*
X105779649Y-112301533D01*
X104746316Y-111601533D02*
X105079649Y-111601533D01*
X105079649Y-111601533D02*
X105112982Y-111934866D01*
X105112982Y-111934866D02*
X105079649Y-111901533D01*
X105079649Y-111901533D02*
X105012982Y-111868200D01*
X105012982Y-111868200D02*
X104846316Y-111868200D01*
X104846316Y-111868200D02*
X104779649Y-111901533D01*
X104779649Y-111901533D02*
X104746316Y-111934866D01*
X104746316Y-111934866D02*
X104712982Y-112001533D01*
X104712982Y-112001533D02*
X104712982Y-112168200D01*
X104712982Y-112168200D02*
X104746316Y-112234866D01*
X104746316Y-112234866D02*
X104779649Y-112268200D01*
X104779649Y-112268200D02*
X104846316Y-112301533D01*
X104846316Y-112301533D02*
X105012982Y-112301533D01*
X105012982Y-112301533D02*
X105079649Y-112268200D01*
X105079649Y-112268200D02*
X105112982Y-112234866D01*
X104412982Y-112301533D02*
X104412982Y-111601533D01*
X104012982Y-112301533D02*
X104312982Y-111901533D01*
X104012982Y-111601533D02*
X104412982Y-112001533D01*
X105812982Y-109728200D02*
X105712982Y-109761533D01*
X105712982Y-109761533D02*
X105546316Y-109761533D01*
X105546316Y-109761533D02*
X105479649Y-109728200D01*
X105479649Y-109728200D02*
X105446316Y-109694866D01*
X105446316Y-109694866D02*
X105412982Y-109628200D01*
X105412982Y-109628200D02*
X105412982Y-109561533D01*
X105412982Y-109561533D02*
X105446316Y-109494866D01*
X105446316Y-109494866D02*
X105479649Y-109461533D01*
X105479649Y-109461533D02*
X105546316Y-109428200D01*
X105546316Y-109428200D02*
X105679649Y-109394866D01*
X105679649Y-109394866D02*
X105746316Y-109361533D01*
X105746316Y-109361533D02*
X105779649Y-109328200D01*
X105779649Y-109328200D02*
X105812982Y-109261533D01*
X105812982Y-109261533D02*
X105812982Y-109194866D01*
X105812982Y-109194866D02*
X105779649Y-109128200D01*
X105779649Y-109128200D02*
X105746316Y-109094866D01*
X105746316Y-109094866D02*
X105679649Y-109061533D01*
X105679649Y-109061533D02*
X105512982Y-109061533D01*
X105512982Y-109061533D02*
X105412982Y-109094866D01*
X104712982Y-109694866D02*
X104746315Y-109728200D01*
X104746315Y-109728200D02*
X104846315Y-109761533D01*
X104846315Y-109761533D02*
X104912982Y-109761533D01*
X104912982Y-109761533D02*
X105012982Y-109728200D01*
X105012982Y-109728200D02*
X105079649Y-109661533D01*
X105079649Y-109661533D02*
X105112982Y-109594866D01*
X105112982Y-109594866D02*
X105146315Y-109461533D01*
X105146315Y-109461533D02*
X105146315Y-109361533D01*
X105146315Y-109361533D02*
X105112982Y-109228200D01*
X105112982Y-109228200D02*
X105079649Y-109161533D01*
X105079649Y-109161533D02*
X105012982Y-109094866D01*
X105012982Y-109094866D02*
X104912982Y-109061533D01*
X104912982Y-109061533D02*
X104846315Y-109061533D01*
X104846315Y-109061533D02*
X104746315Y-109094866D01*
X104746315Y-109094866D02*
X104712982Y-109128200D01*
X104079649Y-109761533D02*
X104412982Y-109761533D01*
X104412982Y-109761533D02*
X104412982Y-109061533D01*
X105879649Y-106521533D02*
X105646316Y-107221533D01*
X105646316Y-107221533D02*
X105412982Y-106521533D01*
X104779649Y-107154866D02*
X104812982Y-107188200D01*
X104812982Y-107188200D02*
X104912982Y-107221533D01*
X104912982Y-107221533D02*
X104979649Y-107221533D01*
X104979649Y-107221533D02*
X105079649Y-107188200D01*
X105079649Y-107188200D02*
X105146316Y-107121533D01*
X105146316Y-107121533D02*
X105179649Y-107054866D01*
X105179649Y-107054866D02*
X105212982Y-106921533D01*
X105212982Y-106921533D02*
X105212982Y-106821533D01*
X105212982Y-106821533D02*
X105179649Y-106688200D01*
X105179649Y-106688200D02*
X105146316Y-106621533D01*
X105146316Y-106621533D02*
X105079649Y-106554866D01*
X105079649Y-106554866D02*
X104979649Y-106521533D01*
X104979649Y-106521533D02*
X104912982Y-106521533D01*
X104912982Y-106521533D02*
X104812982Y-106554866D01*
X104812982Y-106554866D02*
X104779649Y-106588200D01*
X104079649Y-107154866D02*
X104112982Y-107188200D01*
X104112982Y-107188200D02*
X104212982Y-107221533D01*
X104212982Y-107221533D02*
X104279649Y-107221533D01*
X104279649Y-107221533D02*
X104379649Y-107188200D01*
X104379649Y-107188200D02*
X104446316Y-107121533D01*
X104446316Y-107121533D02*
X104479649Y-107054866D01*
X104479649Y-107054866D02*
X104512982Y-106921533D01*
X104512982Y-106921533D02*
X104512982Y-106821533D01*
X104512982Y-106821533D02*
X104479649Y-106688200D01*
X104479649Y-106688200D02*
X104446316Y-106621533D01*
X104446316Y-106621533D02*
X104379649Y-106554866D01*
X104379649Y-106554866D02*
X104279649Y-106521533D01*
X104279649Y-106521533D02*
X104212982Y-106521533D01*
X104212982Y-106521533D02*
X104112982Y-106554866D01*
X104112982Y-106554866D02*
X104079649Y-106588200D01*
X105779649Y-104681533D02*
X105779649Y-103981533D01*
X105779649Y-103981533D02*
X105612982Y-103981533D01*
X105612982Y-103981533D02*
X105512982Y-104014866D01*
X105512982Y-104014866D02*
X105446316Y-104081533D01*
X105446316Y-104081533D02*
X105412982Y-104148200D01*
X105412982Y-104148200D02*
X105379649Y-104281533D01*
X105379649Y-104281533D02*
X105379649Y-104381533D01*
X105379649Y-104381533D02*
X105412982Y-104514866D01*
X105412982Y-104514866D02*
X105446316Y-104581533D01*
X105446316Y-104581533D02*
X105512982Y-104648200D01*
X105512982Y-104648200D02*
X105612982Y-104681533D01*
X105612982Y-104681533D02*
X105779649Y-104681533D01*
X104779649Y-104214866D02*
X104779649Y-104681533D01*
X104946316Y-103948200D02*
X105112982Y-104448200D01*
X105112982Y-104448200D02*
X104679649Y-104448200D01*
X104446315Y-104481533D02*
X104112982Y-104481533D01*
X104512982Y-104681533D02*
X104279649Y-103981533D01*
X104279649Y-103981533D02*
X104046315Y-104681533D01*
X105779649Y-102141533D02*
X105779649Y-101441533D01*
X105779649Y-101441533D02*
X105612982Y-101441533D01*
X105612982Y-101441533D02*
X105512982Y-101474866D01*
X105512982Y-101474866D02*
X105446316Y-101541533D01*
X105446316Y-101541533D02*
X105412982Y-101608200D01*
X105412982Y-101608200D02*
X105379649Y-101741533D01*
X105379649Y-101741533D02*
X105379649Y-101841533D01*
X105379649Y-101841533D02*
X105412982Y-101974866D01*
X105412982Y-101974866D02*
X105446316Y-102041533D01*
X105446316Y-102041533D02*
X105512982Y-102108200D01*
X105512982Y-102108200D02*
X105612982Y-102141533D01*
X105612982Y-102141533D02*
X105779649Y-102141533D01*
X104779649Y-101674866D02*
X104779649Y-102141533D01*
X104946316Y-101408200D02*
X105112982Y-101908200D01*
X105112982Y-101908200D02*
X104679649Y-101908200D01*
X104412982Y-102141533D02*
X104412982Y-101441533D01*
X104012982Y-102141533D02*
X104312982Y-101741533D01*
X104012982Y-101441533D02*
X104412982Y-101841533D01*
X135624649Y-116111533D02*
X135624649Y-115411533D01*
X135624649Y-115411533D02*
X135457982Y-115411533D01*
X135457982Y-115411533D02*
X135357982Y-115444866D01*
X135357982Y-115444866D02*
X135291316Y-115511533D01*
X135291316Y-115511533D02*
X135257982Y-115578200D01*
X135257982Y-115578200D02*
X135224649Y-115711533D01*
X135224649Y-115711533D02*
X135224649Y-115811533D01*
X135224649Y-115811533D02*
X135257982Y-115944866D01*
X135257982Y-115944866D02*
X135291316Y-116011533D01*
X135291316Y-116011533D02*
X135357982Y-116078200D01*
X135357982Y-116078200D02*
X135457982Y-116111533D01*
X135457982Y-116111533D02*
X135624649Y-116111533D01*
X134557982Y-116111533D02*
X134957982Y-116111533D01*
X134757982Y-116111533D02*
X134757982Y-115411533D01*
X134757982Y-115411533D02*
X134824649Y-115511533D01*
X134824649Y-115511533D02*
X134891316Y-115578200D01*
X134891316Y-115578200D02*
X134957982Y-115611533D01*
X134257982Y-116111533D02*
X134257982Y-115411533D01*
X133857982Y-116111533D02*
X134157982Y-115711533D01*
X133857982Y-115411533D02*
X134257982Y-115811533D01*
X131814649Y-116111533D02*
X131814649Y-115411533D01*
X131814649Y-115411533D02*
X131647982Y-115411533D01*
X131647982Y-115411533D02*
X131547982Y-115444866D01*
X131547982Y-115444866D02*
X131481316Y-115511533D01*
X131481316Y-115511533D02*
X131447982Y-115578200D01*
X131447982Y-115578200D02*
X131414649Y-115711533D01*
X131414649Y-115711533D02*
X131414649Y-115811533D01*
X131414649Y-115811533D02*
X131447982Y-115944866D01*
X131447982Y-115944866D02*
X131481316Y-116011533D01*
X131481316Y-116011533D02*
X131547982Y-116078200D01*
X131547982Y-116078200D02*
X131647982Y-116111533D01*
X131647982Y-116111533D02*
X131814649Y-116111533D01*
X131147982Y-115478200D02*
X131114649Y-115444866D01*
X131114649Y-115444866D02*
X131047982Y-115411533D01*
X131047982Y-115411533D02*
X130881316Y-115411533D01*
X130881316Y-115411533D02*
X130814649Y-115444866D01*
X130814649Y-115444866D02*
X130781316Y-115478200D01*
X130781316Y-115478200D02*
X130747982Y-115544866D01*
X130747982Y-115544866D02*
X130747982Y-115611533D01*
X130747982Y-115611533D02*
X130781316Y-115711533D01*
X130781316Y-115711533D02*
X131181316Y-116111533D01*
X131181316Y-116111533D02*
X130747982Y-116111533D01*
X130447982Y-116111533D02*
X130447982Y-115411533D01*
X130047982Y-116111533D02*
X130347982Y-115711533D01*
X130047982Y-115411533D02*
X130447982Y-115811533D01*
X128639649Y-116111533D02*
X128639649Y-115411533D01*
X128639649Y-115411533D02*
X128472982Y-115411533D01*
X128472982Y-115411533D02*
X128372982Y-115444866D01*
X128372982Y-115444866D02*
X128306316Y-115511533D01*
X128306316Y-115511533D02*
X128272982Y-115578200D01*
X128272982Y-115578200D02*
X128239649Y-115711533D01*
X128239649Y-115711533D02*
X128239649Y-115811533D01*
X128239649Y-115811533D02*
X128272982Y-115944866D01*
X128272982Y-115944866D02*
X128306316Y-116011533D01*
X128306316Y-116011533D02*
X128372982Y-116078200D01*
X128372982Y-116078200D02*
X128472982Y-116111533D01*
X128472982Y-116111533D02*
X128639649Y-116111533D01*
X128006316Y-115411533D02*
X127572982Y-115411533D01*
X127572982Y-115411533D02*
X127806316Y-115678200D01*
X127806316Y-115678200D02*
X127706316Y-115678200D01*
X127706316Y-115678200D02*
X127639649Y-115711533D01*
X127639649Y-115711533D02*
X127606316Y-115744866D01*
X127606316Y-115744866D02*
X127572982Y-115811533D01*
X127572982Y-115811533D02*
X127572982Y-115978200D01*
X127572982Y-115978200D02*
X127606316Y-116044866D01*
X127606316Y-116044866D02*
X127639649Y-116078200D01*
X127639649Y-116078200D02*
X127706316Y-116111533D01*
X127706316Y-116111533D02*
X127906316Y-116111533D01*
X127906316Y-116111533D02*
X127972982Y-116078200D01*
X127972982Y-116078200D02*
X128006316Y-116044866D01*
X127272982Y-116111533D02*
X127272982Y-115411533D01*
X126872982Y-116111533D02*
X127172982Y-115711533D01*
X126872982Y-115411533D02*
X127272982Y-115811533D01*
X124462982Y-115444866D02*
X124529649Y-115411533D01*
X124529649Y-115411533D02*
X124629649Y-115411533D01*
X124629649Y-115411533D02*
X124729649Y-115444866D01*
X124729649Y-115444866D02*
X124796316Y-115511533D01*
X124796316Y-115511533D02*
X124829649Y-115578200D01*
X124829649Y-115578200D02*
X124862982Y-115711533D01*
X124862982Y-115711533D02*
X124862982Y-115811533D01*
X124862982Y-115811533D02*
X124829649Y-115944866D01*
X124829649Y-115944866D02*
X124796316Y-116011533D01*
X124796316Y-116011533D02*
X124729649Y-116078200D01*
X124729649Y-116078200D02*
X124629649Y-116111533D01*
X124629649Y-116111533D02*
X124562982Y-116111533D01*
X124562982Y-116111533D02*
X124462982Y-116078200D01*
X124462982Y-116078200D02*
X124429649Y-116044866D01*
X124429649Y-116044866D02*
X124429649Y-115811533D01*
X124429649Y-115811533D02*
X124562982Y-115811533D01*
X124129649Y-116111533D02*
X124129649Y-115411533D01*
X124129649Y-115411533D02*
X123729649Y-116111533D01*
X123729649Y-116111533D02*
X123729649Y-115411533D01*
X123396316Y-116111533D02*
X123396316Y-115411533D01*
X123396316Y-115411533D02*
X123229649Y-115411533D01*
X123229649Y-115411533D02*
X123129649Y-115444866D01*
X123129649Y-115444866D02*
X123062983Y-115511533D01*
X123062983Y-115511533D02*
X123029649Y-115578200D01*
X123029649Y-115578200D02*
X122996316Y-115711533D01*
X122996316Y-115711533D02*
X122996316Y-115811533D01*
X122996316Y-115811533D02*
X123029649Y-115944866D01*
X123029649Y-115944866D02*
X123062983Y-116011533D01*
X123062983Y-116011533D02*
X123129649Y-116078200D01*
X123129649Y-116078200D02*
X123229649Y-116111533D01*
X123229649Y-116111533D02*
X123396316Y-116111533D01*
X121119649Y-115411533D02*
X120886316Y-116111533D01*
X120886316Y-116111533D02*
X120652982Y-115411533D01*
X120019649Y-116044866D02*
X120052982Y-116078200D01*
X120052982Y-116078200D02*
X120152982Y-116111533D01*
X120152982Y-116111533D02*
X120219649Y-116111533D01*
X120219649Y-116111533D02*
X120319649Y-116078200D01*
X120319649Y-116078200D02*
X120386316Y-116011533D01*
X120386316Y-116011533D02*
X120419649Y-115944866D01*
X120419649Y-115944866D02*
X120452982Y-115811533D01*
X120452982Y-115811533D02*
X120452982Y-115711533D01*
X120452982Y-115711533D02*
X120419649Y-115578200D01*
X120419649Y-115578200D02*
X120386316Y-115511533D01*
X120386316Y-115511533D02*
X120319649Y-115444866D01*
X120319649Y-115444866D02*
X120219649Y-115411533D01*
X120219649Y-115411533D02*
X120152982Y-115411533D01*
X120152982Y-115411533D02*
X120052982Y-115444866D01*
X120052982Y-115444866D02*
X120019649Y-115478200D01*
X119319649Y-116044866D02*
X119352982Y-116078200D01*
X119352982Y-116078200D02*
X119452982Y-116111533D01*
X119452982Y-116111533D02*
X119519649Y-116111533D01*
X119519649Y-116111533D02*
X119619649Y-116078200D01*
X119619649Y-116078200D02*
X119686316Y-116011533D01*
X119686316Y-116011533D02*
X119719649Y-115944866D01*
X119719649Y-115944866D02*
X119752982Y-115811533D01*
X119752982Y-115811533D02*
X119752982Y-115711533D01*
X119752982Y-115711533D02*
X119719649Y-115578200D01*
X119719649Y-115578200D02*
X119686316Y-115511533D01*
X119686316Y-115511533D02*
X119619649Y-115444866D01*
X119619649Y-115444866D02*
X119519649Y-115411533D01*
X119519649Y-115411533D02*
X119452982Y-115411533D01*
X119452982Y-115411533D02*
X119352982Y-115444866D01*
X119352982Y-115444866D02*
X119319649Y-115478200D01*
X117844649Y-116111533D02*
X117844649Y-115411533D01*
X117844649Y-115411533D02*
X117677982Y-115411533D01*
X117677982Y-115411533D02*
X117577982Y-115444866D01*
X117577982Y-115444866D02*
X117511316Y-115511533D01*
X117511316Y-115511533D02*
X117477982Y-115578200D01*
X117477982Y-115578200D02*
X117444649Y-115711533D01*
X117444649Y-115711533D02*
X117444649Y-115811533D01*
X117444649Y-115811533D02*
X117477982Y-115944866D01*
X117477982Y-115944866D02*
X117511316Y-116011533D01*
X117511316Y-116011533D02*
X117577982Y-116078200D01*
X117577982Y-116078200D02*
X117677982Y-116111533D01*
X117677982Y-116111533D02*
X117844649Y-116111533D01*
X116844649Y-115644866D02*
X116844649Y-116111533D01*
X117011316Y-115378200D02*
X117177982Y-115878200D01*
X117177982Y-115878200D02*
X116744649Y-115878200D01*
X116477982Y-116111533D02*
X116477982Y-115411533D01*
X116077982Y-116111533D02*
X116377982Y-115711533D01*
X116077982Y-115411533D02*
X116477982Y-115811533D01*
X114034649Y-116111533D02*
X114034649Y-115411533D01*
X114034649Y-115411533D02*
X113867982Y-115411533D01*
X113867982Y-115411533D02*
X113767982Y-115444866D01*
X113767982Y-115444866D02*
X113701316Y-115511533D01*
X113701316Y-115511533D02*
X113667982Y-115578200D01*
X113667982Y-115578200D02*
X113634649Y-115711533D01*
X113634649Y-115711533D02*
X113634649Y-115811533D01*
X113634649Y-115811533D02*
X113667982Y-115944866D01*
X113667982Y-115944866D02*
X113701316Y-116011533D01*
X113701316Y-116011533D02*
X113767982Y-116078200D01*
X113767982Y-116078200D02*
X113867982Y-116111533D01*
X113867982Y-116111533D02*
X114034649Y-116111533D01*
X113001316Y-115411533D02*
X113334649Y-115411533D01*
X113334649Y-115411533D02*
X113367982Y-115744866D01*
X113367982Y-115744866D02*
X113334649Y-115711533D01*
X113334649Y-115711533D02*
X113267982Y-115678200D01*
X113267982Y-115678200D02*
X113101316Y-115678200D01*
X113101316Y-115678200D02*
X113034649Y-115711533D01*
X113034649Y-115711533D02*
X113001316Y-115744866D01*
X113001316Y-115744866D02*
X112967982Y-115811533D01*
X112967982Y-115811533D02*
X112967982Y-115978200D01*
X112967982Y-115978200D02*
X113001316Y-116044866D01*
X113001316Y-116044866D02*
X113034649Y-116078200D01*
X113034649Y-116078200D02*
X113101316Y-116111533D01*
X113101316Y-116111533D02*
X113267982Y-116111533D01*
X113267982Y-116111533D02*
X113334649Y-116078200D01*
X113334649Y-116078200D02*
X113367982Y-116044866D01*
X112667982Y-116111533D02*
X112667982Y-115411533D01*
X112267982Y-116111533D02*
X112567982Y-115711533D01*
X112267982Y-115411533D02*
X112667982Y-115811533D01*
X110859649Y-116111533D02*
X110859649Y-115411533D01*
X110859649Y-115411533D02*
X110692982Y-115411533D01*
X110692982Y-115411533D02*
X110592982Y-115444866D01*
X110592982Y-115444866D02*
X110526316Y-115511533D01*
X110526316Y-115511533D02*
X110492982Y-115578200D01*
X110492982Y-115578200D02*
X110459649Y-115711533D01*
X110459649Y-115711533D02*
X110459649Y-115811533D01*
X110459649Y-115811533D02*
X110492982Y-115944866D01*
X110492982Y-115944866D02*
X110526316Y-116011533D01*
X110526316Y-116011533D02*
X110592982Y-116078200D01*
X110592982Y-116078200D02*
X110692982Y-116111533D01*
X110692982Y-116111533D02*
X110859649Y-116111533D01*
X109859649Y-115411533D02*
X109992982Y-115411533D01*
X109992982Y-115411533D02*
X110059649Y-115444866D01*
X110059649Y-115444866D02*
X110092982Y-115478200D01*
X110092982Y-115478200D02*
X110159649Y-115578200D01*
X110159649Y-115578200D02*
X110192982Y-115711533D01*
X110192982Y-115711533D02*
X110192982Y-115978200D01*
X110192982Y-115978200D02*
X110159649Y-116044866D01*
X110159649Y-116044866D02*
X110126316Y-116078200D01*
X110126316Y-116078200D02*
X110059649Y-116111533D01*
X110059649Y-116111533D02*
X109926316Y-116111533D01*
X109926316Y-116111533D02*
X109859649Y-116078200D01*
X109859649Y-116078200D02*
X109826316Y-116044866D01*
X109826316Y-116044866D02*
X109792982Y-115978200D01*
X109792982Y-115978200D02*
X109792982Y-115811533D01*
X109792982Y-115811533D02*
X109826316Y-115744866D01*
X109826316Y-115744866D02*
X109859649Y-115711533D01*
X109859649Y-115711533D02*
X109926316Y-115678200D01*
X109926316Y-115678200D02*
X110059649Y-115678200D01*
X110059649Y-115678200D02*
X110126316Y-115711533D01*
X110126316Y-115711533D02*
X110159649Y-115744866D01*
X110159649Y-115744866D02*
X110192982Y-115811533D01*
X109492982Y-116111533D02*
X109492982Y-115411533D01*
X109092982Y-116111533D02*
X109392982Y-115711533D01*
X109092982Y-115411533D02*
X109492982Y-115811533D01*
X133719649Y-104681533D02*
X133719649Y-103981533D01*
X133719649Y-103981533D02*
X133552982Y-103981533D01*
X133552982Y-103981533D02*
X133452982Y-104014866D01*
X133452982Y-104014866D02*
X133386316Y-104081533D01*
X133386316Y-104081533D02*
X133352982Y-104148200D01*
X133352982Y-104148200D02*
X133319649Y-104281533D01*
X133319649Y-104281533D02*
X133319649Y-104381533D01*
X133319649Y-104381533D02*
X133352982Y-104514866D01*
X133352982Y-104514866D02*
X133386316Y-104581533D01*
X133386316Y-104581533D02*
X133452982Y-104648200D01*
X133452982Y-104648200D02*
X133552982Y-104681533D01*
X133552982Y-104681533D02*
X133719649Y-104681533D01*
X132652982Y-104681533D02*
X133052982Y-104681533D01*
X132852982Y-104681533D02*
X132852982Y-103981533D01*
X132852982Y-103981533D02*
X132919649Y-104081533D01*
X132919649Y-104081533D02*
X132986316Y-104148200D01*
X132986316Y-104148200D02*
X133052982Y-104181533D01*
X132386315Y-104481533D02*
X132052982Y-104481533D01*
X132452982Y-104681533D02*
X132219649Y-103981533D01*
X132219649Y-103981533D02*
X131986315Y-104681533D01*
X126734649Y-104681533D02*
X126734649Y-103981533D01*
X126734649Y-103981533D02*
X126567982Y-103981533D01*
X126567982Y-103981533D02*
X126467982Y-104014866D01*
X126467982Y-104014866D02*
X126401316Y-104081533D01*
X126401316Y-104081533D02*
X126367982Y-104148200D01*
X126367982Y-104148200D02*
X126334649Y-104281533D01*
X126334649Y-104281533D02*
X126334649Y-104381533D01*
X126334649Y-104381533D02*
X126367982Y-104514866D01*
X126367982Y-104514866D02*
X126401316Y-104581533D01*
X126401316Y-104581533D02*
X126467982Y-104648200D01*
X126467982Y-104648200D02*
X126567982Y-104681533D01*
X126567982Y-104681533D02*
X126734649Y-104681533D01*
X126101316Y-103981533D02*
X125667982Y-103981533D01*
X125667982Y-103981533D02*
X125901316Y-104248200D01*
X125901316Y-104248200D02*
X125801316Y-104248200D01*
X125801316Y-104248200D02*
X125734649Y-104281533D01*
X125734649Y-104281533D02*
X125701316Y-104314866D01*
X125701316Y-104314866D02*
X125667982Y-104381533D01*
X125667982Y-104381533D02*
X125667982Y-104548200D01*
X125667982Y-104548200D02*
X125701316Y-104614866D01*
X125701316Y-104614866D02*
X125734649Y-104648200D01*
X125734649Y-104648200D02*
X125801316Y-104681533D01*
X125801316Y-104681533D02*
X126001316Y-104681533D01*
X126001316Y-104681533D02*
X126067982Y-104648200D01*
X126067982Y-104648200D02*
X126101316Y-104614866D01*
X125401315Y-104481533D02*
X125067982Y-104481533D01*
X125467982Y-104681533D02*
X125234649Y-103981533D01*
X125234649Y-103981533D02*
X125001315Y-104681533D01*
X129909649Y-104681533D02*
X129909649Y-103981533D01*
X129909649Y-103981533D02*
X129742982Y-103981533D01*
X129742982Y-103981533D02*
X129642982Y-104014866D01*
X129642982Y-104014866D02*
X129576316Y-104081533D01*
X129576316Y-104081533D02*
X129542982Y-104148200D01*
X129542982Y-104148200D02*
X129509649Y-104281533D01*
X129509649Y-104281533D02*
X129509649Y-104381533D01*
X129509649Y-104381533D02*
X129542982Y-104514866D01*
X129542982Y-104514866D02*
X129576316Y-104581533D01*
X129576316Y-104581533D02*
X129642982Y-104648200D01*
X129642982Y-104648200D02*
X129742982Y-104681533D01*
X129742982Y-104681533D02*
X129909649Y-104681533D01*
X129242982Y-104048200D02*
X129209649Y-104014866D01*
X129209649Y-104014866D02*
X129142982Y-103981533D01*
X129142982Y-103981533D02*
X128976316Y-103981533D01*
X128976316Y-103981533D02*
X128909649Y-104014866D01*
X128909649Y-104014866D02*
X128876316Y-104048200D01*
X128876316Y-104048200D02*
X128842982Y-104114866D01*
X128842982Y-104114866D02*
X128842982Y-104181533D01*
X128842982Y-104181533D02*
X128876316Y-104281533D01*
X128876316Y-104281533D02*
X129276316Y-104681533D01*
X129276316Y-104681533D02*
X128842982Y-104681533D01*
X128576315Y-104481533D02*
X128242982Y-104481533D01*
X128642982Y-104681533D02*
X128409649Y-103981533D01*
X128409649Y-103981533D02*
X128176315Y-104681533D01*
X122957982Y-104648200D02*
X122857982Y-104681533D01*
X122857982Y-104681533D02*
X122691316Y-104681533D01*
X122691316Y-104681533D02*
X122624649Y-104648200D01*
X122624649Y-104648200D02*
X122591316Y-104614866D01*
X122591316Y-104614866D02*
X122557982Y-104548200D01*
X122557982Y-104548200D02*
X122557982Y-104481533D01*
X122557982Y-104481533D02*
X122591316Y-104414866D01*
X122591316Y-104414866D02*
X122624649Y-104381533D01*
X122624649Y-104381533D02*
X122691316Y-104348200D01*
X122691316Y-104348200D02*
X122824649Y-104314866D01*
X122824649Y-104314866D02*
X122891316Y-104281533D01*
X122891316Y-104281533D02*
X122924649Y-104248200D01*
X122924649Y-104248200D02*
X122957982Y-104181533D01*
X122957982Y-104181533D02*
X122957982Y-104114866D01*
X122957982Y-104114866D02*
X122924649Y-104048200D01*
X122924649Y-104048200D02*
X122891316Y-104014866D01*
X122891316Y-104014866D02*
X122824649Y-103981533D01*
X122824649Y-103981533D02*
X122657982Y-103981533D01*
X122657982Y-103981533D02*
X122557982Y-104014866D01*
X122257982Y-104681533D02*
X122257982Y-103981533D01*
X122257982Y-103981533D02*
X122091315Y-103981533D01*
X122091315Y-103981533D02*
X121991315Y-104014866D01*
X121991315Y-104014866D02*
X121924649Y-104081533D01*
X121924649Y-104081533D02*
X121891315Y-104148200D01*
X121891315Y-104148200D02*
X121857982Y-104281533D01*
X121857982Y-104281533D02*
X121857982Y-104381533D01*
X121857982Y-104381533D02*
X121891315Y-104514866D01*
X121891315Y-104514866D02*
X121924649Y-104581533D01*
X121924649Y-104581533D02*
X121991315Y-104648200D01*
X121991315Y-104648200D02*
X122091315Y-104681533D01*
X122091315Y-104681533D02*
X122257982Y-104681533D01*
X121591315Y-104481533D02*
X121257982Y-104481533D01*
X121657982Y-104681533D02*
X121424649Y-103981533D01*
X121424649Y-103981533D02*
X121191315Y-104681533D01*
X119147982Y-104648200D02*
X119047982Y-104681533D01*
X119047982Y-104681533D02*
X118881316Y-104681533D01*
X118881316Y-104681533D02*
X118814649Y-104648200D01*
X118814649Y-104648200D02*
X118781316Y-104614866D01*
X118781316Y-104614866D02*
X118747982Y-104548200D01*
X118747982Y-104548200D02*
X118747982Y-104481533D01*
X118747982Y-104481533D02*
X118781316Y-104414866D01*
X118781316Y-104414866D02*
X118814649Y-104381533D01*
X118814649Y-104381533D02*
X118881316Y-104348200D01*
X118881316Y-104348200D02*
X119014649Y-104314866D01*
X119014649Y-104314866D02*
X119081316Y-104281533D01*
X119081316Y-104281533D02*
X119114649Y-104248200D01*
X119114649Y-104248200D02*
X119147982Y-104181533D01*
X119147982Y-104181533D02*
X119147982Y-104114866D01*
X119147982Y-104114866D02*
X119114649Y-104048200D01*
X119114649Y-104048200D02*
X119081316Y-104014866D01*
X119081316Y-104014866D02*
X119014649Y-103981533D01*
X119014649Y-103981533D02*
X118847982Y-103981533D01*
X118847982Y-103981533D02*
X118747982Y-104014866D01*
X118047982Y-104614866D02*
X118081315Y-104648200D01*
X118081315Y-104648200D02*
X118181315Y-104681533D01*
X118181315Y-104681533D02*
X118247982Y-104681533D01*
X118247982Y-104681533D02*
X118347982Y-104648200D01*
X118347982Y-104648200D02*
X118414649Y-104581533D01*
X118414649Y-104581533D02*
X118447982Y-104514866D01*
X118447982Y-104514866D02*
X118481315Y-104381533D01*
X118481315Y-104381533D02*
X118481315Y-104281533D01*
X118481315Y-104281533D02*
X118447982Y-104148200D01*
X118447982Y-104148200D02*
X118414649Y-104081533D01*
X118414649Y-104081533D02*
X118347982Y-104014866D01*
X118347982Y-104014866D02*
X118247982Y-103981533D01*
X118247982Y-103981533D02*
X118181315Y-103981533D01*
X118181315Y-103981533D02*
X118081315Y-104014866D01*
X118081315Y-104014866D02*
X118047982Y-104048200D01*
X117414649Y-104681533D02*
X117747982Y-104681533D01*
X117747982Y-104681533D02*
X117747982Y-103981533D01*
X115939649Y-104681533D02*
X115939649Y-103981533D01*
X115939649Y-103981533D02*
X115772982Y-103981533D01*
X115772982Y-103981533D02*
X115672982Y-104014866D01*
X115672982Y-104014866D02*
X115606316Y-104081533D01*
X115606316Y-104081533D02*
X115572982Y-104148200D01*
X115572982Y-104148200D02*
X115539649Y-104281533D01*
X115539649Y-104281533D02*
X115539649Y-104381533D01*
X115539649Y-104381533D02*
X115572982Y-104514866D01*
X115572982Y-104514866D02*
X115606316Y-104581533D01*
X115606316Y-104581533D02*
X115672982Y-104648200D01*
X115672982Y-104648200D02*
X115772982Y-104681533D01*
X115772982Y-104681533D02*
X115939649Y-104681533D01*
X114939649Y-104214866D02*
X114939649Y-104681533D01*
X115106316Y-103948200D02*
X115272982Y-104448200D01*
X115272982Y-104448200D02*
X114839649Y-104448200D01*
X114606315Y-104481533D02*
X114272982Y-104481533D01*
X114672982Y-104681533D02*
X114439649Y-103981533D01*
X114439649Y-103981533D02*
X114206315Y-104681533D01*
X112764649Y-104681533D02*
X112764649Y-103981533D01*
X112764649Y-103981533D02*
X112597982Y-103981533D01*
X112597982Y-103981533D02*
X112497982Y-104014866D01*
X112497982Y-104014866D02*
X112431316Y-104081533D01*
X112431316Y-104081533D02*
X112397982Y-104148200D01*
X112397982Y-104148200D02*
X112364649Y-104281533D01*
X112364649Y-104281533D02*
X112364649Y-104381533D01*
X112364649Y-104381533D02*
X112397982Y-104514866D01*
X112397982Y-104514866D02*
X112431316Y-104581533D01*
X112431316Y-104581533D02*
X112497982Y-104648200D01*
X112497982Y-104648200D02*
X112597982Y-104681533D01*
X112597982Y-104681533D02*
X112764649Y-104681533D01*
X111731316Y-103981533D02*
X112064649Y-103981533D01*
X112064649Y-103981533D02*
X112097982Y-104314866D01*
X112097982Y-104314866D02*
X112064649Y-104281533D01*
X112064649Y-104281533D02*
X111997982Y-104248200D01*
X111997982Y-104248200D02*
X111831316Y-104248200D01*
X111831316Y-104248200D02*
X111764649Y-104281533D01*
X111764649Y-104281533D02*
X111731316Y-104314866D01*
X111731316Y-104314866D02*
X111697982Y-104381533D01*
X111697982Y-104381533D02*
X111697982Y-104548200D01*
X111697982Y-104548200D02*
X111731316Y-104614866D01*
X111731316Y-104614866D02*
X111764649Y-104648200D01*
X111764649Y-104648200D02*
X111831316Y-104681533D01*
X111831316Y-104681533D02*
X111997982Y-104681533D01*
X111997982Y-104681533D02*
X112064649Y-104648200D01*
X112064649Y-104648200D02*
X112097982Y-104614866D01*
X111431315Y-104481533D02*
X111097982Y-104481533D01*
X111497982Y-104681533D02*
X111264649Y-103981533D01*
X111264649Y-103981533D02*
X111031315Y-104681533D01*
X108954649Y-104681533D02*
X108954649Y-103981533D01*
X108954649Y-103981533D02*
X108787982Y-103981533D01*
X108787982Y-103981533D02*
X108687982Y-104014866D01*
X108687982Y-104014866D02*
X108621316Y-104081533D01*
X108621316Y-104081533D02*
X108587982Y-104148200D01*
X108587982Y-104148200D02*
X108554649Y-104281533D01*
X108554649Y-104281533D02*
X108554649Y-104381533D01*
X108554649Y-104381533D02*
X108587982Y-104514866D01*
X108587982Y-104514866D02*
X108621316Y-104581533D01*
X108621316Y-104581533D02*
X108687982Y-104648200D01*
X108687982Y-104648200D02*
X108787982Y-104681533D01*
X108787982Y-104681533D02*
X108954649Y-104681533D01*
X107954649Y-103981533D02*
X108087982Y-103981533D01*
X108087982Y-103981533D02*
X108154649Y-104014866D01*
X108154649Y-104014866D02*
X108187982Y-104048200D01*
X108187982Y-104048200D02*
X108254649Y-104148200D01*
X108254649Y-104148200D02*
X108287982Y-104281533D01*
X108287982Y-104281533D02*
X108287982Y-104548200D01*
X108287982Y-104548200D02*
X108254649Y-104614866D01*
X108254649Y-104614866D02*
X108221316Y-104648200D01*
X108221316Y-104648200D02*
X108154649Y-104681533D01*
X108154649Y-104681533D02*
X108021316Y-104681533D01*
X108021316Y-104681533D02*
X107954649Y-104648200D01*
X107954649Y-104648200D02*
X107921316Y-104614866D01*
X107921316Y-104614866D02*
X107887982Y-104548200D01*
X107887982Y-104548200D02*
X107887982Y-104381533D01*
X107887982Y-104381533D02*
X107921316Y-104314866D01*
X107921316Y-104314866D02*
X107954649Y-104281533D01*
X107954649Y-104281533D02*
X108021316Y-104248200D01*
X108021316Y-104248200D02*
X108154649Y-104248200D01*
X108154649Y-104248200D02*
X108221316Y-104281533D01*
X108221316Y-104281533D02*
X108254649Y-104314866D01*
X108254649Y-104314866D02*
X108287982Y-104381533D01*
X107621315Y-104481533D02*
X107287982Y-104481533D01*
X107687982Y-104681533D02*
X107454649Y-103981533D01*
X107454649Y-103981533D02*
X107221315Y-104681533D01*
X125064649Y-108424866D02*
X125097982Y-108458200D01*
X125097982Y-108458200D02*
X125197982Y-108491533D01*
X125197982Y-108491533D02*
X125264649Y-108491533D01*
X125264649Y-108491533D02*
X125364649Y-108458200D01*
X125364649Y-108458200D02*
X125431316Y-108391533D01*
X125431316Y-108391533D02*
X125464649Y-108324866D01*
X125464649Y-108324866D02*
X125497982Y-108191533D01*
X125497982Y-108191533D02*
X125497982Y-108091533D01*
X125497982Y-108091533D02*
X125464649Y-107958200D01*
X125464649Y-107958200D02*
X125431316Y-107891533D01*
X125431316Y-107891533D02*
X125364649Y-107824866D01*
X125364649Y-107824866D02*
X125264649Y-107791533D01*
X125264649Y-107791533D02*
X125197982Y-107791533D01*
X125197982Y-107791533D02*
X125097982Y-107824866D01*
X125097982Y-107824866D02*
X125064649Y-107858200D01*
X124631316Y-107791533D02*
X124497982Y-107791533D01*
X124497982Y-107791533D02*
X124431316Y-107824866D01*
X124431316Y-107824866D02*
X124364649Y-107891533D01*
X124364649Y-107891533D02*
X124331316Y-108024866D01*
X124331316Y-108024866D02*
X124331316Y-108258200D01*
X124331316Y-108258200D02*
X124364649Y-108391533D01*
X124364649Y-108391533D02*
X124431316Y-108458200D01*
X124431316Y-108458200D02*
X124497982Y-108491533D01*
X124497982Y-108491533D02*
X124631316Y-108491533D01*
X124631316Y-108491533D02*
X124697982Y-108458200D01*
X124697982Y-108458200D02*
X124764649Y-108391533D01*
X124764649Y-108391533D02*
X124797982Y-108258200D01*
X124797982Y-108258200D02*
X124797982Y-108024866D01*
X124797982Y-108024866D02*
X124764649Y-107891533D01*
X124764649Y-107891533D02*
X124697982Y-107824866D01*
X124697982Y-107824866D02*
X124631316Y-107791533D01*
X124031316Y-108491533D02*
X124031316Y-107791533D01*
X124031316Y-107791533D02*
X123631316Y-108491533D01*
X123631316Y-108491533D02*
X123631316Y-107791533D01*
X123297983Y-108491533D02*
X123297983Y-107791533D01*
X123297983Y-107791533D02*
X122897983Y-108491533D01*
X122897983Y-108491533D02*
X122897983Y-107791533D01*
X122564650Y-108124866D02*
X122331317Y-108124866D01*
X122231317Y-108491533D02*
X122564650Y-108491533D01*
X122564650Y-108491533D02*
X122564650Y-107791533D01*
X122564650Y-107791533D02*
X122231317Y-107791533D01*
X121531317Y-108424866D02*
X121564650Y-108458200D01*
X121564650Y-108458200D02*
X121664650Y-108491533D01*
X121664650Y-108491533D02*
X121731317Y-108491533D01*
X121731317Y-108491533D02*
X121831317Y-108458200D01*
X121831317Y-108458200D02*
X121897984Y-108391533D01*
X121897984Y-108391533D02*
X121931317Y-108324866D01*
X121931317Y-108324866D02*
X121964650Y-108191533D01*
X121964650Y-108191533D02*
X121964650Y-108091533D01*
X121964650Y-108091533D02*
X121931317Y-107958200D01*
X121931317Y-107958200D02*
X121897984Y-107891533D01*
X121897984Y-107891533D02*
X121831317Y-107824866D01*
X121831317Y-107824866D02*
X121731317Y-107791533D01*
X121731317Y-107791533D02*
X121664650Y-107791533D01*
X121664650Y-107791533D02*
X121564650Y-107824866D01*
X121564650Y-107824866D02*
X121531317Y-107858200D01*
X121331317Y-107791533D02*
X120931317Y-107791533D01*
X121131317Y-108491533D02*
X121131317Y-107791533D01*
X120564651Y-107791533D02*
X120431317Y-107791533D01*
X120431317Y-107791533D02*
X120364651Y-107824866D01*
X120364651Y-107824866D02*
X120297984Y-107891533D01*
X120297984Y-107891533D02*
X120264651Y-108024866D01*
X120264651Y-108024866D02*
X120264651Y-108258200D01*
X120264651Y-108258200D02*
X120297984Y-108391533D01*
X120297984Y-108391533D02*
X120364651Y-108458200D01*
X120364651Y-108458200D02*
X120431317Y-108491533D01*
X120431317Y-108491533D02*
X120564651Y-108491533D01*
X120564651Y-108491533D02*
X120631317Y-108458200D01*
X120631317Y-108458200D02*
X120697984Y-108391533D01*
X120697984Y-108391533D02*
X120731317Y-108258200D01*
X120731317Y-108258200D02*
X120731317Y-108024866D01*
X120731317Y-108024866D02*
X120697984Y-107891533D01*
X120697984Y-107891533D02*
X120631317Y-107824866D01*
X120631317Y-107824866D02*
X120564651Y-107791533D01*
X119564651Y-108491533D02*
X119797984Y-108158200D01*
X119964651Y-108491533D02*
X119964651Y-107791533D01*
X119964651Y-107791533D02*
X119697984Y-107791533D01*
X119697984Y-107791533D02*
X119631318Y-107824866D01*
X119631318Y-107824866D02*
X119597984Y-107858200D01*
X119597984Y-107858200D02*
X119564651Y-107924866D01*
X119564651Y-107924866D02*
X119564651Y-108024866D01*
X119564651Y-108024866D02*
X119597984Y-108091533D01*
X119597984Y-108091533D02*
X119631318Y-108124866D01*
X119631318Y-108124866D02*
X119697984Y-108158200D01*
X119697984Y-108158200D02*
X119964651Y-108158200D01*
X118497985Y-108124866D02*
X118397985Y-108158200D01*
X118397985Y-108158200D02*
X118364651Y-108191533D01*
X118364651Y-108191533D02*
X118331318Y-108258200D01*
X118331318Y-108258200D02*
X118331318Y-108358200D01*
X118331318Y-108358200D02*
X118364651Y-108424866D01*
X118364651Y-108424866D02*
X118397985Y-108458200D01*
X118397985Y-108458200D02*
X118464651Y-108491533D01*
X118464651Y-108491533D02*
X118731318Y-108491533D01*
X118731318Y-108491533D02*
X118731318Y-107791533D01*
X118731318Y-107791533D02*
X118497985Y-107791533D01*
X118497985Y-107791533D02*
X118431318Y-107824866D01*
X118431318Y-107824866D02*
X118397985Y-107858200D01*
X118397985Y-107858200D02*
X118364651Y-107924866D01*
X118364651Y-107924866D02*
X118364651Y-107991533D01*
X118364651Y-107991533D02*
X118397985Y-108058200D01*
X118397985Y-108058200D02*
X118431318Y-108091533D01*
X118431318Y-108091533D02*
X118497985Y-108124866D01*
X118497985Y-108124866D02*
X118731318Y-108124866D01*
X117897985Y-107791533D02*
X117764651Y-107791533D01*
X117764651Y-107791533D02*
X117697985Y-107824866D01*
X117697985Y-107824866D02*
X117631318Y-107891533D01*
X117631318Y-107891533D02*
X117597985Y-108024866D01*
X117597985Y-108024866D02*
X117597985Y-108258200D01*
X117597985Y-108258200D02*
X117631318Y-108391533D01*
X117631318Y-108391533D02*
X117697985Y-108458200D01*
X117697985Y-108458200D02*
X117764651Y-108491533D01*
X117764651Y-108491533D02*
X117897985Y-108491533D01*
X117897985Y-108491533D02*
X117964651Y-108458200D01*
X117964651Y-108458200D02*
X118031318Y-108391533D01*
X118031318Y-108391533D02*
X118064651Y-108258200D01*
X118064651Y-108258200D02*
X118064651Y-108024866D01*
X118064651Y-108024866D02*
X118031318Y-107891533D01*
X118031318Y-107891533D02*
X117964651Y-107824866D01*
X117964651Y-107824866D02*
X117897985Y-107791533D01*
X117331318Y-108291533D02*
X116997985Y-108291533D01*
X117397985Y-108491533D02*
X117164652Y-107791533D01*
X117164652Y-107791533D02*
X116931318Y-108491533D01*
X116297985Y-108491533D02*
X116531318Y-108158200D01*
X116697985Y-108491533D02*
X116697985Y-107791533D01*
X116697985Y-107791533D02*
X116431318Y-107791533D01*
X116431318Y-107791533D02*
X116364652Y-107824866D01*
X116364652Y-107824866D02*
X116331318Y-107858200D01*
X116331318Y-107858200D02*
X116297985Y-107924866D01*
X116297985Y-107924866D02*
X116297985Y-108024866D01*
X116297985Y-108024866D02*
X116331318Y-108091533D01*
X116331318Y-108091533D02*
X116364652Y-108124866D01*
X116364652Y-108124866D02*
X116431318Y-108158200D01*
X116431318Y-108158200D02*
X116697985Y-108158200D01*
X115997985Y-108491533D02*
X115997985Y-107791533D01*
X115997985Y-107791533D02*
X115831318Y-107791533D01*
X115831318Y-107791533D02*
X115731318Y-107824866D01*
X115731318Y-107824866D02*
X115664652Y-107891533D01*
X115664652Y-107891533D02*
X115631318Y-107958200D01*
X115631318Y-107958200D02*
X115597985Y-108091533D01*
X115597985Y-108091533D02*
X115597985Y-108191533D01*
X115597985Y-108191533D02*
X115631318Y-108324866D01*
X115631318Y-108324866D02*
X115664652Y-108391533D01*
X115664652Y-108391533D02*
X115731318Y-108458200D01*
X115731318Y-108458200D02*
X115831318Y-108491533D01*
X115831318Y-108491533D02*
X115997985Y-108491533D01*
X126099649Y-107221533D02*
X126099649Y-106521533D01*
X126099649Y-106521533D02*
X125832982Y-106521533D01*
X125832982Y-106521533D02*
X125766316Y-106554866D01*
X125766316Y-106554866D02*
X125732982Y-106588200D01*
X125732982Y-106588200D02*
X125699649Y-106654866D01*
X125699649Y-106654866D02*
X125699649Y-106754866D01*
X125699649Y-106754866D02*
X125732982Y-106821533D01*
X125732982Y-106821533D02*
X125766316Y-106854866D01*
X125766316Y-106854866D02*
X125832982Y-106888200D01*
X125832982Y-106888200D02*
X126099649Y-106888200D01*
X125432982Y-107021533D02*
X125099649Y-107021533D01*
X125499649Y-107221533D02*
X125266316Y-106521533D01*
X125266316Y-106521533D02*
X125032982Y-107221533D01*
X124799649Y-107221533D02*
X124799649Y-106521533D01*
X124799649Y-106521533D02*
X124399649Y-107221533D01*
X124399649Y-107221533D02*
X124399649Y-106521533D01*
X124066316Y-106854866D02*
X123832983Y-106854866D01*
X123732983Y-107221533D02*
X124066316Y-107221533D01*
X124066316Y-107221533D02*
X124066316Y-106521533D01*
X124066316Y-106521533D02*
X123732983Y-106521533D01*
X123099650Y-107221533D02*
X123432983Y-107221533D01*
X123432983Y-107221533D02*
X123432983Y-106521533D01*
X122866316Y-106954866D02*
X122332983Y-106954866D01*
X121999649Y-107221533D02*
X121999649Y-106521533D01*
X121999649Y-106521533D02*
X121766316Y-107021533D01*
X121766316Y-107021533D02*
X121532982Y-106521533D01*
X121532982Y-106521533D02*
X121532982Y-107221533D01*
X121066316Y-106521533D02*
X120932982Y-106521533D01*
X120932982Y-106521533D02*
X120866316Y-106554866D01*
X120866316Y-106554866D02*
X120799649Y-106621533D01*
X120799649Y-106621533D02*
X120766316Y-106754866D01*
X120766316Y-106754866D02*
X120766316Y-106988200D01*
X120766316Y-106988200D02*
X120799649Y-107121533D01*
X120799649Y-107121533D02*
X120866316Y-107188200D01*
X120866316Y-107188200D02*
X120932982Y-107221533D01*
X120932982Y-107221533D02*
X121066316Y-107221533D01*
X121066316Y-107221533D02*
X121132982Y-107188200D01*
X121132982Y-107188200D02*
X121199649Y-107121533D01*
X121199649Y-107121533D02*
X121232982Y-106988200D01*
X121232982Y-106988200D02*
X121232982Y-106754866D01*
X121232982Y-106754866D02*
X121199649Y-106621533D01*
X121199649Y-106621533D02*
X121132982Y-106554866D01*
X121132982Y-106554866D02*
X121066316Y-106521533D01*
X120466316Y-106521533D02*
X120466316Y-107088200D01*
X120466316Y-107088200D02*
X120432983Y-107154866D01*
X120432983Y-107154866D02*
X120399649Y-107188200D01*
X120399649Y-107188200D02*
X120332983Y-107221533D01*
X120332983Y-107221533D02*
X120199649Y-107221533D01*
X120199649Y-107221533D02*
X120132983Y-107188200D01*
X120132983Y-107188200D02*
X120099649Y-107154866D01*
X120099649Y-107154866D02*
X120066316Y-107088200D01*
X120066316Y-107088200D02*
X120066316Y-106521533D01*
X119732983Y-107221533D02*
X119732983Y-106521533D01*
X119732983Y-106521533D02*
X119332983Y-107221533D01*
X119332983Y-107221533D02*
X119332983Y-106521533D01*
X119099650Y-106521533D02*
X118699650Y-106521533D01*
X118899650Y-107221533D02*
X118899650Y-106521533D01*
X118466317Y-106954866D02*
X117932984Y-106954866D01*
X117466317Y-106521533D02*
X117332983Y-106521533D01*
X117332983Y-106521533D02*
X117266317Y-106554866D01*
X117266317Y-106554866D02*
X117199650Y-106621533D01*
X117199650Y-106621533D02*
X117166317Y-106754866D01*
X117166317Y-106754866D02*
X117166317Y-106988200D01*
X117166317Y-106988200D02*
X117199650Y-107121533D01*
X117199650Y-107121533D02*
X117266317Y-107188200D01*
X117266317Y-107188200D02*
X117332983Y-107221533D01*
X117332983Y-107221533D02*
X117466317Y-107221533D01*
X117466317Y-107221533D02*
X117532983Y-107188200D01*
X117532983Y-107188200D02*
X117599650Y-107121533D01*
X117599650Y-107121533D02*
X117632983Y-106988200D01*
X117632983Y-106988200D02*
X117632983Y-106754866D01*
X117632983Y-106754866D02*
X117599650Y-106621533D01*
X117599650Y-106621533D02*
X117532983Y-106554866D01*
X117532983Y-106554866D02*
X117466317Y-106521533D01*
X116532984Y-107221533D02*
X116866317Y-107221533D01*
X116866317Y-107221533D02*
X116866317Y-106521533D01*
X116299650Y-106854866D02*
X116066317Y-106854866D01*
X115966317Y-107221533D02*
X116299650Y-107221533D01*
X116299650Y-107221533D02*
X116299650Y-106521533D01*
X116299650Y-106521533D02*
X115966317Y-106521533D01*
X115666317Y-107221533D02*
X115666317Y-106521533D01*
X115666317Y-106521533D02*
X115499650Y-106521533D01*
X115499650Y-106521533D02*
X115399650Y-106554866D01*
X115399650Y-106554866D02*
X115332984Y-106621533D01*
X115332984Y-106621533D02*
X115299650Y-106688200D01*
X115299650Y-106688200D02*
X115266317Y-106821533D01*
X115266317Y-106821533D02*
X115266317Y-106921533D01*
X115266317Y-106921533D02*
X115299650Y-107054866D01*
X115299650Y-107054866D02*
X115332984Y-107121533D01*
X115332984Y-107121533D02*
X115399650Y-107188200D01*
X115399650Y-107188200D02*
X115499650Y-107221533D01*
X115499650Y-107221533D02*
X115666317Y-107221533D01*
M02*
