%TF.GenerationSoftware,KiCad,Pcbnew,7.0.11+dfsg-1build4*%
%TF.CreationDate,2026-06-08T00:17:49-05:00*%
%TF.ProjectId,panel-mount-oled-display-connector-board,70616e65-6c2d-46d6-9f75-6e742d6f6c65,rev?*%
%TF.SameCoordinates,Original*%
%TF.FileFunction,Legend,Bot*%
%TF.FilePolarity,Positive*%
%FSLAX46Y46*%
G04 Gerber Fmt 4.6, Leading zero omitted, Abs format (unit mm)*
G04 Created by KiCad (PCBNEW 7.0.11+dfsg-1build4) date 2026-06-08 00:17:49*
%MOMM*%
%LPD*%
G01*
G04 APERTURE LIST*
%ADD10C,0.150000*%
G04 APERTURE END LIST*
D10*
X109869049Y-108059733D02*
X109869049Y-107359733D01*
X109869049Y-107359733D02*
X109702382Y-107359733D01*
X109702382Y-107359733D02*
X109602382Y-107393066D01*
X109602382Y-107393066D02*
X109535716Y-107459733D01*
X109535716Y-107459733D02*
X109502382Y-107526400D01*
X109502382Y-107526400D02*
X109469049Y-107659733D01*
X109469049Y-107659733D02*
X109469049Y-107759733D01*
X109469049Y-107759733D02*
X109502382Y-107893066D01*
X109502382Y-107893066D02*
X109535716Y-107959733D01*
X109535716Y-107959733D02*
X109602382Y-108026400D01*
X109602382Y-108026400D02*
X109702382Y-108059733D01*
X109702382Y-108059733D02*
X109869049Y-108059733D01*
X108835716Y-107359733D02*
X109169049Y-107359733D01*
X109169049Y-107359733D02*
X109202382Y-107693066D01*
X109202382Y-107693066D02*
X109169049Y-107659733D01*
X109169049Y-107659733D02*
X109102382Y-107626400D01*
X109102382Y-107626400D02*
X108935716Y-107626400D01*
X108935716Y-107626400D02*
X108869049Y-107659733D01*
X108869049Y-107659733D02*
X108835716Y-107693066D01*
X108835716Y-107693066D02*
X108802382Y-107759733D01*
X108802382Y-107759733D02*
X108802382Y-107926400D01*
X108802382Y-107926400D02*
X108835716Y-107993066D01*
X108835716Y-107993066D02*
X108869049Y-108026400D01*
X108869049Y-108026400D02*
X108935716Y-108059733D01*
X108935716Y-108059733D02*
X109102382Y-108059733D01*
X109102382Y-108059733D02*
X109169049Y-108026400D01*
X109169049Y-108026400D02*
X109202382Y-107993066D01*
X108535715Y-107859733D02*
X108202382Y-107859733D01*
X108602382Y-108059733D02*
X108369049Y-107359733D01*
X108369049Y-107359733D02*
X108135715Y-108059733D01*
X123796182Y-107975600D02*
X123696182Y-108008933D01*
X123696182Y-108008933D02*
X123529516Y-108008933D01*
X123529516Y-108008933D02*
X123462849Y-107975600D01*
X123462849Y-107975600D02*
X123429516Y-107942266D01*
X123429516Y-107942266D02*
X123396182Y-107875600D01*
X123396182Y-107875600D02*
X123396182Y-107808933D01*
X123396182Y-107808933D02*
X123429516Y-107742266D01*
X123429516Y-107742266D02*
X123462849Y-107708933D01*
X123462849Y-107708933D02*
X123529516Y-107675600D01*
X123529516Y-107675600D02*
X123662849Y-107642266D01*
X123662849Y-107642266D02*
X123729516Y-107608933D01*
X123729516Y-107608933D02*
X123762849Y-107575600D01*
X123762849Y-107575600D02*
X123796182Y-107508933D01*
X123796182Y-107508933D02*
X123796182Y-107442266D01*
X123796182Y-107442266D02*
X123762849Y-107375600D01*
X123762849Y-107375600D02*
X123729516Y-107342266D01*
X123729516Y-107342266D02*
X123662849Y-107308933D01*
X123662849Y-107308933D02*
X123496182Y-107308933D01*
X123496182Y-107308933D02*
X123396182Y-107342266D01*
X122696182Y-107942266D02*
X122729515Y-107975600D01*
X122729515Y-107975600D02*
X122829515Y-108008933D01*
X122829515Y-108008933D02*
X122896182Y-108008933D01*
X122896182Y-108008933D02*
X122996182Y-107975600D01*
X122996182Y-107975600D02*
X123062849Y-107908933D01*
X123062849Y-107908933D02*
X123096182Y-107842266D01*
X123096182Y-107842266D02*
X123129515Y-107708933D01*
X123129515Y-107708933D02*
X123129515Y-107608933D01*
X123129515Y-107608933D02*
X123096182Y-107475600D01*
X123096182Y-107475600D02*
X123062849Y-107408933D01*
X123062849Y-107408933D02*
X122996182Y-107342266D01*
X122996182Y-107342266D02*
X122896182Y-107308933D01*
X122896182Y-107308933D02*
X122829515Y-107308933D01*
X122829515Y-107308933D02*
X122729515Y-107342266D01*
X122729515Y-107342266D02*
X122696182Y-107375600D01*
X122062849Y-108008933D02*
X122396182Y-108008933D01*
X122396182Y-108008933D02*
X122396182Y-107308933D01*
X127504582Y-107975600D02*
X127404582Y-108008933D01*
X127404582Y-108008933D02*
X127237916Y-108008933D01*
X127237916Y-108008933D02*
X127171249Y-107975600D01*
X127171249Y-107975600D02*
X127137916Y-107942266D01*
X127137916Y-107942266D02*
X127104582Y-107875600D01*
X127104582Y-107875600D02*
X127104582Y-107808933D01*
X127104582Y-107808933D02*
X127137916Y-107742266D01*
X127137916Y-107742266D02*
X127171249Y-107708933D01*
X127171249Y-107708933D02*
X127237916Y-107675600D01*
X127237916Y-107675600D02*
X127371249Y-107642266D01*
X127371249Y-107642266D02*
X127437916Y-107608933D01*
X127437916Y-107608933D02*
X127471249Y-107575600D01*
X127471249Y-107575600D02*
X127504582Y-107508933D01*
X127504582Y-107508933D02*
X127504582Y-107442266D01*
X127504582Y-107442266D02*
X127471249Y-107375600D01*
X127471249Y-107375600D02*
X127437916Y-107342266D01*
X127437916Y-107342266D02*
X127371249Y-107308933D01*
X127371249Y-107308933D02*
X127204582Y-107308933D01*
X127204582Y-107308933D02*
X127104582Y-107342266D01*
X126804582Y-108008933D02*
X126804582Y-107308933D01*
X126804582Y-107308933D02*
X126637915Y-107308933D01*
X126637915Y-107308933D02*
X126537915Y-107342266D01*
X126537915Y-107342266D02*
X126471249Y-107408933D01*
X126471249Y-107408933D02*
X126437915Y-107475600D01*
X126437915Y-107475600D02*
X126404582Y-107608933D01*
X126404582Y-107608933D02*
X126404582Y-107708933D01*
X126404582Y-107708933D02*
X126437915Y-107842266D01*
X126437915Y-107842266D02*
X126471249Y-107908933D01*
X126471249Y-107908933D02*
X126537915Y-107975600D01*
X126537915Y-107975600D02*
X126637915Y-108008933D01*
X126637915Y-108008933D02*
X126804582Y-108008933D01*
X126137915Y-107808933D02*
X125804582Y-107808933D01*
X126204582Y-108008933D02*
X125971249Y-107308933D01*
X125971249Y-107308933D02*
X125737915Y-108008933D01*
X126633049Y-119235733D02*
X126633049Y-118535733D01*
X126633049Y-118535733D02*
X126366382Y-118535733D01*
X126366382Y-118535733D02*
X126299716Y-118569066D01*
X126299716Y-118569066D02*
X126266382Y-118602400D01*
X126266382Y-118602400D02*
X126233049Y-118669066D01*
X126233049Y-118669066D02*
X126233049Y-118769066D01*
X126233049Y-118769066D02*
X126266382Y-118835733D01*
X126266382Y-118835733D02*
X126299716Y-118869066D01*
X126299716Y-118869066D02*
X126366382Y-118902400D01*
X126366382Y-118902400D02*
X126633049Y-118902400D01*
X125966382Y-119035733D02*
X125633049Y-119035733D01*
X126033049Y-119235733D02*
X125799716Y-118535733D01*
X125799716Y-118535733D02*
X125566382Y-119235733D01*
X125333049Y-119235733D02*
X125333049Y-118535733D01*
X125333049Y-118535733D02*
X124933049Y-119235733D01*
X124933049Y-119235733D02*
X124933049Y-118535733D01*
X124599716Y-118869066D02*
X124366383Y-118869066D01*
X124266383Y-119235733D02*
X124599716Y-119235733D01*
X124599716Y-119235733D02*
X124599716Y-118535733D01*
X124599716Y-118535733D02*
X124266383Y-118535733D01*
X123633050Y-119235733D02*
X123966383Y-119235733D01*
X123966383Y-119235733D02*
X123966383Y-118535733D01*
X123399716Y-118969066D02*
X122866383Y-118969066D01*
X122533049Y-119235733D02*
X122533049Y-118535733D01*
X122533049Y-118535733D02*
X122299716Y-119035733D01*
X122299716Y-119035733D02*
X122066382Y-118535733D01*
X122066382Y-118535733D02*
X122066382Y-119235733D01*
X121599716Y-118535733D02*
X121466382Y-118535733D01*
X121466382Y-118535733D02*
X121399716Y-118569066D01*
X121399716Y-118569066D02*
X121333049Y-118635733D01*
X121333049Y-118635733D02*
X121299716Y-118769066D01*
X121299716Y-118769066D02*
X121299716Y-119002400D01*
X121299716Y-119002400D02*
X121333049Y-119135733D01*
X121333049Y-119135733D02*
X121399716Y-119202400D01*
X121399716Y-119202400D02*
X121466382Y-119235733D01*
X121466382Y-119235733D02*
X121599716Y-119235733D01*
X121599716Y-119235733D02*
X121666382Y-119202400D01*
X121666382Y-119202400D02*
X121733049Y-119135733D01*
X121733049Y-119135733D02*
X121766382Y-119002400D01*
X121766382Y-119002400D02*
X121766382Y-118769066D01*
X121766382Y-118769066D02*
X121733049Y-118635733D01*
X121733049Y-118635733D02*
X121666382Y-118569066D01*
X121666382Y-118569066D02*
X121599716Y-118535733D01*
X120999716Y-118535733D02*
X120999716Y-119102400D01*
X120999716Y-119102400D02*
X120966383Y-119169066D01*
X120966383Y-119169066D02*
X120933049Y-119202400D01*
X120933049Y-119202400D02*
X120866383Y-119235733D01*
X120866383Y-119235733D02*
X120733049Y-119235733D01*
X120733049Y-119235733D02*
X120666383Y-119202400D01*
X120666383Y-119202400D02*
X120633049Y-119169066D01*
X120633049Y-119169066D02*
X120599716Y-119102400D01*
X120599716Y-119102400D02*
X120599716Y-118535733D01*
X120266383Y-119235733D02*
X120266383Y-118535733D01*
X120266383Y-118535733D02*
X119866383Y-119235733D01*
X119866383Y-119235733D02*
X119866383Y-118535733D01*
X119633050Y-118535733D02*
X119233050Y-118535733D01*
X119433050Y-119235733D02*
X119433050Y-118535733D01*
X118999717Y-118969066D02*
X118466384Y-118969066D01*
X117999717Y-118535733D02*
X117866383Y-118535733D01*
X117866383Y-118535733D02*
X117799717Y-118569066D01*
X117799717Y-118569066D02*
X117733050Y-118635733D01*
X117733050Y-118635733D02*
X117699717Y-118769066D01*
X117699717Y-118769066D02*
X117699717Y-119002400D01*
X117699717Y-119002400D02*
X117733050Y-119135733D01*
X117733050Y-119135733D02*
X117799717Y-119202400D01*
X117799717Y-119202400D02*
X117866383Y-119235733D01*
X117866383Y-119235733D02*
X117999717Y-119235733D01*
X117999717Y-119235733D02*
X118066383Y-119202400D01*
X118066383Y-119202400D02*
X118133050Y-119135733D01*
X118133050Y-119135733D02*
X118166383Y-119002400D01*
X118166383Y-119002400D02*
X118166383Y-118769066D01*
X118166383Y-118769066D02*
X118133050Y-118635733D01*
X118133050Y-118635733D02*
X118066383Y-118569066D01*
X118066383Y-118569066D02*
X117999717Y-118535733D01*
X117066384Y-119235733D02*
X117399717Y-119235733D01*
X117399717Y-119235733D02*
X117399717Y-118535733D01*
X116833050Y-118869066D02*
X116599717Y-118869066D01*
X116499717Y-119235733D02*
X116833050Y-119235733D01*
X116833050Y-119235733D02*
X116833050Y-118535733D01*
X116833050Y-118535733D02*
X116499717Y-118535733D01*
X116199717Y-119235733D02*
X116199717Y-118535733D01*
X116199717Y-118535733D02*
X116033050Y-118535733D01*
X116033050Y-118535733D02*
X115933050Y-118569066D01*
X115933050Y-118569066D02*
X115866384Y-118635733D01*
X115866384Y-118635733D02*
X115833050Y-118702400D01*
X115833050Y-118702400D02*
X115799717Y-118835733D01*
X115799717Y-118835733D02*
X115799717Y-118935733D01*
X115799717Y-118935733D02*
X115833050Y-119069066D01*
X115833050Y-119069066D02*
X115866384Y-119135733D01*
X115866384Y-119135733D02*
X115933050Y-119202400D01*
X115933050Y-119202400D02*
X116033050Y-119235733D01*
X116033050Y-119235733D02*
X116199717Y-119235733D01*
X113577449Y-108059733D02*
X113577449Y-107359733D01*
X113577449Y-107359733D02*
X113410782Y-107359733D01*
X113410782Y-107359733D02*
X113310782Y-107393066D01*
X113310782Y-107393066D02*
X113244116Y-107459733D01*
X113244116Y-107459733D02*
X113210782Y-107526400D01*
X113210782Y-107526400D02*
X113177449Y-107659733D01*
X113177449Y-107659733D02*
X113177449Y-107759733D01*
X113177449Y-107759733D02*
X113210782Y-107893066D01*
X113210782Y-107893066D02*
X113244116Y-107959733D01*
X113244116Y-107959733D02*
X113310782Y-108026400D01*
X113310782Y-108026400D02*
X113410782Y-108059733D01*
X113410782Y-108059733D02*
X113577449Y-108059733D01*
X112544116Y-107359733D02*
X112877449Y-107359733D01*
X112877449Y-107359733D02*
X112910782Y-107693066D01*
X112910782Y-107693066D02*
X112877449Y-107659733D01*
X112877449Y-107659733D02*
X112810782Y-107626400D01*
X112810782Y-107626400D02*
X112644116Y-107626400D01*
X112644116Y-107626400D02*
X112577449Y-107659733D01*
X112577449Y-107659733D02*
X112544116Y-107693066D01*
X112544116Y-107693066D02*
X112510782Y-107759733D01*
X112510782Y-107759733D02*
X112510782Y-107926400D01*
X112510782Y-107926400D02*
X112544116Y-107993066D01*
X112544116Y-107993066D02*
X112577449Y-108026400D01*
X112577449Y-108026400D02*
X112644116Y-108059733D01*
X112644116Y-108059733D02*
X112810782Y-108059733D01*
X112810782Y-108059733D02*
X112877449Y-108026400D01*
X112877449Y-108026400D02*
X112910782Y-107993066D01*
X112210782Y-108059733D02*
X112210782Y-107359733D01*
X111810782Y-108059733D02*
X112110782Y-107659733D01*
X111810782Y-107359733D02*
X112210782Y-107759733D01*
X130849449Y-107958133D02*
X130849449Y-107258133D01*
X130849449Y-107258133D02*
X130682782Y-107258133D01*
X130682782Y-107258133D02*
X130582782Y-107291466D01*
X130582782Y-107291466D02*
X130516116Y-107358133D01*
X130516116Y-107358133D02*
X130482782Y-107424800D01*
X130482782Y-107424800D02*
X130449449Y-107558133D01*
X130449449Y-107558133D02*
X130449449Y-107658133D01*
X130449449Y-107658133D02*
X130482782Y-107791466D01*
X130482782Y-107791466D02*
X130516116Y-107858133D01*
X130516116Y-107858133D02*
X130582782Y-107924800D01*
X130582782Y-107924800D02*
X130682782Y-107958133D01*
X130682782Y-107958133D02*
X130849449Y-107958133D01*
X130182782Y-107324800D02*
X130149449Y-107291466D01*
X130149449Y-107291466D02*
X130082782Y-107258133D01*
X130082782Y-107258133D02*
X129916116Y-107258133D01*
X129916116Y-107258133D02*
X129849449Y-107291466D01*
X129849449Y-107291466D02*
X129816116Y-107324800D01*
X129816116Y-107324800D02*
X129782782Y-107391466D01*
X129782782Y-107391466D02*
X129782782Y-107458133D01*
X129782782Y-107458133D02*
X129816116Y-107558133D01*
X129816116Y-107558133D02*
X130216116Y-107958133D01*
X130216116Y-107958133D02*
X129782782Y-107958133D01*
X129516115Y-107758133D02*
X129182782Y-107758133D01*
X129582782Y-107958133D02*
X129349449Y-107258133D01*
X129349449Y-107258133D02*
X129116115Y-107958133D01*
X106029649Y-104681533D02*
X106029649Y-103981533D01*
X106029649Y-103981533D02*
X105862982Y-103981533D01*
X105862982Y-103981533D02*
X105762982Y-104014866D01*
X105762982Y-104014866D02*
X105696316Y-104081533D01*
X105696316Y-104081533D02*
X105662982Y-104148200D01*
X105662982Y-104148200D02*
X105629649Y-104281533D01*
X105629649Y-104281533D02*
X105629649Y-104381533D01*
X105629649Y-104381533D02*
X105662982Y-104514866D01*
X105662982Y-104514866D02*
X105696316Y-104581533D01*
X105696316Y-104581533D02*
X105762982Y-104648200D01*
X105762982Y-104648200D02*
X105862982Y-104681533D01*
X105862982Y-104681533D02*
X106029649Y-104681533D01*
X105029649Y-104214866D02*
X105029649Y-104681533D01*
X105196316Y-103948200D02*
X105362982Y-104448200D01*
X105362982Y-104448200D02*
X104929649Y-104448200D01*
X104696315Y-104481533D02*
X104362982Y-104481533D01*
X104762982Y-104681533D02*
X104529649Y-103981533D01*
X104529649Y-103981533D02*
X104296315Y-104681533D01*
X120662449Y-107308933D02*
X120429116Y-108008933D01*
X120429116Y-108008933D02*
X120195782Y-107308933D01*
X119562449Y-107942266D02*
X119595782Y-107975600D01*
X119595782Y-107975600D02*
X119695782Y-108008933D01*
X119695782Y-108008933D02*
X119762449Y-108008933D01*
X119762449Y-108008933D02*
X119862449Y-107975600D01*
X119862449Y-107975600D02*
X119929116Y-107908933D01*
X119929116Y-107908933D02*
X119962449Y-107842266D01*
X119962449Y-107842266D02*
X119995782Y-107708933D01*
X119995782Y-107708933D02*
X119995782Y-107608933D01*
X119995782Y-107608933D02*
X119962449Y-107475600D01*
X119962449Y-107475600D02*
X119929116Y-107408933D01*
X119929116Y-107408933D02*
X119862449Y-107342266D01*
X119862449Y-107342266D02*
X119762449Y-107308933D01*
X119762449Y-107308933D02*
X119695782Y-107308933D01*
X119695782Y-107308933D02*
X119595782Y-107342266D01*
X119595782Y-107342266D02*
X119562449Y-107375600D01*
X118862449Y-107942266D02*
X118895782Y-107975600D01*
X118895782Y-107975600D02*
X118995782Y-108008933D01*
X118995782Y-108008933D02*
X119062449Y-108008933D01*
X119062449Y-108008933D02*
X119162449Y-107975600D01*
X119162449Y-107975600D02*
X119229116Y-107908933D01*
X119229116Y-107908933D02*
X119262449Y-107842266D01*
X119262449Y-107842266D02*
X119295782Y-107708933D01*
X119295782Y-107708933D02*
X119295782Y-107608933D01*
X119295782Y-107608933D02*
X119262449Y-107475600D01*
X119262449Y-107475600D02*
X119229116Y-107408933D01*
X119229116Y-107408933D02*
X119162449Y-107342266D01*
X119162449Y-107342266D02*
X119062449Y-107308933D01*
X119062449Y-107308933D02*
X118995782Y-107308933D01*
X118995782Y-107308933D02*
X118895782Y-107342266D01*
X118895782Y-107342266D02*
X118862449Y-107375600D01*
X121119649Y-115411533D02*
X120886316Y-116111533D01*
X120886316Y-116111533D02*
X120652982Y-115411533D01*
X120019649Y-116044866D02*
X120052982Y-116078200D01*
X120052982Y-116078200D02*
X120152982Y-116111533D01*
X120152982Y-116111533D02*
X120219649Y-116111533D01*
X120219649Y-116111533D02*
X120319649Y-116078200D01*
X120319649Y-116078200D02*
X120386316Y-116011533D01*
X120386316Y-116011533D02*
X120419649Y-115944866D01*
X120419649Y-115944866D02*
X120452982Y-115811533D01*
X120452982Y-115811533D02*
X120452982Y-115711533D01*
X120452982Y-115711533D02*
X120419649Y-115578200D01*
X120419649Y-115578200D02*
X120386316Y-115511533D01*
X120386316Y-115511533D02*
X120319649Y-115444866D01*
X120319649Y-115444866D02*
X120219649Y-115411533D01*
X120219649Y-115411533D02*
X120152982Y-115411533D01*
X120152982Y-115411533D02*
X120052982Y-115444866D01*
X120052982Y-115444866D02*
X120019649Y-115478200D01*
X119319649Y-116044866D02*
X119352982Y-116078200D01*
X119352982Y-116078200D02*
X119452982Y-116111533D01*
X119452982Y-116111533D02*
X119519649Y-116111533D01*
X119519649Y-116111533D02*
X119619649Y-116078200D01*
X119619649Y-116078200D02*
X119686316Y-116011533D01*
X119686316Y-116011533D02*
X119719649Y-115944866D01*
X119719649Y-115944866D02*
X119752982Y-115811533D01*
X119752982Y-115811533D02*
X119752982Y-115711533D01*
X119752982Y-115711533D02*
X119719649Y-115578200D01*
X119719649Y-115578200D02*
X119686316Y-115511533D01*
X119686316Y-115511533D02*
X119619649Y-115444866D01*
X119619649Y-115444866D02*
X119519649Y-115411533D01*
X119519649Y-115411533D02*
X119452982Y-115411533D01*
X119452982Y-115411533D02*
X119352982Y-115444866D01*
X119352982Y-115444866D02*
X119319649Y-115478200D01*
X138549649Y-117381533D02*
X138549649Y-116681533D01*
X138549649Y-116681533D02*
X138382982Y-116681533D01*
X138382982Y-116681533D02*
X138282982Y-116714866D01*
X138282982Y-116714866D02*
X138216316Y-116781533D01*
X138216316Y-116781533D02*
X138182982Y-116848200D01*
X138182982Y-116848200D02*
X138149649Y-116981533D01*
X138149649Y-116981533D02*
X138149649Y-117081533D01*
X138149649Y-117081533D02*
X138182982Y-117214866D01*
X138182982Y-117214866D02*
X138216316Y-117281533D01*
X138216316Y-117281533D02*
X138282982Y-117348200D01*
X138282982Y-117348200D02*
X138382982Y-117381533D01*
X138382982Y-117381533D02*
X138549649Y-117381533D01*
X137916316Y-116681533D02*
X137482982Y-116681533D01*
X137482982Y-116681533D02*
X137716316Y-116948200D01*
X137716316Y-116948200D02*
X137616316Y-116948200D01*
X137616316Y-116948200D02*
X137549649Y-116981533D01*
X137549649Y-116981533D02*
X137516316Y-117014866D01*
X137516316Y-117014866D02*
X137482982Y-117081533D01*
X137482982Y-117081533D02*
X137482982Y-117248200D01*
X137482982Y-117248200D02*
X137516316Y-117314866D01*
X137516316Y-117314866D02*
X137549649Y-117348200D01*
X137549649Y-117348200D02*
X137616316Y-117381533D01*
X137616316Y-117381533D02*
X137816316Y-117381533D01*
X137816316Y-117381533D02*
X137882982Y-117348200D01*
X137882982Y-117348200D02*
X137916316Y-117314866D01*
X137182982Y-117381533D02*
X137182982Y-116681533D01*
X136782982Y-117381533D02*
X137082982Y-116981533D01*
X136782982Y-116681533D02*
X137182982Y-117081533D01*
X138549649Y-102141533D02*
X138549649Y-101441533D01*
X138549649Y-101441533D02*
X138382982Y-101441533D01*
X138382982Y-101441533D02*
X138282982Y-101474866D01*
X138282982Y-101474866D02*
X138216316Y-101541533D01*
X138216316Y-101541533D02*
X138182982Y-101608200D01*
X138182982Y-101608200D02*
X138149649Y-101741533D01*
X138149649Y-101741533D02*
X138149649Y-101841533D01*
X138149649Y-101841533D02*
X138182982Y-101974866D01*
X138182982Y-101974866D02*
X138216316Y-102041533D01*
X138216316Y-102041533D02*
X138282982Y-102108200D01*
X138282982Y-102108200D02*
X138382982Y-102141533D01*
X138382982Y-102141533D02*
X138549649Y-102141533D01*
X137482982Y-102141533D02*
X137882982Y-102141533D01*
X137682982Y-102141533D02*
X137682982Y-101441533D01*
X137682982Y-101441533D02*
X137749649Y-101541533D01*
X137749649Y-101541533D02*
X137816316Y-101608200D01*
X137816316Y-101608200D02*
X137882982Y-101641533D01*
X137182982Y-102141533D02*
X137182982Y-101441533D01*
X136782982Y-102141533D02*
X137082982Y-101741533D01*
X136782982Y-101441533D02*
X137182982Y-101841533D01*
X138182982Y-106554866D02*
X138249649Y-106521533D01*
X138249649Y-106521533D02*
X138349649Y-106521533D01*
X138349649Y-106521533D02*
X138449649Y-106554866D01*
X138449649Y-106554866D02*
X138516316Y-106621533D01*
X138516316Y-106621533D02*
X138549649Y-106688200D01*
X138549649Y-106688200D02*
X138582982Y-106821533D01*
X138582982Y-106821533D02*
X138582982Y-106921533D01*
X138582982Y-106921533D02*
X138549649Y-107054866D01*
X138549649Y-107054866D02*
X138516316Y-107121533D01*
X138516316Y-107121533D02*
X138449649Y-107188200D01*
X138449649Y-107188200D02*
X138349649Y-107221533D01*
X138349649Y-107221533D02*
X138282982Y-107221533D01*
X138282982Y-107221533D02*
X138182982Y-107188200D01*
X138182982Y-107188200D02*
X138149649Y-107154866D01*
X138149649Y-107154866D02*
X138149649Y-106921533D01*
X138149649Y-106921533D02*
X138282982Y-106921533D01*
X137849649Y-107221533D02*
X137849649Y-106521533D01*
X137849649Y-106521533D02*
X137449649Y-107221533D01*
X137449649Y-107221533D02*
X137449649Y-106521533D01*
X137116316Y-107221533D02*
X137116316Y-106521533D01*
X137116316Y-106521533D02*
X136949649Y-106521533D01*
X136949649Y-106521533D02*
X136849649Y-106554866D01*
X136849649Y-106554866D02*
X136782983Y-106621533D01*
X136782983Y-106621533D02*
X136749649Y-106688200D01*
X136749649Y-106688200D02*
X136716316Y-106821533D01*
X136716316Y-106821533D02*
X136716316Y-106921533D01*
X136716316Y-106921533D02*
X136749649Y-107054866D01*
X136749649Y-107054866D02*
X136782983Y-107121533D01*
X136782983Y-107121533D02*
X136849649Y-107188200D01*
X136849649Y-107188200D02*
X136949649Y-107221533D01*
X136949649Y-107221533D02*
X137116316Y-107221533D01*
X128639649Y-116111533D02*
X128639649Y-115411533D01*
X128639649Y-115411533D02*
X128472982Y-115411533D01*
X128472982Y-115411533D02*
X128372982Y-115444866D01*
X128372982Y-115444866D02*
X128306316Y-115511533D01*
X128306316Y-115511533D02*
X128272982Y-115578200D01*
X128272982Y-115578200D02*
X128239649Y-115711533D01*
X128239649Y-115711533D02*
X128239649Y-115811533D01*
X128239649Y-115811533D02*
X128272982Y-115944866D01*
X128272982Y-115944866D02*
X128306316Y-116011533D01*
X128306316Y-116011533D02*
X128372982Y-116078200D01*
X128372982Y-116078200D02*
X128472982Y-116111533D01*
X128472982Y-116111533D02*
X128639649Y-116111533D01*
X128006316Y-115411533D02*
X127572982Y-115411533D01*
X127572982Y-115411533D02*
X127806316Y-115678200D01*
X127806316Y-115678200D02*
X127706316Y-115678200D01*
X127706316Y-115678200D02*
X127639649Y-115711533D01*
X127639649Y-115711533D02*
X127606316Y-115744866D01*
X127606316Y-115744866D02*
X127572982Y-115811533D01*
X127572982Y-115811533D02*
X127572982Y-115978200D01*
X127572982Y-115978200D02*
X127606316Y-116044866D01*
X127606316Y-116044866D02*
X127639649Y-116078200D01*
X127639649Y-116078200D02*
X127706316Y-116111533D01*
X127706316Y-116111533D02*
X127906316Y-116111533D01*
X127906316Y-116111533D02*
X127972982Y-116078200D01*
X127972982Y-116078200D02*
X128006316Y-116044866D01*
X127272982Y-116111533D02*
X127272982Y-115411533D01*
X126872982Y-116111533D02*
X127172982Y-115711533D01*
X126872982Y-115411533D02*
X127272982Y-115811533D01*
X106062982Y-109728200D02*
X105962982Y-109761533D01*
X105962982Y-109761533D02*
X105796316Y-109761533D01*
X105796316Y-109761533D02*
X105729649Y-109728200D01*
X105729649Y-109728200D02*
X105696316Y-109694866D01*
X105696316Y-109694866D02*
X105662982Y-109628200D01*
X105662982Y-109628200D02*
X105662982Y-109561533D01*
X105662982Y-109561533D02*
X105696316Y-109494866D01*
X105696316Y-109494866D02*
X105729649Y-109461533D01*
X105729649Y-109461533D02*
X105796316Y-109428200D01*
X105796316Y-109428200D02*
X105929649Y-109394866D01*
X105929649Y-109394866D02*
X105996316Y-109361533D01*
X105996316Y-109361533D02*
X106029649Y-109328200D01*
X106029649Y-109328200D02*
X106062982Y-109261533D01*
X106062982Y-109261533D02*
X106062982Y-109194866D01*
X106062982Y-109194866D02*
X106029649Y-109128200D01*
X106029649Y-109128200D02*
X105996316Y-109094866D01*
X105996316Y-109094866D02*
X105929649Y-109061533D01*
X105929649Y-109061533D02*
X105762982Y-109061533D01*
X105762982Y-109061533D02*
X105662982Y-109094866D01*
X104962982Y-109694866D02*
X104996315Y-109728200D01*
X104996315Y-109728200D02*
X105096315Y-109761533D01*
X105096315Y-109761533D02*
X105162982Y-109761533D01*
X105162982Y-109761533D02*
X105262982Y-109728200D01*
X105262982Y-109728200D02*
X105329649Y-109661533D01*
X105329649Y-109661533D02*
X105362982Y-109594866D01*
X105362982Y-109594866D02*
X105396315Y-109461533D01*
X105396315Y-109461533D02*
X105396315Y-109361533D01*
X105396315Y-109361533D02*
X105362982Y-109228200D01*
X105362982Y-109228200D02*
X105329649Y-109161533D01*
X105329649Y-109161533D02*
X105262982Y-109094866D01*
X105262982Y-109094866D02*
X105162982Y-109061533D01*
X105162982Y-109061533D02*
X105096315Y-109061533D01*
X105096315Y-109061533D02*
X104996315Y-109094866D01*
X104996315Y-109094866D02*
X104962982Y-109128200D01*
X104329649Y-109761533D02*
X104662982Y-109761533D01*
X104662982Y-109761533D02*
X104662982Y-109061533D01*
X106029649Y-102141533D02*
X106029649Y-101441533D01*
X106029649Y-101441533D02*
X105862982Y-101441533D01*
X105862982Y-101441533D02*
X105762982Y-101474866D01*
X105762982Y-101474866D02*
X105696316Y-101541533D01*
X105696316Y-101541533D02*
X105662982Y-101608200D01*
X105662982Y-101608200D02*
X105629649Y-101741533D01*
X105629649Y-101741533D02*
X105629649Y-101841533D01*
X105629649Y-101841533D02*
X105662982Y-101974866D01*
X105662982Y-101974866D02*
X105696316Y-102041533D01*
X105696316Y-102041533D02*
X105762982Y-102108200D01*
X105762982Y-102108200D02*
X105862982Y-102141533D01*
X105862982Y-102141533D02*
X106029649Y-102141533D01*
X105029649Y-101674866D02*
X105029649Y-102141533D01*
X105196316Y-101408200D02*
X105362982Y-101908200D01*
X105362982Y-101908200D02*
X104929649Y-101908200D01*
X104662982Y-102141533D02*
X104662982Y-101441533D01*
X104262982Y-102141533D02*
X104562982Y-101741533D01*
X104262982Y-101441533D02*
X104662982Y-101841533D01*
X106129649Y-106521533D02*
X105896316Y-107221533D01*
X105896316Y-107221533D02*
X105662982Y-106521533D01*
X105029649Y-107154866D02*
X105062982Y-107188200D01*
X105062982Y-107188200D02*
X105162982Y-107221533D01*
X105162982Y-107221533D02*
X105229649Y-107221533D01*
X105229649Y-107221533D02*
X105329649Y-107188200D01*
X105329649Y-107188200D02*
X105396316Y-107121533D01*
X105396316Y-107121533D02*
X105429649Y-107054866D01*
X105429649Y-107054866D02*
X105462982Y-106921533D01*
X105462982Y-106921533D02*
X105462982Y-106821533D01*
X105462982Y-106821533D02*
X105429649Y-106688200D01*
X105429649Y-106688200D02*
X105396316Y-106621533D01*
X105396316Y-106621533D02*
X105329649Y-106554866D01*
X105329649Y-106554866D02*
X105229649Y-106521533D01*
X105229649Y-106521533D02*
X105162982Y-106521533D01*
X105162982Y-106521533D02*
X105062982Y-106554866D01*
X105062982Y-106554866D02*
X105029649Y-106588200D01*
X104329649Y-107154866D02*
X104362982Y-107188200D01*
X104362982Y-107188200D02*
X104462982Y-107221533D01*
X104462982Y-107221533D02*
X104529649Y-107221533D01*
X104529649Y-107221533D02*
X104629649Y-107188200D01*
X104629649Y-107188200D02*
X104696316Y-107121533D01*
X104696316Y-107121533D02*
X104729649Y-107054866D01*
X104729649Y-107054866D02*
X104762982Y-106921533D01*
X104762982Y-106921533D02*
X104762982Y-106821533D01*
X104762982Y-106821533D02*
X104729649Y-106688200D01*
X104729649Y-106688200D02*
X104696316Y-106621533D01*
X104696316Y-106621533D02*
X104629649Y-106554866D01*
X104629649Y-106554866D02*
X104529649Y-106521533D01*
X104529649Y-106521533D02*
X104462982Y-106521533D01*
X104462982Y-106521533D02*
X104362982Y-106554866D01*
X104362982Y-106554866D02*
X104329649Y-106588200D01*
X135624649Y-116111533D02*
X135624649Y-115411533D01*
X135624649Y-115411533D02*
X135457982Y-115411533D01*
X135457982Y-115411533D02*
X135357982Y-115444866D01*
X135357982Y-115444866D02*
X135291316Y-115511533D01*
X135291316Y-115511533D02*
X135257982Y-115578200D01*
X135257982Y-115578200D02*
X135224649Y-115711533D01*
X135224649Y-115711533D02*
X135224649Y-115811533D01*
X135224649Y-115811533D02*
X135257982Y-115944866D01*
X135257982Y-115944866D02*
X135291316Y-116011533D01*
X135291316Y-116011533D02*
X135357982Y-116078200D01*
X135357982Y-116078200D02*
X135457982Y-116111533D01*
X135457982Y-116111533D02*
X135624649Y-116111533D01*
X134557982Y-116111533D02*
X134957982Y-116111533D01*
X134757982Y-116111533D02*
X134757982Y-115411533D01*
X134757982Y-115411533D02*
X134824649Y-115511533D01*
X134824649Y-115511533D02*
X134891316Y-115578200D01*
X134891316Y-115578200D02*
X134957982Y-115611533D01*
X134257982Y-116111533D02*
X134257982Y-115411533D01*
X133857982Y-116111533D02*
X134157982Y-115711533D01*
X133857982Y-115411533D02*
X134257982Y-115811533D01*
X125394849Y-120413666D02*
X125428182Y-120447000D01*
X125428182Y-120447000D02*
X125528182Y-120480333D01*
X125528182Y-120480333D02*
X125594849Y-120480333D01*
X125594849Y-120480333D02*
X125694849Y-120447000D01*
X125694849Y-120447000D02*
X125761516Y-120380333D01*
X125761516Y-120380333D02*
X125794849Y-120313666D01*
X125794849Y-120313666D02*
X125828182Y-120180333D01*
X125828182Y-120180333D02*
X125828182Y-120080333D01*
X125828182Y-120080333D02*
X125794849Y-119947000D01*
X125794849Y-119947000D02*
X125761516Y-119880333D01*
X125761516Y-119880333D02*
X125694849Y-119813666D01*
X125694849Y-119813666D02*
X125594849Y-119780333D01*
X125594849Y-119780333D02*
X125528182Y-119780333D01*
X125528182Y-119780333D02*
X125428182Y-119813666D01*
X125428182Y-119813666D02*
X125394849Y-119847000D01*
X124961516Y-119780333D02*
X124828182Y-119780333D01*
X124828182Y-119780333D02*
X124761516Y-119813666D01*
X124761516Y-119813666D02*
X124694849Y-119880333D01*
X124694849Y-119880333D02*
X124661516Y-120013666D01*
X124661516Y-120013666D02*
X124661516Y-120247000D01*
X124661516Y-120247000D02*
X124694849Y-120380333D01*
X124694849Y-120380333D02*
X124761516Y-120447000D01*
X124761516Y-120447000D02*
X124828182Y-120480333D01*
X124828182Y-120480333D02*
X124961516Y-120480333D01*
X124961516Y-120480333D02*
X125028182Y-120447000D01*
X125028182Y-120447000D02*
X125094849Y-120380333D01*
X125094849Y-120380333D02*
X125128182Y-120247000D01*
X125128182Y-120247000D02*
X125128182Y-120013666D01*
X125128182Y-120013666D02*
X125094849Y-119880333D01*
X125094849Y-119880333D02*
X125028182Y-119813666D01*
X125028182Y-119813666D02*
X124961516Y-119780333D01*
X124361516Y-120480333D02*
X124361516Y-119780333D01*
X124361516Y-119780333D02*
X123961516Y-120480333D01*
X123961516Y-120480333D02*
X123961516Y-119780333D01*
X123628183Y-120480333D02*
X123628183Y-119780333D01*
X123628183Y-119780333D02*
X123228183Y-120480333D01*
X123228183Y-120480333D02*
X123228183Y-119780333D01*
X122894850Y-120113666D02*
X122661517Y-120113666D01*
X122561517Y-120480333D02*
X122894850Y-120480333D01*
X122894850Y-120480333D02*
X122894850Y-119780333D01*
X122894850Y-119780333D02*
X122561517Y-119780333D01*
X121861517Y-120413666D02*
X121894850Y-120447000D01*
X121894850Y-120447000D02*
X121994850Y-120480333D01*
X121994850Y-120480333D02*
X122061517Y-120480333D01*
X122061517Y-120480333D02*
X122161517Y-120447000D01*
X122161517Y-120447000D02*
X122228184Y-120380333D01*
X122228184Y-120380333D02*
X122261517Y-120313666D01*
X122261517Y-120313666D02*
X122294850Y-120180333D01*
X122294850Y-120180333D02*
X122294850Y-120080333D01*
X122294850Y-120080333D02*
X122261517Y-119947000D01*
X122261517Y-119947000D02*
X122228184Y-119880333D01*
X122228184Y-119880333D02*
X122161517Y-119813666D01*
X122161517Y-119813666D02*
X122061517Y-119780333D01*
X122061517Y-119780333D02*
X121994850Y-119780333D01*
X121994850Y-119780333D02*
X121894850Y-119813666D01*
X121894850Y-119813666D02*
X121861517Y-119847000D01*
X121661517Y-119780333D02*
X121261517Y-119780333D01*
X121461517Y-120480333D02*
X121461517Y-119780333D01*
X120894851Y-119780333D02*
X120761517Y-119780333D01*
X120761517Y-119780333D02*
X120694851Y-119813666D01*
X120694851Y-119813666D02*
X120628184Y-119880333D01*
X120628184Y-119880333D02*
X120594851Y-120013666D01*
X120594851Y-120013666D02*
X120594851Y-120247000D01*
X120594851Y-120247000D02*
X120628184Y-120380333D01*
X120628184Y-120380333D02*
X120694851Y-120447000D01*
X120694851Y-120447000D02*
X120761517Y-120480333D01*
X120761517Y-120480333D02*
X120894851Y-120480333D01*
X120894851Y-120480333D02*
X120961517Y-120447000D01*
X120961517Y-120447000D02*
X121028184Y-120380333D01*
X121028184Y-120380333D02*
X121061517Y-120247000D01*
X121061517Y-120247000D02*
X121061517Y-120013666D01*
X121061517Y-120013666D02*
X121028184Y-119880333D01*
X121028184Y-119880333D02*
X120961517Y-119813666D01*
X120961517Y-119813666D02*
X120894851Y-119780333D01*
X119894851Y-120480333D02*
X120128184Y-120147000D01*
X120294851Y-120480333D02*
X120294851Y-119780333D01*
X120294851Y-119780333D02*
X120028184Y-119780333D01*
X120028184Y-119780333D02*
X119961518Y-119813666D01*
X119961518Y-119813666D02*
X119928184Y-119847000D01*
X119928184Y-119847000D02*
X119894851Y-119913666D01*
X119894851Y-119913666D02*
X119894851Y-120013666D01*
X119894851Y-120013666D02*
X119928184Y-120080333D01*
X119928184Y-120080333D02*
X119961518Y-120113666D01*
X119961518Y-120113666D02*
X120028184Y-120147000D01*
X120028184Y-120147000D02*
X120294851Y-120147000D01*
X118828185Y-120113666D02*
X118728185Y-120147000D01*
X118728185Y-120147000D02*
X118694851Y-120180333D01*
X118694851Y-120180333D02*
X118661518Y-120247000D01*
X118661518Y-120247000D02*
X118661518Y-120347000D01*
X118661518Y-120347000D02*
X118694851Y-120413666D01*
X118694851Y-120413666D02*
X118728185Y-120447000D01*
X118728185Y-120447000D02*
X118794851Y-120480333D01*
X118794851Y-120480333D02*
X119061518Y-120480333D01*
X119061518Y-120480333D02*
X119061518Y-119780333D01*
X119061518Y-119780333D02*
X118828185Y-119780333D01*
X118828185Y-119780333D02*
X118761518Y-119813666D01*
X118761518Y-119813666D02*
X118728185Y-119847000D01*
X118728185Y-119847000D02*
X118694851Y-119913666D01*
X118694851Y-119913666D02*
X118694851Y-119980333D01*
X118694851Y-119980333D02*
X118728185Y-120047000D01*
X118728185Y-120047000D02*
X118761518Y-120080333D01*
X118761518Y-120080333D02*
X118828185Y-120113666D01*
X118828185Y-120113666D02*
X119061518Y-120113666D01*
X118228185Y-119780333D02*
X118094851Y-119780333D01*
X118094851Y-119780333D02*
X118028185Y-119813666D01*
X118028185Y-119813666D02*
X117961518Y-119880333D01*
X117961518Y-119880333D02*
X117928185Y-120013666D01*
X117928185Y-120013666D02*
X117928185Y-120247000D01*
X117928185Y-120247000D02*
X117961518Y-120380333D01*
X117961518Y-120380333D02*
X118028185Y-120447000D01*
X118028185Y-120447000D02*
X118094851Y-120480333D01*
X118094851Y-120480333D02*
X118228185Y-120480333D01*
X118228185Y-120480333D02*
X118294851Y-120447000D01*
X118294851Y-120447000D02*
X118361518Y-120380333D01*
X118361518Y-120380333D02*
X118394851Y-120247000D01*
X118394851Y-120247000D02*
X118394851Y-120013666D01*
X118394851Y-120013666D02*
X118361518Y-119880333D01*
X118361518Y-119880333D02*
X118294851Y-119813666D01*
X118294851Y-119813666D02*
X118228185Y-119780333D01*
X117661518Y-120280333D02*
X117328185Y-120280333D01*
X117728185Y-120480333D02*
X117494852Y-119780333D01*
X117494852Y-119780333D02*
X117261518Y-120480333D01*
X116628185Y-120480333D02*
X116861518Y-120147000D01*
X117028185Y-120480333D02*
X117028185Y-119780333D01*
X117028185Y-119780333D02*
X116761518Y-119780333D01*
X116761518Y-119780333D02*
X116694852Y-119813666D01*
X116694852Y-119813666D02*
X116661518Y-119847000D01*
X116661518Y-119847000D02*
X116628185Y-119913666D01*
X116628185Y-119913666D02*
X116628185Y-120013666D01*
X116628185Y-120013666D02*
X116661518Y-120080333D01*
X116661518Y-120080333D02*
X116694852Y-120113666D01*
X116694852Y-120113666D02*
X116761518Y-120147000D01*
X116761518Y-120147000D02*
X117028185Y-120147000D01*
X116328185Y-120480333D02*
X116328185Y-119780333D01*
X116328185Y-119780333D02*
X116161518Y-119780333D01*
X116161518Y-119780333D02*
X116061518Y-119813666D01*
X116061518Y-119813666D02*
X115994852Y-119880333D01*
X115994852Y-119880333D02*
X115961518Y-119947000D01*
X115961518Y-119947000D02*
X115928185Y-120080333D01*
X115928185Y-120080333D02*
X115928185Y-120180333D01*
X115928185Y-120180333D02*
X115961518Y-120313666D01*
X115961518Y-120313666D02*
X115994852Y-120380333D01*
X115994852Y-120380333D02*
X116061518Y-120447000D01*
X116061518Y-120447000D02*
X116161518Y-120480333D01*
X116161518Y-120480333D02*
X116328185Y-120480333D01*
X112586849Y-104021133D02*
X112586849Y-103321133D01*
X112586849Y-103321133D02*
X112420182Y-103321133D01*
X112420182Y-103321133D02*
X112320182Y-103354466D01*
X112320182Y-103354466D02*
X112253516Y-103421133D01*
X112253516Y-103421133D02*
X112220182Y-103487800D01*
X112220182Y-103487800D02*
X112186849Y-103621133D01*
X112186849Y-103621133D02*
X112186849Y-103721133D01*
X112186849Y-103721133D02*
X112220182Y-103854466D01*
X112220182Y-103854466D02*
X112253516Y-103921133D01*
X112253516Y-103921133D02*
X112320182Y-103987800D01*
X112320182Y-103987800D02*
X112420182Y-104021133D01*
X112420182Y-104021133D02*
X112586849Y-104021133D01*
X111553516Y-103321133D02*
X111886849Y-103321133D01*
X111886849Y-103321133D02*
X111920182Y-103654466D01*
X111920182Y-103654466D02*
X111886849Y-103621133D01*
X111886849Y-103621133D02*
X111820182Y-103587800D01*
X111820182Y-103587800D02*
X111653516Y-103587800D01*
X111653516Y-103587800D02*
X111586849Y-103621133D01*
X111586849Y-103621133D02*
X111553516Y-103654466D01*
X111553516Y-103654466D02*
X111520182Y-103721133D01*
X111520182Y-103721133D02*
X111520182Y-103887800D01*
X111520182Y-103887800D02*
X111553516Y-103954466D01*
X111553516Y-103954466D02*
X111586849Y-103987800D01*
X111586849Y-103987800D02*
X111653516Y-104021133D01*
X111653516Y-104021133D02*
X111820182Y-104021133D01*
X111820182Y-104021133D02*
X111886849Y-103987800D01*
X111886849Y-103987800D02*
X111920182Y-103954466D01*
X111253515Y-103821133D02*
X110920182Y-103821133D01*
X111320182Y-104021133D02*
X111086849Y-103321133D01*
X111086849Y-103321133D02*
X110853515Y-104021133D01*
X124462982Y-115444866D02*
X124529649Y-115411533D01*
X124529649Y-115411533D02*
X124629649Y-115411533D01*
X124629649Y-115411533D02*
X124729649Y-115444866D01*
X124729649Y-115444866D02*
X124796316Y-115511533D01*
X124796316Y-115511533D02*
X124829649Y-115578200D01*
X124829649Y-115578200D02*
X124862982Y-115711533D01*
X124862982Y-115711533D02*
X124862982Y-115811533D01*
X124862982Y-115811533D02*
X124829649Y-115944866D01*
X124829649Y-115944866D02*
X124796316Y-116011533D01*
X124796316Y-116011533D02*
X124729649Y-116078200D01*
X124729649Y-116078200D02*
X124629649Y-116111533D01*
X124629649Y-116111533D02*
X124562982Y-116111533D01*
X124562982Y-116111533D02*
X124462982Y-116078200D01*
X124462982Y-116078200D02*
X124429649Y-116044866D01*
X124429649Y-116044866D02*
X124429649Y-115811533D01*
X124429649Y-115811533D02*
X124562982Y-115811533D01*
X124129649Y-116111533D02*
X124129649Y-115411533D01*
X124129649Y-115411533D02*
X123729649Y-116111533D01*
X123729649Y-116111533D02*
X123729649Y-115411533D01*
X123396316Y-116111533D02*
X123396316Y-115411533D01*
X123396316Y-115411533D02*
X123229649Y-115411533D01*
X123229649Y-115411533D02*
X123129649Y-115444866D01*
X123129649Y-115444866D02*
X123062983Y-115511533D01*
X123062983Y-115511533D02*
X123029649Y-115578200D01*
X123029649Y-115578200D02*
X122996316Y-115711533D01*
X122996316Y-115711533D02*
X122996316Y-115811533D01*
X122996316Y-115811533D02*
X123029649Y-115944866D01*
X123029649Y-115944866D02*
X123062983Y-116011533D01*
X123062983Y-116011533D02*
X123129649Y-116078200D01*
X123129649Y-116078200D02*
X123229649Y-116111533D01*
X123229649Y-116111533D02*
X123396316Y-116111533D01*
X116066649Y-104071933D02*
X116066649Y-103371933D01*
X116066649Y-103371933D02*
X115899982Y-103371933D01*
X115899982Y-103371933D02*
X115799982Y-103405266D01*
X115799982Y-103405266D02*
X115733316Y-103471933D01*
X115733316Y-103471933D02*
X115699982Y-103538600D01*
X115699982Y-103538600D02*
X115666649Y-103671933D01*
X115666649Y-103671933D02*
X115666649Y-103771933D01*
X115666649Y-103771933D02*
X115699982Y-103905266D01*
X115699982Y-103905266D02*
X115733316Y-103971933D01*
X115733316Y-103971933D02*
X115799982Y-104038600D01*
X115799982Y-104038600D02*
X115899982Y-104071933D01*
X115899982Y-104071933D02*
X116066649Y-104071933D01*
X115066649Y-103605266D02*
X115066649Y-104071933D01*
X115233316Y-103338600D02*
X115399982Y-103838600D01*
X115399982Y-103838600D02*
X114966649Y-103838600D01*
X114733315Y-103871933D02*
X114399982Y-103871933D01*
X114799982Y-104071933D02*
X114566649Y-103371933D01*
X114566649Y-103371933D02*
X114333315Y-104071933D01*
X133643449Y-103944933D02*
X133643449Y-103244933D01*
X133643449Y-103244933D02*
X133476782Y-103244933D01*
X133476782Y-103244933D02*
X133376782Y-103278266D01*
X133376782Y-103278266D02*
X133310116Y-103344933D01*
X133310116Y-103344933D02*
X133276782Y-103411600D01*
X133276782Y-103411600D02*
X133243449Y-103544933D01*
X133243449Y-103544933D02*
X133243449Y-103644933D01*
X133243449Y-103644933D02*
X133276782Y-103778266D01*
X133276782Y-103778266D02*
X133310116Y-103844933D01*
X133310116Y-103844933D02*
X133376782Y-103911600D01*
X133376782Y-103911600D02*
X133476782Y-103944933D01*
X133476782Y-103944933D02*
X133643449Y-103944933D01*
X132576782Y-103944933D02*
X132976782Y-103944933D01*
X132776782Y-103944933D02*
X132776782Y-103244933D01*
X132776782Y-103244933D02*
X132843449Y-103344933D01*
X132843449Y-103344933D02*
X132910116Y-103411600D01*
X132910116Y-103411600D02*
X132976782Y-103444933D01*
X132310115Y-103744933D02*
X131976782Y-103744933D01*
X132376782Y-103944933D02*
X132143449Y-103244933D01*
X132143449Y-103244933D02*
X131910115Y-103944933D01*
X114034649Y-116111533D02*
X114034649Y-115411533D01*
X114034649Y-115411533D02*
X113867982Y-115411533D01*
X113867982Y-115411533D02*
X113767982Y-115444866D01*
X113767982Y-115444866D02*
X113701316Y-115511533D01*
X113701316Y-115511533D02*
X113667982Y-115578200D01*
X113667982Y-115578200D02*
X113634649Y-115711533D01*
X113634649Y-115711533D02*
X113634649Y-115811533D01*
X113634649Y-115811533D02*
X113667982Y-115944866D01*
X113667982Y-115944866D02*
X113701316Y-116011533D01*
X113701316Y-116011533D02*
X113767982Y-116078200D01*
X113767982Y-116078200D02*
X113867982Y-116111533D01*
X113867982Y-116111533D02*
X114034649Y-116111533D01*
X113001316Y-115411533D02*
X113334649Y-115411533D01*
X113334649Y-115411533D02*
X113367982Y-115744866D01*
X113367982Y-115744866D02*
X113334649Y-115711533D01*
X113334649Y-115711533D02*
X113267982Y-115678200D01*
X113267982Y-115678200D02*
X113101316Y-115678200D01*
X113101316Y-115678200D02*
X113034649Y-115711533D01*
X113034649Y-115711533D02*
X113001316Y-115744866D01*
X113001316Y-115744866D02*
X112967982Y-115811533D01*
X112967982Y-115811533D02*
X112967982Y-115978200D01*
X112967982Y-115978200D02*
X113001316Y-116044866D01*
X113001316Y-116044866D02*
X113034649Y-116078200D01*
X113034649Y-116078200D02*
X113101316Y-116111533D01*
X113101316Y-116111533D02*
X113267982Y-116111533D01*
X113267982Y-116111533D02*
X113334649Y-116078200D01*
X113334649Y-116078200D02*
X113367982Y-116044866D01*
X112667982Y-116111533D02*
X112667982Y-115411533D01*
X112267982Y-116111533D02*
X112567982Y-115711533D01*
X112267982Y-115411533D02*
X112667982Y-115811533D01*
X106029649Y-117381533D02*
X106029649Y-116681533D01*
X106029649Y-116681533D02*
X105862982Y-116681533D01*
X105862982Y-116681533D02*
X105762982Y-116714866D01*
X105762982Y-116714866D02*
X105696316Y-116781533D01*
X105696316Y-116781533D02*
X105662982Y-116848200D01*
X105662982Y-116848200D02*
X105629649Y-116981533D01*
X105629649Y-116981533D02*
X105629649Y-117081533D01*
X105629649Y-117081533D02*
X105662982Y-117214866D01*
X105662982Y-117214866D02*
X105696316Y-117281533D01*
X105696316Y-117281533D02*
X105762982Y-117348200D01*
X105762982Y-117348200D02*
X105862982Y-117381533D01*
X105862982Y-117381533D02*
X106029649Y-117381533D01*
X105029649Y-116681533D02*
X105162982Y-116681533D01*
X105162982Y-116681533D02*
X105229649Y-116714866D01*
X105229649Y-116714866D02*
X105262982Y-116748200D01*
X105262982Y-116748200D02*
X105329649Y-116848200D01*
X105329649Y-116848200D02*
X105362982Y-116981533D01*
X105362982Y-116981533D02*
X105362982Y-117248200D01*
X105362982Y-117248200D02*
X105329649Y-117314866D01*
X105329649Y-117314866D02*
X105296316Y-117348200D01*
X105296316Y-117348200D02*
X105229649Y-117381533D01*
X105229649Y-117381533D02*
X105096316Y-117381533D01*
X105096316Y-117381533D02*
X105029649Y-117348200D01*
X105029649Y-117348200D02*
X104996316Y-117314866D01*
X104996316Y-117314866D02*
X104962982Y-117248200D01*
X104962982Y-117248200D02*
X104962982Y-117081533D01*
X104962982Y-117081533D02*
X104996316Y-117014866D01*
X104996316Y-117014866D02*
X105029649Y-116981533D01*
X105029649Y-116981533D02*
X105096316Y-116948200D01*
X105096316Y-116948200D02*
X105229649Y-116948200D01*
X105229649Y-116948200D02*
X105296316Y-116981533D01*
X105296316Y-116981533D02*
X105329649Y-117014866D01*
X105329649Y-117014866D02*
X105362982Y-117081533D01*
X104662982Y-117381533D02*
X104662982Y-116681533D01*
X104262982Y-117381533D02*
X104562982Y-116981533D01*
X104262982Y-116681533D02*
X104662982Y-117081533D01*
X138549649Y-112301533D02*
X138549649Y-111601533D01*
X138549649Y-111601533D02*
X138382982Y-111601533D01*
X138382982Y-111601533D02*
X138282982Y-111634866D01*
X138282982Y-111634866D02*
X138216316Y-111701533D01*
X138216316Y-111701533D02*
X138182982Y-111768200D01*
X138182982Y-111768200D02*
X138149649Y-111901533D01*
X138149649Y-111901533D02*
X138149649Y-112001533D01*
X138149649Y-112001533D02*
X138182982Y-112134866D01*
X138182982Y-112134866D02*
X138216316Y-112201533D01*
X138216316Y-112201533D02*
X138282982Y-112268200D01*
X138282982Y-112268200D02*
X138382982Y-112301533D01*
X138382982Y-112301533D02*
X138549649Y-112301533D01*
X137882982Y-111668200D02*
X137849649Y-111634866D01*
X137849649Y-111634866D02*
X137782982Y-111601533D01*
X137782982Y-111601533D02*
X137616316Y-111601533D01*
X137616316Y-111601533D02*
X137549649Y-111634866D01*
X137549649Y-111634866D02*
X137516316Y-111668200D01*
X137516316Y-111668200D02*
X137482982Y-111734866D01*
X137482982Y-111734866D02*
X137482982Y-111801533D01*
X137482982Y-111801533D02*
X137516316Y-111901533D01*
X137516316Y-111901533D02*
X137916316Y-112301533D01*
X137916316Y-112301533D02*
X137482982Y-112301533D01*
X137182982Y-112301533D02*
X137182982Y-111601533D01*
X136782982Y-112301533D02*
X137082982Y-111901533D01*
X136782982Y-111601533D02*
X137182982Y-112001533D01*
X116741382Y-107342266D02*
X116808049Y-107308933D01*
X116808049Y-107308933D02*
X116908049Y-107308933D01*
X116908049Y-107308933D02*
X117008049Y-107342266D01*
X117008049Y-107342266D02*
X117074716Y-107408933D01*
X117074716Y-107408933D02*
X117108049Y-107475600D01*
X117108049Y-107475600D02*
X117141382Y-107608933D01*
X117141382Y-107608933D02*
X117141382Y-107708933D01*
X117141382Y-107708933D02*
X117108049Y-107842266D01*
X117108049Y-107842266D02*
X117074716Y-107908933D01*
X117074716Y-107908933D02*
X117008049Y-107975600D01*
X117008049Y-107975600D02*
X116908049Y-108008933D01*
X116908049Y-108008933D02*
X116841382Y-108008933D01*
X116841382Y-108008933D02*
X116741382Y-107975600D01*
X116741382Y-107975600D02*
X116708049Y-107942266D01*
X116708049Y-107942266D02*
X116708049Y-107708933D01*
X116708049Y-107708933D02*
X116841382Y-107708933D01*
X116408049Y-108008933D02*
X116408049Y-107308933D01*
X116408049Y-107308933D02*
X116008049Y-108008933D01*
X116008049Y-108008933D02*
X116008049Y-107308933D01*
X115674716Y-108008933D02*
X115674716Y-107308933D01*
X115674716Y-107308933D02*
X115508049Y-107308933D01*
X115508049Y-107308933D02*
X115408049Y-107342266D01*
X115408049Y-107342266D02*
X115341383Y-107408933D01*
X115341383Y-107408933D02*
X115308049Y-107475600D01*
X115308049Y-107475600D02*
X115274716Y-107608933D01*
X115274716Y-107608933D02*
X115274716Y-107708933D01*
X115274716Y-107708933D02*
X115308049Y-107842266D01*
X115308049Y-107842266D02*
X115341383Y-107908933D01*
X115341383Y-107908933D02*
X115408049Y-107975600D01*
X115408049Y-107975600D02*
X115508049Y-108008933D01*
X115508049Y-108008933D02*
X115674716Y-108008933D01*
X106029649Y-114841533D02*
X106029649Y-114141533D01*
X106029649Y-114141533D02*
X105862982Y-114141533D01*
X105862982Y-114141533D02*
X105762982Y-114174866D01*
X105762982Y-114174866D02*
X105696316Y-114241533D01*
X105696316Y-114241533D02*
X105662982Y-114308200D01*
X105662982Y-114308200D02*
X105629649Y-114441533D01*
X105629649Y-114441533D02*
X105629649Y-114541533D01*
X105629649Y-114541533D02*
X105662982Y-114674866D01*
X105662982Y-114674866D02*
X105696316Y-114741533D01*
X105696316Y-114741533D02*
X105762982Y-114808200D01*
X105762982Y-114808200D02*
X105862982Y-114841533D01*
X105862982Y-114841533D02*
X106029649Y-114841533D01*
X104996316Y-114141533D02*
X105329649Y-114141533D01*
X105329649Y-114141533D02*
X105362982Y-114474866D01*
X105362982Y-114474866D02*
X105329649Y-114441533D01*
X105329649Y-114441533D02*
X105262982Y-114408200D01*
X105262982Y-114408200D02*
X105096316Y-114408200D01*
X105096316Y-114408200D02*
X105029649Y-114441533D01*
X105029649Y-114441533D02*
X104996316Y-114474866D01*
X104996316Y-114474866D02*
X104962982Y-114541533D01*
X104962982Y-114541533D02*
X104962982Y-114708200D01*
X104962982Y-114708200D02*
X104996316Y-114774866D01*
X104996316Y-114774866D02*
X105029649Y-114808200D01*
X105029649Y-114808200D02*
X105096316Y-114841533D01*
X105096316Y-114841533D02*
X105262982Y-114841533D01*
X105262982Y-114841533D02*
X105329649Y-114808200D01*
X105329649Y-114808200D02*
X105362982Y-114774866D01*
X104696315Y-114641533D02*
X104362982Y-114641533D01*
X104762982Y-114841533D02*
X104529649Y-114141533D01*
X104529649Y-114141533D02*
X104296315Y-114841533D01*
X106029649Y-119921533D02*
X106029649Y-119221533D01*
X106029649Y-119221533D02*
X105862982Y-119221533D01*
X105862982Y-119221533D02*
X105762982Y-119254866D01*
X105762982Y-119254866D02*
X105696316Y-119321533D01*
X105696316Y-119321533D02*
X105662982Y-119388200D01*
X105662982Y-119388200D02*
X105629649Y-119521533D01*
X105629649Y-119521533D02*
X105629649Y-119621533D01*
X105629649Y-119621533D02*
X105662982Y-119754866D01*
X105662982Y-119754866D02*
X105696316Y-119821533D01*
X105696316Y-119821533D02*
X105762982Y-119888200D01*
X105762982Y-119888200D02*
X105862982Y-119921533D01*
X105862982Y-119921533D02*
X106029649Y-119921533D01*
X105029649Y-119221533D02*
X105162982Y-119221533D01*
X105162982Y-119221533D02*
X105229649Y-119254866D01*
X105229649Y-119254866D02*
X105262982Y-119288200D01*
X105262982Y-119288200D02*
X105329649Y-119388200D01*
X105329649Y-119388200D02*
X105362982Y-119521533D01*
X105362982Y-119521533D02*
X105362982Y-119788200D01*
X105362982Y-119788200D02*
X105329649Y-119854866D01*
X105329649Y-119854866D02*
X105296316Y-119888200D01*
X105296316Y-119888200D02*
X105229649Y-119921533D01*
X105229649Y-119921533D02*
X105096316Y-119921533D01*
X105096316Y-119921533D02*
X105029649Y-119888200D01*
X105029649Y-119888200D02*
X104996316Y-119854866D01*
X104996316Y-119854866D02*
X104962982Y-119788200D01*
X104962982Y-119788200D02*
X104962982Y-119621533D01*
X104962982Y-119621533D02*
X104996316Y-119554866D01*
X104996316Y-119554866D02*
X105029649Y-119521533D01*
X105029649Y-119521533D02*
X105096316Y-119488200D01*
X105096316Y-119488200D02*
X105229649Y-119488200D01*
X105229649Y-119488200D02*
X105296316Y-119521533D01*
X105296316Y-119521533D02*
X105329649Y-119554866D01*
X105329649Y-119554866D02*
X105362982Y-119621533D01*
X104696315Y-119721533D02*
X104362982Y-119721533D01*
X104762982Y-119921533D02*
X104529649Y-119221533D01*
X104529649Y-119221533D02*
X104296315Y-119921533D01*
X138582982Y-109728200D02*
X138482982Y-109761533D01*
X138482982Y-109761533D02*
X138316316Y-109761533D01*
X138316316Y-109761533D02*
X138249649Y-109728200D01*
X138249649Y-109728200D02*
X138216316Y-109694866D01*
X138216316Y-109694866D02*
X138182982Y-109628200D01*
X138182982Y-109628200D02*
X138182982Y-109561533D01*
X138182982Y-109561533D02*
X138216316Y-109494866D01*
X138216316Y-109494866D02*
X138249649Y-109461533D01*
X138249649Y-109461533D02*
X138316316Y-109428200D01*
X138316316Y-109428200D02*
X138449649Y-109394866D01*
X138449649Y-109394866D02*
X138516316Y-109361533D01*
X138516316Y-109361533D02*
X138549649Y-109328200D01*
X138549649Y-109328200D02*
X138582982Y-109261533D01*
X138582982Y-109261533D02*
X138582982Y-109194866D01*
X138582982Y-109194866D02*
X138549649Y-109128200D01*
X138549649Y-109128200D02*
X138516316Y-109094866D01*
X138516316Y-109094866D02*
X138449649Y-109061533D01*
X138449649Y-109061533D02*
X138282982Y-109061533D01*
X138282982Y-109061533D02*
X138182982Y-109094866D01*
X137882982Y-109761533D02*
X137882982Y-109061533D01*
X137882982Y-109061533D02*
X137716315Y-109061533D01*
X137716315Y-109061533D02*
X137616315Y-109094866D01*
X137616315Y-109094866D02*
X137549649Y-109161533D01*
X137549649Y-109161533D02*
X137516315Y-109228200D01*
X137516315Y-109228200D02*
X137482982Y-109361533D01*
X137482982Y-109361533D02*
X137482982Y-109461533D01*
X137482982Y-109461533D02*
X137516315Y-109594866D01*
X137516315Y-109594866D02*
X137549649Y-109661533D01*
X137549649Y-109661533D02*
X137616315Y-109728200D01*
X137616315Y-109728200D02*
X137716315Y-109761533D01*
X137716315Y-109761533D02*
X137882982Y-109761533D01*
X137216315Y-109561533D02*
X136882982Y-109561533D01*
X137282982Y-109761533D02*
X137049649Y-109061533D01*
X137049649Y-109061533D02*
X136816315Y-109761533D01*
X109005449Y-103995733D02*
X109005449Y-103295733D01*
X109005449Y-103295733D02*
X108838782Y-103295733D01*
X108838782Y-103295733D02*
X108738782Y-103329066D01*
X108738782Y-103329066D02*
X108672116Y-103395733D01*
X108672116Y-103395733D02*
X108638782Y-103462400D01*
X108638782Y-103462400D02*
X108605449Y-103595733D01*
X108605449Y-103595733D02*
X108605449Y-103695733D01*
X108605449Y-103695733D02*
X108638782Y-103829066D01*
X108638782Y-103829066D02*
X108672116Y-103895733D01*
X108672116Y-103895733D02*
X108738782Y-103962400D01*
X108738782Y-103962400D02*
X108838782Y-103995733D01*
X108838782Y-103995733D02*
X109005449Y-103995733D01*
X108005449Y-103295733D02*
X108138782Y-103295733D01*
X108138782Y-103295733D02*
X108205449Y-103329066D01*
X108205449Y-103329066D02*
X108238782Y-103362400D01*
X108238782Y-103362400D02*
X108305449Y-103462400D01*
X108305449Y-103462400D02*
X108338782Y-103595733D01*
X108338782Y-103595733D02*
X108338782Y-103862400D01*
X108338782Y-103862400D02*
X108305449Y-103929066D01*
X108305449Y-103929066D02*
X108272116Y-103962400D01*
X108272116Y-103962400D02*
X108205449Y-103995733D01*
X108205449Y-103995733D02*
X108072116Y-103995733D01*
X108072116Y-103995733D02*
X108005449Y-103962400D01*
X108005449Y-103962400D02*
X107972116Y-103929066D01*
X107972116Y-103929066D02*
X107938782Y-103862400D01*
X107938782Y-103862400D02*
X107938782Y-103695733D01*
X107938782Y-103695733D02*
X107972116Y-103629066D01*
X107972116Y-103629066D02*
X108005449Y-103595733D01*
X108005449Y-103595733D02*
X108072116Y-103562400D01*
X108072116Y-103562400D02*
X108205449Y-103562400D01*
X108205449Y-103562400D02*
X108272116Y-103595733D01*
X108272116Y-103595733D02*
X108305449Y-103629066D01*
X108305449Y-103629066D02*
X108338782Y-103695733D01*
X107672115Y-103795733D02*
X107338782Y-103795733D01*
X107738782Y-103995733D02*
X107505449Y-103295733D01*
X107505449Y-103295733D02*
X107272115Y-103995733D01*
X122983382Y-103962400D02*
X122883382Y-103995733D01*
X122883382Y-103995733D02*
X122716716Y-103995733D01*
X122716716Y-103995733D02*
X122650049Y-103962400D01*
X122650049Y-103962400D02*
X122616716Y-103929066D01*
X122616716Y-103929066D02*
X122583382Y-103862400D01*
X122583382Y-103862400D02*
X122583382Y-103795733D01*
X122583382Y-103795733D02*
X122616716Y-103729066D01*
X122616716Y-103729066D02*
X122650049Y-103695733D01*
X122650049Y-103695733D02*
X122716716Y-103662400D01*
X122716716Y-103662400D02*
X122850049Y-103629066D01*
X122850049Y-103629066D02*
X122916716Y-103595733D01*
X122916716Y-103595733D02*
X122950049Y-103562400D01*
X122950049Y-103562400D02*
X122983382Y-103495733D01*
X122983382Y-103495733D02*
X122983382Y-103429066D01*
X122983382Y-103429066D02*
X122950049Y-103362400D01*
X122950049Y-103362400D02*
X122916716Y-103329066D01*
X122916716Y-103329066D02*
X122850049Y-103295733D01*
X122850049Y-103295733D02*
X122683382Y-103295733D01*
X122683382Y-103295733D02*
X122583382Y-103329066D01*
X122283382Y-103995733D02*
X122283382Y-103295733D01*
X122283382Y-103295733D02*
X122116715Y-103295733D01*
X122116715Y-103295733D02*
X122016715Y-103329066D01*
X122016715Y-103329066D02*
X121950049Y-103395733D01*
X121950049Y-103395733D02*
X121916715Y-103462400D01*
X121916715Y-103462400D02*
X121883382Y-103595733D01*
X121883382Y-103595733D02*
X121883382Y-103695733D01*
X121883382Y-103695733D02*
X121916715Y-103829066D01*
X121916715Y-103829066D02*
X121950049Y-103895733D01*
X121950049Y-103895733D02*
X122016715Y-103962400D01*
X122016715Y-103962400D02*
X122116715Y-103995733D01*
X122116715Y-103995733D02*
X122283382Y-103995733D01*
X121616715Y-103795733D02*
X121283382Y-103795733D01*
X121683382Y-103995733D02*
X121450049Y-103295733D01*
X121450049Y-103295733D02*
X121216715Y-103995733D01*
X134481649Y-108008933D02*
X134481649Y-107308933D01*
X134481649Y-107308933D02*
X134314982Y-107308933D01*
X134314982Y-107308933D02*
X134214982Y-107342266D01*
X134214982Y-107342266D02*
X134148316Y-107408933D01*
X134148316Y-107408933D02*
X134114982Y-107475600D01*
X134114982Y-107475600D02*
X134081649Y-107608933D01*
X134081649Y-107608933D02*
X134081649Y-107708933D01*
X134081649Y-107708933D02*
X134114982Y-107842266D01*
X134114982Y-107842266D02*
X134148316Y-107908933D01*
X134148316Y-107908933D02*
X134214982Y-107975600D01*
X134214982Y-107975600D02*
X134314982Y-108008933D01*
X134314982Y-108008933D02*
X134481649Y-108008933D01*
X133814982Y-107375600D02*
X133781649Y-107342266D01*
X133781649Y-107342266D02*
X133714982Y-107308933D01*
X133714982Y-107308933D02*
X133548316Y-107308933D01*
X133548316Y-107308933D02*
X133481649Y-107342266D01*
X133481649Y-107342266D02*
X133448316Y-107375600D01*
X133448316Y-107375600D02*
X133414982Y-107442266D01*
X133414982Y-107442266D02*
X133414982Y-107508933D01*
X133414982Y-107508933D02*
X133448316Y-107608933D01*
X133448316Y-107608933D02*
X133848316Y-108008933D01*
X133848316Y-108008933D02*
X133414982Y-108008933D01*
X133114982Y-108008933D02*
X133114982Y-107308933D01*
X132714982Y-108008933D02*
X133014982Y-107608933D01*
X132714982Y-107308933D02*
X133114982Y-107708933D01*
X131814649Y-116111533D02*
X131814649Y-115411533D01*
X131814649Y-115411533D02*
X131647982Y-115411533D01*
X131647982Y-115411533D02*
X131547982Y-115444866D01*
X131547982Y-115444866D02*
X131481316Y-115511533D01*
X131481316Y-115511533D02*
X131447982Y-115578200D01*
X131447982Y-115578200D02*
X131414649Y-115711533D01*
X131414649Y-115711533D02*
X131414649Y-115811533D01*
X131414649Y-115811533D02*
X131447982Y-115944866D01*
X131447982Y-115944866D02*
X131481316Y-116011533D01*
X131481316Y-116011533D02*
X131547982Y-116078200D01*
X131547982Y-116078200D02*
X131647982Y-116111533D01*
X131647982Y-116111533D02*
X131814649Y-116111533D01*
X131147982Y-115478200D02*
X131114649Y-115444866D01*
X131114649Y-115444866D02*
X131047982Y-115411533D01*
X131047982Y-115411533D02*
X130881316Y-115411533D01*
X130881316Y-115411533D02*
X130814649Y-115444866D01*
X130814649Y-115444866D02*
X130781316Y-115478200D01*
X130781316Y-115478200D02*
X130747982Y-115544866D01*
X130747982Y-115544866D02*
X130747982Y-115611533D01*
X130747982Y-115611533D02*
X130781316Y-115711533D01*
X130781316Y-115711533D02*
X131181316Y-116111533D01*
X131181316Y-116111533D02*
X130747982Y-116111533D01*
X130447982Y-116111533D02*
X130447982Y-115411533D01*
X130047982Y-116111533D02*
X130347982Y-115711533D01*
X130047982Y-115411533D02*
X130447982Y-115811533D01*
X119325782Y-103962400D02*
X119225782Y-103995733D01*
X119225782Y-103995733D02*
X119059116Y-103995733D01*
X119059116Y-103995733D02*
X118992449Y-103962400D01*
X118992449Y-103962400D02*
X118959116Y-103929066D01*
X118959116Y-103929066D02*
X118925782Y-103862400D01*
X118925782Y-103862400D02*
X118925782Y-103795733D01*
X118925782Y-103795733D02*
X118959116Y-103729066D01*
X118959116Y-103729066D02*
X118992449Y-103695733D01*
X118992449Y-103695733D02*
X119059116Y-103662400D01*
X119059116Y-103662400D02*
X119192449Y-103629066D01*
X119192449Y-103629066D02*
X119259116Y-103595733D01*
X119259116Y-103595733D02*
X119292449Y-103562400D01*
X119292449Y-103562400D02*
X119325782Y-103495733D01*
X119325782Y-103495733D02*
X119325782Y-103429066D01*
X119325782Y-103429066D02*
X119292449Y-103362400D01*
X119292449Y-103362400D02*
X119259116Y-103329066D01*
X119259116Y-103329066D02*
X119192449Y-103295733D01*
X119192449Y-103295733D02*
X119025782Y-103295733D01*
X119025782Y-103295733D02*
X118925782Y-103329066D01*
X118225782Y-103929066D02*
X118259115Y-103962400D01*
X118259115Y-103962400D02*
X118359115Y-103995733D01*
X118359115Y-103995733D02*
X118425782Y-103995733D01*
X118425782Y-103995733D02*
X118525782Y-103962400D01*
X118525782Y-103962400D02*
X118592449Y-103895733D01*
X118592449Y-103895733D02*
X118625782Y-103829066D01*
X118625782Y-103829066D02*
X118659115Y-103695733D01*
X118659115Y-103695733D02*
X118659115Y-103595733D01*
X118659115Y-103595733D02*
X118625782Y-103462400D01*
X118625782Y-103462400D02*
X118592449Y-103395733D01*
X118592449Y-103395733D02*
X118525782Y-103329066D01*
X118525782Y-103329066D02*
X118425782Y-103295733D01*
X118425782Y-103295733D02*
X118359115Y-103295733D01*
X118359115Y-103295733D02*
X118259115Y-103329066D01*
X118259115Y-103329066D02*
X118225782Y-103362400D01*
X117592449Y-103995733D02*
X117925782Y-103995733D01*
X117925782Y-103995733D02*
X117925782Y-103295733D01*
X126531449Y-104071933D02*
X126531449Y-103371933D01*
X126531449Y-103371933D02*
X126364782Y-103371933D01*
X126364782Y-103371933D02*
X126264782Y-103405266D01*
X126264782Y-103405266D02*
X126198116Y-103471933D01*
X126198116Y-103471933D02*
X126164782Y-103538600D01*
X126164782Y-103538600D02*
X126131449Y-103671933D01*
X126131449Y-103671933D02*
X126131449Y-103771933D01*
X126131449Y-103771933D02*
X126164782Y-103905266D01*
X126164782Y-103905266D02*
X126198116Y-103971933D01*
X126198116Y-103971933D02*
X126264782Y-104038600D01*
X126264782Y-104038600D02*
X126364782Y-104071933D01*
X126364782Y-104071933D02*
X126531449Y-104071933D01*
X125898116Y-103371933D02*
X125464782Y-103371933D01*
X125464782Y-103371933D02*
X125698116Y-103638600D01*
X125698116Y-103638600D02*
X125598116Y-103638600D01*
X125598116Y-103638600D02*
X125531449Y-103671933D01*
X125531449Y-103671933D02*
X125498116Y-103705266D01*
X125498116Y-103705266D02*
X125464782Y-103771933D01*
X125464782Y-103771933D02*
X125464782Y-103938600D01*
X125464782Y-103938600D02*
X125498116Y-104005266D01*
X125498116Y-104005266D02*
X125531449Y-104038600D01*
X125531449Y-104038600D02*
X125598116Y-104071933D01*
X125598116Y-104071933D02*
X125798116Y-104071933D01*
X125798116Y-104071933D02*
X125864782Y-104038600D01*
X125864782Y-104038600D02*
X125898116Y-104005266D01*
X125198115Y-103871933D02*
X124864782Y-103871933D01*
X125264782Y-104071933D02*
X125031449Y-103371933D01*
X125031449Y-103371933D02*
X124798115Y-104071933D01*
X138549649Y-119921533D02*
X138549649Y-119221533D01*
X138549649Y-119221533D02*
X138382982Y-119221533D01*
X138382982Y-119221533D02*
X138282982Y-119254866D01*
X138282982Y-119254866D02*
X138216316Y-119321533D01*
X138216316Y-119321533D02*
X138182982Y-119388200D01*
X138182982Y-119388200D02*
X138149649Y-119521533D01*
X138149649Y-119521533D02*
X138149649Y-119621533D01*
X138149649Y-119621533D02*
X138182982Y-119754866D01*
X138182982Y-119754866D02*
X138216316Y-119821533D01*
X138216316Y-119821533D02*
X138282982Y-119888200D01*
X138282982Y-119888200D02*
X138382982Y-119921533D01*
X138382982Y-119921533D02*
X138549649Y-119921533D01*
X137916316Y-119221533D02*
X137482982Y-119221533D01*
X137482982Y-119221533D02*
X137716316Y-119488200D01*
X137716316Y-119488200D02*
X137616316Y-119488200D01*
X137616316Y-119488200D02*
X137549649Y-119521533D01*
X137549649Y-119521533D02*
X137516316Y-119554866D01*
X137516316Y-119554866D02*
X137482982Y-119621533D01*
X137482982Y-119621533D02*
X137482982Y-119788200D01*
X137482982Y-119788200D02*
X137516316Y-119854866D01*
X137516316Y-119854866D02*
X137549649Y-119888200D01*
X137549649Y-119888200D02*
X137616316Y-119921533D01*
X137616316Y-119921533D02*
X137816316Y-119921533D01*
X137816316Y-119921533D02*
X137882982Y-119888200D01*
X137882982Y-119888200D02*
X137916316Y-119854866D01*
X137216315Y-119721533D02*
X136882982Y-119721533D01*
X137282982Y-119921533D02*
X137049649Y-119221533D01*
X137049649Y-119221533D02*
X136816315Y-119921533D01*
X117844649Y-116111533D02*
X117844649Y-115411533D01*
X117844649Y-115411533D02*
X117677982Y-115411533D01*
X117677982Y-115411533D02*
X117577982Y-115444866D01*
X117577982Y-115444866D02*
X117511316Y-115511533D01*
X117511316Y-115511533D02*
X117477982Y-115578200D01*
X117477982Y-115578200D02*
X117444649Y-115711533D01*
X117444649Y-115711533D02*
X117444649Y-115811533D01*
X117444649Y-115811533D02*
X117477982Y-115944866D01*
X117477982Y-115944866D02*
X117511316Y-116011533D01*
X117511316Y-116011533D02*
X117577982Y-116078200D01*
X117577982Y-116078200D02*
X117677982Y-116111533D01*
X117677982Y-116111533D02*
X117844649Y-116111533D01*
X116844649Y-115644866D02*
X116844649Y-116111533D01*
X117011316Y-115378200D02*
X117177982Y-115878200D01*
X117177982Y-115878200D02*
X116744649Y-115878200D01*
X116477982Y-116111533D02*
X116477982Y-115411533D01*
X116077982Y-116111533D02*
X116377982Y-115711533D01*
X116077982Y-115411533D02*
X116477982Y-115811533D01*
X110859649Y-116111533D02*
X110859649Y-115411533D01*
X110859649Y-115411533D02*
X110692982Y-115411533D01*
X110692982Y-115411533D02*
X110592982Y-115444866D01*
X110592982Y-115444866D02*
X110526316Y-115511533D01*
X110526316Y-115511533D02*
X110492982Y-115578200D01*
X110492982Y-115578200D02*
X110459649Y-115711533D01*
X110459649Y-115711533D02*
X110459649Y-115811533D01*
X110459649Y-115811533D02*
X110492982Y-115944866D01*
X110492982Y-115944866D02*
X110526316Y-116011533D01*
X110526316Y-116011533D02*
X110592982Y-116078200D01*
X110592982Y-116078200D02*
X110692982Y-116111533D01*
X110692982Y-116111533D02*
X110859649Y-116111533D01*
X109859649Y-115411533D02*
X109992982Y-115411533D01*
X109992982Y-115411533D02*
X110059649Y-115444866D01*
X110059649Y-115444866D02*
X110092982Y-115478200D01*
X110092982Y-115478200D02*
X110159649Y-115578200D01*
X110159649Y-115578200D02*
X110192982Y-115711533D01*
X110192982Y-115711533D02*
X110192982Y-115978200D01*
X110192982Y-115978200D02*
X110159649Y-116044866D01*
X110159649Y-116044866D02*
X110126316Y-116078200D01*
X110126316Y-116078200D02*
X110059649Y-116111533D01*
X110059649Y-116111533D02*
X109926316Y-116111533D01*
X109926316Y-116111533D02*
X109859649Y-116078200D01*
X109859649Y-116078200D02*
X109826316Y-116044866D01*
X109826316Y-116044866D02*
X109792982Y-115978200D01*
X109792982Y-115978200D02*
X109792982Y-115811533D01*
X109792982Y-115811533D02*
X109826316Y-115744866D01*
X109826316Y-115744866D02*
X109859649Y-115711533D01*
X109859649Y-115711533D02*
X109926316Y-115678200D01*
X109926316Y-115678200D02*
X110059649Y-115678200D01*
X110059649Y-115678200D02*
X110126316Y-115711533D01*
X110126316Y-115711533D02*
X110159649Y-115744866D01*
X110159649Y-115744866D02*
X110192982Y-115811533D01*
X109492982Y-116111533D02*
X109492982Y-115411533D01*
X109092982Y-116111533D02*
X109392982Y-115711533D01*
X109092982Y-115411533D02*
X109492982Y-115811533D01*
X129985849Y-104021133D02*
X129985849Y-103321133D01*
X129985849Y-103321133D02*
X129819182Y-103321133D01*
X129819182Y-103321133D02*
X129719182Y-103354466D01*
X129719182Y-103354466D02*
X129652516Y-103421133D01*
X129652516Y-103421133D02*
X129619182Y-103487800D01*
X129619182Y-103487800D02*
X129585849Y-103621133D01*
X129585849Y-103621133D02*
X129585849Y-103721133D01*
X129585849Y-103721133D02*
X129619182Y-103854466D01*
X129619182Y-103854466D02*
X129652516Y-103921133D01*
X129652516Y-103921133D02*
X129719182Y-103987800D01*
X129719182Y-103987800D02*
X129819182Y-104021133D01*
X129819182Y-104021133D02*
X129985849Y-104021133D01*
X129319182Y-103387800D02*
X129285849Y-103354466D01*
X129285849Y-103354466D02*
X129219182Y-103321133D01*
X129219182Y-103321133D02*
X129052516Y-103321133D01*
X129052516Y-103321133D02*
X128985849Y-103354466D01*
X128985849Y-103354466D02*
X128952516Y-103387800D01*
X128952516Y-103387800D02*
X128919182Y-103454466D01*
X128919182Y-103454466D02*
X128919182Y-103521133D01*
X128919182Y-103521133D02*
X128952516Y-103621133D01*
X128952516Y-103621133D02*
X129352516Y-104021133D01*
X129352516Y-104021133D02*
X128919182Y-104021133D01*
X128652515Y-103821133D02*
X128319182Y-103821133D01*
X128719182Y-104021133D02*
X128485849Y-103321133D01*
X128485849Y-103321133D02*
X128252515Y-104021133D01*
X106029649Y-112301533D02*
X106029649Y-111601533D01*
X106029649Y-111601533D02*
X105862982Y-111601533D01*
X105862982Y-111601533D02*
X105762982Y-111634866D01*
X105762982Y-111634866D02*
X105696316Y-111701533D01*
X105696316Y-111701533D02*
X105662982Y-111768200D01*
X105662982Y-111768200D02*
X105629649Y-111901533D01*
X105629649Y-111901533D02*
X105629649Y-112001533D01*
X105629649Y-112001533D02*
X105662982Y-112134866D01*
X105662982Y-112134866D02*
X105696316Y-112201533D01*
X105696316Y-112201533D02*
X105762982Y-112268200D01*
X105762982Y-112268200D02*
X105862982Y-112301533D01*
X105862982Y-112301533D02*
X106029649Y-112301533D01*
X104996316Y-111601533D02*
X105329649Y-111601533D01*
X105329649Y-111601533D02*
X105362982Y-111934866D01*
X105362982Y-111934866D02*
X105329649Y-111901533D01*
X105329649Y-111901533D02*
X105262982Y-111868200D01*
X105262982Y-111868200D02*
X105096316Y-111868200D01*
X105096316Y-111868200D02*
X105029649Y-111901533D01*
X105029649Y-111901533D02*
X104996316Y-111934866D01*
X104996316Y-111934866D02*
X104962982Y-112001533D01*
X104962982Y-112001533D02*
X104962982Y-112168200D01*
X104962982Y-112168200D02*
X104996316Y-112234866D01*
X104996316Y-112234866D02*
X105029649Y-112268200D01*
X105029649Y-112268200D02*
X105096316Y-112301533D01*
X105096316Y-112301533D02*
X105262982Y-112301533D01*
X105262982Y-112301533D02*
X105329649Y-112268200D01*
X105329649Y-112268200D02*
X105362982Y-112234866D01*
X104662982Y-112301533D02*
X104662982Y-111601533D01*
X104262982Y-112301533D02*
X104562982Y-111901533D01*
X104262982Y-111601533D02*
X104662982Y-112001533D01*
X138549649Y-104681533D02*
X138549649Y-103981533D01*
X138549649Y-103981533D02*
X138382982Y-103981533D01*
X138382982Y-103981533D02*
X138282982Y-104014866D01*
X138282982Y-104014866D02*
X138216316Y-104081533D01*
X138216316Y-104081533D02*
X138182982Y-104148200D01*
X138182982Y-104148200D02*
X138149649Y-104281533D01*
X138149649Y-104281533D02*
X138149649Y-104381533D01*
X138149649Y-104381533D02*
X138182982Y-104514866D01*
X138182982Y-104514866D02*
X138216316Y-104581533D01*
X138216316Y-104581533D02*
X138282982Y-104648200D01*
X138282982Y-104648200D02*
X138382982Y-104681533D01*
X138382982Y-104681533D02*
X138549649Y-104681533D01*
X137482982Y-104681533D02*
X137882982Y-104681533D01*
X137682982Y-104681533D02*
X137682982Y-103981533D01*
X137682982Y-103981533D02*
X137749649Y-104081533D01*
X137749649Y-104081533D02*
X137816316Y-104148200D01*
X137816316Y-104148200D02*
X137882982Y-104181533D01*
X137216315Y-104481533D02*
X136882982Y-104481533D01*
X137282982Y-104681533D02*
X137049649Y-103981533D01*
X137049649Y-103981533D02*
X136816315Y-104681533D01*
X138549649Y-114841533D02*
X138549649Y-114141533D01*
X138549649Y-114141533D02*
X138382982Y-114141533D01*
X138382982Y-114141533D02*
X138282982Y-114174866D01*
X138282982Y-114174866D02*
X138216316Y-114241533D01*
X138216316Y-114241533D02*
X138182982Y-114308200D01*
X138182982Y-114308200D02*
X138149649Y-114441533D01*
X138149649Y-114441533D02*
X138149649Y-114541533D01*
X138149649Y-114541533D02*
X138182982Y-114674866D01*
X138182982Y-114674866D02*
X138216316Y-114741533D01*
X138216316Y-114741533D02*
X138282982Y-114808200D01*
X138282982Y-114808200D02*
X138382982Y-114841533D01*
X138382982Y-114841533D02*
X138549649Y-114841533D01*
X137882982Y-114208200D02*
X137849649Y-114174866D01*
X137849649Y-114174866D02*
X137782982Y-114141533D01*
X137782982Y-114141533D02*
X137616316Y-114141533D01*
X137616316Y-114141533D02*
X137549649Y-114174866D01*
X137549649Y-114174866D02*
X137516316Y-114208200D01*
X137516316Y-114208200D02*
X137482982Y-114274866D01*
X137482982Y-114274866D02*
X137482982Y-114341533D01*
X137482982Y-114341533D02*
X137516316Y-114441533D01*
X137516316Y-114441533D02*
X137916316Y-114841533D01*
X137916316Y-114841533D02*
X137482982Y-114841533D01*
X137216315Y-114641533D02*
X136882982Y-114641533D01*
X137282982Y-114841533D02*
X137049649Y-114141533D01*
X137049649Y-114141533D02*
X136816315Y-114841533D01*
M02*
