%TF.GenerationSoftware,KiCad,Pcbnew,7.0.11+dfsg-1build4*%
%TF.CreationDate,2026-06-08T00:17:49-05:00*%
%TF.ProjectId,panel-mount-oled-display-connector-board,70616e65-6c2d-46d6-9f75-6e742d6f6c65,rev?*%
%TF.SameCoordinates,Original*%
%TF.FileFunction,Soldermask,Top*%
%TF.FilePolarity,Negative*%
%FSLAX46Y46*%
G04 Gerber Fmt 4.6, Leading zero omitted, Abs format (unit mm)*
G04 Created by KiCad (PCBNEW 7.0.11+dfsg-1build4) date 2026-06-08 00:17:49*
%MOMM*%
%LPD*%
G01*
G04 APERTURE LIST*
%ADD10R,2.400000X2.400000*%
%ADD11C,2.400000*%
%ADD12R,1.700000X1.700000*%
%ADD13O,1.700000X1.700000*%
G04 APERTURE END LIST*
D10*
%TO.C,J3*%
X110075000Y-113300000D03*
D11*
X108325000Y-101870000D03*
X113575000Y-113300000D03*
X111825000Y-101870000D03*
X117075000Y-113300000D03*
X115325000Y-101870000D03*
X120575000Y-113300000D03*
X118825000Y-101870000D03*
X124075000Y-113300000D03*
X122325000Y-101870000D03*
X127575000Y-113300000D03*
X125825000Y-101870000D03*
X131075000Y-113300000D03*
X129325000Y-101870000D03*
X134575000Y-113300000D03*
X132825000Y-101870000D03*
%TD*%
D12*
%TO.C,J2*%
X139780000Y-101660000D03*
D13*
X139780000Y-104200000D03*
X139780000Y-106740000D03*
X139780000Y-109280000D03*
X139780000Y-111820000D03*
X139780000Y-114360000D03*
X139780000Y-116900000D03*
X139780000Y-119440000D03*
%TD*%
D10*
%TO.C,J4*%
X109200000Y-105562400D03*
D11*
X112700000Y-105562400D03*
X116200000Y-105562400D03*
X119700000Y-105562400D03*
X123200000Y-105562400D03*
X126700000Y-105562400D03*
X130200000Y-105562400D03*
X133700000Y-105562400D03*
%TD*%
D12*
%TO.C,J1*%
X103120000Y-101660000D03*
D13*
X103120000Y-104200000D03*
X103120000Y-106740000D03*
X103120000Y-109280000D03*
X103120000Y-111820000D03*
X103120000Y-114360000D03*
X103120000Y-116900000D03*
X103120000Y-119440000D03*
%TD*%
M02*
