%TF.GenerationSoftware,KiCad,Pcbnew,7.0.11+dfsg-1build4*%
%TF.CreationDate,2026-06-08T00:17:49-05:00*%
%TF.ProjectId,panel-mount-oled-display-connector-board,70616e65-6c2d-46d6-9f75-6e742d6f6c65,rev?*%
%TF.SameCoordinates,Original*%
%TF.FileFunction,Copper,L1,Top*%
%TF.FilePolarity,Positive*%
%FSLAX46Y46*%
G04 Gerber Fmt 4.6, Leading zero omitted, Abs format (unit mm)*
G04 Created by KiCad (PCBNEW 7.0.11+dfsg-1build4) date 2026-06-08 00:17:49*
%MOMM*%
%LPD*%
G01*
G04 APERTURE LIST*
%TA.AperFunction,ComponentPad*%
%ADD10R,2.400000X2.400000*%
%TD*%
%TA.AperFunction,ComponentPad*%
%ADD11C,2.400000*%
%TD*%
%TA.AperFunction,ComponentPad*%
%ADD12R,1.700000X1.700000*%
%TD*%
%TA.AperFunction,ComponentPad*%
%ADD13O,1.700000X1.700000*%
%TD*%
%TA.AperFunction,ViaPad*%
%ADD14C,0.600000*%
%TD*%
%TA.AperFunction,Conductor*%
%ADD15C,0.200000*%
%TD*%
G04 APERTURE END LIST*
D10*
%TO.P,J3,1,Pin_1*%
%TO.N,/D6K*%
X110075000Y-113300000D03*
D11*
%TO.P,J3,2,Pin_2*%
%TO.N,/D6A*%
X108325000Y-101870000D03*
%TO.P,J3,3,Pin_3*%
%TO.N,/D5K*%
X113575000Y-113300000D03*
%TO.P,J3,4,Pin_4*%
%TO.N,/D5A*%
X111825000Y-101870000D03*
%TO.P,J3,5,Pin_5*%
%TO.N,/D4K*%
X117075000Y-113300000D03*
%TO.P,J3,6,Pin_6*%
%TO.N,/D4A*%
X115325000Y-101870000D03*
%TO.P,J3,7,Pin_7*%
%TO.N,/VCC*%
X120575000Y-113300000D03*
%TO.P,J3,8,Pin_8*%
%TO.N,/SCL*%
X118825000Y-101870000D03*
%TO.P,J3,9,Pin_9*%
%TO.N,GND*%
X124075000Y-113300000D03*
%TO.P,J3,10,Pin_10*%
%TO.N,/SDA*%
X122325000Y-101870000D03*
%TO.P,J3,11,Pin_11*%
%TO.N,/D3K*%
X127575000Y-113300000D03*
%TO.P,J3,12,Pin_12*%
%TO.N,/D3A*%
X125825000Y-101870000D03*
%TO.P,J3,13,Pin_13*%
%TO.N,/D2K*%
X131075000Y-113300000D03*
%TO.P,J3,14,Pin_14*%
%TO.N,/D2A*%
X129325000Y-101870000D03*
%TO.P,J3,15,Pin_15*%
%TO.N,/D1K*%
X134575000Y-113300000D03*
%TO.P,J3,16,Pin_16*%
%TO.N,/D1A*%
X132825000Y-101870000D03*
%TD*%
D12*
%TO.P,J2,1,Pin_1*%
%TO.N,/D1K*%
X139780000Y-101660000D03*
D13*
%TO.P,J2,2,Pin_2*%
%TO.N,/D1A*%
X139780000Y-104200000D03*
%TO.P,J2,3,Pin_3*%
%TO.N,GND*%
X139780000Y-106740000D03*
%TO.P,J2,4,Pin_4*%
%TO.N,/SDA*%
X139780000Y-109280000D03*
%TO.P,J2,5,Pin_5*%
%TO.N,/D2K*%
X139780000Y-111820000D03*
%TO.P,J2,6,Pin_6*%
%TO.N,/D2A*%
X139780000Y-114360000D03*
%TO.P,J2,7,Pin_7*%
%TO.N,/D3K*%
X139780000Y-116900000D03*
%TO.P,J2,8,Pin_8*%
%TO.N,/D3A*%
X139780000Y-119440000D03*
%TD*%
D10*
%TO.P,J4,1,Pin_1*%
%TO.N,/D5A*%
X109200000Y-105562400D03*
D11*
%TO.P,J4,2,Pin_2*%
%TO.N,/D5K*%
X112700000Y-105562400D03*
%TO.P,J4,3,Pin_3*%
%TO.N,GND*%
X116200000Y-105562400D03*
%TO.P,J4,4,Pin_4*%
%TO.N,/VCC*%
X119700000Y-105562400D03*
%TO.P,J4,5,Pin_5*%
%TO.N,/SCL*%
X123200000Y-105562400D03*
%TO.P,J4,6,Pin_6*%
%TO.N,/SDA*%
X126700000Y-105562400D03*
%TO.P,J4,7,Pin_7*%
%TO.N,/D2A*%
X130200000Y-105562400D03*
%TO.P,J4,8,Pin_8*%
%TO.N,/D2K*%
X133700000Y-105562400D03*
%TD*%
D12*
%TO.P,J1,1,Pin_1*%
%TO.N,/D4K*%
X103120000Y-101660000D03*
D13*
%TO.P,J1,2,Pin_2*%
%TO.N,/D4A*%
X103120000Y-104200000D03*
%TO.P,J1,3,Pin_3*%
%TO.N,/VCC*%
X103120000Y-106740000D03*
%TO.P,J1,4,Pin_4*%
%TO.N,/SCL*%
X103120000Y-109280000D03*
%TO.P,J1,5,Pin_5*%
%TO.N,/D5K*%
X103120000Y-111820000D03*
%TO.P,J1,6,Pin_6*%
%TO.N,/D5A*%
X103120000Y-114360000D03*
%TO.P,J1,7,Pin_7*%
%TO.N,/D6K*%
X103120000Y-116900000D03*
%TO.P,J1,8,Pin_8*%
%TO.N,/D6A*%
X103120000Y-119440000D03*
%TD*%
D14*
%TO.N,GND*%
X137490200Y-109880000D03*
%TO.N,/D1K*%
X137160000Y-105359200D03*
X131699000Y-108680000D03*
%TO.N,/D4K*%
X105862035Y-110180035D03*
%TO.N,/D6A*%
X105435400Y-115976400D03*
X105333800Y-113385600D03*
%TD*%
D15*
%TO.N,/VCC*%
X105380300Y-107848400D02*
X118237000Y-107848400D01*
X103120000Y-106740000D02*
X104271900Y-106740000D01*
X118237000Y-107848400D02*
X119700000Y-106385400D01*
X104271900Y-106740000D02*
X105380300Y-107848400D01*
X119700000Y-106385400D02*
X119700000Y-105562400D01*
%TO.N,GND*%
X137235800Y-110134400D02*
X124866400Y-110134400D01*
X124075000Y-110925800D02*
X124075000Y-113300000D01*
X137490200Y-109880000D02*
X137235800Y-110134400D01*
X124866400Y-110134400D02*
X124075000Y-110925800D01*
%TO.N,/SCL*%
X120869400Y-109280000D02*
X103120000Y-109280000D01*
X123200000Y-105562400D02*
X123200000Y-106949400D01*
X123200000Y-106949400D02*
X120869400Y-109280000D01*
%TO.N,/SDA*%
X127872800Y-109280000D02*
X126700000Y-108107200D01*
X139780000Y-109280000D02*
X127872800Y-109280000D01*
X126700000Y-108107200D02*
X126700000Y-105562400D01*
%TO.N,/D1K*%
X136372600Y-106146600D02*
X137160000Y-105359200D01*
X132124200Y-108254800D02*
X135813800Y-108254800D01*
X135813800Y-108254800D02*
X136372600Y-107696000D01*
X131699000Y-108680000D02*
X132124200Y-108254800D01*
X136372600Y-107696000D02*
X136372600Y-106146600D01*
%TO.N,/D1A*%
X139780000Y-104200000D02*
X135155000Y-104200000D01*
X135155000Y-104200000D02*
X132825000Y-101870000D01*
%TO.N,/D2K*%
X131075000Y-112307800D02*
X132054600Y-111328200D01*
X131075000Y-113300000D02*
X131075000Y-112307800D01*
X138136300Y-111328200D02*
X138628100Y-111820000D01*
X132054600Y-111328200D02*
X138136300Y-111328200D01*
X138628100Y-111820000D02*
X139780000Y-111820000D01*
%TO.N,/D3K*%
X129371400Y-116900000D02*
X139780000Y-116900000D01*
X127575000Y-113300000D02*
X127575000Y-115103600D01*
X127575000Y-115103600D02*
X129371400Y-116900000D01*
%TO.N,/D4K*%
X105882270Y-110159800D02*
X115824000Y-110159800D01*
X105862035Y-110180035D02*
X105882270Y-110159800D01*
X115824000Y-110159800D02*
X117075000Y-111410800D01*
X117075000Y-111410800D02*
X117075000Y-113300000D01*
%TO.N,/D4A*%
X104271900Y-104200000D02*
X103120000Y-104200000D01*
X104839900Y-103632000D02*
X104271900Y-104200000D01*
X113563000Y-103632000D02*
X104839900Y-103632000D01*
X115325000Y-101870000D02*
X113563000Y-103632000D01*
%TO.N,/D5K*%
X104271900Y-111820000D02*
X104865300Y-111226600D01*
X112395000Y-111226600D02*
X113575000Y-112406600D01*
X104865300Y-111226600D02*
X112395000Y-111226600D01*
X103120000Y-111820000D02*
X104271900Y-111820000D01*
X113575000Y-112406600D02*
X113575000Y-113300000D01*
%TO.N,/D6K*%
X110075000Y-113300000D02*
X110075000Y-115578600D01*
X108753600Y-116900000D02*
X103120000Y-116900000D01*
X110075000Y-115578600D02*
X108753600Y-116900000D01*
%TO.N,/D6A*%
X105435400Y-113487200D02*
X105435400Y-115976400D01*
X105333800Y-113385600D02*
X105435400Y-113487200D01*
%TD*%
%TA.AperFunction,Conductor*%
%TO.N,GND*%
G36*
X123550901Y-113602588D02*
G01*
X123647075Y-113727925D01*
X123772412Y-113824099D01*
X123865779Y-113862772D01*
X123061813Y-114666738D01*
X123222616Y-114776371D01*
X123222624Y-114776376D01*
X123452176Y-114886921D01*
X123452174Y-114886921D01*
X123695652Y-114962024D01*
X123695658Y-114962026D01*
X123947595Y-114999999D01*
X123947604Y-115000000D01*
X124202396Y-115000000D01*
X124202404Y-114999999D01*
X124454341Y-114962026D01*
X124454347Y-114962024D01*
X124697824Y-114886921D01*
X124927376Y-114776376D01*
X124927377Y-114776375D01*
X125088185Y-114666738D01*
X124284220Y-113862772D01*
X124377588Y-113824099D01*
X124502925Y-113727925D01*
X124599099Y-113602589D01*
X124637773Y-113509220D01*
X125441544Y-114312992D01*
X125441546Y-114312991D01*
X125483544Y-114260330D01*
X125610941Y-114039671D01*
X125704026Y-113802494D01*
X125705400Y-113798044D01*
X125706574Y-113798406D01*
X125737945Y-113742300D01*
X125799601Y-113709432D01*
X125869239Y-113715115D01*
X125924750Y-113757545D01*
X125943420Y-113798412D01*
X125944122Y-113798196D01*
X125945490Y-113802630D01*
X125945492Y-113802637D01*
X126038607Y-114039888D01*
X126166041Y-114260612D01*
X126324950Y-114459877D01*
X126511783Y-114633232D01*
X126722366Y-114776805D01*
X126722369Y-114776806D01*
X126722370Y-114776807D01*
X126904302Y-114864421D01*
X126956161Y-114911243D01*
X126974500Y-114976141D01*
X126974500Y-115056112D01*
X126973439Y-115072297D01*
X126969318Y-115103598D01*
X126969318Y-115103601D01*
X126988672Y-115250610D01*
X126989956Y-115260362D01*
X127047172Y-115398495D01*
X127050464Y-115406441D01*
X127146127Y-115531112D01*
X127146719Y-115531883D01*
X127171769Y-115551104D01*
X127183964Y-115561799D01*
X128913199Y-117291034D01*
X128923893Y-117303228D01*
X128943118Y-117328282D01*
X128989226Y-117363661D01*
X128989227Y-117363663D01*
X129050100Y-117410371D01*
X129068559Y-117424536D01*
X129068561Y-117424536D01*
X129068563Y-117424538D01*
X129141598Y-117454790D01*
X129214638Y-117485044D01*
X129293019Y-117495363D01*
X129371399Y-117505682D01*
X129371400Y-117505682D01*
X129402702Y-117501560D01*
X129418887Y-117500500D01*
X138490909Y-117500500D01*
X138557948Y-117520185D01*
X138603292Y-117572097D01*
X138605965Y-117577830D01*
X138605966Y-117577831D01*
X138741501Y-117771395D01*
X138741506Y-117771402D01*
X138908597Y-117938493D01*
X138908603Y-117938498D01*
X139094158Y-118068425D01*
X139137783Y-118123002D01*
X139144977Y-118192500D01*
X139113454Y-118254855D01*
X139094158Y-118271575D01*
X138908597Y-118401505D01*
X138741505Y-118568597D01*
X138605965Y-118762169D01*
X138605964Y-118762171D01*
X138506098Y-118976335D01*
X138506094Y-118976344D01*
X138444938Y-119204586D01*
X138444936Y-119204596D01*
X138424341Y-119439999D01*
X138424341Y-119440000D01*
X138444936Y-119675403D01*
X138444938Y-119675413D01*
X138506094Y-119903655D01*
X138506096Y-119903659D01*
X138506097Y-119903663D01*
X138510500Y-119913105D01*
X138605965Y-120117830D01*
X138605967Y-120117834D01*
X138741501Y-120311395D01*
X138741506Y-120311402D01*
X138817923Y-120387819D01*
X138851408Y-120449142D01*
X138846424Y-120518834D01*
X138804552Y-120574767D01*
X138739088Y-120599184D01*
X138730242Y-120599500D01*
X104169758Y-120599500D01*
X104102719Y-120579815D01*
X104056964Y-120527011D01*
X104047020Y-120457853D01*
X104076045Y-120394297D01*
X104082077Y-120387819D01*
X104158495Y-120311401D01*
X104294035Y-120117830D01*
X104393903Y-119903663D01*
X104455063Y-119675408D01*
X104475659Y-119440000D01*
X104455063Y-119204592D01*
X104393903Y-118976337D01*
X104294035Y-118762171D01*
X104200066Y-118627968D01*
X104158494Y-118568597D01*
X103991402Y-118401506D01*
X103991396Y-118401501D01*
X103805842Y-118271575D01*
X103762217Y-118216998D01*
X103755023Y-118147500D01*
X103786546Y-118085145D01*
X103805842Y-118068425D01*
X103828026Y-118052891D01*
X103991401Y-117938495D01*
X104158495Y-117771401D01*
X104294035Y-117577830D01*
X104296707Y-117572097D01*
X104342878Y-117519658D01*
X104409091Y-117500500D01*
X108706113Y-117500500D01*
X108722297Y-117501560D01*
X108753600Y-117505682D01*
X108753601Y-117505682D01*
X108805854Y-117498802D01*
X108910362Y-117485044D01*
X109056441Y-117424536D01*
X109135772Y-117363663D01*
X109181882Y-117328282D01*
X109201109Y-117303223D01*
X109211790Y-117291043D01*
X110466043Y-116036790D01*
X110478223Y-116026109D01*
X110503282Y-116006882D01*
X110599536Y-115881441D01*
X110660044Y-115735362D01*
X110665349Y-115695063D01*
X110680682Y-115578600D01*
X110677713Y-115556051D01*
X110676561Y-115547297D01*
X110675500Y-115531112D01*
X110675500Y-115124499D01*
X110695185Y-115057460D01*
X110747989Y-115011705D01*
X110799500Y-115000499D01*
X111322871Y-115000499D01*
X111322872Y-115000499D01*
X111382483Y-114994091D01*
X111517331Y-114943796D01*
X111632546Y-114857546D01*
X111718796Y-114742331D01*
X111769091Y-114607483D01*
X111775500Y-114547873D01*
X111775499Y-114024854D01*
X111795183Y-113957818D01*
X111847987Y-113912063D01*
X111917146Y-113902119D01*
X111980702Y-113931144D01*
X112014927Y-113979553D01*
X112038607Y-114039888D01*
X112166041Y-114260612D01*
X112324950Y-114459877D01*
X112511783Y-114633232D01*
X112722366Y-114776805D01*
X112722371Y-114776807D01*
X112722372Y-114776808D01*
X112722373Y-114776809D01*
X112839274Y-114833105D01*
X112951992Y-114887387D01*
X112951993Y-114887387D01*
X112951996Y-114887389D01*
X113195542Y-114962513D01*
X113447565Y-115000500D01*
X113702435Y-115000500D01*
X113954458Y-114962513D01*
X114198004Y-114887389D01*
X114427634Y-114776805D01*
X114638217Y-114633232D01*
X114825050Y-114459877D01*
X114983959Y-114260612D01*
X115111393Y-114039888D01*
X115204508Y-113802637D01*
X115204510Y-113802624D01*
X115205878Y-113798196D01*
X115207324Y-113798642D01*
X115238213Y-113743412D01*
X115299873Y-113710552D01*
X115369510Y-113716243D01*
X115425016Y-113758680D01*
X115443192Y-113798482D01*
X115444122Y-113798196D01*
X115445490Y-113802630D01*
X115445492Y-113802637D01*
X115538607Y-114039888D01*
X115666041Y-114260612D01*
X115824950Y-114459877D01*
X116011783Y-114633232D01*
X116222366Y-114776805D01*
X116222371Y-114776807D01*
X116222372Y-114776808D01*
X116222373Y-114776809D01*
X116339274Y-114833105D01*
X116451992Y-114887387D01*
X116451993Y-114887387D01*
X116451996Y-114887389D01*
X116695542Y-114962513D01*
X116947565Y-115000500D01*
X117202435Y-115000500D01*
X117454458Y-114962513D01*
X117698004Y-114887389D01*
X117927634Y-114776805D01*
X118138217Y-114633232D01*
X118325050Y-114459877D01*
X118483959Y-114260612D01*
X118611393Y-114039888D01*
X118704508Y-113802637D01*
X118704510Y-113802624D01*
X118705878Y-113798196D01*
X118707324Y-113798642D01*
X118738213Y-113743412D01*
X118799873Y-113710552D01*
X118869510Y-113716243D01*
X118925016Y-113758680D01*
X118943192Y-113798482D01*
X118944122Y-113798196D01*
X118945490Y-113802630D01*
X118945492Y-113802637D01*
X119038607Y-114039888D01*
X119166041Y-114260612D01*
X119324950Y-114459877D01*
X119511783Y-114633232D01*
X119722366Y-114776805D01*
X119722371Y-114776807D01*
X119722372Y-114776808D01*
X119722373Y-114776809D01*
X119839274Y-114833105D01*
X119951992Y-114887387D01*
X119951993Y-114887387D01*
X119951996Y-114887389D01*
X120195542Y-114962513D01*
X120447565Y-115000500D01*
X120702435Y-115000500D01*
X120954458Y-114962513D01*
X121198004Y-114887389D01*
X121427634Y-114776805D01*
X121638217Y-114633232D01*
X121825050Y-114459877D01*
X121983959Y-114260612D01*
X122111393Y-114039888D01*
X122204508Y-113802637D01*
X122204510Y-113802624D01*
X122205878Y-113798196D01*
X122207008Y-113798544D01*
X122238464Y-113742295D01*
X122300121Y-113709430D01*
X122369759Y-113715117D01*
X122425268Y-113757551D01*
X122443868Y-113798269D01*
X122444600Y-113798044D01*
X122445973Y-113802494D01*
X122539058Y-114039671D01*
X122539057Y-114039671D01*
X122666454Y-114260327D01*
X122666461Y-114260338D01*
X122708452Y-114312991D01*
X122708453Y-114312992D01*
X123512226Y-113509219D01*
X123550901Y-113602588D01*
G37*
%TD.AperFunction*%
%TA.AperFunction,Conductor*%
G36*
X124994510Y-105978643D02*
G01*
X125050016Y-106021080D01*
X125068192Y-106060882D01*
X125069122Y-106060596D01*
X125070490Y-106065030D01*
X125070492Y-106065037D01*
X125163607Y-106302288D01*
X125291041Y-106523012D01*
X125449950Y-106722277D01*
X125636783Y-106895632D01*
X125847366Y-107039205D01*
X125847369Y-107039206D01*
X125847370Y-107039207D01*
X126029302Y-107126821D01*
X126081161Y-107173643D01*
X126099500Y-107238541D01*
X126099500Y-108059712D01*
X126098439Y-108075897D01*
X126094318Y-108107198D01*
X126094318Y-108107202D01*
X126113749Y-108254797D01*
X126113749Y-108254798D01*
X126114955Y-108263960D01*
X126173298Y-108404811D01*
X126175464Y-108410041D01*
X126262774Y-108523826D01*
X126271719Y-108535483D01*
X126296769Y-108554704D01*
X126308964Y-108565399D01*
X127414599Y-109671034D01*
X127425293Y-109683228D01*
X127444515Y-109708279D01*
X127444516Y-109708280D01*
X127444518Y-109708282D01*
X127569959Y-109804536D01*
X127716038Y-109865044D01*
X127794419Y-109875363D01*
X127872799Y-109885682D01*
X127872800Y-109885682D01*
X127904102Y-109881560D01*
X127920287Y-109880500D01*
X138490909Y-109880500D01*
X138557948Y-109900185D01*
X138603292Y-109952097D01*
X138605965Y-109957830D01*
X138605966Y-109957831D01*
X138741501Y-110151395D01*
X138741506Y-110151402D01*
X138908597Y-110318493D01*
X138908603Y-110318498D01*
X139094158Y-110448425D01*
X139137783Y-110503002D01*
X139144977Y-110572500D01*
X139113454Y-110634855D01*
X139094158Y-110651575D01*
X138908600Y-110781503D01*
X138762513Y-110927590D01*
X138701190Y-110961074D01*
X138631498Y-110956090D01*
X138576457Y-110915394D01*
X138564582Y-110899918D01*
X138439141Y-110803664D01*
X138293062Y-110743156D01*
X138293060Y-110743155D01*
X138175661Y-110727700D01*
X138136300Y-110722518D01*
X138104997Y-110726639D01*
X138088813Y-110727700D01*
X132102087Y-110727700D01*
X132085902Y-110726639D01*
X132054600Y-110722518D01*
X132015239Y-110727700D01*
X131897839Y-110743155D01*
X131897837Y-110743156D01*
X131751757Y-110803664D01*
X131626318Y-110899916D01*
X131607089Y-110924975D01*
X131596398Y-110937165D01*
X130960521Y-111573042D01*
X130899198Y-111606527D01*
X130891323Y-111607976D01*
X130729766Y-111632328D01*
X130695542Y-111637487D01*
X130695541Y-111637487D01*
X130695536Y-111637488D01*
X130451992Y-111712612D01*
X130222373Y-111823190D01*
X130222372Y-111823191D01*
X130222366Y-111823194D01*
X130222366Y-111823195D01*
X130212483Y-111829933D01*
X130011782Y-111966768D01*
X129824952Y-112140121D01*
X129824950Y-112140123D01*
X129666041Y-112339388D01*
X129538608Y-112560109D01*
X129445492Y-112797362D01*
X129444122Y-112801804D01*
X129442677Y-112801358D01*
X129411780Y-112856593D01*
X129350117Y-112889449D01*
X129280480Y-112883752D01*
X129224978Y-112841311D01*
X129206805Y-112801517D01*
X129205878Y-112801804D01*
X129204509Y-112797369D01*
X129204508Y-112797363D01*
X129111393Y-112560112D01*
X128983959Y-112339388D01*
X128825050Y-112140123D01*
X128638217Y-111966768D01*
X128427634Y-111823195D01*
X128427628Y-111823192D01*
X128427627Y-111823191D01*
X128427626Y-111823190D01*
X128198006Y-111712612D01*
X128198008Y-111712612D01*
X127954466Y-111637489D01*
X127954462Y-111637488D01*
X127954458Y-111637487D01*
X127833231Y-111619214D01*
X127702440Y-111599500D01*
X127702435Y-111599500D01*
X127447565Y-111599500D01*
X127447559Y-111599500D01*
X127290609Y-111623157D01*
X127195542Y-111637487D01*
X127195539Y-111637488D01*
X127195533Y-111637489D01*
X126951992Y-111712612D01*
X126722373Y-111823190D01*
X126722372Y-111823191D01*
X126722366Y-111823194D01*
X126722366Y-111823195D01*
X126712483Y-111829933D01*
X126511782Y-111966768D01*
X126324952Y-112140121D01*
X126324950Y-112140123D01*
X126166041Y-112339388D01*
X126038608Y-112560109D01*
X125945492Y-112797362D01*
X125944122Y-112801804D01*
X125942999Y-112801457D01*
X125911509Y-112857730D01*
X125849841Y-112890576D01*
X125780205Y-112884868D01*
X125724709Y-112842418D01*
X125706134Y-112801729D01*
X125705400Y-112801956D01*
X125704026Y-112797505D01*
X125610941Y-112560328D01*
X125610942Y-112560328D01*
X125483545Y-112339672D01*
X125441545Y-112287006D01*
X124637772Y-113090779D01*
X124599099Y-112997412D01*
X124502925Y-112872075D01*
X124377588Y-112775901D01*
X124284219Y-112737226D01*
X125088185Y-111933260D01*
X124927384Y-111823628D01*
X124927376Y-111823623D01*
X124697823Y-111713078D01*
X124697825Y-111713078D01*
X124454347Y-111637975D01*
X124454341Y-111637973D01*
X124202404Y-111600000D01*
X123947595Y-111600000D01*
X123695658Y-111637973D01*
X123695652Y-111637975D01*
X123452175Y-111713078D01*
X123222622Y-111823625D01*
X123222609Y-111823632D01*
X123061813Y-111933259D01*
X123865780Y-112737226D01*
X123772412Y-112775901D01*
X123647075Y-112872075D01*
X123550901Y-112997411D01*
X123512226Y-113090780D01*
X122708452Y-112287006D01*
X122666457Y-112339667D01*
X122539058Y-112560328D01*
X122445973Y-112797505D01*
X122444600Y-112801956D01*
X122443432Y-112801595D01*
X122412026Y-112857726D01*
X122350360Y-112890575D01*
X122280724Y-112884871D01*
X122225226Y-112842423D01*
X122206581Y-112801587D01*
X122205878Y-112801804D01*
X122204509Y-112797369D01*
X122204508Y-112797363D01*
X122111393Y-112560112D01*
X121983959Y-112339388D01*
X121825050Y-112140123D01*
X121638217Y-111966768D01*
X121427634Y-111823195D01*
X121427628Y-111823192D01*
X121427627Y-111823191D01*
X121427626Y-111823190D01*
X121198006Y-111712612D01*
X121198008Y-111712612D01*
X120954466Y-111637489D01*
X120954462Y-111637488D01*
X120954458Y-111637487D01*
X120833231Y-111619214D01*
X120702440Y-111599500D01*
X120702435Y-111599500D01*
X120447565Y-111599500D01*
X120447559Y-111599500D01*
X120290609Y-111623157D01*
X120195542Y-111637487D01*
X120195539Y-111637488D01*
X120195533Y-111637489D01*
X119951992Y-111712612D01*
X119722373Y-111823190D01*
X119722372Y-111823191D01*
X119722366Y-111823194D01*
X119722366Y-111823195D01*
X119712483Y-111829933D01*
X119511782Y-111966768D01*
X119324952Y-112140121D01*
X119324950Y-112140123D01*
X119166041Y-112339388D01*
X119038608Y-112560109D01*
X118945492Y-112797362D01*
X118944122Y-112801804D01*
X118942677Y-112801358D01*
X118911780Y-112856593D01*
X118850117Y-112889449D01*
X118780480Y-112883752D01*
X118724978Y-112841311D01*
X118706805Y-112801517D01*
X118705878Y-112801804D01*
X118704509Y-112797369D01*
X118704508Y-112797363D01*
X118611393Y-112560112D01*
X118483959Y-112339388D01*
X118325050Y-112140123D01*
X118138217Y-111966768D01*
X117927634Y-111823195D01*
X117927631Y-111823194D01*
X117927629Y-111823192D01*
X117745698Y-111735579D01*
X117693839Y-111688757D01*
X117675500Y-111623859D01*
X117675500Y-111458287D01*
X117676561Y-111442101D01*
X117680682Y-111410799D01*
X117680682Y-111410798D01*
X117660044Y-111254039D01*
X117660042Y-111254034D01*
X117599538Y-111107963D01*
X117599535Y-111107958D01*
X117527451Y-111014016D01*
X117527450Y-111014015D01*
X117513761Y-110996175D01*
X117503281Y-110982516D01*
X117478229Y-110963294D01*
X117466034Y-110952599D01*
X116605616Y-110092181D01*
X116572131Y-110030858D01*
X116577115Y-109961166D01*
X116618987Y-109905233D01*
X116684451Y-109880816D01*
X116693297Y-109880500D01*
X120821913Y-109880500D01*
X120838097Y-109881560D01*
X120869400Y-109885682D01*
X120869401Y-109885682D01*
X120921654Y-109878802D01*
X121026162Y-109865044D01*
X121172241Y-109804536D01*
X121297682Y-109708282D01*
X121316909Y-109683223D01*
X121327590Y-109671043D01*
X123591043Y-107407590D01*
X123603223Y-107396909D01*
X123628282Y-107377682D01*
X123724536Y-107252241D01*
X123736457Y-107223460D01*
X123780293Y-107169059D01*
X123814470Y-107152421D01*
X123823004Y-107149789D01*
X123977319Y-107075475D01*
X124052626Y-107039209D01*
X124052626Y-107039208D01*
X124052634Y-107039205D01*
X124263217Y-106895632D01*
X124450050Y-106722277D01*
X124608959Y-106523012D01*
X124736393Y-106302288D01*
X124829508Y-106065037D01*
X124829510Y-106065024D01*
X124830878Y-106060596D01*
X124832324Y-106061042D01*
X124863213Y-106005812D01*
X124924873Y-105972952D01*
X124994510Y-105978643D01*
G37*
%TD.AperFunction*%
%TA.AperFunction,Conductor*%
G36*
X138557948Y-104820185D02*
G01*
X138603292Y-104872097D01*
X138605965Y-104877830D01*
X138741505Y-105071401D01*
X138908599Y-105238495D01*
X139080983Y-105359200D01*
X139094594Y-105368730D01*
X139138219Y-105423307D01*
X139145413Y-105492805D01*
X139113890Y-105555160D01*
X139094595Y-105571880D01*
X138908922Y-105701890D01*
X138908920Y-105701891D01*
X138741891Y-105868920D01*
X138741886Y-105868926D01*
X138606400Y-106062420D01*
X138606399Y-106062422D01*
X138506570Y-106276507D01*
X138506567Y-106276513D01*
X138449364Y-106489999D01*
X138449364Y-106490000D01*
X139346314Y-106490000D01*
X139320507Y-106530156D01*
X139280000Y-106668111D01*
X139280000Y-106811889D01*
X139320507Y-106949844D01*
X139346314Y-106990000D01*
X138449364Y-106990000D01*
X138506567Y-107203486D01*
X138506570Y-107203492D01*
X138606399Y-107417578D01*
X138741894Y-107611082D01*
X138908917Y-107778105D01*
X139094595Y-107908119D01*
X139138219Y-107962696D01*
X139145412Y-108032195D01*
X139113890Y-108094549D01*
X139094595Y-108111269D01*
X138908594Y-108241508D01*
X138741506Y-108408596D01*
X138605965Y-108602170D01*
X138605962Y-108602175D01*
X138603289Y-108607909D01*
X138557115Y-108660346D01*
X138490909Y-108679500D01*
X136537696Y-108679500D01*
X136470657Y-108659815D01*
X136424902Y-108607011D01*
X136414958Y-108537853D01*
X136443983Y-108474297D01*
X136450015Y-108467819D01*
X136594463Y-108323371D01*
X136763643Y-108154190D01*
X136775823Y-108143509D01*
X136800882Y-108124282D01*
X136897136Y-107998841D01*
X136957644Y-107852762D01*
X136961099Y-107826518D01*
X136978283Y-107696000D01*
X136974161Y-107664689D01*
X136973100Y-107648504D01*
X136973100Y-106446696D01*
X136992785Y-106379657D01*
X137009410Y-106359024D01*
X137178536Y-106189897D01*
X137239856Y-106156415D01*
X137252311Y-106154363D01*
X137339255Y-106144568D01*
X137509522Y-106084989D01*
X137662262Y-105989016D01*
X137789816Y-105861462D01*
X137885789Y-105708722D01*
X137945368Y-105538455D01*
X137945369Y-105538449D01*
X137965565Y-105359203D01*
X137965565Y-105359196D01*
X137945369Y-105179950D01*
X137945368Y-105179945D01*
X137885788Y-105009675D01*
X137873722Y-104990473D01*
X137854721Y-104923237D01*
X137875088Y-104856401D01*
X137928356Y-104811187D01*
X137978715Y-104800500D01*
X138490909Y-104800500D01*
X138557948Y-104820185D01*
G37*
%TD.AperFunction*%
%TA.AperFunction,Conductor*%
G36*
X115675901Y-105864988D02*
G01*
X115772075Y-105990325D01*
X115897412Y-106086499D01*
X115990779Y-106125172D01*
X115186813Y-106929138D01*
X115322205Y-107021446D01*
X115366507Y-107075475D01*
X115374567Y-107144878D01*
X115343824Y-107207621D01*
X115284041Y-107243783D01*
X115252354Y-107247900D01*
X113648532Y-107247900D01*
X113581493Y-107228215D01*
X113535738Y-107175411D01*
X113525794Y-107106253D01*
X113554819Y-107042697D01*
X113578674Y-107021450D01*
X113763217Y-106895632D01*
X113950050Y-106722277D01*
X114108959Y-106523012D01*
X114236393Y-106302288D01*
X114329508Y-106065037D01*
X114329510Y-106065024D01*
X114330878Y-106060596D01*
X114332008Y-106060944D01*
X114363464Y-106004695D01*
X114425121Y-105971830D01*
X114494759Y-105977517D01*
X114550268Y-106019951D01*
X114568868Y-106060669D01*
X114569600Y-106060444D01*
X114570973Y-106064894D01*
X114664058Y-106302071D01*
X114664057Y-106302071D01*
X114791454Y-106522727D01*
X114791461Y-106522738D01*
X114833452Y-106575391D01*
X114833453Y-106575392D01*
X115637226Y-105771619D01*
X115675901Y-105864988D01*
G37*
%TD.AperFunction*%
%TA.AperFunction,Conductor*%
G36*
X117566544Y-106575392D02*
G01*
X117566546Y-106575391D01*
X117608544Y-106522730D01*
X117735941Y-106302071D01*
X117829026Y-106064894D01*
X117830400Y-106060444D01*
X117831574Y-106060806D01*
X117862945Y-106004700D01*
X117924601Y-105971832D01*
X117994239Y-105977515D01*
X118049750Y-106019945D01*
X118068420Y-106060812D01*
X118069122Y-106060596D01*
X118070490Y-106065030D01*
X118070492Y-106065037D01*
X118163607Y-106302288D01*
X118291041Y-106523012D01*
X118322523Y-106562489D01*
X118409225Y-106671210D01*
X118435634Y-106735897D01*
X118422877Y-106804592D01*
X118399959Y-106836204D01*
X118024584Y-107211581D01*
X117963261Y-107245066D01*
X117936903Y-107247900D01*
X117147647Y-107247900D01*
X117080608Y-107228215D01*
X117034853Y-107175411D01*
X117024909Y-107106253D01*
X117053934Y-107042697D01*
X117077795Y-107021446D01*
X117213185Y-106929138D01*
X116409220Y-106125172D01*
X116502588Y-106086499D01*
X116627925Y-105990325D01*
X116724099Y-105864989D01*
X116762773Y-105771620D01*
X117566544Y-106575392D01*
G37*
%TD.AperFunction*%
%TA.AperFunction,Conductor*%
G36*
X131119510Y-102286243D02*
G01*
X131175016Y-102328680D01*
X131193192Y-102368482D01*
X131194122Y-102368196D01*
X131195490Y-102372630D01*
X131195492Y-102372637D01*
X131268196Y-102557883D01*
X131288608Y-102609890D01*
X131299888Y-102629428D01*
X131416041Y-102830612D01*
X131574950Y-103029877D01*
X131761783Y-103203232D01*
X131972366Y-103346805D01*
X131972371Y-103346807D01*
X131972372Y-103346808D01*
X131972373Y-103346809D01*
X132094328Y-103405538D01*
X132201992Y-103457387D01*
X132201993Y-103457387D01*
X132201996Y-103457389D01*
X132445542Y-103532513D01*
X132697565Y-103570500D01*
X132952435Y-103570500D01*
X133204458Y-103532513D01*
X133448004Y-103457389D01*
X133448021Y-103457380D01*
X133452330Y-103455691D01*
X133452877Y-103457085D01*
X133515360Y-103446777D01*
X133579502Y-103474480D01*
X133587938Y-103482173D01*
X133755984Y-103650219D01*
X133789469Y-103711542D01*
X133784485Y-103781234D01*
X133742613Y-103837167D01*
X133677149Y-103861584D01*
X133668303Y-103861900D01*
X133572559Y-103861900D01*
X133415609Y-103885557D01*
X133320542Y-103899887D01*
X133320539Y-103899888D01*
X133320533Y-103899889D01*
X133076992Y-103975012D01*
X132847373Y-104085590D01*
X132847372Y-104085591D01*
X132636782Y-104229168D01*
X132449952Y-104402521D01*
X132449950Y-104402523D01*
X132291041Y-104601788D01*
X132163608Y-104822509D01*
X132070492Y-105059762D01*
X132069122Y-105064204D01*
X132067677Y-105063758D01*
X132036780Y-105118993D01*
X131975117Y-105151849D01*
X131905480Y-105146152D01*
X131849978Y-105103711D01*
X131831805Y-105063917D01*
X131830878Y-105064204D01*
X131829509Y-105059769D01*
X131829508Y-105059763D01*
X131736393Y-104822512D01*
X131608959Y-104601788D01*
X131450050Y-104402523D01*
X131263217Y-104229168D01*
X131052634Y-104085595D01*
X131052630Y-104085593D01*
X131052627Y-104085591D01*
X131052626Y-104085590D01*
X130823006Y-103975012D01*
X130823008Y-103975012D01*
X130579466Y-103899889D01*
X130579462Y-103899888D01*
X130579458Y-103899887D01*
X130458231Y-103881614D01*
X130327440Y-103861900D01*
X130327435Y-103861900D01*
X130072565Y-103861900D01*
X130072559Y-103861900D01*
X129915609Y-103885557D01*
X129820542Y-103899887D01*
X129820539Y-103899888D01*
X129820533Y-103899889D01*
X129576992Y-103975012D01*
X129347373Y-104085590D01*
X129347372Y-104085591D01*
X129136782Y-104229168D01*
X128949952Y-104402521D01*
X128949950Y-104402523D01*
X128791041Y-104601788D01*
X128663608Y-104822509D01*
X128570492Y-105059762D01*
X128569122Y-105064204D01*
X128567677Y-105063758D01*
X128536780Y-105118993D01*
X128475117Y-105151849D01*
X128405480Y-105146152D01*
X128349978Y-105103711D01*
X128331805Y-105063917D01*
X128330878Y-105064204D01*
X128329509Y-105059769D01*
X128329508Y-105059763D01*
X128236393Y-104822512D01*
X128108959Y-104601788D01*
X127950050Y-104402523D01*
X127763217Y-104229168D01*
X127552634Y-104085595D01*
X127552630Y-104085593D01*
X127552627Y-104085591D01*
X127552626Y-104085590D01*
X127323006Y-103975012D01*
X127323008Y-103975012D01*
X127079466Y-103899889D01*
X127079462Y-103899888D01*
X127079458Y-103899887D01*
X126958231Y-103881614D01*
X126827440Y-103861900D01*
X126827435Y-103861900D01*
X126572565Y-103861900D01*
X126572559Y-103861900D01*
X126415609Y-103885557D01*
X126320542Y-103899887D01*
X126320539Y-103899888D01*
X126320533Y-103899889D01*
X126076992Y-103975012D01*
X125847373Y-104085590D01*
X125847372Y-104085591D01*
X125636782Y-104229168D01*
X125449952Y-104402521D01*
X125449950Y-104402523D01*
X125291041Y-104601788D01*
X125163608Y-104822509D01*
X125070492Y-105059762D01*
X125069122Y-105064204D01*
X125067677Y-105063758D01*
X125036780Y-105118993D01*
X124975117Y-105151849D01*
X124905480Y-105146152D01*
X124849978Y-105103711D01*
X124831805Y-105063917D01*
X124830878Y-105064204D01*
X124829509Y-105059769D01*
X124829508Y-105059763D01*
X124736393Y-104822512D01*
X124608959Y-104601788D01*
X124450050Y-104402523D01*
X124263217Y-104229168D01*
X124052634Y-104085595D01*
X124052630Y-104085593D01*
X124052627Y-104085591D01*
X124052626Y-104085590D01*
X123823006Y-103975012D01*
X123823008Y-103975012D01*
X123579466Y-103899889D01*
X123579462Y-103899888D01*
X123579458Y-103899887D01*
X123458231Y-103881614D01*
X123327440Y-103861900D01*
X123327435Y-103861900D01*
X123072565Y-103861900D01*
X123072559Y-103861900D01*
X122915609Y-103885557D01*
X122820542Y-103899887D01*
X122820539Y-103899888D01*
X122820533Y-103899889D01*
X122576992Y-103975012D01*
X122347373Y-104085590D01*
X122347372Y-104085591D01*
X122136782Y-104229168D01*
X121949952Y-104402521D01*
X121949950Y-104402523D01*
X121791041Y-104601788D01*
X121663608Y-104822509D01*
X121570492Y-105059762D01*
X121569122Y-105064204D01*
X121567677Y-105063758D01*
X121536780Y-105118993D01*
X121475117Y-105151849D01*
X121405480Y-105146152D01*
X121349978Y-105103711D01*
X121331805Y-105063917D01*
X121330878Y-105064204D01*
X121329509Y-105059769D01*
X121329508Y-105059763D01*
X121236393Y-104822512D01*
X121108959Y-104601788D01*
X120950050Y-104402523D01*
X120763217Y-104229168D01*
X120552634Y-104085595D01*
X120552630Y-104085593D01*
X120552627Y-104085591D01*
X120552626Y-104085590D01*
X120323006Y-103975012D01*
X120323008Y-103975012D01*
X120079466Y-103899889D01*
X120079462Y-103899888D01*
X120079458Y-103899887D01*
X119958231Y-103881614D01*
X119827440Y-103861900D01*
X119827435Y-103861900D01*
X119572565Y-103861900D01*
X119572559Y-103861900D01*
X119415609Y-103885557D01*
X119320542Y-103899887D01*
X119320539Y-103899888D01*
X119320533Y-103899889D01*
X119076992Y-103975012D01*
X118847373Y-104085590D01*
X118847372Y-104085591D01*
X118636782Y-104229168D01*
X118449952Y-104402521D01*
X118449950Y-104402523D01*
X118291041Y-104601788D01*
X118163608Y-104822509D01*
X118070492Y-105059762D01*
X118069122Y-105064204D01*
X118067999Y-105063857D01*
X118036509Y-105120130D01*
X117974841Y-105152976D01*
X117905205Y-105147268D01*
X117849709Y-105104818D01*
X117831134Y-105064129D01*
X117830400Y-105064356D01*
X117829026Y-105059905D01*
X117735941Y-104822728D01*
X117735942Y-104822728D01*
X117608545Y-104602072D01*
X117566545Y-104549406D01*
X116762772Y-105353179D01*
X116724099Y-105259812D01*
X116627925Y-105134475D01*
X116502588Y-105038301D01*
X116409219Y-104999626D01*
X117213185Y-104195660D01*
X117052384Y-104086028D01*
X117052376Y-104086023D01*
X116822823Y-103975478D01*
X116822825Y-103975478D01*
X116579347Y-103900375D01*
X116579341Y-103900373D01*
X116327404Y-103862400D01*
X116072595Y-103862400D01*
X115820658Y-103900373D01*
X115820652Y-103900375D01*
X115577175Y-103975478D01*
X115347622Y-104086025D01*
X115347609Y-104086032D01*
X115186813Y-104195659D01*
X115990780Y-104999626D01*
X115897412Y-105038301D01*
X115772075Y-105134475D01*
X115675901Y-105259811D01*
X115637226Y-105353180D01*
X114833452Y-104549406D01*
X114791457Y-104602067D01*
X114664058Y-104822728D01*
X114570973Y-105059905D01*
X114569600Y-105064356D01*
X114568432Y-105063995D01*
X114537026Y-105120126D01*
X114475360Y-105152975D01*
X114405724Y-105147271D01*
X114350226Y-105104823D01*
X114331581Y-105063987D01*
X114330878Y-105064204D01*
X114329509Y-105059769D01*
X114329508Y-105059763D01*
X114236393Y-104822512D01*
X114108959Y-104601788D01*
X113950050Y-104402523D01*
X113874468Y-104332393D01*
X113838714Y-104272367D01*
X113841089Y-104202537D01*
X113880839Y-104145077D01*
X113883284Y-104143151D01*
X113958293Y-104085595D01*
X113991282Y-104060282D01*
X114010509Y-104035223D01*
X114021190Y-104023043D01*
X114562062Y-103482171D01*
X114623383Y-103448688D01*
X114693075Y-103453672D01*
X114699471Y-103456397D01*
X114701991Y-103457387D01*
X114701993Y-103457387D01*
X114701996Y-103457389D01*
X114945542Y-103532513D01*
X115197565Y-103570500D01*
X115452435Y-103570500D01*
X115704458Y-103532513D01*
X115948004Y-103457389D01*
X116152429Y-103358943D01*
X116177626Y-103346809D01*
X116177626Y-103346808D01*
X116177634Y-103346805D01*
X116388217Y-103203232D01*
X116575050Y-103029877D01*
X116733959Y-102830612D01*
X116861393Y-102609888D01*
X116954508Y-102372637D01*
X116954510Y-102372624D01*
X116955878Y-102368196D01*
X116957324Y-102368642D01*
X116988213Y-102313412D01*
X117049873Y-102280552D01*
X117119510Y-102286243D01*
X117175016Y-102328680D01*
X117193192Y-102368482D01*
X117194122Y-102368196D01*
X117195490Y-102372630D01*
X117195492Y-102372637D01*
X117268196Y-102557883D01*
X117288608Y-102609890D01*
X117299888Y-102629428D01*
X117416041Y-102830612D01*
X117574950Y-103029877D01*
X117761783Y-103203232D01*
X117972366Y-103346805D01*
X117972371Y-103346807D01*
X117972372Y-103346808D01*
X117972373Y-103346809D01*
X118094328Y-103405538D01*
X118201992Y-103457387D01*
X118201993Y-103457387D01*
X118201996Y-103457389D01*
X118445542Y-103532513D01*
X118697565Y-103570500D01*
X118952435Y-103570500D01*
X119204458Y-103532513D01*
X119448004Y-103457389D01*
X119652429Y-103358943D01*
X119677626Y-103346809D01*
X119677626Y-103346808D01*
X119677634Y-103346805D01*
X119888217Y-103203232D01*
X120075050Y-103029877D01*
X120233959Y-102830612D01*
X120361393Y-102609888D01*
X120454508Y-102372637D01*
X120454510Y-102372624D01*
X120455878Y-102368196D01*
X120457324Y-102368642D01*
X120488213Y-102313412D01*
X120549873Y-102280552D01*
X120619510Y-102286243D01*
X120675016Y-102328680D01*
X120693192Y-102368482D01*
X120694122Y-102368196D01*
X120695490Y-102372630D01*
X120695492Y-102372637D01*
X120768196Y-102557883D01*
X120788608Y-102609890D01*
X120799888Y-102629428D01*
X120916041Y-102830612D01*
X121074950Y-103029877D01*
X121261783Y-103203232D01*
X121472366Y-103346805D01*
X121472371Y-103346807D01*
X121472372Y-103346808D01*
X121472373Y-103346809D01*
X121594328Y-103405538D01*
X121701992Y-103457387D01*
X121701993Y-103457387D01*
X121701996Y-103457389D01*
X121945542Y-103532513D01*
X122197565Y-103570500D01*
X122452435Y-103570500D01*
X122704458Y-103532513D01*
X122948004Y-103457389D01*
X123152429Y-103358943D01*
X123177626Y-103346809D01*
X123177626Y-103346808D01*
X123177634Y-103346805D01*
X123388217Y-103203232D01*
X123575050Y-103029877D01*
X123733959Y-102830612D01*
X123861393Y-102609888D01*
X123954508Y-102372637D01*
X123954510Y-102372624D01*
X123955878Y-102368196D01*
X123957324Y-102368642D01*
X123988213Y-102313412D01*
X124049873Y-102280552D01*
X124119510Y-102286243D01*
X124175016Y-102328680D01*
X124193192Y-102368482D01*
X124194122Y-102368196D01*
X124195490Y-102372630D01*
X124195492Y-102372637D01*
X124268196Y-102557883D01*
X124288608Y-102609890D01*
X124299888Y-102629428D01*
X124416041Y-102830612D01*
X124574950Y-103029877D01*
X124761783Y-103203232D01*
X124972366Y-103346805D01*
X124972371Y-103346807D01*
X124972372Y-103346808D01*
X124972373Y-103346809D01*
X125094328Y-103405538D01*
X125201992Y-103457387D01*
X125201993Y-103457387D01*
X125201996Y-103457389D01*
X125445542Y-103532513D01*
X125697565Y-103570500D01*
X125952435Y-103570500D01*
X126204458Y-103532513D01*
X126448004Y-103457389D01*
X126652429Y-103358943D01*
X126677626Y-103346809D01*
X126677626Y-103346808D01*
X126677634Y-103346805D01*
X126888217Y-103203232D01*
X127075050Y-103029877D01*
X127233959Y-102830612D01*
X127361393Y-102609888D01*
X127454508Y-102372637D01*
X127454510Y-102372624D01*
X127455878Y-102368196D01*
X127457324Y-102368642D01*
X127488213Y-102313412D01*
X127549873Y-102280552D01*
X127619510Y-102286243D01*
X127675016Y-102328680D01*
X127693192Y-102368482D01*
X127694122Y-102368196D01*
X127695490Y-102372630D01*
X127695492Y-102372637D01*
X127768196Y-102557883D01*
X127788608Y-102609890D01*
X127799888Y-102629428D01*
X127916041Y-102830612D01*
X128074950Y-103029877D01*
X128261783Y-103203232D01*
X128472366Y-103346805D01*
X128472371Y-103346807D01*
X128472372Y-103346808D01*
X128472373Y-103346809D01*
X128594328Y-103405538D01*
X128701992Y-103457387D01*
X128701993Y-103457387D01*
X128701996Y-103457389D01*
X128945542Y-103532513D01*
X129197565Y-103570500D01*
X129452435Y-103570500D01*
X129704458Y-103532513D01*
X129948004Y-103457389D01*
X130152429Y-103358943D01*
X130177626Y-103346809D01*
X130177626Y-103346808D01*
X130177634Y-103346805D01*
X130388217Y-103203232D01*
X130575050Y-103029877D01*
X130733959Y-102830612D01*
X130861393Y-102609888D01*
X130954508Y-102372637D01*
X130954510Y-102372624D01*
X130955878Y-102368196D01*
X130957324Y-102368642D01*
X130988213Y-102313412D01*
X131049873Y-102280552D01*
X131119510Y-102286243D01*
G37*
%TD.AperFunction*%
%TD*%
M02*
