%TF.GenerationSoftware,KiCad,Pcbnew,7.0.11+dfsg-1build4*%
%TF.CreationDate,2026-06-07T18:18:21-05:00*%
%TF.ProjectId,,58585858-5858-4585-9858-585858585858,rev?*%
%TF.SameCoordinates,Original*%
%TF.FileFunction,Soldermask,Bot*%
%TF.FilePolarity,Negative*%
%FSLAX46Y46*%
G04 Gerber Fmt 4.6, Leading zero omitted, Abs format (unit mm)*
G04 Created by KiCad (PCBNEW 7.0.11+dfsg-1build4) date 2026-06-07 18:18:21*
%MOMM*%
%LPD*%
G01*
G04 APERTURE LIST*
G04 Aperture macros list*
%AMRoundRect*
0 Rectangle with rounded corners*
0 $1 Rounding radius*
0 $2 $3 $4 $5 $6 $7 $8 $9 X,Y pos of 4 corners*
0 Add a 4 corners polygon primitive as box body*
4,1,4,$2,$3,$4,$5,$6,$7,$8,$9,$2,$3,0*
0 Add four circle primitives for the rounded corners*
1,1,$1+$1,$2,$3*
1,1,$1+$1,$4,$5*
1,1,$1+$1,$6,$7*
1,1,$1+$1,$8,$9*
0 Add four rect primitives between the rounded corners*
20,1,$1+$1,$2,$3,$4,$5,0*
20,1,$1+$1,$4,$5,$6,$7,0*
20,1,$1+$1,$6,$7,$8,$9,0*
20,1,$1+$1,$8,$9,$2,$3,0*%
G04 Aperture macros list end*
%ADD10R,1.700000X1.700000*%
%ADD11O,1.700000X1.700000*%
%ADD12RoundRect,0.250000X-0.450000X0.325000X-0.450000X-0.325000X0.450000X-0.325000X0.450000X0.325000X0*%
G04 APERTURE END LIST*
D10*
%TO.C,J2*%
X168723800Y-125589800D03*
D11*
X168723800Y-128129800D03*
X168723800Y-130669800D03*
X168723800Y-133209800D03*
X168723800Y-135749800D03*
X168723800Y-138289800D03*
X168723800Y-140829800D03*
X168723800Y-143369800D03*
%TD*%
D12*
%TO.C,D5*%
X135014200Y-133454800D03*
X135014200Y-135504800D03*
%TD*%
%TO.C,D2*%
X165799000Y-133454800D03*
X165799000Y-135504800D03*
%TD*%
%TO.C,D3*%
X165799000Y-139634200D03*
X165799000Y-141684200D03*
%TD*%
%TO.C,D4*%
X135014200Y-127257000D03*
X135014200Y-129307000D03*
%TD*%
D10*
%TO.C,J1*%
X132063800Y-125589800D03*
D11*
X132063800Y-128129800D03*
X132063800Y-130669800D03*
X132063800Y-133209800D03*
X132063800Y-135749800D03*
X132063800Y-138289800D03*
X132063800Y-140829800D03*
X132063800Y-143369800D03*
%TD*%
D12*
%TO.C,D6*%
X135014200Y-139634200D03*
X135014200Y-141684200D03*
%TD*%
%TO.C,D1*%
X165799000Y-127257000D03*
X165799000Y-129307000D03*
%TD*%
D10*
%TO.C,J2*%
X128523800Y-125589800D03*
D11*
X128523800Y-128129800D03*
X128523800Y-130669800D03*
X128523800Y-133209800D03*
X128523800Y-135749800D03*
X128523800Y-138289800D03*
X128523800Y-140829800D03*
X128523800Y-143369800D03*
%TD*%
D12*
%TO.C,D5*%
X94814200Y-133454800D03*
X94814200Y-135504800D03*
%TD*%
%TO.C,D2*%
X125599000Y-133454800D03*
X125599000Y-135504800D03*
%TD*%
%TO.C,D3*%
X125599000Y-139634200D03*
X125599000Y-141684200D03*
%TD*%
%TO.C,D4*%
X94814200Y-127257000D03*
X94814200Y-129307000D03*
%TD*%
D10*
%TO.C,J1*%
X91863800Y-125589800D03*
D11*
X91863800Y-128129800D03*
X91863800Y-130669800D03*
X91863800Y-133209800D03*
X91863800Y-135749800D03*
X91863800Y-138289800D03*
X91863800Y-140829800D03*
X91863800Y-143369800D03*
%TD*%
D12*
%TO.C,D6*%
X94814200Y-139634200D03*
X94814200Y-141684200D03*
%TD*%
%TO.C,D1*%
X125599000Y-127257000D03*
X125599000Y-129307000D03*
%TD*%
D10*
%TO.C,J2*%
X168723800Y-104489800D03*
D11*
X168723800Y-107029800D03*
X168723800Y-109569800D03*
X168723800Y-112109800D03*
X168723800Y-114649800D03*
X168723800Y-117189800D03*
X168723800Y-119729800D03*
X168723800Y-122269800D03*
%TD*%
D12*
%TO.C,D5*%
X135014200Y-112354800D03*
X135014200Y-114404800D03*
%TD*%
%TO.C,D2*%
X165799000Y-112354800D03*
X165799000Y-114404800D03*
%TD*%
%TO.C,D3*%
X165799000Y-118534200D03*
X165799000Y-120584200D03*
%TD*%
%TO.C,D4*%
X135014200Y-106157000D03*
X135014200Y-108207000D03*
%TD*%
D10*
%TO.C,J1*%
X132063800Y-104489800D03*
D11*
X132063800Y-107029800D03*
X132063800Y-109569800D03*
X132063800Y-112109800D03*
X132063800Y-114649800D03*
X132063800Y-117189800D03*
X132063800Y-119729800D03*
X132063800Y-122269800D03*
%TD*%
D12*
%TO.C,D6*%
X135014200Y-118534200D03*
X135014200Y-120584200D03*
%TD*%
%TO.C,D1*%
X165799000Y-106157000D03*
X165799000Y-108207000D03*
%TD*%
D10*
%TO.C,J2*%
X128523800Y-104489800D03*
D11*
X128523800Y-107029800D03*
X128523800Y-109569800D03*
X128523800Y-112109800D03*
X128523800Y-114649800D03*
X128523800Y-117189800D03*
X128523800Y-119729800D03*
X128523800Y-122269800D03*
%TD*%
D12*
%TO.C,D5*%
X94814200Y-112354800D03*
X94814200Y-114404800D03*
%TD*%
%TO.C,D2*%
X125599000Y-112354800D03*
X125599000Y-114404800D03*
%TD*%
%TO.C,D3*%
X125599000Y-118534200D03*
X125599000Y-120584200D03*
%TD*%
%TO.C,D4*%
X94814200Y-106157000D03*
X94814200Y-108207000D03*
%TD*%
D10*
%TO.C,J1*%
X91863800Y-104489800D03*
D11*
X91863800Y-107029800D03*
X91863800Y-109569800D03*
X91863800Y-112109800D03*
X91863800Y-114649800D03*
X91863800Y-117189800D03*
X91863800Y-119729800D03*
X91863800Y-122269800D03*
%TD*%
D12*
%TO.C,D6*%
X94814200Y-118534200D03*
X94814200Y-120584200D03*
%TD*%
%TO.C,D1*%
X125599000Y-106157000D03*
X125599000Y-108207000D03*
%TD*%
D10*
%TO.C,J2*%
X168723800Y-83389800D03*
D11*
X168723800Y-85929800D03*
X168723800Y-88469800D03*
X168723800Y-91009800D03*
X168723800Y-93549800D03*
X168723800Y-96089800D03*
X168723800Y-98629800D03*
X168723800Y-101169800D03*
%TD*%
D12*
%TO.C,D5*%
X135014200Y-91254800D03*
X135014200Y-93304800D03*
%TD*%
%TO.C,D2*%
X165799000Y-91254800D03*
X165799000Y-93304800D03*
%TD*%
%TO.C,D3*%
X165799000Y-97434200D03*
X165799000Y-99484200D03*
%TD*%
%TO.C,D4*%
X135014200Y-85057000D03*
X135014200Y-87107000D03*
%TD*%
D10*
%TO.C,J1*%
X132063800Y-83389800D03*
D11*
X132063800Y-85929800D03*
X132063800Y-88469800D03*
X132063800Y-91009800D03*
X132063800Y-93549800D03*
X132063800Y-96089800D03*
X132063800Y-98629800D03*
X132063800Y-101169800D03*
%TD*%
D12*
%TO.C,D6*%
X135014200Y-97434200D03*
X135014200Y-99484200D03*
%TD*%
%TO.C,D1*%
X165799000Y-85057000D03*
X165799000Y-87107000D03*
%TD*%
D10*
%TO.C,J2*%
X128523800Y-83389800D03*
D11*
X128523800Y-85929800D03*
X128523800Y-88469800D03*
X128523800Y-91009800D03*
X128523800Y-93549800D03*
X128523800Y-96089800D03*
X128523800Y-98629800D03*
X128523800Y-101169800D03*
%TD*%
D12*
%TO.C,D5*%
X94814200Y-91254800D03*
X94814200Y-93304800D03*
%TD*%
%TO.C,D2*%
X125599000Y-91254800D03*
X125599000Y-93304800D03*
%TD*%
%TO.C,D3*%
X125599000Y-97434200D03*
X125599000Y-99484200D03*
%TD*%
%TO.C,D4*%
X94814200Y-85057000D03*
X94814200Y-87107000D03*
%TD*%
D10*
%TO.C,J1*%
X91863800Y-83389800D03*
D11*
X91863800Y-85929800D03*
X91863800Y-88469800D03*
X91863800Y-91009800D03*
X91863800Y-93549800D03*
X91863800Y-96089800D03*
X91863800Y-98629800D03*
X91863800Y-101169800D03*
%TD*%
D12*
%TO.C,D6*%
X94814200Y-97434200D03*
X94814200Y-99484200D03*
%TD*%
%TO.C,D1*%
X125599000Y-85057000D03*
X125599000Y-87107000D03*
%TD*%
D10*
%TO.C,J2*%
X168723800Y-62289800D03*
D11*
X168723800Y-64829800D03*
X168723800Y-67369800D03*
X168723800Y-69909800D03*
X168723800Y-72449800D03*
X168723800Y-74989800D03*
X168723800Y-77529800D03*
X168723800Y-80069800D03*
%TD*%
D12*
%TO.C,D5*%
X135014200Y-70154800D03*
X135014200Y-72204800D03*
%TD*%
%TO.C,D2*%
X165799000Y-70154800D03*
X165799000Y-72204800D03*
%TD*%
%TO.C,D3*%
X165799000Y-76334200D03*
X165799000Y-78384200D03*
%TD*%
%TO.C,D4*%
X135014200Y-63957000D03*
X135014200Y-66007000D03*
%TD*%
D10*
%TO.C,J1*%
X132063800Y-62289800D03*
D11*
X132063800Y-64829800D03*
X132063800Y-67369800D03*
X132063800Y-69909800D03*
X132063800Y-72449800D03*
X132063800Y-74989800D03*
X132063800Y-77529800D03*
X132063800Y-80069800D03*
%TD*%
D12*
%TO.C,D6*%
X135014200Y-76334200D03*
X135014200Y-78384200D03*
%TD*%
%TO.C,D1*%
X165799000Y-63957000D03*
X165799000Y-66007000D03*
%TD*%
D10*
%TO.C,J2*%
X128523800Y-62289800D03*
D11*
X128523800Y-64829800D03*
X128523800Y-67369800D03*
X128523800Y-69909800D03*
X128523800Y-72449800D03*
X128523800Y-74989800D03*
X128523800Y-77529800D03*
X128523800Y-80069800D03*
%TD*%
D10*
%TO.C,J1*%
X91863800Y-62289800D03*
D11*
X91863800Y-64829800D03*
X91863800Y-67369800D03*
X91863800Y-69909800D03*
X91863800Y-72449800D03*
X91863800Y-74989800D03*
X91863800Y-77529800D03*
X91863800Y-80069800D03*
%TD*%
D12*
%TO.C,D5*%
X94814200Y-70154800D03*
X94814200Y-72204800D03*
%TD*%
%TO.C,D4*%
X94814200Y-63957000D03*
X94814200Y-66007000D03*
%TD*%
%TO.C,D6*%
X94814200Y-76334200D03*
X94814200Y-78384200D03*
%TD*%
%TO.C,D3*%
X125599000Y-76334200D03*
X125599000Y-78384200D03*
%TD*%
%TO.C,D2*%
X125599000Y-70154800D03*
X125599000Y-72204800D03*
%TD*%
%TO.C,D1*%
X125599000Y-63957000D03*
X125599000Y-66007000D03*
%TD*%
M02*
