%TF.GenerationSoftware,KiCad,Pcbnew,7.0.11+dfsg-1build4*%
%TF.CreationDate,2026-05-11T14:41:22-05:00*%
%TF.ProjectId,,58585858-5858-4585-9858-585858585858,rev?*%
%TF.SameCoordinates,Original*%
%TF.FileFunction,Legend,Bot*%
%TF.FilePolarity,Positive*%
%FSLAX46Y46*%
G04 Gerber Fmt 4.6, Leading zero omitted, Abs format (unit mm)*
G04 Created by KiCad (PCBNEW 7.0.11+dfsg-1build4) date 2026-05-11 14:41:22*
%MOMM*%
%LPD*%
G01*
G04 APERTURE LIST*
%ADD10C,0.100000*%
%ADD11C,0.150000*%
%ADD12C,0.120000*%
G04 APERTURE END LIST*
D10*
X106720000Y-115870000D02*
X106720000Y-135970000D01*
D11*
X135567982Y-121924866D02*
X135634649Y-121891533D01*
X135634649Y-121891533D02*
X135734649Y-121891533D01*
X135734649Y-121891533D02*
X135834649Y-121924866D01*
X135834649Y-121924866D02*
X135901316Y-121991533D01*
X135901316Y-121991533D02*
X135934649Y-122058200D01*
X135934649Y-122058200D02*
X135967982Y-122191533D01*
X135967982Y-122191533D02*
X135967982Y-122291533D01*
X135967982Y-122291533D02*
X135934649Y-122424866D01*
X135934649Y-122424866D02*
X135901316Y-122491533D01*
X135901316Y-122491533D02*
X135834649Y-122558200D01*
X135834649Y-122558200D02*
X135734649Y-122591533D01*
X135734649Y-122591533D02*
X135667982Y-122591533D01*
X135667982Y-122591533D02*
X135567982Y-122558200D01*
X135567982Y-122558200D02*
X135534649Y-122524866D01*
X135534649Y-122524866D02*
X135534649Y-122291533D01*
X135534649Y-122291533D02*
X135667982Y-122291533D01*
X135234649Y-122591533D02*
X135234649Y-121891533D01*
X135234649Y-121891533D02*
X134834649Y-122591533D01*
X134834649Y-122591533D02*
X134834649Y-121891533D01*
X134501316Y-122591533D02*
X134501316Y-121891533D01*
X134501316Y-121891533D02*
X134334649Y-121891533D01*
X134334649Y-121891533D02*
X134234649Y-121924866D01*
X134234649Y-121924866D02*
X134167983Y-121991533D01*
X134167983Y-121991533D02*
X134134649Y-122058200D01*
X134134649Y-122058200D02*
X134101316Y-122191533D01*
X134101316Y-122191533D02*
X134101316Y-122291533D01*
X134101316Y-122291533D02*
X134134649Y-122424866D01*
X134134649Y-122424866D02*
X134167983Y-122491533D01*
X134167983Y-122491533D02*
X134234649Y-122558200D01*
X134234649Y-122558200D02*
X134334649Y-122591533D01*
X134334649Y-122591533D02*
X134501316Y-122591533D01*
X106504649Y-121949533D02*
X106504649Y-121249533D01*
X106504649Y-121249533D02*
X106337982Y-121249533D01*
X106337982Y-121249533D02*
X106237982Y-121282866D01*
X106237982Y-121282866D02*
X106171316Y-121349533D01*
X106171316Y-121349533D02*
X106137982Y-121416200D01*
X106137982Y-121416200D02*
X106104649Y-121549533D01*
X106104649Y-121549533D02*
X106104649Y-121649533D01*
X106104649Y-121649533D02*
X106137982Y-121782866D01*
X106137982Y-121782866D02*
X106171316Y-121849533D01*
X106171316Y-121849533D02*
X106237982Y-121916200D01*
X106237982Y-121916200D02*
X106337982Y-121949533D01*
X106337982Y-121949533D02*
X106504649Y-121949533D01*
X105804649Y-121949533D02*
X105804649Y-121249533D01*
X105504649Y-121916200D02*
X105404649Y-121949533D01*
X105404649Y-121949533D02*
X105237983Y-121949533D01*
X105237983Y-121949533D02*
X105171316Y-121916200D01*
X105171316Y-121916200D02*
X105137983Y-121882866D01*
X105137983Y-121882866D02*
X105104649Y-121816200D01*
X105104649Y-121816200D02*
X105104649Y-121749533D01*
X105104649Y-121749533D02*
X105137983Y-121682866D01*
X105137983Y-121682866D02*
X105171316Y-121649533D01*
X105171316Y-121649533D02*
X105237983Y-121616200D01*
X105237983Y-121616200D02*
X105371316Y-121582866D01*
X105371316Y-121582866D02*
X105437983Y-121549533D01*
X105437983Y-121549533D02*
X105471316Y-121516200D01*
X105471316Y-121516200D02*
X105504649Y-121449533D01*
X105504649Y-121449533D02*
X105504649Y-121382866D01*
X105504649Y-121382866D02*
X105471316Y-121316200D01*
X105471316Y-121316200D02*
X105437983Y-121282866D01*
X105437983Y-121282866D02*
X105371316Y-121249533D01*
X105371316Y-121249533D02*
X105204649Y-121249533D01*
X105204649Y-121249533D02*
X105104649Y-121282866D01*
X104804649Y-121949533D02*
X104804649Y-121249533D01*
X104804649Y-121249533D02*
X104537982Y-121249533D01*
X104537982Y-121249533D02*
X104471316Y-121282866D01*
X104471316Y-121282866D02*
X104437982Y-121316200D01*
X104437982Y-121316200D02*
X104404649Y-121382866D01*
X104404649Y-121382866D02*
X104404649Y-121482866D01*
X104404649Y-121482866D02*
X104437982Y-121549533D01*
X104437982Y-121549533D02*
X104471316Y-121582866D01*
X104471316Y-121582866D02*
X104537982Y-121616200D01*
X104537982Y-121616200D02*
X104804649Y-121616200D01*
X103771316Y-121949533D02*
X104104649Y-121949533D01*
X104104649Y-121949533D02*
X104104649Y-121249533D01*
X103571315Y-121749533D02*
X103237982Y-121749533D01*
X103637982Y-121949533D02*
X103404649Y-121249533D01*
X103404649Y-121249533D02*
X103171315Y-121949533D01*
X102804649Y-121616200D02*
X102804649Y-121949533D01*
X103037982Y-121249533D02*
X102804649Y-121616200D01*
X102804649Y-121616200D02*
X102571315Y-121249533D01*
X106271316Y-122709866D02*
X106171316Y-122743200D01*
X106171316Y-122743200D02*
X106137982Y-122776533D01*
X106137982Y-122776533D02*
X106104649Y-122843200D01*
X106104649Y-122843200D02*
X106104649Y-122943200D01*
X106104649Y-122943200D02*
X106137982Y-123009866D01*
X106137982Y-123009866D02*
X106171316Y-123043200D01*
X106171316Y-123043200D02*
X106237982Y-123076533D01*
X106237982Y-123076533D02*
X106504649Y-123076533D01*
X106504649Y-123076533D02*
X106504649Y-122376533D01*
X106504649Y-122376533D02*
X106271316Y-122376533D01*
X106271316Y-122376533D02*
X106204649Y-122409866D01*
X106204649Y-122409866D02*
X106171316Y-122443200D01*
X106171316Y-122443200D02*
X106137982Y-122509866D01*
X106137982Y-122509866D02*
X106137982Y-122576533D01*
X106137982Y-122576533D02*
X106171316Y-122643200D01*
X106171316Y-122643200D02*
X106204649Y-122676533D01*
X106204649Y-122676533D02*
X106271316Y-122709866D01*
X106271316Y-122709866D02*
X106504649Y-122709866D01*
X105671316Y-122376533D02*
X105537982Y-122376533D01*
X105537982Y-122376533D02*
X105471316Y-122409866D01*
X105471316Y-122409866D02*
X105404649Y-122476533D01*
X105404649Y-122476533D02*
X105371316Y-122609866D01*
X105371316Y-122609866D02*
X105371316Y-122843200D01*
X105371316Y-122843200D02*
X105404649Y-122976533D01*
X105404649Y-122976533D02*
X105471316Y-123043200D01*
X105471316Y-123043200D02*
X105537982Y-123076533D01*
X105537982Y-123076533D02*
X105671316Y-123076533D01*
X105671316Y-123076533D02*
X105737982Y-123043200D01*
X105737982Y-123043200D02*
X105804649Y-122976533D01*
X105804649Y-122976533D02*
X105837982Y-122843200D01*
X105837982Y-122843200D02*
X105837982Y-122609866D01*
X105837982Y-122609866D02*
X105804649Y-122476533D01*
X105804649Y-122476533D02*
X105737982Y-122409866D01*
X105737982Y-122409866D02*
X105671316Y-122376533D01*
X105104649Y-122876533D02*
X104771316Y-122876533D01*
X105171316Y-123076533D02*
X104937983Y-122376533D01*
X104937983Y-122376533D02*
X104704649Y-123076533D01*
X104071316Y-123076533D02*
X104304649Y-122743200D01*
X104471316Y-123076533D02*
X104471316Y-122376533D01*
X104471316Y-122376533D02*
X104204649Y-122376533D01*
X104204649Y-122376533D02*
X104137983Y-122409866D01*
X104137983Y-122409866D02*
X104104649Y-122443200D01*
X104104649Y-122443200D02*
X104071316Y-122509866D01*
X104071316Y-122509866D02*
X104071316Y-122609866D01*
X104071316Y-122609866D02*
X104104649Y-122676533D01*
X104104649Y-122676533D02*
X104137983Y-122709866D01*
X104137983Y-122709866D02*
X104204649Y-122743200D01*
X104204649Y-122743200D02*
X104471316Y-122743200D01*
X103771316Y-123076533D02*
X103771316Y-122376533D01*
X103771316Y-122376533D02*
X103604649Y-122376533D01*
X103604649Y-122376533D02*
X103504649Y-122409866D01*
X103504649Y-122409866D02*
X103437983Y-122476533D01*
X103437983Y-122476533D02*
X103404649Y-122543200D01*
X103404649Y-122543200D02*
X103371316Y-122676533D01*
X103371316Y-122676533D02*
X103371316Y-122776533D01*
X103371316Y-122776533D02*
X103404649Y-122909866D01*
X103404649Y-122909866D02*
X103437983Y-122976533D01*
X103437983Y-122976533D02*
X103504649Y-123043200D01*
X103504649Y-123043200D02*
X103604649Y-123076533D01*
X103604649Y-123076533D02*
X103771316Y-123076533D01*
X135299649Y-130497533D02*
X135299649Y-129797533D01*
X135299649Y-129797533D02*
X135032982Y-129797533D01*
X135032982Y-129797533D02*
X134966316Y-129830866D01*
X134966316Y-129830866D02*
X134932982Y-129864200D01*
X134932982Y-129864200D02*
X134899649Y-129930866D01*
X134899649Y-129930866D02*
X134899649Y-130030866D01*
X134899649Y-130030866D02*
X134932982Y-130097533D01*
X134932982Y-130097533D02*
X134966316Y-130130866D01*
X134966316Y-130130866D02*
X135032982Y-130164200D01*
X135032982Y-130164200D02*
X135299649Y-130164200D01*
X134632982Y-130297533D02*
X134299649Y-130297533D01*
X134699649Y-130497533D02*
X134466316Y-129797533D01*
X134466316Y-129797533D02*
X134232982Y-130497533D01*
X133999649Y-130497533D02*
X133999649Y-129797533D01*
X133999649Y-129797533D02*
X133599649Y-130497533D01*
X133599649Y-130497533D02*
X133599649Y-129797533D01*
X133266316Y-130130866D02*
X133032983Y-130130866D01*
X132932983Y-130497533D02*
X133266316Y-130497533D01*
X133266316Y-130497533D02*
X133266316Y-129797533D01*
X133266316Y-129797533D02*
X132932983Y-129797533D01*
X132299650Y-130497533D02*
X132632983Y-130497533D01*
X132632983Y-130497533D02*
X132632983Y-129797533D01*
X135299649Y-131624533D02*
X135299649Y-130924533D01*
X135299649Y-130924533D02*
X135066316Y-131424533D01*
X135066316Y-131424533D02*
X134832982Y-130924533D01*
X134832982Y-130924533D02*
X134832982Y-131624533D01*
X134366316Y-130924533D02*
X134232982Y-130924533D01*
X134232982Y-130924533D02*
X134166316Y-130957866D01*
X134166316Y-130957866D02*
X134099649Y-131024533D01*
X134099649Y-131024533D02*
X134066316Y-131157866D01*
X134066316Y-131157866D02*
X134066316Y-131391200D01*
X134066316Y-131391200D02*
X134099649Y-131524533D01*
X134099649Y-131524533D02*
X134166316Y-131591200D01*
X134166316Y-131591200D02*
X134232982Y-131624533D01*
X134232982Y-131624533D02*
X134366316Y-131624533D01*
X134366316Y-131624533D02*
X134432982Y-131591200D01*
X134432982Y-131591200D02*
X134499649Y-131524533D01*
X134499649Y-131524533D02*
X134532982Y-131391200D01*
X134532982Y-131391200D02*
X134532982Y-131157866D01*
X134532982Y-131157866D02*
X134499649Y-131024533D01*
X134499649Y-131024533D02*
X134432982Y-130957866D01*
X134432982Y-130957866D02*
X134366316Y-130924533D01*
X133766316Y-130924533D02*
X133766316Y-131491200D01*
X133766316Y-131491200D02*
X133732983Y-131557866D01*
X133732983Y-131557866D02*
X133699649Y-131591200D01*
X133699649Y-131591200D02*
X133632983Y-131624533D01*
X133632983Y-131624533D02*
X133499649Y-131624533D01*
X133499649Y-131624533D02*
X133432983Y-131591200D01*
X133432983Y-131591200D02*
X133399649Y-131557866D01*
X133399649Y-131557866D02*
X133366316Y-131491200D01*
X133366316Y-131491200D02*
X133366316Y-130924533D01*
X133032983Y-131624533D02*
X133032983Y-130924533D01*
X133032983Y-130924533D02*
X132632983Y-131624533D01*
X132632983Y-131624533D02*
X132632983Y-130924533D01*
X132399650Y-130924533D02*
X131999650Y-130924533D01*
X132199650Y-131624533D02*
X132199650Y-130924533D01*
X135166316Y-132051533D02*
X135032982Y-132051533D01*
X135032982Y-132051533D02*
X134966316Y-132084866D01*
X134966316Y-132084866D02*
X134899649Y-132151533D01*
X134899649Y-132151533D02*
X134866316Y-132284866D01*
X134866316Y-132284866D02*
X134866316Y-132518200D01*
X134866316Y-132518200D02*
X134899649Y-132651533D01*
X134899649Y-132651533D02*
X134966316Y-132718200D01*
X134966316Y-132718200D02*
X135032982Y-132751533D01*
X135032982Y-132751533D02*
X135166316Y-132751533D01*
X135166316Y-132751533D02*
X135232982Y-132718200D01*
X135232982Y-132718200D02*
X135299649Y-132651533D01*
X135299649Y-132651533D02*
X135332982Y-132518200D01*
X135332982Y-132518200D02*
X135332982Y-132284866D01*
X135332982Y-132284866D02*
X135299649Y-132151533D01*
X135299649Y-132151533D02*
X135232982Y-132084866D01*
X135232982Y-132084866D02*
X135166316Y-132051533D01*
X134232983Y-132751533D02*
X134566316Y-132751533D01*
X134566316Y-132751533D02*
X134566316Y-132051533D01*
X133999649Y-132384866D02*
X133766316Y-132384866D01*
X133666316Y-132751533D02*
X133999649Y-132751533D01*
X133999649Y-132751533D02*
X133999649Y-132051533D01*
X133999649Y-132051533D02*
X133666316Y-132051533D01*
X133366316Y-132751533D02*
X133366316Y-132051533D01*
X133366316Y-132051533D02*
X133199649Y-132051533D01*
X133199649Y-132051533D02*
X133099649Y-132084866D01*
X133099649Y-132084866D02*
X133032983Y-132151533D01*
X133032983Y-132151533D02*
X132999649Y-132218200D01*
X132999649Y-132218200D02*
X132966316Y-132351533D01*
X132966316Y-132351533D02*
X132966316Y-132451533D01*
X132966316Y-132451533D02*
X132999649Y-132584866D01*
X132999649Y-132584866D02*
X133032983Y-132651533D01*
X133032983Y-132651533D02*
X133099649Y-132718200D01*
X133099649Y-132718200D02*
X133199649Y-132751533D01*
X133199649Y-132751533D02*
X133366316Y-132751533D01*
D10*
X131720000Y-115870000D02*
X131720000Y-135970000D01*
X66020000Y-115870000D02*
X66020000Y-135970000D01*
D11*
X94867982Y-121924866D02*
X94934649Y-121891533D01*
X94934649Y-121891533D02*
X95034649Y-121891533D01*
X95034649Y-121891533D02*
X95134649Y-121924866D01*
X95134649Y-121924866D02*
X95201316Y-121991533D01*
X95201316Y-121991533D02*
X95234649Y-122058200D01*
X95234649Y-122058200D02*
X95267982Y-122191533D01*
X95267982Y-122191533D02*
X95267982Y-122291533D01*
X95267982Y-122291533D02*
X95234649Y-122424866D01*
X95234649Y-122424866D02*
X95201316Y-122491533D01*
X95201316Y-122491533D02*
X95134649Y-122558200D01*
X95134649Y-122558200D02*
X95034649Y-122591533D01*
X95034649Y-122591533D02*
X94967982Y-122591533D01*
X94967982Y-122591533D02*
X94867982Y-122558200D01*
X94867982Y-122558200D02*
X94834649Y-122524866D01*
X94834649Y-122524866D02*
X94834649Y-122291533D01*
X94834649Y-122291533D02*
X94967982Y-122291533D01*
X94534649Y-122591533D02*
X94534649Y-121891533D01*
X94534649Y-121891533D02*
X94134649Y-122591533D01*
X94134649Y-122591533D02*
X94134649Y-121891533D01*
X93801316Y-122591533D02*
X93801316Y-121891533D01*
X93801316Y-121891533D02*
X93634649Y-121891533D01*
X93634649Y-121891533D02*
X93534649Y-121924866D01*
X93534649Y-121924866D02*
X93467983Y-121991533D01*
X93467983Y-121991533D02*
X93434649Y-122058200D01*
X93434649Y-122058200D02*
X93401316Y-122191533D01*
X93401316Y-122191533D02*
X93401316Y-122291533D01*
X93401316Y-122291533D02*
X93434649Y-122424866D01*
X93434649Y-122424866D02*
X93467983Y-122491533D01*
X93467983Y-122491533D02*
X93534649Y-122558200D01*
X93534649Y-122558200D02*
X93634649Y-122591533D01*
X93634649Y-122591533D02*
X93801316Y-122591533D01*
X65804649Y-121949533D02*
X65804649Y-121249533D01*
X65804649Y-121249533D02*
X65637982Y-121249533D01*
X65637982Y-121249533D02*
X65537982Y-121282866D01*
X65537982Y-121282866D02*
X65471316Y-121349533D01*
X65471316Y-121349533D02*
X65437982Y-121416200D01*
X65437982Y-121416200D02*
X65404649Y-121549533D01*
X65404649Y-121549533D02*
X65404649Y-121649533D01*
X65404649Y-121649533D02*
X65437982Y-121782866D01*
X65437982Y-121782866D02*
X65471316Y-121849533D01*
X65471316Y-121849533D02*
X65537982Y-121916200D01*
X65537982Y-121916200D02*
X65637982Y-121949533D01*
X65637982Y-121949533D02*
X65804649Y-121949533D01*
X65104649Y-121949533D02*
X65104649Y-121249533D01*
X64804649Y-121916200D02*
X64704649Y-121949533D01*
X64704649Y-121949533D02*
X64537983Y-121949533D01*
X64537983Y-121949533D02*
X64471316Y-121916200D01*
X64471316Y-121916200D02*
X64437983Y-121882866D01*
X64437983Y-121882866D02*
X64404649Y-121816200D01*
X64404649Y-121816200D02*
X64404649Y-121749533D01*
X64404649Y-121749533D02*
X64437983Y-121682866D01*
X64437983Y-121682866D02*
X64471316Y-121649533D01*
X64471316Y-121649533D02*
X64537983Y-121616200D01*
X64537983Y-121616200D02*
X64671316Y-121582866D01*
X64671316Y-121582866D02*
X64737983Y-121549533D01*
X64737983Y-121549533D02*
X64771316Y-121516200D01*
X64771316Y-121516200D02*
X64804649Y-121449533D01*
X64804649Y-121449533D02*
X64804649Y-121382866D01*
X64804649Y-121382866D02*
X64771316Y-121316200D01*
X64771316Y-121316200D02*
X64737983Y-121282866D01*
X64737983Y-121282866D02*
X64671316Y-121249533D01*
X64671316Y-121249533D02*
X64504649Y-121249533D01*
X64504649Y-121249533D02*
X64404649Y-121282866D01*
X64104649Y-121949533D02*
X64104649Y-121249533D01*
X64104649Y-121249533D02*
X63837982Y-121249533D01*
X63837982Y-121249533D02*
X63771316Y-121282866D01*
X63771316Y-121282866D02*
X63737982Y-121316200D01*
X63737982Y-121316200D02*
X63704649Y-121382866D01*
X63704649Y-121382866D02*
X63704649Y-121482866D01*
X63704649Y-121482866D02*
X63737982Y-121549533D01*
X63737982Y-121549533D02*
X63771316Y-121582866D01*
X63771316Y-121582866D02*
X63837982Y-121616200D01*
X63837982Y-121616200D02*
X64104649Y-121616200D01*
X63071316Y-121949533D02*
X63404649Y-121949533D01*
X63404649Y-121949533D02*
X63404649Y-121249533D01*
X62871315Y-121749533D02*
X62537982Y-121749533D01*
X62937982Y-121949533D02*
X62704649Y-121249533D01*
X62704649Y-121249533D02*
X62471315Y-121949533D01*
X62104649Y-121616200D02*
X62104649Y-121949533D01*
X62337982Y-121249533D02*
X62104649Y-121616200D01*
X62104649Y-121616200D02*
X61871315Y-121249533D01*
X65571316Y-122709866D02*
X65471316Y-122743200D01*
X65471316Y-122743200D02*
X65437982Y-122776533D01*
X65437982Y-122776533D02*
X65404649Y-122843200D01*
X65404649Y-122843200D02*
X65404649Y-122943200D01*
X65404649Y-122943200D02*
X65437982Y-123009866D01*
X65437982Y-123009866D02*
X65471316Y-123043200D01*
X65471316Y-123043200D02*
X65537982Y-123076533D01*
X65537982Y-123076533D02*
X65804649Y-123076533D01*
X65804649Y-123076533D02*
X65804649Y-122376533D01*
X65804649Y-122376533D02*
X65571316Y-122376533D01*
X65571316Y-122376533D02*
X65504649Y-122409866D01*
X65504649Y-122409866D02*
X65471316Y-122443200D01*
X65471316Y-122443200D02*
X65437982Y-122509866D01*
X65437982Y-122509866D02*
X65437982Y-122576533D01*
X65437982Y-122576533D02*
X65471316Y-122643200D01*
X65471316Y-122643200D02*
X65504649Y-122676533D01*
X65504649Y-122676533D02*
X65571316Y-122709866D01*
X65571316Y-122709866D02*
X65804649Y-122709866D01*
X64971316Y-122376533D02*
X64837982Y-122376533D01*
X64837982Y-122376533D02*
X64771316Y-122409866D01*
X64771316Y-122409866D02*
X64704649Y-122476533D01*
X64704649Y-122476533D02*
X64671316Y-122609866D01*
X64671316Y-122609866D02*
X64671316Y-122843200D01*
X64671316Y-122843200D02*
X64704649Y-122976533D01*
X64704649Y-122976533D02*
X64771316Y-123043200D01*
X64771316Y-123043200D02*
X64837982Y-123076533D01*
X64837982Y-123076533D02*
X64971316Y-123076533D01*
X64971316Y-123076533D02*
X65037982Y-123043200D01*
X65037982Y-123043200D02*
X65104649Y-122976533D01*
X65104649Y-122976533D02*
X65137982Y-122843200D01*
X65137982Y-122843200D02*
X65137982Y-122609866D01*
X65137982Y-122609866D02*
X65104649Y-122476533D01*
X65104649Y-122476533D02*
X65037982Y-122409866D01*
X65037982Y-122409866D02*
X64971316Y-122376533D01*
X64404649Y-122876533D02*
X64071316Y-122876533D01*
X64471316Y-123076533D02*
X64237983Y-122376533D01*
X64237983Y-122376533D02*
X64004649Y-123076533D01*
X63371316Y-123076533D02*
X63604649Y-122743200D01*
X63771316Y-123076533D02*
X63771316Y-122376533D01*
X63771316Y-122376533D02*
X63504649Y-122376533D01*
X63504649Y-122376533D02*
X63437983Y-122409866D01*
X63437983Y-122409866D02*
X63404649Y-122443200D01*
X63404649Y-122443200D02*
X63371316Y-122509866D01*
X63371316Y-122509866D02*
X63371316Y-122609866D01*
X63371316Y-122609866D02*
X63404649Y-122676533D01*
X63404649Y-122676533D02*
X63437983Y-122709866D01*
X63437983Y-122709866D02*
X63504649Y-122743200D01*
X63504649Y-122743200D02*
X63771316Y-122743200D01*
X63071316Y-123076533D02*
X63071316Y-122376533D01*
X63071316Y-122376533D02*
X62904649Y-122376533D01*
X62904649Y-122376533D02*
X62804649Y-122409866D01*
X62804649Y-122409866D02*
X62737983Y-122476533D01*
X62737983Y-122476533D02*
X62704649Y-122543200D01*
X62704649Y-122543200D02*
X62671316Y-122676533D01*
X62671316Y-122676533D02*
X62671316Y-122776533D01*
X62671316Y-122776533D02*
X62704649Y-122909866D01*
X62704649Y-122909866D02*
X62737983Y-122976533D01*
X62737983Y-122976533D02*
X62804649Y-123043200D01*
X62804649Y-123043200D02*
X62904649Y-123076533D01*
X62904649Y-123076533D02*
X63071316Y-123076533D01*
X94599649Y-130497533D02*
X94599649Y-129797533D01*
X94599649Y-129797533D02*
X94332982Y-129797533D01*
X94332982Y-129797533D02*
X94266316Y-129830866D01*
X94266316Y-129830866D02*
X94232982Y-129864200D01*
X94232982Y-129864200D02*
X94199649Y-129930866D01*
X94199649Y-129930866D02*
X94199649Y-130030866D01*
X94199649Y-130030866D02*
X94232982Y-130097533D01*
X94232982Y-130097533D02*
X94266316Y-130130866D01*
X94266316Y-130130866D02*
X94332982Y-130164200D01*
X94332982Y-130164200D02*
X94599649Y-130164200D01*
X93932982Y-130297533D02*
X93599649Y-130297533D01*
X93999649Y-130497533D02*
X93766316Y-129797533D01*
X93766316Y-129797533D02*
X93532982Y-130497533D01*
X93299649Y-130497533D02*
X93299649Y-129797533D01*
X93299649Y-129797533D02*
X92899649Y-130497533D01*
X92899649Y-130497533D02*
X92899649Y-129797533D01*
X92566316Y-130130866D02*
X92332983Y-130130866D01*
X92232983Y-130497533D02*
X92566316Y-130497533D01*
X92566316Y-130497533D02*
X92566316Y-129797533D01*
X92566316Y-129797533D02*
X92232983Y-129797533D01*
X91599650Y-130497533D02*
X91932983Y-130497533D01*
X91932983Y-130497533D02*
X91932983Y-129797533D01*
X94599649Y-131624533D02*
X94599649Y-130924533D01*
X94599649Y-130924533D02*
X94366316Y-131424533D01*
X94366316Y-131424533D02*
X94132982Y-130924533D01*
X94132982Y-130924533D02*
X94132982Y-131624533D01*
X93666316Y-130924533D02*
X93532982Y-130924533D01*
X93532982Y-130924533D02*
X93466316Y-130957866D01*
X93466316Y-130957866D02*
X93399649Y-131024533D01*
X93399649Y-131024533D02*
X93366316Y-131157866D01*
X93366316Y-131157866D02*
X93366316Y-131391200D01*
X93366316Y-131391200D02*
X93399649Y-131524533D01*
X93399649Y-131524533D02*
X93466316Y-131591200D01*
X93466316Y-131591200D02*
X93532982Y-131624533D01*
X93532982Y-131624533D02*
X93666316Y-131624533D01*
X93666316Y-131624533D02*
X93732982Y-131591200D01*
X93732982Y-131591200D02*
X93799649Y-131524533D01*
X93799649Y-131524533D02*
X93832982Y-131391200D01*
X93832982Y-131391200D02*
X93832982Y-131157866D01*
X93832982Y-131157866D02*
X93799649Y-131024533D01*
X93799649Y-131024533D02*
X93732982Y-130957866D01*
X93732982Y-130957866D02*
X93666316Y-130924533D01*
X93066316Y-130924533D02*
X93066316Y-131491200D01*
X93066316Y-131491200D02*
X93032983Y-131557866D01*
X93032983Y-131557866D02*
X92999649Y-131591200D01*
X92999649Y-131591200D02*
X92932983Y-131624533D01*
X92932983Y-131624533D02*
X92799649Y-131624533D01*
X92799649Y-131624533D02*
X92732983Y-131591200D01*
X92732983Y-131591200D02*
X92699649Y-131557866D01*
X92699649Y-131557866D02*
X92666316Y-131491200D01*
X92666316Y-131491200D02*
X92666316Y-130924533D01*
X92332983Y-131624533D02*
X92332983Y-130924533D01*
X92332983Y-130924533D02*
X91932983Y-131624533D01*
X91932983Y-131624533D02*
X91932983Y-130924533D01*
X91699650Y-130924533D02*
X91299650Y-130924533D01*
X91499650Y-131624533D02*
X91499650Y-130924533D01*
X94466316Y-132051533D02*
X94332982Y-132051533D01*
X94332982Y-132051533D02*
X94266316Y-132084866D01*
X94266316Y-132084866D02*
X94199649Y-132151533D01*
X94199649Y-132151533D02*
X94166316Y-132284866D01*
X94166316Y-132284866D02*
X94166316Y-132518200D01*
X94166316Y-132518200D02*
X94199649Y-132651533D01*
X94199649Y-132651533D02*
X94266316Y-132718200D01*
X94266316Y-132718200D02*
X94332982Y-132751533D01*
X94332982Y-132751533D02*
X94466316Y-132751533D01*
X94466316Y-132751533D02*
X94532982Y-132718200D01*
X94532982Y-132718200D02*
X94599649Y-132651533D01*
X94599649Y-132651533D02*
X94632982Y-132518200D01*
X94632982Y-132518200D02*
X94632982Y-132284866D01*
X94632982Y-132284866D02*
X94599649Y-132151533D01*
X94599649Y-132151533D02*
X94532982Y-132084866D01*
X94532982Y-132084866D02*
X94466316Y-132051533D01*
X93532983Y-132751533D02*
X93866316Y-132751533D01*
X93866316Y-132751533D02*
X93866316Y-132051533D01*
X93299649Y-132384866D02*
X93066316Y-132384866D01*
X92966316Y-132751533D02*
X93299649Y-132751533D01*
X93299649Y-132751533D02*
X93299649Y-132051533D01*
X93299649Y-132051533D02*
X92966316Y-132051533D01*
X92666316Y-132751533D02*
X92666316Y-132051533D01*
X92666316Y-132051533D02*
X92499649Y-132051533D01*
X92499649Y-132051533D02*
X92399649Y-132084866D01*
X92399649Y-132084866D02*
X92332983Y-132151533D01*
X92332983Y-132151533D02*
X92299649Y-132218200D01*
X92299649Y-132218200D02*
X92266316Y-132351533D01*
X92266316Y-132351533D02*
X92266316Y-132451533D01*
X92266316Y-132451533D02*
X92299649Y-132584866D01*
X92299649Y-132584866D02*
X92332983Y-132651533D01*
X92332983Y-132651533D02*
X92399649Y-132718200D01*
X92399649Y-132718200D02*
X92499649Y-132751533D01*
X92499649Y-132751533D02*
X92666316Y-132751533D01*
D10*
X91020000Y-115870000D02*
X91020000Y-135970000D01*
X106720000Y-94770000D02*
X106720000Y-114870000D01*
D11*
X135567982Y-100824866D02*
X135634649Y-100791533D01*
X135634649Y-100791533D02*
X135734649Y-100791533D01*
X135734649Y-100791533D02*
X135834649Y-100824866D01*
X135834649Y-100824866D02*
X135901316Y-100891533D01*
X135901316Y-100891533D02*
X135934649Y-100958200D01*
X135934649Y-100958200D02*
X135967982Y-101091533D01*
X135967982Y-101091533D02*
X135967982Y-101191533D01*
X135967982Y-101191533D02*
X135934649Y-101324866D01*
X135934649Y-101324866D02*
X135901316Y-101391533D01*
X135901316Y-101391533D02*
X135834649Y-101458200D01*
X135834649Y-101458200D02*
X135734649Y-101491533D01*
X135734649Y-101491533D02*
X135667982Y-101491533D01*
X135667982Y-101491533D02*
X135567982Y-101458200D01*
X135567982Y-101458200D02*
X135534649Y-101424866D01*
X135534649Y-101424866D02*
X135534649Y-101191533D01*
X135534649Y-101191533D02*
X135667982Y-101191533D01*
X135234649Y-101491533D02*
X135234649Y-100791533D01*
X135234649Y-100791533D02*
X134834649Y-101491533D01*
X134834649Y-101491533D02*
X134834649Y-100791533D01*
X134501316Y-101491533D02*
X134501316Y-100791533D01*
X134501316Y-100791533D02*
X134334649Y-100791533D01*
X134334649Y-100791533D02*
X134234649Y-100824866D01*
X134234649Y-100824866D02*
X134167983Y-100891533D01*
X134167983Y-100891533D02*
X134134649Y-100958200D01*
X134134649Y-100958200D02*
X134101316Y-101091533D01*
X134101316Y-101091533D02*
X134101316Y-101191533D01*
X134101316Y-101191533D02*
X134134649Y-101324866D01*
X134134649Y-101324866D02*
X134167983Y-101391533D01*
X134167983Y-101391533D02*
X134234649Y-101458200D01*
X134234649Y-101458200D02*
X134334649Y-101491533D01*
X134334649Y-101491533D02*
X134501316Y-101491533D01*
X106504649Y-100849533D02*
X106504649Y-100149533D01*
X106504649Y-100149533D02*
X106337982Y-100149533D01*
X106337982Y-100149533D02*
X106237982Y-100182866D01*
X106237982Y-100182866D02*
X106171316Y-100249533D01*
X106171316Y-100249533D02*
X106137982Y-100316200D01*
X106137982Y-100316200D02*
X106104649Y-100449533D01*
X106104649Y-100449533D02*
X106104649Y-100549533D01*
X106104649Y-100549533D02*
X106137982Y-100682866D01*
X106137982Y-100682866D02*
X106171316Y-100749533D01*
X106171316Y-100749533D02*
X106237982Y-100816200D01*
X106237982Y-100816200D02*
X106337982Y-100849533D01*
X106337982Y-100849533D02*
X106504649Y-100849533D01*
X105804649Y-100849533D02*
X105804649Y-100149533D01*
X105504649Y-100816200D02*
X105404649Y-100849533D01*
X105404649Y-100849533D02*
X105237983Y-100849533D01*
X105237983Y-100849533D02*
X105171316Y-100816200D01*
X105171316Y-100816200D02*
X105137983Y-100782866D01*
X105137983Y-100782866D02*
X105104649Y-100716200D01*
X105104649Y-100716200D02*
X105104649Y-100649533D01*
X105104649Y-100649533D02*
X105137983Y-100582866D01*
X105137983Y-100582866D02*
X105171316Y-100549533D01*
X105171316Y-100549533D02*
X105237983Y-100516200D01*
X105237983Y-100516200D02*
X105371316Y-100482866D01*
X105371316Y-100482866D02*
X105437983Y-100449533D01*
X105437983Y-100449533D02*
X105471316Y-100416200D01*
X105471316Y-100416200D02*
X105504649Y-100349533D01*
X105504649Y-100349533D02*
X105504649Y-100282866D01*
X105504649Y-100282866D02*
X105471316Y-100216200D01*
X105471316Y-100216200D02*
X105437983Y-100182866D01*
X105437983Y-100182866D02*
X105371316Y-100149533D01*
X105371316Y-100149533D02*
X105204649Y-100149533D01*
X105204649Y-100149533D02*
X105104649Y-100182866D01*
X104804649Y-100849533D02*
X104804649Y-100149533D01*
X104804649Y-100149533D02*
X104537982Y-100149533D01*
X104537982Y-100149533D02*
X104471316Y-100182866D01*
X104471316Y-100182866D02*
X104437982Y-100216200D01*
X104437982Y-100216200D02*
X104404649Y-100282866D01*
X104404649Y-100282866D02*
X104404649Y-100382866D01*
X104404649Y-100382866D02*
X104437982Y-100449533D01*
X104437982Y-100449533D02*
X104471316Y-100482866D01*
X104471316Y-100482866D02*
X104537982Y-100516200D01*
X104537982Y-100516200D02*
X104804649Y-100516200D01*
X103771316Y-100849533D02*
X104104649Y-100849533D01*
X104104649Y-100849533D02*
X104104649Y-100149533D01*
X103571315Y-100649533D02*
X103237982Y-100649533D01*
X103637982Y-100849533D02*
X103404649Y-100149533D01*
X103404649Y-100149533D02*
X103171315Y-100849533D01*
X102804649Y-100516200D02*
X102804649Y-100849533D01*
X103037982Y-100149533D02*
X102804649Y-100516200D01*
X102804649Y-100516200D02*
X102571315Y-100149533D01*
X106271316Y-101609866D02*
X106171316Y-101643200D01*
X106171316Y-101643200D02*
X106137982Y-101676533D01*
X106137982Y-101676533D02*
X106104649Y-101743200D01*
X106104649Y-101743200D02*
X106104649Y-101843200D01*
X106104649Y-101843200D02*
X106137982Y-101909866D01*
X106137982Y-101909866D02*
X106171316Y-101943200D01*
X106171316Y-101943200D02*
X106237982Y-101976533D01*
X106237982Y-101976533D02*
X106504649Y-101976533D01*
X106504649Y-101976533D02*
X106504649Y-101276533D01*
X106504649Y-101276533D02*
X106271316Y-101276533D01*
X106271316Y-101276533D02*
X106204649Y-101309866D01*
X106204649Y-101309866D02*
X106171316Y-101343200D01*
X106171316Y-101343200D02*
X106137982Y-101409866D01*
X106137982Y-101409866D02*
X106137982Y-101476533D01*
X106137982Y-101476533D02*
X106171316Y-101543200D01*
X106171316Y-101543200D02*
X106204649Y-101576533D01*
X106204649Y-101576533D02*
X106271316Y-101609866D01*
X106271316Y-101609866D02*
X106504649Y-101609866D01*
X105671316Y-101276533D02*
X105537982Y-101276533D01*
X105537982Y-101276533D02*
X105471316Y-101309866D01*
X105471316Y-101309866D02*
X105404649Y-101376533D01*
X105404649Y-101376533D02*
X105371316Y-101509866D01*
X105371316Y-101509866D02*
X105371316Y-101743200D01*
X105371316Y-101743200D02*
X105404649Y-101876533D01*
X105404649Y-101876533D02*
X105471316Y-101943200D01*
X105471316Y-101943200D02*
X105537982Y-101976533D01*
X105537982Y-101976533D02*
X105671316Y-101976533D01*
X105671316Y-101976533D02*
X105737982Y-101943200D01*
X105737982Y-101943200D02*
X105804649Y-101876533D01*
X105804649Y-101876533D02*
X105837982Y-101743200D01*
X105837982Y-101743200D02*
X105837982Y-101509866D01*
X105837982Y-101509866D02*
X105804649Y-101376533D01*
X105804649Y-101376533D02*
X105737982Y-101309866D01*
X105737982Y-101309866D02*
X105671316Y-101276533D01*
X105104649Y-101776533D02*
X104771316Y-101776533D01*
X105171316Y-101976533D02*
X104937983Y-101276533D01*
X104937983Y-101276533D02*
X104704649Y-101976533D01*
X104071316Y-101976533D02*
X104304649Y-101643200D01*
X104471316Y-101976533D02*
X104471316Y-101276533D01*
X104471316Y-101276533D02*
X104204649Y-101276533D01*
X104204649Y-101276533D02*
X104137983Y-101309866D01*
X104137983Y-101309866D02*
X104104649Y-101343200D01*
X104104649Y-101343200D02*
X104071316Y-101409866D01*
X104071316Y-101409866D02*
X104071316Y-101509866D01*
X104071316Y-101509866D02*
X104104649Y-101576533D01*
X104104649Y-101576533D02*
X104137983Y-101609866D01*
X104137983Y-101609866D02*
X104204649Y-101643200D01*
X104204649Y-101643200D02*
X104471316Y-101643200D01*
X103771316Y-101976533D02*
X103771316Y-101276533D01*
X103771316Y-101276533D02*
X103604649Y-101276533D01*
X103604649Y-101276533D02*
X103504649Y-101309866D01*
X103504649Y-101309866D02*
X103437983Y-101376533D01*
X103437983Y-101376533D02*
X103404649Y-101443200D01*
X103404649Y-101443200D02*
X103371316Y-101576533D01*
X103371316Y-101576533D02*
X103371316Y-101676533D01*
X103371316Y-101676533D02*
X103404649Y-101809866D01*
X103404649Y-101809866D02*
X103437983Y-101876533D01*
X103437983Y-101876533D02*
X103504649Y-101943200D01*
X103504649Y-101943200D02*
X103604649Y-101976533D01*
X103604649Y-101976533D02*
X103771316Y-101976533D01*
X135299649Y-109397533D02*
X135299649Y-108697533D01*
X135299649Y-108697533D02*
X135032982Y-108697533D01*
X135032982Y-108697533D02*
X134966316Y-108730866D01*
X134966316Y-108730866D02*
X134932982Y-108764200D01*
X134932982Y-108764200D02*
X134899649Y-108830866D01*
X134899649Y-108830866D02*
X134899649Y-108930866D01*
X134899649Y-108930866D02*
X134932982Y-108997533D01*
X134932982Y-108997533D02*
X134966316Y-109030866D01*
X134966316Y-109030866D02*
X135032982Y-109064200D01*
X135032982Y-109064200D02*
X135299649Y-109064200D01*
X134632982Y-109197533D02*
X134299649Y-109197533D01*
X134699649Y-109397533D02*
X134466316Y-108697533D01*
X134466316Y-108697533D02*
X134232982Y-109397533D01*
X133999649Y-109397533D02*
X133999649Y-108697533D01*
X133999649Y-108697533D02*
X133599649Y-109397533D01*
X133599649Y-109397533D02*
X133599649Y-108697533D01*
X133266316Y-109030866D02*
X133032983Y-109030866D01*
X132932983Y-109397533D02*
X133266316Y-109397533D01*
X133266316Y-109397533D02*
X133266316Y-108697533D01*
X133266316Y-108697533D02*
X132932983Y-108697533D01*
X132299650Y-109397533D02*
X132632983Y-109397533D01*
X132632983Y-109397533D02*
X132632983Y-108697533D01*
X135299649Y-110524533D02*
X135299649Y-109824533D01*
X135299649Y-109824533D02*
X135066316Y-110324533D01*
X135066316Y-110324533D02*
X134832982Y-109824533D01*
X134832982Y-109824533D02*
X134832982Y-110524533D01*
X134366316Y-109824533D02*
X134232982Y-109824533D01*
X134232982Y-109824533D02*
X134166316Y-109857866D01*
X134166316Y-109857866D02*
X134099649Y-109924533D01*
X134099649Y-109924533D02*
X134066316Y-110057866D01*
X134066316Y-110057866D02*
X134066316Y-110291200D01*
X134066316Y-110291200D02*
X134099649Y-110424533D01*
X134099649Y-110424533D02*
X134166316Y-110491200D01*
X134166316Y-110491200D02*
X134232982Y-110524533D01*
X134232982Y-110524533D02*
X134366316Y-110524533D01*
X134366316Y-110524533D02*
X134432982Y-110491200D01*
X134432982Y-110491200D02*
X134499649Y-110424533D01*
X134499649Y-110424533D02*
X134532982Y-110291200D01*
X134532982Y-110291200D02*
X134532982Y-110057866D01*
X134532982Y-110057866D02*
X134499649Y-109924533D01*
X134499649Y-109924533D02*
X134432982Y-109857866D01*
X134432982Y-109857866D02*
X134366316Y-109824533D01*
X133766316Y-109824533D02*
X133766316Y-110391200D01*
X133766316Y-110391200D02*
X133732983Y-110457866D01*
X133732983Y-110457866D02*
X133699649Y-110491200D01*
X133699649Y-110491200D02*
X133632983Y-110524533D01*
X133632983Y-110524533D02*
X133499649Y-110524533D01*
X133499649Y-110524533D02*
X133432983Y-110491200D01*
X133432983Y-110491200D02*
X133399649Y-110457866D01*
X133399649Y-110457866D02*
X133366316Y-110391200D01*
X133366316Y-110391200D02*
X133366316Y-109824533D01*
X133032983Y-110524533D02*
X133032983Y-109824533D01*
X133032983Y-109824533D02*
X132632983Y-110524533D01*
X132632983Y-110524533D02*
X132632983Y-109824533D01*
X132399650Y-109824533D02*
X131999650Y-109824533D01*
X132199650Y-110524533D02*
X132199650Y-109824533D01*
X135166316Y-110951533D02*
X135032982Y-110951533D01*
X135032982Y-110951533D02*
X134966316Y-110984866D01*
X134966316Y-110984866D02*
X134899649Y-111051533D01*
X134899649Y-111051533D02*
X134866316Y-111184866D01*
X134866316Y-111184866D02*
X134866316Y-111418200D01*
X134866316Y-111418200D02*
X134899649Y-111551533D01*
X134899649Y-111551533D02*
X134966316Y-111618200D01*
X134966316Y-111618200D02*
X135032982Y-111651533D01*
X135032982Y-111651533D02*
X135166316Y-111651533D01*
X135166316Y-111651533D02*
X135232982Y-111618200D01*
X135232982Y-111618200D02*
X135299649Y-111551533D01*
X135299649Y-111551533D02*
X135332982Y-111418200D01*
X135332982Y-111418200D02*
X135332982Y-111184866D01*
X135332982Y-111184866D02*
X135299649Y-111051533D01*
X135299649Y-111051533D02*
X135232982Y-110984866D01*
X135232982Y-110984866D02*
X135166316Y-110951533D01*
X134232983Y-111651533D02*
X134566316Y-111651533D01*
X134566316Y-111651533D02*
X134566316Y-110951533D01*
X133999649Y-111284866D02*
X133766316Y-111284866D01*
X133666316Y-111651533D02*
X133999649Y-111651533D01*
X133999649Y-111651533D02*
X133999649Y-110951533D01*
X133999649Y-110951533D02*
X133666316Y-110951533D01*
X133366316Y-111651533D02*
X133366316Y-110951533D01*
X133366316Y-110951533D02*
X133199649Y-110951533D01*
X133199649Y-110951533D02*
X133099649Y-110984866D01*
X133099649Y-110984866D02*
X133032983Y-111051533D01*
X133032983Y-111051533D02*
X132999649Y-111118200D01*
X132999649Y-111118200D02*
X132966316Y-111251533D01*
X132966316Y-111251533D02*
X132966316Y-111351533D01*
X132966316Y-111351533D02*
X132999649Y-111484866D01*
X132999649Y-111484866D02*
X133032983Y-111551533D01*
X133032983Y-111551533D02*
X133099649Y-111618200D01*
X133099649Y-111618200D02*
X133199649Y-111651533D01*
X133199649Y-111651533D02*
X133366316Y-111651533D01*
D10*
X131720000Y-94770000D02*
X131720000Y-114870000D01*
X66020000Y-94770000D02*
X66020000Y-114870000D01*
D11*
X94867982Y-100824866D02*
X94934649Y-100791533D01*
X94934649Y-100791533D02*
X95034649Y-100791533D01*
X95034649Y-100791533D02*
X95134649Y-100824866D01*
X95134649Y-100824866D02*
X95201316Y-100891533D01*
X95201316Y-100891533D02*
X95234649Y-100958200D01*
X95234649Y-100958200D02*
X95267982Y-101091533D01*
X95267982Y-101091533D02*
X95267982Y-101191533D01*
X95267982Y-101191533D02*
X95234649Y-101324866D01*
X95234649Y-101324866D02*
X95201316Y-101391533D01*
X95201316Y-101391533D02*
X95134649Y-101458200D01*
X95134649Y-101458200D02*
X95034649Y-101491533D01*
X95034649Y-101491533D02*
X94967982Y-101491533D01*
X94967982Y-101491533D02*
X94867982Y-101458200D01*
X94867982Y-101458200D02*
X94834649Y-101424866D01*
X94834649Y-101424866D02*
X94834649Y-101191533D01*
X94834649Y-101191533D02*
X94967982Y-101191533D01*
X94534649Y-101491533D02*
X94534649Y-100791533D01*
X94534649Y-100791533D02*
X94134649Y-101491533D01*
X94134649Y-101491533D02*
X94134649Y-100791533D01*
X93801316Y-101491533D02*
X93801316Y-100791533D01*
X93801316Y-100791533D02*
X93634649Y-100791533D01*
X93634649Y-100791533D02*
X93534649Y-100824866D01*
X93534649Y-100824866D02*
X93467983Y-100891533D01*
X93467983Y-100891533D02*
X93434649Y-100958200D01*
X93434649Y-100958200D02*
X93401316Y-101091533D01*
X93401316Y-101091533D02*
X93401316Y-101191533D01*
X93401316Y-101191533D02*
X93434649Y-101324866D01*
X93434649Y-101324866D02*
X93467983Y-101391533D01*
X93467983Y-101391533D02*
X93534649Y-101458200D01*
X93534649Y-101458200D02*
X93634649Y-101491533D01*
X93634649Y-101491533D02*
X93801316Y-101491533D01*
X65804649Y-100849533D02*
X65804649Y-100149533D01*
X65804649Y-100149533D02*
X65637982Y-100149533D01*
X65637982Y-100149533D02*
X65537982Y-100182866D01*
X65537982Y-100182866D02*
X65471316Y-100249533D01*
X65471316Y-100249533D02*
X65437982Y-100316200D01*
X65437982Y-100316200D02*
X65404649Y-100449533D01*
X65404649Y-100449533D02*
X65404649Y-100549533D01*
X65404649Y-100549533D02*
X65437982Y-100682866D01*
X65437982Y-100682866D02*
X65471316Y-100749533D01*
X65471316Y-100749533D02*
X65537982Y-100816200D01*
X65537982Y-100816200D02*
X65637982Y-100849533D01*
X65637982Y-100849533D02*
X65804649Y-100849533D01*
X65104649Y-100849533D02*
X65104649Y-100149533D01*
X64804649Y-100816200D02*
X64704649Y-100849533D01*
X64704649Y-100849533D02*
X64537983Y-100849533D01*
X64537983Y-100849533D02*
X64471316Y-100816200D01*
X64471316Y-100816200D02*
X64437983Y-100782866D01*
X64437983Y-100782866D02*
X64404649Y-100716200D01*
X64404649Y-100716200D02*
X64404649Y-100649533D01*
X64404649Y-100649533D02*
X64437983Y-100582866D01*
X64437983Y-100582866D02*
X64471316Y-100549533D01*
X64471316Y-100549533D02*
X64537983Y-100516200D01*
X64537983Y-100516200D02*
X64671316Y-100482866D01*
X64671316Y-100482866D02*
X64737983Y-100449533D01*
X64737983Y-100449533D02*
X64771316Y-100416200D01*
X64771316Y-100416200D02*
X64804649Y-100349533D01*
X64804649Y-100349533D02*
X64804649Y-100282866D01*
X64804649Y-100282866D02*
X64771316Y-100216200D01*
X64771316Y-100216200D02*
X64737983Y-100182866D01*
X64737983Y-100182866D02*
X64671316Y-100149533D01*
X64671316Y-100149533D02*
X64504649Y-100149533D01*
X64504649Y-100149533D02*
X64404649Y-100182866D01*
X64104649Y-100849533D02*
X64104649Y-100149533D01*
X64104649Y-100149533D02*
X63837982Y-100149533D01*
X63837982Y-100149533D02*
X63771316Y-100182866D01*
X63771316Y-100182866D02*
X63737982Y-100216200D01*
X63737982Y-100216200D02*
X63704649Y-100282866D01*
X63704649Y-100282866D02*
X63704649Y-100382866D01*
X63704649Y-100382866D02*
X63737982Y-100449533D01*
X63737982Y-100449533D02*
X63771316Y-100482866D01*
X63771316Y-100482866D02*
X63837982Y-100516200D01*
X63837982Y-100516200D02*
X64104649Y-100516200D01*
X63071316Y-100849533D02*
X63404649Y-100849533D01*
X63404649Y-100849533D02*
X63404649Y-100149533D01*
X62871315Y-100649533D02*
X62537982Y-100649533D01*
X62937982Y-100849533D02*
X62704649Y-100149533D01*
X62704649Y-100149533D02*
X62471315Y-100849533D01*
X62104649Y-100516200D02*
X62104649Y-100849533D01*
X62337982Y-100149533D02*
X62104649Y-100516200D01*
X62104649Y-100516200D02*
X61871315Y-100149533D01*
X65571316Y-101609866D02*
X65471316Y-101643200D01*
X65471316Y-101643200D02*
X65437982Y-101676533D01*
X65437982Y-101676533D02*
X65404649Y-101743200D01*
X65404649Y-101743200D02*
X65404649Y-101843200D01*
X65404649Y-101843200D02*
X65437982Y-101909866D01*
X65437982Y-101909866D02*
X65471316Y-101943200D01*
X65471316Y-101943200D02*
X65537982Y-101976533D01*
X65537982Y-101976533D02*
X65804649Y-101976533D01*
X65804649Y-101976533D02*
X65804649Y-101276533D01*
X65804649Y-101276533D02*
X65571316Y-101276533D01*
X65571316Y-101276533D02*
X65504649Y-101309866D01*
X65504649Y-101309866D02*
X65471316Y-101343200D01*
X65471316Y-101343200D02*
X65437982Y-101409866D01*
X65437982Y-101409866D02*
X65437982Y-101476533D01*
X65437982Y-101476533D02*
X65471316Y-101543200D01*
X65471316Y-101543200D02*
X65504649Y-101576533D01*
X65504649Y-101576533D02*
X65571316Y-101609866D01*
X65571316Y-101609866D02*
X65804649Y-101609866D01*
X64971316Y-101276533D02*
X64837982Y-101276533D01*
X64837982Y-101276533D02*
X64771316Y-101309866D01*
X64771316Y-101309866D02*
X64704649Y-101376533D01*
X64704649Y-101376533D02*
X64671316Y-101509866D01*
X64671316Y-101509866D02*
X64671316Y-101743200D01*
X64671316Y-101743200D02*
X64704649Y-101876533D01*
X64704649Y-101876533D02*
X64771316Y-101943200D01*
X64771316Y-101943200D02*
X64837982Y-101976533D01*
X64837982Y-101976533D02*
X64971316Y-101976533D01*
X64971316Y-101976533D02*
X65037982Y-101943200D01*
X65037982Y-101943200D02*
X65104649Y-101876533D01*
X65104649Y-101876533D02*
X65137982Y-101743200D01*
X65137982Y-101743200D02*
X65137982Y-101509866D01*
X65137982Y-101509866D02*
X65104649Y-101376533D01*
X65104649Y-101376533D02*
X65037982Y-101309866D01*
X65037982Y-101309866D02*
X64971316Y-101276533D01*
X64404649Y-101776533D02*
X64071316Y-101776533D01*
X64471316Y-101976533D02*
X64237983Y-101276533D01*
X64237983Y-101276533D02*
X64004649Y-101976533D01*
X63371316Y-101976533D02*
X63604649Y-101643200D01*
X63771316Y-101976533D02*
X63771316Y-101276533D01*
X63771316Y-101276533D02*
X63504649Y-101276533D01*
X63504649Y-101276533D02*
X63437983Y-101309866D01*
X63437983Y-101309866D02*
X63404649Y-101343200D01*
X63404649Y-101343200D02*
X63371316Y-101409866D01*
X63371316Y-101409866D02*
X63371316Y-101509866D01*
X63371316Y-101509866D02*
X63404649Y-101576533D01*
X63404649Y-101576533D02*
X63437983Y-101609866D01*
X63437983Y-101609866D02*
X63504649Y-101643200D01*
X63504649Y-101643200D02*
X63771316Y-101643200D01*
X63071316Y-101976533D02*
X63071316Y-101276533D01*
X63071316Y-101276533D02*
X62904649Y-101276533D01*
X62904649Y-101276533D02*
X62804649Y-101309866D01*
X62804649Y-101309866D02*
X62737983Y-101376533D01*
X62737983Y-101376533D02*
X62704649Y-101443200D01*
X62704649Y-101443200D02*
X62671316Y-101576533D01*
X62671316Y-101576533D02*
X62671316Y-101676533D01*
X62671316Y-101676533D02*
X62704649Y-101809866D01*
X62704649Y-101809866D02*
X62737983Y-101876533D01*
X62737983Y-101876533D02*
X62804649Y-101943200D01*
X62804649Y-101943200D02*
X62904649Y-101976533D01*
X62904649Y-101976533D02*
X63071316Y-101976533D01*
X94599649Y-109397533D02*
X94599649Y-108697533D01*
X94599649Y-108697533D02*
X94332982Y-108697533D01*
X94332982Y-108697533D02*
X94266316Y-108730866D01*
X94266316Y-108730866D02*
X94232982Y-108764200D01*
X94232982Y-108764200D02*
X94199649Y-108830866D01*
X94199649Y-108830866D02*
X94199649Y-108930866D01*
X94199649Y-108930866D02*
X94232982Y-108997533D01*
X94232982Y-108997533D02*
X94266316Y-109030866D01*
X94266316Y-109030866D02*
X94332982Y-109064200D01*
X94332982Y-109064200D02*
X94599649Y-109064200D01*
X93932982Y-109197533D02*
X93599649Y-109197533D01*
X93999649Y-109397533D02*
X93766316Y-108697533D01*
X93766316Y-108697533D02*
X93532982Y-109397533D01*
X93299649Y-109397533D02*
X93299649Y-108697533D01*
X93299649Y-108697533D02*
X92899649Y-109397533D01*
X92899649Y-109397533D02*
X92899649Y-108697533D01*
X92566316Y-109030866D02*
X92332983Y-109030866D01*
X92232983Y-109397533D02*
X92566316Y-109397533D01*
X92566316Y-109397533D02*
X92566316Y-108697533D01*
X92566316Y-108697533D02*
X92232983Y-108697533D01*
X91599650Y-109397533D02*
X91932983Y-109397533D01*
X91932983Y-109397533D02*
X91932983Y-108697533D01*
X94599649Y-110524533D02*
X94599649Y-109824533D01*
X94599649Y-109824533D02*
X94366316Y-110324533D01*
X94366316Y-110324533D02*
X94132982Y-109824533D01*
X94132982Y-109824533D02*
X94132982Y-110524533D01*
X93666316Y-109824533D02*
X93532982Y-109824533D01*
X93532982Y-109824533D02*
X93466316Y-109857866D01*
X93466316Y-109857866D02*
X93399649Y-109924533D01*
X93399649Y-109924533D02*
X93366316Y-110057866D01*
X93366316Y-110057866D02*
X93366316Y-110291200D01*
X93366316Y-110291200D02*
X93399649Y-110424533D01*
X93399649Y-110424533D02*
X93466316Y-110491200D01*
X93466316Y-110491200D02*
X93532982Y-110524533D01*
X93532982Y-110524533D02*
X93666316Y-110524533D01*
X93666316Y-110524533D02*
X93732982Y-110491200D01*
X93732982Y-110491200D02*
X93799649Y-110424533D01*
X93799649Y-110424533D02*
X93832982Y-110291200D01*
X93832982Y-110291200D02*
X93832982Y-110057866D01*
X93832982Y-110057866D02*
X93799649Y-109924533D01*
X93799649Y-109924533D02*
X93732982Y-109857866D01*
X93732982Y-109857866D02*
X93666316Y-109824533D01*
X93066316Y-109824533D02*
X93066316Y-110391200D01*
X93066316Y-110391200D02*
X93032983Y-110457866D01*
X93032983Y-110457866D02*
X92999649Y-110491200D01*
X92999649Y-110491200D02*
X92932983Y-110524533D01*
X92932983Y-110524533D02*
X92799649Y-110524533D01*
X92799649Y-110524533D02*
X92732983Y-110491200D01*
X92732983Y-110491200D02*
X92699649Y-110457866D01*
X92699649Y-110457866D02*
X92666316Y-110391200D01*
X92666316Y-110391200D02*
X92666316Y-109824533D01*
X92332983Y-110524533D02*
X92332983Y-109824533D01*
X92332983Y-109824533D02*
X91932983Y-110524533D01*
X91932983Y-110524533D02*
X91932983Y-109824533D01*
X91699650Y-109824533D02*
X91299650Y-109824533D01*
X91499650Y-110524533D02*
X91499650Y-109824533D01*
X94466316Y-110951533D02*
X94332982Y-110951533D01*
X94332982Y-110951533D02*
X94266316Y-110984866D01*
X94266316Y-110984866D02*
X94199649Y-111051533D01*
X94199649Y-111051533D02*
X94166316Y-111184866D01*
X94166316Y-111184866D02*
X94166316Y-111418200D01*
X94166316Y-111418200D02*
X94199649Y-111551533D01*
X94199649Y-111551533D02*
X94266316Y-111618200D01*
X94266316Y-111618200D02*
X94332982Y-111651533D01*
X94332982Y-111651533D02*
X94466316Y-111651533D01*
X94466316Y-111651533D02*
X94532982Y-111618200D01*
X94532982Y-111618200D02*
X94599649Y-111551533D01*
X94599649Y-111551533D02*
X94632982Y-111418200D01*
X94632982Y-111418200D02*
X94632982Y-111184866D01*
X94632982Y-111184866D02*
X94599649Y-111051533D01*
X94599649Y-111051533D02*
X94532982Y-110984866D01*
X94532982Y-110984866D02*
X94466316Y-110951533D01*
X93532983Y-111651533D02*
X93866316Y-111651533D01*
X93866316Y-111651533D02*
X93866316Y-110951533D01*
X93299649Y-111284866D02*
X93066316Y-111284866D01*
X92966316Y-111651533D02*
X93299649Y-111651533D01*
X93299649Y-111651533D02*
X93299649Y-110951533D01*
X93299649Y-110951533D02*
X92966316Y-110951533D01*
X92666316Y-111651533D02*
X92666316Y-110951533D01*
X92666316Y-110951533D02*
X92499649Y-110951533D01*
X92499649Y-110951533D02*
X92399649Y-110984866D01*
X92399649Y-110984866D02*
X92332983Y-111051533D01*
X92332983Y-111051533D02*
X92299649Y-111118200D01*
X92299649Y-111118200D02*
X92266316Y-111251533D01*
X92266316Y-111251533D02*
X92266316Y-111351533D01*
X92266316Y-111351533D02*
X92299649Y-111484866D01*
X92299649Y-111484866D02*
X92332983Y-111551533D01*
X92332983Y-111551533D02*
X92399649Y-111618200D01*
X92399649Y-111618200D02*
X92499649Y-111651533D01*
X92499649Y-111651533D02*
X92666316Y-111651533D01*
D10*
X91020000Y-94770000D02*
X91020000Y-114870000D01*
X106720000Y-73670000D02*
X106720000Y-93770000D01*
D11*
X135567982Y-79724866D02*
X135634649Y-79691533D01*
X135634649Y-79691533D02*
X135734649Y-79691533D01*
X135734649Y-79691533D02*
X135834649Y-79724866D01*
X135834649Y-79724866D02*
X135901316Y-79791533D01*
X135901316Y-79791533D02*
X135934649Y-79858200D01*
X135934649Y-79858200D02*
X135967982Y-79991533D01*
X135967982Y-79991533D02*
X135967982Y-80091533D01*
X135967982Y-80091533D02*
X135934649Y-80224866D01*
X135934649Y-80224866D02*
X135901316Y-80291533D01*
X135901316Y-80291533D02*
X135834649Y-80358200D01*
X135834649Y-80358200D02*
X135734649Y-80391533D01*
X135734649Y-80391533D02*
X135667982Y-80391533D01*
X135667982Y-80391533D02*
X135567982Y-80358200D01*
X135567982Y-80358200D02*
X135534649Y-80324866D01*
X135534649Y-80324866D02*
X135534649Y-80091533D01*
X135534649Y-80091533D02*
X135667982Y-80091533D01*
X135234649Y-80391533D02*
X135234649Y-79691533D01*
X135234649Y-79691533D02*
X134834649Y-80391533D01*
X134834649Y-80391533D02*
X134834649Y-79691533D01*
X134501316Y-80391533D02*
X134501316Y-79691533D01*
X134501316Y-79691533D02*
X134334649Y-79691533D01*
X134334649Y-79691533D02*
X134234649Y-79724866D01*
X134234649Y-79724866D02*
X134167983Y-79791533D01*
X134167983Y-79791533D02*
X134134649Y-79858200D01*
X134134649Y-79858200D02*
X134101316Y-79991533D01*
X134101316Y-79991533D02*
X134101316Y-80091533D01*
X134101316Y-80091533D02*
X134134649Y-80224866D01*
X134134649Y-80224866D02*
X134167983Y-80291533D01*
X134167983Y-80291533D02*
X134234649Y-80358200D01*
X134234649Y-80358200D02*
X134334649Y-80391533D01*
X134334649Y-80391533D02*
X134501316Y-80391533D01*
X106504649Y-79749533D02*
X106504649Y-79049533D01*
X106504649Y-79049533D02*
X106337982Y-79049533D01*
X106337982Y-79049533D02*
X106237982Y-79082866D01*
X106237982Y-79082866D02*
X106171316Y-79149533D01*
X106171316Y-79149533D02*
X106137982Y-79216200D01*
X106137982Y-79216200D02*
X106104649Y-79349533D01*
X106104649Y-79349533D02*
X106104649Y-79449533D01*
X106104649Y-79449533D02*
X106137982Y-79582866D01*
X106137982Y-79582866D02*
X106171316Y-79649533D01*
X106171316Y-79649533D02*
X106237982Y-79716200D01*
X106237982Y-79716200D02*
X106337982Y-79749533D01*
X106337982Y-79749533D02*
X106504649Y-79749533D01*
X105804649Y-79749533D02*
X105804649Y-79049533D01*
X105504649Y-79716200D02*
X105404649Y-79749533D01*
X105404649Y-79749533D02*
X105237983Y-79749533D01*
X105237983Y-79749533D02*
X105171316Y-79716200D01*
X105171316Y-79716200D02*
X105137983Y-79682866D01*
X105137983Y-79682866D02*
X105104649Y-79616200D01*
X105104649Y-79616200D02*
X105104649Y-79549533D01*
X105104649Y-79549533D02*
X105137983Y-79482866D01*
X105137983Y-79482866D02*
X105171316Y-79449533D01*
X105171316Y-79449533D02*
X105237983Y-79416200D01*
X105237983Y-79416200D02*
X105371316Y-79382866D01*
X105371316Y-79382866D02*
X105437983Y-79349533D01*
X105437983Y-79349533D02*
X105471316Y-79316200D01*
X105471316Y-79316200D02*
X105504649Y-79249533D01*
X105504649Y-79249533D02*
X105504649Y-79182866D01*
X105504649Y-79182866D02*
X105471316Y-79116200D01*
X105471316Y-79116200D02*
X105437983Y-79082866D01*
X105437983Y-79082866D02*
X105371316Y-79049533D01*
X105371316Y-79049533D02*
X105204649Y-79049533D01*
X105204649Y-79049533D02*
X105104649Y-79082866D01*
X104804649Y-79749533D02*
X104804649Y-79049533D01*
X104804649Y-79049533D02*
X104537982Y-79049533D01*
X104537982Y-79049533D02*
X104471316Y-79082866D01*
X104471316Y-79082866D02*
X104437982Y-79116200D01*
X104437982Y-79116200D02*
X104404649Y-79182866D01*
X104404649Y-79182866D02*
X104404649Y-79282866D01*
X104404649Y-79282866D02*
X104437982Y-79349533D01*
X104437982Y-79349533D02*
X104471316Y-79382866D01*
X104471316Y-79382866D02*
X104537982Y-79416200D01*
X104537982Y-79416200D02*
X104804649Y-79416200D01*
X103771316Y-79749533D02*
X104104649Y-79749533D01*
X104104649Y-79749533D02*
X104104649Y-79049533D01*
X103571315Y-79549533D02*
X103237982Y-79549533D01*
X103637982Y-79749533D02*
X103404649Y-79049533D01*
X103404649Y-79049533D02*
X103171315Y-79749533D01*
X102804649Y-79416200D02*
X102804649Y-79749533D01*
X103037982Y-79049533D02*
X102804649Y-79416200D01*
X102804649Y-79416200D02*
X102571315Y-79049533D01*
X106271316Y-80509866D02*
X106171316Y-80543200D01*
X106171316Y-80543200D02*
X106137982Y-80576533D01*
X106137982Y-80576533D02*
X106104649Y-80643200D01*
X106104649Y-80643200D02*
X106104649Y-80743200D01*
X106104649Y-80743200D02*
X106137982Y-80809866D01*
X106137982Y-80809866D02*
X106171316Y-80843200D01*
X106171316Y-80843200D02*
X106237982Y-80876533D01*
X106237982Y-80876533D02*
X106504649Y-80876533D01*
X106504649Y-80876533D02*
X106504649Y-80176533D01*
X106504649Y-80176533D02*
X106271316Y-80176533D01*
X106271316Y-80176533D02*
X106204649Y-80209866D01*
X106204649Y-80209866D02*
X106171316Y-80243200D01*
X106171316Y-80243200D02*
X106137982Y-80309866D01*
X106137982Y-80309866D02*
X106137982Y-80376533D01*
X106137982Y-80376533D02*
X106171316Y-80443200D01*
X106171316Y-80443200D02*
X106204649Y-80476533D01*
X106204649Y-80476533D02*
X106271316Y-80509866D01*
X106271316Y-80509866D02*
X106504649Y-80509866D01*
X105671316Y-80176533D02*
X105537982Y-80176533D01*
X105537982Y-80176533D02*
X105471316Y-80209866D01*
X105471316Y-80209866D02*
X105404649Y-80276533D01*
X105404649Y-80276533D02*
X105371316Y-80409866D01*
X105371316Y-80409866D02*
X105371316Y-80643200D01*
X105371316Y-80643200D02*
X105404649Y-80776533D01*
X105404649Y-80776533D02*
X105471316Y-80843200D01*
X105471316Y-80843200D02*
X105537982Y-80876533D01*
X105537982Y-80876533D02*
X105671316Y-80876533D01*
X105671316Y-80876533D02*
X105737982Y-80843200D01*
X105737982Y-80843200D02*
X105804649Y-80776533D01*
X105804649Y-80776533D02*
X105837982Y-80643200D01*
X105837982Y-80643200D02*
X105837982Y-80409866D01*
X105837982Y-80409866D02*
X105804649Y-80276533D01*
X105804649Y-80276533D02*
X105737982Y-80209866D01*
X105737982Y-80209866D02*
X105671316Y-80176533D01*
X105104649Y-80676533D02*
X104771316Y-80676533D01*
X105171316Y-80876533D02*
X104937983Y-80176533D01*
X104937983Y-80176533D02*
X104704649Y-80876533D01*
X104071316Y-80876533D02*
X104304649Y-80543200D01*
X104471316Y-80876533D02*
X104471316Y-80176533D01*
X104471316Y-80176533D02*
X104204649Y-80176533D01*
X104204649Y-80176533D02*
X104137983Y-80209866D01*
X104137983Y-80209866D02*
X104104649Y-80243200D01*
X104104649Y-80243200D02*
X104071316Y-80309866D01*
X104071316Y-80309866D02*
X104071316Y-80409866D01*
X104071316Y-80409866D02*
X104104649Y-80476533D01*
X104104649Y-80476533D02*
X104137983Y-80509866D01*
X104137983Y-80509866D02*
X104204649Y-80543200D01*
X104204649Y-80543200D02*
X104471316Y-80543200D01*
X103771316Y-80876533D02*
X103771316Y-80176533D01*
X103771316Y-80176533D02*
X103604649Y-80176533D01*
X103604649Y-80176533D02*
X103504649Y-80209866D01*
X103504649Y-80209866D02*
X103437983Y-80276533D01*
X103437983Y-80276533D02*
X103404649Y-80343200D01*
X103404649Y-80343200D02*
X103371316Y-80476533D01*
X103371316Y-80476533D02*
X103371316Y-80576533D01*
X103371316Y-80576533D02*
X103404649Y-80709866D01*
X103404649Y-80709866D02*
X103437983Y-80776533D01*
X103437983Y-80776533D02*
X103504649Y-80843200D01*
X103504649Y-80843200D02*
X103604649Y-80876533D01*
X103604649Y-80876533D02*
X103771316Y-80876533D01*
X135299649Y-88297533D02*
X135299649Y-87597533D01*
X135299649Y-87597533D02*
X135032982Y-87597533D01*
X135032982Y-87597533D02*
X134966316Y-87630866D01*
X134966316Y-87630866D02*
X134932982Y-87664200D01*
X134932982Y-87664200D02*
X134899649Y-87730866D01*
X134899649Y-87730866D02*
X134899649Y-87830866D01*
X134899649Y-87830866D02*
X134932982Y-87897533D01*
X134932982Y-87897533D02*
X134966316Y-87930866D01*
X134966316Y-87930866D02*
X135032982Y-87964200D01*
X135032982Y-87964200D02*
X135299649Y-87964200D01*
X134632982Y-88097533D02*
X134299649Y-88097533D01*
X134699649Y-88297533D02*
X134466316Y-87597533D01*
X134466316Y-87597533D02*
X134232982Y-88297533D01*
X133999649Y-88297533D02*
X133999649Y-87597533D01*
X133999649Y-87597533D02*
X133599649Y-88297533D01*
X133599649Y-88297533D02*
X133599649Y-87597533D01*
X133266316Y-87930866D02*
X133032983Y-87930866D01*
X132932983Y-88297533D02*
X133266316Y-88297533D01*
X133266316Y-88297533D02*
X133266316Y-87597533D01*
X133266316Y-87597533D02*
X132932983Y-87597533D01*
X132299650Y-88297533D02*
X132632983Y-88297533D01*
X132632983Y-88297533D02*
X132632983Y-87597533D01*
X135299649Y-89424533D02*
X135299649Y-88724533D01*
X135299649Y-88724533D02*
X135066316Y-89224533D01*
X135066316Y-89224533D02*
X134832982Y-88724533D01*
X134832982Y-88724533D02*
X134832982Y-89424533D01*
X134366316Y-88724533D02*
X134232982Y-88724533D01*
X134232982Y-88724533D02*
X134166316Y-88757866D01*
X134166316Y-88757866D02*
X134099649Y-88824533D01*
X134099649Y-88824533D02*
X134066316Y-88957866D01*
X134066316Y-88957866D02*
X134066316Y-89191200D01*
X134066316Y-89191200D02*
X134099649Y-89324533D01*
X134099649Y-89324533D02*
X134166316Y-89391200D01*
X134166316Y-89391200D02*
X134232982Y-89424533D01*
X134232982Y-89424533D02*
X134366316Y-89424533D01*
X134366316Y-89424533D02*
X134432982Y-89391200D01*
X134432982Y-89391200D02*
X134499649Y-89324533D01*
X134499649Y-89324533D02*
X134532982Y-89191200D01*
X134532982Y-89191200D02*
X134532982Y-88957866D01*
X134532982Y-88957866D02*
X134499649Y-88824533D01*
X134499649Y-88824533D02*
X134432982Y-88757866D01*
X134432982Y-88757866D02*
X134366316Y-88724533D01*
X133766316Y-88724533D02*
X133766316Y-89291200D01*
X133766316Y-89291200D02*
X133732983Y-89357866D01*
X133732983Y-89357866D02*
X133699649Y-89391200D01*
X133699649Y-89391200D02*
X133632983Y-89424533D01*
X133632983Y-89424533D02*
X133499649Y-89424533D01*
X133499649Y-89424533D02*
X133432983Y-89391200D01*
X133432983Y-89391200D02*
X133399649Y-89357866D01*
X133399649Y-89357866D02*
X133366316Y-89291200D01*
X133366316Y-89291200D02*
X133366316Y-88724533D01*
X133032983Y-89424533D02*
X133032983Y-88724533D01*
X133032983Y-88724533D02*
X132632983Y-89424533D01*
X132632983Y-89424533D02*
X132632983Y-88724533D01*
X132399650Y-88724533D02*
X131999650Y-88724533D01*
X132199650Y-89424533D02*
X132199650Y-88724533D01*
X135166316Y-89851533D02*
X135032982Y-89851533D01*
X135032982Y-89851533D02*
X134966316Y-89884866D01*
X134966316Y-89884866D02*
X134899649Y-89951533D01*
X134899649Y-89951533D02*
X134866316Y-90084866D01*
X134866316Y-90084866D02*
X134866316Y-90318200D01*
X134866316Y-90318200D02*
X134899649Y-90451533D01*
X134899649Y-90451533D02*
X134966316Y-90518200D01*
X134966316Y-90518200D02*
X135032982Y-90551533D01*
X135032982Y-90551533D02*
X135166316Y-90551533D01*
X135166316Y-90551533D02*
X135232982Y-90518200D01*
X135232982Y-90518200D02*
X135299649Y-90451533D01*
X135299649Y-90451533D02*
X135332982Y-90318200D01*
X135332982Y-90318200D02*
X135332982Y-90084866D01*
X135332982Y-90084866D02*
X135299649Y-89951533D01*
X135299649Y-89951533D02*
X135232982Y-89884866D01*
X135232982Y-89884866D02*
X135166316Y-89851533D01*
X134232983Y-90551533D02*
X134566316Y-90551533D01*
X134566316Y-90551533D02*
X134566316Y-89851533D01*
X133999649Y-90184866D02*
X133766316Y-90184866D01*
X133666316Y-90551533D02*
X133999649Y-90551533D01*
X133999649Y-90551533D02*
X133999649Y-89851533D01*
X133999649Y-89851533D02*
X133666316Y-89851533D01*
X133366316Y-90551533D02*
X133366316Y-89851533D01*
X133366316Y-89851533D02*
X133199649Y-89851533D01*
X133199649Y-89851533D02*
X133099649Y-89884866D01*
X133099649Y-89884866D02*
X133032983Y-89951533D01*
X133032983Y-89951533D02*
X132999649Y-90018200D01*
X132999649Y-90018200D02*
X132966316Y-90151533D01*
X132966316Y-90151533D02*
X132966316Y-90251533D01*
X132966316Y-90251533D02*
X132999649Y-90384866D01*
X132999649Y-90384866D02*
X133032983Y-90451533D01*
X133032983Y-90451533D02*
X133099649Y-90518200D01*
X133099649Y-90518200D02*
X133199649Y-90551533D01*
X133199649Y-90551533D02*
X133366316Y-90551533D01*
D10*
X131720000Y-73670000D02*
X131720000Y-93770000D01*
X66020000Y-73670000D02*
X66020000Y-93770000D01*
D11*
X94867982Y-79724866D02*
X94934649Y-79691533D01*
X94934649Y-79691533D02*
X95034649Y-79691533D01*
X95034649Y-79691533D02*
X95134649Y-79724866D01*
X95134649Y-79724866D02*
X95201316Y-79791533D01*
X95201316Y-79791533D02*
X95234649Y-79858200D01*
X95234649Y-79858200D02*
X95267982Y-79991533D01*
X95267982Y-79991533D02*
X95267982Y-80091533D01*
X95267982Y-80091533D02*
X95234649Y-80224866D01*
X95234649Y-80224866D02*
X95201316Y-80291533D01*
X95201316Y-80291533D02*
X95134649Y-80358200D01*
X95134649Y-80358200D02*
X95034649Y-80391533D01*
X95034649Y-80391533D02*
X94967982Y-80391533D01*
X94967982Y-80391533D02*
X94867982Y-80358200D01*
X94867982Y-80358200D02*
X94834649Y-80324866D01*
X94834649Y-80324866D02*
X94834649Y-80091533D01*
X94834649Y-80091533D02*
X94967982Y-80091533D01*
X94534649Y-80391533D02*
X94534649Y-79691533D01*
X94534649Y-79691533D02*
X94134649Y-80391533D01*
X94134649Y-80391533D02*
X94134649Y-79691533D01*
X93801316Y-80391533D02*
X93801316Y-79691533D01*
X93801316Y-79691533D02*
X93634649Y-79691533D01*
X93634649Y-79691533D02*
X93534649Y-79724866D01*
X93534649Y-79724866D02*
X93467983Y-79791533D01*
X93467983Y-79791533D02*
X93434649Y-79858200D01*
X93434649Y-79858200D02*
X93401316Y-79991533D01*
X93401316Y-79991533D02*
X93401316Y-80091533D01*
X93401316Y-80091533D02*
X93434649Y-80224866D01*
X93434649Y-80224866D02*
X93467983Y-80291533D01*
X93467983Y-80291533D02*
X93534649Y-80358200D01*
X93534649Y-80358200D02*
X93634649Y-80391533D01*
X93634649Y-80391533D02*
X93801316Y-80391533D01*
X65804649Y-79749533D02*
X65804649Y-79049533D01*
X65804649Y-79049533D02*
X65637982Y-79049533D01*
X65637982Y-79049533D02*
X65537982Y-79082866D01*
X65537982Y-79082866D02*
X65471316Y-79149533D01*
X65471316Y-79149533D02*
X65437982Y-79216200D01*
X65437982Y-79216200D02*
X65404649Y-79349533D01*
X65404649Y-79349533D02*
X65404649Y-79449533D01*
X65404649Y-79449533D02*
X65437982Y-79582866D01*
X65437982Y-79582866D02*
X65471316Y-79649533D01*
X65471316Y-79649533D02*
X65537982Y-79716200D01*
X65537982Y-79716200D02*
X65637982Y-79749533D01*
X65637982Y-79749533D02*
X65804649Y-79749533D01*
X65104649Y-79749533D02*
X65104649Y-79049533D01*
X64804649Y-79716200D02*
X64704649Y-79749533D01*
X64704649Y-79749533D02*
X64537983Y-79749533D01*
X64537983Y-79749533D02*
X64471316Y-79716200D01*
X64471316Y-79716200D02*
X64437983Y-79682866D01*
X64437983Y-79682866D02*
X64404649Y-79616200D01*
X64404649Y-79616200D02*
X64404649Y-79549533D01*
X64404649Y-79549533D02*
X64437983Y-79482866D01*
X64437983Y-79482866D02*
X64471316Y-79449533D01*
X64471316Y-79449533D02*
X64537983Y-79416200D01*
X64537983Y-79416200D02*
X64671316Y-79382866D01*
X64671316Y-79382866D02*
X64737983Y-79349533D01*
X64737983Y-79349533D02*
X64771316Y-79316200D01*
X64771316Y-79316200D02*
X64804649Y-79249533D01*
X64804649Y-79249533D02*
X64804649Y-79182866D01*
X64804649Y-79182866D02*
X64771316Y-79116200D01*
X64771316Y-79116200D02*
X64737983Y-79082866D01*
X64737983Y-79082866D02*
X64671316Y-79049533D01*
X64671316Y-79049533D02*
X64504649Y-79049533D01*
X64504649Y-79049533D02*
X64404649Y-79082866D01*
X64104649Y-79749533D02*
X64104649Y-79049533D01*
X64104649Y-79049533D02*
X63837982Y-79049533D01*
X63837982Y-79049533D02*
X63771316Y-79082866D01*
X63771316Y-79082866D02*
X63737982Y-79116200D01*
X63737982Y-79116200D02*
X63704649Y-79182866D01*
X63704649Y-79182866D02*
X63704649Y-79282866D01*
X63704649Y-79282866D02*
X63737982Y-79349533D01*
X63737982Y-79349533D02*
X63771316Y-79382866D01*
X63771316Y-79382866D02*
X63837982Y-79416200D01*
X63837982Y-79416200D02*
X64104649Y-79416200D01*
X63071316Y-79749533D02*
X63404649Y-79749533D01*
X63404649Y-79749533D02*
X63404649Y-79049533D01*
X62871315Y-79549533D02*
X62537982Y-79549533D01*
X62937982Y-79749533D02*
X62704649Y-79049533D01*
X62704649Y-79049533D02*
X62471315Y-79749533D01*
X62104649Y-79416200D02*
X62104649Y-79749533D01*
X62337982Y-79049533D02*
X62104649Y-79416200D01*
X62104649Y-79416200D02*
X61871315Y-79049533D01*
X65571316Y-80509866D02*
X65471316Y-80543200D01*
X65471316Y-80543200D02*
X65437982Y-80576533D01*
X65437982Y-80576533D02*
X65404649Y-80643200D01*
X65404649Y-80643200D02*
X65404649Y-80743200D01*
X65404649Y-80743200D02*
X65437982Y-80809866D01*
X65437982Y-80809866D02*
X65471316Y-80843200D01*
X65471316Y-80843200D02*
X65537982Y-80876533D01*
X65537982Y-80876533D02*
X65804649Y-80876533D01*
X65804649Y-80876533D02*
X65804649Y-80176533D01*
X65804649Y-80176533D02*
X65571316Y-80176533D01*
X65571316Y-80176533D02*
X65504649Y-80209866D01*
X65504649Y-80209866D02*
X65471316Y-80243200D01*
X65471316Y-80243200D02*
X65437982Y-80309866D01*
X65437982Y-80309866D02*
X65437982Y-80376533D01*
X65437982Y-80376533D02*
X65471316Y-80443200D01*
X65471316Y-80443200D02*
X65504649Y-80476533D01*
X65504649Y-80476533D02*
X65571316Y-80509866D01*
X65571316Y-80509866D02*
X65804649Y-80509866D01*
X64971316Y-80176533D02*
X64837982Y-80176533D01*
X64837982Y-80176533D02*
X64771316Y-80209866D01*
X64771316Y-80209866D02*
X64704649Y-80276533D01*
X64704649Y-80276533D02*
X64671316Y-80409866D01*
X64671316Y-80409866D02*
X64671316Y-80643200D01*
X64671316Y-80643200D02*
X64704649Y-80776533D01*
X64704649Y-80776533D02*
X64771316Y-80843200D01*
X64771316Y-80843200D02*
X64837982Y-80876533D01*
X64837982Y-80876533D02*
X64971316Y-80876533D01*
X64971316Y-80876533D02*
X65037982Y-80843200D01*
X65037982Y-80843200D02*
X65104649Y-80776533D01*
X65104649Y-80776533D02*
X65137982Y-80643200D01*
X65137982Y-80643200D02*
X65137982Y-80409866D01*
X65137982Y-80409866D02*
X65104649Y-80276533D01*
X65104649Y-80276533D02*
X65037982Y-80209866D01*
X65037982Y-80209866D02*
X64971316Y-80176533D01*
X64404649Y-80676533D02*
X64071316Y-80676533D01*
X64471316Y-80876533D02*
X64237983Y-80176533D01*
X64237983Y-80176533D02*
X64004649Y-80876533D01*
X63371316Y-80876533D02*
X63604649Y-80543200D01*
X63771316Y-80876533D02*
X63771316Y-80176533D01*
X63771316Y-80176533D02*
X63504649Y-80176533D01*
X63504649Y-80176533D02*
X63437983Y-80209866D01*
X63437983Y-80209866D02*
X63404649Y-80243200D01*
X63404649Y-80243200D02*
X63371316Y-80309866D01*
X63371316Y-80309866D02*
X63371316Y-80409866D01*
X63371316Y-80409866D02*
X63404649Y-80476533D01*
X63404649Y-80476533D02*
X63437983Y-80509866D01*
X63437983Y-80509866D02*
X63504649Y-80543200D01*
X63504649Y-80543200D02*
X63771316Y-80543200D01*
X63071316Y-80876533D02*
X63071316Y-80176533D01*
X63071316Y-80176533D02*
X62904649Y-80176533D01*
X62904649Y-80176533D02*
X62804649Y-80209866D01*
X62804649Y-80209866D02*
X62737983Y-80276533D01*
X62737983Y-80276533D02*
X62704649Y-80343200D01*
X62704649Y-80343200D02*
X62671316Y-80476533D01*
X62671316Y-80476533D02*
X62671316Y-80576533D01*
X62671316Y-80576533D02*
X62704649Y-80709866D01*
X62704649Y-80709866D02*
X62737983Y-80776533D01*
X62737983Y-80776533D02*
X62804649Y-80843200D01*
X62804649Y-80843200D02*
X62904649Y-80876533D01*
X62904649Y-80876533D02*
X63071316Y-80876533D01*
X94599649Y-88297533D02*
X94599649Y-87597533D01*
X94599649Y-87597533D02*
X94332982Y-87597533D01*
X94332982Y-87597533D02*
X94266316Y-87630866D01*
X94266316Y-87630866D02*
X94232982Y-87664200D01*
X94232982Y-87664200D02*
X94199649Y-87730866D01*
X94199649Y-87730866D02*
X94199649Y-87830866D01*
X94199649Y-87830866D02*
X94232982Y-87897533D01*
X94232982Y-87897533D02*
X94266316Y-87930866D01*
X94266316Y-87930866D02*
X94332982Y-87964200D01*
X94332982Y-87964200D02*
X94599649Y-87964200D01*
X93932982Y-88097533D02*
X93599649Y-88097533D01*
X93999649Y-88297533D02*
X93766316Y-87597533D01*
X93766316Y-87597533D02*
X93532982Y-88297533D01*
X93299649Y-88297533D02*
X93299649Y-87597533D01*
X93299649Y-87597533D02*
X92899649Y-88297533D01*
X92899649Y-88297533D02*
X92899649Y-87597533D01*
X92566316Y-87930866D02*
X92332983Y-87930866D01*
X92232983Y-88297533D02*
X92566316Y-88297533D01*
X92566316Y-88297533D02*
X92566316Y-87597533D01*
X92566316Y-87597533D02*
X92232983Y-87597533D01*
X91599650Y-88297533D02*
X91932983Y-88297533D01*
X91932983Y-88297533D02*
X91932983Y-87597533D01*
X94599649Y-89424533D02*
X94599649Y-88724533D01*
X94599649Y-88724533D02*
X94366316Y-89224533D01*
X94366316Y-89224533D02*
X94132982Y-88724533D01*
X94132982Y-88724533D02*
X94132982Y-89424533D01*
X93666316Y-88724533D02*
X93532982Y-88724533D01*
X93532982Y-88724533D02*
X93466316Y-88757866D01*
X93466316Y-88757866D02*
X93399649Y-88824533D01*
X93399649Y-88824533D02*
X93366316Y-88957866D01*
X93366316Y-88957866D02*
X93366316Y-89191200D01*
X93366316Y-89191200D02*
X93399649Y-89324533D01*
X93399649Y-89324533D02*
X93466316Y-89391200D01*
X93466316Y-89391200D02*
X93532982Y-89424533D01*
X93532982Y-89424533D02*
X93666316Y-89424533D01*
X93666316Y-89424533D02*
X93732982Y-89391200D01*
X93732982Y-89391200D02*
X93799649Y-89324533D01*
X93799649Y-89324533D02*
X93832982Y-89191200D01*
X93832982Y-89191200D02*
X93832982Y-88957866D01*
X93832982Y-88957866D02*
X93799649Y-88824533D01*
X93799649Y-88824533D02*
X93732982Y-88757866D01*
X93732982Y-88757866D02*
X93666316Y-88724533D01*
X93066316Y-88724533D02*
X93066316Y-89291200D01*
X93066316Y-89291200D02*
X93032983Y-89357866D01*
X93032983Y-89357866D02*
X92999649Y-89391200D01*
X92999649Y-89391200D02*
X92932983Y-89424533D01*
X92932983Y-89424533D02*
X92799649Y-89424533D01*
X92799649Y-89424533D02*
X92732983Y-89391200D01*
X92732983Y-89391200D02*
X92699649Y-89357866D01*
X92699649Y-89357866D02*
X92666316Y-89291200D01*
X92666316Y-89291200D02*
X92666316Y-88724533D01*
X92332983Y-89424533D02*
X92332983Y-88724533D01*
X92332983Y-88724533D02*
X91932983Y-89424533D01*
X91932983Y-89424533D02*
X91932983Y-88724533D01*
X91699650Y-88724533D02*
X91299650Y-88724533D01*
X91499650Y-89424533D02*
X91499650Y-88724533D01*
X94466316Y-89851533D02*
X94332982Y-89851533D01*
X94332982Y-89851533D02*
X94266316Y-89884866D01*
X94266316Y-89884866D02*
X94199649Y-89951533D01*
X94199649Y-89951533D02*
X94166316Y-90084866D01*
X94166316Y-90084866D02*
X94166316Y-90318200D01*
X94166316Y-90318200D02*
X94199649Y-90451533D01*
X94199649Y-90451533D02*
X94266316Y-90518200D01*
X94266316Y-90518200D02*
X94332982Y-90551533D01*
X94332982Y-90551533D02*
X94466316Y-90551533D01*
X94466316Y-90551533D02*
X94532982Y-90518200D01*
X94532982Y-90518200D02*
X94599649Y-90451533D01*
X94599649Y-90451533D02*
X94632982Y-90318200D01*
X94632982Y-90318200D02*
X94632982Y-90084866D01*
X94632982Y-90084866D02*
X94599649Y-89951533D01*
X94599649Y-89951533D02*
X94532982Y-89884866D01*
X94532982Y-89884866D02*
X94466316Y-89851533D01*
X93532983Y-90551533D02*
X93866316Y-90551533D01*
X93866316Y-90551533D02*
X93866316Y-89851533D01*
X93299649Y-90184866D02*
X93066316Y-90184866D01*
X92966316Y-90551533D02*
X93299649Y-90551533D01*
X93299649Y-90551533D02*
X93299649Y-89851533D01*
X93299649Y-89851533D02*
X92966316Y-89851533D01*
X92666316Y-90551533D02*
X92666316Y-89851533D01*
X92666316Y-89851533D02*
X92499649Y-89851533D01*
X92499649Y-89851533D02*
X92399649Y-89884866D01*
X92399649Y-89884866D02*
X92332983Y-89951533D01*
X92332983Y-89951533D02*
X92299649Y-90018200D01*
X92299649Y-90018200D02*
X92266316Y-90151533D01*
X92266316Y-90151533D02*
X92266316Y-90251533D01*
X92266316Y-90251533D02*
X92299649Y-90384866D01*
X92299649Y-90384866D02*
X92332983Y-90451533D01*
X92332983Y-90451533D02*
X92399649Y-90518200D01*
X92399649Y-90518200D02*
X92499649Y-90551533D01*
X92499649Y-90551533D02*
X92666316Y-90551533D01*
D10*
X91020000Y-73670000D02*
X91020000Y-93770000D01*
X106720000Y-52570000D02*
X106720000Y-72670000D01*
D11*
X135567982Y-58624866D02*
X135634649Y-58591533D01*
X135634649Y-58591533D02*
X135734649Y-58591533D01*
X135734649Y-58591533D02*
X135834649Y-58624866D01*
X135834649Y-58624866D02*
X135901316Y-58691533D01*
X135901316Y-58691533D02*
X135934649Y-58758200D01*
X135934649Y-58758200D02*
X135967982Y-58891533D01*
X135967982Y-58891533D02*
X135967982Y-58991533D01*
X135967982Y-58991533D02*
X135934649Y-59124866D01*
X135934649Y-59124866D02*
X135901316Y-59191533D01*
X135901316Y-59191533D02*
X135834649Y-59258200D01*
X135834649Y-59258200D02*
X135734649Y-59291533D01*
X135734649Y-59291533D02*
X135667982Y-59291533D01*
X135667982Y-59291533D02*
X135567982Y-59258200D01*
X135567982Y-59258200D02*
X135534649Y-59224866D01*
X135534649Y-59224866D02*
X135534649Y-58991533D01*
X135534649Y-58991533D02*
X135667982Y-58991533D01*
X135234649Y-59291533D02*
X135234649Y-58591533D01*
X135234649Y-58591533D02*
X134834649Y-59291533D01*
X134834649Y-59291533D02*
X134834649Y-58591533D01*
X134501316Y-59291533D02*
X134501316Y-58591533D01*
X134501316Y-58591533D02*
X134334649Y-58591533D01*
X134334649Y-58591533D02*
X134234649Y-58624866D01*
X134234649Y-58624866D02*
X134167983Y-58691533D01*
X134167983Y-58691533D02*
X134134649Y-58758200D01*
X134134649Y-58758200D02*
X134101316Y-58891533D01*
X134101316Y-58891533D02*
X134101316Y-58991533D01*
X134101316Y-58991533D02*
X134134649Y-59124866D01*
X134134649Y-59124866D02*
X134167983Y-59191533D01*
X134167983Y-59191533D02*
X134234649Y-59258200D01*
X134234649Y-59258200D02*
X134334649Y-59291533D01*
X134334649Y-59291533D02*
X134501316Y-59291533D01*
X106504649Y-58649533D02*
X106504649Y-57949533D01*
X106504649Y-57949533D02*
X106337982Y-57949533D01*
X106337982Y-57949533D02*
X106237982Y-57982866D01*
X106237982Y-57982866D02*
X106171316Y-58049533D01*
X106171316Y-58049533D02*
X106137982Y-58116200D01*
X106137982Y-58116200D02*
X106104649Y-58249533D01*
X106104649Y-58249533D02*
X106104649Y-58349533D01*
X106104649Y-58349533D02*
X106137982Y-58482866D01*
X106137982Y-58482866D02*
X106171316Y-58549533D01*
X106171316Y-58549533D02*
X106237982Y-58616200D01*
X106237982Y-58616200D02*
X106337982Y-58649533D01*
X106337982Y-58649533D02*
X106504649Y-58649533D01*
X105804649Y-58649533D02*
X105804649Y-57949533D01*
X105504649Y-58616200D02*
X105404649Y-58649533D01*
X105404649Y-58649533D02*
X105237983Y-58649533D01*
X105237983Y-58649533D02*
X105171316Y-58616200D01*
X105171316Y-58616200D02*
X105137983Y-58582866D01*
X105137983Y-58582866D02*
X105104649Y-58516200D01*
X105104649Y-58516200D02*
X105104649Y-58449533D01*
X105104649Y-58449533D02*
X105137983Y-58382866D01*
X105137983Y-58382866D02*
X105171316Y-58349533D01*
X105171316Y-58349533D02*
X105237983Y-58316200D01*
X105237983Y-58316200D02*
X105371316Y-58282866D01*
X105371316Y-58282866D02*
X105437983Y-58249533D01*
X105437983Y-58249533D02*
X105471316Y-58216200D01*
X105471316Y-58216200D02*
X105504649Y-58149533D01*
X105504649Y-58149533D02*
X105504649Y-58082866D01*
X105504649Y-58082866D02*
X105471316Y-58016200D01*
X105471316Y-58016200D02*
X105437983Y-57982866D01*
X105437983Y-57982866D02*
X105371316Y-57949533D01*
X105371316Y-57949533D02*
X105204649Y-57949533D01*
X105204649Y-57949533D02*
X105104649Y-57982866D01*
X104804649Y-58649533D02*
X104804649Y-57949533D01*
X104804649Y-57949533D02*
X104537982Y-57949533D01*
X104537982Y-57949533D02*
X104471316Y-57982866D01*
X104471316Y-57982866D02*
X104437982Y-58016200D01*
X104437982Y-58016200D02*
X104404649Y-58082866D01*
X104404649Y-58082866D02*
X104404649Y-58182866D01*
X104404649Y-58182866D02*
X104437982Y-58249533D01*
X104437982Y-58249533D02*
X104471316Y-58282866D01*
X104471316Y-58282866D02*
X104537982Y-58316200D01*
X104537982Y-58316200D02*
X104804649Y-58316200D01*
X103771316Y-58649533D02*
X104104649Y-58649533D01*
X104104649Y-58649533D02*
X104104649Y-57949533D01*
X103571315Y-58449533D02*
X103237982Y-58449533D01*
X103637982Y-58649533D02*
X103404649Y-57949533D01*
X103404649Y-57949533D02*
X103171315Y-58649533D01*
X102804649Y-58316200D02*
X102804649Y-58649533D01*
X103037982Y-57949533D02*
X102804649Y-58316200D01*
X102804649Y-58316200D02*
X102571315Y-57949533D01*
X106271316Y-59409866D02*
X106171316Y-59443200D01*
X106171316Y-59443200D02*
X106137982Y-59476533D01*
X106137982Y-59476533D02*
X106104649Y-59543200D01*
X106104649Y-59543200D02*
X106104649Y-59643200D01*
X106104649Y-59643200D02*
X106137982Y-59709866D01*
X106137982Y-59709866D02*
X106171316Y-59743200D01*
X106171316Y-59743200D02*
X106237982Y-59776533D01*
X106237982Y-59776533D02*
X106504649Y-59776533D01*
X106504649Y-59776533D02*
X106504649Y-59076533D01*
X106504649Y-59076533D02*
X106271316Y-59076533D01*
X106271316Y-59076533D02*
X106204649Y-59109866D01*
X106204649Y-59109866D02*
X106171316Y-59143200D01*
X106171316Y-59143200D02*
X106137982Y-59209866D01*
X106137982Y-59209866D02*
X106137982Y-59276533D01*
X106137982Y-59276533D02*
X106171316Y-59343200D01*
X106171316Y-59343200D02*
X106204649Y-59376533D01*
X106204649Y-59376533D02*
X106271316Y-59409866D01*
X106271316Y-59409866D02*
X106504649Y-59409866D01*
X105671316Y-59076533D02*
X105537982Y-59076533D01*
X105537982Y-59076533D02*
X105471316Y-59109866D01*
X105471316Y-59109866D02*
X105404649Y-59176533D01*
X105404649Y-59176533D02*
X105371316Y-59309866D01*
X105371316Y-59309866D02*
X105371316Y-59543200D01*
X105371316Y-59543200D02*
X105404649Y-59676533D01*
X105404649Y-59676533D02*
X105471316Y-59743200D01*
X105471316Y-59743200D02*
X105537982Y-59776533D01*
X105537982Y-59776533D02*
X105671316Y-59776533D01*
X105671316Y-59776533D02*
X105737982Y-59743200D01*
X105737982Y-59743200D02*
X105804649Y-59676533D01*
X105804649Y-59676533D02*
X105837982Y-59543200D01*
X105837982Y-59543200D02*
X105837982Y-59309866D01*
X105837982Y-59309866D02*
X105804649Y-59176533D01*
X105804649Y-59176533D02*
X105737982Y-59109866D01*
X105737982Y-59109866D02*
X105671316Y-59076533D01*
X105104649Y-59576533D02*
X104771316Y-59576533D01*
X105171316Y-59776533D02*
X104937983Y-59076533D01*
X104937983Y-59076533D02*
X104704649Y-59776533D01*
X104071316Y-59776533D02*
X104304649Y-59443200D01*
X104471316Y-59776533D02*
X104471316Y-59076533D01*
X104471316Y-59076533D02*
X104204649Y-59076533D01*
X104204649Y-59076533D02*
X104137983Y-59109866D01*
X104137983Y-59109866D02*
X104104649Y-59143200D01*
X104104649Y-59143200D02*
X104071316Y-59209866D01*
X104071316Y-59209866D02*
X104071316Y-59309866D01*
X104071316Y-59309866D02*
X104104649Y-59376533D01*
X104104649Y-59376533D02*
X104137983Y-59409866D01*
X104137983Y-59409866D02*
X104204649Y-59443200D01*
X104204649Y-59443200D02*
X104471316Y-59443200D01*
X103771316Y-59776533D02*
X103771316Y-59076533D01*
X103771316Y-59076533D02*
X103604649Y-59076533D01*
X103604649Y-59076533D02*
X103504649Y-59109866D01*
X103504649Y-59109866D02*
X103437983Y-59176533D01*
X103437983Y-59176533D02*
X103404649Y-59243200D01*
X103404649Y-59243200D02*
X103371316Y-59376533D01*
X103371316Y-59376533D02*
X103371316Y-59476533D01*
X103371316Y-59476533D02*
X103404649Y-59609866D01*
X103404649Y-59609866D02*
X103437983Y-59676533D01*
X103437983Y-59676533D02*
X103504649Y-59743200D01*
X103504649Y-59743200D02*
X103604649Y-59776533D01*
X103604649Y-59776533D02*
X103771316Y-59776533D01*
X135299649Y-67197533D02*
X135299649Y-66497533D01*
X135299649Y-66497533D02*
X135032982Y-66497533D01*
X135032982Y-66497533D02*
X134966316Y-66530866D01*
X134966316Y-66530866D02*
X134932982Y-66564200D01*
X134932982Y-66564200D02*
X134899649Y-66630866D01*
X134899649Y-66630866D02*
X134899649Y-66730866D01*
X134899649Y-66730866D02*
X134932982Y-66797533D01*
X134932982Y-66797533D02*
X134966316Y-66830866D01*
X134966316Y-66830866D02*
X135032982Y-66864200D01*
X135032982Y-66864200D02*
X135299649Y-66864200D01*
X134632982Y-66997533D02*
X134299649Y-66997533D01*
X134699649Y-67197533D02*
X134466316Y-66497533D01*
X134466316Y-66497533D02*
X134232982Y-67197533D01*
X133999649Y-67197533D02*
X133999649Y-66497533D01*
X133999649Y-66497533D02*
X133599649Y-67197533D01*
X133599649Y-67197533D02*
X133599649Y-66497533D01*
X133266316Y-66830866D02*
X133032983Y-66830866D01*
X132932983Y-67197533D02*
X133266316Y-67197533D01*
X133266316Y-67197533D02*
X133266316Y-66497533D01*
X133266316Y-66497533D02*
X132932983Y-66497533D01*
X132299650Y-67197533D02*
X132632983Y-67197533D01*
X132632983Y-67197533D02*
X132632983Y-66497533D01*
X135299649Y-68324533D02*
X135299649Y-67624533D01*
X135299649Y-67624533D02*
X135066316Y-68124533D01*
X135066316Y-68124533D02*
X134832982Y-67624533D01*
X134832982Y-67624533D02*
X134832982Y-68324533D01*
X134366316Y-67624533D02*
X134232982Y-67624533D01*
X134232982Y-67624533D02*
X134166316Y-67657866D01*
X134166316Y-67657866D02*
X134099649Y-67724533D01*
X134099649Y-67724533D02*
X134066316Y-67857866D01*
X134066316Y-67857866D02*
X134066316Y-68091200D01*
X134066316Y-68091200D02*
X134099649Y-68224533D01*
X134099649Y-68224533D02*
X134166316Y-68291200D01*
X134166316Y-68291200D02*
X134232982Y-68324533D01*
X134232982Y-68324533D02*
X134366316Y-68324533D01*
X134366316Y-68324533D02*
X134432982Y-68291200D01*
X134432982Y-68291200D02*
X134499649Y-68224533D01*
X134499649Y-68224533D02*
X134532982Y-68091200D01*
X134532982Y-68091200D02*
X134532982Y-67857866D01*
X134532982Y-67857866D02*
X134499649Y-67724533D01*
X134499649Y-67724533D02*
X134432982Y-67657866D01*
X134432982Y-67657866D02*
X134366316Y-67624533D01*
X133766316Y-67624533D02*
X133766316Y-68191200D01*
X133766316Y-68191200D02*
X133732983Y-68257866D01*
X133732983Y-68257866D02*
X133699649Y-68291200D01*
X133699649Y-68291200D02*
X133632983Y-68324533D01*
X133632983Y-68324533D02*
X133499649Y-68324533D01*
X133499649Y-68324533D02*
X133432983Y-68291200D01*
X133432983Y-68291200D02*
X133399649Y-68257866D01*
X133399649Y-68257866D02*
X133366316Y-68191200D01*
X133366316Y-68191200D02*
X133366316Y-67624533D01*
X133032983Y-68324533D02*
X133032983Y-67624533D01*
X133032983Y-67624533D02*
X132632983Y-68324533D01*
X132632983Y-68324533D02*
X132632983Y-67624533D01*
X132399650Y-67624533D02*
X131999650Y-67624533D01*
X132199650Y-68324533D02*
X132199650Y-67624533D01*
X135166316Y-68751533D02*
X135032982Y-68751533D01*
X135032982Y-68751533D02*
X134966316Y-68784866D01*
X134966316Y-68784866D02*
X134899649Y-68851533D01*
X134899649Y-68851533D02*
X134866316Y-68984866D01*
X134866316Y-68984866D02*
X134866316Y-69218200D01*
X134866316Y-69218200D02*
X134899649Y-69351533D01*
X134899649Y-69351533D02*
X134966316Y-69418200D01*
X134966316Y-69418200D02*
X135032982Y-69451533D01*
X135032982Y-69451533D02*
X135166316Y-69451533D01*
X135166316Y-69451533D02*
X135232982Y-69418200D01*
X135232982Y-69418200D02*
X135299649Y-69351533D01*
X135299649Y-69351533D02*
X135332982Y-69218200D01*
X135332982Y-69218200D02*
X135332982Y-68984866D01*
X135332982Y-68984866D02*
X135299649Y-68851533D01*
X135299649Y-68851533D02*
X135232982Y-68784866D01*
X135232982Y-68784866D02*
X135166316Y-68751533D01*
X134232983Y-69451533D02*
X134566316Y-69451533D01*
X134566316Y-69451533D02*
X134566316Y-68751533D01*
X133999649Y-69084866D02*
X133766316Y-69084866D01*
X133666316Y-69451533D02*
X133999649Y-69451533D01*
X133999649Y-69451533D02*
X133999649Y-68751533D01*
X133999649Y-68751533D02*
X133666316Y-68751533D01*
X133366316Y-69451533D02*
X133366316Y-68751533D01*
X133366316Y-68751533D02*
X133199649Y-68751533D01*
X133199649Y-68751533D02*
X133099649Y-68784866D01*
X133099649Y-68784866D02*
X133032983Y-68851533D01*
X133032983Y-68851533D02*
X132999649Y-68918200D01*
X132999649Y-68918200D02*
X132966316Y-69051533D01*
X132966316Y-69051533D02*
X132966316Y-69151533D01*
X132966316Y-69151533D02*
X132999649Y-69284866D01*
X132999649Y-69284866D02*
X133032983Y-69351533D01*
X133032983Y-69351533D02*
X133099649Y-69418200D01*
X133099649Y-69418200D02*
X133199649Y-69451533D01*
X133199649Y-69451533D02*
X133366316Y-69451533D01*
D10*
X131720000Y-52570000D02*
X131720000Y-72670000D01*
X91020000Y-52570000D02*
X91020000Y-72670000D01*
X66020000Y-52570000D02*
X66020000Y-72670000D01*
D11*
X94599649Y-67197533D02*
X94599649Y-66497533D01*
X94599649Y-66497533D02*
X94332982Y-66497533D01*
X94332982Y-66497533D02*
X94266316Y-66530866D01*
X94266316Y-66530866D02*
X94232982Y-66564200D01*
X94232982Y-66564200D02*
X94199649Y-66630866D01*
X94199649Y-66630866D02*
X94199649Y-66730866D01*
X94199649Y-66730866D02*
X94232982Y-66797533D01*
X94232982Y-66797533D02*
X94266316Y-66830866D01*
X94266316Y-66830866D02*
X94332982Y-66864200D01*
X94332982Y-66864200D02*
X94599649Y-66864200D01*
X93932982Y-66997533D02*
X93599649Y-66997533D01*
X93999649Y-67197533D02*
X93766316Y-66497533D01*
X93766316Y-66497533D02*
X93532982Y-67197533D01*
X93299649Y-67197533D02*
X93299649Y-66497533D01*
X93299649Y-66497533D02*
X92899649Y-67197533D01*
X92899649Y-67197533D02*
X92899649Y-66497533D01*
X92566316Y-66830866D02*
X92332983Y-66830866D01*
X92232983Y-67197533D02*
X92566316Y-67197533D01*
X92566316Y-67197533D02*
X92566316Y-66497533D01*
X92566316Y-66497533D02*
X92232983Y-66497533D01*
X91599650Y-67197533D02*
X91932983Y-67197533D01*
X91932983Y-67197533D02*
X91932983Y-66497533D01*
X94599649Y-68324533D02*
X94599649Y-67624533D01*
X94599649Y-67624533D02*
X94366316Y-68124533D01*
X94366316Y-68124533D02*
X94132982Y-67624533D01*
X94132982Y-67624533D02*
X94132982Y-68324533D01*
X93666316Y-67624533D02*
X93532982Y-67624533D01*
X93532982Y-67624533D02*
X93466316Y-67657866D01*
X93466316Y-67657866D02*
X93399649Y-67724533D01*
X93399649Y-67724533D02*
X93366316Y-67857866D01*
X93366316Y-67857866D02*
X93366316Y-68091200D01*
X93366316Y-68091200D02*
X93399649Y-68224533D01*
X93399649Y-68224533D02*
X93466316Y-68291200D01*
X93466316Y-68291200D02*
X93532982Y-68324533D01*
X93532982Y-68324533D02*
X93666316Y-68324533D01*
X93666316Y-68324533D02*
X93732982Y-68291200D01*
X93732982Y-68291200D02*
X93799649Y-68224533D01*
X93799649Y-68224533D02*
X93832982Y-68091200D01*
X93832982Y-68091200D02*
X93832982Y-67857866D01*
X93832982Y-67857866D02*
X93799649Y-67724533D01*
X93799649Y-67724533D02*
X93732982Y-67657866D01*
X93732982Y-67657866D02*
X93666316Y-67624533D01*
X93066316Y-67624533D02*
X93066316Y-68191200D01*
X93066316Y-68191200D02*
X93032983Y-68257866D01*
X93032983Y-68257866D02*
X92999649Y-68291200D01*
X92999649Y-68291200D02*
X92932983Y-68324533D01*
X92932983Y-68324533D02*
X92799649Y-68324533D01*
X92799649Y-68324533D02*
X92732983Y-68291200D01*
X92732983Y-68291200D02*
X92699649Y-68257866D01*
X92699649Y-68257866D02*
X92666316Y-68191200D01*
X92666316Y-68191200D02*
X92666316Y-67624533D01*
X92332983Y-68324533D02*
X92332983Y-67624533D01*
X92332983Y-67624533D02*
X91932983Y-68324533D01*
X91932983Y-68324533D02*
X91932983Y-67624533D01*
X91699650Y-67624533D02*
X91299650Y-67624533D01*
X91499650Y-68324533D02*
X91499650Y-67624533D01*
X94466316Y-68751533D02*
X94332982Y-68751533D01*
X94332982Y-68751533D02*
X94266316Y-68784866D01*
X94266316Y-68784866D02*
X94199649Y-68851533D01*
X94199649Y-68851533D02*
X94166316Y-68984866D01*
X94166316Y-68984866D02*
X94166316Y-69218200D01*
X94166316Y-69218200D02*
X94199649Y-69351533D01*
X94199649Y-69351533D02*
X94266316Y-69418200D01*
X94266316Y-69418200D02*
X94332982Y-69451533D01*
X94332982Y-69451533D02*
X94466316Y-69451533D01*
X94466316Y-69451533D02*
X94532982Y-69418200D01*
X94532982Y-69418200D02*
X94599649Y-69351533D01*
X94599649Y-69351533D02*
X94632982Y-69218200D01*
X94632982Y-69218200D02*
X94632982Y-68984866D01*
X94632982Y-68984866D02*
X94599649Y-68851533D01*
X94599649Y-68851533D02*
X94532982Y-68784866D01*
X94532982Y-68784866D02*
X94466316Y-68751533D01*
X93532983Y-69451533D02*
X93866316Y-69451533D01*
X93866316Y-69451533D02*
X93866316Y-68751533D01*
X93299649Y-69084866D02*
X93066316Y-69084866D01*
X92966316Y-69451533D02*
X93299649Y-69451533D01*
X93299649Y-69451533D02*
X93299649Y-68751533D01*
X93299649Y-68751533D02*
X92966316Y-68751533D01*
X92666316Y-69451533D02*
X92666316Y-68751533D01*
X92666316Y-68751533D02*
X92499649Y-68751533D01*
X92499649Y-68751533D02*
X92399649Y-68784866D01*
X92399649Y-68784866D02*
X92332983Y-68851533D01*
X92332983Y-68851533D02*
X92299649Y-68918200D01*
X92299649Y-68918200D02*
X92266316Y-69051533D01*
X92266316Y-69051533D02*
X92266316Y-69151533D01*
X92266316Y-69151533D02*
X92299649Y-69284866D01*
X92299649Y-69284866D02*
X92332983Y-69351533D01*
X92332983Y-69351533D02*
X92399649Y-69418200D01*
X92399649Y-69418200D02*
X92499649Y-69451533D01*
X92499649Y-69451533D02*
X92666316Y-69451533D01*
X94867982Y-58624866D02*
X94934649Y-58591533D01*
X94934649Y-58591533D02*
X95034649Y-58591533D01*
X95034649Y-58591533D02*
X95134649Y-58624866D01*
X95134649Y-58624866D02*
X95201316Y-58691533D01*
X95201316Y-58691533D02*
X95234649Y-58758200D01*
X95234649Y-58758200D02*
X95267982Y-58891533D01*
X95267982Y-58891533D02*
X95267982Y-58991533D01*
X95267982Y-58991533D02*
X95234649Y-59124866D01*
X95234649Y-59124866D02*
X95201316Y-59191533D01*
X95201316Y-59191533D02*
X95134649Y-59258200D01*
X95134649Y-59258200D02*
X95034649Y-59291533D01*
X95034649Y-59291533D02*
X94967982Y-59291533D01*
X94967982Y-59291533D02*
X94867982Y-59258200D01*
X94867982Y-59258200D02*
X94834649Y-59224866D01*
X94834649Y-59224866D02*
X94834649Y-58991533D01*
X94834649Y-58991533D02*
X94967982Y-58991533D01*
X94534649Y-59291533D02*
X94534649Y-58591533D01*
X94534649Y-58591533D02*
X94134649Y-59291533D01*
X94134649Y-59291533D02*
X94134649Y-58591533D01*
X93801316Y-59291533D02*
X93801316Y-58591533D01*
X93801316Y-58591533D02*
X93634649Y-58591533D01*
X93634649Y-58591533D02*
X93534649Y-58624866D01*
X93534649Y-58624866D02*
X93467983Y-58691533D01*
X93467983Y-58691533D02*
X93434649Y-58758200D01*
X93434649Y-58758200D02*
X93401316Y-58891533D01*
X93401316Y-58891533D02*
X93401316Y-58991533D01*
X93401316Y-58991533D02*
X93434649Y-59124866D01*
X93434649Y-59124866D02*
X93467983Y-59191533D01*
X93467983Y-59191533D02*
X93534649Y-59258200D01*
X93534649Y-59258200D02*
X93634649Y-59291533D01*
X93634649Y-59291533D02*
X93801316Y-59291533D01*
X65804649Y-58649533D02*
X65804649Y-57949533D01*
X65804649Y-57949533D02*
X65637982Y-57949533D01*
X65637982Y-57949533D02*
X65537982Y-57982866D01*
X65537982Y-57982866D02*
X65471316Y-58049533D01*
X65471316Y-58049533D02*
X65437982Y-58116200D01*
X65437982Y-58116200D02*
X65404649Y-58249533D01*
X65404649Y-58249533D02*
X65404649Y-58349533D01*
X65404649Y-58349533D02*
X65437982Y-58482866D01*
X65437982Y-58482866D02*
X65471316Y-58549533D01*
X65471316Y-58549533D02*
X65537982Y-58616200D01*
X65537982Y-58616200D02*
X65637982Y-58649533D01*
X65637982Y-58649533D02*
X65804649Y-58649533D01*
X65104649Y-58649533D02*
X65104649Y-57949533D01*
X64804649Y-58616200D02*
X64704649Y-58649533D01*
X64704649Y-58649533D02*
X64537983Y-58649533D01*
X64537983Y-58649533D02*
X64471316Y-58616200D01*
X64471316Y-58616200D02*
X64437983Y-58582866D01*
X64437983Y-58582866D02*
X64404649Y-58516200D01*
X64404649Y-58516200D02*
X64404649Y-58449533D01*
X64404649Y-58449533D02*
X64437983Y-58382866D01*
X64437983Y-58382866D02*
X64471316Y-58349533D01*
X64471316Y-58349533D02*
X64537983Y-58316200D01*
X64537983Y-58316200D02*
X64671316Y-58282866D01*
X64671316Y-58282866D02*
X64737983Y-58249533D01*
X64737983Y-58249533D02*
X64771316Y-58216200D01*
X64771316Y-58216200D02*
X64804649Y-58149533D01*
X64804649Y-58149533D02*
X64804649Y-58082866D01*
X64804649Y-58082866D02*
X64771316Y-58016200D01*
X64771316Y-58016200D02*
X64737983Y-57982866D01*
X64737983Y-57982866D02*
X64671316Y-57949533D01*
X64671316Y-57949533D02*
X64504649Y-57949533D01*
X64504649Y-57949533D02*
X64404649Y-57982866D01*
X64104649Y-58649533D02*
X64104649Y-57949533D01*
X64104649Y-57949533D02*
X63837982Y-57949533D01*
X63837982Y-57949533D02*
X63771316Y-57982866D01*
X63771316Y-57982866D02*
X63737982Y-58016200D01*
X63737982Y-58016200D02*
X63704649Y-58082866D01*
X63704649Y-58082866D02*
X63704649Y-58182866D01*
X63704649Y-58182866D02*
X63737982Y-58249533D01*
X63737982Y-58249533D02*
X63771316Y-58282866D01*
X63771316Y-58282866D02*
X63837982Y-58316200D01*
X63837982Y-58316200D02*
X64104649Y-58316200D01*
X63071316Y-58649533D02*
X63404649Y-58649533D01*
X63404649Y-58649533D02*
X63404649Y-57949533D01*
X62871315Y-58449533D02*
X62537982Y-58449533D01*
X62937982Y-58649533D02*
X62704649Y-57949533D01*
X62704649Y-57949533D02*
X62471315Y-58649533D01*
X62104649Y-58316200D02*
X62104649Y-58649533D01*
X62337982Y-57949533D02*
X62104649Y-58316200D01*
X62104649Y-58316200D02*
X61871315Y-57949533D01*
X65571316Y-59409866D02*
X65471316Y-59443200D01*
X65471316Y-59443200D02*
X65437982Y-59476533D01*
X65437982Y-59476533D02*
X65404649Y-59543200D01*
X65404649Y-59543200D02*
X65404649Y-59643200D01*
X65404649Y-59643200D02*
X65437982Y-59709866D01*
X65437982Y-59709866D02*
X65471316Y-59743200D01*
X65471316Y-59743200D02*
X65537982Y-59776533D01*
X65537982Y-59776533D02*
X65804649Y-59776533D01*
X65804649Y-59776533D02*
X65804649Y-59076533D01*
X65804649Y-59076533D02*
X65571316Y-59076533D01*
X65571316Y-59076533D02*
X65504649Y-59109866D01*
X65504649Y-59109866D02*
X65471316Y-59143200D01*
X65471316Y-59143200D02*
X65437982Y-59209866D01*
X65437982Y-59209866D02*
X65437982Y-59276533D01*
X65437982Y-59276533D02*
X65471316Y-59343200D01*
X65471316Y-59343200D02*
X65504649Y-59376533D01*
X65504649Y-59376533D02*
X65571316Y-59409866D01*
X65571316Y-59409866D02*
X65804649Y-59409866D01*
X64971316Y-59076533D02*
X64837982Y-59076533D01*
X64837982Y-59076533D02*
X64771316Y-59109866D01*
X64771316Y-59109866D02*
X64704649Y-59176533D01*
X64704649Y-59176533D02*
X64671316Y-59309866D01*
X64671316Y-59309866D02*
X64671316Y-59543200D01*
X64671316Y-59543200D02*
X64704649Y-59676533D01*
X64704649Y-59676533D02*
X64771316Y-59743200D01*
X64771316Y-59743200D02*
X64837982Y-59776533D01*
X64837982Y-59776533D02*
X64971316Y-59776533D01*
X64971316Y-59776533D02*
X65037982Y-59743200D01*
X65037982Y-59743200D02*
X65104649Y-59676533D01*
X65104649Y-59676533D02*
X65137982Y-59543200D01*
X65137982Y-59543200D02*
X65137982Y-59309866D01*
X65137982Y-59309866D02*
X65104649Y-59176533D01*
X65104649Y-59176533D02*
X65037982Y-59109866D01*
X65037982Y-59109866D02*
X64971316Y-59076533D01*
X64404649Y-59576533D02*
X64071316Y-59576533D01*
X64471316Y-59776533D02*
X64237983Y-59076533D01*
X64237983Y-59076533D02*
X64004649Y-59776533D01*
X63371316Y-59776533D02*
X63604649Y-59443200D01*
X63771316Y-59776533D02*
X63771316Y-59076533D01*
X63771316Y-59076533D02*
X63504649Y-59076533D01*
X63504649Y-59076533D02*
X63437983Y-59109866D01*
X63437983Y-59109866D02*
X63404649Y-59143200D01*
X63404649Y-59143200D02*
X63371316Y-59209866D01*
X63371316Y-59209866D02*
X63371316Y-59309866D01*
X63371316Y-59309866D02*
X63404649Y-59376533D01*
X63404649Y-59376533D02*
X63437983Y-59409866D01*
X63437983Y-59409866D02*
X63504649Y-59443200D01*
X63504649Y-59443200D02*
X63771316Y-59443200D01*
X63071316Y-59776533D02*
X63071316Y-59076533D01*
X63071316Y-59076533D02*
X62904649Y-59076533D01*
X62904649Y-59076533D02*
X62804649Y-59109866D01*
X62804649Y-59109866D02*
X62737983Y-59176533D01*
X62737983Y-59176533D02*
X62704649Y-59243200D01*
X62704649Y-59243200D02*
X62671316Y-59376533D01*
X62671316Y-59376533D02*
X62671316Y-59476533D01*
X62671316Y-59476533D02*
X62704649Y-59609866D01*
X62704649Y-59609866D02*
X62737983Y-59676533D01*
X62737983Y-59676533D02*
X62804649Y-59743200D01*
X62804649Y-59743200D02*
X62904649Y-59776533D01*
X62904649Y-59776533D02*
X63071316Y-59776533D01*
X134608094Y-136224819D02*
X134608094Y-135224819D01*
X134608094Y-135224819D02*
X134369999Y-135224819D01*
X134369999Y-135224819D02*
X134227142Y-135272438D01*
X134227142Y-135272438D02*
X134131904Y-135367676D01*
X134131904Y-135367676D02*
X134084285Y-135462914D01*
X134084285Y-135462914D02*
X134036666Y-135653390D01*
X134036666Y-135653390D02*
X134036666Y-135796247D01*
X134036666Y-135796247D02*
X134084285Y-135986723D01*
X134084285Y-135986723D02*
X134131904Y-136081961D01*
X134131904Y-136081961D02*
X134227142Y-136177200D01*
X134227142Y-136177200D02*
X134369999Y-136224819D01*
X134369999Y-136224819D02*
X134608094Y-136224819D01*
X133703332Y-135224819D02*
X133084285Y-135224819D01*
X133084285Y-135224819D02*
X133417618Y-135605771D01*
X133417618Y-135605771D02*
X133274761Y-135605771D01*
X133274761Y-135605771D02*
X133179523Y-135653390D01*
X133179523Y-135653390D02*
X133131904Y-135701009D01*
X133131904Y-135701009D02*
X133084285Y-135796247D01*
X133084285Y-135796247D02*
X133084285Y-136034342D01*
X133084285Y-136034342D02*
X133131904Y-136129580D01*
X133131904Y-136129580D02*
X133179523Y-136177200D01*
X133179523Y-136177200D02*
X133274761Y-136224819D01*
X133274761Y-136224819D02*
X133560475Y-136224819D01*
X133560475Y-136224819D02*
X133655713Y-136177200D01*
X133655713Y-136177200D02*
X133703332Y-136129580D01*
X105308094Y-124724819D02*
X105308094Y-123724819D01*
X105308094Y-123724819D02*
X105069999Y-123724819D01*
X105069999Y-123724819D02*
X104927142Y-123772438D01*
X104927142Y-123772438D02*
X104831904Y-123867676D01*
X104831904Y-123867676D02*
X104784285Y-123962914D01*
X104784285Y-123962914D02*
X104736666Y-124153390D01*
X104736666Y-124153390D02*
X104736666Y-124296247D01*
X104736666Y-124296247D02*
X104784285Y-124486723D01*
X104784285Y-124486723D02*
X104831904Y-124581961D01*
X104831904Y-124581961D02*
X104927142Y-124677200D01*
X104927142Y-124677200D02*
X105069999Y-124724819D01*
X105069999Y-124724819D02*
X105308094Y-124724819D01*
X103831904Y-123724819D02*
X104308094Y-123724819D01*
X104308094Y-123724819D02*
X104355713Y-124201009D01*
X104355713Y-124201009D02*
X104308094Y-124153390D01*
X104308094Y-124153390D02*
X104212856Y-124105771D01*
X104212856Y-124105771D02*
X103974761Y-124105771D01*
X103974761Y-124105771D02*
X103879523Y-124153390D01*
X103879523Y-124153390D02*
X103831904Y-124201009D01*
X103831904Y-124201009D02*
X103784285Y-124296247D01*
X103784285Y-124296247D02*
X103784285Y-124534342D01*
X103784285Y-124534342D02*
X103831904Y-124629580D01*
X103831904Y-124629580D02*
X103879523Y-124677200D01*
X103879523Y-124677200D02*
X103974761Y-124724819D01*
X103974761Y-124724819D02*
X104212856Y-124724819D01*
X104212856Y-124724819D02*
X104308094Y-124677200D01*
X104308094Y-124677200D02*
X104355713Y-124629580D01*
X105308094Y-116674819D02*
X105308094Y-115674819D01*
X105308094Y-115674819D02*
X105069999Y-115674819D01*
X105069999Y-115674819D02*
X104927142Y-115722438D01*
X104927142Y-115722438D02*
X104831904Y-115817676D01*
X104831904Y-115817676D02*
X104784285Y-115912914D01*
X104784285Y-115912914D02*
X104736666Y-116103390D01*
X104736666Y-116103390D02*
X104736666Y-116246247D01*
X104736666Y-116246247D02*
X104784285Y-116436723D01*
X104784285Y-116436723D02*
X104831904Y-116531961D01*
X104831904Y-116531961D02*
X104927142Y-116627200D01*
X104927142Y-116627200D02*
X105069999Y-116674819D01*
X105069999Y-116674819D02*
X105308094Y-116674819D01*
X103879523Y-116008152D02*
X103879523Y-116674819D01*
X104117618Y-115627200D02*
X104355713Y-116341485D01*
X104355713Y-116341485D02*
X103736666Y-116341485D01*
X134608094Y-116624819D02*
X134608094Y-115624819D01*
X134608094Y-115624819D02*
X134369999Y-115624819D01*
X134369999Y-115624819D02*
X134227142Y-115672438D01*
X134227142Y-115672438D02*
X134131904Y-115767676D01*
X134131904Y-115767676D02*
X134084285Y-115862914D01*
X134084285Y-115862914D02*
X134036666Y-116053390D01*
X134036666Y-116053390D02*
X134036666Y-116196247D01*
X134036666Y-116196247D02*
X134084285Y-116386723D01*
X134084285Y-116386723D02*
X134131904Y-116481961D01*
X134131904Y-116481961D02*
X134227142Y-116577200D01*
X134227142Y-116577200D02*
X134369999Y-116624819D01*
X134369999Y-116624819D02*
X134608094Y-116624819D01*
X133084285Y-116624819D02*
X133655713Y-116624819D01*
X133369999Y-116624819D02*
X133369999Y-115624819D01*
X133369999Y-115624819D02*
X133465237Y-115767676D01*
X133465237Y-115767676D02*
X133560475Y-115862914D01*
X133560475Y-115862914D02*
X133655713Y-115910533D01*
X134608094Y-124409819D02*
X134608094Y-123409819D01*
X134608094Y-123409819D02*
X134369999Y-123409819D01*
X134369999Y-123409819D02*
X134227142Y-123457438D01*
X134227142Y-123457438D02*
X134131904Y-123552676D01*
X134131904Y-123552676D02*
X134084285Y-123647914D01*
X134084285Y-123647914D02*
X134036666Y-123838390D01*
X134036666Y-123838390D02*
X134036666Y-123981247D01*
X134036666Y-123981247D02*
X134084285Y-124171723D01*
X134084285Y-124171723D02*
X134131904Y-124266961D01*
X134131904Y-124266961D02*
X134227142Y-124362200D01*
X134227142Y-124362200D02*
X134369999Y-124409819D01*
X134369999Y-124409819D02*
X134608094Y-124409819D01*
X133655713Y-123505057D02*
X133608094Y-123457438D01*
X133608094Y-123457438D02*
X133512856Y-123409819D01*
X133512856Y-123409819D02*
X133274761Y-123409819D01*
X133274761Y-123409819D02*
X133179523Y-123457438D01*
X133179523Y-123457438D02*
X133131904Y-123505057D01*
X133131904Y-123505057D02*
X133084285Y-123600295D01*
X133084285Y-123600295D02*
X133084285Y-123695533D01*
X133084285Y-123695533D02*
X133131904Y-123838390D01*
X133131904Y-123838390D02*
X133703332Y-124409819D01*
X133703332Y-124409819D02*
X133084285Y-124409819D01*
X105188094Y-136174819D02*
X105188094Y-135174819D01*
X105188094Y-135174819D02*
X104949999Y-135174819D01*
X104949999Y-135174819D02*
X104807142Y-135222438D01*
X104807142Y-135222438D02*
X104711904Y-135317676D01*
X104711904Y-135317676D02*
X104664285Y-135412914D01*
X104664285Y-135412914D02*
X104616666Y-135603390D01*
X104616666Y-135603390D02*
X104616666Y-135746247D01*
X104616666Y-135746247D02*
X104664285Y-135936723D01*
X104664285Y-135936723D02*
X104711904Y-136031961D01*
X104711904Y-136031961D02*
X104807142Y-136127200D01*
X104807142Y-136127200D02*
X104949999Y-136174819D01*
X104949999Y-136174819D02*
X105188094Y-136174819D01*
X103759523Y-135174819D02*
X103949999Y-135174819D01*
X103949999Y-135174819D02*
X104045237Y-135222438D01*
X104045237Y-135222438D02*
X104092856Y-135270057D01*
X104092856Y-135270057D02*
X104188094Y-135412914D01*
X104188094Y-135412914D02*
X104235713Y-135603390D01*
X104235713Y-135603390D02*
X104235713Y-135984342D01*
X104235713Y-135984342D02*
X104188094Y-136079580D01*
X104188094Y-136079580D02*
X104140475Y-136127200D01*
X104140475Y-136127200D02*
X104045237Y-136174819D01*
X104045237Y-136174819D02*
X103854761Y-136174819D01*
X103854761Y-136174819D02*
X103759523Y-136127200D01*
X103759523Y-136127200D02*
X103711904Y-136079580D01*
X103711904Y-136079580D02*
X103664285Y-135984342D01*
X103664285Y-135984342D02*
X103664285Y-135746247D01*
X103664285Y-135746247D02*
X103711904Y-135651009D01*
X103711904Y-135651009D02*
X103759523Y-135603390D01*
X103759523Y-135603390D02*
X103854761Y-135555771D01*
X103854761Y-135555771D02*
X104045237Y-135555771D01*
X104045237Y-135555771D02*
X104140475Y-135603390D01*
X104140475Y-135603390D02*
X104188094Y-135651009D01*
X104188094Y-135651009D02*
X104235713Y-135746247D01*
X93908094Y-136224819D02*
X93908094Y-135224819D01*
X93908094Y-135224819D02*
X93669999Y-135224819D01*
X93669999Y-135224819D02*
X93527142Y-135272438D01*
X93527142Y-135272438D02*
X93431904Y-135367676D01*
X93431904Y-135367676D02*
X93384285Y-135462914D01*
X93384285Y-135462914D02*
X93336666Y-135653390D01*
X93336666Y-135653390D02*
X93336666Y-135796247D01*
X93336666Y-135796247D02*
X93384285Y-135986723D01*
X93384285Y-135986723D02*
X93431904Y-136081961D01*
X93431904Y-136081961D02*
X93527142Y-136177200D01*
X93527142Y-136177200D02*
X93669999Y-136224819D01*
X93669999Y-136224819D02*
X93908094Y-136224819D01*
X93003332Y-135224819D02*
X92384285Y-135224819D01*
X92384285Y-135224819D02*
X92717618Y-135605771D01*
X92717618Y-135605771D02*
X92574761Y-135605771D01*
X92574761Y-135605771D02*
X92479523Y-135653390D01*
X92479523Y-135653390D02*
X92431904Y-135701009D01*
X92431904Y-135701009D02*
X92384285Y-135796247D01*
X92384285Y-135796247D02*
X92384285Y-136034342D01*
X92384285Y-136034342D02*
X92431904Y-136129580D01*
X92431904Y-136129580D02*
X92479523Y-136177200D01*
X92479523Y-136177200D02*
X92574761Y-136224819D01*
X92574761Y-136224819D02*
X92860475Y-136224819D01*
X92860475Y-136224819D02*
X92955713Y-136177200D01*
X92955713Y-136177200D02*
X93003332Y-136129580D01*
X64608094Y-124724819D02*
X64608094Y-123724819D01*
X64608094Y-123724819D02*
X64369999Y-123724819D01*
X64369999Y-123724819D02*
X64227142Y-123772438D01*
X64227142Y-123772438D02*
X64131904Y-123867676D01*
X64131904Y-123867676D02*
X64084285Y-123962914D01*
X64084285Y-123962914D02*
X64036666Y-124153390D01*
X64036666Y-124153390D02*
X64036666Y-124296247D01*
X64036666Y-124296247D02*
X64084285Y-124486723D01*
X64084285Y-124486723D02*
X64131904Y-124581961D01*
X64131904Y-124581961D02*
X64227142Y-124677200D01*
X64227142Y-124677200D02*
X64369999Y-124724819D01*
X64369999Y-124724819D02*
X64608094Y-124724819D01*
X63131904Y-123724819D02*
X63608094Y-123724819D01*
X63608094Y-123724819D02*
X63655713Y-124201009D01*
X63655713Y-124201009D02*
X63608094Y-124153390D01*
X63608094Y-124153390D02*
X63512856Y-124105771D01*
X63512856Y-124105771D02*
X63274761Y-124105771D01*
X63274761Y-124105771D02*
X63179523Y-124153390D01*
X63179523Y-124153390D02*
X63131904Y-124201009D01*
X63131904Y-124201009D02*
X63084285Y-124296247D01*
X63084285Y-124296247D02*
X63084285Y-124534342D01*
X63084285Y-124534342D02*
X63131904Y-124629580D01*
X63131904Y-124629580D02*
X63179523Y-124677200D01*
X63179523Y-124677200D02*
X63274761Y-124724819D01*
X63274761Y-124724819D02*
X63512856Y-124724819D01*
X63512856Y-124724819D02*
X63608094Y-124677200D01*
X63608094Y-124677200D02*
X63655713Y-124629580D01*
X64608094Y-116674819D02*
X64608094Y-115674819D01*
X64608094Y-115674819D02*
X64369999Y-115674819D01*
X64369999Y-115674819D02*
X64227142Y-115722438D01*
X64227142Y-115722438D02*
X64131904Y-115817676D01*
X64131904Y-115817676D02*
X64084285Y-115912914D01*
X64084285Y-115912914D02*
X64036666Y-116103390D01*
X64036666Y-116103390D02*
X64036666Y-116246247D01*
X64036666Y-116246247D02*
X64084285Y-116436723D01*
X64084285Y-116436723D02*
X64131904Y-116531961D01*
X64131904Y-116531961D02*
X64227142Y-116627200D01*
X64227142Y-116627200D02*
X64369999Y-116674819D01*
X64369999Y-116674819D02*
X64608094Y-116674819D01*
X63179523Y-116008152D02*
X63179523Y-116674819D01*
X63417618Y-115627200D02*
X63655713Y-116341485D01*
X63655713Y-116341485D02*
X63036666Y-116341485D01*
X93908094Y-116624819D02*
X93908094Y-115624819D01*
X93908094Y-115624819D02*
X93669999Y-115624819D01*
X93669999Y-115624819D02*
X93527142Y-115672438D01*
X93527142Y-115672438D02*
X93431904Y-115767676D01*
X93431904Y-115767676D02*
X93384285Y-115862914D01*
X93384285Y-115862914D02*
X93336666Y-116053390D01*
X93336666Y-116053390D02*
X93336666Y-116196247D01*
X93336666Y-116196247D02*
X93384285Y-116386723D01*
X93384285Y-116386723D02*
X93431904Y-116481961D01*
X93431904Y-116481961D02*
X93527142Y-116577200D01*
X93527142Y-116577200D02*
X93669999Y-116624819D01*
X93669999Y-116624819D02*
X93908094Y-116624819D01*
X92384285Y-116624819D02*
X92955713Y-116624819D01*
X92669999Y-116624819D02*
X92669999Y-115624819D01*
X92669999Y-115624819D02*
X92765237Y-115767676D01*
X92765237Y-115767676D02*
X92860475Y-115862914D01*
X92860475Y-115862914D02*
X92955713Y-115910533D01*
X93908094Y-124409819D02*
X93908094Y-123409819D01*
X93908094Y-123409819D02*
X93669999Y-123409819D01*
X93669999Y-123409819D02*
X93527142Y-123457438D01*
X93527142Y-123457438D02*
X93431904Y-123552676D01*
X93431904Y-123552676D02*
X93384285Y-123647914D01*
X93384285Y-123647914D02*
X93336666Y-123838390D01*
X93336666Y-123838390D02*
X93336666Y-123981247D01*
X93336666Y-123981247D02*
X93384285Y-124171723D01*
X93384285Y-124171723D02*
X93431904Y-124266961D01*
X93431904Y-124266961D02*
X93527142Y-124362200D01*
X93527142Y-124362200D02*
X93669999Y-124409819D01*
X93669999Y-124409819D02*
X93908094Y-124409819D01*
X92955713Y-123505057D02*
X92908094Y-123457438D01*
X92908094Y-123457438D02*
X92812856Y-123409819D01*
X92812856Y-123409819D02*
X92574761Y-123409819D01*
X92574761Y-123409819D02*
X92479523Y-123457438D01*
X92479523Y-123457438D02*
X92431904Y-123505057D01*
X92431904Y-123505057D02*
X92384285Y-123600295D01*
X92384285Y-123600295D02*
X92384285Y-123695533D01*
X92384285Y-123695533D02*
X92431904Y-123838390D01*
X92431904Y-123838390D02*
X93003332Y-124409819D01*
X93003332Y-124409819D02*
X92384285Y-124409819D01*
X64488094Y-136174819D02*
X64488094Y-135174819D01*
X64488094Y-135174819D02*
X64249999Y-135174819D01*
X64249999Y-135174819D02*
X64107142Y-135222438D01*
X64107142Y-135222438D02*
X64011904Y-135317676D01*
X64011904Y-135317676D02*
X63964285Y-135412914D01*
X63964285Y-135412914D02*
X63916666Y-135603390D01*
X63916666Y-135603390D02*
X63916666Y-135746247D01*
X63916666Y-135746247D02*
X63964285Y-135936723D01*
X63964285Y-135936723D02*
X64011904Y-136031961D01*
X64011904Y-136031961D02*
X64107142Y-136127200D01*
X64107142Y-136127200D02*
X64249999Y-136174819D01*
X64249999Y-136174819D02*
X64488094Y-136174819D01*
X63059523Y-135174819D02*
X63249999Y-135174819D01*
X63249999Y-135174819D02*
X63345237Y-135222438D01*
X63345237Y-135222438D02*
X63392856Y-135270057D01*
X63392856Y-135270057D02*
X63488094Y-135412914D01*
X63488094Y-135412914D02*
X63535713Y-135603390D01*
X63535713Y-135603390D02*
X63535713Y-135984342D01*
X63535713Y-135984342D02*
X63488094Y-136079580D01*
X63488094Y-136079580D02*
X63440475Y-136127200D01*
X63440475Y-136127200D02*
X63345237Y-136174819D01*
X63345237Y-136174819D02*
X63154761Y-136174819D01*
X63154761Y-136174819D02*
X63059523Y-136127200D01*
X63059523Y-136127200D02*
X63011904Y-136079580D01*
X63011904Y-136079580D02*
X62964285Y-135984342D01*
X62964285Y-135984342D02*
X62964285Y-135746247D01*
X62964285Y-135746247D02*
X63011904Y-135651009D01*
X63011904Y-135651009D02*
X63059523Y-135603390D01*
X63059523Y-135603390D02*
X63154761Y-135555771D01*
X63154761Y-135555771D02*
X63345237Y-135555771D01*
X63345237Y-135555771D02*
X63440475Y-135603390D01*
X63440475Y-135603390D02*
X63488094Y-135651009D01*
X63488094Y-135651009D02*
X63535713Y-135746247D01*
X134608094Y-115124819D02*
X134608094Y-114124819D01*
X134608094Y-114124819D02*
X134369999Y-114124819D01*
X134369999Y-114124819D02*
X134227142Y-114172438D01*
X134227142Y-114172438D02*
X134131904Y-114267676D01*
X134131904Y-114267676D02*
X134084285Y-114362914D01*
X134084285Y-114362914D02*
X134036666Y-114553390D01*
X134036666Y-114553390D02*
X134036666Y-114696247D01*
X134036666Y-114696247D02*
X134084285Y-114886723D01*
X134084285Y-114886723D02*
X134131904Y-114981961D01*
X134131904Y-114981961D02*
X134227142Y-115077200D01*
X134227142Y-115077200D02*
X134369999Y-115124819D01*
X134369999Y-115124819D02*
X134608094Y-115124819D01*
X133703332Y-114124819D02*
X133084285Y-114124819D01*
X133084285Y-114124819D02*
X133417618Y-114505771D01*
X133417618Y-114505771D02*
X133274761Y-114505771D01*
X133274761Y-114505771D02*
X133179523Y-114553390D01*
X133179523Y-114553390D02*
X133131904Y-114601009D01*
X133131904Y-114601009D02*
X133084285Y-114696247D01*
X133084285Y-114696247D02*
X133084285Y-114934342D01*
X133084285Y-114934342D02*
X133131904Y-115029580D01*
X133131904Y-115029580D02*
X133179523Y-115077200D01*
X133179523Y-115077200D02*
X133274761Y-115124819D01*
X133274761Y-115124819D02*
X133560475Y-115124819D01*
X133560475Y-115124819D02*
X133655713Y-115077200D01*
X133655713Y-115077200D02*
X133703332Y-115029580D01*
X105308094Y-103624819D02*
X105308094Y-102624819D01*
X105308094Y-102624819D02*
X105069999Y-102624819D01*
X105069999Y-102624819D02*
X104927142Y-102672438D01*
X104927142Y-102672438D02*
X104831904Y-102767676D01*
X104831904Y-102767676D02*
X104784285Y-102862914D01*
X104784285Y-102862914D02*
X104736666Y-103053390D01*
X104736666Y-103053390D02*
X104736666Y-103196247D01*
X104736666Y-103196247D02*
X104784285Y-103386723D01*
X104784285Y-103386723D02*
X104831904Y-103481961D01*
X104831904Y-103481961D02*
X104927142Y-103577200D01*
X104927142Y-103577200D02*
X105069999Y-103624819D01*
X105069999Y-103624819D02*
X105308094Y-103624819D01*
X103831904Y-102624819D02*
X104308094Y-102624819D01*
X104308094Y-102624819D02*
X104355713Y-103101009D01*
X104355713Y-103101009D02*
X104308094Y-103053390D01*
X104308094Y-103053390D02*
X104212856Y-103005771D01*
X104212856Y-103005771D02*
X103974761Y-103005771D01*
X103974761Y-103005771D02*
X103879523Y-103053390D01*
X103879523Y-103053390D02*
X103831904Y-103101009D01*
X103831904Y-103101009D02*
X103784285Y-103196247D01*
X103784285Y-103196247D02*
X103784285Y-103434342D01*
X103784285Y-103434342D02*
X103831904Y-103529580D01*
X103831904Y-103529580D02*
X103879523Y-103577200D01*
X103879523Y-103577200D02*
X103974761Y-103624819D01*
X103974761Y-103624819D02*
X104212856Y-103624819D01*
X104212856Y-103624819D02*
X104308094Y-103577200D01*
X104308094Y-103577200D02*
X104355713Y-103529580D01*
X105308094Y-95574819D02*
X105308094Y-94574819D01*
X105308094Y-94574819D02*
X105069999Y-94574819D01*
X105069999Y-94574819D02*
X104927142Y-94622438D01*
X104927142Y-94622438D02*
X104831904Y-94717676D01*
X104831904Y-94717676D02*
X104784285Y-94812914D01*
X104784285Y-94812914D02*
X104736666Y-95003390D01*
X104736666Y-95003390D02*
X104736666Y-95146247D01*
X104736666Y-95146247D02*
X104784285Y-95336723D01*
X104784285Y-95336723D02*
X104831904Y-95431961D01*
X104831904Y-95431961D02*
X104927142Y-95527200D01*
X104927142Y-95527200D02*
X105069999Y-95574819D01*
X105069999Y-95574819D02*
X105308094Y-95574819D01*
X103879523Y-94908152D02*
X103879523Y-95574819D01*
X104117618Y-94527200D02*
X104355713Y-95241485D01*
X104355713Y-95241485D02*
X103736666Y-95241485D01*
X134608094Y-95524819D02*
X134608094Y-94524819D01*
X134608094Y-94524819D02*
X134369999Y-94524819D01*
X134369999Y-94524819D02*
X134227142Y-94572438D01*
X134227142Y-94572438D02*
X134131904Y-94667676D01*
X134131904Y-94667676D02*
X134084285Y-94762914D01*
X134084285Y-94762914D02*
X134036666Y-94953390D01*
X134036666Y-94953390D02*
X134036666Y-95096247D01*
X134036666Y-95096247D02*
X134084285Y-95286723D01*
X134084285Y-95286723D02*
X134131904Y-95381961D01*
X134131904Y-95381961D02*
X134227142Y-95477200D01*
X134227142Y-95477200D02*
X134369999Y-95524819D01*
X134369999Y-95524819D02*
X134608094Y-95524819D01*
X133084285Y-95524819D02*
X133655713Y-95524819D01*
X133369999Y-95524819D02*
X133369999Y-94524819D01*
X133369999Y-94524819D02*
X133465237Y-94667676D01*
X133465237Y-94667676D02*
X133560475Y-94762914D01*
X133560475Y-94762914D02*
X133655713Y-94810533D01*
X134608094Y-103309819D02*
X134608094Y-102309819D01*
X134608094Y-102309819D02*
X134369999Y-102309819D01*
X134369999Y-102309819D02*
X134227142Y-102357438D01*
X134227142Y-102357438D02*
X134131904Y-102452676D01*
X134131904Y-102452676D02*
X134084285Y-102547914D01*
X134084285Y-102547914D02*
X134036666Y-102738390D01*
X134036666Y-102738390D02*
X134036666Y-102881247D01*
X134036666Y-102881247D02*
X134084285Y-103071723D01*
X134084285Y-103071723D02*
X134131904Y-103166961D01*
X134131904Y-103166961D02*
X134227142Y-103262200D01*
X134227142Y-103262200D02*
X134369999Y-103309819D01*
X134369999Y-103309819D02*
X134608094Y-103309819D01*
X133655713Y-102405057D02*
X133608094Y-102357438D01*
X133608094Y-102357438D02*
X133512856Y-102309819D01*
X133512856Y-102309819D02*
X133274761Y-102309819D01*
X133274761Y-102309819D02*
X133179523Y-102357438D01*
X133179523Y-102357438D02*
X133131904Y-102405057D01*
X133131904Y-102405057D02*
X133084285Y-102500295D01*
X133084285Y-102500295D02*
X133084285Y-102595533D01*
X133084285Y-102595533D02*
X133131904Y-102738390D01*
X133131904Y-102738390D02*
X133703332Y-103309819D01*
X133703332Y-103309819D02*
X133084285Y-103309819D01*
X105188094Y-115074819D02*
X105188094Y-114074819D01*
X105188094Y-114074819D02*
X104949999Y-114074819D01*
X104949999Y-114074819D02*
X104807142Y-114122438D01*
X104807142Y-114122438D02*
X104711904Y-114217676D01*
X104711904Y-114217676D02*
X104664285Y-114312914D01*
X104664285Y-114312914D02*
X104616666Y-114503390D01*
X104616666Y-114503390D02*
X104616666Y-114646247D01*
X104616666Y-114646247D02*
X104664285Y-114836723D01*
X104664285Y-114836723D02*
X104711904Y-114931961D01*
X104711904Y-114931961D02*
X104807142Y-115027200D01*
X104807142Y-115027200D02*
X104949999Y-115074819D01*
X104949999Y-115074819D02*
X105188094Y-115074819D01*
X103759523Y-114074819D02*
X103949999Y-114074819D01*
X103949999Y-114074819D02*
X104045237Y-114122438D01*
X104045237Y-114122438D02*
X104092856Y-114170057D01*
X104092856Y-114170057D02*
X104188094Y-114312914D01*
X104188094Y-114312914D02*
X104235713Y-114503390D01*
X104235713Y-114503390D02*
X104235713Y-114884342D01*
X104235713Y-114884342D02*
X104188094Y-114979580D01*
X104188094Y-114979580D02*
X104140475Y-115027200D01*
X104140475Y-115027200D02*
X104045237Y-115074819D01*
X104045237Y-115074819D02*
X103854761Y-115074819D01*
X103854761Y-115074819D02*
X103759523Y-115027200D01*
X103759523Y-115027200D02*
X103711904Y-114979580D01*
X103711904Y-114979580D02*
X103664285Y-114884342D01*
X103664285Y-114884342D02*
X103664285Y-114646247D01*
X103664285Y-114646247D02*
X103711904Y-114551009D01*
X103711904Y-114551009D02*
X103759523Y-114503390D01*
X103759523Y-114503390D02*
X103854761Y-114455771D01*
X103854761Y-114455771D02*
X104045237Y-114455771D01*
X104045237Y-114455771D02*
X104140475Y-114503390D01*
X104140475Y-114503390D02*
X104188094Y-114551009D01*
X104188094Y-114551009D02*
X104235713Y-114646247D01*
X93908094Y-115124819D02*
X93908094Y-114124819D01*
X93908094Y-114124819D02*
X93669999Y-114124819D01*
X93669999Y-114124819D02*
X93527142Y-114172438D01*
X93527142Y-114172438D02*
X93431904Y-114267676D01*
X93431904Y-114267676D02*
X93384285Y-114362914D01*
X93384285Y-114362914D02*
X93336666Y-114553390D01*
X93336666Y-114553390D02*
X93336666Y-114696247D01*
X93336666Y-114696247D02*
X93384285Y-114886723D01*
X93384285Y-114886723D02*
X93431904Y-114981961D01*
X93431904Y-114981961D02*
X93527142Y-115077200D01*
X93527142Y-115077200D02*
X93669999Y-115124819D01*
X93669999Y-115124819D02*
X93908094Y-115124819D01*
X93003332Y-114124819D02*
X92384285Y-114124819D01*
X92384285Y-114124819D02*
X92717618Y-114505771D01*
X92717618Y-114505771D02*
X92574761Y-114505771D01*
X92574761Y-114505771D02*
X92479523Y-114553390D01*
X92479523Y-114553390D02*
X92431904Y-114601009D01*
X92431904Y-114601009D02*
X92384285Y-114696247D01*
X92384285Y-114696247D02*
X92384285Y-114934342D01*
X92384285Y-114934342D02*
X92431904Y-115029580D01*
X92431904Y-115029580D02*
X92479523Y-115077200D01*
X92479523Y-115077200D02*
X92574761Y-115124819D01*
X92574761Y-115124819D02*
X92860475Y-115124819D01*
X92860475Y-115124819D02*
X92955713Y-115077200D01*
X92955713Y-115077200D02*
X93003332Y-115029580D01*
X64608094Y-103624819D02*
X64608094Y-102624819D01*
X64608094Y-102624819D02*
X64369999Y-102624819D01*
X64369999Y-102624819D02*
X64227142Y-102672438D01*
X64227142Y-102672438D02*
X64131904Y-102767676D01*
X64131904Y-102767676D02*
X64084285Y-102862914D01*
X64084285Y-102862914D02*
X64036666Y-103053390D01*
X64036666Y-103053390D02*
X64036666Y-103196247D01*
X64036666Y-103196247D02*
X64084285Y-103386723D01*
X64084285Y-103386723D02*
X64131904Y-103481961D01*
X64131904Y-103481961D02*
X64227142Y-103577200D01*
X64227142Y-103577200D02*
X64369999Y-103624819D01*
X64369999Y-103624819D02*
X64608094Y-103624819D01*
X63131904Y-102624819D02*
X63608094Y-102624819D01*
X63608094Y-102624819D02*
X63655713Y-103101009D01*
X63655713Y-103101009D02*
X63608094Y-103053390D01*
X63608094Y-103053390D02*
X63512856Y-103005771D01*
X63512856Y-103005771D02*
X63274761Y-103005771D01*
X63274761Y-103005771D02*
X63179523Y-103053390D01*
X63179523Y-103053390D02*
X63131904Y-103101009D01*
X63131904Y-103101009D02*
X63084285Y-103196247D01*
X63084285Y-103196247D02*
X63084285Y-103434342D01*
X63084285Y-103434342D02*
X63131904Y-103529580D01*
X63131904Y-103529580D02*
X63179523Y-103577200D01*
X63179523Y-103577200D02*
X63274761Y-103624819D01*
X63274761Y-103624819D02*
X63512856Y-103624819D01*
X63512856Y-103624819D02*
X63608094Y-103577200D01*
X63608094Y-103577200D02*
X63655713Y-103529580D01*
X64608094Y-95574819D02*
X64608094Y-94574819D01*
X64608094Y-94574819D02*
X64369999Y-94574819D01*
X64369999Y-94574819D02*
X64227142Y-94622438D01*
X64227142Y-94622438D02*
X64131904Y-94717676D01*
X64131904Y-94717676D02*
X64084285Y-94812914D01*
X64084285Y-94812914D02*
X64036666Y-95003390D01*
X64036666Y-95003390D02*
X64036666Y-95146247D01*
X64036666Y-95146247D02*
X64084285Y-95336723D01*
X64084285Y-95336723D02*
X64131904Y-95431961D01*
X64131904Y-95431961D02*
X64227142Y-95527200D01*
X64227142Y-95527200D02*
X64369999Y-95574819D01*
X64369999Y-95574819D02*
X64608094Y-95574819D01*
X63179523Y-94908152D02*
X63179523Y-95574819D01*
X63417618Y-94527200D02*
X63655713Y-95241485D01*
X63655713Y-95241485D02*
X63036666Y-95241485D01*
X93908094Y-95524819D02*
X93908094Y-94524819D01*
X93908094Y-94524819D02*
X93669999Y-94524819D01*
X93669999Y-94524819D02*
X93527142Y-94572438D01*
X93527142Y-94572438D02*
X93431904Y-94667676D01*
X93431904Y-94667676D02*
X93384285Y-94762914D01*
X93384285Y-94762914D02*
X93336666Y-94953390D01*
X93336666Y-94953390D02*
X93336666Y-95096247D01*
X93336666Y-95096247D02*
X93384285Y-95286723D01*
X93384285Y-95286723D02*
X93431904Y-95381961D01*
X93431904Y-95381961D02*
X93527142Y-95477200D01*
X93527142Y-95477200D02*
X93669999Y-95524819D01*
X93669999Y-95524819D02*
X93908094Y-95524819D01*
X92384285Y-95524819D02*
X92955713Y-95524819D01*
X92669999Y-95524819D02*
X92669999Y-94524819D01*
X92669999Y-94524819D02*
X92765237Y-94667676D01*
X92765237Y-94667676D02*
X92860475Y-94762914D01*
X92860475Y-94762914D02*
X92955713Y-94810533D01*
X93908094Y-103309819D02*
X93908094Y-102309819D01*
X93908094Y-102309819D02*
X93669999Y-102309819D01*
X93669999Y-102309819D02*
X93527142Y-102357438D01*
X93527142Y-102357438D02*
X93431904Y-102452676D01*
X93431904Y-102452676D02*
X93384285Y-102547914D01*
X93384285Y-102547914D02*
X93336666Y-102738390D01*
X93336666Y-102738390D02*
X93336666Y-102881247D01*
X93336666Y-102881247D02*
X93384285Y-103071723D01*
X93384285Y-103071723D02*
X93431904Y-103166961D01*
X93431904Y-103166961D02*
X93527142Y-103262200D01*
X93527142Y-103262200D02*
X93669999Y-103309819D01*
X93669999Y-103309819D02*
X93908094Y-103309819D01*
X92955713Y-102405057D02*
X92908094Y-102357438D01*
X92908094Y-102357438D02*
X92812856Y-102309819D01*
X92812856Y-102309819D02*
X92574761Y-102309819D01*
X92574761Y-102309819D02*
X92479523Y-102357438D01*
X92479523Y-102357438D02*
X92431904Y-102405057D01*
X92431904Y-102405057D02*
X92384285Y-102500295D01*
X92384285Y-102500295D02*
X92384285Y-102595533D01*
X92384285Y-102595533D02*
X92431904Y-102738390D01*
X92431904Y-102738390D02*
X93003332Y-103309819D01*
X93003332Y-103309819D02*
X92384285Y-103309819D01*
X64488094Y-115074819D02*
X64488094Y-114074819D01*
X64488094Y-114074819D02*
X64249999Y-114074819D01*
X64249999Y-114074819D02*
X64107142Y-114122438D01*
X64107142Y-114122438D02*
X64011904Y-114217676D01*
X64011904Y-114217676D02*
X63964285Y-114312914D01*
X63964285Y-114312914D02*
X63916666Y-114503390D01*
X63916666Y-114503390D02*
X63916666Y-114646247D01*
X63916666Y-114646247D02*
X63964285Y-114836723D01*
X63964285Y-114836723D02*
X64011904Y-114931961D01*
X64011904Y-114931961D02*
X64107142Y-115027200D01*
X64107142Y-115027200D02*
X64249999Y-115074819D01*
X64249999Y-115074819D02*
X64488094Y-115074819D01*
X63059523Y-114074819D02*
X63249999Y-114074819D01*
X63249999Y-114074819D02*
X63345237Y-114122438D01*
X63345237Y-114122438D02*
X63392856Y-114170057D01*
X63392856Y-114170057D02*
X63488094Y-114312914D01*
X63488094Y-114312914D02*
X63535713Y-114503390D01*
X63535713Y-114503390D02*
X63535713Y-114884342D01*
X63535713Y-114884342D02*
X63488094Y-114979580D01*
X63488094Y-114979580D02*
X63440475Y-115027200D01*
X63440475Y-115027200D02*
X63345237Y-115074819D01*
X63345237Y-115074819D02*
X63154761Y-115074819D01*
X63154761Y-115074819D02*
X63059523Y-115027200D01*
X63059523Y-115027200D02*
X63011904Y-114979580D01*
X63011904Y-114979580D02*
X62964285Y-114884342D01*
X62964285Y-114884342D02*
X62964285Y-114646247D01*
X62964285Y-114646247D02*
X63011904Y-114551009D01*
X63011904Y-114551009D02*
X63059523Y-114503390D01*
X63059523Y-114503390D02*
X63154761Y-114455771D01*
X63154761Y-114455771D02*
X63345237Y-114455771D01*
X63345237Y-114455771D02*
X63440475Y-114503390D01*
X63440475Y-114503390D02*
X63488094Y-114551009D01*
X63488094Y-114551009D02*
X63535713Y-114646247D01*
X134608094Y-94024819D02*
X134608094Y-93024819D01*
X134608094Y-93024819D02*
X134369999Y-93024819D01*
X134369999Y-93024819D02*
X134227142Y-93072438D01*
X134227142Y-93072438D02*
X134131904Y-93167676D01*
X134131904Y-93167676D02*
X134084285Y-93262914D01*
X134084285Y-93262914D02*
X134036666Y-93453390D01*
X134036666Y-93453390D02*
X134036666Y-93596247D01*
X134036666Y-93596247D02*
X134084285Y-93786723D01*
X134084285Y-93786723D02*
X134131904Y-93881961D01*
X134131904Y-93881961D02*
X134227142Y-93977200D01*
X134227142Y-93977200D02*
X134369999Y-94024819D01*
X134369999Y-94024819D02*
X134608094Y-94024819D01*
X133703332Y-93024819D02*
X133084285Y-93024819D01*
X133084285Y-93024819D02*
X133417618Y-93405771D01*
X133417618Y-93405771D02*
X133274761Y-93405771D01*
X133274761Y-93405771D02*
X133179523Y-93453390D01*
X133179523Y-93453390D02*
X133131904Y-93501009D01*
X133131904Y-93501009D02*
X133084285Y-93596247D01*
X133084285Y-93596247D02*
X133084285Y-93834342D01*
X133084285Y-93834342D02*
X133131904Y-93929580D01*
X133131904Y-93929580D02*
X133179523Y-93977200D01*
X133179523Y-93977200D02*
X133274761Y-94024819D01*
X133274761Y-94024819D02*
X133560475Y-94024819D01*
X133560475Y-94024819D02*
X133655713Y-93977200D01*
X133655713Y-93977200D02*
X133703332Y-93929580D01*
X105308094Y-82524819D02*
X105308094Y-81524819D01*
X105308094Y-81524819D02*
X105069999Y-81524819D01*
X105069999Y-81524819D02*
X104927142Y-81572438D01*
X104927142Y-81572438D02*
X104831904Y-81667676D01*
X104831904Y-81667676D02*
X104784285Y-81762914D01*
X104784285Y-81762914D02*
X104736666Y-81953390D01*
X104736666Y-81953390D02*
X104736666Y-82096247D01*
X104736666Y-82096247D02*
X104784285Y-82286723D01*
X104784285Y-82286723D02*
X104831904Y-82381961D01*
X104831904Y-82381961D02*
X104927142Y-82477200D01*
X104927142Y-82477200D02*
X105069999Y-82524819D01*
X105069999Y-82524819D02*
X105308094Y-82524819D01*
X103831904Y-81524819D02*
X104308094Y-81524819D01*
X104308094Y-81524819D02*
X104355713Y-82001009D01*
X104355713Y-82001009D02*
X104308094Y-81953390D01*
X104308094Y-81953390D02*
X104212856Y-81905771D01*
X104212856Y-81905771D02*
X103974761Y-81905771D01*
X103974761Y-81905771D02*
X103879523Y-81953390D01*
X103879523Y-81953390D02*
X103831904Y-82001009D01*
X103831904Y-82001009D02*
X103784285Y-82096247D01*
X103784285Y-82096247D02*
X103784285Y-82334342D01*
X103784285Y-82334342D02*
X103831904Y-82429580D01*
X103831904Y-82429580D02*
X103879523Y-82477200D01*
X103879523Y-82477200D02*
X103974761Y-82524819D01*
X103974761Y-82524819D02*
X104212856Y-82524819D01*
X104212856Y-82524819D02*
X104308094Y-82477200D01*
X104308094Y-82477200D02*
X104355713Y-82429580D01*
X105308094Y-74474819D02*
X105308094Y-73474819D01*
X105308094Y-73474819D02*
X105069999Y-73474819D01*
X105069999Y-73474819D02*
X104927142Y-73522438D01*
X104927142Y-73522438D02*
X104831904Y-73617676D01*
X104831904Y-73617676D02*
X104784285Y-73712914D01*
X104784285Y-73712914D02*
X104736666Y-73903390D01*
X104736666Y-73903390D02*
X104736666Y-74046247D01*
X104736666Y-74046247D02*
X104784285Y-74236723D01*
X104784285Y-74236723D02*
X104831904Y-74331961D01*
X104831904Y-74331961D02*
X104927142Y-74427200D01*
X104927142Y-74427200D02*
X105069999Y-74474819D01*
X105069999Y-74474819D02*
X105308094Y-74474819D01*
X103879523Y-73808152D02*
X103879523Y-74474819D01*
X104117618Y-73427200D02*
X104355713Y-74141485D01*
X104355713Y-74141485D02*
X103736666Y-74141485D01*
X134608094Y-74424819D02*
X134608094Y-73424819D01*
X134608094Y-73424819D02*
X134369999Y-73424819D01*
X134369999Y-73424819D02*
X134227142Y-73472438D01*
X134227142Y-73472438D02*
X134131904Y-73567676D01*
X134131904Y-73567676D02*
X134084285Y-73662914D01*
X134084285Y-73662914D02*
X134036666Y-73853390D01*
X134036666Y-73853390D02*
X134036666Y-73996247D01*
X134036666Y-73996247D02*
X134084285Y-74186723D01*
X134084285Y-74186723D02*
X134131904Y-74281961D01*
X134131904Y-74281961D02*
X134227142Y-74377200D01*
X134227142Y-74377200D02*
X134369999Y-74424819D01*
X134369999Y-74424819D02*
X134608094Y-74424819D01*
X133084285Y-74424819D02*
X133655713Y-74424819D01*
X133369999Y-74424819D02*
X133369999Y-73424819D01*
X133369999Y-73424819D02*
X133465237Y-73567676D01*
X133465237Y-73567676D02*
X133560475Y-73662914D01*
X133560475Y-73662914D02*
X133655713Y-73710533D01*
X134608094Y-82209819D02*
X134608094Y-81209819D01*
X134608094Y-81209819D02*
X134369999Y-81209819D01*
X134369999Y-81209819D02*
X134227142Y-81257438D01*
X134227142Y-81257438D02*
X134131904Y-81352676D01*
X134131904Y-81352676D02*
X134084285Y-81447914D01*
X134084285Y-81447914D02*
X134036666Y-81638390D01*
X134036666Y-81638390D02*
X134036666Y-81781247D01*
X134036666Y-81781247D02*
X134084285Y-81971723D01*
X134084285Y-81971723D02*
X134131904Y-82066961D01*
X134131904Y-82066961D02*
X134227142Y-82162200D01*
X134227142Y-82162200D02*
X134369999Y-82209819D01*
X134369999Y-82209819D02*
X134608094Y-82209819D01*
X133655713Y-81305057D02*
X133608094Y-81257438D01*
X133608094Y-81257438D02*
X133512856Y-81209819D01*
X133512856Y-81209819D02*
X133274761Y-81209819D01*
X133274761Y-81209819D02*
X133179523Y-81257438D01*
X133179523Y-81257438D02*
X133131904Y-81305057D01*
X133131904Y-81305057D02*
X133084285Y-81400295D01*
X133084285Y-81400295D02*
X133084285Y-81495533D01*
X133084285Y-81495533D02*
X133131904Y-81638390D01*
X133131904Y-81638390D02*
X133703332Y-82209819D01*
X133703332Y-82209819D02*
X133084285Y-82209819D01*
X105188094Y-93974819D02*
X105188094Y-92974819D01*
X105188094Y-92974819D02*
X104949999Y-92974819D01*
X104949999Y-92974819D02*
X104807142Y-93022438D01*
X104807142Y-93022438D02*
X104711904Y-93117676D01*
X104711904Y-93117676D02*
X104664285Y-93212914D01*
X104664285Y-93212914D02*
X104616666Y-93403390D01*
X104616666Y-93403390D02*
X104616666Y-93546247D01*
X104616666Y-93546247D02*
X104664285Y-93736723D01*
X104664285Y-93736723D02*
X104711904Y-93831961D01*
X104711904Y-93831961D02*
X104807142Y-93927200D01*
X104807142Y-93927200D02*
X104949999Y-93974819D01*
X104949999Y-93974819D02*
X105188094Y-93974819D01*
X103759523Y-92974819D02*
X103949999Y-92974819D01*
X103949999Y-92974819D02*
X104045237Y-93022438D01*
X104045237Y-93022438D02*
X104092856Y-93070057D01*
X104092856Y-93070057D02*
X104188094Y-93212914D01*
X104188094Y-93212914D02*
X104235713Y-93403390D01*
X104235713Y-93403390D02*
X104235713Y-93784342D01*
X104235713Y-93784342D02*
X104188094Y-93879580D01*
X104188094Y-93879580D02*
X104140475Y-93927200D01*
X104140475Y-93927200D02*
X104045237Y-93974819D01*
X104045237Y-93974819D02*
X103854761Y-93974819D01*
X103854761Y-93974819D02*
X103759523Y-93927200D01*
X103759523Y-93927200D02*
X103711904Y-93879580D01*
X103711904Y-93879580D02*
X103664285Y-93784342D01*
X103664285Y-93784342D02*
X103664285Y-93546247D01*
X103664285Y-93546247D02*
X103711904Y-93451009D01*
X103711904Y-93451009D02*
X103759523Y-93403390D01*
X103759523Y-93403390D02*
X103854761Y-93355771D01*
X103854761Y-93355771D02*
X104045237Y-93355771D01*
X104045237Y-93355771D02*
X104140475Y-93403390D01*
X104140475Y-93403390D02*
X104188094Y-93451009D01*
X104188094Y-93451009D02*
X104235713Y-93546247D01*
X93908094Y-94024819D02*
X93908094Y-93024819D01*
X93908094Y-93024819D02*
X93669999Y-93024819D01*
X93669999Y-93024819D02*
X93527142Y-93072438D01*
X93527142Y-93072438D02*
X93431904Y-93167676D01*
X93431904Y-93167676D02*
X93384285Y-93262914D01*
X93384285Y-93262914D02*
X93336666Y-93453390D01*
X93336666Y-93453390D02*
X93336666Y-93596247D01*
X93336666Y-93596247D02*
X93384285Y-93786723D01*
X93384285Y-93786723D02*
X93431904Y-93881961D01*
X93431904Y-93881961D02*
X93527142Y-93977200D01*
X93527142Y-93977200D02*
X93669999Y-94024819D01*
X93669999Y-94024819D02*
X93908094Y-94024819D01*
X93003332Y-93024819D02*
X92384285Y-93024819D01*
X92384285Y-93024819D02*
X92717618Y-93405771D01*
X92717618Y-93405771D02*
X92574761Y-93405771D01*
X92574761Y-93405771D02*
X92479523Y-93453390D01*
X92479523Y-93453390D02*
X92431904Y-93501009D01*
X92431904Y-93501009D02*
X92384285Y-93596247D01*
X92384285Y-93596247D02*
X92384285Y-93834342D01*
X92384285Y-93834342D02*
X92431904Y-93929580D01*
X92431904Y-93929580D02*
X92479523Y-93977200D01*
X92479523Y-93977200D02*
X92574761Y-94024819D01*
X92574761Y-94024819D02*
X92860475Y-94024819D01*
X92860475Y-94024819D02*
X92955713Y-93977200D01*
X92955713Y-93977200D02*
X93003332Y-93929580D01*
X64608094Y-82524819D02*
X64608094Y-81524819D01*
X64608094Y-81524819D02*
X64369999Y-81524819D01*
X64369999Y-81524819D02*
X64227142Y-81572438D01*
X64227142Y-81572438D02*
X64131904Y-81667676D01*
X64131904Y-81667676D02*
X64084285Y-81762914D01*
X64084285Y-81762914D02*
X64036666Y-81953390D01*
X64036666Y-81953390D02*
X64036666Y-82096247D01*
X64036666Y-82096247D02*
X64084285Y-82286723D01*
X64084285Y-82286723D02*
X64131904Y-82381961D01*
X64131904Y-82381961D02*
X64227142Y-82477200D01*
X64227142Y-82477200D02*
X64369999Y-82524819D01*
X64369999Y-82524819D02*
X64608094Y-82524819D01*
X63131904Y-81524819D02*
X63608094Y-81524819D01*
X63608094Y-81524819D02*
X63655713Y-82001009D01*
X63655713Y-82001009D02*
X63608094Y-81953390D01*
X63608094Y-81953390D02*
X63512856Y-81905771D01*
X63512856Y-81905771D02*
X63274761Y-81905771D01*
X63274761Y-81905771D02*
X63179523Y-81953390D01*
X63179523Y-81953390D02*
X63131904Y-82001009D01*
X63131904Y-82001009D02*
X63084285Y-82096247D01*
X63084285Y-82096247D02*
X63084285Y-82334342D01*
X63084285Y-82334342D02*
X63131904Y-82429580D01*
X63131904Y-82429580D02*
X63179523Y-82477200D01*
X63179523Y-82477200D02*
X63274761Y-82524819D01*
X63274761Y-82524819D02*
X63512856Y-82524819D01*
X63512856Y-82524819D02*
X63608094Y-82477200D01*
X63608094Y-82477200D02*
X63655713Y-82429580D01*
X64608094Y-74474819D02*
X64608094Y-73474819D01*
X64608094Y-73474819D02*
X64369999Y-73474819D01*
X64369999Y-73474819D02*
X64227142Y-73522438D01*
X64227142Y-73522438D02*
X64131904Y-73617676D01*
X64131904Y-73617676D02*
X64084285Y-73712914D01*
X64084285Y-73712914D02*
X64036666Y-73903390D01*
X64036666Y-73903390D02*
X64036666Y-74046247D01*
X64036666Y-74046247D02*
X64084285Y-74236723D01*
X64084285Y-74236723D02*
X64131904Y-74331961D01*
X64131904Y-74331961D02*
X64227142Y-74427200D01*
X64227142Y-74427200D02*
X64369999Y-74474819D01*
X64369999Y-74474819D02*
X64608094Y-74474819D01*
X63179523Y-73808152D02*
X63179523Y-74474819D01*
X63417618Y-73427200D02*
X63655713Y-74141485D01*
X63655713Y-74141485D02*
X63036666Y-74141485D01*
X93908094Y-74424819D02*
X93908094Y-73424819D01*
X93908094Y-73424819D02*
X93669999Y-73424819D01*
X93669999Y-73424819D02*
X93527142Y-73472438D01*
X93527142Y-73472438D02*
X93431904Y-73567676D01*
X93431904Y-73567676D02*
X93384285Y-73662914D01*
X93384285Y-73662914D02*
X93336666Y-73853390D01*
X93336666Y-73853390D02*
X93336666Y-73996247D01*
X93336666Y-73996247D02*
X93384285Y-74186723D01*
X93384285Y-74186723D02*
X93431904Y-74281961D01*
X93431904Y-74281961D02*
X93527142Y-74377200D01*
X93527142Y-74377200D02*
X93669999Y-74424819D01*
X93669999Y-74424819D02*
X93908094Y-74424819D01*
X92384285Y-74424819D02*
X92955713Y-74424819D01*
X92669999Y-74424819D02*
X92669999Y-73424819D01*
X92669999Y-73424819D02*
X92765237Y-73567676D01*
X92765237Y-73567676D02*
X92860475Y-73662914D01*
X92860475Y-73662914D02*
X92955713Y-73710533D01*
X93908094Y-82209819D02*
X93908094Y-81209819D01*
X93908094Y-81209819D02*
X93669999Y-81209819D01*
X93669999Y-81209819D02*
X93527142Y-81257438D01*
X93527142Y-81257438D02*
X93431904Y-81352676D01*
X93431904Y-81352676D02*
X93384285Y-81447914D01*
X93384285Y-81447914D02*
X93336666Y-81638390D01*
X93336666Y-81638390D02*
X93336666Y-81781247D01*
X93336666Y-81781247D02*
X93384285Y-81971723D01*
X93384285Y-81971723D02*
X93431904Y-82066961D01*
X93431904Y-82066961D02*
X93527142Y-82162200D01*
X93527142Y-82162200D02*
X93669999Y-82209819D01*
X93669999Y-82209819D02*
X93908094Y-82209819D01*
X92955713Y-81305057D02*
X92908094Y-81257438D01*
X92908094Y-81257438D02*
X92812856Y-81209819D01*
X92812856Y-81209819D02*
X92574761Y-81209819D01*
X92574761Y-81209819D02*
X92479523Y-81257438D01*
X92479523Y-81257438D02*
X92431904Y-81305057D01*
X92431904Y-81305057D02*
X92384285Y-81400295D01*
X92384285Y-81400295D02*
X92384285Y-81495533D01*
X92384285Y-81495533D02*
X92431904Y-81638390D01*
X92431904Y-81638390D02*
X93003332Y-82209819D01*
X93003332Y-82209819D02*
X92384285Y-82209819D01*
X64488094Y-93974819D02*
X64488094Y-92974819D01*
X64488094Y-92974819D02*
X64249999Y-92974819D01*
X64249999Y-92974819D02*
X64107142Y-93022438D01*
X64107142Y-93022438D02*
X64011904Y-93117676D01*
X64011904Y-93117676D02*
X63964285Y-93212914D01*
X63964285Y-93212914D02*
X63916666Y-93403390D01*
X63916666Y-93403390D02*
X63916666Y-93546247D01*
X63916666Y-93546247D02*
X63964285Y-93736723D01*
X63964285Y-93736723D02*
X64011904Y-93831961D01*
X64011904Y-93831961D02*
X64107142Y-93927200D01*
X64107142Y-93927200D02*
X64249999Y-93974819D01*
X64249999Y-93974819D02*
X64488094Y-93974819D01*
X63059523Y-92974819D02*
X63249999Y-92974819D01*
X63249999Y-92974819D02*
X63345237Y-93022438D01*
X63345237Y-93022438D02*
X63392856Y-93070057D01*
X63392856Y-93070057D02*
X63488094Y-93212914D01*
X63488094Y-93212914D02*
X63535713Y-93403390D01*
X63535713Y-93403390D02*
X63535713Y-93784342D01*
X63535713Y-93784342D02*
X63488094Y-93879580D01*
X63488094Y-93879580D02*
X63440475Y-93927200D01*
X63440475Y-93927200D02*
X63345237Y-93974819D01*
X63345237Y-93974819D02*
X63154761Y-93974819D01*
X63154761Y-93974819D02*
X63059523Y-93927200D01*
X63059523Y-93927200D02*
X63011904Y-93879580D01*
X63011904Y-93879580D02*
X62964285Y-93784342D01*
X62964285Y-93784342D02*
X62964285Y-93546247D01*
X62964285Y-93546247D02*
X63011904Y-93451009D01*
X63011904Y-93451009D02*
X63059523Y-93403390D01*
X63059523Y-93403390D02*
X63154761Y-93355771D01*
X63154761Y-93355771D02*
X63345237Y-93355771D01*
X63345237Y-93355771D02*
X63440475Y-93403390D01*
X63440475Y-93403390D02*
X63488094Y-93451009D01*
X63488094Y-93451009D02*
X63535713Y-93546247D01*
X134608094Y-72924819D02*
X134608094Y-71924819D01*
X134608094Y-71924819D02*
X134369999Y-71924819D01*
X134369999Y-71924819D02*
X134227142Y-71972438D01*
X134227142Y-71972438D02*
X134131904Y-72067676D01*
X134131904Y-72067676D02*
X134084285Y-72162914D01*
X134084285Y-72162914D02*
X134036666Y-72353390D01*
X134036666Y-72353390D02*
X134036666Y-72496247D01*
X134036666Y-72496247D02*
X134084285Y-72686723D01*
X134084285Y-72686723D02*
X134131904Y-72781961D01*
X134131904Y-72781961D02*
X134227142Y-72877200D01*
X134227142Y-72877200D02*
X134369999Y-72924819D01*
X134369999Y-72924819D02*
X134608094Y-72924819D01*
X133703332Y-71924819D02*
X133084285Y-71924819D01*
X133084285Y-71924819D02*
X133417618Y-72305771D01*
X133417618Y-72305771D02*
X133274761Y-72305771D01*
X133274761Y-72305771D02*
X133179523Y-72353390D01*
X133179523Y-72353390D02*
X133131904Y-72401009D01*
X133131904Y-72401009D02*
X133084285Y-72496247D01*
X133084285Y-72496247D02*
X133084285Y-72734342D01*
X133084285Y-72734342D02*
X133131904Y-72829580D01*
X133131904Y-72829580D02*
X133179523Y-72877200D01*
X133179523Y-72877200D02*
X133274761Y-72924819D01*
X133274761Y-72924819D02*
X133560475Y-72924819D01*
X133560475Y-72924819D02*
X133655713Y-72877200D01*
X133655713Y-72877200D02*
X133703332Y-72829580D01*
X105308094Y-61424819D02*
X105308094Y-60424819D01*
X105308094Y-60424819D02*
X105069999Y-60424819D01*
X105069999Y-60424819D02*
X104927142Y-60472438D01*
X104927142Y-60472438D02*
X104831904Y-60567676D01*
X104831904Y-60567676D02*
X104784285Y-60662914D01*
X104784285Y-60662914D02*
X104736666Y-60853390D01*
X104736666Y-60853390D02*
X104736666Y-60996247D01*
X104736666Y-60996247D02*
X104784285Y-61186723D01*
X104784285Y-61186723D02*
X104831904Y-61281961D01*
X104831904Y-61281961D02*
X104927142Y-61377200D01*
X104927142Y-61377200D02*
X105069999Y-61424819D01*
X105069999Y-61424819D02*
X105308094Y-61424819D01*
X103831904Y-60424819D02*
X104308094Y-60424819D01*
X104308094Y-60424819D02*
X104355713Y-60901009D01*
X104355713Y-60901009D02*
X104308094Y-60853390D01*
X104308094Y-60853390D02*
X104212856Y-60805771D01*
X104212856Y-60805771D02*
X103974761Y-60805771D01*
X103974761Y-60805771D02*
X103879523Y-60853390D01*
X103879523Y-60853390D02*
X103831904Y-60901009D01*
X103831904Y-60901009D02*
X103784285Y-60996247D01*
X103784285Y-60996247D02*
X103784285Y-61234342D01*
X103784285Y-61234342D02*
X103831904Y-61329580D01*
X103831904Y-61329580D02*
X103879523Y-61377200D01*
X103879523Y-61377200D02*
X103974761Y-61424819D01*
X103974761Y-61424819D02*
X104212856Y-61424819D01*
X104212856Y-61424819D02*
X104308094Y-61377200D01*
X104308094Y-61377200D02*
X104355713Y-61329580D01*
X105308094Y-53374819D02*
X105308094Y-52374819D01*
X105308094Y-52374819D02*
X105069999Y-52374819D01*
X105069999Y-52374819D02*
X104927142Y-52422438D01*
X104927142Y-52422438D02*
X104831904Y-52517676D01*
X104831904Y-52517676D02*
X104784285Y-52612914D01*
X104784285Y-52612914D02*
X104736666Y-52803390D01*
X104736666Y-52803390D02*
X104736666Y-52946247D01*
X104736666Y-52946247D02*
X104784285Y-53136723D01*
X104784285Y-53136723D02*
X104831904Y-53231961D01*
X104831904Y-53231961D02*
X104927142Y-53327200D01*
X104927142Y-53327200D02*
X105069999Y-53374819D01*
X105069999Y-53374819D02*
X105308094Y-53374819D01*
X103879523Y-52708152D02*
X103879523Y-53374819D01*
X104117618Y-52327200D02*
X104355713Y-53041485D01*
X104355713Y-53041485D02*
X103736666Y-53041485D01*
X134608094Y-53324819D02*
X134608094Y-52324819D01*
X134608094Y-52324819D02*
X134369999Y-52324819D01*
X134369999Y-52324819D02*
X134227142Y-52372438D01*
X134227142Y-52372438D02*
X134131904Y-52467676D01*
X134131904Y-52467676D02*
X134084285Y-52562914D01*
X134084285Y-52562914D02*
X134036666Y-52753390D01*
X134036666Y-52753390D02*
X134036666Y-52896247D01*
X134036666Y-52896247D02*
X134084285Y-53086723D01*
X134084285Y-53086723D02*
X134131904Y-53181961D01*
X134131904Y-53181961D02*
X134227142Y-53277200D01*
X134227142Y-53277200D02*
X134369999Y-53324819D01*
X134369999Y-53324819D02*
X134608094Y-53324819D01*
X133084285Y-53324819D02*
X133655713Y-53324819D01*
X133369999Y-53324819D02*
X133369999Y-52324819D01*
X133369999Y-52324819D02*
X133465237Y-52467676D01*
X133465237Y-52467676D02*
X133560475Y-52562914D01*
X133560475Y-52562914D02*
X133655713Y-52610533D01*
X134608094Y-61109819D02*
X134608094Y-60109819D01*
X134608094Y-60109819D02*
X134369999Y-60109819D01*
X134369999Y-60109819D02*
X134227142Y-60157438D01*
X134227142Y-60157438D02*
X134131904Y-60252676D01*
X134131904Y-60252676D02*
X134084285Y-60347914D01*
X134084285Y-60347914D02*
X134036666Y-60538390D01*
X134036666Y-60538390D02*
X134036666Y-60681247D01*
X134036666Y-60681247D02*
X134084285Y-60871723D01*
X134084285Y-60871723D02*
X134131904Y-60966961D01*
X134131904Y-60966961D02*
X134227142Y-61062200D01*
X134227142Y-61062200D02*
X134369999Y-61109819D01*
X134369999Y-61109819D02*
X134608094Y-61109819D01*
X133655713Y-60205057D02*
X133608094Y-60157438D01*
X133608094Y-60157438D02*
X133512856Y-60109819D01*
X133512856Y-60109819D02*
X133274761Y-60109819D01*
X133274761Y-60109819D02*
X133179523Y-60157438D01*
X133179523Y-60157438D02*
X133131904Y-60205057D01*
X133131904Y-60205057D02*
X133084285Y-60300295D01*
X133084285Y-60300295D02*
X133084285Y-60395533D01*
X133084285Y-60395533D02*
X133131904Y-60538390D01*
X133131904Y-60538390D02*
X133703332Y-61109819D01*
X133703332Y-61109819D02*
X133084285Y-61109819D01*
X105188094Y-72874819D02*
X105188094Y-71874819D01*
X105188094Y-71874819D02*
X104949999Y-71874819D01*
X104949999Y-71874819D02*
X104807142Y-71922438D01*
X104807142Y-71922438D02*
X104711904Y-72017676D01*
X104711904Y-72017676D02*
X104664285Y-72112914D01*
X104664285Y-72112914D02*
X104616666Y-72303390D01*
X104616666Y-72303390D02*
X104616666Y-72446247D01*
X104616666Y-72446247D02*
X104664285Y-72636723D01*
X104664285Y-72636723D02*
X104711904Y-72731961D01*
X104711904Y-72731961D02*
X104807142Y-72827200D01*
X104807142Y-72827200D02*
X104949999Y-72874819D01*
X104949999Y-72874819D02*
X105188094Y-72874819D01*
X103759523Y-71874819D02*
X103949999Y-71874819D01*
X103949999Y-71874819D02*
X104045237Y-71922438D01*
X104045237Y-71922438D02*
X104092856Y-71970057D01*
X104092856Y-71970057D02*
X104188094Y-72112914D01*
X104188094Y-72112914D02*
X104235713Y-72303390D01*
X104235713Y-72303390D02*
X104235713Y-72684342D01*
X104235713Y-72684342D02*
X104188094Y-72779580D01*
X104188094Y-72779580D02*
X104140475Y-72827200D01*
X104140475Y-72827200D02*
X104045237Y-72874819D01*
X104045237Y-72874819D02*
X103854761Y-72874819D01*
X103854761Y-72874819D02*
X103759523Y-72827200D01*
X103759523Y-72827200D02*
X103711904Y-72779580D01*
X103711904Y-72779580D02*
X103664285Y-72684342D01*
X103664285Y-72684342D02*
X103664285Y-72446247D01*
X103664285Y-72446247D02*
X103711904Y-72351009D01*
X103711904Y-72351009D02*
X103759523Y-72303390D01*
X103759523Y-72303390D02*
X103854761Y-72255771D01*
X103854761Y-72255771D02*
X104045237Y-72255771D01*
X104045237Y-72255771D02*
X104140475Y-72303390D01*
X104140475Y-72303390D02*
X104188094Y-72351009D01*
X104188094Y-72351009D02*
X104235713Y-72446247D01*
X64608094Y-61424819D02*
X64608094Y-60424819D01*
X64608094Y-60424819D02*
X64369999Y-60424819D01*
X64369999Y-60424819D02*
X64227142Y-60472438D01*
X64227142Y-60472438D02*
X64131904Y-60567676D01*
X64131904Y-60567676D02*
X64084285Y-60662914D01*
X64084285Y-60662914D02*
X64036666Y-60853390D01*
X64036666Y-60853390D02*
X64036666Y-60996247D01*
X64036666Y-60996247D02*
X64084285Y-61186723D01*
X64084285Y-61186723D02*
X64131904Y-61281961D01*
X64131904Y-61281961D02*
X64227142Y-61377200D01*
X64227142Y-61377200D02*
X64369999Y-61424819D01*
X64369999Y-61424819D02*
X64608094Y-61424819D01*
X63131904Y-60424819D02*
X63608094Y-60424819D01*
X63608094Y-60424819D02*
X63655713Y-60901009D01*
X63655713Y-60901009D02*
X63608094Y-60853390D01*
X63608094Y-60853390D02*
X63512856Y-60805771D01*
X63512856Y-60805771D02*
X63274761Y-60805771D01*
X63274761Y-60805771D02*
X63179523Y-60853390D01*
X63179523Y-60853390D02*
X63131904Y-60901009D01*
X63131904Y-60901009D02*
X63084285Y-60996247D01*
X63084285Y-60996247D02*
X63084285Y-61234342D01*
X63084285Y-61234342D02*
X63131904Y-61329580D01*
X63131904Y-61329580D02*
X63179523Y-61377200D01*
X63179523Y-61377200D02*
X63274761Y-61424819D01*
X63274761Y-61424819D02*
X63512856Y-61424819D01*
X63512856Y-61424819D02*
X63608094Y-61377200D01*
X63608094Y-61377200D02*
X63655713Y-61329580D01*
X64608094Y-53374819D02*
X64608094Y-52374819D01*
X64608094Y-52374819D02*
X64369999Y-52374819D01*
X64369999Y-52374819D02*
X64227142Y-52422438D01*
X64227142Y-52422438D02*
X64131904Y-52517676D01*
X64131904Y-52517676D02*
X64084285Y-52612914D01*
X64084285Y-52612914D02*
X64036666Y-52803390D01*
X64036666Y-52803390D02*
X64036666Y-52946247D01*
X64036666Y-52946247D02*
X64084285Y-53136723D01*
X64084285Y-53136723D02*
X64131904Y-53231961D01*
X64131904Y-53231961D02*
X64227142Y-53327200D01*
X64227142Y-53327200D02*
X64369999Y-53374819D01*
X64369999Y-53374819D02*
X64608094Y-53374819D01*
X63179523Y-52708152D02*
X63179523Y-53374819D01*
X63417618Y-52327200D02*
X63655713Y-53041485D01*
X63655713Y-53041485D02*
X63036666Y-53041485D01*
X64488094Y-72874819D02*
X64488094Y-71874819D01*
X64488094Y-71874819D02*
X64249999Y-71874819D01*
X64249999Y-71874819D02*
X64107142Y-71922438D01*
X64107142Y-71922438D02*
X64011904Y-72017676D01*
X64011904Y-72017676D02*
X63964285Y-72112914D01*
X63964285Y-72112914D02*
X63916666Y-72303390D01*
X63916666Y-72303390D02*
X63916666Y-72446247D01*
X63916666Y-72446247D02*
X63964285Y-72636723D01*
X63964285Y-72636723D02*
X64011904Y-72731961D01*
X64011904Y-72731961D02*
X64107142Y-72827200D01*
X64107142Y-72827200D02*
X64249999Y-72874819D01*
X64249999Y-72874819D02*
X64488094Y-72874819D01*
X63059523Y-71874819D02*
X63249999Y-71874819D01*
X63249999Y-71874819D02*
X63345237Y-71922438D01*
X63345237Y-71922438D02*
X63392856Y-71970057D01*
X63392856Y-71970057D02*
X63488094Y-72112914D01*
X63488094Y-72112914D02*
X63535713Y-72303390D01*
X63535713Y-72303390D02*
X63535713Y-72684342D01*
X63535713Y-72684342D02*
X63488094Y-72779580D01*
X63488094Y-72779580D02*
X63440475Y-72827200D01*
X63440475Y-72827200D02*
X63345237Y-72874819D01*
X63345237Y-72874819D02*
X63154761Y-72874819D01*
X63154761Y-72874819D02*
X63059523Y-72827200D01*
X63059523Y-72827200D02*
X63011904Y-72779580D01*
X63011904Y-72779580D02*
X62964285Y-72684342D01*
X62964285Y-72684342D02*
X62964285Y-72446247D01*
X62964285Y-72446247D02*
X63011904Y-72351009D01*
X63011904Y-72351009D02*
X63059523Y-72303390D01*
X63059523Y-72303390D02*
X63154761Y-72255771D01*
X63154761Y-72255771D02*
X63345237Y-72255771D01*
X63345237Y-72255771D02*
X63440475Y-72303390D01*
X63440475Y-72303390D02*
X63488094Y-72351009D01*
X63488094Y-72351009D02*
X63535713Y-72446247D01*
X93908094Y-72924819D02*
X93908094Y-71924819D01*
X93908094Y-71924819D02*
X93669999Y-71924819D01*
X93669999Y-71924819D02*
X93527142Y-71972438D01*
X93527142Y-71972438D02*
X93431904Y-72067676D01*
X93431904Y-72067676D02*
X93384285Y-72162914D01*
X93384285Y-72162914D02*
X93336666Y-72353390D01*
X93336666Y-72353390D02*
X93336666Y-72496247D01*
X93336666Y-72496247D02*
X93384285Y-72686723D01*
X93384285Y-72686723D02*
X93431904Y-72781961D01*
X93431904Y-72781961D02*
X93527142Y-72877200D01*
X93527142Y-72877200D02*
X93669999Y-72924819D01*
X93669999Y-72924819D02*
X93908094Y-72924819D01*
X93003332Y-71924819D02*
X92384285Y-71924819D01*
X92384285Y-71924819D02*
X92717618Y-72305771D01*
X92717618Y-72305771D02*
X92574761Y-72305771D01*
X92574761Y-72305771D02*
X92479523Y-72353390D01*
X92479523Y-72353390D02*
X92431904Y-72401009D01*
X92431904Y-72401009D02*
X92384285Y-72496247D01*
X92384285Y-72496247D02*
X92384285Y-72734342D01*
X92384285Y-72734342D02*
X92431904Y-72829580D01*
X92431904Y-72829580D02*
X92479523Y-72877200D01*
X92479523Y-72877200D02*
X92574761Y-72924819D01*
X92574761Y-72924819D02*
X92860475Y-72924819D01*
X92860475Y-72924819D02*
X92955713Y-72877200D01*
X92955713Y-72877200D02*
X93003332Y-72829580D01*
X93908094Y-61109819D02*
X93908094Y-60109819D01*
X93908094Y-60109819D02*
X93669999Y-60109819D01*
X93669999Y-60109819D02*
X93527142Y-60157438D01*
X93527142Y-60157438D02*
X93431904Y-60252676D01*
X93431904Y-60252676D02*
X93384285Y-60347914D01*
X93384285Y-60347914D02*
X93336666Y-60538390D01*
X93336666Y-60538390D02*
X93336666Y-60681247D01*
X93336666Y-60681247D02*
X93384285Y-60871723D01*
X93384285Y-60871723D02*
X93431904Y-60966961D01*
X93431904Y-60966961D02*
X93527142Y-61062200D01*
X93527142Y-61062200D02*
X93669999Y-61109819D01*
X93669999Y-61109819D02*
X93908094Y-61109819D01*
X92955713Y-60205057D02*
X92908094Y-60157438D01*
X92908094Y-60157438D02*
X92812856Y-60109819D01*
X92812856Y-60109819D02*
X92574761Y-60109819D01*
X92574761Y-60109819D02*
X92479523Y-60157438D01*
X92479523Y-60157438D02*
X92431904Y-60205057D01*
X92431904Y-60205057D02*
X92384285Y-60300295D01*
X92384285Y-60300295D02*
X92384285Y-60395533D01*
X92384285Y-60395533D02*
X92431904Y-60538390D01*
X92431904Y-60538390D02*
X93003332Y-61109819D01*
X93003332Y-61109819D02*
X92384285Y-61109819D01*
X93908094Y-53324819D02*
X93908094Y-52324819D01*
X93908094Y-52324819D02*
X93669999Y-52324819D01*
X93669999Y-52324819D02*
X93527142Y-52372438D01*
X93527142Y-52372438D02*
X93431904Y-52467676D01*
X93431904Y-52467676D02*
X93384285Y-52562914D01*
X93384285Y-52562914D02*
X93336666Y-52753390D01*
X93336666Y-52753390D02*
X93336666Y-52896247D01*
X93336666Y-52896247D02*
X93384285Y-53086723D01*
X93384285Y-53086723D02*
X93431904Y-53181961D01*
X93431904Y-53181961D02*
X93527142Y-53277200D01*
X93527142Y-53277200D02*
X93669999Y-53324819D01*
X93669999Y-53324819D02*
X93908094Y-53324819D01*
X92384285Y-53324819D02*
X92955713Y-53324819D01*
X92669999Y-53324819D02*
X92669999Y-52324819D01*
X92669999Y-52324819D02*
X92765237Y-52467676D01*
X92765237Y-52467676D02*
X92860475Y-52562914D01*
X92860475Y-52562914D02*
X92955713Y-52610533D01*
D12*
%TO.C,D3*%
X132010000Y-133010000D02*
X134870000Y-133010000D01*
X132010000Y-134930000D02*
X132010000Y-133010000D01*
X134870000Y-134930000D02*
X132010000Y-134930000D01*
%TO.C,D5*%
X106430000Y-126880000D02*
X103570000Y-126880000D01*
X106430000Y-124960000D02*
X106430000Y-126880000D01*
X103570000Y-124960000D02*
X106430000Y-124960000D01*
%TO.C,D4*%
X106430000Y-118830000D02*
X103570000Y-118830000D01*
X106430000Y-116910000D02*
X106430000Y-118830000D01*
X103570000Y-116910000D02*
X106430000Y-116910000D01*
%TO.C,D1*%
X132010000Y-116910000D02*
X134870000Y-116910000D01*
X132010000Y-118830000D02*
X132010000Y-116910000D01*
X134870000Y-118830000D02*
X132010000Y-118830000D01*
%TO.C,D2*%
X132010000Y-124960000D02*
X134870000Y-124960000D01*
X132010000Y-126880000D02*
X132010000Y-124960000D01*
X134870000Y-126880000D02*
X132010000Y-126880000D01*
%TO.C,D6*%
X106430000Y-134930000D02*
X103570000Y-134930000D01*
X106430000Y-133010000D02*
X106430000Y-134930000D01*
X103570000Y-133010000D02*
X106430000Y-133010000D01*
%TO.C,D3*%
X91310000Y-133010000D02*
X94170000Y-133010000D01*
X91310000Y-134930000D02*
X91310000Y-133010000D01*
X94170000Y-134930000D02*
X91310000Y-134930000D01*
%TO.C,D5*%
X65730000Y-126880000D02*
X62870000Y-126880000D01*
X65730000Y-124960000D02*
X65730000Y-126880000D01*
X62870000Y-124960000D02*
X65730000Y-124960000D01*
%TO.C,D4*%
X65730000Y-118830000D02*
X62870000Y-118830000D01*
X65730000Y-116910000D02*
X65730000Y-118830000D01*
X62870000Y-116910000D02*
X65730000Y-116910000D01*
%TO.C,D1*%
X91310000Y-116910000D02*
X94170000Y-116910000D01*
X91310000Y-118830000D02*
X91310000Y-116910000D01*
X94170000Y-118830000D02*
X91310000Y-118830000D01*
%TO.C,D2*%
X91310000Y-124960000D02*
X94170000Y-124960000D01*
X91310000Y-126880000D02*
X91310000Y-124960000D01*
X94170000Y-126880000D02*
X91310000Y-126880000D01*
%TO.C,D6*%
X65730000Y-134930000D02*
X62870000Y-134930000D01*
X65730000Y-133010000D02*
X65730000Y-134930000D01*
X62870000Y-133010000D02*
X65730000Y-133010000D01*
%TO.C,D3*%
X132010000Y-111910000D02*
X134870000Y-111910000D01*
X132010000Y-113830000D02*
X132010000Y-111910000D01*
X134870000Y-113830000D02*
X132010000Y-113830000D01*
%TO.C,D5*%
X106430000Y-105780000D02*
X103570000Y-105780000D01*
X106430000Y-103860000D02*
X106430000Y-105780000D01*
X103570000Y-103860000D02*
X106430000Y-103860000D01*
%TO.C,D4*%
X106430000Y-97730000D02*
X103570000Y-97730000D01*
X106430000Y-95810000D02*
X106430000Y-97730000D01*
X103570000Y-95810000D02*
X106430000Y-95810000D01*
%TO.C,D1*%
X132010000Y-95810000D02*
X134870000Y-95810000D01*
X132010000Y-97730000D02*
X132010000Y-95810000D01*
X134870000Y-97730000D02*
X132010000Y-97730000D01*
%TO.C,D2*%
X132010000Y-103860000D02*
X134870000Y-103860000D01*
X132010000Y-105780000D02*
X132010000Y-103860000D01*
X134870000Y-105780000D02*
X132010000Y-105780000D01*
%TO.C,D6*%
X106430000Y-113830000D02*
X103570000Y-113830000D01*
X106430000Y-111910000D02*
X106430000Y-113830000D01*
X103570000Y-111910000D02*
X106430000Y-111910000D01*
%TO.C,D3*%
X91310000Y-111910000D02*
X94170000Y-111910000D01*
X91310000Y-113830000D02*
X91310000Y-111910000D01*
X94170000Y-113830000D02*
X91310000Y-113830000D01*
%TO.C,D5*%
X65730000Y-105780000D02*
X62870000Y-105780000D01*
X65730000Y-103860000D02*
X65730000Y-105780000D01*
X62870000Y-103860000D02*
X65730000Y-103860000D01*
%TO.C,D4*%
X65730000Y-97730000D02*
X62870000Y-97730000D01*
X65730000Y-95810000D02*
X65730000Y-97730000D01*
X62870000Y-95810000D02*
X65730000Y-95810000D01*
%TO.C,D1*%
X91310000Y-95810000D02*
X94170000Y-95810000D01*
X91310000Y-97730000D02*
X91310000Y-95810000D01*
X94170000Y-97730000D02*
X91310000Y-97730000D01*
%TO.C,D2*%
X91310000Y-103860000D02*
X94170000Y-103860000D01*
X91310000Y-105780000D02*
X91310000Y-103860000D01*
X94170000Y-105780000D02*
X91310000Y-105780000D01*
%TO.C,D6*%
X65730000Y-113830000D02*
X62870000Y-113830000D01*
X65730000Y-111910000D02*
X65730000Y-113830000D01*
X62870000Y-111910000D02*
X65730000Y-111910000D01*
%TO.C,D3*%
X132010000Y-90810000D02*
X134870000Y-90810000D01*
X132010000Y-92730000D02*
X132010000Y-90810000D01*
X134870000Y-92730000D02*
X132010000Y-92730000D01*
%TO.C,D5*%
X106430000Y-84680000D02*
X103570000Y-84680000D01*
X106430000Y-82760000D02*
X106430000Y-84680000D01*
X103570000Y-82760000D02*
X106430000Y-82760000D01*
%TO.C,D4*%
X106430000Y-76630000D02*
X103570000Y-76630000D01*
X106430000Y-74710000D02*
X106430000Y-76630000D01*
X103570000Y-74710000D02*
X106430000Y-74710000D01*
%TO.C,D1*%
X132010000Y-74710000D02*
X134870000Y-74710000D01*
X132010000Y-76630000D02*
X132010000Y-74710000D01*
X134870000Y-76630000D02*
X132010000Y-76630000D01*
%TO.C,D2*%
X132010000Y-82760000D02*
X134870000Y-82760000D01*
X132010000Y-84680000D02*
X132010000Y-82760000D01*
X134870000Y-84680000D02*
X132010000Y-84680000D01*
%TO.C,D6*%
X106430000Y-92730000D02*
X103570000Y-92730000D01*
X106430000Y-90810000D02*
X106430000Y-92730000D01*
X103570000Y-90810000D02*
X106430000Y-90810000D01*
%TO.C,D3*%
X91310000Y-90810000D02*
X94170000Y-90810000D01*
X91310000Y-92730000D02*
X91310000Y-90810000D01*
X94170000Y-92730000D02*
X91310000Y-92730000D01*
%TO.C,D5*%
X65730000Y-84680000D02*
X62870000Y-84680000D01*
X65730000Y-82760000D02*
X65730000Y-84680000D01*
X62870000Y-82760000D02*
X65730000Y-82760000D01*
%TO.C,D4*%
X65730000Y-76630000D02*
X62870000Y-76630000D01*
X65730000Y-74710000D02*
X65730000Y-76630000D01*
X62870000Y-74710000D02*
X65730000Y-74710000D01*
%TO.C,D1*%
X91310000Y-74710000D02*
X94170000Y-74710000D01*
X91310000Y-76630000D02*
X91310000Y-74710000D01*
X94170000Y-76630000D02*
X91310000Y-76630000D01*
%TO.C,D2*%
X91310000Y-82760000D02*
X94170000Y-82760000D01*
X91310000Y-84680000D02*
X91310000Y-82760000D01*
X94170000Y-84680000D02*
X91310000Y-84680000D01*
%TO.C,D6*%
X65730000Y-92730000D02*
X62870000Y-92730000D01*
X65730000Y-90810000D02*
X65730000Y-92730000D01*
X62870000Y-90810000D02*
X65730000Y-90810000D01*
%TO.C,D3*%
X132010000Y-69710000D02*
X134870000Y-69710000D01*
X132010000Y-71630000D02*
X132010000Y-69710000D01*
X134870000Y-71630000D02*
X132010000Y-71630000D01*
%TO.C,D5*%
X106430000Y-63580000D02*
X103570000Y-63580000D01*
X106430000Y-61660000D02*
X106430000Y-63580000D01*
X103570000Y-61660000D02*
X106430000Y-61660000D01*
%TO.C,D4*%
X106430000Y-55530000D02*
X103570000Y-55530000D01*
X106430000Y-53610000D02*
X106430000Y-55530000D01*
X103570000Y-53610000D02*
X106430000Y-53610000D01*
%TO.C,D1*%
X132010000Y-53610000D02*
X134870000Y-53610000D01*
X132010000Y-55530000D02*
X132010000Y-53610000D01*
X134870000Y-55530000D02*
X132010000Y-55530000D01*
%TO.C,D2*%
X132010000Y-61660000D02*
X134870000Y-61660000D01*
X132010000Y-63580000D02*
X132010000Y-61660000D01*
X134870000Y-63580000D02*
X132010000Y-63580000D01*
%TO.C,D6*%
X106430000Y-71630000D02*
X103570000Y-71630000D01*
X106430000Y-69710000D02*
X106430000Y-71630000D01*
X103570000Y-69710000D02*
X106430000Y-69710000D01*
%TO.C,D5*%
X65730000Y-63580000D02*
X62870000Y-63580000D01*
X65730000Y-61660000D02*
X65730000Y-63580000D01*
X62870000Y-61660000D02*
X65730000Y-61660000D01*
%TO.C,D4*%
X65730000Y-55530000D02*
X62870000Y-55530000D01*
X65730000Y-53610000D02*
X65730000Y-55530000D01*
X62870000Y-53610000D02*
X65730000Y-53610000D01*
%TO.C,D6*%
X65730000Y-71630000D02*
X62870000Y-71630000D01*
X65730000Y-69710000D02*
X65730000Y-71630000D01*
X62870000Y-69710000D02*
X65730000Y-69710000D01*
%TO.C,D3*%
X91310000Y-69710000D02*
X94170000Y-69710000D01*
X91310000Y-71630000D02*
X91310000Y-69710000D01*
X94170000Y-71630000D02*
X91310000Y-71630000D01*
%TO.C,D2*%
X91310000Y-61660000D02*
X94170000Y-61660000D01*
X91310000Y-63580000D02*
X91310000Y-61660000D01*
X94170000Y-63580000D02*
X91310000Y-63580000D01*
%TO.C,D1*%
X91310000Y-53610000D02*
X94170000Y-53610000D01*
X91310000Y-55530000D02*
X91310000Y-53610000D01*
X94170000Y-55530000D02*
X91310000Y-55530000D01*
%TD*%
M02*
