%TF.GenerationSoftware,KiCad,Pcbnew,7.0.11+dfsg-1build4*%
%TF.CreationDate,2026-05-11T14:41:22-05:00*%
%TF.ProjectId,,58585858-5858-4585-9858-585858585858,rev?*%
%TF.SameCoordinates,Original*%
%TF.FileFunction,Profile,NP*%
%FSLAX46Y46*%
G04 Gerber Fmt 4.6, Leading zero omitted, Abs format (unit mm)*
G04 Created by KiCad (PCBNEW 7.0.11+dfsg-1build4) date 2026-05-11 14:41:22*
%MOMM*%
%LPD*%
G01*
G04 APERTURE LIST*
%TA.AperFunction,Profile*%
%ADD10C,0.050000*%
%TD*%
G04 APERTURE END LIST*
D10*
X130220000Y-136470000D02*
X139570000Y-136470000D01*
X108220000Y-136470000D02*
X108220000Y-134470000D01*
X108220000Y-134470000D02*
X130220000Y-134470000D01*
X98870000Y-115370000D02*
X139570000Y-115370000D01*
X98870000Y-115370000D02*
X98870000Y-136470000D01*
X139570000Y-115370000D02*
X139570000Y-136470000D01*
X98870000Y-136470000D02*
X108220000Y-136470000D01*
X130220000Y-136470000D02*
X130220000Y-134470000D01*
X89520000Y-136470000D02*
X98870000Y-136470000D01*
X67520000Y-136470000D02*
X67520000Y-134470000D01*
X67520000Y-134470000D02*
X89520000Y-134470000D01*
X58170000Y-115370000D02*
X98870000Y-115370000D01*
X58170000Y-115370000D02*
X58170000Y-136470000D01*
X98870000Y-115370000D02*
X98870000Y-136470000D01*
X58170000Y-136470000D02*
X67520000Y-136470000D01*
X89520000Y-136470000D02*
X89520000Y-134470000D01*
X130220000Y-115370000D02*
X139570000Y-115370000D01*
X108220000Y-115370000D02*
X108220000Y-113370000D01*
X108220000Y-113370000D02*
X130220000Y-113370000D01*
X98870000Y-94270000D02*
X139570000Y-94270000D01*
X98870000Y-94270000D02*
X98870000Y-115370000D01*
X139570000Y-94270000D02*
X139570000Y-115370000D01*
X98870000Y-115370000D02*
X108220000Y-115370000D01*
X130220000Y-115370000D02*
X130220000Y-113370000D01*
X89520000Y-115370000D02*
X98870000Y-115370000D01*
X67520000Y-115370000D02*
X67520000Y-113370000D01*
X67520000Y-113370000D02*
X89520000Y-113370000D01*
X58170000Y-94270000D02*
X98870000Y-94270000D01*
X58170000Y-94270000D02*
X58170000Y-115370000D01*
X98870000Y-94270000D02*
X98870000Y-115370000D01*
X58170000Y-115370000D02*
X67520000Y-115370000D01*
X89520000Y-115370000D02*
X89520000Y-113370000D01*
X130220000Y-94270000D02*
X139570000Y-94270000D01*
X108220000Y-94270000D02*
X108220000Y-92270000D01*
X108220000Y-92270000D02*
X130220000Y-92270000D01*
X98870000Y-73170000D02*
X139570000Y-73170000D01*
X98870000Y-73170000D02*
X98870000Y-94270000D01*
X139570000Y-73170000D02*
X139570000Y-94270000D01*
X98870000Y-94270000D02*
X108220000Y-94270000D01*
X130220000Y-94270000D02*
X130220000Y-92270000D01*
X89520000Y-94270000D02*
X98870000Y-94270000D01*
X67520000Y-94270000D02*
X67520000Y-92270000D01*
X67520000Y-92270000D02*
X89520000Y-92270000D01*
X58170000Y-73170000D02*
X98870000Y-73170000D01*
X58170000Y-73170000D02*
X58170000Y-94270000D01*
X98870000Y-73170000D02*
X98870000Y-94270000D01*
X58170000Y-94270000D02*
X67520000Y-94270000D01*
X89520000Y-94270000D02*
X89520000Y-92270000D01*
X130220000Y-73170000D02*
X139570000Y-73170000D01*
X108220000Y-73170000D02*
X108220000Y-71170000D01*
X108220000Y-71170000D02*
X130220000Y-71170000D01*
X98870000Y-52070000D02*
X139570000Y-52070000D01*
X98870000Y-52070000D02*
X98870000Y-73170000D01*
X139570000Y-52070000D02*
X139570000Y-73170000D01*
X98870000Y-73170000D02*
X108220000Y-73170000D01*
X130220000Y-73170000D02*
X130220000Y-71170000D01*
X58170000Y-52070000D02*
X58170000Y-73170000D01*
X58170000Y-52070000D02*
X98870000Y-52070000D01*
X67520000Y-71170000D02*
X89520000Y-71170000D01*
X67520000Y-73170000D02*
X67520000Y-71170000D01*
X89520000Y-73170000D02*
X98870000Y-73170000D01*
X89520000Y-73170000D02*
X89520000Y-71170000D01*
X58170000Y-73170000D02*
X67520000Y-73170000D01*
X98870000Y-52070000D02*
X98870000Y-73170000D01*
M02*
