%TF.GenerationSoftware,KiCad,Pcbnew,7.0.11+dfsg-1build4*%
%TF.CreationDate,2026-06-07T18:18:21-05:00*%
%TF.ProjectId,,58585858-5858-4585-9858-585858585858,rev?*%
%TF.SameCoordinates,Original*%
%TF.FileFunction,Paste,Top*%
%TF.FilePolarity,Positive*%
%FSLAX46Y46*%
G04 Gerber Fmt 4.6, Leading zero omitted, Abs format (unit mm)*
G04 Created by KiCad (PCBNEW 7.0.11+dfsg-1build4) date 2026-06-07 18:18:21*
%MOMM*%
%LPD*%
G01*
G04 APERTURE LIST*
G04 Aperture macros list*
%AMRoundRect*
0 Rectangle with rounded corners*
0 $1 Rounding radius*
0 $2 $3 $4 $5 $6 $7 $8 $9 X,Y pos of 4 corners*
0 Add a 4 corners polygon primitive as box body*
4,1,4,$2,$3,$4,$5,$6,$7,$8,$9,$2,$3,0*
0 Add four circle primitives for the rounded corners*
1,1,$1+$1,$2,$3*
1,1,$1+$1,$4,$5*
1,1,$1+$1,$6,$7*
1,1,$1+$1,$8,$9*
0 Add four rect primitives between the rounded corners*
20,1,$1+$1,$2,$3,$4,$5,0*
20,1,$1+$1,$4,$5,$6,$7,0*
20,1,$1+$1,$6,$7,$8,$9,0*
20,1,$1+$1,$8,$9,$2,$3,0*%
G04 Aperture macros list end*
%ADD10RoundRect,0.250000X-0.450000X0.350000X-0.450000X-0.350000X0.450000X-0.350000X0.450000X0.350000X0*%
%ADD11RoundRect,0.250000X-0.475000X0.337500X-0.475000X-0.337500X0.475000X-0.337500X0.475000X0.337500X0*%
%ADD12RoundRect,0.250000X0.475000X-0.337500X0.475000X0.337500X-0.475000X0.337500X-0.475000X-0.337500X0*%
%ADD13RoundRect,0.250000X0.350000X0.450000X-0.350000X0.450000X-0.350000X-0.450000X0.350000X-0.450000X0*%
%ADD14RoundRect,0.150000X0.512500X0.150000X-0.512500X0.150000X-0.512500X-0.150000X0.512500X-0.150000X0*%
%ADD15RoundRect,0.250000X-0.350000X-0.450000X0.350000X-0.450000X0.350000X0.450000X-0.350000X0.450000X0*%
%ADD16RoundRect,0.250000X0.450000X-0.350000X0.450000X0.350000X-0.450000X0.350000X-0.450000X-0.350000X0*%
%ADD17RoundRect,0.250000X-1.400000X-0.600000X1.400000X-0.600000X1.400000X0.600000X-1.400000X0.600000X0*%
%ADD18RoundRect,0.250000X-0.337500X-0.475000X0.337500X-0.475000X0.337500X0.475000X-0.337500X0.475000X0*%
%ADD19R,0.400000X4.000000*%
G04 APERTURE END LIST*
D10*
%TO.C,R2*%
X149043800Y-130929800D03*
X149043800Y-132929800D03*
%TD*%
D11*
%TO.C,C6*%
X144143800Y-130892300D03*
X144143800Y-132967300D03*
%TD*%
D12*
%TO.C,C2*%
X159243800Y-132967300D03*
X159243800Y-130892300D03*
%TD*%
%TO.C,C1*%
X161693800Y-132967300D03*
X161693800Y-130892300D03*
%TD*%
D11*
%TO.C,C8*%
X138943800Y-130892300D03*
X138943800Y-132967300D03*
%TD*%
%TO.C,C3*%
X154143800Y-130892300D03*
X154143800Y-132967300D03*
%TD*%
D13*
%TO.C,R12*%
X136993800Y-140254800D03*
X134993800Y-140254800D03*
%TD*%
D14*
%TO.C,U1*%
X154038800Y-127749800D03*
X154038800Y-125849800D03*
X151763800Y-126799800D03*
%TD*%
D15*
%TO.C,R5*%
X156143800Y-125529800D03*
X158143800Y-125529800D03*
%TD*%
D11*
%TO.C,C7*%
X141543800Y-130892300D03*
X141543800Y-132967300D03*
%TD*%
D15*
%TO.C,R9*%
X163793800Y-140254800D03*
X165793800Y-140254800D03*
%TD*%
%TO.C,R6*%
X159943800Y-125529800D03*
X161943800Y-125529800D03*
%TD*%
%TO.C,R4*%
X147243800Y-128069800D03*
X149243800Y-128069800D03*
%TD*%
D13*
%TO.C,R10*%
X136993800Y-128704800D03*
X134993800Y-128704800D03*
%TD*%
D15*
%TO.C,R7*%
X163793800Y-128704800D03*
X165793800Y-128704800D03*
%TD*%
D11*
%TO.C,C4*%
X156643800Y-130892300D03*
X156643800Y-132967300D03*
%TD*%
D16*
%TO.C,R3*%
X146643800Y-132929800D03*
X146643800Y-130929800D03*
%TD*%
D10*
%TO.C,R1*%
X151643800Y-130929800D03*
X151643800Y-132929800D03*
%TD*%
D17*
%TO.C,D7*%
X142188800Y-125429800D03*
X147688800Y-125429800D03*
%TD*%
D13*
%TO.C,R11*%
X136993800Y-136754800D03*
X134993800Y-136754800D03*
%TD*%
D18*
%TO.C,C9*%
X141206300Y-128069800D03*
X143281300Y-128069800D03*
%TD*%
D15*
%TO.C,R8*%
X163793800Y-136754800D03*
X165793800Y-136754800D03*
%TD*%
D18*
%TO.C,C5*%
X156408800Y-128704800D03*
X158483800Y-128704800D03*
%TD*%
D19*
%TO.C,DS1*%
X160543800Y-137229800D03*
X159843800Y-137229800D03*
X159143800Y-137229800D03*
X158443800Y-137229800D03*
X157743800Y-137229800D03*
X157043800Y-137229800D03*
X156343800Y-137229800D03*
X155643800Y-137229800D03*
X154943800Y-137229800D03*
X154243800Y-137229800D03*
X153543800Y-137229800D03*
X152843800Y-137229800D03*
X152143800Y-137229800D03*
X151443800Y-137229800D03*
X150743800Y-137229800D03*
X150043800Y-137229800D03*
X149343800Y-137229800D03*
X148643800Y-137229800D03*
X147943800Y-137229800D03*
X147243800Y-137229800D03*
X146543800Y-137229800D03*
X145843800Y-137229800D03*
X145143800Y-137229800D03*
X144443800Y-137229800D03*
X143743800Y-137229800D03*
X143043800Y-137229800D03*
X142343800Y-137229800D03*
X141643800Y-137229800D03*
X140943800Y-137229800D03*
X140243800Y-137229800D03*
%TD*%
D10*
%TO.C,R2*%
X108843800Y-130929800D03*
X108843800Y-132929800D03*
%TD*%
D11*
%TO.C,C6*%
X103943800Y-130892300D03*
X103943800Y-132967300D03*
%TD*%
D12*
%TO.C,C2*%
X119043800Y-132967300D03*
X119043800Y-130892300D03*
%TD*%
%TO.C,C1*%
X121493800Y-132967300D03*
X121493800Y-130892300D03*
%TD*%
D11*
%TO.C,C8*%
X98743800Y-130892300D03*
X98743800Y-132967300D03*
%TD*%
%TO.C,C3*%
X113943800Y-130892300D03*
X113943800Y-132967300D03*
%TD*%
D13*
%TO.C,R12*%
X96793800Y-140254800D03*
X94793800Y-140254800D03*
%TD*%
D14*
%TO.C,U1*%
X113838800Y-127749800D03*
X113838800Y-125849800D03*
X111563800Y-126799800D03*
%TD*%
D15*
%TO.C,R5*%
X115943800Y-125529800D03*
X117943800Y-125529800D03*
%TD*%
D11*
%TO.C,C7*%
X101343800Y-130892300D03*
X101343800Y-132967300D03*
%TD*%
D15*
%TO.C,R9*%
X123593800Y-140254800D03*
X125593800Y-140254800D03*
%TD*%
%TO.C,R6*%
X119743800Y-125529800D03*
X121743800Y-125529800D03*
%TD*%
%TO.C,R4*%
X107043800Y-128069800D03*
X109043800Y-128069800D03*
%TD*%
D13*
%TO.C,R10*%
X96793800Y-128704800D03*
X94793800Y-128704800D03*
%TD*%
D15*
%TO.C,R7*%
X123593800Y-128704800D03*
X125593800Y-128704800D03*
%TD*%
D11*
%TO.C,C4*%
X116443800Y-130892300D03*
X116443800Y-132967300D03*
%TD*%
D16*
%TO.C,R3*%
X106443800Y-132929800D03*
X106443800Y-130929800D03*
%TD*%
D10*
%TO.C,R1*%
X111443800Y-130929800D03*
X111443800Y-132929800D03*
%TD*%
D17*
%TO.C,D7*%
X101988800Y-125429800D03*
X107488800Y-125429800D03*
%TD*%
D13*
%TO.C,R11*%
X96793800Y-136754800D03*
X94793800Y-136754800D03*
%TD*%
D18*
%TO.C,C9*%
X101006300Y-128069800D03*
X103081300Y-128069800D03*
%TD*%
D15*
%TO.C,R8*%
X123593800Y-136754800D03*
X125593800Y-136754800D03*
%TD*%
D18*
%TO.C,C5*%
X116208800Y-128704800D03*
X118283800Y-128704800D03*
%TD*%
D19*
%TO.C,DS1*%
X120343800Y-137229800D03*
X119643800Y-137229800D03*
X118943800Y-137229800D03*
X118243800Y-137229800D03*
X117543800Y-137229800D03*
X116843800Y-137229800D03*
X116143800Y-137229800D03*
X115443800Y-137229800D03*
X114743800Y-137229800D03*
X114043800Y-137229800D03*
X113343800Y-137229800D03*
X112643800Y-137229800D03*
X111943800Y-137229800D03*
X111243800Y-137229800D03*
X110543800Y-137229800D03*
X109843800Y-137229800D03*
X109143800Y-137229800D03*
X108443800Y-137229800D03*
X107743800Y-137229800D03*
X107043800Y-137229800D03*
X106343800Y-137229800D03*
X105643800Y-137229800D03*
X104943800Y-137229800D03*
X104243800Y-137229800D03*
X103543800Y-137229800D03*
X102843800Y-137229800D03*
X102143800Y-137229800D03*
X101443800Y-137229800D03*
X100743800Y-137229800D03*
X100043800Y-137229800D03*
%TD*%
D10*
%TO.C,R2*%
X149043800Y-109829800D03*
X149043800Y-111829800D03*
%TD*%
D11*
%TO.C,C6*%
X144143800Y-109792300D03*
X144143800Y-111867300D03*
%TD*%
D12*
%TO.C,C2*%
X159243800Y-111867300D03*
X159243800Y-109792300D03*
%TD*%
%TO.C,C1*%
X161693800Y-111867300D03*
X161693800Y-109792300D03*
%TD*%
D11*
%TO.C,C8*%
X138943800Y-109792300D03*
X138943800Y-111867300D03*
%TD*%
%TO.C,C3*%
X154143800Y-109792300D03*
X154143800Y-111867300D03*
%TD*%
D13*
%TO.C,R12*%
X136993800Y-119154800D03*
X134993800Y-119154800D03*
%TD*%
D14*
%TO.C,U1*%
X154038800Y-106649800D03*
X154038800Y-104749800D03*
X151763800Y-105699800D03*
%TD*%
D15*
%TO.C,R5*%
X156143800Y-104429800D03*
X158143800Y-104429800D03*
%TD*%
D11*
%TO.C,C7*%
X141543800Y-109792300D03*
X141543800Y-111867300D03*
%TD*%
D15*
%TO.C,R9*%
X163793800Y-119154800D03*
X165793800Y-119154800D03*
%TD*%
%TO.C,R6*%
X159943800Y-104429800D03*
X161943800Y-104429800D03*
%TD*%
%TO.C,R4*%
X147243800Y-106969800D03*
X149243800Y-106969800D03*
%TD*%
D13*
%TO.C,R10*%
X136993800Y-107604800D03*
X134993800Y-107604800D03*
%TD*%
D15*
%TO.C,R7*%
X163793800Y-107604800D03*
X165793800Y-107604800D03*
%TD*%
D11*
%TO.C,C4*%
X156643800Y-109792300D03*
X156643800Y-111867300D03*
%TD*%
D16*
%TO.C,R3*%
X146643800Y-111829800D03*
X146643800Y-109829800D03*
%TD*%
D10*
%TO.C,R1*%
X151643800Y-109829800D03*
X151643800Y-111829800D03*
%TD*%
D17*
%TO.C,D7*%
X142188800Y-104329800D03*
X147688800Y-104329800D03*
%TD*%
D13*
%TO.C,R11*%
X136993800Y-115654800D03*
X134993800Y-115654800D03*
%TD*%
D18*
%TO.C,C9*%
X141206300Y-106969800D03*
X143281300Y-106969800D03*
%TD*%
D15*
%TO.C,R8*%
X163793800Y-115654800D03*
X165793800Y-115654800D03*
%TD*%
D18*
%TO.C,C5*%
X156408800Y-107604800D03*
X158483800Y-107604800D03*
%TD*%
D19*
%TO.C,DS1*%
X160543800Y-116129800D03*
X159843800Y-116129800D03*
X159143800Y-116129800D03*
X158443800Y-116129800D03*
X157743800Y-116129800D03*
X157043800Y-116129800D03*
X156343800Y-116129800D03*
X155643800Y-116129800D03*
X154943800Y-116129800D03*
X154243800Y-116129800D03*
X153543800Y-116129800D03*
X152843800Y-116129800D03*
X152143800Y-116129800D03*
X151443800Y-116129800D03*
X150743800Y-116129800D03*
X150043800Y-116129800D03*
X149343800Y-116129800D03*
X148643800Y-116129800D03*
X147943800Y-116129800D03*
X147243800Y-116129800D03*
X146543800Y-116129800D03*
X145843800Y-116129800D03*
X145143800Y-116129800D03*
X144443800Y-116129800D03*
X143743800Y-116129800D03*
X143043800Y-116129800D03*
X142343800Y-116129800D03*
X141643800Y-116129800D03*
X140943800Y-116129800D03*
X140243800Y-116129800D03*
%TD*%
D10*
%TO.C,R2*%
X108843800Y-109829800D03*
X108843800Y-111829800D03*
%TD*%
D11*
%TO.C,C6*%
X103943800Y-109792300D03*
X103943800Y-111867300D03*
%TD*%
D12*
%TO.C,C2*%
X119043800Y-111867300D03*
X119043800Y-109792300D03*
%TD*%
%TO.C,C1*%
X121493800Y-111867300D03*
X121493800Y-109792300D03*
%TD*%
D11*
%TO.C,C8*%
X98743800Y-109792300D03*
X98743800Y-111867300D03*
%TD*%
%TO.C,C3*%
X113943800Y-109792300D03*
X113943800Y-111867300D03*
%TD*%
D13*
%TO.C,R12*%
X96793800Y-119154800D03*
X94793800Y-119154800D03*
%TD*%
D14*
%TO.C,U1*%
X113838800Y-106649800D03*
X113838800Y-104749800D03*
X111563800Y-105699800D03*
%TD*%
D15*
%TO.C,R5*%
X115943800Y-104429800D03*
X117943800Y-104429800D03*
%TD*%
D11*
%TO.C,C7*%
X101343800Y-109792300D03*
X101343800Y-111867300D03*
%TD*%
D15*
%TO.C,R9*%
X123593800Y-119154800D03*
X125593800Y-119154800D03*
%TD*%
%TO.C,R6*%
X119743800Y-104429800D03*
X121743800Y-104429800D03*
%TD*%
%TO.C,R4*%
X107043800Y-106969800D03*
X109043800Y-106969800D03*
%TD*%
D13*
%TO.C,R10*%
X96793800Y-107604800D03*
X94793800Y-107604800D03*
%TD*%
D15*
%TO.C,R7*%
X123593800Y-107604800D03*
X125593800Y-107604800D03*
%TD*%
D11*
%TO.C,C4*%
X116443800Y-109792300D03*
X116443800Y-111867300D03*
%TD*%
D16*
%TO.C,R3*%
X106443800Y-111829800D03*
X106443800Y-109829800D03*
%TD*%
D10*
%TO.C,R1*%
X111443800Y-109829800D03*
X111443800Y-111829800D03*
%TD*%
D17*
%TO.C,D7*%
X101988800Y-104329800D03*
X107488800Y-104329800D03*
%TD*%
D13*
%TO.C,R11*%
X96793800Y-115654800D03*
X94793800Y-115654800D03*
%TD*%
D18*
%TO.C,C9*%
X101006300Y-106969800D03*
X103081300Y-106969800D03*
%TD*%
D15*
%TO.C,R8*%
X123593800Y-115654800D03*
X125593800Y-115654800D03*
%TD*%
D18*
%TO.C,C5*%
X116208800Y-107604800D03*
X118283800Y-107604800D03*
%TD*%
D19*
%TO.C,DS1*%
X120343800Y-116129800D03*
X119643800Y-116129800D03*
X118943800Y-116129800D03*
X118243800Y-116129800D03*
X117543800Y-116129800D03*
X116843800Y-116129800D03*
X116143800Y-116129800D03*
X115443800Y-116129800D03*
X114743800Y-116129800D03*
X114043800Y-116129800D03*
X113343800Y-116129800D03*
X112643800Y-116129800D03*
X111943800Y-116129800D03*
X111243800Y-116129800D03*
X110543800Y-116129800D03*
X109843800Y-116129800D03*
X109143800Y-116129800D03*
X108443800Y-116129800D03*
X107743800Y-116129800D03*
X107043800Y-116129800D03*
X106343800Y-116129800D03*
X105643800Y-116129800D03*
X104943800Y-116129800D03*
X104243800Y-116129800D03*
X103543800Y-116129800D03*
X102843800Y-116129800D03*
X102143800Y-116129800D03*
X101443800Y-116129800D03*
X100743800Y-116129800D03*
X100043800Y-116129800D03*
%TD*%
D10*
%TO.C,R2*%
X149043800Y-88729800D03*
X149043800Y-90729800D03*
%TD*%
D11*
%TO.C,C6*%
X144143800Y-88692300D03*
X144143800Y-90767300D03*
%TD*%
D12*
%TO.C,C2*%
X159243800Y-90767300D03*
X159243800Y-88692300D03*
%TD*%
%TO.C,C1*%
X161693800Y-90767300D03*
X161693800Y-88692300D03*
%TD*%
D11*
%TO.C,C8*%
X138943800Y-88692300D03*
X138943800Y-90767300D03*
%TD*%
%TO.C,C3*%
X154143800Y-88692300D03*
X154143800Y-90767300D03*
%TD*%
D13*
%TO.C,R12*%
X136993800Y-98054800D03*
X134993800Y-98054800D03*
%TD*%
D14*
%TO.C,U1*%
X154038800Y-85549800D03*
X154038800Y-83649800D03*
X151763800Y-84599800D03*
%TD*%
D15*
%TO.C,R5*%
X156143800Y-83329800D03*
X158143800Y-83329800D03*
%TD*%
D11*
%TO.C,C7*%
X141543800Y-88692300D03*
X141543800Y-90767300D03*
%TD*%
D15*
%TO.C,R9*%
X163793800Y-98054800D03*
X165793800Y-98054800D03*
%TD*%
%TO.C,R6*%
X159943800Y-83329800D03*
X161943800Y-83329800D03*
%TD*%
%TO.C,R4*%
X147243800Y-85869800D03*
X149243800Y-85869800D03*
%TD*%
D13*
%TO.C,R10*%
X136993800Y-86504800D03*
X134993800Y-86504800D03*
%TD*%
D15*
%TO.C,R7*%
X163793800Y-86504800D03*
X165793800Y-86504800D03*
%TD*%
D11*
%TO.C,C4*%
X156643800Y-88692300D03*
X156643800Y-90767300D03*
%TD*%
D16*
%TO.C,R3*%
X146643800Y-90729800D03*
X146643800Y-88729800D03*
%TD*%
D10*
%TO.C,R1*%
X151643800Y-88729800D03*
X151643800Y-90729800D03*
%TD*%
D17*
%TO.C,D7*%
X142188800Y-83229800D03*
X147688800Y-83229800D03*
%TD*%
D13*
%TO.C,R11*%
X136993800Y-94554800D03*
X134993800Y-94554800D03*
%TD*%
D18*
%TO.C,C9*%
X141206300Y-85869800D03*
X143281300Y-85869800D03*
%TD*%
D15*
%TO.C,R8*%
X163793800Y-94554800D03*
X165793800Y-94554800D03*
%TD*%
D18*
%TO.C,C5*%
X156408800Y-86504800D03*
X158483800Y-86504800D03*
%TD*%
D19*
%TO.C,DS1*%
X160543800Y-95029800D03*
X159843800Y-95029800D03*
X159143800Y-95029800D03*
X158443800Y-95029800D03*
X157743800Y-95029800D03*
X157043800Y-95029800D03*
X156343800Y-95029800D03*
X155643800Y-95029800D03*
X154943800Y-95029800D03*
X154243800Y-95029800D03*
X153543800Y-95029800D03*
X152843800Y-95029800D03*
X152143800Y-95029800D03*
X151443800Y-95029800D03*
X150743800Y-95029800D03*
X150043800Y-95029800D03*
X149343800Y-95029800D03*
X148643800Y-95029800D03*
X147943800Y-95029800D03*
X147243800Y-95029800D03*
X146543800Y-95029800D03*
X145843800Y-95029800D03*
X145143800Y-95029800D03*
X144443800Y-95029800D03*
X143743800Y-95029800D03*
X143043800Y-95029800D03*
X142343800Y-95029800D03*
X141643800Y-95029800D03*
X140943800Y-95029800D03*
X140243800Y-95029800D03*
%TD*%
D10*
%TO.C,R2*%
X108843800Y-88729800D03*
X108843800Y-90729800D03*
%TD*%
D11*
%TO.C,C6*%
X103943800Y-88692300D03*
X103943800Y-90767300D03*
%TD*%
D12*
%TO.C,C2*%
X119043800Y-90767300D03*
X119043800Y-88692300D03*
%TD*%
%TO.C,C1*%
X121493800Y-90767300D03*
X121493800Y-88692300D03*
%TD*%
D11*
%TO.C,C8*%
X98743800Y-88692300D03*
X98743800Y-90767300D03*
%TD*%
%TO.C,C3*%
X113943800Y-88692300D03*
X113943800Y-90767300D03*
%TD*%
D13*
%TO.C,R12*%
X96793800Y-98054800D03*
X94793800Y-98054800D03*
%TD*%
D14*
%TO.C,U1*%
X113838800Y-85549800D03*
X113838800Y-83649800D03*
X111563800Y-84599800D03*
%TD*%
D15*
%TO.C,R5*%
X115943800Y-83329800D03*
X117943800Y-83329800D03*
%TD*%
D11*
%TO.C,C7*%
X101343800Y-88692300D03*
X101343800Y-90767300D03*
%TD*%
D15*
%TO.C,R9*%
X123593800Y-98054800D03*
X125593800Y-98054800D03*
%TD*%
%TO.C,R6*%
X119743800Y-83329800D03*
X121743800Y-83329800D03*
%TD*%
%TO.C,R4*%
X107043800Y-85869800D03*
X109043800Y-85869800D03*
%TD*%
D13*
%TO.C,R10*%
X96793800Y-86504800D03*
X94793800Y-86504800D03*
%TD*%
D15*
%TO.C,R7*%
X123593800Y-86504800D03*
X125593800Y-86504800D03*
%TD*%
D11*
%TO.C,C4*%
X116443800Y-88692300D03*
X116443800Y-90767300D03*
%TD*%
D16*
%TO.C,R3*%
X106443800Y-90729800D03*
X106443800Y-88729800D03*
%TD*%
D10*
%TO.C,R1*%
X111443800Y-88729800D03*
X111443800Y-90729800D03*
%TD*%
D17*
%TO.C,D7*%
X101988800Y-83229800D03*
X107488800Y-83229800D03*
%TD*%
D13*
%TO.C,R11*%
X96793800Y-94554800D03*
X94793800Y-94554800D03*
%TD*%
D18*
%TO.C,C9*%
X101006300Y-85869800D03*
X103081300Y-85869800D03*
%TD*%
D15*
%TO.C,R8*%
X123593800Y-94554800D03*
X125593800Y-94554800D03*
%TD*%
D18*
%TO.C,C5*%
X116208800Y-86504800D03*
X118283800Y-86504800D03*
%TD*%
D19*
%TO.C,DS1*%
X120343800Y-95029800D03*
X119643800Y-95029800D03*
X118943800Y-95029800D03*
X118243800Y-95029800D03*
X117543800Y-95029800D03*
X116843800Y-95029800D03*
X116143800Y-95029800D03*
X115443800Y-95029800D03*
X114743800Y-95029800D03*
X114043800Y-95029800D03*
X113343800Y-95029800D03*
X112643800Y-95029800D03*
X111943800Y-95029800D03*
X111243800Y-95029800D03*
X110543800Y-95029800D03*
X109843800Y-95029800D03*
X109143800Y-95029800D03*
X108443800Y-95029800D03*
X107743800Y-95029800D03*
X107043800Y-95029800D03*
X106343800Y-95029800D03*
X105643800Y-95029800D03*
X104943800Y-95029800D03*
X104243800Y-95029800D03*
X103543800Y-95029800D03*
X102843800Y-95029800D03*
X102143800Y-95029800D03*
X101443800Y-95029800D03*
X100743800Y-95029800D03*
X100043800Y-95029800D03*
%TD*%
D10*
%TO.C,R2*%
X149043800Y-67629800D03*
X149043800Y-69629800D03*
%TD*%
D11*
%TO.C,C6*%
X144143800Y-67592300D03*
X144143800Y-69667300D03*
%TD*%
D12*
%TO.C,C2*%
X159243800Y-69667300D03*
X159243800Y-67592300D03*
%TD*%
%TO.C,C1*%
X161693800Y-69667300D03*
X161693800Y-67592300D03*
%TD*%
D11*
%TO.C,C8*%
X138943800Y-67592300D03*
X138943800Y-69667300D03*
%TD*%
%TO.C,C3*%
X154143800Y-67592300D03*
X154143800Y-69667300D03*
%TD*%
D13*
%TO.C,R12*%
X136993800Y-76954800D03*
X134993800Y-76954800D03*
%TD*%
D14*
%TO.C,U1*%
X154038800Y-64449800D03*
X154038800Y-62549800D03*
X151763800Y-63499800D03*
%TD*%
D15*
%TO.C,R5*%
X156143800Y-62229800D03*
X158143800Y-62229800D03*
%TD*%
D11*
%TO.C,C7*%
X141543800Y-67592300D03*
X141543800Y-69667300D03*
%TD*%
D15*
%TO.C,R9*%
X163793800Y-76954800D03*
X165793800Y-76954800D03*
%TD*%
%TO.C,R6*%
X159943800Y-62229800D03*
X161943800Y-62229800D03*
%TD*%
%TO.C,R4*%
X147243800Y-64769800D03*
X149243800Y-64769800D03*
%TD*%
D13*
%TO.C,R10*%
X136993800Y-65404800D03*
X134993800Y-65404800D03*
%TD*%
D15*
%TO.C,R7*%
X163793800Y-65404800D03*
X165793800Y-65404800D03*
%TD*%
D11*
%TO.C,C4*%
X156643800Y-67592300D03*
X156643800Y-69667300D03*
%TD*%
D16*
%TO.C,R3*%
X146643800Y-69629800D03*
X146643800Y-67629800D03*
%TD*%
D10*
%TO.C,R1*%
X151643800Y-67629800D03*
X151643800Y-69629800D03*
%TD*%
D17*
%TO.C,D7*%
X142188800Y-62129800D03*
X147688800Y-62129800D03*
%TD*%
D13*
%TO.C,R11*%
X136993800Y-73454800D03*
X134993800Y-73454800D03*
%TD*%
D18*
%TO.C,C9*%
X141206300Y-64769800D03*
X143281300Y-64769800D03*
%TD*%
D15*
%TO.C,R8*%
X163793800Y-73454800D03*
X165793800Y-73454800D03*
%TD*%
D18*
%TO.C,C5*%
X156408800Y-65404800D03*
X158483800Y-65404800D03*
%TD*%
D19*
%TO.C,DS1*%
X160543800Y-73929800D03*
X159843800Y-73929800D03*
X159143800Y-73929800D03*
X158443800Y-73929800D03*
X157743800Y-73929800D03*
X157043800Y-73929800D03*
X156343800Y-73929800D03*
X155643800Y-73929800D03*
X154943800Y-73929800D03*
X154243800Y-73929800D03*
X153543800Y-73929800D03*
X152843800Y-73929800D03*
X152143800Y-73929800D03*
X151443800Y-73929800D03*
X150743800Y-73929800D03*
X150043800Y-73929800D03*
X149343800Y-73929800D03*
X148643800Y-73929800D03*
X147943800Y-73929800D03*
X147243800Y-73929800D03*
X146543800Y-73929800D03*
X145843800Y-73929800D03*
X145143800Y-73929800D03*
X144443800Y-73929800D03*
X143743800Y-73929800D03*
X143043800Y-73929800D03*
X142343800Y-73929800D03*
X141643800Y-73929800D03*
X140943800Y-73929800D03*
X140243800Y-73929800D03*
%TD*%
D18*
%TO.C,C9*%
X101006300Y-64769800D03*
X103081300Y-64769800D03*
%TD*%
D16*
%TO.C,R3*%
X106443800Y-69629800D03*
X106443800Y-67629800D03*
%TD*%
D11*
%TO.C,C8*%
X98743800Y-67592300D03*
X98743800Y-69667300D03*
%TD*%
D12*
%TO.C,C2*%
X119043800Y-69667300D03*
X119043800Y-67592300D03*
%TD*%
D11*
%TO.C,C6*%
X103943800Y-67592300D03*
X103943800Y-69667300D03*
%TD*%
D19*
%TO.C,DS1*%
X120343800Y-73929800D03*
X119643800Y-73929800D03*
X118943800Y-73929800D03*
X118243800Y-73929800D03*
X117543800Y-73929800D03*
X116843800Y-73929800D03*
X116143800Y-73929800D03*
X115443800Y-73929800D03*
X114743800Y-73929800D03*
X114043800Y-73929800D03*
X113343800Y-73929800D03*
X112643800Y-73929800D03*
X111943800Y-73929800D03*
X111243800Y-73929800D03*
X110543800Y-73929800D03*
X109843800Y-73929800D03*
X109143800Y-73929800D03*
X108443800Y-73929800D03*
X107743800Y-73929800D03*
X107043800Y-73929800D03*
X106343800Y-73929800D03*
X105643800Y-73929800D03*
X104943800Y-73929800D03*
X104243800Y-73929800D03*
X103543800Y-73929800D03*
X102843800Y-73929800D03*
X102143800Y-73929800D03*
X101443800Y-73929800D03*
X100743800Y-73929800D03*
X100043800Y-73929800D03*
%TD*%
D15*
%TO.C,R8*%
X123593800Y-73454800D03*
X125593800Y-73454800D03*
%TD*%
%TO.C,R7*%
X123593800Y-65404800D03*
X125593800Y-65404800D03*
%TD*%
D11*
%TO.C,C4*%
X116443800Y-67592300D03*
X116443800Y-69667300D03*
%TD*%
D10*
%TO.C,R2*%
X108843800Y-67629800D03*
X108843800Y-69629800D03*
%TD*%
D13*
%TO.C,R10*%
X96793800Y-65404800D03*
X94793800Y-65404800D03*
%TD*%
D15*
%TO.C,R9*%
X123593800Y-76954800D03*
X125593800Y-76954800D03*
%TD*%
%TO.C,R4*%
X107043800Y-64769800D03*
X109043800Y-64769800D03*
%TD*%
%TO.C,R5*%
X115943800Y-62229800D03*
X117943800Y-62229800D03*
%TD*%
D12*
%TO.C,C1*%
X121493800Y-69667300D03*
X121493800Y-67592300D03*
%TD*%
D10*
%TO.C,R1*%
X111443800Y-67629800D03*
X111443800Y-69629800D03*
%TD*%
D13*
%TO.C,R11*%
X96793800Y-73454800D03*
X94793800Y-73454800D03*
%TD*%
D14*
%TO.C,U1*%
X113838800Y-64449800D03*
X113838800Y-62549800D03*
X111563800Y-63499800D03*
%TD*%
D11*
%TO.C,C3*%
X113943800Y-67592300D03*
X113943800Y-69667300D03*
%TD*%
D18*
%TO.C,C5*%
X116208800Y-65404800D03*
X118283800Y-65404800D03*
%TD*%
D13*
%TO.C,R12*%
X96793800Y-76954800D03*
X94793800Y-76954800D03*
%TD*%
D15*
%TO.C,R6*%
X119743800Y-62229800D03*
X121743800Y-62229800D03*
%TD*%
D17*
%TO.C,D7*%
X101988800Y-62129800D03*
X107488800Y-62129800D03*
%TD*%
D11*
%TO.C,C7*%
X101343800Y-67592300D03*
X101343800Y-69667300D03*
%TD*%
M02*
