M48
; DRILL file {KiCad 7.0.11+dfsg-1build4} date dom 07 jun 2026 18:18:17
; FORMAT={-:-/ absolute / metric / decimal}
; #@! TF.CreationDate,2026-06-07T18:18:17-05:00
; #@! TF.GenerationSoftware,Kicad,Pcbnew,7.0.11+dfsg-1build4
; #@! TF.FileFunction,Plated,1,2,PTH
FMAT,2
METRIC
; #@! TA.AperFunction,Plated,PTH,ViaDrill
T1C0.300
; #@! TA.AperFunction,Plated,PTH,ComponentDrill
T2C1.000
%
G90
G05
T1
X95.729Y-62.281
X95.729Y-83.381
X95.729Y-104.481
X95.729Y-125.581
X95.83Y-74.93
X95.83Y-96.03
X95.83Y-117.13
X95.83Y-138.23
X96.491Y-70.815
X96.491Y-91.915
X96.491Y-113.015
X96.491Y-134.115
X97.964Y-72.39
X97.964Y-78.74
X97.964Y-93.49
X97.964Y-99.84
X97.964Y-114.59
X97.964Y-120.94
X97.964Y-135.69
X97.964Y-142.04
X104.314Y-61.43
X104.314Y-82.53
X104.314Y-103.63
X104.314Y-124.73
X108.209Y-65.817
X108.209Y-86.917
X108.209Y-108.017
X108.209Y-129.117
X108.751Y-71.321
X108.751Y-92.421
X108.751Y-113.521
X108.751Y-134.621
X109.622Y-71.3
X109.622Y-92.4
X109.622Y-113.5
X109.622Y-134.6
X110.481Y-68.597
X110.481Y-89.697
X110.481Y-110.797
X110.481Y-131.897
X110.664Y-61.595
X110.664Y-82.695
X110.664Y-103.795
X110.664Y-124.895
X110.969Y-70.804
X110.969Y-91.904
X110.969Y-113.004
X110.969Y-134.104
X115.249Y-70.663
X115.249Y-91.763
X115.249Y-112.863
X115.249Y-133.963
X116.927Y-63.765
X116.927Y-84.865
X116.927Y-105.965
X116.927Y-127.065
X120.205Y-64.87
X120.205Y-85.969
X120.205Y-107.069
X120.205Y-128.169
X122.094Y-74.93
X122.094Y-78.74
X122.094Y-96.03
X122.094Y-99.84
X122.094Y-117.13
X122.094Y-120.94
X122.094Y-138.23
X122.094Y-142.04
X124.126Y-70.815
X124.126Y-75.184
X124.126Y-91.915
X124.126Y-96.284
X124.126Y-113.015
X124.126Y-117.384
X124.126Y-134.115
X124.126Y-138.484
X124.329Y-62.687
X124.329Y-83.787
X124.329Y-104.887
X124.329Y-125.987
X135.929Y-62.281
X135.929Y-83.381
X135.929Y-104.481
X135.929Y-125.581
X136.03Y-74.93
X136.03Y-96.03
X136.03Y-117.13
X136.03Y-138.23
X136.691Y-70.815
X136.691Y-91.915
X136.691Y-113.015
X136.691Y-134.115
X138.164Y-72.39
X138.164Y-78.74
X138.164Y-93.49
X138.164Y-99.84
X138.164Y-114.59
X138.164Y-120.94
X138.164Y-135.69
X138.164Y-142.04
X144.514Y-61.43
X144.514Y-82.53
X144.514Y-103.63
X144.514Y-124.73
X148.409Y-65.817
X148.409Y-86.917
X148.409Y-108.017
X148.409Y-129.117
X148.951Y-71.321
X148.951Y-92.421
X148.951Y-113.521
X148.951Y-134.621
X149.822Y-71.3
X149.822Y-92.4
X149.822Y-113.5
X149.822Y-134.6
X150.681Y-68.597
X150.681Y-89.697
X150.681Y-110.797
X150.681Y-131.897
X150.864Y-61.595
X150.864Y-82.695
X150.864Y-103.795
X150.864Y-124.895
X151.169Y-70.804
X151.169Y-91.904
X151.169Y-113.004
X151.169Y-134.104
X155.449Y-70.663
X155.449Y-91.763
X155.449Y-112.863
X155.449Y-133.963
X157.127Y-63.765
X157.127Y-84.865
X157.127Y-105.965
X157.127Y-127.065
X160.405Y-64.87
X160.405Y-85.969
X160.405Y-107.069
X160.405Y-128.169
X162.294Y-74.93
X162.294Y-78.74
X162.294Y-96.03
X162.294Y-99.84
X162.294Y-117.13
X162.294Y-120.94
X162.294Y-138.23
X162.294Y-142.04
X164.326Y-70.815
X164.326Y-75.184
X164.326Y-91.915
X164.326Y-96.284
X164.326Y-113.015
X164.326Y-117.384
X164.326Y-134.115
X164.326Y-138.484
X164.529Y-62.687
X164.529Y-83.787
X164.529Y-104.887
X164.529Y-125.987
T2
X91.864Y-62.29
X91.864Y-64.83
X91.864Y-67.37
X91.864Y-69.91
X91.864Y-72.45
X91.864Y-74.99
X91.864Y-77.53
X91.864Y-80.07
X91.864Y-83.39
X91.864Y-85.93
X91.864Y-88.47
X91.864Y-91.01
X91.864Y-93.55
X91.864Y-96.09
X91.864Y-98.63
X91.864Y-101.17
X91.864Y-104.49
X91.864Y-107.03
X91.864Y-109.57
X91.864Y-112.11
X91.864Y-114.65
X91.864Y-117.19
X91.864Y-119.73
X91.864Y-122.27
X91.864Y-125.59
X91.864Y-128.13
X91.864Y-130.67
X91.864Y-133.21
X91.864Y-135.75
X91.864Y-138.29
X91.864Y-140.83
X91.864Y-143.37
X128.524Y-62.29
X128.524Y-64.83
X128.524Y-67.37
X128.524Y-69.91
X128.524Y-72.45
X128.524Y-74.99
X128.524Y-77.53
X128.524Y-80.07
X128.524Y-83.39
X128.524Y-85.93
X128.524Y-88.47
X128.524Y-91.01
X128.524Y-93.55
X128.524Y-96.09
X128.524Y-98.63
X128.524Y-101.17
X128.524Y-104.49
X128.524Y-107.03
X128.524Y-109.57
X128.524Y-112.11
X128.524Y-114.65
X128.524Y-117.19
X128.524Y-119.73
X128.524Y-122.27
X128.524Y-125.59
X128.524Y-128.13
X128.524Y-130.67
X128.524Y-133.21
X128.524Y-135.75
X128.524Y-138.29
X128.524Y-140.83
X128.524Y-143.37
X132.064Y-62.29
X132.064Y-64.83
X132.064Y-67.37
X132.064Y-69.91
X132.064Y-72.45
X132.064Y-74.99
X132.064Y-77.53
X132.064Y-80.07
X132.064Y-83.39
X132.064Y-85.93
X132.064Y-88.47
X132.064Y-91.01
X132.064Y-93.55
X132.064Y-96.09
X132.064Y-98.63
X132.064Y-101.17
X132.064Y-104.49
X132.064Y-107.03
X132.064Y-109.57
X132.064Y-112.11
X132.064Y-114.65
X132.064Y-117.19
X132.064Y-119.73
X132.064Y-122.27
X132.064Y-125.59
X132.064Y-128.13
X132.064Y-130.67
X132.064Y-133.21
X132.064Y-135.75
X132.064Y-138.29
X132.064Y-140.83
X132.064Y-143.37
X168.724Y-62.29
X168.724Y-64.83
X168.724Y-67.37
X168.724Y-69.91
X168.724Y-72.45
X168.724Y-74.99
X168.724Y-77.53
X168.724Y-80.07
X168.724Y-83.39
X168.724Y-85.93
X168.724Y-88.47
X168.724Y-91.01
X168.724Y-93.55
X168.724Y-96.09
X168.724Y-98.63
X168.724Y-101.17
X168.724Y-104.49
X168.724Y-107.03
X168.724Y-109.57
X168.724Y-112.11
X168.724Y-114.65
X168.724Y-117.19
X168.724Y-119.73
X168.724Y-122.27
X168.724Y-125.59
X168.724Y-128.13
X168.724Y-130.67
X168.724Y-133.21
X168.724Y-135.75
X168.724Y-138.29
X168.724Y-140.83
X168.724Y-143.37
M30
