M48
; DRILL file {KiCad 7.0.11+dfsg-1build4} date lun 11 may 2026 14:41:19
; FORMAT={-:-/ absolute / metric / decimal}
; #@! TF.CreationDate,2026-05-11T14:41:19-05:00
; #@! TF.GenerationSoftware,Kicad,Pcbnew,7.0.11+dfsg-1build4
; #@! TF.FileFunction,Plated,1,2,PTH
FMAT,2
METRIC
; #@! TA.AperFunction,Plated,PTH,ViaDrill
T1C0.300
; #@! TA.AperFunction,Plated,PTH,ComponentDrill
T2C1.000
%
G90
G05
T1
X65.374Y-52.974
X65.374Y-66.645
X65.374Y-72.266
X65.374Y-74.075
X65.374Y-87.745
X65.374Y-93.365
X65.374Y-95.174
X65.374Y-108.845
X65.374Y-114.465
X65.374Y-116.274
X65.374Y-129.945
X65.374Y-135.565
X66.29Y-63.83
X66.29Y-70.18
X66.29Y-84.93
X66.29Y-91.28
X66.29Y-106.03
X66.29Y-112.38
X66.29Y-127.13
X66.29Y-133.48
X72.64Y-52.87
X72.64Y-73.97
X72.64Y-95.07
X72.64Y-116.17
X76.535Y-57.257
X76.535Y-78.357
X76.535Y-99.457
X76.535Y-120.557
X77.077Y-62.761
X77.077Y-83.861
X77.077Y-104.961
X77.077Y-126.061
X77.949Y-62.741
X77.949Y-83.841
X77.949Y-104.941
X77.949Y-126.041
X78.807Y-60.037
X78.807Y-81.137
X78.807Y-102.237
X78.807Y-123.337
X78.99Y-53.035
X78.99Y-74.135
X78.99Y-95.235
X78.99Y-116.335
X79.296Y-62.244
X79.296Y-83.344
X79.296Y-104.444
X79.296Y-125.544
X83.575Y-62.103
X83.575Y-83.203
X83.575Y-104.303
X83.575Y-125.403
X85.253Y-55.205
X85.253Y-76.305
X85.253Y-97.405
X85.253Y-118.505
X88.531Y-56.31
X88.531Y-77.41
X88.531Y-98.51
X88.531Y-119.61
X90.42Y-66.37
X90.42Y-70.18
X90.42Y-87.47
X90.42Y-91.28
X90.42Y-108.57
X90.42Y-112.38
X90.42Y-129.67
X90.42Y-133.48
X90.888Y-56.283
X90.888Y-68.957
X90.888Y-77.383
X90.888Y-90.057
X90.888Y-98.483
X90.888Y-111.157
X90.888Y-119.583
X90.888Y-132.257
X90.969Y-64.383
X90.969Y-85.483
X90.969Y-106.584
X90.969Y-127.683
X106.074Y-52.974
X106.074Y-66.645
X106.074Y-72.266
X106.074Y-74.075
X106.074Y-87.745
X106.074Y-93.365
X106.074Y-95.174
X106.074Y-108.845
X106.074Y-114.465
X106.074Y-116.274
X106.074Y-129.945
X106.074Y-135.565
X106.99Y-63.83
X106.99Y-70.18
X106.99Y-84.93
X106.99Y-91.28
X106.99Y-106.03
X106.99Y-112.38
X106.99Y-127.13
X106.99Y-133.48
X113.34Y-52.87
X113.34Y-73.97
X113.34Y-95.07
X113.34Y-116.17
X117.235Y-57.257
X117.235Y-78.357
X117.235Y-99.457
X117.235Y-120.557
X117.777Y-62.761
X117.777Y-83.861
X117.777Y-104.961
X117.777Y-126.061
X118.649Y-62.741
X118.649Y-83.841
X118.649Y-104.941
X118.649Y-126.041
X119.507Y-60.037
X119.507Y-81.137
X119.507Y-102.237
X119.507Y-123.337
X119.69Y-53.035
X119.69Y-74.135
X119.69Y-95.235
X119.69Y-116.335
X119.996Y-62.244
X119.996Y-83.344
X119.996Y-104.444
X119.996Y-125.544
X124.275Y-62.103
X124.275Y-83.203
X124.275Y-104.303
X124.275Y-125.403
X125.953Y-55.205
X125.953Y-76.305
X125.953Y-97.405
X125.953Y-118.505
X129.231Y-56.31
X129.231Y-77.41
X129.231Y-98.51
X129.231Y-119.61
X131.12Y-66.37
X131.12Y-70.18
X131.12Y-87.47
X131.12Y-91.28
X131.12Y-108.57
X131.12Y-112.38
X131.12Y-129.67
X131.12Y-133.48
X131.588Y-56.283
X131.588Y-68.957
X131.588Y-77.383
X131.588Y-90.057
X131.588Y-98.483
X131.588Y-111.157
X131.588Y-119.583
X131.588Y-132.257
X131.669Y-64.383
X131.669Y-85.483
X131.669Y-106.584
X131.669Y-127.683
T2
X59.94Y-53.73
X59.94Y-56.27
X59.94Y-58.81
X59.94Y-61.35
X59.94Y-63.89
X59.94Y-66.43
X59.94Y-68.97
X59.94Y-71.51
X59.94Y-74.83
X59.94Y-77.37
X59.94Y-79.91
X59.94Y-82.45
X59.94Y-84.99
X59.94Y-87.53
X59.94Y-90.07
X59.94Y-92.61
X59.94Y-95.93
X59.94Y-98.47
X59.94Y-101.01
X59.94Y-103.55
X59.94Y-106.09
X59.94Y-108.63
X59.94Y-111.17
X59.94Y-113.71
X59.94Y-117.03
X59.94Y-119.57
X59.94Y-122.11
X59.94Y-124.65
X59.94Y-127.19
X59.94Y-129.73
X59.94Y-132.27
X59.94Y-134.81
X97.1Y-53.73
X97.1Y-56.27
X97.1Y-58.81
X97.1Y-61.35
X97.1Y-63.89
X97.1Y-66.43
X97.1Y-68.97
X97.1Y-71.51
X97.1Y-74.83
X97.1Y-77.37
X97.1Y-79.91
X97.1Y-82.45
X97.1Y-84.99
X97.1Y-87.53
X97.1Y-90.07
X97.1Y-92.61
X97.1Y-95.93
X97.1Y-98.47
X97.1Y-101.01
X97.1Y-103.55
X97.1Y-106.09
X97.1Y-108.63
X97.1Y-111.17
X97.1Y-113.71
X97.1Y-117.03
X97.1Y-119.57
X97.1Y-122.11
X97.1Y-124.65
X97.1Y-127.19
X97.1Y-129.73
X97.1Y-132.27
X97.1Y-134.81
X100.64Y-53.73
X100.64Y-56.27
X100.64Y-58.81
X100.64Y-61.35
X100.64Y-63.89
X100.64Y-66.43
X100.64Y-68.97
X100.64Y-71.51
X100.64Y-74.83
X100.64Y-77.37
X100.64Y-79.91
X100.64Y-82.45
X100.64Y-84.99
X100.64Y-87.53
X100.64Y-90.07
X100.64Y-92.61
X100.64Y-95.93
X100.64Y-98.47
X100.64Y-101.01
X100.64Y-103.55
X100.64Y-106.09
X100.64Y-108.63
X100.64Y-111.17
X100.64Y-113.71
X100.64Y-117.03
X100.64Y-119.57
X100.64Y-122.11
X100.64Y-124.65
X100.64Y-127.19
X100.64Y-129.73
X100.64Y-132.27
X100.64Y-134.81
X137.8Y-53.73
X137.8Y-56.27
X137.8Y-58.81
X137.8Y-61.35
X137.8Y-63.89
X137.8Y-66.43
X137.8Y-68.97
X137.8Y-71.51
X137.8Y-74.83
X137.8Y-77.37
X137.8Y-79.91
X137.8Y-82.45
X137.8Y-84.99
X137.8Y-87.53
X137.8Y-90.07
X137.8Y-92.61
X137.8Y-95.93
X137.8Y-98.47
X137.8Y-101.01
X137.8Y-103.55
X137.8Y-106.09
X137.8Y-108.63
X137.8Y-111.17
X137.8Y-113.71
X137.8Y-117.03
X137.8Y-119.57
X137.8Y-122.11
X137.8Y-124.65
X137.8Y-127.19
X137.8Y-129.73
X137.8Y-132.27
X137.8Y-134.81
M30
