M48
; DRILL file {KiCad 7.0.11+dfsg-1build4} date dom 07 jun 2026 17:51:57
; FORMAT={-:-/ absolute / metric / decimal}
; #@! TF.CreationDate,2026-06-07T17:51:57-05:00
; #@! TF.GenerationSoftware,Kicad,Pcbnew,7.0.11+dfsg-1build4
; #@! TF.FileFunction,Plated,1,2,PTH
FMAT,2
METRIC
; #@! TA.AperFunction,Plated,PTH,ViaDrill
T1C0.300
; #@! TA.AperFunction,Plated,PTH,ComponentDrill
T2C1.000
%
G90
G05
T1
X106.985Y-101.651
X107.086Y-114.3
X107.747Y-110.185
X109.22Y-111.76
X109.22Y-118.11
X115.57Y-100.8
X119.465Y-105.187
X120.007Y-110.691
X120.879Y-110.671
X121.737Y-107.967
X121.92Y-100.965
X122.226Y-110.174
X126.505Y-110.033
X128.183Y-103.135
X131.461Y-104.24
X133.35Y-114.3
X133.35Y-118.11
X135.382Y-110.185
X135.382Y-114.554
X135.585Y-102.057
T2
X103.12Y-101.66
X103.12Y-104.2
X103.12Y-106.74
X103.12Y-109.28
X103.12Y-111.82
X103.12Y-114.36
X103.12Y-116.9
X103.12Y-119.44
X139.78Y-101.66
X139.78Y-104.2
X139.78Y-106.74
X139.78Y-109.28
X139.78Y-111.82
X139.78Y-114.36
X139.78Y-116.9
X139.78Y-119.44
M30
