%TF.GenerationSoftware,KiCad,Pcbnew,7.0.11+dfsg-1build4*%
%TF.CreationDate,2026-06-07T17:52:00-05:00*%
%TF.ProjectId,panel-mount-oled-display-display-board,70616e65-6c2d-46d6-9f75-6e742d6f6c65,rev?*%
%TF.SameCoordinates,Original*%
%TF.FileFunction,Soldermask,Top*%
%TF.FilePolarity,Negative*%
%FSLAX46Y46*%
G04 Gerber Fmt 4.6, Leading zero omitted, Abs format (unit mm)*
G04 Created by KiCad (PCBNEW 7.0.11+dfsg-1build4) date 2026-06-07 17:52:00*
%MOMM*%
%LPD*%
G01*
G04 APERTURE LIST*
G04 Aperture macros list*
%AMRoundRect*
0 Rectangle with rounded corners*
0 $1 Rounding radius*
0 $2 $3 $4 $5 $6 $7 $8 $9 X,Y pos of 4 corners*
0 Add a 4 corners polygon primitive as box body*
4,1,4,$2,$3,$4,$5,$6,$7,$8,$9,$2,$3,0*
0 Add four circle primitives for the rounded corners*
1,1,$1+$1,$2,$3*
1,1,$1+$1,$4,$5*
1,1,$1+$1,$6,$7*
1,1,$1+$1,$8,$9*
0 Add four rect primitives between the rounded corners*
20,1,$1+$1,$2,$3,$4,$5,0*
20,1,$1+$1,$4,$5,$6,$7,0*
20,1,$1+$1,$6,$7,$8,$9,0*
20,1,$1+$1,$8,$9,$2,$3,0*%
G04 Aperture macros list end*
%ADD10RoundRect,0.250000X-0.337500X-0.475000X0.337500X-0.475000X0.337500X0.475000X-0.337500X0.475000X0*%
%ADD11RoundRect,0.250000X0.450000X-0.350000X0.450000X0.350000X-0.450000X0.350000X-0.450000X-0.350000X0*%
%ADD12RoundRect,0.250000X-0.475000X0.337500X-0.475000X-0.337500X0.475000X-0.337500X0.475000X0.337500X0*%
%ADD13RoundRect,0.250000X0.475000X-0.337500X0.475000X0.337500X-0.475000X0.337500X-0.475000X-0.337500X0*%
%ADD14R,0.400000X4.000000*%
%ADD15RoundRect,0.250000X-0.350000X-0.450000X0.350000X-0.450000X0.350000X0.450000X-0.350000X0.450000X0*%
%ADD16RoundRect,0.250000X-0.450000X0.350000X-0.450000X-0.350000X0.450000X-0.350000X0.450000X0.350000X0*%
%ADD17RoundRect,0.250000X0.350000X0.450000X-0.350000X0.450000X-0.350000X-0.450000X0.350000X-0.450000X0*%
%ADD18R,1.700000X1.700000*%
%ADD19O,1.700000X1.700000*%
%ADD20RoundRect,0.150000X0.512500X0.150000X-0.512500X0.150000X-0.512500X-0.150000X0.512500X-0.150000X0*%
%ADD21RoundRect,0.250000X-1.400000X-0.600000X1.400000X-0.600000X1.400000X0.600000X-1.400000X0.600000X0*%
G04 APERTURE END LIST*
D10*
%TO.C,C9*%
X112262500Y-104140000D03*
X114337500Y-104140000D03*
%TD*%
D11*
%TO.C,R3*%
X117700000Y-109000000D03*
X117700000Y-107000000D03*
%TD*%
D12*
%TO.C,C8*%
X110000000Y-106962500D03*
X110000000Y-109037500D03*
%TD*%
D13*
%TO.C,C2*%
X130300000Y-109037500D03*
X130300000Y-106962500D03*
%TD*%
D12*
%TO.C,C6*%
X115200000Y-106962500D03*
X115200000Y-109037500D03*
%TD*%
D14*
%TO.C,DS1*%
X131600000Y-113300000D03*
X130900000Y-113300000D03*
X130200000Y-113300000D03*
X129500000Y-113300000D03*
X128800000Y-113300000D03*
X128100000Y-113300000D03*
X127400000Y-113300000D03*
X126700000Y-113300000D03*
X126000000Y-113300000D03*
X125300000Y-113300000D03*
X124600000Y-113300000D03*
X123900000Y-113300000D03*
X123200000Y-113300000D03*
X122500000Y-113300000D03*
X121800000Y-113300000D03*
X121100000Y-113300000D03*
X120400000Y-113300000D03*
X119700000Y-113300000D03*
X119000000Y-113300000D03*
X118300000Y-113300000D03*
X117600000Y-113300000D03*
X116900000Y-113300000D03*
X116200000Y-113300000D03*
X115500000Y-113300000D03*
X114800000Y-113300000D03*
X114100000Y-113300000D03*
X113400000Y-113300000D03*
X112700000Y-113300000D03*
X112000000Y-113300000D03*
X111300000Y-113300000D03*
%TD*%
D15*
%TO.C,R8*%
X134850000Y-112825000D03*
X136850000Y-112825000D03*
%TD*%
%TO.C,R7*%
X134850000Y-104775000D03*
X136850000Y-104775000D03*
%TD*%
D12*
%TO.C,C4*%
X127700000Y-106962500D03*
X127700000Y-109037500D03*
%TD*%
D16*
%TO.C,R2*%
X120100000Y-107000000D03*
X120100000Y-109000000D03*
%TD*%
D17*
%TO.C,R10*%
X108050000Y-104775000D03*
X106050000Y-104775000D03*
%TD*%
D15*
%TO.C,R9*%
X134850000Y-116325000D03*
X136850000Y-116325000D03*
%TD*%
D18*
%TO.C,J2*%
X139780000Y-101660000D03*
D19*
X139780000Y-104200000D03*
X139780000Y-106740000D03*
X139780000Y-109280000D03*
X139780000Y-111820000D03*
X139780000Y-114360000D03*
X139780000Y-116900000D03*
X139780000Y-119440000D03*
%TD*%
D15*
%TO.C,R4*%
X118300000Y-104140000D03*
X120300000Y-104140000D03*
%TD*%
%TO.C,R5*%
X127200000Y-101600000D03*
X129200000Y-101600000D03*
%TD*%
D13*
%TO.C,C1*%
X132750000Y-109037500D03*
X132750000Y-106962500D03*
%TD*%
D16*
%TO.C,R1*%
X122700000Y-107000000D03*
X122700000Y-109000000D03*
%TD*%
D17*
%TO.C,R11*%
X108050000Y-112825000D03*
X106050000Y-112825000D03*
%TD*%
D20*
%TO.C,U1*%
X125095000Y-103820000D03*
X125095000Y-101920000D03*
X122820000Y-102870000D03*
%TD*%
D12*
%TO.C,C3*%
X125200000Y-106962500D03*
X125200000Y-109037500D03*
%TD*%
D18*
%TO.C,J1*%
X103120000Y-101660000D03*
D19*
X103120000Y-104200000D03*
X103120000Y-106740000D03*
X103120000Y-109280000D03*
X103120000Y-111820000D03*
X103120000Y-114360000D03*
X103120000Y-116900000D03*
X103120000Y-119440000D03*
%TD*%
D10*
%TO.C,C5*%
X127465000Y-104775000D03*
X129540000Y-104775000D03*
%TD*%
D17*
%TO.C,R12*%
X108050000Y-116325000D03*
X106050000Y-116325000D03*
%TD*%
D15*
%TO.C,R6*%
X131000000Y-101600000D03*
X133000000Y-101600000D03*
%TD*%
D21*
%TO.C,D7*%
X113245000Y-101500000D03*
X118745000Y-101500000D03*
%TD*%
D12*
%TO.C,C7*%
X112600000Y-106962500D03*
X112600000Y-109037500D03*
%TD*%
M02*
