M48
; DRILL file {KiCad 7.0.11+dfsg-1build4} date lun 11 may 2026 14:23:18
; FORMAT={-:-/ absolute / metric / decimal}
; #@! TF.CreationDate,2026-05-11T14:23:18-05:00
; #@! TF.GenerationSoftware,Kicad,Pcbnew,7.0.11+dfsg-1build4
; #@! TF.FileFunction,Plated,1,2,PTH
FMAT,2
METRIC
; #@! TA.AperFunction,Plated,PTH,ViaDrill
T1C0.300
; #@! TA.AperFunction,Plated,PTH,ComponentDrill
T2C1.000
%
G90
G05
T1
X108.304Y-100.904
X108.304Y-114.575
X108.304Y-120.195
X109.22Y-111.76
X109.22Y-118.11
X115.57Y-100.8
X119.465Y-105.187
X120.007Y-110.691
X120.879Y-110.671
X121.737Y-107.967
X121.92Y-100.965
X122.226Y-110.174
X126.505Y-110.033
X128.183Y-103.135
X131.461Y-104.24
X133.35Y-114.3
X133.35Y-118.11
X133.818Y-104.213
X133.818Y-116.887
X133.899Y-112.313
T2
X102.87Y-101.66
X102.87Y-104.2
X102.87Y-106.74
X102.87Y-109.28
X102.87Y-111.82
X102.87Y-114.36
X102.87Y-116.9
X102.87Y-119.44
X140.03Y-101.66
X140.03Y-104.2
X140.03Y-106.74
X140.03Y-109.28
X140.03Y-111.82
X140.03Y-114.36
X140.03Y-116.9
X140.03Y-119.44
M30
