%TF.GenerationSoftware,KiCad,Pcbnew,7.0.11+dfsg-1build4*%
%TF.CreationDate,2026-05-11T14:23:22-05:00*%
%TF.ProjectId,panel-mount-oled-display-display-board,70616e65-6c2d-46d6-9f75-6e742d6f6c65,rev?*%
%TF.SameCoordinates,Original*%
%TF.FileFunction,Copper,L2,Bot*%
%TF.FilePolarity,Positive*%
%FSLAX46Y46*%
G04 Gerber Fmt 4.6, Leading zero omitted, Abs format (unit mm)*
G04 Created by KiCad (PCBNEW 7.0.11+dfsg-1build4) date 2026-05-11 14:23:22*
%MOMM*%
%LPD*%
G01*
G04 APERTURE LIST*
G04 Aperture macros list*
%AMRoundRect*
0 Rectangle with rounded corners*
0 $1 Rounding radius*
0 $2 $3 $4 $5 $6 $7 $8 $9 X,Y pos of 4 corners*
0 Add a 4 corners polygon primitive as box body*
4,1,4,$2,$3,$4,$5,$6,$7,$8,$9,$2,$3,0*
0 Add four circle primitives for the rounded corners*
1,1,$1+$1,$2,$3*
1,1,$1+$1,$4,$5*
1,1,$1+$1,$6,$7*
1,1,$1+$1,$8,$9*
0 Add four rect primitives between the rounded corners*
20,1,$1+$1,$2,$3,$4,$5,0*
20,1,$1+$1,$4,$5,$6,$7,0*
20,1,$1+$1,$6,$7,$8,$9,0*
20,1,$1+$1,$8,$9,$2,$3,0*%
G04 Aperture macros list end*
%TA.AperFunction,ComponentPad*%
%ADD10R,1.700000X1.700000*%
%TD*%
%TA.AperFunction,ComponentPad*%
%ADD11O,1.700000X1.700000*%
%TD*%
%TA.AperFunction,SMDPad,CuDef*%
%ADD12RoundRect,0.250000X0.325000X0.450000X-0.325000X0.450000X-0.325000X-0.450000X0.325000X-0.450000X0*%
%TD*%
%TA.AperFunction,SMDPad,CuDef*%
%ADD13RoundRect,0.250000X-0.325000X-0.450000X0.325000X-0.450000X0.325000X0.450000X-0.325000X0.450000X0*%
%TD*%
%TA.AperFunction,ViaPad*%
%ADD14C,0.600000*%
%TD*%
%TA.AperFunction,Conductor*%
%ADD15C,0.200000*%
%TD*%
G04 APERTURE END LIST*
D10*
%TO.P,J2,1,Pin_1*%
%TO.N,/D1K*%
X140030000Y-101660000D03*
D11*
%TO.P,J2,2,Pin_2*%
%TO.N,/D1A*%
X140030000Y-104200000D03*
%TO.P,J2,3,Pin_3*%
%TO.N,GND*%
X140030000Y-106740000D03*
%TO.P,J2,4,Pin_4*%
%TO.N,/SDA*%
X140030000Y-109280000D03*
%TO.P,J2,5,Pin_5*%
%TO.N,/D2K*%
X140030000Y-111820000D03*
%TO.P,J2,6,Pin_6*%
%TO.N,/D2A*%
X140030000Y-114360000D03*
%TO.P,J2,7,Pin_7*%
%TO.N,/D3K*%
X140030000Y-116900000D03*
%TO.P,J2,8,Pin_8*%
%TO.N,/D3A*%
X140030000Y-119440000D03*
%TD*%
D10*
%TO.P,J1,1,Pin_1*%
%TO.N,/D4K*%
X102870000Y-101660000D03*
D11*
%TO.P,J1,2,Pin_2*%
%TO.N,/D4A*%
X102870000Y-104200000D03*
%TO.P,J1,3,Pin_3*%
%TO.N,/VCC*%
X102870000Y-106740000D03*
%TO.P,J1,4,Pin_4*%
%TO.N,/SCL*%
X102870000Y-109280000D03*
%TO.P,J1,5,Pin_5*%
%TO.N,/D5K*%
X102870000Y-111820000D03*
%TO.P,J1,6,Pin_6*%
%TO.N,/D5A*%
X102870000Y-114360000D03*
%TO.P,J1,7,Pin_7*%
%TO.N,/D6K*%
X102870000Y-116900000D03*
%TO.P,J1,8,Pin_8*%
%TO.N,/D6A*%
X102870000Y-119440000D03*
%TD*%
D12*
%TO.P,D5,1,K*%
%TO.N,Net-(D5-K)*%
X107825000Y-110550000D03*
%TO.P,D5,2,A*%
%TO.N,/D5A*%
X105775000Y-110550000D03*
%TD*%
%TO.P,D4,1,K*%
%TO.N,Net-(D4-K)*%
X107825000Y-102500000D03*
%TO.P,D4,2,A*%
%TO.N,/D4A*%
X105775000Y-102500000D03*
%TD*%
%TO.P,D6,1,K*%
%TO.N,Net-(D6-K)*%
X107825000Y-118600000D03*
%TO.P,D6,2,A*%
%TO.N,/D6A*%
X105775000Y-118600000D03*
%TD*%
D13*
%TO.P,D3,1,K*%
%TO.N,Net-(D3-K)*%
X135075000Y-118600000D03*
%TO.P,D3,2,A*%
%TO.N,/D3A*%
X137125000Y-118600000D03*
%TD*%
%TO.P,D2,1,K*%
%TO.N,Net-(D2-K)*%
X135075000Y-110550000D03*
%TO.P,D2,2,A*%
%TO.N,/D2A*%
X137125000Y-110550000D03*
%TD*%
%TO.P,D1,1,K*%
%TO.N,Net-(D1-K)*%
X135075000Y-102500000D03*
%TO.P,D1,2,A*%
%TO.N,/D1A*%
X137125000Y-102500000D03*
%TD*%
D14*
%TO.N,/VCC*%
X121920000Y-100965000D03*
X115570000Y-100800000D03*
X131461300Y-104239700D03*
X126505200Y-110032800D03*
%TO.N,/SCL*%
X120006800Y-110691300D03*
%TO.N,/SDA*%
X121737200Y-107966900D03*
%TO.N,GND*%
X109220000Y-111760000D03*
X133350000Y-118110000D03*
X109220000Y-118110000D03*
X133350000Y-114300000D03*
%TO.N,Net-(DS1-D{slash}~{C})*%
X120878700Y-110670600D03*
X128183400Y-103135100D03*
%TO.N,Net-(D7-A)*%
X119464900Y-105187200D03*
X122225600Y-110174200D03*
%TO.N,Net-(D1-K)*%
X133817800Y-104213000D03*
%TO.N,Net-(D2-K)*%
X133899500Y-112313500D03*
%TO.N,Net-(D3-K)*%
X133817800Y-116887000D03*
%TO.N,Net-(D4-K)*%
X108303800Y-100904500D03*
%TO.N,Net-(D5-K)*%
X108303800Y-114575000D03*
%TO.N,Net-(D6-K)*%
X108303800Y-120195500D03*
%TD*%
D15*
%TO.N,/VCC*%
X121650000Y-100965000D02*
X121920000Y-100965000D01*
X115570000Y-100800000D02*
X115770000Y-100600000D01*
X115770000Y-100600000D02*
X121285000Y-100600000D01*
X121285000Y-100600000D02*
X121650000Y-100965000D01*
X126505200Y-110032800D02*
X131461300Y-105076700D01*
X131461300Y-105076700D02*
X131461300Y-104239700D01*
%TO.N,/SCL*%
X118595500Y-109280000D02*
X120006800Y-110691300D01*
X102870000Y-109280000D02*
X118595500Y-109280000D01*
%TO.N,/SDA*%
X121623600Y-108080500D02*
X121623600Y-110478200D01*
X128223900Y-109280000D02*
X140030000Y-109280000D01*
X121576500Y-107966900D02*
X121737200Y-107966900D01*
X121957200Y-110811800D02*
X126692100Y-110811800D01*
X121737200Y-107966900D02*
X121576500Y-107966900D01*
X121623600Y-110478200D02*
X121957200Y-110811800D01*
X121737200Y-107966900D02*
X121623600Y-108080500D01*
X126692100Y-110811800D02*
X128223900Y-109280000D01*
%TO.N,/D1A*%
X137125000Y-102500000D02*
X138825000Y-104200000D01*
X138825000Y-104200000D02*
X140030000Y-104200000D01*
%TO.N,/D2A*%
X138430000Y-111855000D02*
X137125000Y-110550000D01*
X140030000Y-114360000D02*
X139125000Y-114360000D01*
X138430000Y-113665000D02*
X138430000Y-111855000D01*
X139125000Y-114360000D02*
X138430000Y-113665000D01*
%TO.N,/D3A*%
X138038100Y-118600000D02*
X138878100Y-119440000D01*
X137125000Y-118600000D02*
X138038100Y-118600000D01*
X140030000Y-119440000D02*
X138878100Y-119440000D01*
%TO.N,/D4A*%
X104075000Y-104200000D02*
X105775000Y-102500000D01*
X102870000Y-104200000D02*
X104075000Y-104200000D01*
%TO.N,/D5A*%
X102870000Y-114360000D02*
X103445000Y-114360000D01*
X104775000Y-111550000D02*
X105775000Y-110550000D01*
X103445000Y-114360000D02*
X104775000Y-113030000D01*
X104775000Y-113030000D02*
X104775000Y-111550000D01*
%TO.N,/D6A*%
X102870000Y-119440000D02*
X104935000Y-119440000D01*
X104935000Y-119440000D02*
X105775000Y-118600000D01*
%TO.N,Net-(DS1-D{slash}~{C})*%
X118834300Y-108626200D02*
X120878700Y-110670600D01*
X120655600Y-103135100D02*
X118834300Y-104956400D01*
X118834300Y-104956400D02*
X118834300Y-108626200D01*
X128183400Y-103135100D02*
X120655600Y-103135100D01*
%TO.N,Net-(D7-A)*%
X122225600Y-110174200D02*
X122339100Y-110060700D01*
X122431400Y-110380000D02*
X122225600Y-110174200D01*
X122339100Y-107717600D02*
X119808700Y-105187200D01*
X119808700Y-105187200D02*
X119464900Y-105187200D01*
X122225600Y-110174200D02*
X122431400Y-110380000D01*
X122339100Y-110060700D02*
X122339100Y-107717600D01*
%TO.N,Net-(D1-K)*%
X135075000Y-102500000D02*
X133817800Y-103757200D01*
X133817800Y-103757200D02*
X133817800Y-104213000D01*
%TO.N,Net-(D2-K)*%
X133899500Y-112313500D02*
X133985600Y-112313500D01*
X133985600Y-112313500D02*
X133899500Y-112313500D01*
X135075000Y-111138000D02*
X133899500Y-112313500D01*
X135075000Y-110550000D02*
X135075000Y-111138000D01*
%TO.N,Net-(D3-K)*%
X135075000Y-118600000D02*
X133817800Y-117342800D01*
X133817800Y-117342800D02*
X133817800Y-116887000D01*
%TO.N,Net-(D4-K)*%
X108303800Y-100904500D02*
X107825000Y-101383300D01*
X107825000Y-101383300D02*
X107825000Y-102500000D01*
%TO.N,Net-(D5-K)*%
X107825000Y-114096200D02*
X107825000Y-110550000D01*
X108303800Y-114575000D02*
X107825000Y-114096200D01*
%TO.N,Net-(D6-K)*%
X108303800Y-120195500D02*
X107825000Y-119716700D01*
X107825000Y-119716700D02*
X107825000Y-118600000D01*
%TD*%
%TA.AperFunction,Conductor*%
%TO.N,GND*%
G36*
X118362442Y-109900185D02*
G01*
X118383084Y-109916819D01*
X119176098Y-110709833D01*
X119209583Y-110771156D01*
X119211637Y-110783630D01*
X119221430Y-110870549D01*
X119281010Y-111040821D01*
X119344693Y-111142171D01*
X119376984Y-111193562D01*
X119504538Y-111321116D01*
X119554377Y-111352432D01*
X119624332Y-111396388D01*
X119657278Y-111417089D01*
X119768388Y-111455968D01*
X119827545Y-111476668D01*
X119827550Y-111476669D01*
X120006796Y-111496865D01*
X120006800Y-111496865D01*
X120006804Y-111496865D01*
X120186049Y-111476669D01*
X120186051Y-111476668D01*
X120186055Y-111476668D01*
X120186058Y-111476666D01*
X120186062Y-111476666D01*
X120249877Y-111454335D01*
X120356322Y-111417089D01*
X120393250Y-111393884D01*
X120460482Y-111374885D01*
X120525190Y-111393884D01*
X120529175Y-111396388D01*
X120699445Y-111455968D01*
X120699450Y-111455969D01*
X120878696Y-111476165D01*
X120878700Y-111476165D01*
X120878704Y-111476165D01*
X121057949Y-111455969D01*
X121057952Y-111455968D01*
X121057955Y-111455968D01*
X121228222Y-111396389D01*
X121380962Y-111300416D01*
X121402444Y-111278933D01*
X121463766Y-111245448D01*
X121533457Y-111250431D01*
X121565610Y-111268236D01*
X121567851Y-111269956D01*
X121654359Y-111336336D01*
X121654361Y-111336336D01*
X121654363Y-111336338D01*
X121706243Y-111357827D01*
X121800438Y-111396844D01*
X121878819Y-111407163D01*
X121957199Y-111417482D01*
X121957200Y-111417482D01*
X121988502Y-111413360D01*
X122004687Y-111412300D01*
X126644613Y-111412300D01*
X126660797Y-111413360D01*
X126692100Y-111417482D01*
X126692101Y-111417482D01*
X126744354Y-111410602D01*
X126848862Y-111396844D01*
X126994941Y-111336336D01*
X127081449Y-111269956D01*
X127120382Y-111240082D01*
X127139610Y-111215022D01*
X127150289Y-111202844D01*
X128436316Y-109916819D01*
X128497639Y-109883334D01*
X128523997Y-109880500D01*
X133879502Y-109880500D01*
X133946541Y-109900185D01*
X133992296Y-109952989D01*
X134002860Y-110017103D01*
X133999500Y-110049983D01*
X133999500Y-111050001D01*
X133999501Y-111050019D01*
X134010000Y-111152796D01*
X134010002Y-111152803D01*
X134035961Y-111231143D01*
X134038362Y-111300971D01*
X134005936Y-111357827D01*
X133880965Y-111482798D01*
X133819642Y-111516283D01*
X133807168Y-111518337D01*
X133720250Y-111528130D01*
X133549978Y-111587710D01*
X133397237Y-111683684D01*
X133269684Y-111811237D01*
X133173711Y-111963976D01*
X133114131Y-112134245D01*
X133114130Y-112134250D01*
X133093935Y-112313496D01*
X133093935Y-112313503D01*
X133114130Y-112492749D01*
X133114131Y-112492754D01*
X133173711Y-112663023D01*
X133248008Y-112781265D01*
X133269684Y-112815762D01*
X133397238Y-112943316D01*
X133477957Y-112994035D01*
X133535194Y-113030000D01*
X133549978Y-113039289D01*
X133635916Y-113069360D01*
X133720245Y-113098868D01*
X133720250Y-113098869D01*
X133899496Y-113119065D01*
X133899500Y-113119065D01*
X133899504Y-113119065D01*
X134078749Y-113098869D01*
X134078752Y-113098868D01*
X134078755Y-113098868D01*
X134249022Y-113039289D01*
X134401762Y-112943316D01*
X134529316Y-112815762D01*
X134625289Y-112663022D01*
X134684868Y-112492755D01*
X134694661Y-112405829D01*
X134721726Y-112341418D01*
X134730190Y-112332043D01*
X135275416Y-111786818D01*
X135336739Y-111753333D01*
X135363097Y-111750499D01*
X135450002Y-111750499D01*
X135450008Y-111750499D01*
X135552797Y-111739999D01*
X135719334Y-111684814D01*
X135868656Y-111592712D01*
X135992712Y-111468656D01*
X135994461Y-111465819D01*
X135996169Y-111464283D01*
X135997193Y-111462989D01*
X135997414Y-111463163D01*
X136046406Y-111419096D01*
X136115368Y-111407872D01*
X136179451Y-111435713D01*
X136205537Y-111465817D01*
X136207288Y-111468656D01*
X136331344Y-111592712D01*
X136480666Y-111684814D01*
X136647203Y-111739999D01*
X136749991Y-111750500D01*
X137424902Y-111750499D01*
X137491941Y-111770183D01*
X137512583Y-111786818D01*
X137793181Y-112067416D01*
X137826666Y-112128739D01*
X137829500Y-112155097D01*
X137829500Y-113617512D01*
X137828439Y-113633697D01*
X137824318Y-113664998D01*
X137824318Y-113665000D01*
X137829500Y-113704360D01*
X137829500Y-113704361D01*
X137844955Y-113821760D01*
X137844956Y-113821762D01*
X137905464Y-113967841D01*
X137985954Y-114072738D01*
X138001719Y-114093283D01*
X138026769Y-114112504D01*
X138038964Y-114123199D01*
X138666799Y-114751034D01*
X138677493Y-114763228D01*
X138696718Y-114788282D01*
X138739416Y-114821045D01*
X138776313Y-114867017D01*
X138855965Y-115037830D01*
X138855967Y-115037834D01*
X138991501Y-115231395D01*
X138991506Y-115231402D01*
X139158597Y-115398493D01*
X139158603Y-115398498D01*
X139344158Y-115528425D01*
X139387783Y-115583002D01*
X139394977Y-115652500D01*
X139363454Y-115714855D01*
X139344158Y-115731575D01*
X139158597Y-115861505D01*
X138991505Y-116028597D01*
X138855965Y-116222169D01*
X138855964Y-116222171D01*
X138756098Y-116436335D01*
X138756094Y-116436344D01*
X138694938Y-116664586D01*
X138694936Y-116664596D01*
X138674341Y-116899999D01*
X138674341Y-116900000D01*
X138694936Y-117135403D01*
X138694938Y-117135413D01*
X138756094Y-117363655D01*
X138756096Y-117363659D01*
X138756097Y-117363663D01*
X138819467Y-117499560D01*
X138855965Y-117577830D01*
X138855967Y-117577834D01*
X138963149Y-117730905D01*
X138991282Y-117771083D01*
X138991501Y-117771395D01*
X138991506Y-117771402D01*
X139158597Y-117938493D01*
X139158603Y-117938498D01*
X139344158Y-118068425D01*
X139387783Y-118123002D01*
X139394977Y-118192500D01*
X139363454Y-118254855D01*
X139344158Y-118271575D01*
X139158597Y-118401505D01*
X139011400Y-118548703D01*
X138950077Y-118582188D01*
X138880385Y-118577204D01*
X138836038Y-118548703D01*
X138496299Y-118208964D01*
X138485603Y-118196767D01*
X138466386Y-118171722D01*
X138466383Y-118171720D01*
X138466382Y-118171718D01*
X138340941Y-118075464D01*
X138337491Y-118074035D01*
X138248453Y-118037154D01*
X138194050Y-117993313D01*
X138178200Y-117961597D01*
X138170544Y-117938493D01*
X138134814Y-117830666D01*
X138042712Y-117681344D01*
X137918656Y-117557288D01*
X137769334Y-117465186D01*
X137602797Y-117410001D01*
X137602795Y-117410000D01*
X137500010Y-117399500D01*
X136749998Y-117399500D01*
X136749980Y-117399501D01*
X136647203Y-117410000D01*
X136647200Y-117410001D01*
X136480668Y-117465185D01*
X136480663Y-117465187D01*
X136331342Y-117557289D01*
X136207285Y-117681346D01*
X136205537Y-117684182D01*
X136203829Y-117685717D01*
X136202807Y-117687011D01*
X136202585Y-117686836D01*
X136153589Y-117730905D01*
X136084626Y-117742126D01*
X136020544Y-117714282D01*
X135994463Y-117684182D01*
X135992714Y-117681346D01*
X135868657Y-117557289D01*
X135868656Y-117557288D01*
X135719334Y-117465186D01*
X135552797Y-117410001D01*
X135552795Y-117410000D01*
X135450016Y-117399500D01*
X135450009Y-117399500D01*
X134775097Y-117399500D01*
X134708058Y-117379815D01*
X134687416Y-117363181D01*
X134603132Y-117278897D01*
X134569647Y-117217574D01*
X134573771Y-117150264D01*
X134603168Y-117066255D01*
X134603974Y-117059094D01*
X134623365Y-116887003D01*
X134623365Y-116886996D01*
X134603169Y-116707750D01*
X134603168Y-116707745D01*
X134543589Y-116537478D01*
X134447616Y-116384738D01*
X134320062Y-116257184D01*
X134167323Y-116161211D01*
X133997054Y-116101631D01*
X133997049Y-116101630D01*
X133817804Y-116081435D01*
X133817796Y-116081435D01*
X133638550Y-116101630D01*
X133638545Y-116101631D01*
X133468276Y-116161211D01*
X133315537Y-116257184D01*
X133187984Y-116384737D01*
X133092011Y-116537476D01*
X133032431Y-116707745D01*
X133032430Y-116707750D01*
X133012235Y-116886996D01*
X133012235Y-116887003D01*
X133032430Y-117066249D01*
X133032431Y-117066254D01*
X133092011Y-117236523D01*
X133187984Y-117389262D01*
X133193057Y-117394335D01*
X133226542Y-117455658D01*
X133228315Y-117465830D01*
X133232756Y-117499562D01*
X133293264Y-117645641D01*
X133369004Y-117744347D01*
X133389519Y-117771083D01*
X133414569Y-117790304D01*
X133426764Y-117800999D01*
X133963181Y-118337416D01*
X133996666Y-118398739D01*
X133999500Y-118425097D01*
X133999500Y-119100001D01*
X133999501Y-119100019D01*
X134010000Y-119202796D01*
X134010001Y-119202799D01*
X134050000Y-119323505D01*
X134065186Y-119369334D01*
X134157288Y-119518656D01*
X134281344Y-119642712D01*
X134430666Y-119734814D01*
X134597203Y-119789999D01*
X134699991Y-119800500D01*
X135450008Y-119800499D01*
X135450016Y-119800498D01*
X135450019Y-119800498D01*
X135506302Y-119794748D01*
X135552797Y-119789999D01*
X135719334Y-119734814D01*
X135868656Y-119642712D01*
X135992712Y-119518656D01*
X135994461Y-119515819D01*
X135996169Y-119514283D01*
X135997193Y-119512989D01*
X135997414Y-119513163D01*
X136046406Y-119469096D01*
X136115368Y-119457872D01*
X136179451Y-119485713D01*
X136205537Y-119515817D01*
X136207288Y-119518656D01*
X136331344Y-119642712D01*
X136480666Y-119734814D01*
X136647203Y-119789999D01*
X136749991Y-119800500D01*
X137500008Y-119800499D01*
X137500016Y-119800498D01*
X137500019Y-119800498D01*
X137556302Y-119794748D01*
X137602797Y-119789999D01*
X137769334Y-119734814D01*
X137918656Y-119642712D01*
X137987438Y-119573929D01*
X138048757Y-119540447D01*
X138118449Y-119545431D01*
X138162797Y-119573932D01*
X138419899Y-119831034D01*
X138430593Y-119843228D01*
X138449815Y-119868279D01*
X138449816Y-119868280D01*
X138449818Y-119868282D01*
X138481587Y-119892659D01*
X138575259Y-119964536D01*
X138575261Y-119964536D01*
X138575263Y-119964538D01*
X138648298Y-119994790D01*
X138721338Y-120025044D01*
X138751225Y-120028978D01*
X138815121Y-120057243D01*
X138847423Y-120099512D01*
X138855964Y-120117829D01*
X138855965Y-120117831D01*
X138991501Y-120311395D01*
X138991506Y-120311402D01*
X139067923Y-120387819D01*
X139101408Y-120449142D01*
X139096424Y-120518834D01*
X139054552Y-120574767D01*
X138989088Y-120599184D01*
X138980242Y-120599500D01*
X133074500Y-120599500D01*
X133007461Y-120579815D01*
X132961706Y-120527011D01*
X132950500Y-120475500D01*
X132950500Y-119028039D01*
X132950499Y-119028034D01*
X132942808Y-119001842D01*
X132939050Y-118984564D01*
X132935165Y-118957546D01*
X132935165Y-118957544D01*
X132935165Y-118957543D01*
X132935163Y-118957538D01*
X132923826Y-118932713D01*
X132917643Y-118916136D01*
X132909953Y-118889948D01*
X132909953Y-118889946D01*
X132895192Y-118866978D01*
X132886714Y-118851451D01*
X132876138Y-118828294D01*
X132875377Y-118826627D01*
X132857500Y-118805996D01*
X132846903Y-118791840D01*
X132832143Y-118768872D01*
X132831032Y-118767909D01*
X132811510Y-118750992D01*
X132799006Y-118738488D01*
X132781128Y-118717857D01*
X132781123Y-118717853D01*
X132758160Y-118703095D01*
X132744000Y-118692496D01*
X132737007Y-118686437D01*
X132723373Y-118674623D01*
X132698541Y-118663282D01*
X132683019Y-118654806D01*
X132683017Y-118654805D01*
X132660053Y-118640047D01*
X132660051Y-118640046D01*
X132633858Y-118632355D01*
X132617288Y-118626174D01*
X132592457Y-118614835D01*
X132565423Y-118610947D01*
X132548154Y-118607190D01*
X132521963Y-118599500D01*
X132521961Y-118599500D01*
X132485799Y-118599500D01*
X110521961Y-118599500D01*
X110378039Y-118599500D01*
X110378036Y-118599500D01*
X110378034Y-118599501D01*
X110351842Y-118607190D01*
X110334568Y-118610948D01*
X110307544Y-118614834D01*
X110307541Y-118614835D01*
X110282710Y-118626175D01*
X110266141Y-118632355D01*
X110253171Y-118636163D01*
X110239947Y-118640047D01*
X110239945Y-118640047D01*
X110239945Y-118640048D01*
X110216982Y-118654805D01*
X110201461Y-118663280D01*
X110176628Y-118674621D01*
X110176625Y-118674623D01*
X110156000Y-118692495D01*
X110141840Y-118703095D01*
X110118876Y-118717853D01*
X110118871Y-118717857D01*
X110100993Y-118738489D01*
X110088489Y-118750993D01*
X110067857Y-118768871D01*
X110067853Y-118768876D01*
X110053095Y-118791840D01*
X110042495Y-118806000D01*
X110024623Y-118826625D01*
X110024621Y-118826628D01*
X110013280Y-118851461D01*
X110004805Y-118866982D01*
X109990048Y-118889945D01*
X109982355Y-118916141D01*
X109976175Y-118932710D01*
X109964835Y-118957541D01*
X109964834Y-118957544D01*
X109960948Y-118984568D01*
X109957190Y-119001842D01*
X109949501Y-119028034D01*
X109949500Y-119028042D01*
X109949500Y-120475500D01*
X109929815Y-120542539D01*
X109877011Y-120588294D01*
X109825500Y-120599500D01*
X109185289Y-120599500D01*
X109118250Y-120579815D01*
X109072495Y-120527011D01*
X109062551Y-120457853D01*
X109068247Y-120434546D01*
X109089167Y-120374757D01*
X109089168Y-120374755D01*
X109096306Y-120311402D01*
X109109365Y-120195503D01*
X109109365Y-120195496D01*
X109089169Y-120016250D01*
X109089168Y-120016245D01*
X109039206Y-119873462D01*
X109029589Y-119845978D01*
X109023811Y-119836783D01*
X108933615Y-119693237D01*
X108818267Y-119577889D01*
X108784782Y-119516566D01*
X108789766Y-119446874D01*
X108800405Y-119425120D01*
X108834814Y-119369334D01*
X108889999Y-119202797D01*
X108900500Y-119100009D01*
X108900499Y-118099992D01*
X108898982Y-118085145D01*
X108889999Y-117997203D01*
X108889998Y-117997200D01*
X108870544Y-117938493D01*
X108834814Y-117830666D01*
X108742712Y-117681344D01*
X108618656Y-117557288D01*
X108469334Y-117465186D01*
X108302797Y-117410001D01*
X108302795Y-117410000D01*
X108200010Y-117399500D01*
X107449998Y-117399500D01*
X107449980Y-117399501D01*
X107347203Y-117410000D01*
X107347200Y-117410001D01*
X107180668Y-117465185D01*
X107180663Y-117465187D01*
X107031342Y-117557289D01*
X106907285Y-117681346D01*
X106905537Y-117684182D01*
X106903829Y-117685717D01*
X106902807Y-117687011D01*
X106902585Y-117686836D01*
X106853589Y-117730905D01*
X106784626Y-117742126D01*
X106720544Y-117714282D01*
X106694463Y-117684182D01*
X106692714Y-117681346D01*
X106568657Y-117557289D01*
X106568656Y-117557288D01*
X106419334Y-117465186D01*
X106252797Y-117410001D01*
X106252795Y-117410000D01*
X106150010Y-117399500D01*
X105399998Y-117399500D01*
X105399980Y-117399501D01*
X105297203Y-117410000D01*
X105297200Y-117410001D01*
X105130668Y-117465185D01*
X105130663Y-117465187D01*
X104981342Y-117557289D01*
X104857289Y-117681342D01*
X104765187Y-117830663D01*
X104765186Y-117830666D01*
X104710001Y-117997203D01*
X104710001Y-117997204D01*
X104710000Y-117997204D01*
X104699500Y-118099983D01*
X104699500Y-118715500D01*
X104679815Y-118782539D01*
X104627011Y-118828294D01*
X104575500Y-118839500D01*
X104159091Y-118839500D01*
X104092052Y-118819815D01*
X104046711Y-118767909D01*
X104044036Y-118762173D01*
X104044034Y-118762170D01*
X103995247Y-118692495D01*
X103982734Y-118674624D01*
X103908494Y-118568597D01*
X103741402Y-118401506D01*
X103741396Y-118401501D01*
X103555842Y-118271575D01*
X103512217Y-118216998D01*
X103505023Y-118147500D01*
X103536546Y-118085145D01*
X103555842Y-118068425D01*
X103632203Y-118014956D01*
X103741401Y-117938495D01*
X103908495Y-117771401D01*
X104044035Y-117577830D01*
X104143903Y-117363663D01*
X104205063Y-117135408D01*
X104225659Y-116900000D01*
X104205063Y-116664592D01*
X104143903Y-116436337D01*
X104044035Y-116222171D01*
X103959633Y-116101631D01*
X103908494Y-116028597D01*
X103741402Y-115861506D01*
X103741396Y-115861501D01*
X103555842Y-115731575D01*
X103512217Y-115676998D01*
X103505023Y-115607500D01*
X103536546Y-115545145D01*
X103555842Y-115528425D01*
X103578026Y-115512891D01*
X103741401Y-115398495D01*
X103908495Y-115231401D01*
X104044035Y-115037830D01*
X104143903Y-114823663D01*
X104205063Y-114595408D01*
X104215149Y-114480109D01*
X104240601Y-114415043D01*
X104250988Y-114403245D01*
X105166043Y-113488190D01*
X105178223Y-113477509D01*
X105203282Y-113458282D01*
X105299536Y-113332841D01*
X105360044Y-113186762D01*
X105375500Y-113069361D01*
X105380682Y-113030000D01*
X105376561Y-112998697D01*
X105375500Y-112982512D01*
X105375500Y-111874499D01*
X105395185Y-111807460D01*
X105447989Y-111761705D01*
X105499500Y-111750499D01*
X106150002Y-111750499D01*
X106150008Y-111750499D01*
X106252797Y-111739999D01*
X106419334Y-111684814D01*
X106568656Y-111592712D01*
X106692712Y-111468656D01*
X106694461Y-111465819D01*
X106696169Y-111464283D01*
X106697193Y-111462989D01*
X106697414Y-111463163D01*
X106746406Y-111419096D01*
X106815368Y-111407872D01*
X106879451Y-111435713D01*
X106905537Y-111465817D01*
X106907288Y-111468656D01*
X107031344Y-111592712D01*
X107165597Y-111675519D01*
X107212321Y-111727465D01*
X107224500Y-111781057D01*
X107224500Y-114048712D01*
X107223438Y-114064897D01*
X107219318Y-114096200D01*
X107221464Y-114112504D01*
X107224500Y-114135560D01*
X107224500Y-114135561D01*
X107239955Y-114252960D01*
X107239956Y-114252962D01*
X107300464Y-114399041D01*
X107362672Y-114480112D01*
X107396719Y-114524483D01*
X107421769Y-114543704D01*
X107433964Y-114554399D01*
X107473098Y-114593533D01*
X107506583Y-114654856D01*
X107508637Y-114667330D01*
X107518430Y-114754249D01*
X107578010Y-114924521D01*
X107649207Y-115037830D01*
X107673984Y-115077262D01*
X107801538Y-115204816D01*
X107954278Y-115300789D01*
X108124545Y-115360368D01*
X108124550Y-115360369D01*
X108303796Y-115380565D01*
X108303800Y-115380565D01*
X108303804Y-115380565D01*
X108483049Y-115360369D01*
X108483052Y-115360368D01*
X108483055Y-115360368D01*
X108653322Y-115300789D01*
X108806062Y-115204816D01*
X108933616Y-115077262D01*
X109029589Y-114924522D01*
X109089168Y-114754255D01*
X109098962Y-114667330D01*
X109109365Y-114575003D01*
X109109365Y-114574996D01*
X109089169Y-114395750D01*
X109089168Y-114395745D01*
X109029588Y-114225476D01*
X108961711Y-114117451D01*
X108933616Y-114072738D01*
X108806062Y-113945184D01*
X108713294Y-113886894D01*
X108653321Y-113849210D01*
X108555631Y-113815027D01*
X108508545Y-113798551D01*
X108451770Y-113757830D01*
X108426022Y-113692878D01*
X108425500Y-113681510D01*
X108425500Y-111781057D01*
X108445185Y-111714018D01*
X108484401Y-111675520D01*
X108618656Y-111592712D01*
X108742712Y-111468656D01*
X108834814Y-111319334D01*
X108889999Y-111152797D01*
X108900500Y-111050009D01*
X108900499Y-110049992D01*
X108897139Y-110017101D01*
X108909908Y-109948410D01*
X108957789Y-109897525D01*
X109020497Y-109880500D01*
X118295403Y-109880500D01*
X118362442Y-109900185D01*
G37*
%TD.AperFunction*%
%TA.AperFunction,Conductor*%
G36*
X114726463Y-100520185D02*
G01*
X114772218Y-100572989D01*
X114782644Y-100638383D01*
X114764435Y-100799996D01*
X114764435Y-100800003D01*
X114784630Y-100979249D01*
X114784631Y-100979254D01*
X114844211Y-101149523D01*
X114892602Y-101226536D01*
X114940184Y-101302262D01*
X115067738Y-101429816D01*
X115220478Y-101525789D01*
X115366568Y-101576908D01*
X115390745Y-101585368D01*
X115390750Y-101585369D01*
X115569996Y-101605565D01*
X115570000Y-101605565D01*
X115570004Y-101605565D01*
X115749249Y-101585369D01*
X115749252Y-101585368D01*
X115749255Y-101585368D01*
X115919522Y-101525789D01*
X116072262Y-101429816D01*
X116199816Y-101302262D01*
X116214295Y-101279219D01*
X116227297Y-101258527D01*
X116279631Y-101212237D01*
X116332290Y-101200500D01*
X120984903Y-101200500D01*
X121051942Y-101220185D01*
X121072584Y-101236819D01*
X121191799Y-101356034D01*
X121202493Y-101368228D01*
X121221717Y-101393281D01*
X121221718Y-101393282D01*
X121246501Y-101412299D01*
X121276007Y-101444701D01*
X121290181Y-101467258D01*
X121290182Y-101467260D01*
X121290184Y-101467262D01*
X121417738Y-101594816D01*
X121448718Y-101614282D01*
X121545171Y-101674888D01*
X121570478Y-101690789D01*
X121684440Y-101730666D01*
X121740745Y-101750368D01*
X121740750Y-101750369D01*
X121919996Y-101770565D01*
X121920000Y-101770565D01*
X121920004Y-101770565D01*
X122099249Y-101750369D01*
X122099252Y-101750368D01*
X122099255Y-101750368D01*
X122269522Y-101690789D01*
X122422262Y-101594816D01*
X122549816Y-101467262D01*
X122645789Y-101314522D01*
X122705368Y-101144255D01*
X122712185Y-101083754D01*
X122725565Y-100965003D01*
X122725565Y-100964996D01*
X122705369Y-100785750D01*
X122705367Y-100785742D01*
X122663277Y-100665454D01*
X122659716Y-100595676D01*
X122694445Y-100535048D01*
X122756438Y-100502821D01*
X122780319Y-100500500D01*
X138582663Y-100500500D01*
X138649702Y-100520185D01*
X138695457Y-100572989D01*
X138705401Y-100642147D01*
X138698845Y-100667833D01*
X138685908Y-100702517D01*
X138679501Y-100762116D01*
X138679501Y-100762123D01*
X138679500Y-100762135D01*
X138679500Y-102557870D01*
X138679501Y-102557876D01*
X138685908Y-102617483D01*
X138736202Y-102752328D01*
X138736206Y-102752335D01*
X138822452Y-102867544D01*
X138822455Y-102867547D01*
X138937664Y-102953793D01*
X138937671Y-102953797D01*
X139069082Y-103002810D01*
X139125016Y-103044681D01*
X139149433Y-103110145D01*
X139134582Y-103178418D01*
X139113431Y-103206673D01*
X138991505Y-103328599D01*
X138991504Y-103328601D01*
X138987678Y-103332427D01*
X138986628Y-103331377D01*
X138934201Y-103366237D01*
X138864340Y-103367326D01*
X138809735Y-103335500D01*
X138236818Y-102762583D01*
X138203333Y-102701260D01*
X138200499Y-102674902D01*
X138200499Y-101999998D01*
X138200498Y-101999981D01*
X138189999Y-101897203D01*
X138189998Y-101897200D01*
X138134814Y-101730666D01*
X138042712Y-101581344D01*
X137918656Y-101457288D01*
X137769334Y-101365186D01*
X137602797Y-101310001D01*
X137602795Y-101310000D01*
X137500010Y-101299500D01*
X136749998Y-101299500D01*
X136749980Y-101299501D01*
X136647203Y-101310000D01*
X136647200Y-101310001D01*
X136480668Y-101365185D01*
X136480663Y-101365187D01*
X136331342Y-101457289D01*
X136207285Y-101581346D01*
X136205537Y-101584182D01*
X136203829Y-101585717D01*
X136202807Y-101587011D01*
X136202585Y-101586836D01*
X136153589Y-101630905D01*
X136084626Y-101642126D01*
X136020544Y-101614282D01*
X135994463Y-101584182D01*
X135992714Y-101581346D01*
X135868657Y-101457289D01*
X135868656Y-101457288D01*
X135719334Y-101365186D01*
X135552797Y-101310001D01*
X135552795Y-101310000D01*
X135450010Y-101299500D01*
X134699998Y-101299500D01*
X134699980Y-101299501D01*
X134597203Y-101310000D01*
X134597200Y-101310001D01*
X134430668Y-101365185D01*
X134430663Y-101365187D01*
X134281342Y-101457289D01*
X134157289Y-101581342D01*
X134065187Y-101730663D01*
X134065186Y-101730666D01*
X134010001Y-101897203D01*
X134010001Y-101897204D01*
X134010000Y-101897204D01*
X133999500Y-101999983D01*
X133999500Y-102674902D01*
X133979815Y-102741941D01*
X133963181Y-102762583D01*
X133426765Y-103298998D01*
X133414574Y-103309690D01*
X133389518Y-103328917D01*
X133365349Y-103360413D01*
X133365350Y-103360414D01*
X133293264Y-103454358D01*
X133293261Y-103454363D01*
X133232757Y-103600434D01*
X133232756Y-103600438D01*
X133228315Y-103634170D01*
X133200048Y-103698066D01*
X133193062Y-103705660D01*
X133187983Y-103710738D01*
X133092011Y-103863476D01*
X133032431Y-104033745D01*
X133032430Y-104033750D01*
X133012235Y-104212996D01*
X133012235Y-104213003D01*
X133032430Y-104392249D01*
X133032431Y-104392254D01*
X133092011Y-104562523D01*
X133142508Y-104642888D01*
X133187984Y-104715262D01*
X133315538Y-104842816D01*
X133468278Y-104938789D01*
X133631095Y-104995761D01*
X133638545Y-104998368D01*
X133638550Y-104998369D01*
X133817796Y-105018565D01*
X133817800Y-105018565D01*
X133817804Y-105018565D01*
X133997049Y-104998369D01*
X133997052Y-104998368D01*
X133997055Y-104998368D01*
X134167322Y-104938789D01*
X134320062Y-104842816D01*
X134447616Y-104715262D01*
X134543589Y-104562522D01*
X134603168Y-104392255D01*
X134603169Y-104392249D01*
X134623365Y-104213003D01*
X134623365Y-104212996D01*
X134603169Y-104033750D01*
X134603168Y-104033745D01*
X134573772Y-103949736D01*
X134570211Y-103879957D01*
X134603130Y-103821103D01*
X134687418Y-103736815D01*
X134748740Y-103703333D01*
X134775097Y-103700499D01*
X135450002Y-103700499D01*
X135450008Y-103700499D01*
X135552797Y-103689999D01*
X135719334Y-103634814D01*
X135868656Y-103542712D01*
X135992712Y-103418656D01*
X135994461Y-103415819D01*
X135996169Y-103414283D01*
X135997193Y-103412989D01*
X135997414Y-103413163D01*
X136046406Y-103369096D01*
X136115368Y-103357872D01*
X136179451Y-103385713D01*
X136205537Y-103415817D01*
X136207288Y-103418656D01*
X136331344Y-103542712D01*
X136480666Y-103634814D01*
X136647203Y-103689999D01*
X136749991Y-103700500D01*
X137424902Y-103700499D01*
X137491941Y-103720183D01*
X137512583Y-103736818D01*
X138366799Y-104591034D01*
X138377493Y-104603228D01*
X138396718Y-104628282D01*
X138429660Y-104653559D01*
X138522159Y-104724536D01*
X138522161Y-104724536D01*
X138522163Y-104724538D01*
X138564229Y-104741962D01*
X138668238Y-104785044D01*
X138754699Y-104796426D01*
X138818595Y-104824692D01*
X138850896Y-104866960D01*
X138855964Y-104877829D01*
X138855965Y-104877831D01*
X138991501Y-105071395D01*
X138991506Y-105071402D01*
X139158597Y-105238493D01*
X139158603Y-105238498D01*
X139344594Y-105368730D01*
X139388219Y-105423307D01*
X139395413Y-105492805D01*
X139363890Y-105555160D01*
X139344595Y-105571880D01*
X139158922Y-105701890D01*
X139158920Y-105701891D01*
X138991891Y-105868920D01*
X138991886Y-105868926D01*
X138856400Y-106062420D01*
X138856399Y-106062422D01*
X138756570Y-106276507D01*
X138756567Y-106276513D01*
X138699364Y-106489999D01*
X138699364Y-106490000D01*
X139596314Y-106490000D01*
X139570507Y-106530156D01*
X139530000Y-106668111D01*
X139530000Y-106811889D01*
X139570507Y-106949844D01*
X139596314Y-106990000D01*
X138699364Y-106990000D01*
X138756567Y-107203486D01*
X138756570Y-107203492D01*
X138856399Y-107417578D01*
X138991894Y-107611082D01*
X139158917Y-107778105D01*
X139344595Y-107908119D01*
X139388219Y-107962696D01*
X139395412Y-108032195D01*
X139363890Y-108094549D01*
X139344595Y-108111269D01*
X139158594Y-108241508D01*
X138991506Y-108408596D01*
X138855965Y-108602170D01*
X138855962Y-108602175D01*
X138853289Y-108607909D01*
X138807115Y-108660346D01*
X138740909Y-108679500D01*
X129007097Y-108679500D01*
X128940058Y-108659815D01*
X128894303Y-108607011D01*
X128884359Y-108537853D01*
X128913384Y-108474297D01*
X128919416Y-108467819D01*
X129638334Y-107748901D01*
X131852344Y-105534889D01*
X131864522Y-105524210D01*
X131889582Y-105504982D01*
X131985836Y-105379541D01*
X132046344Y-105233462D01*
X132066982Y-105076700D01*
X132066284Y-105071401D01*
X132062861Y-105045397D01*
X132061800Y-105029212D01*
X132061800Y-104822112D01*
X132081485Y-104755073D01*
X132088855Y-104744797D01*
X132091110Y-104741967D01*
X132091116Y-104741962D01*
X132187089Y-104589222D01*
X132246668Y-104418955D01*
X132246669Y-104418949D01*
X132266865Y-104239703D01*
X132266865Y-104239696D01*
X132246669Y-104060450D01*
X132246668Y-104060445D01*
X132187088Y-103890176D01*
X132112782Y-103771919D01*
X132091116Y-103737438D01*
X131963562Y-103609884D01*
X131948529Y-103600438D01*
X131810823Y-103513911D01*
X131640554Y-103454331D01*
X131640549Y-103454330D01*
X131461304Y-103434135D01*
X131461296Y-103434135D01*
X131282050Y-103454330D01*
X131282045Y-103454331D01*
X131111776Y-103513911D01*
X130959037Y-103609884D01*
X130831484Y-103737437D01*
X130735511Y-103890176D01*
X130675931Y-104060445D01*
X130675930Y-104060450D01*
X130655735Y-104239696D01*
X130655735Y-104239703D01*
X130675930Y-104418949D01*
X130675931Y-104418954D01*
X130735511Y-104589223D01*
X130823372Y-104729052D01*
X130842372Y-104796289D01*
X130822004Y-104863124D01*
X130806059Y-104882705D01*
X126486665Y-109202098D01*
X126425342Y-109235583D01*
X126412868Y-109237637D01*
X126325950Y-109247430D01*
X126155678Y-109307010D01*
X126002937Y-109402984D01*
X125875384Y-109530537D01*
X125779411Y-109683276D01*
X125719831Y-109853545D01*
X125719830Y-109853550D01*
X125699635Y-110032796D01*
X125699635Y-110032802D01*
X125704211Y-110073416D01*
X125692157Y-110142238D01*
X125644807Y-110193618D01*
X125580991Y-110211300D01*
X123146159Y-110211300D01*
X123079120Y-110191615D01*
X123033365Y-110138811D01*
X123022939Y-110101184D01*
X123010969Y-109994949D01*
X123010966Y-109994937D01*
X122949090Y-109818106D01*
X122950068Y-109817763D01*
X122939600Y-109771895D01*
X122939600Y-107765087D01*
X122940661Y-107748901D01*
X122944782Y-107717599D01*
X122944782Y-107717598D01*
X122924144Y-107560839D01*
X122924144Y-107560838D01*
X122863636Y-107414759D01*
X122826529Y-107366400D01*
X122767382Y-107289318D01*
X122767380Y-107289316D01*
X122767379Y-107289315D01*
X122742328Y-107270093D01*
X122730134Y-107259399D01*
X120266899Y-104796164D01*
X120256204Y-104783969D01*
X120236981Y-104758917D01*
X120147742Y-104690441D01*
X120106540Y-104634013D01*
X120102385Y-104564267D01*
X120135546Y-104504387D01*
X120868016Y-103771919D01*
X120929339Y-103738434D01*
X120955697Y-103735600D01*
X127600988Y-103735600D01*
X127668027Y-103755285D01*
X127678303Y-103762655D01*
X127681136Y-103764914D01*
X127681138Y-103764916D01*
X127833878Y-103860889D01*
X128004145Y-103920468D01*
X128004150Y-103920469D01*
X128183396Y-103940665D01*
X128183400Y-103940665D01*
X128183404Y-103940665D01*
X128362649Y-103920469D01*
X128362652Y-103920468D01*
X128362655Y-103920468D01*
X128532922Y-103860889D01*
X128685662Y-103764916D01*
X128813216Y-103637362D01*
X128909189Y-103484622D01*
X128968768Y-103314355D01*
X128969294Y-103309690D01*
X128988965Y-103135103D01*
X128988965Y-103135096D01*
X128968769Y-102955850D01*
X128968768Y-102955845D01*
X128909188Y-102785576D01*
X128859701Y-102706818D01*
X128813216Y-102632838D01*
X128685662Y-102505284D01*
X128532923Y-102409311D01*
X128362654Y-102349731D01*
X128362649Y-102349730D01*
X128183404Y-102329535D01*
X128183396Y-102329535D01*
X128004150Y-102349730D01*
X128004145Y-102349731D01*
X127833876Y-102409311D01*
X127681136Y-102505285D01*
X127678303Y-102507545D01*
X127676124Y-102508434D01*
X127675242Y-102508989D01*
X127675144Y-102508834D01*
X127613617Y-102533955D01*
X127600988Y-102534600D01*
X120703087Y-102534600D01*
X120686902Y-102533539D01*
X120655600Y-102529418D01*
X120655599Y-102529418D01*
X120580075Y-102539361D01*
X120498839Y-102550055D01*
X120498837Y-102550056D01*
X120352757Y-102610564D01*
X120227318Y-102706816D01*
X120208089Y-102731875D01*
X120197398Y-102744065D01*
X118443265Y-104498198D01*
X118431075Y-104508889D01*
X118406016Y-104528118D01*
X118329160Y-104628282D01*
X118317953Y-104642887D01*
X118309765Y-104653558D01*
X118309762Y-104653562D01*
X118309761Y-104653563D01*
X118249257Y-104799634D01*
X118249255Y-104799639D01*
X118228618Y-104956398D01*
X118228618Y-104956399D01*
X118232739Y-104987701D01*
X118233800Y-105003887D01*
X118233800Y-108555500D01*
X118214115Y-108622539D01*
X118161311Y-108668294D01*
X118109800Y-108679500D01*
X104159091Y-108679500D01*
X104092052Y-108659815D01*
X104046711Y-108607909D01*
X104044037Y-108602175D01*
X104044034Y-108602170D01*
X103908494Y-108408597D01*
X103741402Y-108241506D01*
X103741396Y-108241501D01*
X103555842Y-108111575D01*
X103512217Y-108056998D01*
X103505023Y-107987500D01*
X103536546Y-107925145D01*
X103555842Y-107908425D01*
X103728333Y-107787645D01*
X103741401Y-107778495D01*
X103908495Y-107611401D01*
X104044035Y-107417830D01*
X104143903Y-107203663D01*
X104205063Y-106975408D01*
X104225659Y-106740000D01*
X104205063Y-106504592D01*
X104143903Y-106276337D01*
X104044035Y-106062171D01*
X103981296Y-105972569D01*
X103908494Y-105868597D01*
X103741402Y-105701506D01*
X103741396Y-105701501D01*
X103555842Y-105571575D01*
X103512217Y-105516998D01*
X103505023Y-105447500D01*
X103536546Y-105385145D01*
X103555842Y-105368425D01*
X103578026Y-105352891D01*
X103741401Y-105238495D01*
X103908495Y-105071401D01*
X104044035Y-104877830D01*
X104049102Y-104866962D01*
X104095273Y-104814523D01*
X104145298Y-104796426D01*
X104231762Y-104785044D01*
X104377841Y-104724536D01*
X104470340Y-104653559D01*
X104503282Y-104628282D01*
X104522509Y-104603223D01*
X104533190Y-104591043D01*
X105387416Y-103736818D01*
X105448739Y-103703333D01*
X105475097Y-103700499D01*
X106150002Y-103700499D01*
X106150008Y-103700499D01*
X106252797Y-103689999D01*
X106419334Y-103634814D01*
X106568656Y-103542712D01*
X106692712Y-103418656D01*
X106694461Y-103415819D01*
X106696169Y-103414283D01*
X106697193Y-103412989D01*
X106697414Y-103413163D01*
X106746406Y-103369096D01*
X106815368Y-103357872D01*
X106879451Y-103385713D01*
X106905537Y-103415817D01*
X106907288Y-103418656D01*
X107031344Y-103542712D01*
X107180666Y-103634814D01*
X107347203Y-103689999D01*
X107449991Y-103700500D01*
X108200008Y-103700499D01*
X108200016Y-103700498D01*
X108200019Y-103700498D01*
X108256302Y-103694748D01*
X108302797Y-103689999D01*
X108469334Y-103634814D01*
X108618656Y-103542712D01*
X108742712Y-103418656D01*
X108834814Y-103269334D01*
X108889999Y-103102797D01*
X108900500Y-103000009D01*
X108900499Y-101999992D01*
X108889999Y-101897203D01*
X108834814Y-101730666D01*
X108834810Y-101730660D01*
X108834809Y-101730657D01*
X108800410Y-101674888D01*
X108781969Y-101607496D01*
X108802891Y-101540832D01*
X108818257Y-101522120D01*
X108933616Y-101406762D01*
X109029589Y-101254022D01*
X109089168Y-101083755D01*
X109089539Y-101080463D01*
X109109365Y-100904503D01*
X109109365Y-100904496D01*
X109089169Y-100725250D01*
X109089167Y-100725242D01*
X109068247Y-100665454D01*
X109064686Y-100595675D01*
X109099415Y-100535048D01*
X109161409Y-100502821D01*
X109185289Y-100500500D01*
X114659424Y-100500500D01*
X114726463Y-100520185D01*
G37*
%TD.AperFunction*%
%TD*%
M02*
