%TF.GenerationSoftware,KiCad,Pcbnew,7.0.11+dfsg-1build4*%
%TF.CreationDate,2026-06-07T17:52:00-05:00*%
%TF.ProjectId,panel-mount-oled-display-display-board,70616e65-6c2d-46d6-9f75-6e742d6f6c65,rev?*%
%TF.SameCoordinates,Original*%
%TF.FileFunction,Legend,Top*%
%TF.FilePolarity,Positive*%
%FSLAX46Y46*%
G04 Gerber Fmt 4.6, Leading zero omitted, Abs format (unit mm)*
G04 Created by KiCad (PCBNEW 7.0.11+dfsg-1build4) date 2026-06-07 17:52:00*
%MOMM*%
%LPD*%
G01*
G04 APERTURE LIST*
%ADD10C,0.150000*%
%ADD11C,0.120000*%
%ADD12C,0.100000*%
G04 APERTURE END LIST*
D10*
X104715350Y-106521533D02*
X104948684Y-107221533D01*
X104948684Y-107221533D02*
X105182017Y-106521533D01*
X105815350Y-107154866D02*
X105782017Y-107188200D01*
X105782017Y-107188200D02*
X105682017Y-107221533D01*
X105682017Y-107221533D02*
X105615350Y-107221533D01*
X105615350Y-107221533D02*
X105515350Y-107188200D01*
X105515350Y-107188200D02*
X105448684Y-107121533D01*
X105448684Y-107121533D02*
X105415350Y-107054866D01*
X105415350Y-107054866D02*
X105382017Y-106921533D01*
X105382017Y-106921533D02*
X105382017Y-106821533D01*
X105382017Y-106821533D02*
X105415350Y-106688200D01*
X105415350Y-106688200D02*
X105448684Y-106621533D01*
X105448684Y-106621533D02*
X105515350Y-106554866D01*
X105515350Y-106554866D02*
X105615350Y-106521533D01*
X105615350Y-106521533D02*
X105682017Y-106521533D01*
X105682017Y-106521533D02*
X105782017Y-106554866D01*
X105782017Y-106554866D02*
X105815350Y-106588200D01*
X106515350Y-107154866D02*
X106482017Y-107188200D01*
X106482017Y-107188200D02*
X106382017Y-107221533D01*
X106382017Y-107221533D02*
X106315350Y-107221533D01*
X106315350Y-107221533D02*
X106215350Y-107188200D01*
X106215350Y-107188200D02*
X106148684Y-107121533D01*
X106148684Y-107121533D02*
X106115350Y-107054866D01*
X106115350Y-107054866D02*
X106082017Y-106921533D01*
X106082017Y-106921533D02*
X106082017Y-106821533D01*
X106082017Y-106821533D02*
X106115350Y-106688200D01*
X106115350Y-106688200D02*
X106148684Y-106621533D01*
X106148684Y-106621533D02*
X106215350Y-106554866D01*
X106215350Y-106554866D02*
X106315350Y-106521533D01*
X106315350Y-106521533D02*
X106382017Y-106521533D01*
X106382017Y-106521533D02*
X106482017Y-106554866D01*
X106482017Y-106554866D02*
X106515350Y-106588200D01*
X115200350Y-118651533D02*
X115200350Y-117951533D01*
X115200350Y-117951533D02*
X115467017Y-117951533D01*
X115467017Y-117951533D02*
X115533684Y-117984866D01*
X115533684Y-117984866D02*
X115567017Y-118018200D01*
X115567017Y-118018200D02*
X115600350Y-118084866D01*
X115600350Y-118084866D02*
X115600350Y-118184866D01*
X115600350Y-118184866D02*
X115567017Y-118251533D01*
X115567017Y-118251533D02*
X115533684Y-118284866D01*
X115533684Y-118284866D02*
X115467017Y-118318200D01*
X115467017Y-118318200D02*
X115200350Y-118318200D01*
X115867017Y-118451533D02*
X116200350Y-118451533D01*
X115800350Y-118651533D02*
X116033684Y-117951533D01*
X116033684Y-117951533D02*
X116267017Y-118651533D01*
X116500350Y-118651533D02*
X116500350Y-117951533D01*
X116500350Y-117951533D02*
X116900350Y-118651533D01*
X116900350Y-118651533D02*
X116900350Y-117951533D01*
X117233683Y-118284866D02*
X117467017Y-118284866D01*
X117567017Y-118651533D02*
X117233683Y-118651533D01*
X117233683Y-118651533D02*
X117233683Y-117951533D01*
X117233683Y-117951533D02*
X117567017Y-117951533D01*
X118200350Y-118651533D02*
X117867016Y-118651533D01*
X117867016Y-118651533D02*
X117867016Y-117951533D01*
X118433683Y-118384866D02*
X118967017Y-118384866D01*
X119300350Y-118651533D02*
X119300350Y-117951533D01*
X119300350Y-117951533D02*
X119533684Y-118451533D01*
X119533684Y-118451533D02*
X119767017Y-117951533D01*
X119767017Y-117951533D02*
X119767017Y-118651533D01*
X120233684Y-117951533D02*
X120367017Y-117951533D01*
X120367017Y-117951533D02*
X120433684Y-117984866D01*
X120433684Y-117984866D02*
X120500350Y-118051533D01*
X120500350Y-118051533D02*
X120533684Y-118184866D01*
X120533684Y-118184866D02*
X120533684Y-118418200D01*
X120533684Y-118418200D02*
X120500350Y-118551533D01*
X120500350Y-118551533D02*
X120433684Y-118618200D01*
X120433684Y-118618200D02*
X120367017Y-118651533D01*
X120367017Y-118651533D02*
X120233684Y-118651533D01*
X120233684Y-118651533D02*
X120167017Y-118618200D01*
X120167017Y-118618200D02*
X120100350Y-118551533D01*
X120100350Y-118551533D02*
X120067017Y-118418200D01*
X120067017Y-118418200D02*
X120067017Y-118184866D01*
X120067017Y-118184866D02*
X120100350Y-118051533D01*
X120100350Y-118051533D02*
X120167017Y-117984866D01*
X120167017Y-117984866D02*
X120233684Y-117951533D01*
X120833683Y-117951533D02*
X120833683Y-118518200D01*
X120833683Y-118518200D02*
X120867017Y-118584866D01*
X120867017Y-118584866D02*
X120900350Y-118618200D01*
X120900350Y-118618200D02*
X120967017Y-118651533D01*
X120967017Y-118651533D02*
X121100350Y-118651533D01*
X121100350Y-118651533D02*
X121167017Y-118618200D01*
X121167017Y-118618200D02*
X121200350Y-118584866D01*
X121200350Y-118584866D02*
X121233683Y-118518200D01*
X121233683Y-118518200D02*
X121233683Y-117951533D01*
X121567016Y-118651533D02*
X121567016Y-117951533D01*
X121567016Y-117951533D02*
X121967016Y-118651533D01*
X121967016Y-118651533D02*
X121967016Y-117951533D01*
X122200349Y-117951533D02*
X122600349Y-117951533D01*
X122400349Y-118651533D02*
X122400349Y-117951533D01*
X122833682Y-118384866D02*
X123367016Y-118384866D01*
X123833683Y-117951533D02*
X123967016Y-117951533D01*
X123967016Y-117951533D02*
X124033683Y-117984866D01*
X124033683Y-117984866D02*
X124100349Y-118051533D01*
X124100349Y-118051533D02*
X124133683Y-118184866D01*
X124133683Y-118184866D02*
X124133683Y-118418200D01*
X124133683Y-118418200D02*
X124100349Y-118551533D01*
X124100349Y-118551533D02*
X124033683Y-118618200D01*
X124033683Y-118618200D02*
X123967016Y-118651533D01*
X123967016Y-118651533D02*
X123833683Y-118651533D01*
X123833683Y-118651533D02*
X123767016Y-118618200D01*
X123767016Y-118618200D02*
X123700349Y-118551533D01*
X123700349Y-118551533D02*
X123667016Y-118418200D01*
X123667016Y-118418200D02*
X123667016Y-118184866D01*
X123667016Y-118184866D02*
X123700349Y-118051533D01*
X123700349Y-118051533D02*
X123767016Y-117984866D01*
X123767016Y-117984866D02*
X123833683Y-117951533D01*
X124767016Y-118651533D02*
X124433682Y-118651533D01*
X124433682Y-118651533D02*
X124433682Y-117951533D01*
X125000349Y-118284866D02*
X125233683Y-118284866D01*
X125333683Y-118651533D02*
X125000349Y-118651533D01*
X125000349Y-118651533D02*
X125000349Y-117951533D01*
X125000349Y-117951533D02*
X125333683Y-117951533D01*
X125633682Y-118651533D02*
X125633682Y-117951533D01*
X125633682Y-117951533D02*
X125800349Y-117951533D01*
X125800349Y-117951533D02*
X125900349Y-117984866D01*
X125900349Y-117984866D02*
X125967016Y-118051533D01*
X125967016Y-118051533D02*
X126000349Y-118118200D01*
X126000349Y-118118200D02*
X126033682Y-118251533D01*
X126033682Y-118251533D02*
X126033682Y-118351533D01*
X126033682Y-118351533D02*
X126000349Y-118484866D01*
X126000349Y-118484866D02*
X125967016Y-118551533D01*
X125967016Y-118551533D02*
X125900349Y-118618200D01*
X125900349Y-118618200D02*
X125800349Y-118651533D01*
X125800349Y-118651533D02*
X125633682Y-118651533D01*
X136782017Y-106439866D02*
X136715350Y-106406533D01*
X136715350Y-106406533D02*
X136615350Y-106406533D01*
X136615350Y-106406533D02*
X136515350Y-106439866D01*
X136515350Y-106439866D02*
X136448684Y-106506533D01*
X136448684Y-106506533D02*
X136415350Y-106573200D01*
X136415350Y-106573200D02*
X136382017Y-106706533D01*
X136382017Y-106706533D02*
X136382017Y-106806533D01*
X136382017Y-106806533D02*
X136415350Y-106939866D01*
X136415350Y-106939866D02*
X136448684Y-107006533D01*
X136448684Y-107006533D02*
X136515350Y-107073200D01*
X136515350Y-107073200D02*
X136615350Y-107106533D01*
X136615350Y-107106533D02*
X136682017Y-107106533D01*
X136682017Y-107106533D02*
X136782017Y-107073200D01*
X136782017Y-107073200D02*
X136815350Y-107039866D01*
X136815350Y-107039866D02*
X136815350Y-106806533D01*
X136815350Y-106806533D02*
X136682017Y-106806533D01*
X137115350Y-107106533D02*
X137115350Y-106406533D01*
X137115350Y-106406533D02*
X137515350Y-107106533D01*
X137515350Y-107106533D02*
X137515350Y-106406533D01*
X137848683Y-107106533D02*
X137848683Y-106406533D01*
X137848683Y-106406533D02*
X138015350Y-106406533D01*
X138015350Y-106406533D02*
X138115350Y-106439866D01*
X138115350Y-106439866D02*
X138182017Y-106506533D01*
X138182017Y-106506533D02*
X138215350Y-106573200D01*
X138215350Y-106573200D02*
X138248683Y-106706533D01*
X138248683Y-106706533D02*
X138248683Y-106806533D01*
X138248683Y-106806533D02*
X138215350Y-106939866D01*
X138215350Y-106939866D02*
X138182017Y-107006533D01*
X138182017Y-107006533D02*
X138115350Y-107073200D01*
X138115350Y-107073200D02*
X138015350Y-107106533D01*
X138015350Y-107106533D02*
X137848683Y-107106533D01*
X134199550Y-108507533D02*
X134199550Y-107807533D01*
X134199550Y-107807533D02*
X134366217Y-107807533D01*
X134366217Y-107807533D02*
X134466217Y-107840866D01*
X134466217Y-107840866D02*
X134532884Y-107907533D01*
X134532884Y-107907533D02*
X134566217Y-107974200D01*
X134566217Y-107974200D02*
X134599550Y-108107533D01*
X134599550Y-108107533D02*
X134599550Y-108207533D01*
X134599550Y-108207533D02*
X134566217Y-108340866D01*
X134566217Y-108340866D02*
X134532884Y-108407533D01*
X134532884Y-108407533D02*
X134466217Y-108474200D01*
X134466217Y-108474200D02*
X134366217Y-108507533D01*
X134366217Y-108507533D02*
X134199550Y-108507533D01*
X134899550Y-108507533D02*
X134899550Y-107807533D01*
X135199550Y-108474200D02*
X135299550Y-108507533D01*
X135299550Y-108507533D02*
X135466217Y-108507533D01*
X135466217Y-108507533D02*
X135532883Y-108474200D01*
X135532883Y-108474200D02*
X135566217Y-108440866D01*
X135566217Y-108440866D02*
X135599550Y-108374200D01*
X135599550Y-108374200D02*
X135599550Y-108307533D01*
X135599550Y-108307533D02*
X135566217Y-108240866D01*
X135566217Y-108240866D02*
X135532883Y-108207533D01*
X135532883Y-108207533D02*
X135466217Y-108174200D01*
X135466217Y-108174200D02*
X135332883Y-108140866D01*
X135332883Y-108140866D02*
X135266217Y-108107533D01*
X135266217Y-108107533D02*
X135232883Y-108074200D01*
X135232883Y-108074200D02*
X135199550Y-108007533D01*
X135199550Y-108007533D02*
X135199550Y-107940866D01*
X135199550Y-107940866D02*
X135232883Y-107874200D01*
X135232883Y-107874200D02*
X135266217Y-107840866D01*
X135266217Y-107840866D02*
X135332883Y-107807533D01*
X135332883Y-107807533D02*
X135499550Y-107807533D01*
X135499550Y-107807533D02*
X135599550Y-107840866D01*
X135899550Y-108507533D02*
X135899550Y-107807533D01*
X135899550Y-107807533D02*
X136166217Y-107807533D01*
X136166217Y-107807533D02*
X136232884Y-107840866D01*
X136232884Y-107840866D02*
X136266217Y-107874200D01*
X136266217Y-107874200D02*
X136299550Y-107940866D01*
X136299550Y-107940866D02*
X136299550Y-108040866D01*
X136299550Y-108040866D02*
X136266217Y-108107533D01*
X136266217Y-108107533D02*
X136232884Y-108140866D01*
X136232884Y-108140866D02*
X136166217Y-108174200D01*
X136166217Y-108174200D02*
X135899550Y-108174200D01*
X136932884Y-108507533D02*
X136599550Y-108507533D01*
X136599550Y-108507533D02*
X136599550Y-107807533D01*
X137132884Y-108307533D02*
X137466217Y-108307533D01*
X137066217Y-108507533D02*
X137299551Y-107807533D01*
X137299551Y-107807533D02*
X137532884Y-108507533D01*
X137899551Y-108174200D02*
X137899551Y-108507533D01*
X137666217Y-107807533D02*
X137899551Y-108174200D01*
X137899551Y-108174200D02*
X138132884Y-107807533D01*
X134432884Y-109267866D02*
X134532884Y-109301200D01*
X134532884Y-109301200D02*
X134566217Y-109334533D01*
X134566217Y-109334533D02*
X134599550Y-109401200D01*
X134599550Y-109401200D02*
X134599550Y-109501200D01*
X134599550Y-109501200D02*
X134566217Y-109567866D01*
X134566217Y-109567866D02*
X134532884Y-109601200D01*
X134532884Y-109601200D02*
X134466217Y-109634533D01*
X134466217Y-109634533D02*
X134199550Y-109634533D01*
X134199550Y-109634533D02*
X134199550Y-108934533D01*
X134199550Y-108934533D02*
X134432884Y-108934533D01*
X134432884Y-108934533D02*
X134499550Y-108967866D01*
X134499550Y-108967866D02*
X134532884Y-109001200D01*
X134532884Y-109001200D02*
X134566217Y-109067866D01*
X134566217Y-109067866D02*
X134566217Y-109134533D01*
X134566217Y-109134533D02*
X134532884Y-109201200D01*
X134532884Y-109201200D02*
X134499550Y-109234533D01*
X134499550Y-109234533D02*
X134432884Y-109267866D01*
X134432884Y-109267866D02*
X134199550Y-109267866D01*
X135032884Y-108934533D02*
X135166217Y-108934533D01*
X135166217Y-108934533D02*
X135232884Y-108967866D01*
X135232884Y-108967866D02*
X135299550Y-109034533D01*
X135299550Y-109034533D02*
X135332884Y-109167866D01*
X135332884Y-109167866D02*
X135332884Y-109401200D01*
X135332884Y-109401200D02*
X135299550Y-109534533D01*
X135299550Y-109534533D02*
X135232884Y-109601200D01*
X135232884Y-109601200D02*
X135166217Y-109634533D01*
X135166217Y-109634533D02*
X135032884Y-109634533D01*
X135032884Y-109634533D02*
X134966217Y-109601200D01*
X134966217Y-109601200D02*
X134899550Y-109534533D01*
X134899550Y-109534533D02*
X134866217Y-109401200D01*
X134866217Y-109401200D02*
X134866217Y-109167866D01*
X134866217Y-109167866D02*
X134899550Y-109034533D01*
X134899550Y-109034533D02*
X134966217Y-108967866D01*
X134966217Y-108967866D02*
X135032884Y-108934533D01*
X135599550Y-109434533D02*
X135932883Y-109434533D01*
X135532883Y-109634533D02*
X135766217Y-108934533D01*
X135766217Y-108934533D02*
X135999550Y-109634533D01*
X136632883Y-109634533D02*
X136399550Y-109301200D01*
X136232883Y-109634533D02*
X136232883Y-108934533D01*
X136232883Y-108934533D02*
X136499550Y-108934533D01*
X136499550Y-108934533D02*
X136566217Y-108967866D01*
X136566217Y-108967866D02*
X136599550Y-109001200D01*
X136599550Y-109001200D02*
X136632883Y-109067866D01*
X136632883Y-109067866D02*
X136632883Y-109167866D01*
X136632883Y-109167866D02*
X136599550Y-109234533D01*
X136599550Y-109234533D02*
X136566217Y-109267866D01*
X136566217Y-109267866D02*
X136499550Y-109301200D01*
X136499550Y-109301200D02*
X136232883Y-109301200D01*
X136932883Y-109634533D02*
X136932883Y-108934533D01*
X136932883Y-108934533D02*
X137099550Y-108934533D01*
X137099550Y-108934533D02*
X137199550Y-108967866D01*
X137199550Y-108967866D02*
X137266217Y-109034533D01*
X137266217Y-109034533D02*
X137299550Y-109101200D01*
X137299550Y-109101200D02*
X137332883Y-109234533D01*
X137332883Y-109234533D02*
X137332883Y-109334533D01*
X137332883Y-109334533D02*
X137299550Y-109467866D01*
X137299550Y-109467866D02*
X137266217Y-109534533D01*
X137266217Y-109534533D02*
X137199550Y-109601200D01*
X137199550Y-109601200D02*
X137099550Y-109634533D01*
X137099550Y-109634533D02*
X136932883Y-109634533D01*
X109725833Y-104499580D02*
X109678214Y-104547200D01*
X109678214Y-104547200D02*
X109535357Y-104594819D01*
X109535357Y-104594819D02*
X109440119Y-104594819D01*
X109440119Y-104594819D02*
X109297262Y-104547200D01*
X109297262Y-104547200D02*
X109202024Y-104451961D01*
X109202024Y-104451961D02*
X109154405Y-104356723D01*
X109154405Y-104356723D02*
X109106786Y-104166247D01*
X109106786Y-104166247D02*
X109106786Y-104023390D01*
X109106786Y-104023390D02*
X109154405Y-103832914D01*
X109154405Y-103832914D02*
X109202024Y-103737676D01*
X109202024Y-103737676D02*
X109297262Y-103642438D01*
X109297262Y-103642438D02*
X109440119Y-103594819D01*
X109440119Y-103594819D02*
X109535357Y-103594819D01*
X109535357Y-103594819D02*
X109678214Y-103642438D01*
X109678214Y-103642438D02*
X109725833Y-103690057D01*
X110202024Y-104594819D02*
X110392500Y-104594819D01*
X110392500Y-104594819D02*
X110487738Y-104547200D01*
X110487738Y-104547200D02*
X110535357Y-104499580D01*
X110535357Y-104499580D02*
X110630595Y-104356723D01*
X110630595Y-104356723D02*
X110678214Y-104166247D01*
X110678214Y-104166247D02*
X110678214Y-103785295D01*
X110678214Y-103785295D02*
X110630595Y-103690057D01*
X110630595Y-103690057D02*
X110582976Y-103642438D01*
X110582976Y-103642438D02*
X110487738Y-103594819D01*
X110487738Y-103594819D02*
X110297262Y-103594819D01*
X110297262Y-103594819D02*
X110202024Y-103642438D01*
X110202024Y-103642438D02*
X110154405Y-103690057D01*
X110154405Y-103690057D02*
X110106786Y-103785295D01*
X110106786Y-103785295D02*
X110106786Y-104023390D01*
X110106786Y-104023390D02*
X110154405Y-104118628D01*
X110154405Y-104118628D02*
X110202024Y-104166247D01*
X110202024Y-104166247D02*
X110297262Y-104213866D01*
X110297262Y-104213866D02*
X110487738Y-104213866D01*
X110487738Y-104213866D02*
X110582976Y-104166247D01*
X110582976Y-104166247D02*
X110630595Y-104118628D01*
X110630595Y-104118628D02*
X110678214Y-104023390D01*
X117533333Y-110944819D02*
X117200000Y-110468628D01*
X116961905Y-110944819D02*
X116961905Y-109944819D01*
X116961905Y-109944819D02*
X117342857Y-109944819D01*
X117342857Y-109944819D02*
X117438095Y-109992438D01*
X117438095Y-109992438D02*
X117485714Y-110040057D01*
X117485714Y-110040057D02*
X117533333Y-110135295D01*
X117533333Y-110135295D02*
X117533333Y-110278152D01*
X117533333Y-110278152D02*
X117485714Y-110373390D01*
X117485714Y-110373390D02*
X117438095Y-110421009D01*
X117438095Y-110421009D02*
X117342857Y-110468628D01*
X117342857Y-110468628D02*
X116961905Y-110468628D01*
X117866667Y-109944819D02*
X118485714Y-109944819D01*
X118485714Y-109944819D02*
X118152381Y-110325771D01*
X118152381Y-110325771D02*
X118295238Y-110325771D01*
X118295238Y-110325771D02*
X118390476Y-110373390D01*
X118390476Y-110373390D02*
X118438095Y-110421009D01*
X118438095Y-110421009D02*
X118485714Y-110516247D01*
X118485714Y-110516247D02*
X118485714Y-110754342D01*
X118485714Y-110754342D02*
X118438095Y-110849580D01*
X118438095Y-110849580D02*
X118390476Y-110897200D01*
X118390476Y-110897200D02*
X118295238Y-110944819D01*
X118295238Y-110944819D02*
X118009524Y-110944819D01*
X118009524Y-110944819D02*
X117914286Y-110897200D01*
X117914286Y-110897200D02*
X117866667Y-110849580D01*
X109688333Y-110849580D02*
X109640714Y-110897200D01*
X109640714Y-110897200D02*
X109497857Y-110944819D01*
X109497857Y-110944819D02*
X109402619Y-110944819D01*
X109402619Y-110944819D02*
X109259762Y-110897200D01*
X109259762Y-110897200D02*
X109164524Y-110801961D01*
X109164524Y-110801961D02*
X109116905Y-110706723D01*
X109116905Y-110706723D02*
X109069286Y-110516247D01*
X109069286Y-110516247D02*
X109069286Y-110373390D01*
X109069286Y-110373390D02*
X109116905Y-110182914D01*
X109116905Y-110182914D02*
X109164524Y-110087676D01*
X109164524Y-110087676D02*
X109259762Y-109992438D01*
X109259762Y-109992438D02*
X109402619Y-109944819D01*
X109402619Y-109944819D02*
X109497857Y-109944819D01*
X109497857Y-109944819D02*
X109640714Y-109992438D01*
X109640714Y-109992438D02*
X109688333Y-110040057D01*
X110259762Y-110373390D02*
X110164524Y-110325771D01*
X110164524Y-110325771D02*
X110116905Y-110278152D01*
X110116905Y-110278152D02*
X110069286Y-110182914D01*
X110069286Y-110182914D02*
X110069286Y-110135295D01*
X110069286Y-110135295D02*
X110116905Y-110040057D01*
X110116905Y-110040057D02*
X110164524Y-109992438D01*
X110164524Y-109992438D02*
X110259762Y-109944819D01*
X110259762Y-109944819D02*
X110450238Y-109944819D01*
X110450238Y-109944819D02*
X110545476Y-109992438D01*
X110545476Y-109992438D02*
X110593095Y-110040057D01*
X110593095Y-110040057D02*
X110640714Y-110135295D01*
X110640714Y-110135295D02*
X110640714Y-110182914D01*
X110640714Y-110182914D02*
X110593095Y-110278152D01*
X110593095Y-110278152D02*
X110545476Y-110325771D01*
X110545476Y-110325771D02*
X110450238Y-110373390D01*
X110450238Y-110373390D02*
X110259762Y-110373390D01*
X110259762Y-110373390D02*
X110164524Y-110421009D01*
X110164524Y-110421009D02*
X110116905Y-110468628D01*
X110116905Y-110468628D02*
X110069286Y-110563866D01*
X110069286Y-110563866D02*
X110069286Y-110754342D01*
X110069286Y-110754342D02*
X110116905Y-110849580D01*
X110116905Y-110849580D02*
X110164524Y-110897200D01*
X110164524Y-110897200D02*
X110259762Y-110944819D01*
X110259762Y-110944819D02*
X110450238Y-110944819D01*
X110450238Y-110944819D02*
X110545476Y-110897200D01*
X110545476Y-110897200D02*
X110593095Y-110849580D01*
X110593095Y-110849580D02*
X110640714Y-110754342D01*
X110640714Y-110754342D02*
X110640714Y-110563866D01*
X110640714Y-110563866D02*
X110593095Y-110468628D01*
X110593095Y-110468628D02*
X110545476Y-110421009D01*
X110545476Y-110421009D02*
X110450238Y-110373390D01*
X130008333Y-110849580D02*
X129960714Y-110897200D01*
X129960714Y-110897200D02*
X129817857Y-110944819D01*
X129817857Y-110944819D02*
X129722619Y-110944819D01*
X129722619Y-110944819D02*
X129579762Y-110897200D01*
X129579762Y-110897200D02*
X129484524Y-110801961D01*
X129484524Y-110801961D02*
X129436905Y-110706723D01*
X129436905Y-110706723D02*
X129389286Y-110516247D01*
X129389286Y-110516247D02*
X129389286Y-110373390D01*
X129389286Y-110373390D02*
X129436905Y-110182914D01*
X129436905Y-110182914D02*
X129484524Y-110087676D01*
X129484524Y-110087676D02*
X129579762Y-109992438D01*
X129579762Y-109992438D02*
X129722619Y-109944819D01*
X129722619Y-109944819D02*
X129817857Y-109944819D01*
X129817857Y-109944819D02*
X129960714Y-109992438D01*
X129960714Y-109992438D02*
X130008333Y-110040057D01*
X130389286Y-110040057D02*
X130436905Y-109992438D01*
X130436905Y-109992438D02*
X130532143Y-109944819D01*
X130532143Y-109944819D02*
X130770238Y-109944819D01*
X130770238Y-109944819D02*
X130865476Y-109992438D01*
X130865476Y-109992438D02*
X130913095Y-110040057D01*
X130913095Y-110040057D02*
X130960714Y-110135295D01*
X130960714Y-110135295D02*
X130960714Y-110230533D01*
X130960714Y-110230533D02*
X130913095Y-110373390D01*
X130913095Y-110373390D02*
X130341667Y-110944819D01*
X130341667Y-110944819D02*
X130960714Y-110944819D01*
X115033333Y-110849580D02*
X114985714Y-110897200D01*
X114985714Y-110897200D02*
X114842857Y-110944819D01*
X114842857Y-110944819D02*
X114747619Y-110944819D01*
X114747619Y-110944819D02*
X114604762Y-110897200D01*
X114604762Y-110897200D02*
X114509524Y-110801961D01*
X114509524Y-110801961D02*
X114461905Y-110706723D01*
X114461905Y-110706723D02*
X114414286Y-110516247D01*
X114414286Y-110516247D02*
X114414286Y-110373390D01*
X114414286Y-110373390D02*
X114461905Y-110182914D01*
X114461905Y-110182914D02*
X114509524Y-110087676D01*
X114509524Y-110087676D02*
X114604762Y-109992438D01*
X114604762Y-109992438D02*
X114747619Y-109944819D01*
X114747619Y-109944819D02*
X114842857Y-109944819D01*
X114842857Y-109944819D02*
X114985714Y-109992438D01*
X114985714Y-109992438D02*
X115033333Y-110040057D01*
X115890476Y-109944819D02*
X115700000Y-109944819D01*
X115700000Y-109944819D02*
X115604762Y-109992438D01*
X115604762Y-109992438D02*
X115557143Y-110040057D01*
X115557143Y-110040057D02*
X115461905Y-110182914D01*
X115461905Y-110182914D02*
X115414286Y-110373390D01*
X115414286Y-110373390D02*
X115414286Y-110754342D01*
X115414286Y-110754342D02*
X115461905Y-110849580D01*
X115461905Y-110849580D02*
X115509524Y-110897200D01*
X115509524Y-110897200D02*
X115604762Y-110944819D01*
X115604762Y-110944819D02*
X115795238Y-110944819D01*
X115795238Y-110944819D02*
X115890476Y-110897200D01*
X115890476Y-110897200D02*
X115938095Y-110849580D01*
X115938095Y-110849580D02*
X115985714Y-110754342D01*
X115985714Y-110754342D02*
X115985714Y-110516247D01*
X115985714Y-110516247D02*
X115938095Y-110421009D01*
X115938095Y-110421009D02*
X115890476Y-110373390D01*
X115890476Y-110373390D02*
X115795238Y-110325771D01*
X115795238Y-110325771D02*
X115604762Y-110325771D01*
X115604762Y-110325771D02*
X115509524Y-110373390D01*
X115509524Y-110373390D02*
X115461905Y-110421009D01*
X115461905Y-110421009D02*
X115414286Y-110516247D01*
X120585714Y-117294819D02*
X120585714Y-116294819D01*
X120585714Y-116294819D02*
X120823809Y-116294819D01*
X120823809Y-116294819D02*
X120966666Y-116342438D01*
X120966666Y-116342438D02*
X121061904Y-116437676D01*
X121061904Y-116437676D02*
X121109523Y-116532914D01*
X121109523Y-116532914D02*
X121157142Y-116723390D01*
X121157142Y-116723390D02*
X121157142Y-116866247D01*
X121157142Y-116866247D02*
X121109523Y-117056723D01*
X121109523Y-117056723D02*
X121061904Y-117151961D01*
X121061904Y-117151961D02*
X120966666Y-117247200D01*
X120966666Y-117247200D02*
X120823809Y-117294819D01*
X120823809Y-117294819D02*
X120585714Y-117294819D01*
X121538095Y-117247200D02*
X121680952Y-117294819D01*
X121680952Y-117294819D02*
X121919047Y-117294819D01*
X121919047Y-117294819D02*
X122014285Y-117247200D01*
X122014285Y-117247200D02*
X122061904Y-117199580D01*
X122061904Y-117199580D02*
X122109523Y-117104342D01*
X122109523Y-117104342D02*
X122109523Y-117009104D01*
X122109523Y-117009104D02*
X122061904Y-116913866D01*
X122061904Y-116913866D02*
X122014285Y-116866247D01*
X122014285Y-116866247D02*
X121919047Y-116818628D01*
X121919047Y-116818628D02*
X121728571Y-116771009D01*
X121728571Y-116771009D02*
X121633333Y-116723390D01*
X121633333Y-116723390D02*
X121585714Y-116675771D01*
X121585714Y-116675771D02*
X121538095Y-116580533D01*
X121538095Y-116580533D02*
X121538095Y-116485295D01*
X121538095Y-116485295D02*
X121585714Y-116390057D01*
X121585714Y-116390057D02*
X121633333Y-116342438D01*
X121633333Y-116342438D02*
X121728571Y-116294819D01*
X121728571Y-116294819D02*
X121966666Y-116294819D01*
X121966666Y-116294819D02*
X122109523Y-116342438D01*
X123061904Y-117294819D02*
X122490476Y-117294819D01*
X122776190Y-117294819D02*
X122776190Y-116294819D01*
X122776190Y-116294819D02*
X122680952Y-116437676D01*
X122680952Y-116437676D02*
X122585714Y-116532914D01*
X122585714Y-116532914D02*
X122490476Y-116580533D01*
X135683333Y-111629819D02*
X135350000Y-111153628D01*
X135111905Y-111629819D02*
X135111905Y-110629819D01*
X135111905Y-110629819D02*
X135492857Y-110629819D01*
X135492857Y-110629819D02*
X135588095Y-110677438D01*
X135588095Y-110677438D02*
X135635714Y-110725057D01*
X135635714Y-110725057D02*
X135683333Y-110820295D01*
X135683333Y-110820295D02*
X135683333Y-110963152D01*
X135683333Y-110963152D02*
X135635714Y-111058390D01*
X135635714Y-111058390D02*
X135588095Y-111106009D01*
X135588095Y-111106009D02*
X135492857Y-111153628D01*
X135492857Y-111153628D02*
X135111905Y-111153628D01*
X136254762Y-111058390D02*
X136159524Y-111010771D01*
X136159524Y-111010771D02*
X136111905Y-110963152D01*
X136111905Y-110963152D02*
X136064286Y-110867914D01*
X136064286Y-110867914D02*
X136064286Y-110820295D01*
X136064286Y-110820295D02*
X136111905Y-110725057D01*
X136111905Y-110725057D02*
X136159524Y-110677438D01*
X136159524Y-110677438D02*
X136254762Y-110629819D01*
X136254762Y-110629819D02*
X136445238Y-110629819D01*
X136445238Y-110629819D02*
X136540476Y-110677438D01*
X136540476Y-110677438D02*
X136588095Y-110725057D01*
X136588095Y-110725057D02*
X136635714Y-110820295D01*
X136635714Y-110820295D02*
X136635714Y-110867914D01*
X136635714Y-110867914D02*
X136588095Y-110963152D01*
X136588095Y-110963152D02*
X136540476Y-111010771D01*
X136540476Y-111010771D02*
X136445238Y-111058390D01*
X136445238Y-111058390D02*
X136254762Y-111058390D01*
X136254762Y-111058390D02*
X136159524Y-111106009D01*
X136159524Y-111106009D02*
X136111905Y-111153628D01*
X136111905Y-111153628D02*
X136064286Y-111248866D01*
X136064286Y-111248866D02*
X136064286Y-111439342D01*
X136064286Y-111439342D02*
X136111905Y-111534580D01*
X136111905Y-111534580D02*
X136159524Y-111582200D01*
X136159524Y-111582200D02*
X136254762Y-111629819D01*
X136254762Y-111629819D02*
X136445238Y-111629819D01*
X136445238Y-111629819D02*
X136540476Y-111582200D01*
X136540476Y-111582200D02*
X136588095Y-111534580D01*
X136588095Y-111534580D02*
X136635714Y-111439342D01*
X136635714Y-111439342D02*
X136635714Y-111248866D01*
X136635714Y-111248866D02*
X136588095Y-111153628D01*
X136588095Y-111153628D02*
X136540476Y-111106009D01*
X136540476Y-111106009D02*
X136445238Y-111058390D01*
X135683333Y-103579819D02*
X135350000Y-103103628D01*
X135111905Y-103579819D02*
X135111905Y-102579819D01*
X135111905Y-102579819D02*
X135492857Y-102579819D01*
X135492857Y-102579819D02*
X135588095Y-102627438D01*
X135588095Y-102627438D02*
X135635714Y-102675057D01*
X135635714Y-102675057D02*
X135683333Y-102770295D01*
X135683333Y-102770295D02*
X135683333Y-102913152D01*
X135683333Y-102913152D02*
X135635714Y-103008390D01*
X135635714Y-103008390D02*
X135588095Y-103056009D01*
X135588095Y-103056009D02*
X135492857Y-103103628D01*
X135492857Y-103103628D02*
X135111905Y-103103628D01*
X136016667Y-102579819D02*
X136683333Y-102579819D01*
X136683333Y-102579819D02*
X136254762Y-103579819D01*
X127533333Y-110849580D02*
X127485714Y-110897200D01*
X127485714Y-110897200D02*
X127342857Y-110944819D01*
X127342857Y-110944819D02*
X127247619Y-110944819D01*
X127247619Y-110944819D02*
X127104762Y-110897200D01*
X127104762Y-110897200D02*
X127009524Y-110801961D01*
X127009524Y-110801961D02*
X126961905Y-110706723D01*
X126961905Y-110706723D02*
X126914286Y-110516247D01*
X126914286Y-110516247D02*
X126914286Y-110373390D01*
X126914286Y-110373390D02*
X126961905Y-110182914D01*
X126961905Y-110182914D02*
X127009524Y-110087676D01*
X127009524Y-110087676D02*
X127104762Y-109992438D01*
X127104762Y-109992438D02*
X127247619Y-109944819D01*
X127247619Y-109944819D02*
X127342857Y-109944819D01*
X127342857Y-109944819D02*
X127485714Y-109992438D01*
X127485714Y-109992438D02*
X127533333Y-110040057D01*
X128390476Y-110278152D02*
X128390476Y-110944819D01*
X128152381Y-109897200D02*
X127914286Y-110611485D01*
X127914286Y-110611485D02*
X128533333Y-110611485D01*
X119848333Y-110944819D02*
X119515000Y-110468628D01*
X119276905Y-110944819D02*
X119276905Y-109944819D01*
X119276905Y-109944819D02*
X119657857Y-109944819D01*
X119657857Y-109944819D02*
X119753095Y-109992438D01*
X119753095Y-109992438D02*
X119800714Y-110040057D01*
X119800714Y-110040057D02*
X119848333Y-110135295D01*
X119848333Y-110135295D02*
X119848333Y-110278152D01*
X119848333Y-110278152D02*
X119800714Y-110373390D01*
X119800714Y-110373390D02*
X119753095Y-110421009D01*
X119753095Y-110421009D02*
X119657857Y-110468628D01*
X119657857Y-110468628D02*
X119276905Y-110468628D01*
X120229286Y-110040057D02*
X120276905Y-109992438D01*
X120276905Y-109992438D02*
X120372143Y-109944819D01*
X120372143Y-109944819D02*
X120610238Y-109944819D01*
X120610238Y-109944819D02*
X120705476Y-109992438D01*
X120705476Y-109992438D02*
X120753095Y-110040057D01*
X120753095Y-110040057D02*
X120800714Y-110135295D01*
X120800714Y-110135295D02*
X120800714Y-110230533D01*
X120800714Y-110230533D02*
X120753095Y-110373390D01*
X120753095Y-110373390D02*
X120181667Y-110944819D01*
X120181667Y-110944819D02*
X120800714Y-110944819D01*
X106407142Y-103324819D02*
X106073809Y-102848628D01*
X105835714Y-103324819D02*
X105835714Y-102324819D01*
X105835714Y-102324819D02*
X106216666Y-102324819D01*
X106216666Y-102324819D02*
X106311904Y-102372438D01*
X106311904Y-102372438D02*
X106359523Y-102420057D01*
X106359523Y-102420057D02*
X106407142Y-102515295D01*
X106407142Y-102515295D02*
X106407142Y-102658152D01*
X106407142Y-102658152D02*
X106359523Y-102753390D01*
X106359523Y-102753390D02*
X106311904Y-102801009D01*
X106311904Y-102801009D02*
X106216666Y-102848628D01*
X106216666Y-102848628D02*
X105835714Y-102848628D01*
X107359523Y-103324819D02*
X106788095Y-103324819D01*
X107073809Y-103324819D02*
X107073809Y-102324819D01*
X107073809Y-102324819D02*
X106978571Y-102467676D01*
X106978571Y-102467676D02*
X106883333Y-102562914D01*
X106883333Y-102562914D02*
X106788095Y-102610533D01*
X107978571Y-102324819D02*
X108073809Y-102324819D01*
X108073809Y-102324819D02*
X108169047Y-102372438D01*
X108169047Y-102372438D02*
X108216666Y-102420057D01*
X108216666Y-102420057D02*
X108264285Y-102515295D01*
X108264285Y-102515295D02*
X108311904Y-102705771D01*
X108311904Y-102705771D02*
X108311904Y-102943866D01*
X108311904Y-102943866D02*
X108264285Y-103134342D01*
X108264285Y-103134342D02*
X108216666Y-103229580D01*
X108216666Y-103229580D02*
X108169047Y-103277200D01*
X108169047Y-103277200D02*
X108073809Y-103324819D01*
X108073809Y-103324819D02*
X107978571Y-103324819D01*
X107978571Y-103324819D02*
X107883333Y-103277200D01*
X107883333Y-103277200D02*
X107835714Y-103229580D01*
X107835714Y-103229580D02*
X107788095Y-103134342D01*
X107788095Y-103134342D02*
X107740476Y-102943866D01*
X107740476Y-102943866D02*
X107740476Y-102705771D01*
X107740476Y-102705771D02*
X107788095Y-102515295D01*
X107788095Y-102515295D02*
X107835714Y-102420057D01*
X107835714Y-102420057D02*
X107883333Y-102372438D01*
X107883333Y-102372438D02*
X107978571Y-102324819D01*
X135683333Y-115129819D02*
X135350000Y-114653628D01*
X135111905Y-115129819D02*
X135111905Y-114129819D01*
X135111905Y-114129819D02*
X135492857Y-114129819D01*
X135492857Y-114129819D02*
X135588095Y-114177438D01*
X135588095Y-114177438D02*
X135635714Y-114225057D01*
X135635714Y-114225057D02*
X135683333Y-114320295D01*
X135683333Y-114320295D02*
X135683333Y-114463152D01*
X135683333Y-114463152D02*
X135635714Y-114558390D01*
X135635714Y-114558390D02*
X135588095Y-114606009D01*
X135588095Y-114606009D02*
X135492857Y-114653628D01*
X135492857Y-114653628D02*
X135111905Y-114653628D01*
X136159524Y-115129819D02*
X136350000Y-115129819D01*
X136350000Y-115129819D02*
X136445238Y-115082200D01*
X136445238Y-115082200D02*
X136492857Y-115034580D01*
X136492857Y-115034580D02*
X136588095Y-114891723D01*
X136588095Y-114891723D02*
X136635714Y-114701247D01*
X136635714Y-114701247D02*
X136635714Y-114320295D01*
X136635714Y-114320295D02*
X136588095Y-114225057D01*
X136588095Y-114225057D02*
X136540476Y-114177438D01*
X136540476Y-114177438D02*
X136445238Y-114129819D01*
X136445238Y-114129819D02*
X136254762Y-114129819D01*
X136254762Y-114129819D02*
X136159524Y-114177438D01*
X136159524Y-114177438D02*
X136111905Y-114225057D01*
X136111905Y-114225057D02*
X136064286Y-114320295D01*
X136064286Y-114320295D02*
X136064286Y-114558390D01*
X136064286Y-114558390D02*
X136111905Y-114653628D01*
X136111905Y-114653628D02*
X136159524Y-114701247D01*
X136159524Y-114701247D02*
X136254762Y-114748866D01*
X136254762Y-114748866D02*
X136445238Y-114748866D01*
X136445238Y-114748866D02*
X136540476Y-114701247D01*
X136540476Y-114701247D02*
X136588095Y-114653628D01*
X136588095Y-114653628D02*
X136635714Y-114558390D01*
X136576666Y-119469819D02*
X136576666Y-120184104D01*
X136576666Y-120184104D02*
X136529047Y-120326961D01*
X136529047Y-120326961D02*
X136433809Y-120422200D01*
X136433809Y-120422200D02*
X136290952Y-120469819D01*
X136290952Y-120469819D02*
X136195714Y-120469819D01*
X137005238Y-119565057D02*
X137052857Y-119517438D01*
X137052857Y-119517438D02*
X137148095Y-119469819D01*
X137148095Y-119469819D02*
X137386190Y-119469819D01*
X137386190Y-119469819D02*
X137481428Y-119517438D01*
X137481428Y-119517438D02*
X137529047Y-119565057D01*
X137529047Y-119565057D02*
X137576666Y-119660295D01*
X137576666Y-119660295D02*
X137576666Y-119755533D01*
X137576666Y-119755533D02*
X137529047Y-119898390D01*
X137529047Y-119898390D02*
X136957619Y-120469819D01*
X136957619Y-120469819D02*
X137576666Y-120469819D01*
X115958333Y-104594819D02*
X115625000Y-104118628D01*
X115386905Y-104594819D02*
X115386905Y-103594819D01*
X115386905Y-103594819D02*
X115767857Y-103594819D01*
X115767857Y-103594819D02*
X115863095Y-103642438D01*
X115863095Y-103642438D02*
X115910714Y-103690057D01*
X115910714Y-103690057D02*
X115958333Y-103785295D01*
X115958333Y-103785295D02*
X115958333Y-103928152D01*
X115958333Y-103928152D02*
X115910714Y-104023390D01*
X115910714Y-104023390D02*
X115863095Y-104071009D01*
X115863095Y-104071009D02*
X115767857Y-104118628D01*
X115767857Y-104118628D02*
X115386905Y-104118628D01*
X116815476Y-103928152D02*
X116815476Y-104594819D01*
X116577381Y-103547200D02*
X116339286Y-104261485D01*
X116339286Y-104261485D02*
X116958333Y-104261485D01*
X128033333Y-103854819D02*
X127700000Y-103378628D01*
X127461905Y-103854819D02*
X127461905Y-102854819D01*
X127461905Y-102854819D02*
X127842857Y-102854819D01*
X127842857Y-102854819D02*
X127938095Y-102902438D01*
X127938095Y-102902438D02*
X127985714Y-102950057D01*
X127985714Y-102950057D02*
X128033333Y-103045295D01*
X128033333Y-103045295D02*
X128033333Y-103188152D01*
X128033333Y-103188152D02*
X127985714Y-103283390D01*
X127985714Y-103283390D02*
X127938095Y-103331009D01*
X127938095Y-103331009D02*
X127842857Y-103378628D01*
X127842857Y-103378628D02*
X127461905Y-103378628D01*
X128938095Y-102854819D02*
X128461905Y-102854819D01*
X128461905Y-102854819D02*
X128414286Y-103331009D01*
X128414286Y-103331009D02*
X128461905Y-103283390D01*
X128461905Y-103283390D02*
X128557143Y-103235771D01*
X128557143Y-103235771D02*
X128795238Y-103235771D01*
X128795238Y-103235771D02*
X128890476Y-103283390D01*
X128890476Y-103283390D02*
X128938095Y-103331009D01*
X128938095Y-103331009D02*
X128985714Y-103426247D01*
X128985714Y-103426247D02*
X128985714Y-103664342D01*
X128985714Y-103664342D02*
X128938095Y-103759580D01*
X128938095Y-103759580D02*
X128890476Y-103807200D01*
X128890476Y-103807200D02*
X128795238Y-103854819D01*
X128795238Y-103854819D02*
X128557143Y-103854819D01*
X128557143Y-103854819D02*
X128461905Y-103807200D01*
X128461905Y-103807200D02*
X128414286Y-103759580D01*
X132583333Y-110849580D02*
X132535714Y-110897200D01*
X132535714Y-110897200D02*
X132392857Y-110944819D01*
X132392857Y-110944819D02*
X132297619Y-110944819D01*
X132297619Y-110944819D02*
X132154762Y-110897200D01*
X132154762Y-110897200D02*
X132059524Y-110801961D01*
X132059524Y-110801961D02*
X132011905Y-110706723D01*
X132011905Y-110706723D02*
X131964286Y-110516247D01*
X131964286Y-110516247D02*
X131964286Y-110373390D01*
X131964286Y-110373390D02*
X132011905Y-110182914D01*
X132011905Y-110182914D02*
X132059524Y-110087676D01*
X132059524Y-110087676D02*
X132154762Y-109992438D01*
X132154762Y-109992438D02*
X132297619Y-109944819D01*
X132297619Y-109944819D02*
X132392857Y-109944819D01*
X132392857Y-109944819D02*
X132535714Y-109992438D01*
X132535714Y-109992438D02*
X132583333Y-110040057D01*
X133535714Y-110944819D02*
X132964286Y-110944819D01*
X133250000Y-110944819D02*
X133250000Y-109944819D01*
X133250000Y-109944819D02*
X133154762Y-110087676D01*
X133154762Y-110087676D02*
X133059524Y-110182914D01*
X133059524Y-110182914D02*
X132964286Y-110230533D01*
X122533333Y-110944819D02*
X122200000Y-110468628D01*
X121961905Y-110944819D02*
X121961905Y-109944819D01*
X121961905Y-109944819D02*
X122342857Y-109944819D01*
X122342857Y-109944819D02*
X122438095Y-109992438D01*
X122438095Y-109992438D02*
X122485714Y-110040057D01*
X122485714Y-110040057D02*
X122533333Y-110135295D01*
X122533333Y-110135295D02*
X122533333Y-110278152D01*
X122533333Y-110278152D02*
X122485714Y-110373390D01*
X122485714Y-110373390D02*
X122438095Y-110421009D01*
X122438095Y-110421009D02*
X122342857Y-110468628D01*
X122342857Y-110468628D02*
X121961905Y-110468628D01*
X123485714Y-110944819D02*
X122914286Y-110944819D01*
X123200000Y-110944819D02*
X123200000Y-109944819D01*
X123200000Y-109944819D02*
X123104762Y-110087676D01*
X123104762Y-110087676D02*
X123009524Y-110182914D01*
X123009524Y-110182914D02*
X122914286Y-110230533D01*
X106407142Y-111579819D02*
X106073809Y-111103628D01*
X105835714Y-111579819D02*
X105835714Y-110579819D01*
X105835714Y-110579819D02*
X106216666Y-110579819D01*
X106216666Y-110579819D02*
X106311904Y-110627438D01*
X106311904Y-110627438D02*
X106359523Y-110675057D01*
X106359523Y-110675057D02*
X106407142Y-110770295D01*
X106407142Y-110770295D02*
X106407142Y-110913152D01*
X106407142Y-110913152D02*
X106359523Y-111008390D01*
X106359523Y-111008390D02*
X106311904Y-111056009D01*
X106311904Y-111056009D02*
X106216666Y-111103628D01*
X106216666Y-111103628D02*
X105835714Y-111103628D01*
X107359523Y-111579819D02*
X106788095Y-111579819D01*
X107073809Y-111579819D02*
X107073809Y-110579819D01*
X107073809Y-110579819D02*
X106978571Y-110722676D01*
X106978571Y-110722676D02*
X106883333Y-110817914D01*
X106883333Y-110817914D02*
X106788095Y-110865533D01*
X108311904Y-111579819D02*
X107740476Y-111579819D01*
X108026190Y-111579819D02*
X108026190Y-110579819D01*
X108026190Y-110579819D02*
X107930952Y-110722676D01*
X107930952Y-110722676D02*
X107835714Y-110817914D01*
X107835714Y-110817914D02*
X107740476Y-110865533D01*
X123195595Y-104724819D02*
X123195595Y-105534342D01*
X123195595Y-105534342D02*
X123243214Y-105629580D01*
X123243214Y-105629580D02*
X123290833Y-105677200D01*
X123290833Y-105677200D02*
X123386071Y-105724819D01*
X123386071Y-105724819D02*
X123576547Y-105724819D01*
X123576547Y-105724819D02*
X123671785Y-105677200D01*
X123671785Y-105677200D02*
X123719404Y-105629580D01*
X123719404Y-105629580D02*
X123767023Y-105534342D01*
X123767023Y-105534342D02*
X123767023Y-104724819D01*
X124767023Y-105724819D02*
X124195595Y-105724819D01*
X124481309Y-105724819D02*
X124481309Y-104724819D01*
X124481309Y-104724819D02*
X124386071Y-104867676D01*
X124386071Y-104867676D02*
X124290833Y-104962914D01*
X124290833Y-104962914D02*
X124195595Y-105010533D01*
X125033333Y-110849580D02*
X124985714Y-110897200D01*
X124985714Y-110897200D02*
X124842857Y-110944819D01*
X124842857Y-110944819D02*
X124747619Y-110944819D01*
X124747619Y-110944819D02*
X124604762Y-110897200D01*
X124604762Y-110897200D02*
X124509524Y-110801961D01*
X124509524Y-110801961D02*
X124461905Y-110706723D01*
X124461905Y-110706723D02*
X124414286Y-110516247D01*
X124414286Y-110516247D02*
X124414286Y-110373390D01*
X124414286Y-110373390D02*
X124461905Y-110182914D01*
X124461905Y-110182914D02*
X124509524Y-110087676D01*
X124509524Y-110087676D02*
X124604762Y-109992438D01*
X124604762Y-109992438D02*
X124747619Y-109944819D01*
X124747619Y-109944819D02*
X124842857Y-109944819D01*
X124842857Y-109944819D02*
X124985714Y-109992438D01*
X124985714Y-109992438D02*
X125033333Y-110040057D01*
X125366667Y-109944819D02*
X125985714Y-109944819D01*
X125985714Y-109944819D02*
X125652381Y-110325771D01*
X125652381Y-110325771D02*
X125795238Y-110325771D01*
X125795238Y-110325771D02*
X125890476Y-110373390D01*
X125890476Y-110373390D02*
X125938095Y-110421009D01*
X125938095Y-110421009D02*
X125985714Y-110516247D01*
X125985714Y-110516247D02*
X125985714Y-110754342D01*
X125985714Y-110754342D02*
X125938095Y-110849580D01*
X125938095Y-110849580D02*
X125890476Y-110897200D01*
X125890476Y-110897200D02*
X125795238Y-110944819D01*
X125795238Y-110944819D02*
X125509524Y-110944819D01*
X125509524Y-110944819D02*
X125414286Y-110897200D01*
X125414286Y-110897200D02*
X125366667Y-110849580D01*
X105961666Y-119469819D02*
X105961666Y-120184104D01*
X105961666Y-120184104D02*
X105914047Y-120326961D01*
X105914047Y-120326961D02*
X105818809Y-120422200D01*
X105818809Y-120422200D02*
X105675952Y-120469819D01*
X105675952Y-120469819D02*
X105580714Y-120469819D01*
X106961666Y-120469819D02*
X106390238Y-120469819D01*
X106675952Y-120469819D02*
X106675952Y-119469819D01*
X106675952Y-119469819D02*
X106580714Y-119612676D01*
X106580714Y-119612676D02*
X106485476Y-119707914D01*
X106485476Y-119707914D02*
X106390238Y-119755533D01*
X131278333Y-105134580D02*
X131230714Y-105182200D01*
X131230714Y-105182200D02*
X131087857Y-105229819D01*
X131087857Y-105229819D02*
X130992619Y-105229819D01*
X130992619Y-105229819D02*
X130849762Y-105182200D01*
X130849762Y-105182200D02*
X130754524Y-105086961D01*
X130754524Y-105086961D02*
X130706905Y-104991723D01*
X130706905Y-104991723D02*
X130659286Y-104801247D01*
X130659286Y-104801247D02*
X130659286Y-104658390D01*
X130659286Y-104658390D02*
X130706905Y-104467914D01*
X130706905Y-104467914D02*
X130754524Y-104372676D01*
X130754524Y-104372676D02*
X130849762Y-104277438D01*
X130849762Y-104277438D02*
X130992619Y-104229819D01*
X130992619Y-104229819D02*
X131087857Y-104229819D01*
X131087857Y-104229819D02*
X131230714Y-104277438D01*
X131230714Y-104277438D02*
X131278333Y-104325057D01*
X132183095Y-104229819D02*
X131706905Y-104229819D01*
X131706905Y-104229819D02*
X131659286Y-104706009D01*
X131659286Y-104706009D02*
X131706905Y-104658390D01*
X131706905Y-104658390D02*
X131802143Y-104610771D01*
X131802143Y-104610771D02*
X132040238Y-104610771D01*
X132040238Y-104610771D02*
X132135476Y-104658390D01*
X132135476Y-104658390D02*
X132183095Y-104706009D01*
X132183095Y-104706009D02*
X132230714Y-104801247D01*
X132230714Y-104801247D02*
X132230714Y-105039342D01*
X132230714Y-105039342D02*
X132183095Y-105134580D01*
X132183095Y-105134580D02*
X132135476Y-105182200D01*
X132135476Y-105182200D02*
X132040238Y-105229819D01*
X132040238Y-105229819D02*
X131802143Y-105229819D01*
X131802143Y-105229819D02*
X131706905Y-105182200D01*
X131706905Y-105182200D02*
X131659286Y-105134580D01*
X106407142Y-114954819D02*
X106073809Y-114478628D01*
X105835714Y-114954819D02*
X105835714Y-113954819D01*
X105835714Y-113954819D02*
X106216666Y-113954819D01*
X106216666Y-113954819D02*
X106311904Y-114002438D01*
X106311904Y-114002438D02*
X106359523Y-114050057D01*
X106359523Y-114050057D02*
X106407142Y-114145295D01*
X106407142Y-114145295D02*
X106407142Y-114288152D01*
X106407142Y-114288152D02*
X106359523Y-114383390D01*
X106359523Y-114383390D02*
X106311904Y-114431009D01*
X106311904Y-114431009D02*
X106216666Y-114478628D01*
X106216666Y-114478628D02*
X105835714Y-114478628D01*
X107359523Y-114954819D02*
X106788095Y-114954819D01*
X107073809Y-114954819D02*
X107073809Y-113954819D01*
X107073809Y-113954819D02*
X106978571Y-114097676D01*
X106978571Y-114097676D02*
X106883333Y-114192914D01*
X106883333Y-114192914D02*
X106788095Y-114240533D01*
X107740476Y-114050057D02*
X107788095Y-114002438D01*
X107788095Y-114002438D02*
X107883333Y-113954819D01*
X107883333Y-113954819D02*
X108121428Y-113954819D01*
X108121428Y-113954819D02*
X108216666Y-114002438D01*
X108216666Y-114002438D02*
X108264285Y-114050057D01*
X108264285Y-114050057D02*
X108311904Y-114145295D01*
X108311904Y-114145295D02*
X108311904Y-114240533D01*
X108311904Y-114240533D02*
X108264285Y-114383390D01*
X108264285Y-114383390D02*
X107692857Y-114954819D01*
X107692857Y-114954819D02*
X108311904Y-114954819D01*
X131833333Y-103959819D02*
X131500000Y-103483628D01*
X131261905Y-103959819D02*
X131261905Y-102959819D01*
X131261905Y-102959819D02*
X131642857Y-102959819D01*
X131642857Y-102959819D02*
X131738095Y-103007438D01*
X131738095Y-103007438D02*
X131785714Y-103055057D01*
X131785714Y-103055057D02*
X131833333Y-103150295D01*
X131833333Y-103150295D02*
X131833333Y-103293152D01*
X131833333Y-103293152D02*
X131785714Y-103388390D01*
X131785714Y-103388390D02*
X131738095Y-103436009D01*
X131738095Y-103436009D02*
X131642857Y-103483628D01*
X131642857Y-103483628D02*
X131261905Y-103483628D01*
X132690476Y-102959819D02*
X132500000Y-102959819D01*
X132500000Y-102959819D02*
X132404762Y-103007438D01*
X132404762Y-103007438D02*
X132357143Y-103055057D01*
X132357143Y-103055057D02*
X132261905Y-103197914D01*
X132261905Y-103197914D02*
X132214286Y-103388390D01*
X132214286Y-103388390D02*
X132214286Y-103769342D01*
X132214286Y-103769342D02*
X132261905Y-103864580D01*
X132261905Y-103864580D02*
X132309524Y-103912200D01*
X132309524Y-103912200D02*
X132404762Y-103959819D01*
X132404762Y-103959819D02*
X132595238Y-103959819D01*
X132595238Y-103959819D02*
X132690476Y-103912200D01*
X132690476Y-103912200D02*
X132738095Y-103864580D01*
X132738095Y-103864580D02*
X132785714Y-103769342D01*
X132785714Y-103769342D02*
X132785714Y-103531247D01*
X132785714Y-103531247D02*
X132738095Y-103436009D01*
X132738095Y-103436009D02*
X132690476Y-103388390D01*
X132690476Y-103388390D02*
X132595238Y-103340771D01*
X132595238Y-103340771D02*
X132404762Y-103340771D01*
X132404762Y-103340771D02*
X132309524Y-103388390D01*
X132309524Y-103388390D02*
X132261905Y-103436009D01*
X132261905Y-103436009D02*
X132214286Y-103531247D01*
X109116905Y-102054819D02*
X109116905Y-101054819D01*
X109116905Y-101054819D02*
X109355000Y-101054819D01*
X109355000Y-101054819D02*
X109497857Y-101102438D01*
X109497857Y-101102438D02*
X109593095Y-101197676D01*
X109593095Y-101197676D02*
X109640714Y-101292914D01*
X109640714Y-101292914D02*
X109688333Y-101483390D01*
X109688333Y-101483390D02*
X109688333Y-101626247D01*
X109688333Y-101626247D02*
X109640714Y-101816723D01*
X109640714Y-101816723D02*
X109593095Y-101911961D01*
X109593095Y-101911961D02*
X109497857Y-102007200D01*
X109497857Y-102007200D02*
X109355000Y-102054819D01*
X109355000Y-102054819D02*
X109116905Y-102054819D01*
X110021667Y-101054819D02*
X110688333Y-101054819D01*
X110688333Y-101054819D02*
X110259762Y-102054819D01*
X112433333Y-110849580D02*
X112385714Y-110897200D01*
X112385714Y-110897200D02*
X112242857Y-110944819D01*
X112242857Y-110944819D02*
X112147619Y-110944819D01*
X112147619Y-110944819D02*
X112004762Y-110897200D01*
X112004762Y-110897200D02*
X111909524Y-110801961D01*
X111909524Y-110801961D02*
X111861905Y-110706723D01*
X111861905Y-110706723D02*
X111814286Y-110516247D01*
X111814286Y-110516247D02*
X111814286Y-110373390D01*
X111814286Y-110373390D02*
X111861905Y-110182914D01*
X111861905Y-110182914D02*
X111909524Y-110087676D01*
X111909524Y-110087676D02*
X112004762Y-109992438D01*
X112004762Y-109992438D02*
X112147619Y-109944819D01*
X112147619Y-109944819D02*
X112242857Y-109944819D01*
X112242857Y-109944819D02*
X112385714Y-109992438D01*
X112385714Y-109992438D02*
X112433333Y-110040057D01*
X112766667Y-109944819D02*
X113433333Y-109944819D01*
X113433333Y-109944819D02*
X113004762Y-110944819D01*
D11*
%TO.C,C9*%
X113038748Y-103405000D02*
X113561252Y-103405000D01*
X113038748Y-104875000D02*
X113561252Y-104875000D01*
%TO.C,R3*%
X116965000Y-108227064D02*
X116965000Y-107772936D01*
X118435000Y-108227064D02*
X118435000Y-107772936D01*
%TO.C,C8*%
X110735000Y-107738748D02*
X110735000Y-108261252D01*
X109265000Y-107738748D02*
X109265000Y-108261252D01*
%TO.C,C2*%
X129565000Y-108261252D02*
X129565000Y-107738748D01*
X131035000Y-108261252D02*
X131035000Y-107738748D01*
%TO.C,C6*%
X115935000Y-107738748D02*
X115935000Y-108261252D01*
X114465000Y-107738748D02*
X114465000Y-108261252D01*
%TO.C,DS1*%
X132600000Y-115300000D02*
X132600000Y-111150000D01*
X132600000Y-111150000D02*
X110300000Y-111150000D01*
X110300000Y-111150000D02*
X110300000Y-115300000D01*
D12*
X129800000Y-118050000D02*
G75*
G03*
X129100000Y-118050000I-350000J0D01*
G01*
X129100000Y-118050000D02*
G75*
G03*
X129800000Y-118050000I350000J0D01*
G01*
X113800000Y-118050000D02*
G75*
G03*
X113100000Y-118050000I-350000J0D01*
G01*
X113100000Y-118050000D02*
G75*
G03*
X113800000Y-118050000I350000J0D01*
G01*
D11*
%TO.C,R8*%
X135622936Y-112090000D02*
X136077064Y-112090000D01*
X135622936Y-113560000D02*
X136077064Y-113560000D01*
%TO.C,R7*%
X135622936Y-104040000D02*
X136077064Y-104040000D01*
X135622936Y-105510000D02*
X136077064Y-105510000D01*
%TO.C,C4*%
X128435000Y-107738748D02*
X128435000Y-108261252D01*
X126965000Y-107738748D02*
X126965000Y-108261252D01*
%TO.C,R2*%
X120835000Y-107772936D02*
X120835000Y-108227064D01*
X119365000Y-107772936D02*
X119365000Y-108227064D01*
%TO.C,R10*%
X107277064Y-105510000D02*
X106822936Y-105510000D01*
X107277064Y-104040000D02*
X106822936Y-104040000D01*
%TO.C,R9*%
X135622936Y-115590000D02*
X136077064Y-115590000D01*
X135622936Y-117060000D02*
X136077064Y-117060000D01*
%TO.C,J2*%
X138450000Y-100330000D02*
X139780000Y-100330000D01*
X138450000Y-101660000D02*
X138450000Y-100330000D01*
X138450000Y-102930000D02*
X138450000Y-120770000D01*
X138450000Y-102930000D02*
X141110000Y-102930000D01*
X138450000Y-120770000D02*
X141110000Y-120770000D01*
X141110000Y-102930000D02*
X141110000Y-120770000D01*
%TO.C,R4*%
X119072936Y-103405000D02*
X119527064Y-103405000D01*
X119072936Y-104875000D02*
X119527064Y-104875000D01*
%TO.C,R5*%
X127972936Y-100865000D02*
X128427064Y-100865000D01*
X127972936Y-102335000D02*
X128427064Y-102335000D01*
%TO.C,C1*%
X132015000Y-108261252D02*
X132015000Y-107738748D01*
X133485000Y-108261252D02*
X133485000Y-107738748D01*
%TO.C,R1*%
X123435000Y-107772936D02*
X123435000Y-108227064D01*
X121965000Y-107772936D02*
X121965000Y-108227064D01*
%TO.C,R11*%
X107277064Y-113560000D02*
X106822936Y-113560000D01*
X107277064Y-112090000D02*
X106822936Y-112090000D01*
%TO.C,U1*%
X123957500Y-104430000D02*
X124757500Y-104430000D01*
X123957500Y-104430000D02*
X123157500Y-104430000D01*
X123957500Y-101310000D02*
X124757500Y-101310000D01*
X123957500Y-101310000D02*
X123157500Y-101310000D01*
X125497500Y-104710000D02*
X125017500Y-104710000D01*
X125257500Y-104380000D01*
X125497500Y-104710000D01*
G36*
X125497500Y-104710000D02*
G01*
X125017500Y-104710000D01*
X125257500Y-104380000D01*
X125497500Y-104710000D01*
G37*
%TO.C,C3*%
X125935000Y-107738748D02*
X125935000Y-108261252D01*
X124465000Y-107738748D02*
X124465000Y-108261252D01*
%TO.C,J1*%
X101790000Y-100330000D02*
X103120000Y-100330000D01*
X101790000Y-101660000D02*
X101790000Y-100330000D01*
X101790000Y-102930000D02*
X101790000Y-120770000D01*
X101790000Y-102930000D02*
X104450000Y-102930000D01*
X101790000Y-120770000D02*
X104450000Y-120770000D01*
X104450000Y-102930000D02*
X104450000Y-120770000D01*
%TO.C,C5*%
X128241248Y-104040000D02*
X128763752Y-104040000D01*
X128241248Y-105510000D02*
X128763752Y-105510000D01*
%TO.C,R12*%
X107277064Y-117060000D02*
X106822936Y-117060000D01*
X107277064Y-115590000D02*
X106822936Y-115590000D01*
%TO.C,R6*%
X131772936Y-100865000D02*
X132227064Y-100865000D01*
X131772936Y-102335000D02*
X132227064Y-102335000D01*
%TO.C,D7*%
X111335000Y-100390000D02*
X111335000Y-102610000D01*
X111335000Y-102610000D02*
X118745000Y-102610000D01*
X118745000Y-100390000D02*
X111335000Y-100390000D01*
%TO.C,C7*%
X113335000Y-107738748D02*
X113335000Y-108261252D01*
X111865000Y-107738748D02*
X111865000Y-108261252D01*
%TD*%
M02*
