%TF.GenerationSoftware,KiCad,Pcbnew,7.0.11+dfsg-1build4*%
%TF.CreationDate,2026-05-11T14:23:22-05:00*%
%TF.ProjectId,panel-mount-oled-display-display-board,70616e65-6c2d-46d6-9f75-6e742d6f6c65,rev?*%
%TF.SameCoordinates,Original*%
%TF.FileFunction,Copper,L1,Top*%
%TF.FilePolarity,Positive*%
%FSLAX46Y46*%
G04 Gerber Fmt 4.6, Leading zero omitted, Abs format (unit mm)*
G04 Created by KiCad (PCBNEW 7.0.11+dfsg-1build4) date 2026-05-11 14:23:22*
%MOMM*%
%LPD*%
G01*
G04 APERTURE LIST*
G04 Aperture macros list*
%AMRoundRect*
0 Rectangle with rounded corners*
0 $1 Rounding radius*
0 $2 $3 $4 $5 $6 $7 $8 $9 X,Y pos of 4 corners*
0 Add a 4 corners polygon primitive as box body*
4,1,4,$2,$3,$4,$5,$6,$7,$8,$9,$2,$3,0*
0 Add four circle primitives for the rounded corners*
1,1,$1+$1,$2,$3*
1,1,$1+$1,$4,$5*
1,1,$1+$1,$6,$7*
1,1,$1+$1,$8,$9*
0 Add four rect primitives between the rounded corners*
20,1,$1+$1,$2,$3,$4,$5,0*
20,1,$1+$1,$4,$5,$6,$7,0*
20,1,$1+$1,$6,$7,$8,$9,0*
20,1,$1+$1,$8,$9,$2,$3,0*%
G04 Aperture macros list end*
%TA.AperFunction,SMDPad,CuDef*%
%ADD10RoundRect,0.250000X-0.337500X-0.475000X0.337500X-0.475000X0.337500X0.475000X-0.337500X0.475000X0*%
%TD*%
%TA.AperFunction,SMDPad,CuDef*%
%ADD11RoundRect,0.250000X0.450000X-0.350000X0.450000X0.350000X-0.450000X0.350000X-0.450000X-0.350000X0*%
%TD*%
%TA.AperFunction,SMDPad,CuDef*%
%ADD12RoundRect,0.250000X-0.475000X0.337500X-0.475000X-0.337500X0.475000X-0.337500X0.475000X0.337500X0*%
%TD*%
%TA.AperFunction,SMDPad,CuDef*%
%ADD13RoundRect,0.250000X0.475000X-0.337500X0.475000X0.337500X-0.475000X0.337500X-0.475000X-0.337500X0*%
%TD*%
%TA.AperFunction,SMDPad,CuDef*%
%ADD14R,0.400000X4.000000*%
%TD*%
%TA.AperFunction,SMDPad,CuDef*%
%ADD15RoundRect,0.250000X-0.350000X-0.450000X0.350000X-0.450000X0.350000X0.450000X-0.350000X0.450000X0*%
%TD*%
%TA.AperFunction,SMDPad,CuDef*%
%ADD16RoundRect,0.250000X-0.450000X0.350000X-0.450000X-0.350000X0.450000X-0.350000X0.450000X0.350000X0*%
%TD*%
%TA.AperFunction,SMDPad,CuDef*%
%ADD17RoundRect,0.250000X0.350000X0.450000X-0.350000X0.450000X-0.350000X-0.450000X0.350000X-0.450000X0*%
%TD*%
%TA.AperFunction,ComponentPad*%
%ADD18R,1.700000X1.700000*%
%TD*%
%TA.AperFunction,ComponentPad*%
%ADD19O,1.700000X1.700000*%
%TD*%
%TA.AperFunction,SMDPad,CuDef*%
%ADD20RoundRect,0.150000X0.512500X0.150000X-0.512500X0.150000X-0.512500X-0.150000X0.512500X-0.150000X0*%
%TD*%
%TA.AperFunction,SMDPad,CuDef*%
%ADD21RoundRect,0.250000X-1.400000X-0.600000X1.400000X-0.600000X1.400000X0.600000X-1.400000X0.600000X0*%
%TD*%
%TA.AperFunction,ViaPad*%
%ADD22C,0.600000*%
%TD*%
%TA.AperFunction,Conductor*%
%ADD23C,0.200000*%
%TD*%
G04 APERTURE END LIST*
D10*
%TO.P,C9,1*%
%TO.N,GND*%
X112262500Y-104140000D03*
%TO.P,C9,2*%
%TO.N,Net-(D7-A)*%
X114337500Y-104140000D03*
%TD*%
D11*
%TO.P,R3,1*%
%TO.N,Net-(DS1-IREF)*%
X117700000Y-109000000D03*
%TO.P,R3,2*%
%TO.N,GND*%
X117700000Y-107000000D03*
%TD*%
D12*
%TO.P,C8,1*%
%TO.N,GND*%
X110000000Y-106962500D03*
%TO.P,C8,2*%
%TO.N,Net-(DS1-VCC)*%
X110000000Y-109037500D03*
%TD*%
D13*
%TO.P,C2,1*%
%TO.N,Net-(DS1-C1P)*%
X130300000Y-109037500D03*
%TO.P,C2,2*%
%TO.N,Net-(DS1-C1N)*%
X130300000Y-106962500D03*
%TD*%
D12*
%TO.P,C6,1*%
%TO.N,GND*%
X115200000Y-106962500D03*
%TO.P,C6,2*%
%TO.N,Net-(DS1-VCOMH)*%
X115200000Y-109037500D03*
%TD*%
D14*
%TO.P,DS1,1,GND*%
%TO.N,GND*%
X131600000Y-113300000D03*
%TO.P,DS1,2,C2N*%
%TO.N,Net-(DS1-C2N)*%
X130900000Y-113300000D03*
%TO.P,DS1,3,C2P*%
%TO.N,Net-(DS1-C2P)*%
X130200000Y-113300000D03*
%TO.P,DS1,4,C1P*%
%TO.N,Net-(DS1-C1P)*%
X129500000Y-113300000D03*
%TO.P,DS1,5,C1N*%
%TO.N,Net-(DS1-C1N)*%
X128800000Y-113300000D03*
%TO.P,DS1,6,VBAT*%
%TO.N,Net-(DS1-VBAT)*%
X128100000Y-113300000D03*
%TO.P,DS1,7,NC*%
%TO.N,unconnected-(DS1-NC-Pad7)*%
X127400000Y-113300000D03*
%TO.P,DS1,8,VSS*%
%TO.N,GND*%
X126700000Y-113300000D03*
%TO.P,DS1,9,VDD*%
%TO.N,Net-(DS1-VBAT)*%
X126000000Y-113300000D03*
%TO.P,DS1,10,BS0*%
%TO.N,GND*%
X125300000Y-113300000D03*
%TO.P,DS1,11,BS1*%
%TO.N,/VCC*%
X124600000Y-113300000D03*
%TO.P,DS1,12,BS2*%
%TO.N,GND*%
X123900000Y-113300000D03*
%TO.P,DS1,13,~{CS}*%
X123200000Y-113300000D03*
%TO.P,DS1,14,~{RES}*%
%TO.N,Net-(D7-A)*%
X122500000Y-113300000D03*
%TO.P,DS1,15,D/~{C}*%
%TO.N,Net-(DS1-D{slash}~{C})*%
X121800000Y-113300000D03*
%TO.P,DS1,16,R/~{W}*%
%TO.N,GND*%
X121100000Y-113300000D03*
%TO.P,DS1,17,E/~{RD}*%
X120400000Y-113300000D03*
%TO.P,DS1,18,D0*%
%TO.N,/SCL*%
X119700000Y-113300000D03*
%TO.P,DS1,19,D1*%
%TO.N,/SDA*%
X119000000Y-113300000D03*
%TO.P,DS1,20,D2*%
X118300000Y-113300000D03*
%TO.P,DS1,21,D3*%
%TO.N,GND*%
X117600000Y-113300000D03*
%TO.P,DS1,22,D4*%
X116900000Y-113300000D03*
%TO.P,DS1,23,D5*%
X116200000Y-113300000D03*
%TO.P,DS1,24,D6*%
X115500000Y-113300000D03*
%TO.P,DS1,25,D7*%
X114800000Y-113300000D03*
%TO.P,DS1,26,IREF*%
%TO.N,Net-(DS1-IREF)*%
X114100000Y-113300000D03*
%TO.P,DS1,27,VCOMH*%
%TO.N,Net-(DS1-VCOMH)*%
X113400000Y-113300000D03*
%TO.P,DS1,28,VCC*%
%TO.N,Net-(DS1-VCC)*%
X112700000Y-113300000D03*
%TO.P,DS1,29,VLSS*%
%TO.N,GND*%
X112000000Y-113300000D03*
%TO.P,DS1,30,GND*%
X111300000Y-113300000D03*
%TD*%
D15*
%TO.P,R8,1*%
%TO.N,Net-(D2-K)*%
X135100000Y-112825000D03*
%TO.P,R8,2*%
%TO.N,/D2K*%
X137100000Y-112825000D03*
%TD*%
%TO.P,R7,1*%
%TO.N,Net-(D1-K)*%
X135100000Y-104775000D03*
%TO.P,R7,2*%
%TO.N,/D1K*%
X137100000Y-104775000D03*
%TD*%
D12*
%TO.P,C4,1*%
%TO.N,GND*%
X127700000Y-106962500D03*
%TO.P,C4,2*%
%TO.N,Net-(DS1-VBAT)*%
X127700000Y-109037500D03*
%TD*%
D16*
%TO.P,R2,1*%
%TO.N,/VCC*%
X120100000Y-107000000D03*
%TO.P,R2,2*%
%TO.N,/SDA*%
X120100000Y-109000000D03*
%TD*%
D17*
%TO.P,R10,1*%
%TO.N,Net-(D4-K)*%
X107800000Y-104775000D03*
%TO.P,R10,2*%
%TO.N,/D4K*%
X105800000Y-104775000D03*
%TD*%
D15*
%TO.P,R9,1*%
%TO.N,Net-(D3-K)*%
X135100000Y-116325000D03*
%TO.P,R9,2*%
%TO.N,/D3K*%
X137100000Y-116325000D03*
%TD*%
D18*
%TO.P,J2,1,Pin_1*%
%TO.N,/D1K*%
X140030000Y-101660000D03*
D19*
%TO.P,J2,2,Pin_2*%
%TO.N,/D1A*%
X140030000Y-104200000D03*
%TO.P,J2,3,Pin_3*%
%TO.N,GND*%
X140030000Y-106740000D03*
%TO.P,J2,4,Pin_4*%
%TO.N,/SDA*%
X140030000Y-109280000D03*
%TO.P,J2,5,Pin_5*%
%TO.N,/D2K*%
X140030000Y-111820000D03*
%TO.P,J2,6,Pin_6*%
%TO.N,/D2A*%
X140030000Y-114360000D03*
%TO.P,J2,7,Pin_7*%
%TO.N,/D3K*%
X140030000Y-116900000D03*
%TO.P,J2,8,Pin_8*%
%TO.N,/D3A*%
X140030000Y-119440000D03*
%TD*%
D15*
%TO.P,R4,1*%
%TO.N,/VCC*%
X118300000Y-104140000D03*
%TO.P,R4,2*%
%TO.N,Net-(D7-A)*%
X120300000Y-104140000D03*
%TD*%
%TO.P,R5,1*%
%TO.N,Net-(DS1-VBAT)*%
X127200000Y-101600000D03*
%TO.P,R5,2*%
%TO.N,Net-(DS1-D{slash}~{C})*%
X129200000Y-101600000D03*
%TD*%
D13*
%TO.P,C1,1*%
%TO.N,Net-(DS1-C2N)*%
X133000000Y-109037500D03*
%TO.P,C1,2*%
%TO.N,Net-(DS1-C2P)*%
X133000000Y-106962500D03*
%TD*%
D16*
%TO.P,R1,1*%
%TO.N,/VCC*%
X122700000Y-107000000D03*
%TO.P,R1,2*%
%TO.N,/SCL*%
X122700000Y-109000000D03*
%TD*%
D17*
%TO.P,R11,1*%
%TO.N,Net-(D5-K)*%
X107800000Y-112825000D03*
%TO.P,R11,2*%
%TO.N,/D5K*%
X105800000Y-112825000D03*
%TD*%
D20*
%TO.P,U1,1,GND*%
%TO.N,GND*%
X125095000Y-103820000D03*
%TO.P,U1,2,VO*%
%TO.N,Net-(DS1-VBAT)*%
X125095000Y-101920000D03*
%TO.P,U1,3,VI*%
%TO.N,/VCC*%
X122820000Y-102870000D03*
%TD*%
D12*
%TO.P,C3,1*%
%TO.N,GND*%
X125200000Y-106962500D03*
%TO.P,C3,2*%
%TO.N,Net-(DS1-VBAT)*%
X125200000Y-109037500D03*
%TD*%
D18*
%TO.P,J1,1,Pin_1*%
%TO.N,/D4K*%
X102870000Y-101660000D03*
D19*
%TO.P,J1,2,Pin_2*%
%TO.N,/D4A*%
X102870000Y-104200000D03*
%TO.P,J1,3,Pin_3*%
%TO.N,/VCC*%
X102870000Y-106740000D03*
%TO.P,J1,4,Pin_4*%
%TO.N,/SCL*%
X102870000Y-109280000D03*
%TO.P,J1,5,Pin_5*%
%TO.N,/D5K*%
X102870000Y-111820000D03*
%TO.P,J1,6,Pin_6*%
%TO.N,/D5A*%
X102870000Y-114360000D03*
%TO.P,J1,7,Pin_7*%
%TO.N,/D6K*%
X102870000Y-116900000D03*
%TO.P,J1,8,Pin_8*%
%TO.N,/D6A*%
X102870000Y-119440000D03*
%TD*%
D10*
%TO.P,C5,1*%
%TO.N,GND*%
X127465000Y-104775000D03*
%TO.P,C5,2*%
%TO.N,/VCC*%
X129540000Y-104775000D03*
%TD*%
D17*
%TO.P,R12,1*%
%TO.N,Net-(D6-K)*%
X107800000Y-116325000D03*
%TO.P,R12,2*%
%TO.N,/D6K*%
X105800000Y-116325000D03*
%TD*%
D15*
%TO.P,R6,1*%
%TO.N,Net-(DS1-D{slash}~{C})*%
X131000000Y-101600000D03*
%TO.P,R6,2*%
%TO.N,GND*%
X133000000Y-101600000D03*
%TD*%
D21*
%TO.P,D7,1,K*%
%TO.N,/VCC*%
X113245000Y-101500000D03*
%TO.P,D7,2,A*%
%TO.N,Net-(D7-A)*%
X118745000Y-101500000D03*
%TD*%
D12*
%TO.P,C7,1*%
%TO.N,GND*%
X112600000Y-106962500D03*
%TO.P,C7,2*%
%TO.N,Net-(DS1-VCC)*%
X112600000Y-109037500D03*
%TD*%
D22*
%TO.N,/VCC*%
X121920000Y-100965000D03*
X115570000Y-100800000D03*
X131461300Y-104239700D03*
X126505200Y-110032800D03*
%TO.N,/SCL*%
X120006800Y-110691300D03*
%TO.N,/SDA*%
X121737200Y-107966900D03*
%TO.N,GND*%
X109220000Y-111760000D03*
X133350000Y-118110000D03*
X109220000Y-118110000D03*
X133350000Y-114300000D03*
%TO.N,Net-(DS1-D{slash}~{C})*%
X120878700Y-110670600D03*
X128183400Y-103135100D03*
%TO.N,Net-(D7-A)*%
X119464900Y-105187200D03*
X122225600Y-110174200D03*
%TO.N,Net-(D1-K)*%
X133817800Y-104213000D03*
%TO.N,Net-(D2-K)*%
X133899500Y-112313500D03*
%TO.N,Net-(D3-K)*%
X133817800Y-116887000D03*
%TO.N,Net-(D4-K)*%
X108303800Y-100904500D03*
%TO.N,Net-(D5-K)*%
X108303800Y-114575000D03*
%TO.N,Net-(D6-K)*%
X108303800Y-120195500D03*
%TD*%
D23*
%TO.N,/VCC*%
X124600000Y-110592500D02*
X124104800Y-110097300D01*
X130075300Y-104239700D02*
X129540000Y-104775000D01*
X115035000Y-101500000D02*
X115570000Y-100965000D01*
X109855000Y-104304744D02*
X109855000Y-102235000D01*
X122700000Y-107000000D02*
X122700000Y-102990000D01*
X109855000Y-102235000D02*
X110590000Y-101500000D01*
X107419744Y-106740000D02*
X109855000Y-104304744D01*
X125945500Y-110592500D02*
X126505200Y-110032800D01*
X115660000Y-101500000D02*
X115570000Y-101410000D01*
X115570000Y-101410000D02*
X115570000Y-100965000D01*
X124600000Y-110592500D02*
X125945500Y-110592500D01*
X131461300Y-104239700D02*
X130075300Y-104239700D01*
X102870000Y-106740000D02*
X107419744Y-106740000D01*
X115660000Y-101500000D02*
X115771400Y-101611400D01*
X122700000Y-102990000D02*
X122820000Y-102870000D01*
X115771400Y-101611400D02*
X118300000Y-104140000D01*
X124600000Y-113300000D02*
X124600000Y-110592500D01*
X124104800Y-110097300D02*
X124104800Y-108404800D01*
X113245000Y-101500000D02*
X115035000Y-101500000D01*
X121920000Y-100965000D02*
X121920000Y-101970000D01*
X124104800Y-108404800D02*
X122700000Y-107000000D01*
X122820000Y-102754800D02*
X122820000Y-102870000D01*
X110590000Y-101500000D02*
X113245000Y-101500000D01*
X122700000Y-107000000D02*
X120100000Y-107000000D01*
X121920000Y-101970000D02*
X122820000Y-102870000D01*
%TO.N,Net-(DS1-C2N)*%
X131547500Y-110490000D02*
X133000000Y-109037500D01*
X130900000Y-113300000D02*
X130900000Y-110629400D01*
X131039400Y-110490000D02*
X131547500Y-110490000D01*
X130900000Y-110629400D02*
X131039400Y-110490000D01*
%TO.N,/SCL*%
X122700000Y-109000000D02*
X122140000Y-109000000D01*
X120006700Y-110691400D02*
X120006700Y-110691300D01*
X121069400Y-110070600D02*
X120630171Y-110070600D01*
X119700000Y-113300000D02*
X119700000Y-110998100D01*
X119700000Y-110998100D02*
X120006700Y-110691400D01*
X120278700Y-110422071D02*
X120278700Y-110691300D01*
X120630171Y-110070600D02*
X120278700Y-110422071D01*
X120278700Y-110691300D02*
X120006800Y-110691300D01*
X120006700Y-110691300D02*
X120006800Y-110691300D01*
X122140000Y-109000000D02*
X121069400Y-110070600D01*
%TO.N,/SDA*%
X118745000Y-116205000D02*
X119000000Y-115950000D01*
X118300000Y-113300000D02*
X118300000Y-115760000D01*
X121737200Y-107966900D02*
X121576500Y-107966900D01*
X119000000Y-115950000D02*
X119000000Y-113300000D01*
X121576500Y-107966900D02*
X121737200Y-107966900D01*
X119000000Y-110100000D02*
X119000000Y-113300000D01*
X118300000Y-115760000D02*
X118745000Y-116205000D01*
X121737200Y-107966900D02*
X121133100Y-107966900D01*
X120100000Y-109000000D02*
X119000000Y-110100000D01*
X121133100Y-107966900D02*
X120100000Y-109000000D01*
%TO.N,/D1K*%
X137100000Y-104775000D02*
X137100000Y-104200000D01*
X139065000Y-102235000D02*
X140030000Y-102235000D01*
X137100000Y-104200000D02*
X139065000Y-102235000D01*
X140030000Y-102235000D02*
X140030000Y-101660000D01*
%TO.N,/D2K*%
X137100000Y-112825000D02*
X137873100Y-112825000D01*
X140030000Y-111820000D02*
X138878100Y-111820000D01*
X137873100Y-112825000D02*
X138878100Y-111820000D01*
%TO.N,/D3K*%
X138303100Y-116325000D02*
X138878100Y-116900000D01*
X137100000Y-116325000D02*
X138303100Y-116325000D01*
X140030000Y-116900000D02*
X138878100Y-116900000D01*
%TO.N,/D4K*%
X104140000Y-103115000D02*
X105800000Y-104775000D01*
X102870000Y-101660000D02*
X103565000Y-101660000D01*
X103565000Y-101660000D02*
X104140000Y-102235000D01*
X104140000Y-102235000D02*
X104140000Y-103115000D01*
%TO.N,/D5K*%
X102870000Y-111820000D02*
X104795000Y-111820000D01*
X104795000Y-111820000D02*
X105800000Y-112825000D01*
%TO.N,/D6K*%
X105225000Y-116900000D02*
X105800000Y-116325000D01*
X102870000Y-116900000D02*
X105225000Y-116900000D01*
%TO.N,Net-(DS1-C2P)*%
X133000000Y-106962500D02*
X131650000Y-108312500D01*
X131650000Y-109301100D02*
X130200000Y-110751100D01*
X130200000Y-110751100D02*
X130200000Y-113300000D01*
X131650000Y-108312500D02*
X131650000Y-109301100D01*
%TO.N,Net-(DS1-C1P)*%
X130300000Y-109037500D02*
X129500000Y-109837500D01*
X129500000Y-109837500D02*
X129500000Y-113300000D01*
%TO.N,Net-(DS1-C1N)*%
X128800000Y-108462500D02*
X128800000Y-113300000D01*
X130300000Y-106962500D02*
X128800000Y-108462500D01*
%TO.N,Net-(DS1-VBAT)*%
X127700000Y-110490000D02*
X128100000Y-110890000D01*
X124127200Y-107708800D02*
X124127200Y-102887800D01*
X125200000Y-108781600D02*
X124127200Y-107708800D01*
X127700000Y-109037500D02*
X125200000Y-109037500D01*
X126000000Y-110992500D02*
X126111186Y-110992500D01*
X126753729Y-110632800D02*
X126896529Y-110490000D01*
X126880000Y-101920000D02*
X127200000Y-101600000D01*
X126470886Y-110632800D02*
X126753729Y-110632800D01*
X128100000Y-110890000D02*
X128100000Y-113300000D01*
X125095000Y-101920000D02*
X126880000Y-101920000D01*
X124127200Y-102887800D02*
X125095000Y-101920000D01*
X127700000Y-110490000D02*
X127700000Y-109037500D01*
X126000000Y-113300000D02*
X126000000Y-110992500D01*
X126896529Y-110490000D02*
X127700000Y-110490000D01*
X125200000Y-109037500D02*
X125200000Y-108781600D01*
X126111186Y-110992500D02*
X126470886Y-110632800D01*
%TO.N,Net-(DS1-VCOMH)*%
X114523750Y-109037500D02*
X115200000Y-109037500D01*
X113400000Y-113300000D02*
X113400000Y-110161250D01*
X113400000Y-110161250D02*
X114523750Y-109037500D01*
%TO.N,Net-(DS1-VCC)*%
X112700000Y-109137500D02*
X112600000Y-109037500D01*
X112600000Y-109037500D02*
X110000000Y-109037500D01*
X112700000Y-113300000D02*
X112700000Y-109137500D01*
%TO.N,Net-(DS1-IREF)*%
X114313186Y-110490000D02*
X114100000Y-110703186D01*
X117700000Y-109000000D02*
X116210000Y-110490000D01*
X114100000Y-110703186D02*
X114100000Y-113300000D01*
X116210000Y-110490000D02*
X114313186Y-110490000D01*
%TO.N,GND*%
X116200000Y-115501000D02*
X116200000Y-115600400D01*
X114800000Y-113300000D02*
X114800000Y-115601900D01*
X131445000Y-116205000D02*
X127303100Y-116205000D01*
X112000000Y-113300000D02*
X112000000Y-115600200D01*
X127700000Y-106962500D02*
X127465000Y-106962500D01*
X135476400Y-106740000D02*
X131461900Y-102725500D01*
X112000000Y-115810000D02*
X112000000Y-115600400D01*
X117700000Y-107000000D02*
X118729900Y-108029900D01*
X123200000Y-115601900D02*
X123221900Y-115601900D01*
X116900000Y-115600400D02*
X116900000Y-116145000D01*
X125300000Y-113300000D02*
X125300000Y-115600200D01*
X132224500Y-102725500D02*
X133000000Y-101950000D01*
X123221900Y-115601900D02*
X123825000Y-116205000D01*
X111300000Y-115855000D02*
X111300000Y-113300000D01*
X112000000Y-115600400D02*
X112000000Y-115855000D01*
X114196900Y-116205000D02*
X112395000Y-116205000D01*
X123825000Y-116205000D02*
X123900000Y-116130000D01*
X120400000Y-115601900D02*
X120400000Y-116455000D01*
X118729900Y-109776700D02*
X117600000Y-110906600D01*
X127465000Y-106962500D02*
X125200000Y-106962500D01*
X131461900Y-102725500D02*
X132224500Y-102725500D01*
X124503100Y-116205000D02*
X123900000Y-115601900D01*
X126700000Y-113300000D02*
X126700000Y-115601900D01*
X131461900Y-102725500D02*
X129514500Y-102725500D01*
X121703100Y-116205000D02*
X121100000Y-115601900D01*
X116840000Y-116205000D02*
X116804600Y-116205000D01*
X131600000Y-116050000D02*
X131445000Y-116205000D01*
X116804600Y-116205000D02*
X116200000Y-115600400D01*
X116900000Y-116145000D02*
X116840000Y-116205000D01*
X114800000Y-115601900D02*
X114196900Y-116205000D01*
X123200000Y-115600200D02*
X123200000Y-115600400D01*
X117700000Y-107000000D02*
X117662500Y-106962500D01*
X117662500Y-106962500D02*
X115200000Y-106962500D01*
X121100000Y-115855000D02*
X120750000Y-116205000D01*
X116900000Y-115501000D02*
X116900000Y-115600400D01*
X112000000Y-115855000D02*
X111650000Y-116205000D01*
X115403100Y-116205000D02*
X114800000Y-115601900D01*
X115200000Y-106962500D02*
X112600000Y-106962500D01*
X125300000Y-115600400D02*
X125904600Y-116205000D01*
X116200000Y-113300000D02*
X116200000Y-115501000D01*
X116174600Y-115600400D02*
X115570000Y-116205000D01*
X127465000Y-104775000D02*
X127465000Y-106962500D01*
X125904600Y-116205000D02*
X126096900Y-116205000D01*
X121100000Y-113300000D02*
X121100000Y-115601900D01*
X120400000Y-116455000D02*
X120015000Y-116840000D01*
X112395000Y-116205000D02*
X112000000Y-115810000D01*
X120400000Y-113300000D02*
X120400000Y-115601900D01*
X115500000Y-115600400D02*
X115500000Y-116205000D01*
X117600000Y-114450900D02*
X117600000Y-115601900D01*
X118729900Y-108029900D02*
X118729900Y-109776700D01*
X133000000Y-101950000D02*
X133000000Y-101600000D01*
X117600000Y-115601900D02*
X116996900Y-116205000D01*
X135476400Y-106740000D02*
X135476400Y-109423600D01*
X123900000Y-113300000D02*
X123900000Y-115570000D01*
X116996900Y-116205000D02*
X116840000Y-116205000D01*
X112000000Y-115600200D02*
X112000000Y-115600400D01*
X112262500Y-104140000D02*
X112262500Y-106625000D01*
X118110000Y-116840000D02*
X117600000Y-116330000D01*
X112262500Y-106625000D02*
X112600000Y-106962500D01*
X111650000Y-116205000D02*
X111300000Y-115855000D01*
X117600000Y-116330000D02*
X117600000Y-115601900D01*
X123900000Y-116130000D02*
X123900000Y-115570000D01*
X117600000Y-114450900D02*
X117600000Y-113300000D01*
X135476400Y-109423600D02*
X131600000Y-113300000D01*
X126510000Y-103820000D02*
X127465000Y-104775000D01*
X124695400Y-116205000D02*
X124503100Y-116205000D01*
X125300000Y-115600400D02*
X124695400Y-116205000D01*
X112600000Y-106962500D02*
X110000000Y-106962500D01*
X121100000Y-115601900D02*
X121100000Y-115855000D01*
X120750000Y-116205000D02*
X120400000Y-115855000D01*
X125095000Y-103820000D02*
X126510000Y-103820000D01*
X131600000Y-113300000D02*
X131600000Y-116050000D01*
X116900000Y-113300000D02*
X116900000Y-115501000D01*
X115500000Y-116205000D02*
X115403100Y-116205000D01*
X120400000Y-115855000D02*
X120400000Y-115601900D01*
X123200000Y-115600400D02*
X123200000Y-115601900D01*
X125300000Y-115600200D02*
X125300000Y-115600400D01*
X127303100Y-116205000D02*
X126700000Y-115601900D01*
X122595400Y-116205000D02*
X121703100Y-116205000D01*
X140030000Y-106740000D02*
X135476400Y-106740000D01*
X126096900Y-116205000D02*
X126700000Y-115601900D01*
X123200000Y-113300000D02*
X123200000Y-115600200D01*
X120015000Y-116840000D02*
X118110000Y-116840000D01*
X116200000Y-115600400D02*
X116174600Y-115600400D01*
X115500000Y-113300000D02*
X115500000Y-115600400D01*
X129514500Y-102725500D02*
X127465000Y-104775000D01*
X117600000Y-110906600D02*
X117600000Y-113300000D01*
X123200000Y-115600400D02*
X122595400Y-116205000D01*
X123900000Y-115570000D02*
X123900000Y-115601900D01*
%TO.N,Net-(DS1-D{slash}~{C})*%
X121800000Y-113300000D02*
X121800000Y-110998100D01*
X128183400Y-102616600D02*
X129200000Y-101600000D01*
X129200000Y-101600000D02*
X131000000Y-101600000D01*
X128183400Y-103135100D02*
X128183400Y-102616600D01*
X121472500Y-110670600D02*
X121800000Y-110998100D01*
X120878700Y-110670600D02*
X121472500Y-110670600D01*
%TO.N,Net-(D7-A)*%
X122225600Y-110174200D02*
X122431400Y-110380000D01*
X122500000Y-110448600D02*
X122500000Y-113300000D01*
X122431400Y-110380000D02*
X122225600Y-110174200D01*
X115384700Y-105187200D02*
X119464900Y-105187200D01*
X122225600Y-110174200D02*
X122500000Y-110448600D01*
X120300000Y-104140000D02*
X118745000Y-102585000D01*
X114337500Y-104140000D02*
X115384700Y-105187200D01*
X118745000Y-102585000D02*
X118745000Y-101500000D01*
X119464900Y-104975100D02*
X119464900Y-105187200D01*
X120300000Y-104140000D02*
X119464900Y-104975100D01*
%TO.N,Net-(D1-K)*%
X133817800Y-104213000D02*
X134538000Y-104213000D01*
X134538000Y-104213000D02*
X135100000Y-104775000D01*
%TO.N,Net-(D2-K)*%
X133899500Y-112313500D02*
X133985600Y-112313500D01*
X133985600Y-112313500D02*
X133899500Y-112313500D01*
X134588500Y-112313500D02*
X135100000Y-112825000D01*
X133899500Y-112313500D02*
X134588500Y-112313500D01*
%TO.N,Net-(D3-K)*%
X133817800Y-116887000D02*
X134538000Y-116887000D01*
X134538000Y-116887000D02*
X135100000Y-116325000D01*
%TO.N,Net-(D4-K)*%
X107800000Y-101408300D02*
X108303800Y-100904500D01*
X107800000Y-104775000D02*
X107800000Y-101408300D01*
%TO.N,Net-(D5-K)*%
X108303800Y-113328800D02*
X108303800Y-114575000D01*
X107800000Y-112825000D02*
X108303800Y-113328800D01*
%TO.N,Net-(D6-K)*%
X107800000Y-119691700D02*
X108303800Y-120195500D01*
X107800000Y-116325000D02*
X107800000Y-119691700D01*
%TD*%
%TA.AperFunction,Conductor*%
%TO.N,GND*%
G36*
X138649702Y-100520185D02*
G01*
X138695457Y-100572989D01*
X138705401Y-100642147D01*
X138698845Y-100667833D01*
X138685908Y-100702517D01*
X138681104Y-100747206D01*
X138679501Y-100762123D01*
X138679500Y-100762135D01*
X138679500Y-101712740D01*
X138659815Y-101779779D01*
X138641350Y-101799851D01*
X138642467Y-101800968D01*
X138636721Y-101806714D01*
X138617494Y-101831771D01*
X138606800Y-101843964D01*
X136912582Y-103538181D01*
X136851259Y-103571666D01*
X136824902Y-103574500D01*
X136699999Y-103574500D01*
X136699980Y-103574501D01*
X136597203Y-103585000D01*
X136597200Y-103585001D01*
X136430668Y-103640185D01*
X136430663Y-103640187D01*
X136281342Y-103732289D01*
X136187681Y-103825951D01*
X136126358Y-103859436D01*
X136056666Y-103854452D01*
X136012319Y-103825951D01*
X135918657Y-103732289D01*
X135918656Y-103732288D01*
X135769334Y-103640186D01*
X135602797Y-103585001D01*
X135602795Y-103585000D01*
X135500010Y-103574500D01*
X134699998Y-103574500D01*
X134699980Y-103574501D01*
X134597203Y-103585000D01*
X134597197Y-103585002D01*
X134535646Y-103605398D01*
X134512840Y-103610630D01*
X134509994Y-103611004D01*
X134506702Y-103611438D01*
X134490510Y-103612500D01*
X134400212Y-103612500D01*
X134333173Y-103592815D01*
X134322897Y-103585445D01*
X134320063Y-103583185D01*
X134320062Y-103583184D01*
X134233974Y-103529091D01*
X134167323Y-103487211D01*
X133997054Y-103427631D01*
X133997049Y-103427630D01*
X133817804Y-103407435D01*
X133817796Y-103407435D01*
X133638550Y-103427630D01*
X133638545Y-103427631D01*
X133468276Y-103487211D01*
X133315537Y-103583184D01*
X133187984Y-103710737D01*
X133092011Y-103863476D01*
X133032431Y-104033745D01*
X133032430Y-104033750D01*
X133012235Y-104212996D01*
X133012235Y-104213003D01*
X133032430Y-104392249D01*
X133032431Y-104392254D01*
X133092011Y-104562523D01*
X133146349Y-104649000D01*
X133187984Y-104715262D01*
X133315538Y-104842816D01*
X133405880Y-104899582D01*
X133460853Y-104934124D01*
X133468278Y-104938789D01*
X133636099Y-104997512D01*
X133638545Y-104998368D01*
X133638550Y-104998369D01*
X133817796Y-105018565D01*
X133817800Y-105018565D01*
X133817801Y-105018565D01*
X133830339Y-105017152D01*
X133861615Y-105013628D01*
X133930437Y-105025682D01*
X133981817Y-105073031D01*
X133999500Y-105136847D01*
X133999500Y-105275000D01*
X133999501Y-105275019D01*
X134010000Y-105377796D01*
X134010001Y-105377799D01*
X134065185Y-105544331D01*
X134065187Y-105544336D01*
X134080604Y-105569331D01*
X134157288Y-105693656D01*
X134281344Y-105817712D01*
X134430666Y-105909814D01*
X134597203Y-105964999D01*
X134699991Y-105975500D01*
X135500008Y-105975499D01*
X135500016Y-105975498D01*
X135500019Y-105975498D01*
X135599938Y-105965291D01*
X135602797Y-105964999D01*
X135769334Y-105909814D01*
X135918656Y-105817712D01*
X136012319Y-105724049D01*
X136073642Y-105690564D01*
X136143334Y-105695548D01*
X136187681Y-105724049D01*
X136281344Y-105817712D01*
X136430666Y-105909814D01*
X136597203Y-105964999D01*
X136699991Y-105975500D01*
X137500008Y-105975499D01*
X137500016Y-105975498D01*
X137500019Y-105975498D01*
X137599938Y-105965291D01*
X137602797Y-105964999D01*
X137769334Y-105909814D01*
X137918656Y-105817712D01*
X138042712Y-105693656D01*
X138134814Y-105544334D01*
X138189999Y-105377797D01*
X138200500Y-105275009D01*
X138200499Y-104274992D01*
X138199517Y-104265382D01*
X138189999Y-104172203D01*
X138181715Y-104147203D01*
X138161049Y-104084840D01*
X138158648Y-104015016D01*
X138191073Y-103958160D01*
X138558702Y-103590531D01*
X138620023Y-103557048D01*
X138689715Y-103562032D01*
X138745648Y-103603904D01*
X138770065Y-103669368D01*
X138758765Y-103730614D01*
X138756100Y-103736329D01*
X138756094Y-103736344D01*
X138694938Y-103964586D01*
X138694936Y-103964596D01*
X138674341Y-104199999D01*
X138674341Y-104200000D01*
X138694936Y-104435403D01*
X138694938Y-104435413D01*
X138756094Y-104663655D01*
X138756096Y-104663659D01*
X138756097Y-104663663D01*
X138760500Y-104673105D01*
X138855965Y-104877830D01*
X138855967Y-104877834D01*
X138957191Y-105022396D01*
X138991505Y-105071401D01*
X139158599Y-105238495D01*
X139339979Y-105365499D01*
X139344594Y-105368730D01*
X139388219Y-105423307D01*
X139395413Y-105492805D01*
X139363890Y-105555160D01*
X139344595Y-105571880D01*
X139158922Y-105701890D01*
X139158920Y-105701891D01*
X138991891Y-105868920D01*
X138991886Y-105868926D01*
X138856400Y-106062420D01*
X138856399Y-106062422D01*
X138756570Y-106276507D01*
X138756567Y-106276513D01*
X138699364Y-106489999D01*
X138699364Y-106490000D01*
X139596314Y-106490000D01*
X139570507Y-106530156D01*
X139530000Y-106668111D01*
X139530000Y-106811889D01*
X139570507Y-106949844D01*
X139596314Y-106990000D01*
X138699364Y-106990000D01*
X138756567Y-107203486D01*
X138756570Y-107203492D01*
X138856399Y-107417578D01*
X138991894Y-107611082D01*
X139158917Y-107778105D01*
X139344595Y-107908119D01*
X139388219Y-107962696D01*
X139395412Y-108032195D01*
X139363890Y-108094549D01*
X139344595Y-108111269D01*
X139158594Y-108241508D01*
X138991505Y-108408597D01*
X138855965Y-108602169D01*
X138855964Y-108602171D01*
X138756098Y-108816335D01*
X138756094Y-108816344D01*
X138694938Y-109044586D01*
X138694936Y-109044596D01*
X138674341Y-109279999D01*
X138674341Y-109280000D01*
X138694936Y-109515403D01*
X138694938Y-109515413D01*
X138756094Y-109743655D01*
X138756096Y-109743659D01*
X138756097Y-109743663D01*
X138760500Y-109753105D01*
X138855965Y-109957830D01*
X138855967Y-109957834D01*
X138960305Y-110106843D01*
X138983074Y-110139361D01*
X138991501Y-110151395D01*
X138991506Y-110151402D01*
X139158597Y-110318493D01*
X139158603Y-110318498D01*
X139344158Y-110448425D01*
X139387783Y-110503002D01*
X139394977Y-110572500D01*
X139363454Y-110634855D01*
X139344158Y-110651575D01*
X139158597Y-110781505D01*
X138991505Y-110948597D01*
X138855965Y-111142169D01*
X138855964Y-111142171D01*
X138847421Y-111160491D01*
X138801246Y-111212928D01*
X138751234Y-111231019D01*
X138733924Y-111233299D01*
X138733921Y-111233299D01*
X138733917Y-111233300D01*
X138721338Y-111234956D01*
X138721337Y-111234956D01*
X138575257Y-111295464D01*
X138449818Y-111391716D01*
X138430589Y-111416775D01*
X138419898Y-111428965D01*
X138079290Y-111769573D01*
X138017967Y-111803058D01*
X137948275Y-111798074D01*
X137925364Y-111785169D01*
X137924803Y-111786080D01*
X137918657Y-111782289D01*
X137918656Y-111782288D01*
X137817364Y-111719811D01*
X137769336Y-111690187D01*
X137769331Y-111690185D01*
X137725995Y-111675825D01*
X137602797Y-111635001D01*
X137602795Y-111635000D01*
X137500010Y-111624500D01*
X136699998Y-111624500D01*
X136699980Y-111624501D01*
X136597203Y-111635000D01*
X136597200Y-111635001D01*
X136430668Y-111690185D01*
X136430663Y-111690187D01*
X136281342Y-111782289D01*
X136187681Y-111875951D01*
X136126358Y-111909436D01*
X136056666Y-111904452D01*
X136012319Y-111875951D01*
X135918657Y-111782289D01*
X135918656Y-111782288D01*
X135825888Y-111725069D01*
X135769336Y-111690187D01*
X135769331Y-111690185D01*
X135725995Y-111675825D01*
X135602797Y-111635001D01*
X135602795Y-111635000D01*
X135500010Y-111624500D01*
X134699998Y-111624500D01*
X134699980Y-111624501D01*
X134597203Y-111635000D01*
X134597196Y-111635002D01*
X134473999Y-111675825D01*
X134404171Y-111678226D01*
X134369024Y-111663113D01*
X134249023Y-111587711D01*
X134078754Y-111528131D01*
X134078749Y-111528130D01*
X133899504Y-111507935D01*
X133899496Y-111507935D01*
X133720250Y-111528130D01*
X133720245Y-111528131D01*
X133549976Y-111587711D01*
X133397237Y-111683684D01*
X133269684Y-111811237D01*
X133173711Y-111963976D01*
X133114131Y-112134245D01*
X133114130Y-112134250D01*
X133093935Y-112313496D01*
X133093935Y-112313503D01*
X133114130Y-112492749D01*
X133114131Y-112492754D01*
X133173711Y-112663023D01*
X133269684Y-112815762D01*
X133397238Y-112943316D01*
X133549978Y-113039289D01*
X133686520Y-113087067D01*
X133720245Y-113098868D01*
X133720250Y-113098869D01*
X133841233Y-113112500D01*
X133889383Y-113117925D01*
X133953797Y-113144991D01*
X133993352Y-113202586D01*
X133999500Y-113241144D01*
X133999500Y-113325000D01*
X133999501Y-113325019D01*
X134010000Y-113427796D01*
X134010001Y-113427799D01*
X134049558Y-113547171D01*
X134065186Y-113594334D01*
X134157288Y-113743656D01*
X134281344Y-113867712D01*
X134430666Y-113959814D01*
X134597203Y-114014999D01*
X134699991Y-114025500D01*
X135500008Y-114025499D01*
X135500016Y-114025498D01*
X135500019Y-114025498D01*
X135556302Y-114019748D01*
X135602797Y-114014999D01*
X135769334Y-113959814D01*
X135918656Y-113867712D01*
X136012319Y-113774049D01*
X136073642Y-113740564D01*
X136143334Y-113745548D01*
X136187681Y-113774049D01*
X136281344Y-113867712D01*
X136430666Y-113959814D01*
X136597203Y-114014999D01*
X136699991Y-114025500D01*
X137500008Y-114025499D01*
X137500016Y-114025498D01*
X137500019Y-114025498D01*
X137556302Y-114019748D01*
X137602797Y-114014999D01*
X137769334Y-113959814D01*
X137918656Y-113867712D01*
X138042712Y-113743656D01*
X138134814Y-113594334D01*
X138189999Y-113427797D01*
X138194433Y-113384385D01*
X138220828Y-113319696D01*
X138242299Y-113298617D01*
X138301382Y-113253282D01*
X138320609Y-113228223D01*
X138331290Y-113216043D01*
X138836038Y-112711296D01*
X138897361Y-112677811D01*
X138967053Y-112682795D01*
X139011400Y-112711296D01*
X139158597Y-112858493D01*
X139158603Y-112858498D01*
X139344158Y-112988425D01*
X139387783Y-113043002D01*
X139394977Y-113112500D01*
X139363454Y-113174855D01*
X139344158Y-113191575D01*
X139158597Y-113321505D01*
X138991505Y-113488597D01*
X138855965Y-113682169D01*
X138855964Y-113682171D01*
X138756098Y-113896335D01*
X138756094Y-113896344D01*
X138694938Y-114124586D01*
X138694936Y-114124596D01*
X138674341Y-114359999D01*
X138674341Y-114360000D01*
X138694936Y-114595403D01*
X138694938Y-114595413D01*
X138756094Y-114823655D01*
X138756096Y-114823659D01*
X138756097Y-114823663D01*
X138807794Y-114934527D01*
X138855965Y-115037830D01*
X138855967Y-115037834D01*
X138991501Y-115231395D01*
X138991506Y-115231402D01*
X139158597Y-115398493D01*
X139158603Y-115398498D01*
X139344158Y-115528425D01*
X139387783Y-115583002D01*
X139394977Y-115652500D01*
X139363454Y-115714855D01*
X139344158Y-115731575D01*
X139158597Y-115861505D01*
X139011400Y-116008703D01*
X138950077Y-116042188D01*
X138880385Y-116037204D01*
X138836038Y-116008703D01*
X138761299Y-115933964D01*
X138750604Y-115921769D01*
X138731383Y-115896719D01*
X138731382Y-115896718D01*
X138605941Y-115800464D01*
X138604818Y-115799999D01*
X138459862Y-115739956D01*
X138459860Y-115739955D01*
X138342461Y-115724500D01*
X138303100Y-115719318D01*
X138295449Y-115720325D01*
X138226414Y-115709556D01*
X138174160Y-115663174D01*
X138161564Y-115636392D01*
X138134814Y-115555666D01*
X138042712Y-115406344D01*
X137918656Y-115282288D01*
X137793053Y-115204816D01*
X137769336Y-115190187D01*
X137769331Y-115190185D01*
X137738661Y-115180022D01*
X137602797Y-115135001D01*
X137602795Y-115135000D01*
X137500010Y-115124500D01*
X136699998Y-115124500D01*
X136699980Y-115124501D01*
X136597203Y-115135000D01*
X136597200Y-115135001D01*
X136430668Y-115190185D01*
X136430663Y-115190187D01*
X136281342Y-115282289D01*
X136187681Y-115375951D01*
X136126358Y-115409436D01*
X136056666Y-115404452D01*
X136012319Y-115375951D01*
X135918657Y-115282289D01*
X135918656Y-115282288D01*
X135793053Y-115204816D01*
X135769336Y-115190187D01*
X135769331Y-115190185D01*
X135738661Y-115180022D01*
X135602797Y-115135001D01*
X135602795Y-115135000D01*
X135500010Y-115124500D01*
X134699998Y-115124500D01*
X134699980Y-115124501D01*
X134597203Y-115135000D01*
X134597200Y-115135001D01*
X134430668Y-115190185D01*
X134430663Y-115190187D01*
X134281342Y-115282289D01*
X134157289Y-115406342D01*
X134065187Y-115555663D01*
X134065185Y-115555668D01*
X134050543Y-115599856D01*
X134010001Y-115722203D01*
X134010001Y-115722204D01*
X134010000Y-115722204D01*
X133999500Y-115824983D01*
X133999500Y-115963151D01*
X133979815Y-116030190D01*
X133927011Y-116075945D01*
X133861618Y-116086371D01*
X133817805Y-116081435D01*
X133817796Y-116081435D01*
X133638550Y-116101630D01*
X133638545Y-116101631D01*
X133468276Y-116161211D01*
X133315537Y-116257184D01*
X133187984Y-116384737D01*
X133092011Y-116537476D01*
X133032431Y-116707745D01*
X133032430Y-116707750D01*
X133012235Y-116886996D01*
X133012235Y-116887003D01*
X133032430Y-117066249D01*
X133032431Y-117066254D01*
X133092011Y-117236523D01*
X133174442Y-117367710D01*
X133187984Y-117389262D01*
X133315538Y-117516816D01*
X133383488Y-117559512D01*
X133412639Y-117577829D01*
X133468278Y-117612789D01*
X133638545Y-117672368D01*
X133638550Y-117672369D01*
X133817796Y-117692565D01*
X133817800Y-117692565D01*
X133817804Y-117692565D01*
X133997049Y-117672369D01*
X133997052Y-117672368D01*
X133997055Y-117672368D01*
X134167322Y-117612789D01*
X134320062Y-117516816D01*
X134320067Y-117516810D01*
X134322897Y-117514555D01*
X134325075Y-117513665D01*
X134325958Y-117513111D01*
X134326055Y-117513265D01*
X134387583Y-117488145D01*
X134400212Y-117487500D01*
X134490510Y-117487500D01*
X134506687Y-117488560D01*
X134512820Y-117489367D01*
X134535647Y-117494601D01*
X134545476Y-117497858D01*
X134597203Y-117514999D01*
X134699991Y-117525500D01*
X135500008Y-117525499D01*
X135500016Y-117525498D01*
X135500019Y-117525498D01*
X135557188Y-117519658D01*
X135602797Y-117514999D01*
X135769334Y-117459814D01*
X135918656Y-117367712D01*
X136012319Y-117274049D01*
X136073642Y-117240564D01*
X136143334Y-117245548D01*
X136187681Y-117274049D01*
X136281344Y-117367712D01*
X136430666Y-117459814D01*
X136597203Y-117514999D01*
X136699991Y-117525500D01*
X137500008Y-117525499D01*
X137500016Y-117525498D01*
X137500019Y-117525498D01*
X137557188Y-117519658D01*
X137602797Y-117514999D01*
X137769334Y-117459814D01*
X137918656Y-117367712D01*
X138042712Y-117243656D01*
X138086205Y-117173141D01*
X138138152Y-117126419D01*
X138207114Y-117115196D01*
X138271197Y-117143040D01*
X138279424Y-117150559D01*
X138419899Y-117291034D01*
X138430593Y-117303228D01*
X138449818Y-117328282D01*
X138529289Y-117389262D01*
X138575259Y-117424536D01*
X138575261Y-117424536D01*
X138575263Y-117424538D01*
X138648298Y-117454790D01*
X138721338Y-117485044D01*
X138751225Y-117488978D01*
X138815121Y-117517243D01*
X138847423Y-117559512D01*
X138855964Y-117577829D01*
X138855965Y-117577831D01*
X138991501Y-117771395D01*
X138991506Y-117771402D01*
X139158597Y-117938493D01*
X139158603Y-117938498D01*
X139344158Y-118068425D01*
X139387783Y-118123002D01*
X139394977Y-118192500D01*
X139363454Y-118254855D01*
X139344158Y-118271575D01*
X139158597Y-118401505D01*
X138991505Y-118568597D01*
X138855965Y-118762169D01*
X138855964Y-118762171D01*
X138756098Y-118976335D01*
X138756094Y-118976344D01*
X138694938Y-119204586D01*
X138694936Y-119204596D01*
X138674341Y-119439999D01*
X138674341Y-119440000D01*
X138694936Y-119675403D01*
X138694938Y-119675413D01*
X138756094Y-119903655D01*
X138756096Y-119903659D01*
X138756097Y-119903663D01*
X138855965Y-120117830D01*
X138855967Y-120117834D01*
X138991501Y-120311395D01*
X138991506Y-120311402D01*
X139067923Y-120387819D01*
X139101408Y-120449142D01*
X139096424Y-120518834D01*
X139054552Y-120574767D01*
X138989088Y-120599184D01*
X138980242Y-120599500D01*
X133074500Y-120599500D01*
X133007461Y-120579815D01*
X132961706Y-120527011D01*
X132950500Y-120475500D01*
X132950500Y-119028039D01*
X132950499Y-119028034D01*
X132942808Y-119001842D01*
X132939050Y-118984564D01*
X132935165Y-118957546D01*
X132935165Y-118957544D01*
X132935165Y-118957543D01*
X132935163Y-118957538D01*
X132923826Y-118932713D01*
X132917643Y-118916136D01*
X132909953Y-118889948D01*
X132909953Y-118889946D01*
X132895192Y-118866978D01*
X132886714Y-118851451D01*
X132886005Y-118849899D01*
X132875377Y-118826627D01*
X132857500Y-118805996D01*
X132846903Y-118791840D01*
X132832143Y-118768872D01*
X132824408Y-118762169D01*
X132811510Y-118750992D01*
X132799006Y-118738488D01*
X132781128Y-118717857D01*
X132781123Y-118717853D01*
X132758160Y-118703095D01*
X132744000Y-118692496D01*
X132737007Y-118686437D01*
X132723373Y-118674623D01*
X132698541Y-118663282D01*
X132683019Y-118654806D01*
X132683017Y-118654805D01*
X132660053Y-118640047D01*
X132660051Y-118640046D01*
X132633858Y-118632355D01*
X132617288Y-118626174D01*
X132592457Y-118614835D01*
X132565423Y-118610947D01*
X132548154Y-118607190D01*
X132521963Y-118599500D01*
X132521961Y-118599500D01*
X132485799Y-118599500D01*
X110521961Y-118599500D01*
X110378039Y-118599500D01*
X110378036Y-118599500D01*
X110378034Y-118599501D01*
X110351842Y-118607190D01*
X110334568Y-118610948D01*
X110307544Y-118614834D01*
X110307541Y-118614835D01*
X110282710Y-118626175D01*
X110266141Y-118632355D01*
X110253171Y-118636163D01*
X110239947Y-118640047D01*
X110239945Y-118640047D01*
X110239945Y-118640048D01*
X110216982Y-118654805D01*
X110201461Y-118663280D01*
X110176628Y-118674621D01*
X110176625Y-118674623D01*
X110156000Y-118692495D01*
X110141840Y-118703095D01*
X110118876Y-118717853D01*
X110118871Y-118717857D01*
X110100993Y-118738489D01*
X110088489Y-118750993D01*
X110067857Y-118768871D01*
X110067853Y-118768876D01*
X110053095Y-118791840D01*
X110042495Y-118806000D01*
X110024623Y-118826625D01*
X110024621Y-118826628D01*
X110013280Y-118851461D01*
X110004805Y-118866982D01*
X109990048Y-118889945D01*
X109982355Y-118916141D01*
X109976175Y-118932710D01*
X109964835Y-118957541D01*
X109964834Y-118957544D01*
X109960948Y-118984568D01*
X109957190Y-119001842D01*
X109949501Y-119028034D01*
X109949500Y-119028042D01*
X109949500Y-120475500D01*
X109929815Y-120542539D01*
X109877011Y-120588294D01*
X109825500Y-120599500D01*
X109185289Y-120599500D01*
X109118250Y-120579815D01*
X109072495Y-120527011D01*
X109062551Y-120457853D01*
X109068247Y-120434546D01*
X109089167Y-120374757D01*
X109089168Y-120374755D01*
X109096306Y-120311402D01*
X109109365Y-120195503D01*
X109109365Y-120195496D01*
X109089169Y-120016250D01*
X109089168Y-120016245D01*
X109029588Y-119845976D01*
X108933615Y-119693237D01*
X108806062Y-119565684D01*
X108653321Y-119469710D01*
X108522204Y-119423830D01*
X108483545Y-119410303D01*
X108426770Y-119369582D01*
X108401022Y-119304630D01*
X108400500Y-119293262D01*
X108400500Y-117570908D01*
X108420185Y-117503869D01*
X108464271Y-117465363D01*
X108463187Y-117463605D01*
X108469332Y-117459814D01*
X108469334Y-117459814D01*
X108618656Y-117367712D01*
X108742712Y-117243656D01*
X108834814Y-117094334D01*
X108889999Y-116927797D01*
X108900500Y-116825009D01*
X108900499Y-115824992D01*
X108897993Y-115800464D01*
X108889999Y-115722203D01*
X108889998Y-115722200D01*
X108881202Y-115695655D01*
X108834814Y-115555666D01*
X108742712Y-115406344D01*
X108742710Y-115406342D01*
X108738920Y-115400197D01*
X108740077Y-115399483D01*
X108716845Y-115341888D01*
X108729889Y-115273247D01*
X108774278Y-115224787D01*
X108806062Y-115204816D01*
X108933616Y-115077262D01*
X109029589Y-114924522D01*
X109089168Y-114754255D01*
X109109365Y-114575000D01*
X109089168Y-114395745D01*
X109029589Y-114225478D01*
X108933616Y-114072738D01*
X108933614Y-114072736D01*
X108933613Y-114072734D01*
X108931350Y-114069896D01*
X108930459Y-114067715D01*
X108929911Y-114066842D01*
X108930064Y-114066745D01*
X108904944Y-114005209D01*
X108904300Y-113992587D01*
X108904300Y-113500000D01*
X110600000Y-113500000D01*
X110600000Y-115347844D01*
X110606401Y-115407372D01*
X110606403Y-115407379D01*
X110656645Y-115542086D01*
X110656649Y-115542093D01*
X110742809Y-115657187D01*
X110742812Y-115657190D01*
X110857906Y-115743350D01*
X110857913Y-115743354D01*
X110992620Y-115793596D01*
X110992627Y-115793598D01*
X111052155Y-115799999D01*
X111052172Y-115800000D01*
X111100000Y-115800000D01*
X111100000Y-113500000D01*
X110600000Y-113500000D01*
X108904300Y-113500000D01*
X108904300Y-113376287D01*
X108905361Y-113360101D01*
X108909482Y-113328799D01*
X108901560Y-113268632D01*
X108900499Y-113252445D01*
X108900499Y-113100000D01*
X110600000Y-113100000D01*
X111100000Y-113100000D01*
X111100000Y-110800000D01*
X111052155Y-110800000D01*
X110992627Y-110806401D01*
X110992620Y-110806403D01*
X110857913Y-110856645D01*
X110857906Y-110856649D01*
X110742812Y-110942809D01*
X110742809Y-110942812D01*
X110656649Y-111057906D01*
X110656645Y-111057913D01*
X110606403Y-111192620D01*
X110606401Y-111192627D01*
X110600000Y-111252155D01*
X110600000Y-113100000D01*
X108900499Y-113100000D01*
X108900499Y-112324998D01*
X108900498Y-112324981D01*
X108889999Y-112222203D01*
X108889998Y-112222200D01*
X108860854Y-112134250D01*
X108834814Y-112055666D01*
X108742712Y-111906344D01*
X108618656Y-111782288D01*
X108525888Y-111725069D01*
X108469336Y-111690187D01*
X108469331Y-111690185D01*
X108425995Y-111675825D01*
X108302797Y-111635001D01*
X108302795Y-111635000D01*
X108200010Y-111624500D01*
X107399998Y-111624500D01*
X107399980Y-111624501D01*
X107297203Y-111635000D01*
X107297200Y-111635001D01*
X107130668Y-111690185D01*
X107130663Y-111690187D01*
X106981342Y-111782289D01*
X106887681Y-111875951D01*
X106826358Y-111909436D01*
X106756666Y-111904452D01*
X106712319Y-111875951D01*
X106618657Y-111782289D01*
X106618656Y-111782288D01*
X106525888Y-111725069D01*
X106469336Y-111690187D01*
X106469331Y-111690185D01*
X106425995Y-111675825D01*
X106302797Y-111635001D01*
X106302795Y-111635000D01*
X106200016Y-111624500D01*
X106200009Y-111624500D01*
X105500097Y-111624500D01*
X105433058Y-111604815D01*
X105412416Y-111588181D01*
X105253199Y-111428964D01*
X105242504Y-111416769D01*
X105223283Y-111391719D01*
X105164866Y-111346894D01*
X105097841Y-111295464D01*
X104951762Y-111234956D01*
X104939183Y-111233300D01*
X104939182Y-111233299D01*
X104795001Y-111214318D01*
X104795000Y-111214318D01*
X104763697Y-111218439D01*
X104747513Y-111219500D01*
X104159091Y-111219500D01*
X104092052Y-111199815D01*
X104046711Y-111147909D01*
X104044037Y-111142175D01*
X104044034Y-111142170D01*
X104044033Y-111142169D01*
X103967503Y-111032872D01*
X103908494Y-110948597D01*
X103741402Y-110781506D01*
X103741396Y-110781501D01*
X103555842Y-110651575D01*
X103512217Y-110596998D01*
X103505023Y-110527500D01*
X103536546Y-110465145D01*
X103555842Y-110448425D01*
X103578026Y-110432891D01*
X103741401Y-110318495D01*
X103908495Y-110151401D01*
X104044035Y-109957830D01*
X104143903Y-109743663D01*
X104205063Y-109515408D01*
X104225659Y-109280000D01*
X104205063Y-109044592D01*
X104143903Y-108816337D01*
X104044035Y-108602171D01*
X104005547Y-108547203D01*
X103908494Y-108408597D01*
X103741402Y-108241506D01*
X103741396Y-108241501D01*
X103555842Y-108111575D01*
X103512217Y-108056998D01*
X103505023Y-107987500D01*
X103536546Y-107925145D01*
X103555842Y-107908425D01*
X103578848Y-107892316D01*
X103741401Y-107778495D01*
X103908495Y-107611401D01*
X104044035Y-107417830D01*
X104046707Y-107412097D01*
X104092878Y-107359658D01*
X104159091Y-107340500D01*
X107372257Y-107340500D01*
X107388441Y-107341560D01*
X107419744Y-107345682D01*
X107419745Y-107345682D01*
X107472292Y-107338764D01*
X107576506Y-107325044D01*
X107722585Y-107264536D01*
X107801916Y-107203663D01*
X107848026Y-107168282D01*
X107867253Y-107143223D01*
X107877934Y-107131043D01*
X108567344Y-106441633D01*
X108628665Y-106408150D01*
X108698357Y-106413134D01*
X108754290Y-106455006D01*
X108778707Y-106520470D01*
X108778381Y-106541916D01*
X108775001Y-106575006D01*
X108775000Y-106575026D01*
X108775000Y-106712500D01*
X109750000Y-106712500D01*
X109750000Y-105875000D01*
X109475029Y-105875000D01*
X109475005Y-105875002D01*
X109441914Y-105878382D01*
X109373222Y-105865611D01*
X109322338Y-105817730D01*
X109305419Y-105749939D01*
X109327836Y-105683763D01*
X109341628Y-105667349D01*
X110246043Y-104762934D01*
X110258223Y-104752253D01*
X110283282Y-104733026D01*
X110379536Y-104607585D01*
X110440044Y-104461506D01*
X110449161Y-104392255D01*
X110449458Y-104390000D01*
X111175001Y-104390000D01*
X111175001Y-104664986D01*
X111185494Y-104767697D01*
X111240641Y-104934119D01*
X111240643Y-104934124D01*
X111332684Y-105083345D01*
X111456654Y-105207315D01*
X111605875Y-105299356D01*
X111605880Y-105299358D01*
X111772302Y-105354505D01*
X111772309Y-105354506D01*
X111875019Y-105364999D01*
X112012499Y-105364999D01*
X112012500Y-105364998D01*
X112012500Y-104390000D01*
X111175001Y-104390000D01*
X110449458Y-104390000D01*
X110460682Y-104304744D01*
X110456561Y-104273441D01*
X110455500Y-104257256D01*
X110455500Y-102535097D01*
X110475185Y-102468058D01*
X110491819Y-102447416D01*
X110802416Y-102136819D01*
X110863739Y-102103334D01*
X110890097Y-102100500D01*
X110977465Y-102100500D01*
X111044504Y-102120185D01*
X111090259Y-102172989D01*
X111100823Y-102211898D01*
X111105001Y-102252797D01*
X111105001Y-102252799D01*
X111160185Y-102419331D01*
X111160187Y-102419336D01*
X111165654Y-102428199D01*
X111252288Y-102568656D01*
X111376344Y-102692712D01*
X111525666Y-102784814D01*
X111525671Y-102784815D01*
X111525674Y-102784817D01*
X111531957Y-102786899D01*
X111589402Y-102826672D01*
X111616224Y-102891188D01*
X111603908Y-102959964D01*
X111558049Y-103010142D01*
X111456659Y-103072680D01*
X111456655Y-103072683D01*
X111332684Y-103196654D01*
X111240643Y-103345875D01*
X111240641Y-103345880D01*
X111185494Y-103512302D01*
X111185493Y-103512309D01*
X111175000Y-103615013D01*
X111175000Y-103890000D01*
X112388500Y-103890000D01*
X112455539Y-103909685D01*
X112501294Y-103962489D01*
X112512500Y-104014000D01*
X112512500Y-105364999D01*
X112649972Y-105364999D01*
X112649986Y-105364998D01*
X112752697Y-105354505D01*
X112919119Y-105299358D01*
X112919124Y-105299356D01*
X113068345Y-105207315D01*
X113192318Y-105083342D01*
X113194165Y-105080348D01*
X113195969Y-105078724D01*
X113196798Y-105077677D01*
X113196976Y-105077818D01*
X113246110Y-105033621D01*
X113315073Y-105022396D01*
X113379156Y-105050236D01*
X113405243Y-105080341D01*
X113407288Y-105083656D01*
X113531344Y-105207712D01*
X113680666Y-105299814D01*
X113847203Y-105354999D01*
X113949991Y-105365500D01*
X114662401Y-105365499D01*
X114729440Y-105385183D01*
X114750082Y-105401818D01*
X114926503Y-105578239D01*
X114937197Y-105590433D01*
X114956417Y-105615481D01*
X114984683Y-105637170D01*
X114984700Y-105637184D01*
X115004821Y-105652623D01*
X115046025Y-105709050D01*
X115050180Y-105778796D01*
X115015969Y-105839717D01*
X114954252Y-105872471D01*
X114929336Y-105875000D01*
X114675029Y-105875000D01*
X114675012Y-105875001D01*
X114572302Y-105885494D01*
X114405880Y-105940641D01*
X114405875Y-105940643D01*
X114256654Y-106032684D01*
X114132684Y-106156654D01*
X114040643Y-106305875D01*
X114040641Y-106305880D01*
X114017706Y-106375095D01*
X113977933Y-106432540D01*
X113913417Y-106459363D01*
X113844641Y-106447048D01*
X113793442Y-106399505D01*
X113782294Y-106375095D01*
X113759358Y-106305880D01*
X113759356Y-106305875D01*
X113667315Y-106156654D01*
X113543345Y-106032684D01*
X113394124Y-105940643D01*
X113394119Y-105940641D01*
X113227697Y-105885494D01*
X113227690Y-105885493D01*
X113124986Y-105875000D01*
X112850000Y-105875000D01*
X112850000Y-107088500D01*
X112830315Y-107155539D01*
X112777511Y-107201294D01*
X112726000Y-107212500D01*
X112474000Y-107212500D01*
X112406961Y-107192815D01*
X112361206Y-107140011D01*
X112350000Y-107088500D01*
X112350000Y-105875000D01*
X112075029Y-105875000D01*
X112075012Y-105875001D01*
X111972302Y-105885494D01*
X111805880Y-105940641D01*
X111805875Y-105940643D01*
X111656654Y-106032684D01*
X111532684Y-106156654D01*
X111440643Y-106305875D01*
X111440641Y-106305880D01*
X111417706Y-106375095D01*
X111377933Y-106432540D01*
X111313417Y-106459363D01*
X111244641Y-106447048D01*
X111193442Y-106399505D01*
X111182294Y-106375095D01*
X111159358Y-106305880D01*
X111159356Y-106305875D01*
X111067315Y-106156654D01*
X110943345Y-106032684D01*
X110794124Y-105940643D01*
X110794119Y-105940641D01*
X110627697Y-105885494D01*
X110627690Y-105885493D01*
X110524986Y-105875000D01*
X110250000Y-105875000D01*
X110250000Y-107088500D01*
X110230315Y-107155539D01*
X110177511Y-107201294D01*
X110126000Y-107212500D01*
X108775001Y-107212500D01*
X108775001Y-107349986D01*
X108785494Y-107452697D01*
X108840641Y-107619119D01*
X108840643Y-107619124D01*
X108932684Y-107768345D01*
X109056655Y-107892316D01*
X109056659Y-107892319D01*
X109059656Y-107894168D01*
X109061279Y-107895972D01*
X109062323Y-107896798D01*
X109062181Y-107896976D01*
X109106381Y-107946116D01*
X109117602Y-108015079D01*
X109089759Y-108079161D01*
X109059661Y-108105241D01*
X109056349Y-108107283D01*
X109056343Y-108107288D01*
X108932289Y-108231342D01*
X108840187Y-108380663D01*
X108840185Y-108380668D01*
X108830930Y-108408598D01*
X108785001Y-108547203D01*
X108785001Y-108547204D01*
X108785000Y-108547204D01*
X108774500Y-108649983D01*
X108774500Y-109425001D01*
X108774501Y-109425019D01*
X108785000Y-109527796D01*
X108785001Y-109527799D01*
X108840185Y-109694331D01*
X108840187Y-109694336D01*
X108870607Y-109743655D01*
X108932288Y-109843656D01*
X109056344Y-109967712D01*
X109205666Y-110059814D01*
X109372203Y-110114999D01*
X109474991Y-110125500D01*
X110525008Y-110125499D01*
X110525016Y-110125498D01*
X110525019Y-110125498D01*
X110581302Y-110119748D01*
X110627797Y-110114999D01*
X110794334Y-110059814D01*
X110943656Y-109967712D01*
X111067712Y-109843656D01*
X111158229Y-109696902D01*
X111210177Y-109650179D01*
X111263768Y-109638000D01*
X111336232Y-109638000D01*
X111403271Y-109657685D01*
X111441769Y-109696901D01*
X111532288Y-109843656D01*
X111656344Y-109967712D01*
X111805666Y-110059814D01*
X111972203Y-110114999D01*
X111988101Y-110116623D01*
X112052793Y-110143018D01*
X112092945Y-110200198D01*
X112099500Y-110239981D01*
X112099500Y-110958561D01*
X112079815Y-111025600D01*
X112074767Y-111032872D01*
X112056204Y-111057668D01*
X112056202Y-111057671D01*
X112040182Y-111100625D01*
X111998311Y-111156559D01*
X111932847Y-111180976D01*
X111864574Y-111166124D01*
X111815168Y-111116719D01*
X111800000Y-111057292D01*
X111800000Y-110800000D01*
X111752155Y-110800000D01*
X111692624Y-110806401D01*
X111685073Y-110808186D01*
X111684734Y-110806754D01*
X111623630Y-110811119D01*
X111608350Y-110806632D01*
X111607375Y-110806401D01*
X111547844Y-110800000D01*
X111500000Y-110800000D01*
X111500000Y-113100000D01*
X111810125Y-113100000D01*
X111849139Y-113078695D01*
X111918831Y-113083678D01*
X111974766Y-113125549D01*
X111999184Y-113191012D01*
X111999500Y-113199861D01*
X111999500Y-113400138D01*
X111979815Y-113467177D01*
X111927011Y-113512932D01*
X111857853Y-113522876D01*
X111807761Y-113500000D01*
X111500000Y-113500000D01*
X111500000Y-115800000D01*
X111547828Y-115800000D01*
X111547844Y-115799999D01*
X111607377Y-115793597D01*
X111614933Y-115791813D01*
X111615272Y-115793250D01*
X111676342Y-115788874D01*
X111691633Y-115793364D01*
X111692622Y-115793597D01*
X111752155Y-115799999D01*
X111752172Y-115800000D01*
X111800000Y-115800000D01*
X111800000Y-115542707D01*
X111819685Y-115475668D01*
X111872489Y-115429913D01*
X111941647Y-115419969D01*
X112005203Y-115448994D01*
X112040182Y-115499375D01*
X112056201Y-115542326D01*
X112056203Y-115542329D01*
X112056204Y-115542331D01*
X112104990Y-115607500D01*
X112142452Y-115657544D01*
X112142454Y-115657546D01*
X112150308Y-115663425D01*
X112192180Y-115719356D01*
X112200000Y-115762694D01*
X112200000Y-115800000D01*
X112247828Y-115800000D01*
X112247844Y-115799999D01*
X112307375Y-115793598D01*
X112314926Y-115791814D01*
X112315315Y-115793462D01*
X112375624Y-115789140D01*
X112392387Y-115794060D01*
X112392511Y-115794088D01*
X112392517Y-115794091D01*
X112452127Y-115800500D01*
X112947872Y-115800499D01*
X113007483Y-115794091D01*
X113007485Y-115794090D01*
X113007487Y-115794090D01*
X113015031Y-115792308D01*
X113015377Y-115793775D01*
X113076342Y-115789408D01*
X113091378Y-115793822D01*
X113092511Y-115794089D01*
X113092517Y-115794091D01*
X113152127Y-115800500D01*
X113647872Y-115800499D01*
X113707483Y-115794091D01*
X113707485Y-115794090D01*
X113707487Y-115794090D01*
X113715031Y-115792308D01*
X113715377Y-115793775D01*
X113776342Y-115789408D01*
X113791378Y-115793822D01*
X113792511Y-115794089D01*
X113792517Y-115794091D01*
X113852127Y-115800500D01*
X114347872Y-115800499D01*
X114407483Y-115794091D01*
X114407489Y-115794088D01*
X114415025Y-115792308D01*
X114415321Y-115793561D01*
X114477063Y-115789142D01*
X114490655Y-115793132D01*
X114492627Y-115793598D01*
X114552155Y-115799999D01*
X114552172Y-115800000D01*
X114600000Y-115800000D01*
X114600000Y-115762694D01*
X114619685Y-115695655D01*
X114649690Y-115663426D01*
X114657546Y-115657546D01*
X114743796Y-115542331D01*
X114743885Y-115542093D01*
X114759818Y-115499375D01*
X114801689Y-115443441D01*
X114867153Y-115419023D01*
X114935426Y-115433874D01*
X114984832Y-115483279D01*
X115000000Y-115542707D01*
X115000000Y-115800000D01*
X115047828Y-115800000D01*
X115047844Y-115799999D01*
X115107377Y-115793597D01*
X115114933Y-115791813D01*
X115115272Y-115793250D01*
X115176342Y-115788874D01*
X115191633Y-115793364D01*
X115192622Y-115793597D01*
X115252155Y-115799999D01*
X115252172Y-115800000D01*
X115300000Y-115800000D01*
X115300000Y-113500000D01*
X115700000Y-113500000D01*
X115700000Y-115800000D01*
X115747828Y-115800000D01*
X115747844Y-115799999D01*
X115807377Y-115793597D01*
X115814933Y-115791813D01*
X115815272Y-115793250D01*
X115876342Y-115788874D01*
X115891633Y-115793364D01*
X115892622Y-115793597D01*
X115952155Y-115799999D01*
X115952172Y-115800000D01*
X116000000Y-115800000D01*
X116000000Y-113500000D01*
X116400000Y-113500000D01*
X116400000Y-115800000D01*
X116447828Y-115800000D01*
X116447844Y-115799999D01*
X116507377Y-115793597D01*
X116514933Y-115791813D01*
X116515272Y-115793250D01*
X116576342Y-115788874D01*
X116591633Y-115793364D01*
X116592622Y-115793597D01*
X116652155Y-115799999D01*
X116652172Y-115800000D01*
X116700000Y-115800000D01*
X116700000Y-113500000D01*
X116400000Y-113500000D01*
X116000000Y-113500000D01*
X115700000Y-113500000D01*
X115300000Y-113500000D01*
X114989873Y-113500000D01*
X114950855Y-113521305D01*
X114881163Y-113516319D01*
X114825230Y-113474446D01*
X114800815Y-113408981D01*
X114800499Y-113400152D01*
X114800499Y-113223998D01*
X114820184Y-113156961D01*
X114872988Y-113111206D01*
X114924499Y-113100000D01*
X117410125Y-113100000D01*
X117449139Y-113078695D01*
X117518831Y-113083678D01*
X117574766Y-113125549D01*
X117599184Y-113191012D01*
X117599500Y-113199861D01*
X117599500Y-113400138D01*
X117579815Y-113467177D01*
X117527011Y-113512932D01*
X117457853Y-113522876D01*
X117407761Y-113500000D01*
X117100000Y-113500000D01*
X117100000Y-115800000D01*
X117147828Y-115800000D01*
X117147844Y-115799999D01*
X117207377Y-115793597D01*
X117214933Y-115791813D01*
X117215272Y-115793250D01*
X117276342Y-115788874D01*
X117291633Y-115793364D01*
X117292622Y-115793597D01*
X117352155Y-115799999D01*
X117352172Y-115800000D01*
X117400000Y-115800000D01*
X117400000Y-115542707D01*
X117419685Y-115475668D01*
X117472489Y-115429913D01*
X117541647Y-115419969D01*
X117605203Y-115448994D01*
X117640182Y-115499375D01*
X117656201Y-115542327D01*
X117656203Y-115542329D01*
X117656204Y-115542331D01*
X117666190Y-115555670D01*
X117674766Y-115567126D01*
X117699184Y-115632590D01*
X117699500Y-115641438D01*
X117699500Y-115712512D01*
X117698438Y-115728697D01*
X117694318Y-115760000D01*
X117698736Y-115793561D01*
X117699500Y-115799360D01*
X117699500Y-115799361D01*
X117714955Y-115916760D01*
X117714956Y-115916762D01*
X117772484Y-116055648D01*
X117775464Y-116062841D01*
X117850946Y-116161211D01*
X117871719Y-116188283D01*
X117896769Y-116207504D01*
X117908964Y-116218199D01*
X118286799Y-116596034D01*
X118297493Y-116608228D01*
X118316715Y-116633279D01*
X118316716Y-116633280D01*
X118316718Y-116633282D01*
X118442159Y-116729536D01*
X118588238Y-116790044D01*
X118666619Y-116800363D01*
X118744999Y-116810682D01*
X118745000Y-116810682D01*
X118745001Y-116810682D01*
X118797254Y-116803802D01*
X118901762Y-116790044D01*
X118984132Y-116755925D01*
X119047840Y-116729537D01*
X119047843Y-116729535D01*
X119057939Y-116721787D01*
X119057942Y-116721785D01*
X119173282Y-116633282D01*
X119192510Y-116608222D01*
X119203189Y-116596044D01*
X119391043Y-116408191D01*
X119403222Y-116397510D01*
X119428282Y-116378282D01*
X119453787Y-116345044D01*
X119503839Y-116279815D01*
X119524536Y-116252841D01*
X119543315Y-116207504D01*
X119585044Y-116106762D01*
X119605682Y-115950000D01*
X119605682Y-115949995D01*
X119604456Y-115940682D01*
X119615223Y-115871647D01*
X119661604Y-115819392D01*
X119727395Y-115800499D01*
X119947871Y-115800499D01*
X119947872Y-115800499D01*
X120007483Y-115794091D01*
X120007489Y-115794088D01*
X120015025Y-115792308D01*
X120015321Y-115793561D01*
X120077063Y-115789142D01*
X120090655Y-115793132D01*
X120092627Y-115793598D01*
X120152155Y-115799999D01*
X120152172Y-115800000D01*
X120200000Y-115800000D01*
X120200000Y-115762694D01*
X120219685Y-115695655D01*
X120249690Y-115663426D01*
X120257546Y-115657546D01*
X120343796Y-115542331D01*
X120343885Y-115542093D01*
X120359818Y-115499375D01*
X120401689Y-115443441D01*
X120467153Y-115419023D01*
X120535426Y-115433874D01*
X120584832Y-115483279D01*
X120600000Y-115542707D01*
X120600000Y-115800000D01*
X120647828Y-115800000D01*
X120647844Y-115799999D01*
X120707377Y-115793597D01*
X120714933Y-115791813D01*
X120715272Y-115793250D01*
X120776342Y-115788874D01*
X120791633Y-115793364D01*
X120792622Y-115793597D01*
X120852155Y-115799999D01*
X120852172Y-115800000D01*
X120900000Y-115800000D01*
X120900000Y-115542707D01*
X120919685Y-115475668D01*
X120972489Y-115429913D01*
X121041647Y-115419969D01*
X121105203Y-115448994D01*
X121140182Y-115499375D01*
X121156201Y-115542326D01*
X121156203Y-115542329D01*
X121156204Y-115542331D01*
X121204990Y-115607500D01*
X121242452Y-115657544D01*
X121242454Y-115657546D01*
X121250308Y-115663425D01*
X121292180Y-115719356D01*
X121300000Y-115762694D01*
X121300000Y-115800000D01*
X121347828Y-115800000D01*
X121347844Y-115799999D01*
X121407375Y-115793598D01*
X121414926Y-115791814D01*
X121415315Y-115793462D01*
X121475624Y-115789140D01*
X121492387Y-115794060D01*
X121492511Y-115794088D01*
X121492517Y-115794091D01*
X121552127Y-115800500D01*
X122047872Y-115800499D01*
X122107483Y-115794091D01*
X122107485Y-115794090D01*
X122107487Y-115794090D01*
X122115031Y-115792308D01*
X122115377Y-115793775D01*
X122176342Y-115789408D01*
X122191378Y-115793822D01*
X122192511Y-115794089D01*
X122192517Y-115794091D01*
X122252127Y-115800500D01*
X122747872Y-115800499D01*
X122807483Y-115794091D01*
X122807489Y-115794088D01*
X122815025Y-115792308D01*
X122815321Y-115793561D01*
X122877063Y-115789142D01*
X122890655Y-115793132D01*
X122892627Y-115793598D01*
X122952155Y-115799999D01*
X122952172Y-115800000D01*
X123000000Y-115800000D01*
X123000000Y-115762694D01*
X123019685Y-115695655D01*
X123049690Y-115663426D01*
X123057546Y-115657546D01*
X123143796Y-115542331D01*
X123143885Y-115542093D01*
X123159818Y-115499375D01*
X123201689Y-115443441D01*
X123267153Y-115419023D01*
X123335426Y-115433874D01*
X123384832Y-115483279D01*
X123400000Y-115542707D01*
X123400000Y-115800000D01*
X123447828Y-115800000D01*
X123447844Y-115799999D01*
X123507377Y-115793597D01*
X123514933Y-115791813D01*
X123515272Y-115793250D01*
X123576342Y-115788874D01*
X123591633Y-115793364D01*
X123592622Y-115793597D01*
X123652155Y-115799999D01*
X123652172Y-115800000D01*
X123700000Y-115800000D01*
X123700000Y-115542707D01*
X123719685Y-115475668D01*
X123772489Y-115429913D01*
X123841647Y-115419969D01*
X123905203Y-115448994D01*
X123940182Y-115499375D01*
X123956201Y-115542326D01*
X123956203Y-115542329D01*
X123956204Y-115542331D01*
X124004990Y-115607500D01*
X124042452Y-115657544D01*
X124042454Y-115657546D01*
X124050308Y-115663425D01*
X124092180Y-115719356D01*
X124100000Y-115762694D01*
X124100000Y-115800000D01*
X124147828Y-115800000D01*
X124147844Y-115799999D01*
X124207375Y-115793598D01*
X124214926Y-115791814D01*
X124215315Y-115793462D01*
X124275624Y-115789140D01*
X124292387Y-115794060D01*
X124292511Y-115794088D01*
X124292517Y-115794091D01*
X124352127Y-115800500D01*
X124847872Y-115800499D01*
X124907483Y-115794091D01*
X124907489Y-115794088D01*
X124915025Y-115792308D01*
X124915321Y-115793561D01*
X124977063Y-115789142D01*
X124990655Y-115793132D01*
X124992627Y-115793598D01*
X125052155Y-115799999D01*
X125052172Y-115800000D01*
X125100000Y-115800000D01*
X125100000Y-115762694D01*
X125119685Y-115695655D01*
X125149690Y-115663426D01*
X125157546Y-115657546D01*
X125157546Y-115657544D01*
X125157548Y-115657544D01*
X125200733Y-115599856D01*
X125256667Y-115557984D01*
X125326358Y-115553000D01*
X125387681Y-115586485D01*
X125399267Y-115599856D01*
X125442451Y-115657544D01*
X125442454Y-115657546D01*
X125450308Y-115663425D01*
X125492180Y-115719356D01*
X125500000Y-115762694D01*
X125500000Y-115800000D01*
X125547828Y-115800000D01*
X125547844Y-115799999D01*
X125607375Y-115793598D01*
X125614926Y-115791814D01*
X125615315Y-115793462D01*
X125675624Y-115789140D01*
X125692387Y-115794060D01*
X125692511Y-115794088D01*
X125692517Y-115794091D01*
X125752127Y-115800500D01*
X126247872Y-115800499D01*
X126307483Y-115794091D01*
X126307489Y-115794088D01*
X126315025Y-115792308D01*
X126315321Y-115793561D01*
X126377063Y-115789142D01*
X126390655Y-115793132D01*
X126392627Y-115793598D01*
X126452155Y-115799999D01*
X126452172Y-115800000D01*
X126500000Y-115800000D01*
X126500000Y-115762694D01*
X126519685Y-115695655D01*
X126549690Y-115663426D01*
X126557546Y-115657546D01*
X126557546Y-115657544D01*
X126557548Y-115657544D01*
X126600733Y-115599856D01*
X126656667Y-115557984D01*
X126726358Y-115553000D01*
X126787681Y-115586485D01*
X126799267Y-115599856D01*
X126842451Y-115657544D01*
X126842454Y-115657546D01*
X126850308Y-115663425D01*
X126892180Y-115719356D01*
X126900000Y-115762694D01*
X126900000Y-115800000D01*
X126947828Y-115800000D01*
X126947844Y-115799999D01*
X127007375Y-115793598D01*
X127014926Y-115791814D01*
X127015315Y-115793462D01*
X127075624Y-115789140D01*
X127092387Y-115794060D01*
X127092511Y-115794088D01*
X127092517Y-115794091D01*
X127152127Y-115800500D01*
X127647872Y-115800499D01*
X127707483Y-115794091D01*
X127707485Y-115794090D01*
X127707487Y-115794090D01*
X127715031Y-115792308D01*
X127715377Y-115793775D01*
X127776342Y-115789408D01*
X127791378Y-115793822D01*
X127792511Y-115794089D01*
X127792517Y-115794091D01*
X127852127Y-115800500D01*
X128347872Y-115800499D01*
X128407483Y-115794091D01*
X128407485Y-115794090D01*
X128407487Y-115794090D01*
X128415031Y-115792308D01*
X128415377Y-115793775D01*
X128476342Y-115789408D01*
X128491378Y-115793822D01*
X128492511Y-115794089D01*
X128492517Y-115794091D01*
X128552127Y-115800500D01*
X129047872Y-115800499D01*
X129107483Y-115794091D01*
X129107485Y-115794090D01*
X129107487Y-115794090D01*
X129115031Y-115792308D01*
X129115377Y-115793775D01*
X129176342Y-115789408D01*
X129191378Y-115793822D01*
X129192511Y-115794089D01*
X129192517Y-115794091D01*
X129252127Y-115800500D01*
X129747872Y-115800499D01*
X129807483Y-115794091D01*
X129807485Y-115794090D01*
X129807487Y-115794090D01*
X129815031Y-115792308D01*
X129815377Y-115793775D01*
X129876342Y-115789408D01*
X129891378Y-115793822D01*
X129892511Y-115794089D01*
X129892517Y-115794091D01*
X129952127Y-115800500D01*
X130447872Y-115800499D01*
X130507483Y-115794091D01*
X130507485Y-115794090D01*
X130507487Y-115794090D01*
X130515031Y-115792308D01*
X130515377Y-115793775D01*
X130576342Y-115789408D01*
X130591378Y-115793822D01*
X130592511Y-115794089D01*
X130592517Y-115794091D01*
X130652127Y-115800500D01*
X131147872Y-115800499D01*
X131207483Y-115794091D01*
X131207489Y-115794088D01*
X131215025Y-115792308D01*
X131215321Y-115793561D01*
X131277063Y-115789142D01*
X131290655Y-115793132D01*
X131292627Y-115793598D01*
X131352155Y-115799999D01*
X131352172Y-115800000D01*
X131400000Y-115800000D01*
X131400000Y-115762694D01*
X131419685Y-115695655D01*
X131449690Y-115663426D01*
X131457546Y-115657546D01*
X131543796Y-115542331D01*
X131543885Y-115542093D01*
X131559818Y-115499375D01*
X131601689Y-115443441D01*
X131667153Y-115419023D01*
X131735426Y-115433874D01*
X131784832Y-115483279D01*
X131800000Y-115542707D01*
X131800000Y-115800000D01*
X131847828Y-115800000D01*
X131847844Y-115799999D01*
X131907372Y-115793598D01*
X131907379Y-115793596D01*
X132042086Y-115743354D01*
X132042093Y-115743350D01*
X132157187Y-115657190D01*
X132157190Y-115657187D01*
X132243350Y-115542093D01*
X132243354Y-115542086D01*
X132293596Y-115407379D01*
X132293598Y-115407372D01*
X132299999Y-115347844D01*
X132300000Y-115347827D01*
X132300000Y-113500000D01*
X131789873Y-113500000D01*
X131750855Y-113521305D01*
X131681163Y-113516319D01*
X131625230Y-113474446D01*
X131600815Y-113408981D01*
X131600499Y-113400152D01*
X131600499Y-113223998D01*
X131620184Y-113156961D01*
X131672988Y-113111206D01*
X131724499Y-113100000D01*
X132300000Y-113100000D01*
X132300000Y-111252172D01*
X132299999Y-111252155D01*
X132293598Y-111192627D01*
X132293596Y-111192620D01*
X132243354Y-111057913D01*
X132243350Y-111057906D01*
X132157190Y-110942812D01*
X132157188Y-110942810D01*
X132149781Y-110937265D01*
X132107911Y-110881330D01*
X132102929Y-110811638D01*
X132136410Y-110750323D01*
X132724916Y-110161818D01*
X132786239Y-110128333D01*
X132812597Y-110125499D01*
X133525002Y-110125499D01*
X133525008Y-110125499D01*
X133627797Y-110114999D01*
X133794334Y-110059814D01*
X133943656Y-109967712D01*
X134067712Y-109843656D01*
X134159814Y-109694334D01*
X134214999Y-109527797D01*
X134225500Y-109425009D01*
X134225499Y-108649992D01*
X134224691Y-108642087D01*
X134214999Y-108547203D01*
X134214998Y-108547200D01*
X134201329Y-108505951D01*
X134159814Y-108380666D01*
X134067712Y-108231344D01*
X133943656Y-108107288D01*
X133940819Y-108105538D01*
X133939283Y-108103830D01*
X133937989Y-108102807D01*
X133938163Y-108102585D01*
X133894096Y-108053594D01*
X133882872Y-107984632D01*
X133910713Y-107920549D01*
X133940817Y-107894462D01*
X133943656Y-107892712D01*
X134067712Y-107768656D01*
X134159814Y-107619334D01*
X134214999Y-107452797D01*
X134225500Y-107350009D01*
X134225499Y-106574992D01*
X134214999Y-106472203D01*
X134159814Y-106305666D01*
X134067712Y-106156344D01*
X133943656Y-106032288D01*
X133794334Y-105940186D01*
X133627797Y-105885001D01*
X133627795Y-105885000D01*
X133525010Y-105874500D01*
X132474998Y-105874500D01*
X132474980Y-105874501D01*
X132372203Y-105885000D01*
X132372200Y-105885001D01*
X132205668Y-105940185D01*
X132205663Y-105940187D01*
X132056342Y-106032289D01*
X131932289Y-106156342D01*
X131840187Y-106305663D01*
X131840185Y-106305668D01*
X131817946Y-106372781D01*
X131785001Y-106472203D01*
X131785001Y-106472204D01*
X131785000Y-106472204D01*
X131774500Y-106574983D01*
X131774500Y-107287402D01*
X131754815Y-107354441D01*
X131738137Y-107375127D01*
X131737136Y-107376127D01*
X131675797Y-107409581D01*
X131606107Y-107404562D01*
X131550195Y-107362663D01*
X131525811Y-107297186D01*
X131525499Y-107288427D01*
X131525499Y-106574992D01*
X131514999Y-106472203D01*
X131459814Y-106305666D01*
X131367712Y-106156344D01*
X131243656Y-106032288D01*
X131094334Y-105940186D01*
X130927797Y-105885001D01*
X130927795Y-105885000D01*
X130825016Y-105874500D01*
X130825009Y-105874500D01*
X130596261Y-105874500D01*
X130529222Y-105854815D01*
X130483467Y-105802011D01*
X130473523Y-105732853D01*
X130490722Y-105685403D01*
X130491734Y-105683763D01*
X130562314Y-105569334D01*
X130617499Y-105402797D01*
X130628000Y-105300009D01*
X130628000Y-104964200D01*
X130647685Y-104897161D01*
X130700489Y-104851406D01*
X130752000Y-104840200D01*
X130878888Y-104840200D01*
X130945927Y-104859885D01*
X130956203Y-104867255D01*
X130959036Y-104869514D01*
X130959038Y-104869516D01*
X131061853Y-104934119D01*
X131109726Y-104964200D01*
X131111778Y-104965489D01*
X131267624Y-105020022D01*
X131282045Y-105025068D01*
X131282050Y-105025069D01*
X131461296Y-105045265D01*
X131461300Y-105045265D01*
X131461304Y-105045265D01*
X131640549Y-105025069D01*
X131640552Y-105025068D01*
X131640555Y-105025068D01*
X131810822Y-104965489D01*
X131963562Y-104869516D01*
X132091116Y-104741962D01*
X132187089Y-104589222D01*
X132246668Y-104418955D01*
X132246669Y-104418949D01*
X132266865Y-104239703D01*
X132266865Y-104239696D01*
X132246669Y-104060450D01*
X132246668Y-104060445D01*
X132213129Y-103964596D01*
X132187089Y-103890178D01*
X132186182Y-103888735D01*
X132146732Y-103825951D01*
X132091116Y-103737438D01*
X131963562Y-103609884D01*
X131810823Y-103513911D01*
X131640554Y-103454331D01*
X131640549Y-103454330D01*
X131461304Y-103434135D01*
X131461296Y-103434135D01*
X131282050Y-103454330D01*
X131282045Y-103454331D01*
X131111776Y-103513911D01*
X130959036Y-103609885D01*
X130956203Y-103612145D01*
X130954024Y-103613034D01*
X130953142Y-103613589D01*
X130953044Y-103613434D01*
X130891517Y-103638555D01*
X130878888Y-103639200D01*
X130270933Y-103639200D01*
X130205837Y-103620739D01*
X130196834Y-103615186D01*
X130030297Y-103560001D01*
X130030295Y-103560000D01*
X129927510Y-103549500D01*
X129152498Y-103549500D01*
X129152477Y-103549502D01*
X129070700Y-103557855D01*
X129002007Y-103545085D01*
X128951124Y-103497203D01*
X128934204Y-103429413D01*
X128941058Y-103393544D01*
X128968768Y-103314355D01*
X128972594Y-103280398D01*
X128988965Y-103135103D01*
X128988965Y-103135096D01*
X128968768Y-102955846D01*
X128967913Y-102952098D01*
X128968065Y-102949604D01*
X128967989Y-102948925D01*
X128968108Y-102948911D01*
X128972182Y-102882359D01*
X129013477Y-102825999D01*
X129078688Y-102800912D01*
X129088802Y-102800499D01*
X129600002Y-102800499D01*
X129600008Y-102800499D01*
X129702797Y-102789999D01*
X129869334Y-102734814D01*
X130018656Y-102642712D01*
X130018664Y-102642703D01*
X130023085Y-102639209D01*
X130087879Y-102613066D01*
X130156522Y-102626103D01*
X130176915Y-102639209D01*
X130181339Y-102642707D01*
X130181344Y-102642712D01*
X130330666Y-102734814D01*
X130497203Y-102789999D01*
X130599991Y-102800500D01*
X131400008Y-102800499D01*
X131400016Y-102800498D01*
X131400019Y-102800498D01*
X131465656Y-102793793D01*
X131502797Y-102789999D01*
X131669334Y-102734814D01*
X131818656Y-102642712D01*
X131912675Y-102548692D01*
X131973994Y-102515210D01*
X132043686Y-102520194D01*
X132088034Y-102548695D01*
X132181654Y-102642315D01*
X132330875Y-102734356D01*
X132330880Y-102734358D01*
X132497302Y-102789505D01*
X132497309Y-102789506D01*
X132600019Y-102799999D01*
X132749999Y-102799999D01*
X132750000Y-102799998D01*
X132750000Y-101850000D01*
X133250000Y-101850000D01*
X133250000Y-102799999D01*
X133399972Y-102799999D01*
X133399986Y-102799998D01*
X133502697Y-102789505D01*
X133669119Y-102734358D01*
X133669124Y-102734356D01*
X133818345Y-102642315D01*
X133942315Y-102518345D01*
X134034356Y-102369124D01*
X134034358Y-102369119D01*
X134089505Y-102202697D01*
X134089506Y-102202690D01*
X134099999Y-102099986D01*
X134100000Y-102099973D01*
X134100000Y-101850000D01*
X133250000Y-101850000D01*
X132750000Y-101850000D01*
X132750000Y-101474000D01*
X132769685Y-101406961D01*
X132822489Y-101361206D01*
X132874000Y-101350000D01*
X134099999Y-101350000D01*
X134099999Y-101100028D01*
X134099998Y-101100013D01*
X134089505Y-100997302D01*
X134034358Y-100830880D01*
X134034356Y-100830875D01*
X133947215Y-100689597D01*
X133928775Y-100622204D01*
X133949698Y-100555541D01*
X134003340Y-100510771D01*
X134052754Y-100500500D01*
X138582663Y-100500500D01*
X138649702Y-100520185D01*
G37*
%TD.AperFunction*%
%TA.AperFunction,Conductor*%
G36*
X121042539Y-113119685D02*
G01*
X121088294Y-113172489D01*
X121099500Y-113224000D01*
X121099500Y-113400138D01*
X121079815Y-113467177D01*
X121027011Y-113512932D01*
X120957853Y-113522876D01*
X120907761Y-113500000D01*
X120589873Y-113500000D01*
X120550855Y-113521305D01*
X120481163Y-113516319D01*
X120425230Y-113474446D01*
X120400815Y-113408981D01*
X120400499Y-113400152D01*
X120400499Y-113223998D01*
X120420184Y-113156961D01*
X120472988Y-113111206D01*
X120524499Y-113100000D01*
X120975500Y-113100000D01*
X121042539Y-113119685D01*
G37*
%TD.AperFunction*%
%TA.AperFunction,Conductor*%
G36*
X123392240Y-113100000D02*
G01*
X123775500Y-113100000D01*
X123842539Y-113119685D01*
X123888294Y-113172489D01*
X123899500Y-113224000D01*
X123899500Y-113400138D01*
X123879815Y-113467177D01*
X123827011Y-113512932D01*
X123757853Y-113522876D01*
X123707761Y-113500000D01*
X123389873Y-113500000D01*
X123350855Y-113521305D01*
X123281163Y-113516319D01*
X123225230Y-113474446D01*
X123200815Y-113408981D01*
X123200499Y-113400152D01*
X123200499Y-113199859D01*
X123220184Y-113132822D01*
X123272988Y-113087067D01*
X123342146Y-113077123D01*
X123392240Y-113100000D01*
G37*
%TD.AperFunction*%
%TA.AperFunction,Conductor*%
G36*
X118331590Y-110106843D02*
G01*
X118382475Y-110154723D01*
X118399500Y-110217432D01*
X118399500Y-110675500D01*
X118379815Y-110742539D01*
X118327011Y-110788294D01*
X118275501Y-110799500D01*
X118052130Y-110799500D01*
X118052123Y-110799501D01*
X117992515Y-110805909D01*
X117984971Y-110807692D01*
X117984675Y-110806439D01*
X117922926Y-110810855D01*
X117909357Y-110806870D01*
X117907372Y-110806401D01*
X117847844Y-110800000D01*
X117800000Y-110800000D01*
X117800000Y-110837305D01*
X117780315Y-110904344D01*
X117750315Y-110936569D01*
X117742453Y-110942454D01*
X117742452Y-110942455D01*
X117656206Y-111057664D01*
X117656202Y-111057671D01*
X117640182Y-111100625D01*
X117598311Y-111156559D01*
X117532847Y-111180976D01*
X117464574Y-111166124D01*
X117415168Y-111116719D01*
X117400000Y-111057292D01*
X117400000Y-110800000D01*
X117352155Y-110800000D01*
X117292624Y-110806401D01*
X117285073Y-110808186D01*
X117284734Y-110806754D01*
X117223630Y-110811119D01*
X117208350Y-110806632D01*
X117207375Y-110806401D01*
X117147844Y-110800000D01*
X117048596Y-110800000D01*
X116981557Y-110780315D01*
X116935802Y-110727511D01*
X116925858Y-110658353D01*
X116954883Y-110594797D01*
X116960915Y-110588319D01*
X117412416Y-110136818D01*
X117473739Y-110103333D01*
X117500097Y-110100499D01*
X118200002Y-110100499D01*
X118200008Y-110100499D01*
X118262899Y-110094074D01*
X118331590Y-110106843D01*
G37*
%TD.AperFunction*%
%TA.AperFunction,Conductor*%
G36*
X118979159Y-107704176D02*
G01*
X119005244Y-107734279D01*
X119057096Y-107818345D01*
X119057289Y-107818657D01*
X119150951Y-107912319D01*
X119184436Y-107973642D01*
X119179452Y-108043334D01*
X119150951Y-108087681D01*
X119057289Y-108181342D01*
X119005539Y-108265243D01*
X118953591Y-108311967D01*
X118884628Y-108323190D01*
X118820546Y-108295346D01*
X118794461Y-108265243D01*
X118773551Y-108231342D01*
X118742712Y-108181344D01*
X118648695Y-108087327D01*
X118615210Y-108026004D01*
X118620194Y-107956312D01*
X118648695Y-107911964D01*
X118742318Y-107818341D01*
X118794167Y-107734281D01*
X118846115Y-107687556D01*
X118915077Y-107676333D01*
X118979159Y-107704176D01*
G37*
%TD.AperFunction*%
%TA.AperFunction,Conductor*%
G36*
X116478177Y-106732185D02*
G01*
X116498819Y-106748819D01*
X116500000Y-106750000D01*
X117826000Y-106750000D01*
X117893039Y-106769685D01*
X117938794Y-106822489D01*
X117950000Y-106874000D01*
X117950000Y-107126000D01*
X117930315Y-107193039D01*
X117877511Y-107238794D01*
X117826000Y-107250000D01*
X116513862Y-107250000D01*
X116446823Y-107230315D01*
X116426181Y-107213681D01*
X116425000Y-107212500D01*
X115074000Y-107212500D01*
X115006961Y-107192815D01*
X114961206Y-107140011D01*
X114950000Y-107088500D01*
X114950000Y-106836500D01*
X114969685Y-106769461D01*
X115022489Y-106723706D01*
X115074000Y-106712500D01*
X116411138Y-106712500D01*
X116478177Y-106732185D01*
G37*
%TD.AperFunction*%
%TA.AperFunction,Conductor*%
G36*
X126274809Y-102540185D02*
G01*
X126295451Y-102556819D01*
X126381344Y-102642712D01*
X126530666Y-102734814D01*
X126697203Y-102789999D01*
X126799991Y-102800500D01*
X127277997Y-102800499D01*
X127345036Y-102820183D01*
X127390791Y-102872987D01*
X127400735Y-102942146D01*
X127398889Y-102952088D01*
X127398031Y-102955847D01*
X127377835Y-103135096D01*
X127377835Y-103135103D01*
X127398030Y-103314349D01*
X127398032Y-103314357D01*
X127422767Y-103385046D01*
X127426328Y-103454825D01*
X127391599Y-103515452D01*
X127329605Y-103547679D01*
X127305726Y-103550000D01*
X127077529Y-103550000D01*
X127077512Y-103550001D01*
X126974802Y-103560494D01*
X126808380Y-103615641D01*
X126808375Y-103615643D01*
X126659154Y-103707684D01*
X126535184Y-103831654D01*
X126443143Y-103980875D01*
X126443139Y-103980885D01*
X126437805Y-103996981D01*
X126398030Y-104054424D01*
X126333513Y-104081245D01*
X126270729Y-104070000D01*
X125345000Y-104070000D01*
X125345000Y-104620000D01*
X125673134Y-104620000D01*
X125673149Y-104619999D01*
X125709989Y-104617100D01*
X125709995Y-104617099D01*
X125867693Y-104571283D01*
X125867696Y-104571282D01*
X126009052Y-104487685D01*
X126009061Y-104487678D01*
X126125178Y-104371561D01*
X126125182Y-104371555D01*
X126146767Y-104335058D01*
X126197836Y-104287374D01*
X126266577Y-104274870D01*
X126331167Y-104301515D01*
X126371098Y-104358849D01*
X126377500Y-104398178D01*
X126377500Y-104525000D01*
X127591000Y-104525000D01*
X127658039Y-104544685D01*
X127703794Y-104597489D01*
X127715000Y-104649000D01*
X127715000Y-105832000D01*
X127826000Y-105832000D01*
X127893039Y-105851685D01*
X127938794Y-105904489D01*
X127950000Y-105956000D01*
X127950000Y-107088500D01*
X127930315Y-107155539D01*
X127877511Y-107201294D01*
X127826000Y-107212500D01*
X125074000Y-107212500D01*
X125006961Y-107192815D01*
X124961206Y-107140011D01*
X124950000Y-107088500D01*
X124950000Y-106712500D01*
X125450000Y-106712500D01*
X127450000Y-106712500D01*
X127450000Y-106043000D01*
X127339000Y-106043000D01*
X127271961Y-106023315D01*
X127226206Y-105970511D01*
X127215000Y-105919000D01*
X127215000Y-105025000D01*
X126377501Y-105025000D01*
X126377501Y-105299986D01*
X126387994Y-105402697D01*
X126443141Y-105569119D01*
X126443143Y-105569124D01*
X126535184Y-105718345D01*
X126659156Y-105842317D01*
X126703727Y-105869809D01*
X126750451Y-105921757D01*
X126761672Y-105990720D01*
X126733829Y-106054802D01*
X126726311Y-106063028D01*
X126632680Y-106156659D01*
X126555538Y-106281726D01*
X126503590Y-106328451D01*
X126434628Y-106339672D01*
X126370546Y-106311829D01*
X126344462Y-106281726D01*
X126267319Y-106156659D01*
X126267316Y-106156655D01*
X126143345Y-106032684D01*
X125994124Y-105940643D01*
X125994119Y-105940641D01*
X125827697Y-105885494D01*
X125827690Y-105885493D01*
X125724986Y-105875000D01*
X125450000Y-105875000D01*
X125450000Y-106712500D01*
X124950000Y-106712500D01*
X124950000Y-105875000D01*
X124851700Y-105875000D01*
X124784661Y-105855315D01*
X124738906Y-105802511D01*
X124727700Y-105751000D01*
X124727700Y-104744000D01*
X124747385Y-104676961D01*
X124800189Y-104631206D01*
X124843137Y-104621862D01*
X124845000Y-104620000D01*
X124845000Y-103070597D01*
X124859857Y-103020000D01*
X125345000Y-103020000D01*
X125345000Y-103570000D01*
X126254795Y-103570000D01*
X126254795Y-103569998D01*
X126254600Y-103567513D01*
X126208781Y-103409801D01*
X126125185Y-103268447D01*
X126125178Y-103268438D01*
X126009061Y-103152321D01*
X126009052Y-103152314D01*
X125867696Y-103068717D01*
X125867693Y-103068716D01*
X125709995Y-103022900D01*
X125709989Y-103022899D01*
X125673149Y-103020000D01*
X125345000Y-103020000D01*
X124859857Y-103020000D01*
X124864685Y-103003558D01*
X124881319Y-102982916D01*
X125107416Y-102756819D01*
X125168739Y-102723334D01*
X125195097Y-102720500D01*
X125673186Y-102720500D01*
X125673194Y-102720500D01*
X125710069Y-102717598D01*
X125710071Y-102717597D01*
X125710073Y-102717597D01*
X125795733Y-102692710D01*
X125867898Y-102671744D01*
X126009365Y-102588081D01*
X126040626Y-102556820D01*
X126101948Y-102523334D01*
X126128308Y-102520500D01*
X126207770Y-102520500D01*
X126274809Y-102540185D01*
G37*
%TD.AperFunction*%
%TD*%
M02*
