%TF.GenerationSoftware,KiCad,Pcbnew,7.0.11+dfsg-1build4*%
%TF.CreationDate,2026-06-07T17:52:00-05:00*%
%TF.ProjectId,panel-mount-oled-display-display-board,70616e65-6c2d-46d6-9f75-6e742d6f6c65,rev?*%
%TF.SameCoordinates,Original*%
%TF.FileFunction,Legend,Bot*%
%TF.FilePolarity,Positive*%
%FSLAX46Y46*%
G04 Gerber Fmt 4.6, Leading zero omitted, Abs format (unit mm)*
G04 Created by KiCad (PCBNEW 7.0.11+dfsg-1build4) date 2026-06-07 17:52:00*
%MOMM*%
%LPD*%
G01*
G04 APERTURE LIST*
%ADD10C,0.100000*%
%ADD11C,0.150000*%
%ADD12C,0.120000*%
G04 APERTURE END LIST*
D10*
X133950000Y-100500000D02*
X133950000Y-120600000D01*
X108950000Y-100500000D02*
X108950000Y-120600000D01*
D11*
X106565449Y-106673933D02*
X106332116Y-107373933D01*
X106332116Y-107373933D02*
X106098782Y-106673933D01*
X105465449Y-107307266D02*
X105498782Y-107340600D01*
X105498782Y-107340600D02*
X105598782Y-107373933D01*
X105598782Y-107373933D02*
X105665449Y-107373933D01*
X105665449Y-107373933D02*
X105765449Y-107340600D01*
X105765449Y-107340600D02*
X105832116Y-107273933D01*
X105832116Y-107273933D02*
X105865449Y-107207266D01*
X105865449Y-107207266D02*
X105898782Y-107073933D01*
X105898782Y-107073933D02*
X105898782Y-106973933D01*
X105898782Y-106973933D02*
X105865449Y-106840600D01*
X105865449Y-106840600D02*
X105832116Y-106773933D01*
X105832116Y-106773933D02*
X105765449Y-106707266D01*
X105765449Y-106707266D02*
X105665449Y-106673933D01*
X105665449Y-106673933D02*
X105598782Y-106673933D01*
X105598782Y-106673933D02*
X105498782Y-106707266D01*
X105498782Y-106707266D02*
X105465449Y-106740600D01*
X104765449Y-107307266D02*
X104798782Y-107340600D01*
X104798782Y-107340600D02*
X104898782Y-107373933D01*
X104898782Y-107373933D02*
X104965449Y-107373933D01*
X104965449Y-107373933D02*
X105065449Y-107340600D01*
X105065449Y-107340600D02*
X105132116Y-107273933D01*
X105132116Y-107273933D02*
X105165449Y-107207266D01*
X105165449Y-107207266D02*
X105198782Y-107073933D01*
X105198782Y-107073933D02*
X105198782Y-106973933D01*
X105198782Y-106973933D02*
X105165449Y-106840600D01*
X105165449Y-106840600D02*
X105132116Y-106773933D01*
X105132116Y-106773933D02*
X105065449Y-106707266D01*
X105065449Y-106707266D02*
X104965449Y-106673933D01*
X104965449Y-106673933D02*
X104898782Y-106673933D01*
X104898782Y-106673933D02*
X104798782Y-106707266D01*
X104798782Y-106707266D02*
X104765449Y-106740600D01*
X138113849Y-119632733D02*
X138113849Y-118932733D01*
X138113849Y-118932733D02*
X137847182Y-118932733D01*
X137847182Y-118932733D02*
X137780516Y-118966066D01*
X137780516Y-118966066D02*
X137747182Y-118999400D01*
X137747182Y-118999400D02*
X137713849Y-119066066D01*
X137713849Y-119066066D02*
X137713849Y-119166066D01*
X137713849Y-119166066D02*
X137747182Y-119232733D01*
X137747182Y-119232733D02*
X137780516Y-119266066D01*
X137780516Y-119266066D02*
X137847182Y-119299400D01*
X137847182Y-119299400D02*
X138113849Y-119299400D01*
X137447182Y-119432733D02*
X137113849Y-119432733D01*
X137513849Y-119632733D02*
X137280516Y-118932733D01*
X137280516Y-118932733D02*
X137047182Y-119632733D01*
X136813849Y-119632733D02*
X136813849Y-118932733D01*
X136813849Y-118932733D02*
X136413849Y-119632733D01*
X136413849Y-119632733D02*
X136413849Y-118932733D01*
X136080516Y-119266066D02*
X135847183Y-119266066D01*
X135747183Y-119632733D02*
X136080516Y-119632733D01*
X136080516Y-119632733D02*
X136080516Y-118932733D01*
X136080516Y-118932733D02*
X135747183Y-118932733D01*
X135113850Y-119632733D02*
X135447183Y-119632733D01*
X135447183Y-119632733D02*
X135447183Y-118932733D01*
X134347183Y-119632733D02*
X134347183Y-118932733D01*
X134347183Y-118932733D02*
X134113850Y-119432733D01*
X134113850Y-119432733D02*
X133880516Y-118932733D01*
X133880516Y-118932733D02*
X133880516Y-119632733D01*
X133547183Y-119632733D02*
X133547183Y-118932733D01*
X133547183Y-118932733D02*
X133147183Y-119632733D01*
X133147183Y-119632733D02*
X133147183Y-118932733D01*
X132913850Y-118932733D02*
X132513850Y-118932733D01*
X132713850Y-119632733D02*
X132713850Y-118932733D01*
X137980516Y-120059733D02*
X137847182Y-120059733D01*
X137847182Y-120059733D02*
X137780516Y-120093066D01*
X137780516Y-120093066D02*
X137713849Y-120159733D01*
X137713849Y-120159733D02*
X137680516Y-120293066D01*
X137680516Y-120293066D02*
X137680516Y-120526400D01*
X137680516Y-120526400D02*
X137713849Y-120659733D01*
X137713849Y-120659733D02*
X137780516Y-120726400D01*
X137780516Y-120726400D02*
X137847182Y-120759733D01*
X137847182Y-120759733D02*
X137980516Y-120759733D01*
X137980516Y-120759733D02*
X138047182Y-120726400D01*
X138047182Y-120726400D02*
X138113849Y-120659733D01*
X138113849Y-120659733D02*
X138147182Y-120526400D01*
X138147182Y-120526400D02*
X138147182Y-120293066D01*
X138147182Y-120293066D02*
X138113849Y-120159733D01*
X138113849Y-120159733D02*
X138047182Y-120093066D01*
X138047182Y-120093066D02*
X137980516Y-120059733D01*
X137047183Y-120759733D02*
X137380516Y-120759733D01*
X137380516Y-120759733D02*
X137380516Y-120059733D01*
X136813849Y-120393066D02*
X136580516Y-120393066D01*
X136480516Y-120759733D02*
X136813849Y-120759733D01*
X136813849Y-120759733D02*
X136813849Y-120059733D01*
X136813849Y-120059733D02*
X136480516Y-120059733D01*
X136180516Y-120759733D02*
X136180516Y-120059733D01*
X136180516Y-120059733D02*
X136013849Y-120059733D01*
X136013849Y-120059733D02*
X135913849Y-120093066D01*
X135913849Y-120093066D02*
X135847183Y-120159733D01*
X135847183Y-120159733D02*
X135813849Y-120226400D01*
X135813849Y-120226400D02*
X135780516Y-120359733D01*
X135780516Y-120359733D02*
X135780516Y-120459733D01*
X135780516Y-120459733D02*
X135813849Y-120593066D01*
X135813849Y-120593066D02*
X135847183Y-120659733D01*
X135847183Y-120659733D02*
X135913849Y-120726400D01*
X135913849Y-120726400D02*
X136013849Y-120759733D01*
X136013849Y-120759733D02*
X136180516Y-120759733D01*
X137797982Y-106554866D02*
X137864649Y-106521533D01*
X137864649Y-106521533D02*
X137964649Y-106521533D01*
X137964649Y-106521533D02*
X138064649Y-106554866D01*
X138064649Y-106554866D02*
X138131316Y-106621533D01*
X138131316Y-106621533D02*
X138164649Y-106688200D01*
X138164649Y-106688200D02*
X138197982Y-106821533D01*
X138197982Y-106821533D02*
X138197982Y-106921533D01*
X138197982Y-106921533D02*
X138164649Y-107054866D01*
X138164649Y-107054866D02*
X138131316Y-107121533D01*
X138131316Y-107121533D02*
X138064649Y-107188200D01*
X138064649Y-107188200D02*
X137964649Y-107221533D01*
X137964649Y-107221533D02*
X137897982Y-107221533D01*
X137897982Y-107221533D02*
X137797982Y-107188200D01*
X137797982Y-107188200D02*
X137764649Y-107154866D01*
X137764649Y-107154866D02*
X137764649Y-106921533D01*
X137764649Y-106921533D02*
X137897982Y-106921533D01*
X137464649Y-107221533D02*
X137464649Y-106521533D01*
X137464649Y-106521533D02*
X137064649Y-107221533D01*
X137064649Y-107221533D02*
X137064649Y-106521533D01*
X136731316Y-107221533D02*
X136731316Y-106521533D01*
X136731316Y-106521533D02*
X136564649Y-106521533D01*
X136564649Y-106521533D02*
X136464649Y-106554866D01*
X136464649Y-106554866D02*
X136397983Y-106621533D01*
X136397983Y-106621533D02*
X136364649Y-106688200D01*
X136364649Y-106688200D02*
X136331316Y-106821533D01*
X136331316Y-106821533D02*
X136331316Y-106921533D01*
X136331316Y-106921533D02*
X136364649Y-107054866D01*
X136364649Y-107054866D02*
X136397983Y-107121533D01*
X136397983Y-107121533D02*
X136464649Y-107188200D01*
X136464649Y-107188200D02*
X136564649Y-107221533D01*
X136564649Y-107221533D02*
X136731316Y-107221533D01*
X108684649Y-119379533D02*
X108684649Y-118679533D01*
X108684649Y-118679533D02*
X108517982Y-118679533D01*
X108517982Y-118679533D02*
X108417982Y-118712866D01*
X108417982Y-118712866D02*
X108351316Y-118779533D01*
X108351316Y-118779533D02*
X108317982Y-118846200D01*
X108317982Y-118846200D02*
X108284649Y-118979533D01*
X108284649Y-118979533D02*
X108284649Y-119079533D01*
X108284649Y-119079533D02*
X108317982Y-119212866D01*
X108317982Y-119212866D02*
X108351316Y-119279533D01*
X108351316Y-119279533D02*
X108417982Y-119346200D01*
X108417982Y-119346200D02*
X108517982Y-119379533D01*
X108517982Y-119379533D02*
X108684649Y-119379533D01*
X107984649Y-119379533D02*
X107984649Y-118679533D01*
X107684649Y-119346200D02*
X107584649Y-119379533D01*
X107584649Y-119379533D02*
X107417983Y-119379533D01*
X107417983Y-119379533D02*
X107351316Y-119346200D01*
X107351316Y-119346200D02*
X107317983Y-119312866D01*
X107317983Y-119312866D02*
X107284649Y-119246200D01*
X107284649Y-119246200D02*
X107284649Y-119179533D01*
X107284649Y-119179533D02*
X107317983Y-119112866D01*
X107317983Y-119112866D02*
X107351316Y-119079533D01*
X107351316Y-119079533D02*
X107417983Y-119046200D01*
X107417983Y-119046200D02*
X107551316Y-119012866D01*
X107551316Y-119012866D02*
X107617983Y-118979533D01*
X107617983Y-118979533D02*
X107651316Y-118946200D01*
X107651316Y-118946200D02*
X107684649Y-118879533D01*
X107684649Y-118879533D02*
X107684649Y-118812866D01*
X107684649Y-118812866D02*
X107651316Y-118746200D01*
X107651316Y-118746200D02*
X107617983Y-118712866D01*
X107617983Y-118712866D02*
X107551316Y-118679533D01*
X107551316Y-118679533D02*
X107384649Y-118679533D01*
X107384649Y-118679533D02*
X107284649Y-118712866D01*
X106984649Y-119379533D02*
X106984649Y-118679533D01*
X106984649Y-118679533D02*
X106717982Y-118679533D01*
X106717982Y-118679533D02*
X106651316Y-118712866D01*
X106651316Y-118712866D02*
X106617982Y-118746200D01*
X106617982Y-118746200D02*
X106584649Y-118812866D01*
X106584649Y-118812866D02*
X106584649Y-118912866D01*
X106584649Y-118912866D02*
X106617982Y-118979533D01*
X106617982Y-118979533D02*
X106651316Y-119012866D01*
X106651316Y-119012866D02*
X106717982Y-119046200D01*
X106717982Y-119046200D02*
X106984649Y-119046200D01*
X105951316Y-119379533D02*
X106284649Y-119379533D01*
X106284649Y-119379533D02*
X106284649Y-118679533D01*
X105751315Y-119179533D02*
X105417982Y-119179533D01*
X105817982Y-119379533D02*
X105584649Y-118679533D01*
X105584649Y-118679533D02*
X105351315Y-119379533D01*
X104984649Y-119046200D02*
X104984649Y-119379533D01*
X105217982Y-118679533D02*
X104984649Y-119046200D01*
X104984649Y-119046200D02*
X104751315Y-118679533D01*
X108451316Y-120139866D02*
X108351316Y-120173200D01*
X108351316Y-120173200D02*
X108317982Y-120206533D01*
X108317982Y-120206533D02*
X108284649Y-120273200D01*
X108284649Y-120273200D02*
X108284649Y-120373200D01*
X108284649Y-120373200D02*
X108317982Y-120439866D01*
X108317982Y-120439866D02*
X108351316Y-120473200D01*
X108351316Y-120473200D02*
X108417982Y-120506533D01*
X108417982Y-120506533D02*
X108684649Y-120506533D01*
X108684649Y-120506533D02*
X108684649Y-119806533D01*
X108684649Y-119806533D02*
X108451316Y-119806533D01*
X108451316Y-119806533D02*
X108384649Y-119839866D01*
X108384649Y-119839866D02*
X108351316Y-119873200D01*
X108351316Y-119873200D02*
X108317982Y-119939866D01*
X108317982Y-119939866D02*
X108317982Y-120006533D01*
X108317982Y-120006533D02*
X108351316Y-120073200D01*
X108351316Y-120073200D02*
X108384649Y-120106533D01*
X108384649Y-120106533D02*
X108451316Y-120139866D01*
X108451316Y-120139866D02*
X108684649Y-120139866D01*
X107851316Y-119806533D02*
X107717982Y-119806533D01*
X107717982Y-119806533D02*
X107651316Y-119839866D01*
X107651316Y-119839866D02*
X107584649Y-119906533D01*
X107584649Y-119906533D02*
X107551316Y-120039866D01*
X107551316Y-120039866D02*
X107551316Y-120273200D01*
X107551316Y-120273200D02*
X107584649Y-120406533D01*
X107584649Y-120406533D02*
X107651316Y-120473200D01*
X107651316Y-120473200D02*
X107717982Y-120506533D01*
X107717982Y-120506533D02*
X107851316Y-120506533D01*
X107851316Y-120506533D02*
X107917982Y-120473200D01*
X107917982Y-120473200D02*
X107984649Y-120406533D01*
X107984649Y-120406533D02*
X108017982Y-120273200D01*
X108017982Y-120273200D02*
X108017982Y-120039866D01*
X108017982Y-120039866D02*
X107984649Y-119906533D01*
X107984649Y-119906533D02*
X107917982Y-119839866D01*
X107917982Y-119839866D02*
X107851316Y-119806533D01*
X107284649Y-120306533D02*
X106951316Y-120306533D01*
X107351316Y-120506533D02*
X107117983Y-119806533D01*
X107117983Y-119806533D02*
X106884649Y-120506533D01*
X106251316Y-120506533D02*
X106484649Y-120173200D01*
X106651316Y-120506533D02*
X106651316Y-119806533D01*
X106651316Y-119806533D02*
X106384649Y-119806533D01*
X106384649Y-119806533D02*
X106317983Y-119839866D01*
X106317983Y-119839866D02*
X106284649Y-119873200D01*
X106284649Y-119873200D02*
X106251316Y-119939866D01*
X106251316Y-119939866D02*
X106251316Y-120039866D01*
X106251316Y-120039866D02*
X106284649Y-120106533D01*
X106284649Y-120106533D02*
X106317983Y-120139866D01*
X106317983Y-120139866D02*
X106384649Y-120173200D01*
X106384649Y-120173200D02*
X106651316Y-120173200D01*
X105951316Y-120506533D02*
X105951316Y-119806533D01*
X105951316Y-119806533D02*
X105784649Y-119806533D01*
X105784649Y-119806533D02*
X105684649Y-119839866D01*
X105684649Y-119839866D02*
X105617983Y-119906533D01*
X105617983Y-119906533D02*
X105584649Y-119973200D01*
X105584649Y-119973200D02*
X105551316Y-120106533D01*
X105551316Y-120106533D02*
X105551316Y-120206533D01*
X105551316Y-120206533D02*
X105584649Y-120339866D01*
X105584649Y-120339866D02*
X105617983Y-120406533D01*
X105617983Y-120406533D02*
X105684649Y-120473200D01*
X105684649Y-120473200D02*
X105784649Y-120506533D01*
X105784649Y-120506533D02*
X105951316Y-120506533D01*
X108252419Y-109955105D02*
X107252419Y-109955105D01*
X107252419Y-109955105D02*
X107252419Y-110193200D01*
X107252419Y-110193200D02*
X107300038Y-110336057D01*
X107300038Y-110336057D02*
X107395276Y-110431295D01*
X107395276Y-110431295D02*
X107490514Y-110478914D01*
X107490514Y-110478914D02*
X107680990Y-110526533D01*
X107680990Y-110526533D02*
X107823847Y-110526533D01*
X107823847Y-110526533D02*
X108014323Y-110478914D01*
X108014323Y-110478914D02*
X108109561Y-110431295D01*
X108109561Y-110431295D02*
X108204800Y-110336057D01*
X108204800Y-110336057D02*
X108252419Y-110193200D01*
X108252419Y-110193200D02*
X108252419Y-109955105D01*
X107252419Y-111431295D02*
X107252419Y-110955105D01*
X107252419Y-110955105D02*
X107728609Y-110907486D01*
X107728609Y-110907486D02*
X107680990Y-110955105D01*
X107680990Y-110955105D02*
X107633371Y-111050343D01*
X107633371Y-111050343D02*
X107633371Y-111288438D01*
X107633371Y-111288438D02*
X107680990Y-111383676D01*
X107680990Y-111383676D02*
X107728609Y-111431295D01*
X107728609Y-111431295D02*
X107823847Y-111478914D01*
X107823847Y-111478914D02*
X108061942Y-111478914D01*
X108061942Y-111478914D02*
X108157180Y-111431295D01*
X108157180Y-111431295D02*
X108204800Y-111383676D01*
X108204800Y-111383676D02*
X108252419Y-111288438D01*
X108252419Y-111288438D02*
X108252419Y-111050343D01*
X108252419Y-111050343D02*
X108204800Y-110955105D01*
X108204800Y-110955105D02*
X108157180Y-110907486D01*
X108277819Y-103512505D02*
X107277819Y-103512505D01*
X107277819Y-103512505D02*
X107277819Y-103750600D01*
X107277819Y-103750600D02*
X107325438Y-103893457D01*
X107325438Y-103893457D02*
X107420676Y-103988695D01*
X107420676Y-103988695D02*
X107515914Y-104036314D01*
X107515914Y-104036314D02*
X107706390Y-104083933D01*
X107706390Y-104083933D02*
X107849247Y-104083933D01*
X107849247Y-104083933D02*
X108039723Y-104036314D01*
X108039723Y-104036314D02*
X108134961Y-103988695D01*
X108134961Y-103988695D02*
X108230200Y-103893457D01*
X108230200Y-103893457D02*
X108277819Y-103750600D01*
X108277819Y-103750600D02*
X108277819Y-103512505D01*
X107611152Y-104941076D02*
X108277819Y-104941076D01*
X107230200Y-104702981D02*
X107944485Y-104464886D01*
X107944485Y-104464886D02*
X107944485Y-105083933D01*
X108275219Y-116111305D02*
X107275219Y-116111305D01*
X107275219Y-116111305D02*
X107275219Y-116349400D01*
X107275219Y-116349400D02*
X107322838Y-116492257D01*
X107322838Y-116492257D02*
X107418076Y-116587495D01*
X107418076Y-116587495D02*
X107513314Y-116635114D01*
X107513314Y-116635114D02*
X107703790Y-116682733D01*
X107703790Y-116682733D02*
X107846647Y-116682733D01*
X107846647Y-116682733D02*
X108037123Y-116635114D01*
X108037123Y-116635114D02*
X108132361Y-116587495D01*
X108132361Y-116587495D02*
X108227600Y-116492257D01*
X108227600Y-116492257D02*
X108275219Y-116349400D01*
X108275219Y-116349400D02*
X108275219Y-116111305D01*
X107275219Y-117539876D02*
X107275219Y-117349400D01*
X107275219Y-117349400D02*
X107322838Y-117254162D01*
X107322838Y-117254162D02*
X107370457Y-117206543D01*
X107370457Y-117206543D02*
X107513314Y-117111305D01*
X107513314Y-117111305D02*
X107703790Y-117063686D01*
X107703790Y-117063686D02*
X108084742Y-117063686D01*
X108084742Y-117063686D02*
X108179980Y-117111305D01*
X108179980Y-117111305D02*
X108227600Y-117158924D01*
X108227600Y-117158924D02*
X108275219Y-117254162D01*
X108275219Y-117254162D02*
X108275219Y-117444638D01*
X108275219Y-117444638D02*
X108227600Y-117539876D01*
X108227600Y-117539876D02*
X108179980Y-117587495D01*
X108179980Y-117587495D02*
X108084742Y-117635114D01*
X108084742Y-117635114D02*
X107846647Y-117635114D01*
X107846647Y-117635114D02*
X107751409Y-117587495D01*
X107751409Y-117587495D02*
X107703790Y-117539876D01*
X107703790Y-117539876D02*
X107656171Y-117444638D01*
X107656171Y-117444638D02*
X107656171Y-117254162D01*
X107656171Y-117254162D02*
X107703790Y-117158924D01*
X107703790Y-117158924D02*
X107751409Y-117111305D01*
X107751409Y-117111305D02*
X107846647Y-117063686D01*
X135510019Y-115991305D02*
X134510019Y-115991305D01*
X134510019Y-115991305D02*
X134510019Y-116229400D01*
X134510019Y-116229400D02*
X134557638Y-116372257D01*
X134557638Y-116372257D02*
X134652876Y-116467495D01*
X134652876Y-116467495D02*
X134748114Y-116515114D01*
X134748114Y-116515114D02*
X134938590Y-116562733D01*
X134938590Y-116562733D02*
X135081447Y-116562733D01*
X135081447Y-116562733D02*
X135271923Y-116515114D01*
X135271923Y-116515114D02*
X135367161Y-116467495D01*
X135367161Y-116467495D02*
X135462400Y-116372257D01*
X135462400Y-116372257D02*
X135510019Y-116229400D01*
X135510019Y-116229400D02*
X135510019Y-115991305D01*
X134510019Y-116896067D02*
X134510019Y-117515114D01*
X134510019Y-117515114D02*
X134890971Y-117181781D01*
X134890971Y-117181781D02*
X134890971Y-117324638D01*
X134890971Y-117324638D02*
X134938590Y-117419876D01*
X134938590Y-117419876D02*
X134986209Y-117467495D01*
X134986209Y-117467495D02*
X135081447Y-117515114D01*
X135081447Y-117515114D02*
X135319542Y-117515114D01*
X135319542Y-117515114D02*
X135414780Y-117467495D01*
X135414780Y-117467495D02*
X135462400Y-117419876D01*
X135462400Y-117419876D02*
X135510019Y-117324638D01*
X135510019Y-117324638D02*
X135510019Y-117038924D01*
X135510019Y-117038924D02*
X135462400Y-116943686D01*
X135462400Y-116943686D02*
X135414780Y-116896067D01*
X135684419Y-109955105D02*
X134684419Y-109955105D01*
X134684419Y-109955105D02*
X134684419Y-110193200D01*
X134684419Y-110193200D02*
X134732038Y-110336057D01*
X134732038Y-110336057D02*
X134827276Y-110431295D01*
X134827276Y-110431295D02*
X134922514Y-110478914D01*
X134922514Y-110478914D02*
X135112990Y-110526533D01*
X135112990Y-110526533D02*
X135255847Y-110526533D01*
X135255847Y-110526533D02*
X135446323Y-110478914D01*
X135446323Y-110478914D02*
X135541561Y-110431295D01*
X135541561Y-110431295D02*
X135636800Y-110336057D01*
X135636800Y-110336057D02*
X135684419Y-110193200D01*
X135684419Y-110193200D02*
X135684419Y-109955105D01*
X134779657Y-110907486D02*
X134732038Y-110955105D01*
X134732038Y-110955105D02*
X134684419Y-111050343D01*
X134684419Y-111050343D02*
X134684419Y-111288438D01*
X134684419Y-111288438D02*
X134732038Y-111383676D01*
X134732038Y-111383676D02*
X134779657Y-111431295D01*
X134779657Y-111431295D02*
X134874895Y-111478914D01*
X134874895Y-111478914D02*
X134970133Y-111478914D01*
X134970133Y-111478914D02*
X135112990Y-111431295D01*
X135112990Y-111431295D02*
X135684419Y-110859867D01*
X135684419Y-110859867D02*
X135684419Y-111478914D01*
X135684419Y-103614105D02*
X134684419Y-103614105D01*
X134684419Y-103614105D02*
X134684419Y-103852200D01*
X134684419Y-103852200D02*
X134732038Y-103995057D01*
X134732038Y-103995057D02*
X134827276Y-104090295D01*
X134827276Y-104090295D02*
X134922514Y-104137914D01*
X134922514Y-104137914D02*
X135112990Y-104185533D01*
X135112990Y-104185533D02*
X135255847Y-104185533D01*
X135255847Y-104185533D02*
X135446323Y-104137914D01*
X135446323Y-104137914D02*
X135541561Y-104090295D01*
X135541561Y-104090295D02*
X135636800Y-103995057D01*
X135636800Y-103995057D02*
X135684419Y-103852200D01*
X135684419Y-103852200D02*
X135684419Y-103614105D01*
X135684419Y-105137914D02*
X135684419Y-104566486D01*
X135684419Y-104852200D02*
X134684419Y-104852200D01*
X134684419Y-104852200D02*
X134827276Y-104756962D01*
X134827276Y-104756962D02*
X134922514Y-104661724D01*
X134922514Y-104661724D02*
X134970133Y-104566486D01*
D12*
%TO.C,D5*%
X107030400Y-108690000D02*
X107030400Y-111550000D01*
X105110400Y-108690000D02*
X107030400Y-108690000D01*
X105110400Y-111550000D02*
X105110400Y-108690000D01*
%TO.C,D4*%
X107030400Y-102492200D02*
X107030400Y-105352200D01*
X105110400Y-102492200D02*
X107030400Y-102492200D01*
X105110400Y-105352200D02*
X105110400Y-102492200D01*
%TO.C,D6*%
X107030400Y-114869400D02*
X107030400Y-117729400D01*
X105110400Y-114869400D02*
X107030400Y-114869400D01*
X105110400Y-117729400D02*
X105110400Y-114869400D01*
%TO.C,D3*%
X137815200Y-114869400D02*
X137815200Y-117729400D01*
X135895200Y-114869400D02*
X137815200Y-114869400D01*
X135895200Y-117729400D02*
X135895200Y-114869400D01*
%TO.C,D2*%
X137815200Y-108690000D02*
X137815200Y-111550000D01*
X135895200Y-108690000D02*
X137815200Y-108690000D01*
X135895200Y-111550000D02*
X135895200Y-108690000D01*
%TO.C,D1*%
X137815200Y-102492200D02*
X137815200Y-105352200D01*
X135895200Y-102492200D02*
X137815200Y-102492200D01*
X135895200Y-105352200D02*
X135895200Y-102492200D01*
%TD*%
M02*
